<svg width="1551" height="420" viewBox="0 0 1551 420" fill="none" xmlns="http://www.w3.org/2000/svg">
<rect width="1551" height="420" fill="white"/>
<path d="M344 12L382.537 204.983C382.843 206.514 382.847 208.09 382.549 209.622L344 408" stroke="#D6D3D1" stroke-linejoin="round"/>
<path d="M719 12L757.537 204.983C757.843 206.514 757.847 208.09 757.549 209.622L719 408" stroke="#D6D3D1" stroke-linejoin="round"/>
<path d="M1120 12L1158.54 204.983C1158.84 206.514 1158.85 208.09 1158.55 209.622L1120 408" stroke="#D6D3D1" stroke-linejoin="round"/>
<path d="M1493 12L1531.54 204.983C1531.84 206.514 1531.85 208.09 1531.55 209.622L1493 408" stroke="#D6D3D1" stroke-linejoin="round"/>
<mask id="path-5-inside-1_190_2280" fill="white">
<path d="M10 24C10 17.3726 15.3726 12 22 12H1493V408H22C15.3726 408 10 402.627 10 396V24Z"/>
</mask>
<path d="M9 24C9 16.8203 14.8203 11 22 11H1493V13H22C15.9249 13 11 17.9249 11 24H9ZM1493 409H22C14.8203 409 9 403.18 9 396H11C11 402.075 15.9249 407 22 407H1493V409ZM22 409C14.8203 409 9 403.18 9 396V24C9 16.8203 14.8203 11 22 11V13C15.9249 13 11 17.9249 11 24V396C11 402.075 15.9249 407 22 407V409ZM1493 12V408V12Z" fill="#D6D3D1" mask="url(#path-5-inside-1_190_2280)"/>
<path d="M105.424 307.32C107.856 307.32 109.936 307.736 111.664 308.568C113.392 309.368 114.72 310.536 115.648 312.072C116.608 313.576 117.088 315.4 117.088 317.544C117.088 319.688 116.608 321.528 115.648 323.064C114.72 324.568 113.392 325.736 111.664 326.568C109.936 327.368 107.856 327.768 105.424 327.768H98.752V339H92.128V307.32H105.424ZM104.416 322.536C106.4 322.536 107.888 322.12 108.88 321.288C109.872 320.424 110.368 319.176 110.368 317.544C110.368 315.88 109.872 314.632 108.88 313.8C107.888 312.968 106.4 312.552 104.416 312.552H98.752V322.536H104.416ZM137.127 307.32C140.711 307.32 143.527 308.184 145.575 309.912C147.623 311.64 148.647 313.96 148.647 316.872C148.647 319.976 147.623 322.36 145.575 324.024C143.527 325.656 140.727 326.472 137.175 326.472L136.503 326.856H129.687V339H123.159V307.32H137.127ZM136.359 321.816C138.215 321.816 139.591 321.448 140.487 320.712C141.415 319.944 141.879 318.776 141.879 317.208C141.879 315.64 141.415 314.488 140.487 313.752C139.591 312.984 138.215 312.6 136.359 312.6H129.687V321.816H136.359ZM140.247 323.208L150.519 339H143.079L134.583 325.128L140.247 323.208ZM184.136 306.84C187.272 306.84 189.976 307.496 192.248 308.808C194.52 310.12 196.264 311.992 197.48 314.424C198.728 316.856 199.352 319.768 199.352 323.16C199.352 326.552 198.728 329.464 197.48 331.896C196.264 334.328 194.52 336.2 192.248 337.512C189.976 338.824 187.272 339.48 184.136 339.48C181 339.48 178.28 338.824 175.976 337.512C173.704 336.2 171.944 334.328 170.696 331.896C169.48 329.464 168.872 326.552 168.872 323.16C168.872 319.768 169.48 316.856 170.696 314.424C171.944 311.992 173.704 310.12 175.976 308.808C178.28 307.496 181 306.84 184.136 306.84ZM184.136 312.264C182.344 312.264 180.824 312.68 179.576 313.512C178.328 314.344 177.368 315.576 176.696 317.208C176.056 318.808 175.736 320.792 175.736 323.16C175.736 325.496 176.056 327.48 176.696 329.112C177.368 330.744 178.328 331.976 179.576 332.808C180.824 333.64 182.344 334.056 184.136 334.056C185.896 334.056 187.4 333.64 188.648 332.808C189.896 331.976 190.84 330.744 191.48 329.112C192.152 327.48 192.488 325.496 192.488 323.16C192.488 320.792 192.152 318.808 191.48 317.208C190.84 315.576 189.896 314.344 188.648 313.512C187.4 312.68 185.896 312.264 184.136 312.264ZM205.222 349.08V315H211.126L211.558 322.632L210.742 321.768C211.03 320.36 211.558 319.112 212.326 318.024C213.126 316.936 214.134 316.088 215.35 315.48C216.566 314.84 217.926 314.52 219.43 314.52C221.382 314.52 223.126 315.016 224.662 316.008C226.198 317 227.398 318.424 228.262 320.28C229.158 322.104 229.606 324.328 229.606 326.952C229.606 329.576 229.158 331.832 228.262 333.72C227.366 335.576 226.134 337 224.566 337.992C223.03 338.984 221.27 339.48 219.286 339.48C217.174 339.48 215.414 338.888 214.006 337.704C212.63 336.52 211.686 335.032 211.174 333.24L211.798 332.232V349.08H205.222ZM217.366 334.44C219.126 334.44 220.502 333.816 221.494 332.568C222.518 331.288 223.03 329.432 223.03 327C223.03 324.568 222.534 322.728 221.542 321.48C220.582 320.2 219.222 319.56 217.462 319.56C216.342 319.56 215.35 319.864 214.486 320.472C213.654 321.048 212.998 321.896 212.518 323.016C212.038 324.104 211.798 325.432 211.798 327C211.798 328.536 212.022 329.864 212.47 330.984C212.918 332.104 213.558 332.968 214.39 333.576C215.254 334.152 216.246 334.44 217.366 334.44ZM246.451 339.48C243.923 339.48 241.715 338.984 239.827 337.992C237.971 337 236.531 335.576 235.507 333.72C234.483 331.864 233.971 329.624 233.971 327C233.971 324.376 234.483 322.136 235.507 320.28C236.531 318.424 237.955 317 239.779 316.008C241.635 315.016 243.747 314.52 246.115 314.52C248.547 314.52 250.611 315.016 252.307 316.008C254.003 316.968 255.299 318.296 256.195 319.992C257.091 321.656 257.539 323.56 257.539 325.704C257.539 326.344 257.523 326.952 257.491 327.528C257.459 328.104 257.411 328.616 257.347 329.064H238.195V324.504H254.467L251.299 325.656C251.299 323.64 250.835 322.088 249.907 321C249.011 319.912 247.731 319.368 246.067 319.368C244.851 319.368 243.795 319.656 242.899 320.232C242.035 320.808 241.379 321.672 240.931 322.824C240.483 323.944 240.259 325.368 240.259 327.096C240.259 328.792 240.499 330.2 240.979 331.32C241.491 332.408 242.195 333.224 243.091 333.768C244.019 334.312 245.123 334.584 246.403 334.584C247.811 334.584 248.947 334.312 249.811 333.768C250.675 333.224 251.347 332.472 251.827 331.512L257.059 333.528C256.547 334.776 255.763 335.848 254.707 336.744C253.683 337.64 252.451 338.328 251.011 338.808C249.603 339.256 248.083 339.48 246.451 339.48ZM263.112 339V315H269.016L269.4 322.2L268.584 321.432C268.968 319.864 269.576 318.568 270.408 317.544C271.24 316.52 272.248 315.768 273.432 315.288C274.648 314.776 275.976 314.52 277.416 314.52C279.08 314.52 280.552 314.84 281.832 315.48C283.144 316.12 284.168 317.096 284.904 318.408C285.672 319.688 286.056 321.304 286.056 323.256V339H279.48V325.128C279.48 323.08 279.08 321.672 278.28 320.904C277.48 320.104 276.44 319.704 275.16 319.704C274.264 319.704 273.384 319.928 272.52 320.376C271.688 320.792 271 321.48 270.456 322.44C269.944 323.4 269.688 324.68 269.688 326.28V339H263.112Z" fill="#4338CA"/>
<path d="M496.184 307.32V312.648H485.576V339H478.952V312.648H468.296V307.32H496.184ZM497.784 339V315H503.496L503.928 319.704C504.568 318.04 505.496 316.76 506.712 315.864C507.96 314.968 509.512 314.52 511.368 314.52C511.912 314.52 512.408 314.568 512.856 314.664C513.304 314.76 513.672 314.888 513.96 315.048L513.192 320.568C512.872 320.44 512.472 320.344 511.992 320.28C511.544 320.216 510.952 320.184 510.216 320.184C509.256 320.184 508.328 320.424 507.432 320.904C506.536 321.352 505.8 322.056 505.224 323.016C504.648 323.944 504.36 325.128 504.36 326.568V339H497.784ZM521.346 311.544C519.97 311.544 518.946 311.256 518.274 310.68C517.602 310.072 517.266 309.192 517.266 308.04C517.266 306.856 517.602 305.976 518.274 305.4C518.946 304.792 519.97 304.488 521.346 304.488C522.722 304.488 523.746 304.792 524.418 305.4C525.09 305.976 525.426 306.856 525.426 308.04C525.426 309.192 525.09 310.072 524.418 310.68C523.746 311.256 522.722 311.544 521.346 311.544ZM524.61 315V339H518.034V315H524.61ZM553.709 309.288L554.477 313.992C554.349 313.992 554.205 313.992 554.045 313.992C553.917 313.96 553.773 313.944 553.613 313.944C552.141 313.944 551.037 314.28 550.301 314.952C549.565 315.592 549.197 316.488 549.197 317.64L546.509 316.536C546.509 315.256 546.765 314.072 547.277 312.984C547.789 311.864 548.541 310.968 549.533 310.296C550.557 309.624 551.773 309.288 553.181 309.288C553.245 309.288 553.325 309.288 553.421 309.288C553.517 309.288 553.613 309.288 553.709 309.288ZM545.837 334.488C548.429 334.488 550.429 335.048 551.837 336.168C553.245 337.288 553.949 338.856 553.949 340.872C553.949 342.696 553.421 344.232 552.365 345.48C551.309 346.76 549.821 347.72 547.901 348.36C546.013 349 543.821 349.32 541.325 349.32C537.197 349.32 534.173 348.744 532.253 347.592C530.365 346.44 529.421 344.936 529.421 343.08C529.421 341.768 529.917 340.664 530.909 339.768C531.933 338.872 533.613 338.376 535.949 338.28L535.709 339.048C534.045 338.76 532.765 338.216 531.869 337.416C531.005 336.584 530.573 335.448 530.573 334.008C530.573 332.536 531.133 331.336 532.253 330.408C533.405 329.448 534.957 328.888 536.909 328.728L539.789 330.072H539.117C537.741 330.168 536.765 330.456 536.189 330.936C535.645 331.384 535.373 331.896 535.373 332.472C535.373 333.144 535.629 333.656 536.141 334.008C536.685 334.328 537.453 334.488 538.445 334.488H545.837ZM541.373 344.808C543.037 344.808 544.397 344.664 545.453 344.376C546.541 344.088 547.341 343.72 547.853 343.272C548.397 342.824 548.669 342.328 548.669 341.784C548.669 341.176 548.429 340.68 547.949 340.296C547.469 339.944 546.605 339.768 545.357 339.768H537.245C536.477 339.768 535.837 339.96 535.325 340.344C534.845 340.728 534.605 341.256 534.605 341.928C534.605 342.824 535.197 343.528 536.381 344.04C537.597 344.552 539.261 344.808 541.373 344.808ZM541.421 314.52C543.661 314.52 545.597 314.856 547.229 315.528C548.893 316.168 550.157 317.096 551.021 318.312C551.917 319.528 552.365 320.984 552.365 322.68C552.365 324.344 551.917 325.784 551.021 327C550.157 328.216 548.893 329.16 547.229 329.832C545.597 330.472 543.661 330.792 541.421 330.792C537.869 330.792 535.149 330.072 533.261 328.632C531.405 327.16 530.477 325.176 530.477 322.68C530.477 320.984 530.909 319.528 531.773 318.312C532.669 317.096 533.933 316.168 535.565 315.528C537.197 314.856 539.149 314.52 541.421 314.52ZM541.421 318.648C540.141 318.648 539.085 319 538.253 319.704C537.421 320.408 537.005 321.384 537.005 322.632C537.005 323.88 537.421 324.872 538.253 325.608C539.085 326.312 540.141 326.664 541.421 326.664C542.701 326.664 543.741 326.312 544.541 325.608C545.373 324.872 545.789 323.88 545.789 322.632C545.789 321.384 545.373 320.408 544.541 319.704C543.741 319 542.701 318.648 541.421 318.648ZM580.193 309.288L580.961 313.992C580.833 313.992 580.689 313.992 580.529 313.992C580.401 313.96 580.257 313.944 580.097 313.944C578.625 313.944 577.521 314.28 576.785 314.952C576.049 315.592 575.681 316.488 575.681 317.64L572.993 316.536C572.993 315.256 573.249 314.072 573.761 312.984C574.273 311.864 575.025 310.968 576.017 310.296C577.041 309.624 578.257 309.288 579.665 309.288C579.729 309.288 579.809 309.288 579.905 309.288C580.001 309.288 580.097 309.288 580.193 309.288ZM572.321 334.488C574.913 334.488 576.913 335.048 578.321 336.168C579.729 337.288 580.433 338.856 580.433 340.872C580.433 342.696 579.905 344.232 578.849 345.48C577.793 346.76 576.305 347.72 574.385 348.36C572.497 349 570.305 349.32 567.809 349.32C563.681 349.32 560.657 348.744 558.737 347.592C556.849 346.44 555.905 344.936 555.905 343.08C555.905 341.768 556.401 340.664 557.393 339.768C558.417 338.872 560.097 338.376 562.433 338.28L562.193 339.048C560.529 338.76 559.249 338.216 558.353 337.416C557.489 336.584 557.057 335.448 557.057 334.008C557.057 332.536 557.617 331.336 558.737 330.408C559.889 329.448 561.441 328.888 563.393 328.728L566.273 330.072H565.601C564.225 330.168 563.249 330.456 562.673 330.936C562.129 331.384 561.857 331.896 561.857 332.472C561.857 333.144 562.113 333.656 562.625 334.008C563.169 334.328 563.937 334.488 564.929 334.488H572.321ZM567.857 344.808C569.521 344.808 570.881 344.664 571.937 344.376C573.025 344.088 573.825 343.72 574.337 343.272C574.881 342.824 575.153 342.328 575.153 341.784C575.153 341.176 574.913 340.68 574.433 340.296C573.953 339.944 573.089 339.768 571.841 339.768H563.729C562.961 339.768 562.321 339.96 561.809 340.344C561.329 340.728 561.089 341.256 561.089 341.928C561.089 342.824 561.681 343.528 562.865 344.04C564.081 344.552 565.745 344.808 567.857 344.808ZM567.905 314.52C570.145 314.52 572.081 314.856 573.713 315.528C575.377 316.168 576.641 317.096 577.505 318.312C578.401 319.528 578.849 320.984 578.849 322.68C578.849 324.344 578.401 325.784 577.505 327C576.641 328.216 575.377 329.16 573.713 329.832C572.081 330.472 570.145 330.792 567.905 330.792C564.353 330.792 561.633 330.072 559.745 328.632C557.889 327.16 556.961 325.176 556.961 322.68C556.961 320.984 557.393 319.528 558.257 318.312C559.153 317.096 560.417 316.168 562.049 315.528C563.681 314.856 565.633 314.52 567.905 314.52ZM567.905 318.648C566.625 318.648 565.569 319 564.737 319.704C563.905 320.408 563.489 321.384 563.489 322.632C563.489 323.88 563.905 324.872 564.737 325.608C565.569 326.312 566.625 326.664 567.905 326.664C569.185 326.664 570.225 326.312 571.025 325.608C571.857 324.872 572.273 323.88 572.273 322.632C572.273 321.384 571.857 320.408 571.025 319.704C570.225 319 569.185 318.648 567.905 318.648ZM595.545 339.48C593.017 339.48 590.809 338.984 588.921 337.992C587.065 337 585.625 335.576 584.601 333.72C583.577 331.864 583.065 329.624 583.065 327C583.065 324.376 583.577 322.136 584.601 320.28C585.625 318.424 587.049 317 588.873 316.008C590.729 315.016 592.841 314.52 595.209 314.52C597.641 314.52 599.705 315.016 601.401 316.008C603.097 316.968 604.393 318.296 605.289 319.992C606.185 321.656 606.633 323.56 606.633 325.704C606.633 326.344 606.617 326.952 606.585 327.528C606.553 328.104 606.505 328.616 606.441 329.064H587.289V324.504H603.561L600.393 325.656C600.393 323.64 599.929 322.088 599.001 321C598.105 319.912 596.825 319.368 595.161 319.368C593.945 319.368 592.889 319.656 591.993 320.232C591.129 320.808 590.473 321.672 590.025 322.824C589.577 323.944 589.353 325.368 589.353 327.096C589.353 328.792 589.593 330.2 590.073 331.32C590.585 332.408 591.289 333.224 592.185 333.768C593.113 334.312 594.217 334.584 595.497 334.584C596.905 334.584 598.041 334.312 598.905 333.768C599.769 333.224 600.441 332.472 600.921 331.512L606.153 333.528C605.641 334.776 604.857 335.848 603.801 336.744C602.777 337.64 601.545 338.328 600.105 338.808C598.697 339.256 597.177 339.48 595.545 339.48ZM612.206 339V315H617.918L618.35 319.704C618.99 318.04 619.918 316.76 621.134 315.864C622.382 314.968 623.934 314.52 625.79 314.52C626.334 314.52 626.83 314.568 627.278 314.664C627.726 314.76 628.094 314.888 628.382 315.048L627.614 320.568C627.294 320.44 626.894 320.344 626.414 320.28C625.966 320.216 625.374 320.184 624.638 320.184C623.678 320.184 622.75 320.424 621.854 320.904C620.958 321.352 620.222 322.056 619.646 323.016C619.07 323.944 618.782 325.128 618.782 326.568V339H612.206Z" fill="#4338CA"/>
<path d="M809.424 307.32C811.856 307.32 813.936 307.736 815.664 308.568C817.392 309.368 818.72 310.536 819.648 312.072C820.608 313.576 821.088 315.4 821.088 317.544C821.088 319.688 820.608 321.528 819.648 323.064C818.72 324.568 817.392 325.736 815.664 326.568C813.936 327.368 811.856 327.768 809.424 327.768H802.752V339H796.128V307.32H809.424ZM808.416 322.536C810.4 322.536 811.888 322.12 812.88 321.288C813.872 320.424 814.368 319.176 814.368 317.544C814.368 315.88 813.872 314.632 812.88 313.8C811.888 312.968 810.4 312.552 808.416 312.552H802.752V322.536H808.416ZM840.167 323.688C840.167 322.312 839.767 321.24 838.967 320.472C838.199 319.704 837.175 319.32 835.895 319.32C834.711 319.32 833.671 319.624 832.775 320.232C831.879 320.84 831.223 321.848 830.807 323.256L825.191 321.528C825.735 319.416 826.919 317.72 828.743 316.44C830.599 315.16 833.079 314.52 836.183 314.52C838.295 314.52 840.135 314.856 841.703 315.528C843.271 316.168 844.487 317.144 845.351 318.456C846.247 319.768 846.695 321.416 846.695 323.4V333.144C846.695 334.36 847.271 334.968 848.423 334.968C848.967 334.968 849.479 334.888 849.959 334.728L849.575 338.808C848.743 339.224 847.703 339.432 846.455 339.432C845.335 339.432 844.327 339.24 843.431 338.856C842.535 338.472 841.831 337.896 841.319 337.128C840.807 336.328 840.551 335.336 840.551 334.152V333.96L841.703 333.768C841.511 334.984 840.983 336.024 840.119 336.888C839.255 337.72 838.199 338.36 836.951 338.808C835.735 339.256 834.471 339.48 833.159 339.48C831.527 339.48 830.119 339.24 828.935 338.76C827.751 338.248 826.839 337.512 826.199 336.552C825.559 335.592 825.239 334.408 825.239 333C825.239 331.208 825.815 329.752 826.967 328.632C828.119 327.48 829.767 326.696 831.911 326.28L840.935 324.456L840.887 328.536L835.127 329.688C834.039 329.912 833.207 330.216 832.631 330.6C832.087 330.952 831.815 331.544 831.815 332.376C831.815 333.176 832.103 333.784 832.679 334.2C833.287 334.616 834.007 334.824 834.839 334.824C835.511 334.824 836.167 334.744 836.807 334.584C837.447 334.424 838.023 334.168 838.535 333.816C839.047 333.464 839.447 332.984 839.735 332.376C840.023 331.768 840.167 331.032 840.167 330.168V323.688ZM863.65 339.48C861.218 339.48 858.994 339.048 856.978 338.184C854.994 337.32 853.378 336.104 852.13 334.536L855.922 330.696C856.69 331.848 857.714 332.792 858.994 333.528C860.274 334.264 861.794 334.632 863.554 334.632C864.802 334.632 865.794 334.456 866.53 334.104C867.298 333.72 867.682 333.128 867.682 332.328C867.682 331.816 867.506 331.384 867.154 331.032C866.802 330.648 866.098 330.344 865.042 330.12L860.818 329.256C858.034 328.68 856.05 327.816 854.866 326.664C853.714 325.48 853.138 323.96 853.138 322.104C853.138 320.792 853.522 319.56 854.29 318.408C855.09 317.256 856.274 316.328 857.842 315.624C859.41 314.888 861.362 314.52 863.698 314.52C866.098 314.52 868.178 314.904 869.938 315.672C871.73 316.408 873.138 317.512 874.162 318.984L870.226 322.824C869.522 321.704 868.594 320.856 867.442 320.28C866.322 319.672 865.138 319.368 863.89 319.368C862.994 319.368 862.226 319.464 861.586 319.656C860.946 319.848 860.466 320.12 860.146 320.472C859.826 320.792 859.666 321.208 859.666 321.72C859.666 322.232 859.89 322.68 860.338 323.064C860.786 323.416 861.602 323.72 862.786 323.976L867.682 324.984C870.05 325.464 871.746 326.28 872.77 327.432C873.794 328.552 874.306 329.912 874.306 331.512C874.306 333.048 873.89 334.424 873.058 335.64C872.258 336.824 871.058 337.768 869.458 338.472C867.89 339.144 865.954 339.48 863.65 339.48ZM889.15 339.48C886.718 339.48 884.494 339.048 882.478 338.184C880.494 337.32 878.878 336.104 877.63 334.536L881.422 330.696C882.19 331.848 883.214 332.792 884.494 333.528C885.774 334.264 887.294 334.632 889.054 334.632C890.302 334.632 891.294 334.456 892.03 334.104C892.798 333.72 893.182 333.128 893.182 332.328C893.182 331.816 893.006 331.384 892.654 331.032C892.302 330.648 891.598 330.344 890.542 330.12L886.318 329.256C883.534 328.68 881.55 327.816 880.366 326.664C879.214 325.48 878.638 323.96 878.638 322.104C878.638 320.792 879.022 319.56 879.79 318.408C880.59 317.256 881.774 316.328 883.342 315.624C884.91 314.888 886.862 314.52 889.198 314.52C891.598 314.52 893.678 314.904 895.438 315.672C897.23 316.408 898.638 317.512 899.662 318.984L895.726 322.824C895.022 321.704 894.094 320.856 892.942 320.28C891.822 319.672 890.638 319.368 889.39 319.368C888.494 319.368 887.726 319.464 887.086 319.656C886.446 319.848 885.966 320.12 885.646 320.472C885.326 320.792 885.166 321.208 885.166 321.72C885.166 322.232 885.39 322.68 885.838 323.064C886.286 323.416 887.102 323.72 888.286 323.976L893.182 324.984C895.55 325.464 897.246 326.28 898.27 327.432C899.294 328.552 899.806 329.912 899.806 331.512C899.806 333.048 899.39 334.424 898.558 335.64C897.758 336.824 896.558 337.768 894.958 338.472C893.39 339.144 891.454 339.48 889.15 339.48ZM947.514 330.264C946.906 332.312 945.946 334.024 944.634 335.4C943.322 336.776 941.77 337.8 939.978 338.472C938.186 339.144 936.218 339.48 934.074 339.48C930.938 339.48 928.218 338.824 925.914 337.512C923.642 336.2 921.882 334.328 920.634 331.896C919.418 329.464 918.81 326.552 918.81 323.16C918.81 319.768 919.418 316.856 920.634 314.424C921.882 311.992 923.642 310.12 925.914 308.808C928.218 307.496 930.906 306.84 933.978 306.84C936.154 306.84 938.122 307.144 939.882 307.752C941.642 308.328 943.13 309.224 944.346 310.44C945.594 311.656 946.506 313.192 947.082 315.048L941.082 317.592C940.538 315.672 939.706 314.312 938.586 313.512C937.466 312.68 936.026 312.264 934.266 312.264C932.538 312.264 931.018 312.68 929.706 313.512C928.426 314.344 927.434 315.576 926.73 317.208C926.026 318.808 925.674 320.792 925.674 323.16C925.674 325.496 925.994 327.48 926.634 329.112C927.306 330.744 928.282 331.976 929.562 332.808C930.842 333.64 932.41 334.056 934.266 334.056C935.994 334.056 937.482 333.592 938.73 332.664C940.01 331.736 940.906 330.328 941.418 328.44L947.514 330.264ZM952.487 339V304.488H959.063V319.08C959.831 317.544 960.887 316.408 962.231 315.672C963.575 314.904 965.095 314.52 966.791 314.52C968.455 314.52 969.927 314.84 971.207 315.48C972.519 316.12 973.543 317.096 974.279 318.408C975.047 319.688 975.431 321.304 975.431 323.256V339H968.855V325.176C968.855 323.096 968.455 321.672 967.655 320.904C966.855 320.104 965.831 319.704 964.583 319.704C963.655 319.704 962.759 319.928 961.895 320.376C961.063 320.792 960.375 321.496 959.831 322.488C959.319 323.448 959.063 324.728 959.063 326.328V339H952.487ZM993.342 339.48C990.814 339.48 988.606 338.984 986.718 337.992C984.862 337 983.422 335.576 982.398 333.72C981.374 331.864 980.862 329.624 980.862 327C980.862 324.376 981.374 322.136 982.398 320.28C983.422 318.424 984.846 317 986.67 316.008C988.526 315.016 990.638 314.52 993.006 314.52C995.438 314.52 997.502 315.016 999.198 316.008C1000.89 316.968 1002.19 318.296 1003.09 319.992C1003.98 321.656 1004.43 323.56 1004.43 325.704C1004.43 326.344 1004.41 326.952 1004.38 327.528C1004.35 328.104 1004.3 328.616 1004.24 329.064H985.086V324.504H1001.36L998.19 325.656C998.19 323.64 997.726 322.088 996.798 321C995.902 319.912 994.622 319.368 992.958 319.368C991.742 319.368 990.686 319.656 989.79 320.232C988.926 320.808 988.27 321.672 987.822 322.824C987.374 323.944 987.15 325.368 987.15 327.096C987.15 328.792 987.39 330.2 987.87 331.32C988.382 332.408 989.086 333.224 989.982 333.768C990.91 334.312 992.014 334.584 993.294 334.584C994.702 334.584 995.838 334.312 996.702 333.768C997.566 333.224 998.238 332.472 998.718 331.512L1003.95 333.528C1003.44 334.776 1002.65 335.848 1001.6 336.744C1000.57 337.64 999.342 338.328 997.902 338.808C996.494 339.256 994.974 339.48 993.342 339.48ZM1020.9 314.52C1023.04 314.52 1024.85 314.84 1026.32 315.48C1027.83 316.088 1029.03 316.936 1029.92 318.024C1030.85 319.08 1031.51 320.264 1031.89 321.576L1025.75 323.784C1025.43 322.344 1024.88 321.256 1024.11 320.52C1023.35 319.784 1022.31 319.416 1020.99 319.416C1019.78 319.416 1018.74 319.704 1017.87 320.28C1017.01 320.824 1016.35 321.672 1015.91 322.824C1015.46 323.944 1015.23 325.352 1015.23 327.048C1015.23 328.744 1015.46 330.152 1015.91 331.272C1016.39 332.392 1017.06 333.224 1017.92 333.768C1018.82 334.312 1019.86 334.584 1021.04 334.584C1022 334.584 1022.82 334.424 1023.49 334.104C1024.16 333.752 1024.71 333.256 1025.12 332.616C1025.57 331.976 1025.87 331.208 1026.03 330.312L1031.99 332.232C1031.63 333.672 1030.98 334.936 1030.02 336.024C1029.06 337.112 1027.83 337.96 1026.32 338.568C1024.82 339.176 1023.07 339.48 1021.09 339.48C1018.63 339.48 1016.45 338.984 1014.56 337.992C1012.67 337 1011.22 335.576 1010.19 333.72C1009.17 331.864 1008.66 329.624 1008.66 327C1008.66 324.376 1009.17 322.136 1010.19 320.28C1011.22 318.424 1012.66 317 1014.51 316.008C1016.37 315.016 1018.5 314.52 1020.9 314.52ZM1061.53 315L1050.44 326.568L1049.14 327.192L1041.94 334.92L1041.85 327.912L1054.04 315H1061.53ZM1043.67 304.488V339H1037.1V304.488H1043.67ZM1051.35 322.632L1062.1 339H1054.66L1046.84 326.472L1051.35 322.632ZM1075.24 339.48C1072.81 339.48 1070.59 339.048 1068.57 338.184C1066.59 337.32 1064.97 336.104 1063.72 334.536L1067.52 330.696C1068.28 331.848 1069.31 332.792 1070.59 333.528C1071.87 334.264 1073.39 334.632 1075.15 334.632C1076.4 334.632 1077.39 334.456 1078.12 334.104C1078.89 333.72 1079.28 333.128 1079.28 332.328C1079.28 331.816 1079.1 331.384 1078.75 331.032C1078.4 330.648 1077.69 330.344 1076.64 330.12L1072.41 329.256C1069.63 328.68 1067.64 327.816 1066.46 326.664C1065.31 325.48 1064.73 323.96 1064.73 322.104C1064.73 320.792 1065.12 319.56 1065.88 318.408C1066.68 317.256 1067.87 316.328 1069.44 315.624C1071 314.888 1072.96 314.52 1075.29 314.52C1077.69 314.52 1079.77 314.904 1081.53 315.672C1083.32 316.408 1084.73 317.512 1085.76 318.984L1081.82 322.824C1081.12 321.704 1080.19 320.856 1079.04 320.28C1077.92 319.672 1076.73 319.368 1075.48 319.368C1074.59 319.368 1073.82 319.464 1073.18 319.656C1072.54 319.848 1072.06 320.12 1071.74 320.472C1071.42 320.792 1071.26 321.208 1071.26 321.72C1071.26 322.232 1071.48 322.68 1071.93 323.064C1072.38 323.416 1073.2 323.72 1074.38 323.976L1079.28 324.984C1081.64 325.464 1083.34 326.28 1084.36 327.432C1085.39 328.552 1085.9 329.912 1085.9 331.512C1085.9 333.048 1085.48 334.424 1084.65 335.64C1083.85 336.824 1082.65 337.768 1081.05 338.472C1079.48 339.144 1077.55 339.48 1075.24 339.48Z" fill="#4338CA"/>
<path d="M1221.63 339H1214.77L1212.13 331.272H1199.98L1197.34 339H1190.58L1202.14 307.32H1210.06L1221.63 339ZM1201.47 326.376H1210.64L1206.03 312.552L1201.47 326.376ZM1233.78 339.48C1232.18 339.48 1230.74 339.192 1229.46 338.616C1228.18 338.04 1227.15 337.128 1226.38 335.88C1225.65 334.6 1225.28 332.952 1225.28 330.936V315H1231.86V329.352C1231.86 331.208 1232.24 332.504 1233.01 333.24C1233.78 333.944 1234.88 334.296 1236.32 334.296C1236.99 334.296 1237.65 334.184 1238.29 333.96C1238.93 333.704 1239.49 333.32 1239.97 332.808C1240.48 332.296 1240.88 331.64 1241.17 330.84C1241.46 330.008 1241.6 329.032 1241.6 327.912V315H1248.18V339H1242.32L1242.08 334.824C1241.28 336.424 1240.18 337.608 1238.77 338.376C1237.39 339.112 1235.73 339.48 1233.78 339.48ZM1263.59 307.656V331.176C1263.59 332.328 1263.88 333.176 1264.46 333.72C1265.06 334.232 1265.88 334.488 1266.9 334.488C1267.7 334.488 1268.41 334.376 1269.02 334.152C1269.62 333.896 1270.17 333.56 1270.65 333.144L1271.7 337.512C1270.94 338.12 1269.98 338.6 1268.82 338.952C1267.67 339.304 1266.46 339.48 1265.18 339.48C1263.58 339.48 1262.15 339.24 1260.9 338.76C1259.69 338.28 1258.73 337.512 1258.02 336.456C1257.35 335.4 1257.02 333.992 1257.02 332.232V309.48L1263.59 307.656ZM1271.27 315V319.896H1252.6V315H1271.27ZM1286.67 314.52C1289.1 314.52 1291.23 315.016 1293.05 316.008C1294.91 317 1296.35 318.424 1297.37 320.28C1298.43 322.136 1298.95 324.376 1298.95 327C1298.95 329.592 1298.43 331.832 1297.37 333.72C1296.35 335.576 1294.91 337 1293.05 337.992C1291.23 338.984 1289.1 339.48 1286.67 339.48C1284.27 339.48 1282.14 338.984 1280.28 337.992C1278.43 337 1276.97 335.576 1275.91 333.72C1274.89 331.832 1274.38 329.592 1274.38 327C1274.38 324.376 1274.89 322.136 1275.91 320.28C1276.97 318.424 1278.43 317 1280.28 316.008C1282.14 315.016 1284.27 314.52 1286.67 314.52ZM1286.67 319.416C1285.45 319.416 1284.41 319.704 1283.55 320.28C1282.71 320.824 1282.07 321.656 1281.63 322.776C1281.18 323.896 1280.95 325.304 1280.95 327C1280.95 328.696 1281.18 330.104 1281.63 331.224C1282.07 332.344 1282.71 333.192 1283.55 333.768C1284.41 334.312 1285.45 334.584 1286.67 334.584C1287.85 334.584 1288.86 334.312 1289.69 333.768C1290.55 333.192 1291.21 332.344 1291.66 331.224C1292.11 330.104 1292.33 328.696 1292.33 327C1292.33 325.304 1292.11 323.896 1291.66 322.776C1291.21 321.656 1290.55 320.824 1289.69 320.28C1288.86 319.704 1287.85 319.416 1286.67 319.416ZM1354.26 307.32V339H1348.26V322.488L1348.6 313.224H1348.5L1339.72 339H1334.3L1325.56 313.224H1325.46L1325.8 322.488V339H1319.8V307.32H1329.4L1335.11 324.6L1337.13 331.752H1337.22L1339.29 324.648L1344.95 307.32H1354.26ZM1372.73 339.48C1370.2 339.48 1368 338.984 1366.11 337.992C1364.25 337 1362.81 335.576 1361.79 333.72C1360.76 331.864 1360.25 329.624 1360.25 327C1360.25 324.376 1360.76 322.136 1361.79 320.28C1362.81 318.424 1364.24 317 1366.06 316.008C1367.92 315.016 1370.03 314.52 1372.4 314.52C1374.83 314.52 1376.89 315.016 1378.59 316.008C1380.28 316.968 1381.58 318.296 1382.48 319.992C1383.37 321.656 1383.82 323.56 1383.82 325.704C1383.82 326.344 1383.8 326.952 1383.77 327.528C1383.74 328.104 1383.69 328.616 1383.63 329.064H1364.48V324.504H1380.75L1377.58 325.656C1377.58 323.64 1377.12 322.088 1376.19 321C1375.29 319.912 1374.01 319.368 1372.35 319.368C1371.13 319.368 1370.08 319.656 1369.18 320.232C1368.32 320.808 1367.66 321.672 1367.21 322.824C1366.76 323.944 1366.54 325.368 1366.54 327.096C1366.54 328.792 1366.78 330.2 1367.26 331.32C1367.77 332.408 1368.48 333.224 1369.37 333.768C1370.3 334.312 1371.4 334.584 1372.68 334.584C1374.09 334.584 1375.23 334.312 1376.09 333.768C1376.96 333.224 1377.63 332.472 1378.11 331.512L1383.34 333.528C1382.83 334.776 1382.04 335.848 1380.99 336.744C1379.96 337.64 1378.73 338.328 1377.29 338.808C1375.88 339.256 1374.36 339.48 1372.73 339.48ZM1389.39 339V315H1395.11L1395.54 319.704C1396.18 318.04 1397.11 316.76 1398.32 315.864C1399.57 314.968 1401.12 314.52 1402.98 314.52C1403.52 314.52 1404.02 314.568 1404.47 314.664C1404.91 314.76 1405.28 314.888 1405.57 315.048L1404.8 320.568C1404.48 320.44 1404.08 320.344 1403.6 320.28C1403.15 320.216 1402.56 320.184 1401.83 320.184C1400.87 320.184 1399.94 320.424 1399.04 320.904C1398.15 321.352 1397.41 322.056 1396.83 323.016C1396.26 323.944 1395.97 325.128 1395.97 326.568V339H1389.39ZM1431.02 309.288L1431.79 313.992C1431.66 313.992 1431.52 313.992 1431.36 313.992C1431.23 313.96 1431.09 313.944 1430.93 313.944C1429.45 313.944 1428.35 314.28 1427.61 314.952C1426.88 315.592 1426.51 316.488 1426.51 317.64L1423.82 316.536C1423.82 315.256 1424.08 314.072 1424.59 312.984C1425.1 311.864 1425.85 310.968 1426.85 310.296C1427.87 309.624 1429.09 309.288 1430.49 309.288C1430.56 309.288 1430.64 309.288 1430.73 309.288C1430.83 309.288 1430.93 309.288 1431.02 309.288ZM1423.15 334.488C1425.74 334.488 1427.74 335.048 1429.15 336.168C1430.56 337.288 1431.26 338.856 1431.26 340.872C1431.26 342.696 1430.73 344.232 1429.68 345.48C1428.62 346.76 1427.13 347.72 1425.21 348.36C1423.33 349 1421.13 349.32 1418.64 349.32C1414.51 349.32 1411.49 348.744 1409.57 347.592C1407.68 346.44 1406.73 344.936 1406.73 343.08C1406.73 341.768 1407.23 340.664 1408.22 339.768C1409.25 338.872 1410.93 338.376 1413.26 338.28L1413.02 339.048C1411.36 338.76 1410.08 338.216 1409.18 337.416C1408.32 336.584 1407.89 335.448 1407.89 334.008C1407.89 332.536 1408.45 331.336 1409.57 330.408C1410.72 329.448 1412.27 328.888 1414.22 328.728L1417.1 330.072H1416.43C1415.05 330.168 1414.08 330.456 1413.5 330.936C1412.96 331.384 1412.69 331.896 1412.69 332.472C1412.69 333.144 1412.94 333.656 1413.45 334.008C1414 334.328 1414.77 334.488 1415.76 334.488H1423.15ZM1418.69 344.808C1420.35 344.808 1421.71 344.664 1422.77 344.376C1423.85 344.088 1424.65 343.72 1425.17 343.272C1425.71 342.824 1425.98 342.328 1425.98 341.784C1425.98 341.176 1425.74 340.68 1425.26 340.296C1424.78 339.944 1423.92 339.768 1422.67 339.768H1414.56C1413.79 339.768 1413.15 339.96 1412.64 340.344C1412.16 340.728 1411.92 341.256 1411.92 341.928C1411.92 342.824 1412.51 343.528 1413.69 344.04C1414.91 344.552 1416.57 344.808 1418.69 344.808ZM1418.73 314.52C1420.97 314.52 1422.91 314.856 1424.54 315.528C1426.21 316.168 1427.47 317.096 1428.33 318.312C1429.23 319.528 1429.68 320.984 1429.68 322.68C1429.68 324.344 1429.23 325.784 1428.33 327C1427.47 328.216 1426.21 329.16 1424.54 329.832C1422.91 330.472 1420.97 330.792 1418.73 330.792C1415.18 330.792 1412.46 330.072 1410.57 328.632C1408.72 327.16 1407.79 325.176 1407.79 322.68C1407.79 320.984 1408.22 319.528 1409.09 318.312C1409.98 317.096 1411.25 316.168 1412.88 315.528C1414.51 314.856 1416.46 314.52 1418.73 314.52ZM1418.73 318.648C1417.45 318.648 1416.4 319 1415.57 319.704C1414.73 320.408 1414.32 321.384 1414.32 322.632C1414.32 323.88 1414.73 324.872 1415.57 325.608C1416.4 326.312 1417.45 326.664 1418.73 326.664C1420.01 326.664 1421.05 326.312 1421.85 325.608C1422.69 324.872 1423.1 323.88 1423.1 322.632C1423.1 321.384 1422.69 320.408 1421.85 319.704C1421.05 319 1420.01 318.648 1418.73 318.648ZM1446.37 339.48C1443.85 339.48 1441.64 338.984 1439.75 337.992C1437.89 337 1436.45 335.576 1435.43 333.72C1434.41 331.864 1433.89 329.624 1433.89 327C1433.89 324.376 1434.41 322.136 1435.43 320.28C1436.45 318.424 1437.88 317 1439.7 316.008C1441.56 315.016 1443.67 314.52 1446.04 314.52C1448.47 314.52 1450.53 315.016 1452.23 316.008C1453.93 316.968 1455.22 318.296 1456.12 319.992C1457.01 321.656 1457.46 323.56 1457.46 325.704C1457.46 326.344 1457.45 326.952 1457.41 327.528C1457.38 328.104 1457.33 328.616 1457.27 329.064H1438.12V324.504H1454.39L1451.22 325.656C1451.22 323.64 1450.76 322.088 1449.83 321C1448.93 319.912 1447.65 319.368 1445.99 319.368C1444.77 319.368 1443.72 319.656 1442.82 320.232C1441.96 320.808 1441.3 321.672 1440.85 322.824C1440.41 323.944 1440.18 325.368 1440.18 327.096C1440.18 328.792 1440.42 330.2 1440.9 331.32C1441.41 332.408 1442.12 333.224 1443.01 333.768C1443.94 334.312 1445.05 334.584 1446.33 334.584C1447.73 334.584 1448.87 334.312 1449.73 333.768C1450.6 333.224 1451.27 332.472 1451.75 331.512L1456.98 333.528C1456.47 334.776 1455.69 335.848 1454.63 336.744C1453.61 337.64 1452.37 338.328 1450.93 338.808C1449.53 339.256 1448.01 339.48 1446.37 339.48Z" fill="#4338CA"/>
<circle cx="189.5" cy="190.5" r="92.5" fill="#EEF2FF"/>
<path d="M233.608 161.766C234.951 157.433 235.382 152.87 234.873 148.363C234.365 143.856 232.928 139.503 230.653 135.579C230.267 134.911 229.713 134.356 229.045 133.97C228.376 133.585 227.619 133.382 226.847 133.382C221.729 133.371 216.68 134.558 212.103 136.846C207.525 139.135 203.547 142.463 200.485 146.563H187.303C184.241 142.463 180.263 139.135 175.685 136.846C171.108 134.558 166.059 133.371 160.941 133.382C160.169 133.382 159.412 133.585 158.743 133.97C158.075 134.356 157.52 134.911 157.135 135.579C154.86 139.503 153.423 143.856 152.915 148.363C152.406 152.87 152.837 157.433 154.18 161.766C151.465 166.504 150.011 171.859 149.956 177.319V181.713C149.966 189.147 152.664 196.327 157.554 201.927C162.444 207.527 169.195 211.168 176.561 212.178C173.554 216.025 171.922 220.768 171.925 225.651V230.044H158.744C155.248 230.044 151.895 228.656 149.423 226.184C146.951 223.712 145.563 220.359 145.563 216.863C145.563 213.978 144.994 211.121 143.89 208.456C142.786 205.791 141.168 203.369 139.128 201.329C137.088 199.289 134.666 197.671 132.001 196.567C129.336 195.463 126.479 194.894 123.594 194.894C122.429 194.894 121.311 195.357 120.487 196.181C119.663 197.005 119.2 198.123 119.2 199.288C119.2 200.453 119.663 201.571 120.487 202.395C121.311 203.219 122.429 203.682 123.594 203.682C127.09 203.682 130.443 205.071 132.914 207.543C135.386 210.015 136.775 213.367 136.775 216.863C136.775 222.69 139.09 228.277 143.21 232.397C147.33 236.517 152.917 238.832 158.744 238.832H171.925V247.619C171.925 248.785 172.388 249.902 173.212 250.726C174.036 251.55 175.154 252.013 176.319 252.013C177.484 252.013 178.602 251.55 179.426 250.726C180.25 249.902 180.713 248.785 180.713 247.619V225.651C180.713 222.155 182.101 218.802 184.573 216.33C187.045 213.858 190.398 212.469 193.894 212.469C197.39 212.469 200.743 213.858 203.215 216.33C205.686 218.802 207.075 222.155 207.075 225.651V247.619C207.075 248.785 207.538 249.902 208.362 250.726C209.186 251.55 210.304 252.013 211.469 252.013C212.634 252.013 213.752 251.55 214.576 250.726C215.4 249.902 215.863 248.785 215.863 247.619V225.651C215.866 220.768 214.234 216.025 211.227 212.178C218.593 211.168 225.343 207.527 230.233 201.927C235.123 196.327 237.822 189.147 237.831 181.713V177.319C237.777 171.859 236.323 166.504 233.608 161.766ZM229.044 181.713C229.044 187.54 226.729 193.127 222.609 197.247C218.49 201.367 212.902 203.682 207.075 203.682H180.713C174.886 203.682 169.298 201.367 165.178 197.247C161.059 193.127 158.744 187.54 158.744 181.713V177.319C158.798 172.926 160.113 168.64 162.534 164.973C162.985 164.378 163.277 163.678 163.383 162.939C163.488 162.201 163.404 161.447 163.138 160.749C161.993 157.798 161.442 154.65 161.517 151.485C161.591 148.32 162.29 145.201 163.572 142.307C167.167 142.694 170.63 143.885 173.703 145.792C176.776 147.699 179.38 150.273 181.322 153.324C181.718 153.943 182.263 154.453 182.907 154.807C183.551 155.161 184.273 155.348 185.008 155.351H202.775C203.512 155.351 204.238 155.165 204.885 154.811C205.532 154.457 206.079 153.945 206.477 153.324C208.419 150.273 211.023 147.699 214.096 145.791C217.169 143.884 220.631 142.693 224.227 142.307C225.508 145.202 226.204 148.321 226.276 151.486C226.349 154.651 225.796 157.799 224.65 160.749C224.385 161.44 224.296 162.186 224.392 162.92C224.488 163.654 224.765 164.352 225.199 164.951C227.644 168.618 228.979 172.913 229.044 177.319V181.713Z" fill="#4F46E5"/>
<g filter="url(#filter0_f_190_2280)">
<circle cx="546.032" cy="187.72" r="65.6" fill="#FFE16A" fill-opacity="0.5"/>
</g>
<g clip-path="url(#clip0_190_2280)">
<path d="M527.828 112.68C528.14 111.617 528.788 110.684 529.675 110.021C530.562 109.358 531.64 108.999 532.748 109H573.748C574.559 109.001 575.359 109.194 576.081 109.564C576.804 109.934 577.428 110.471 577.902 111.129C578.377 111.788 578.688 112.55 578.81 113.352C578.933 114.155 578.863 114.974 578.606 115.745L560.361 170.5H599.373C600.332 170.499 601.273 170.768 602.087 171.276C602.902 171.784 603.557 172.51 603.979 173.372C604.401 174.234 604.573 175.197 604.474 176.152C604.375 177.106 604.011 178.014 603.421 178.772L531.671 271.022C530.936 271.971 529.891 272.633 528.718 272.89C527.546 273.148 526.319 272.986 525.254 272.432C524.189 271.878 523.352 270.967 522.889 269.859C522.427 268.751 522.368 267.515 522.723 266.368L541.183 206.375H507.123C506.326 206.375 505.54 206.19 504.827 205.834C504.115 205.477 503.495 204.96 503.017 204.322C502.54 203.684 502.217 202.944 502.076 202.16C501.935 201.376 501.978 200.569 502.203 199.805L527.828 112.68Z" fill="white"/>
<path d="M527.828 112.68C528.14 111.617 528.788 110.684 529.675 110.021C530.562 109.358 531.64 108.999 532.748 109H573.748C574.559 109.001 575.359 109.194 576.081 109.564C576.804 109.934 577.428 110.471 577.902 111.129C578.377 111.788 578.688 112.55 578.81 113.352C578.933 114.155 578.863 114.974 578.606 115.745L560.361 170.5H599.373C600.332 170.499 601.273 170.768 602.087 171.276C602.902 171.784 603.557 172.51 603.979 173.372C604.401 174.234 604.573 175.197 604.474 176.152C604.375 177.106 604.011 178.014 603.421 178.772L531.671 271.022C530.936 271.971 529.891 272.633 528.718 272.89C527.546 273.148 526.319 272.986 525.254 272.432C524.189 271.878 523.352 270.967 522.889 269.859C522.427 268.751 522.368 267.515 522.723 266.368L541.183 206.375H507.123C506.326 206.375 505.54 206.19 504.827 205.834C504.115 205.477 503.495 204.96 503.017 204.322C502.54 203.684 502.217 202.944 502.076 202.16C501.935 201.376 501.978 200.569 502.203 199.805L527.828 112.68ZM536.581 119.25L513.97 196.125H548.123C548.925 196.125 549.716 196.313 550.432 196.674C551.148 197.035 551.769 197.56 552.246 198.205C552.722 198.85 553.041 199.598 553.176 200.388C553.311 201.179 553.258 201.99 553.022 202.757L540.743 242.66L588.897 180.75H553.248C552.436 180.749 551.636 180.556 550.914 180.186C550.192 179.816 549.568 179.279 549.093 178.621C548.619 177.962 548.308 177.2 548.185 176.398C548.063 175.595 548.133 174.776 548.389 174.006L566.634 119.25H536.581Z" fill="#FDE047"/>
</g>
<path d="M940.5 267.584C983.072 267.584 1017.58 233.072 1017.58 190.5C1017.58 147.928 983.072 113.417 940.5 113.417C897.928 113.417 863.417 147.928 863.417 190.5C863.417 233.072 897.928 267.584 940.5 267.584Z" fill="#DCFCE7"/>
<path d="M905.812 190.5L928.937 213.625L975.187 167.375M1017.58 190.5C1017.58 233.072 983.072 267.584 940.5 267.584C897.928 267.584 863.417 233.072 863.417 190.5C863.417 147.928 897.928 113.417 940.5 113.417C983.072 113.417 1017.58 147.928 1017.58 190.5Z" stroke="#16A34A" stroke-width="11" stroke-linecap="round" stroke-linejoin="round"/>
<path d="M1381.25 179.75C1376.26 179.755 1371.42 181.414 1367.47 184.468C1363.53 187.522 1360.71 191.797 1359.45 196.625H1341.87C1337.51 196.615 1333.21 195.594 1329.3 193.642C1325.4 191.69 1322 188.861 1319.37 185.375L1300.88 160.71C1305.66 158.441 1309.49 154.559 1311.69 149.746C1313.89 144.933 1314.33 139.498 1312.92 134.395C1311.51 129.293 1308.35 124.851 1303.99 121.849C1299.63 118.848 1294.35 117.479 1289.08 117.985C1283.81 118.49 1278.89 120.836 1275.18 124.612C1271.47 128.387 1269.21 133.35 1268.8 138.626C1268.39 143.903 1269.85 149.157 1272.92 153.463C1276 157.77 1280.5 160.854 1285.62 162.172V219.829C1280.32 221.198 1275.7 224.454 1272.63 228.986C1269.55 233.519 1268.24 239.016 1268.93 244.449C1269.62 249.882 1272.27 254.876 1276.38 258.497C1280.48 262.117 1285.77 264.114 1291.25 264.114C1296.73 264.114 1302.01 262.117 1306.12 258.497C1310.23 254.876 1312.88 249.882 1313.57 244.449C1314.26 239.016 1312.95 233.519 1309.87 228.986C1306.8 224.454 1302.18 221.198 1296.87 219.829V174.125L1310.37 192.125C1314.05 197.005 1318.81 200.967 1324.28 203.699C1329.74 206.432 1335.76 207.861 1341.87 207.875H1359.45C1360.5 211.95 1362.68 215.647 1365.73 218.548C1368.77 221.449 1372.57 223.437 1376.7 224.287C1380.82 225.137 1385.09 224.814 1389.04 223.355C1392.99 221.896 1396.45 219.359 1399.02 216.033C1401.6 212.707 1403.19 208.725 1403.62 204.539C1404.05 200.354 1403.3 196.131 1401.44 192.353C1399.59 188.574 1396.72 185.39 1393.15 183.162C1389.58 180.935 1385.46 179.753 1381.25 179.75ZM1280 140.375C1280 138.15 1280.66 135.975 1281.9 134.125C1283.13 132.275 1284.89 130.833 1286.94 129.982C1289 129.13 1291.26 128.908 1293.44 129.342C1295.63 129.776 1297.63 130.847 1299.2 132.421C1300.78 133.994 1301.85 135.998 1302.28 138.181C1302.72 140.363 1302.49 142.625 1301.64 144.681C1300.79 146.736 1299.35 148.493 1297.5 149.729C1295.65 150.966 1293.47 151.625 1291.25 151.625C1288.27 151.625 1285.4 150.44 1283.29 148.33C1281.18 146.221 1280 143.359 1280 140.375ZM1302.5 241.625C1302.5 243.85 1301.84 246.026 1300.6 247.876C1299.37 249.726 1297.61 251.168 1295.55 252.019C1293.5 252.871 1291.24 253.093 1289.05 252.659C1286.87 252.225 1284.87 251.154 1283.29 249.58C1281.72 248.007 1280.65 246.002 1280.22 243.82C1279.78 241.638 1280 239.376 1280.86 237.32C1281.71 235.265 1283.15 233.508 1285 232.271C1286.85 231.035 1289.02 230.375 1291.25 230.375C1294.23 230.375 1297.09 231.561 1299.2 233.67C1301.31 235.78 1302.5 238.642 1302.5 241.625ZM1381.25 213.5C1379.02 213.5 1376.85 212.841 1375 211.604C1373.15 210.368 1371.71 208.611 1370.86 206.556C1370 204.5 1369.78 202.238 1370.22 200.056C1370.65 197.873 1371.72 195.869 1373.29 194.296C1374.87 192.722 1376.87 191.651 1379.05 191.217C1381.24 190.783 1383.5 191.005 1385.55 191.857C1387.61 192.708 1389.37 194.15 1390.6 196C1391.84 197.85 1392.5 200.025 1392.5 202.25C1392.5 205.234 1391.31 208.096 1389.2 210.205C1387.09 212.315 1384.23 213.5 1381.25 213.5Z" fill="#57534E"/>
<defs>
<filter id="filter0_f_190_2280" x="440.432" y="82.1201" width="211.2" height="211.2" filterUnits="userSpaceOnUse" color-interpolation-filters="sRGB">
<feFlood flood-opacity="0" result="BackgroundImageFix"/>
<feBlend mode="normal" in="SourceGraphic" in2="BackgroundImageFix" result="shape"/>
<feGaussianBlur stdDeviation="20" result="effect1_foregroundBlur_190_2280"/>
</filter>
<clipPath id="clip0_190_2280">
<path d="M466 121C466 114.373 471.373 109 478 109H618C624.627 109 630 114.373 630 121V261C630 267.627 624.627 273 618 273H466V121Z" fill="white"/>
</clipPath>
</defs>
</svg>
