<svg width="852" height="339" viewBox="0 0 852 339" fill="none" xmlns="http://www.w3.org/2000/svg">
<rect width="852" height="339" fill="white"/>
<path d="M681 142.584C685.531 142.584 689.876 144.384 693.08 147.588C696.284 150.791 698.084 155.137 698.084 159.667V180.167H663.917V159.667C663.917 155.137 665.717 150.791 668.92 147.588C672.124 144.384 676.469 142.584 681 142.584ZM658.067 152.854C657.524 154.689 657.203 156.581 657.111 158.492L657.083 159.667V180.167H646.833V164.792C646.833 161.846 647.92 159.003 649.887 156.808C651.853 154.614 654.561 153.223 657.49 152.902L658.067 152.854ZM703.933 152.854C706.973 153.04 709.829 154.378 711.916 156.597C714.004 158.815 715.166 161.746 715.167 164.792V180.167H704.917V159.667C704.917 157.3 704.575 155.014 703.933 152.854ZM658.792 132.334C661.057 132.334 663.23 133.234 664.832 134.836C666.434 136.438 667.333 138.61 667.333 140.876C667.333 143.141 666.434 145.314 664.832 146.916C663.23 148.517 661.057 149.417 658.792 149.417C656.526 149.417 654.354 148.517 652.752 146.916C651.15 145.314 650.25 143.141 650.25 140.876C650.25 138.61 651.15 136.438 652.752 134.836C654.354 133.234 656.526 132.334 658.792 132.334ZM703.209 132.334C705.474 132.334 707.647 133.234 709.248 134.836C710.85 136.438 711.75 138.61 711.75 140.876C711.75 143.141 710.85 145.314 709.248 146.916C707.647 148.517 705.474 149.417 703.209 149.417C700.943 149.417 698.771 148.517 697.169 146.916C695.567 145.314 694.667 143.141 694.667 140.876C694.667 138.61 695.567 136.438 697.169 134.836C698.771 133.234 700.943 132.334 703.209 132.334ZM681 111.834C684.625 111.834 688.101 113.274 690.664 115.837C693.227 118.4 694.667 121.876 694.667 125.501C694.667 129.125 693.227 132.601 690.664 135.164C688.101 137.727 684.625 139.167 681 139.167C677.376 139.167 673.899 137.727 671.336 135.164C668.773 132.601 667.333 129.125 667.333 125.501C667.333 121.876 668.773 118.4 671.336 115.837C673.899 113.274 677.376 111.834 681 111.834Z" fill="#6366F1"/>
<path d="M117.5 150.499C113.421 150.499 109.928 149.046 107.024 146.141C104.119 143.237 102.666 139.745 102.666 135.665C102.666 131.586 104.119 128.094 107.024 125.189C109.928 122.284 113.421 120.832 117.5 120.832C121.579 120.832 125.071 122.284 127.976 125.189C130.881 128.094 132.333 131.586 132.333 135.665C132.333 139.745 130.881 143.237 127.976 146.141C125.071 149.046 121.579 150.499 117.5 150.499ZM87.833 180.165V169.782C87.833 167.681 88.3744 165.749 89.4573 163.986C90.5401 162.223 91.9765 160.88 93.7663 159.955C97.5983 158.039 101.492 156.601 105.448 155.642C109.403 154.683 113.421 154.205 117.5 154.207C121.579 154.207 125.596 154.687 129.552 155.646C133.507 156.605 137.401 158.041 141.233 159.955C143.025 160.882 144.463 162.227 145.546 163.99C146.629 165.752 147.169 167.683 147.166 169.782V180.165H87.833Z" fill="#6366F1"/>
<path d="M117.5 259.499C113.421 259.499 109.928 258.046 107.024 255.141C104.119 252.237 102.666 248.745 102.666 244.665C102.666 240.586 104.119 237.094 107.024 234.189C109.928 231.284 113.421 229.832 117.5 229.832C121.579 229.832 125.071 231.284 127.976 234.189C130.881 237.094 132.333 240.586 132.333 244.665C132.333 248.745 130.881 252.237 127.976 255.141C125.071 258.046 121.579 259.499 117.5 259.499ZM87.833 289.165V278.782C87.833 276.681 88.3744 274.749 89.4573 272.986C90.5401 271.223 91.9765 269.88 93.7663 268.955C97.5983 267.039 101.492 265.601 105.448 264.642C109.403 263.683 113.421 263.205 117.5 263.207C121.579 263.207 125.596 263.687 129.552 264.646C133.507 265.605 137.401 267.041 141.233 268.955C143.025 269.882 144.463 271.227 145.546 272.99C146.629 274.752 147.169 276.683 147.166 278.782V289.165H87.833Z" fill="#6366F1"/>
<circle cx="240.5" cy="260.5" r="34.5" fill="#EEF2FF"/>
<path d="M259.655 249.786C260.207 248.003 260.385 246.125 260.175 244.27C259.966 242.415 259.375 240.623 258.438 239.008C258.28 238.733 258.051 238.504 257.776 238.346C257.501 238.187 257.189 238.103 256.872 238.104C254.765 238.099 252.687 238.587 250.803 239.529C248.919 240.472 247.281 241.841 246.021 243.529H240.596C239.335 241.841 237.698 240.472 235.814 239.529C233.93 238.587 231.851 238.099 229.745 238.104C229.427 238.103 229.115 238.187 228.84 238.346C228.565 238.504 228.337 238.733 228.178 239.008C227.242 240.623 226.651 242.415 226.441 244.27C226.232 246.125 226.409 248.003 226.962 249.786C225.845 251.736 225.246 253.941 225.224 256.188V257.997C225.228 261.057 226.338 264.012 228.351 266.317C230.364 268.621 233.142 270.12 236.174 270.536C234.937 272.12 234.265 274.072 234.266 276.081V277.89H228.841C227.402 277.89 226.022 277.318 225.004 276.301C223.987 275.283 223.415 273.903 223.415 272.464C223.415 271.277 223.181 270.101 222.727 269.004C222.273 267.907 221.606 266.91 220.767 266.071C219.927 265.231 218.93 264.565 217.833 264.11C216.736 263.656 215.56 263.422 214.373 263.422C213.893 263.422 213.433 263.613 213.094 263.952C212.755 264.291 212.564 264.751 212.564 265.231C212.564 265.71 212.755 266.17 213.094 266.509C213.433 266.848 213.893 267.039 214.373 267.039C215.812 267.039 217.192 267.611 218.209 268.628C219.227 269.646 219.798 271.026 219.798 272.464C219.798 274.863 220.751 277.163 222.447 278.858C224.143 280.554 226.442 281.507 228.841 281.507H234.266V285.124C234.266 285.603 234.457 286.063 234.796 286.402C235.135 286.742 235.595 286.932 236.075 286.932C236.554 286.932 237.014 286.742 237.353 286.402C237.692 286.063 237.883 285.603 237.883 285.124V276.081C237.883 274.642 238.455 273.262 239.472 272.245C240.49 271.228 241.869 270.656 243.308 270.656C244.747 270.656 246.127 271.228 247.145 272.245C248.162 273.262 248.734 274.642 248.734 276.081V285.124C248.734 285.603 248.924 286.063 249.263 286.402C249.603 286.742 250.063 286.932 250.542 286.932C251.022 286.932 251.482 286.742 251.821 286.402C252.16 286.063 252.351 285.603 252.351 285.124V276.081C252.352 274.072 251.68 272.12 250.443 270.536C253.474 270.12 256.253 268.621 258.266 266.317C260.278 264.012 261.389 261.057 261.393 257.997V256.188C261.371 253.941 260.772 251.736 259.655 249.786ZM257.776 257.997C257.776 260.395 256.823 262.695 255.128 264.391C253.432 266.086 251.132 267.039 248.734 267.039H237.883C235.485 267.039 233.185 266.086 231.489 264.391C229.793 262.695 228.841 260.395 228.841 257.997V256.188C228.863 254.38 229.404 252.616 230.4 251.106C230.586 250.862 230.706 250.574 230.75 250.269C230.793 249.965 230.759 249.655 230.649 249.368C230.178 248.153 229.951 246.857 229.982 245.555C230.013 244.252 230.3 242.968 230.828 241.777C232.308 241.936 233.733 242.426 234.998 243.211C236.263 243.996 237.334 245.056 238.134 246.312C238.297 246.567 238.521 246.776 238.786 246.922C239.051 247.068 239.348 247.145 239.651 247.146H246.964C247.267 247.146 247.566 247.069 247.832 246.924C248.099 246.778 248.324 246.567 248.487 246.312C249.287 245.056 250.359 243.996 251.623 243.211C252.888 242.426 254.314 241.936 255.794 241.777C256.321 242.969 256.607 244.253 256.637 245.555C256.667 246.858 256.439 248.153 255.968 249.368C255.858 249.652 255.822 249.959 255.861 250.261C255.901 250.563 256.015 250.851 256.194 251.097C257.2 252.607 257.749 254.374 257.776 256.188V257.997Z" fill="#4F46E5"/>
<path d="M640.88 189.44V200H638.88V194.496L638.992 191.408H638.96L636.032 200H634.224L631.312 191.408H631.28L631.392 194.496V200H629.392V189.44H632.592L634.496 195.2L635.168 197.584H635.2L635.888 195.216L637.776 189.44H640.88ZM647.9 194.896C647.9 194.437 647.766 194.08 647.5 193.824C647.244 193.568 646.902 193.44 646.476 193.44C646.081 193.44 645.734 193.541 645.436 193.744C645.137 193.947 644.918 194.283 644.78 194.752L642.908 194.176C643.089 193.472 643.484 192.907 644.092 192.48C644.71 192.053 645.537 191.84 646.572 191.84C647.276 191.84 647.889 191.952 648.412 192.176C648.934 192.389 649.34 192.715 649.628 193.152C649.926 193.589 650.076 194.139 650.076 194.8V198.048C650.076 198.453 650.268 198.656 650.652 198.656C650.833 198.656 651.004 198.629 651.164 198.576L651.036 199.936C650.758 200.075 650.412 200.144 649.996 200.144C649.622 200.144 649.286 200.08 648.988 199.952C648.689 199.824 648.454 199.632 648.284 199.376C648.113 199.109 648.028 198.779 648.028 198.384V198.32L648.412 198.256C648.348 198.661 648.172 199.008 647.884 199.296C647.596 199.573 647.244 199.787 646.828 199.936C646.422 200.085 646.001 200.16 645.564 200.16C645.02 200.16 644.55 200.08 644.156 199.92C643.761 199.749 643.457 199.504 643.243 199.184C643.03 198.864 642.924 198.469 642.924 198C642.924 197.403 643.116 196.917 643.5 196.544C643.884 196.16 644.433 195.899 645.148 195.76L648.156 195.152L648.14 196.512L646.22 196.896C645.857 196.971 645.58 197.072 645.388 197.2C645.206 197.317 645.116 197.515 645.116 197.792C645.116 198.059 645.212 198.261 645.404 198.4C645.606 198.539 645.846 198.608 646.124 198.608C646.348 198.608 646.566 198.581 646.78 198.528C646.993 198.475 647.185 198.389 647.356 198.272C647.526 198.155 647.66 197.995 647.756 197.792C647.852 197.589 647.9 197.344 647.9 197.056V194.896ZM652.527 200V192H654.495L654.623 194.4L654.351 194.144C654.479 193.621 654.682 193.189 654.959 192.848C655.236 192.507 655.572 192.256 655.967 192.096C656.372 191.925 656.815 191.84 657.295 191.84C657.85 191.84 658.34 191.947 658.767 192.16C659.204 192.373 659.546 192.699 659.791 193.136C660.047 193.563 660.175 194.101 660.175 194.752V200H657.983V195.376C657.983 194.693 657.85 194.224 657.583 193.968C657.316 193.701 656.97 193.568 656.543 193.568C656.244 193.568 655.951 193.643 655.663 193.792C655.386 193.931 655.156 194.16 654.975 194.48C654.804 194.8 654.719 195.227 654.719 195.76V200H652.527ZM665.217 200.16C664.684 200.16 664.204 200.064 663.777 199.872C663.351 199.68 663.009 199.376 662.753 198.96C662.508 198.533 662.385 197.984 662.385 197.312V192H664.577V196.784C664.577 197.403 664.705 197.835 664.961 198.08C665.217 198.315 665.585 198.432 666.065 198.432C666.289 198.432 666.508 198.395 666.721 198.32C666.935 198.235 667.121 198.107 667.281 197.936C667.452 197.765 667.585 197.547 667.681 197.28C667.777 197.003 667.825 196.677 667.825 196.304V192H670.017V200H668.065L667.985 198.608C667.719 199.141 667.351 199.536 666.881 199.792C666.423 200.037 665.868 200.16 665.217 200.16ZM676.884 194.896C676.884 194.437 676.751 194.08 676.484 193.824C676.228 193.568 675.887 193.44 675.46 193.44C675.065 193.44 674.719 193.541 674.42 193.744C674.121 193.947 673.903 194.283 673.764 194.752L671.892 194.176C672.073 193.472 672.468 192.907 673.076 192.48C673.695 192.053 674.521 191.84 675.556 191.84C676.26 191.84 676.873 191.952 677.396 192.176C677.919 192.389 678.324 192.715 678.612 193.152C678.911 193.589 679.06 194.139 679.06 194.8V198.048C679.06 198.453 679.252 198.656 679.636 198.656C679.817 198.656 679.988 198.629 680.148 198.576L680.02 199.936C679.743 200.075 679.396 200.144 678.98 200.144C678.607 200.144 678.271 200.08 677.972 199.952C677.673 199.824 677.439 199.632 677.268 199.376C677.097 199.109 677.012 198.779 677.012 198.384V198.32L677.396 198.256C677.332 198.661 677.156 199.008 676.868 199.296C676.58 199.573 676.228 199.787 675.812 199.936C675.407 200.085 674.985 200.16 674.548 200.16C674.004 200.16 673.535 200.08 673.14 199.92C672.745 199.749 672.441 199.504 672.228 199.184C672.015 198.864 671.908 198.469 671.908 198C671.908 197.403 672.1 196.917 672.484 196.544C672.868 196.16 673.417 195.899 674.132 195.76L677.14 195.152L677.124 196.512L675.204 196.896C674.841 196.971 674.564 197.072 674.372 197.2C674.191 197.317 674.1 197.515 674.1 197.792C674.1 198.059 674.196 198.261 674.388 198.4C674.591 198.539 674.831 198.608 675.108 198.608C675.332 198.608 675.551 198.581 675.764 198.528C675.977 198.475 676.169 198.389 676.34 198.272C676.511 198.155 676.644 197.995 676.74 197.792C676.836 197.589 676.884 197.344 676.884 197.056V194.896ZM683.671 188.496V197.536C683.671 197.909 683.735 198.171 683.863 198.32C683.991 198.469 684.205 198.544 684.503 198.544C684.685 198.544 684.834 198.533 684.951 198.512C685.069 198.48 685.218 198.437 685.399 198.384L685.207 199.824C685.026 199.931 684.797 200.011 684.519 200.064C684.253 200.128 683.986 200.16 683.719 200.16C682.941 200.16 682.37 199.973 682.007 199.6C681.655 199.216 681.479 198.608 681.479 197.776V188.496H683.671ZM695.472 189.44C697.125 189.44 698.405 189.899 699.312 190.816C700.218 191.723 700.672 193.024 700.672 194.72C700.672 196.405 700.218 197.707 699.312 198.624C698.405 199.541 697.125 200 695.472 200H691.392V189.44H695.472ZM695.36 198.24C696.362 198.24 697.114 197.941 697.616 197.344C698.128 196.736 698.384 195.861 698.384 194.72C698.384 193.579 698.128 192.709 697.616 192.112C697.114 191.504 696.362 191.2 695.36 191.2H693.6V198.24H695.36ZM706.38 200.16C705.537 200.16 704.801 199.995 704.172 199.664C703.553 199.333 703.073 198.859 702.732 198.24C702.39 197.621 702.22 196.875 702.22 196C702.22 195.125 702.39 194.379 702.732 193.76C703.073 193.141 703.548 192.667 704.156 192.336C704.774 192.005 705.478 191.84 706.268 191.84C707.078 191.84 707.766 192.005 708.332 192.336C708.897 192.656 709.329 193.099 709.628 193.664C709.926 194.219 710.076 194.853 710.076 195.568C710.076 195.781 710.07 195.984 710.06 196.176C710.049 196.368 710.033 196.539 710.012 196.688H703.628V195.168H709.052L707.996 195.552C707.996 194.88 707.841 194.363 707.532 194C707.233 193.637 706.806 193.456 706.252 193.456C705.846 193.456 705.494 193.552 705.196 193.744C704.908 193.936 704.689 194.224 704.54 194.608C704.39 194.981 704.316 195.456 704.316 196.032C704.316 196.597 704.396 197.067 704.556 197.44C704.726 197.803 704.961 198.075 705.26 198.256C705.569 198.437 705.937 198.528 706.364 198.528C706.833 198.528 707.212 198.437 707.5 198.256C707.788 198.075 708.012 197.824 708.172 197.504L709.916 198.176C709.745 198.592 709.484 198.949 709.132 199.248C708.79 199.547 708.38 199.776 707.9 199.936C707.43 200.085 706.924 200.16 706.38 200.16ZM711.933 203.36V192H713.901L714.045 194.544L713.773 194.256C713.869 193.787 714.045 193.371 714.301 193.008C714.568 192.645 714.904 192.363 715.309 192.16C715.715 191.947 716.168 191.84 716.669 191.84C717.32 191.84 717.901 192.005 718.413 192.336C718.925 192.667 719.325 193.141 719.613 193.76C719.912 194.368 720.061 195.109 720.061 195.984C720.061 196.859 719.912 197.611 719.613 198.24C719.315 198.859 718.904 199.333 718.381 199.664C717.869 199.995 717.283 200.16 716.621 200.16C715.917 200.16 715.331 199.963 714.861 199.568C714.403 199.173 714.088 198.677 713.917 198.08L714.125 197.744V203.36H711.933ZM715.981 198.48C716.568 198.48 717.027 198.272 717.357 197.856C717.699 197.429 717.869 196.811 717.869 196C717.869 195.189 717.704 194.576 717.373 194.16C717.053 193.733 716.6 193.52 716.013 193.52C715.64 193.52 715.309 193.621 715.021 193.824C714.744 194.016 714.525 194.299 714.365 194.672C714.205 195.035 714.125 195.477 714.125 196C714.125 196.512 714.2 196.955 714.349 197.328C714.499 197.701 714.712 197.989 714.989 198.192C715.277 198.384 715.608 198.48 715.981 198.48ZM724.125 188.496V197.536C724.125 197.909 724.189 198.171 724.317 198.32C724.445 198.469 724.658 198.544 724.957 198.544C725.138 198.544 725.287 198.533 725.405 198.512C725.522 198.48 725.671 198.437 725.853 198.384L725.661 199.824C725.479 199.931 725.25 200.011 724.973 200.064C724.706 200.128 724.439 200.16 724.173 200.16C723.394 200.16 722.823 199.973 722.461 199.6C722.109 199.216 721.933 198.608 721.933 197.776V188.496H724.125ZM730.722 191.84C731.533 191.84 732.242 192.005 732.85 192.336C733.469 192.667 733.949 193.141 734.29 193.76C734.642 194.379 734.818 195.125 734.818 196C734.818 196.864 734.642 197.611 734.29 198.24C733.949 198.859 733.469 199.333 732.85 199.664C732.242 199.995 731.533 200.16 730.722 200.16C729.922 200.16 729.213 199.995 728.594 199.664C727.975 199.333 727.49 198.859 727.138 198.24C726.797 197.611 726.626 196.864 726.626 196C726.626 195.125 726.797 194.379 727.138 193.76C727.49 193.141 727.975 192.667 728.594 192.336C729.213 192.005 729.922 191.84 730.722 191.84ZM730.722 193.472C730.317 193.472 729.97 193.568 729.682 193.76C729.405 193.941 729.191 194.219 729.042 194.592C728.893 194.965 728.818 195.435 728.818 196C728.818 196.565 728.893 197.035 729.042 197.408C729.191 197.781 729.405 198.064 729.682 198.256C729.97 198.437 730.317 198.528 730.722 198.528C731.117 198.528 731.453 198.437 731.73 198.256C732.018 198.064 732.237 197.781 732.386 197.408C732.535 197.035 732.61 196.565 732.61 196C732.61 195.435 732.535 194.965 732.386 194.592C732.237 194.219 732.018 193.941 731.73 193.76C731.453 193.568 731.117 193.472 730.722 193.472ZM743.813 192L740.581 200.496C740.325 201.221 740.037 201.797 739.717 202.224C739.407 202.651 739.045 202.96 738.629 203.152C738.223 203.344 737.738 203.44 737.173 203.44C736.757 203.44 736.373 203.387 736.021 203.28C735.679 203.184 735.381 203.056 735.125 202.896L735.589 201.312C735.791 201.472 736.005 201.584 736.229 201.648C736.453 201.723 736.709 201.76 736.997 201.76C737.295 201.76 737.551 201.696 737.765 201.568C737.989 201.44 738.175 201.184 738.325 200.8L738.597 200.112L737.717 198.032L735.269 192H737.701L739.221 196.8L739.637 198.4L740.133 196.704L741.589 192H743.813ZM745.027 200V192H746.995L747.075 193.44C747.342 192.907 747.704 192.507 748.163 192.24C748.632 191.973 749.15 191.84 749.715 191.84C750.291 191.84 750.808 191.973 751.267 192.24C751.736 192.507 752.088 192.901 752.323 193.424C752.494 193.072 752.723 192.779 753.011 192.544C753.299 192.309 753.619 192.133 753.971 192.016C754.323 191.899 754.68 191.84 755.043 191.84C755.566 191.84 756.04 191.947 756.467 192.16C756.904 192.373 757.251 192.693 757.507 193.12C757.763 193.547 757.891 194.091 757.891 194.752V200H755.699V195.184C755.699 194.597 755.571 194.181 755.315 193.936C755.059 193.691 754.728 193.568 754.323 193.568C754.003 193.568 753.704 193.648 753.427 193.808C753.16 193.968 752.947 194.208 752.787 194.528C752.638 194.837 752.563 195.227 752.563 195.696V200H750.371V195.184C750.371 194.597 750.238 194.181 749.971 193.936C749.715 193.691 749.384 193.568 748.979 193.568C748.702 193.568 748.424 193.643 748.147 193.792C747.88 193.941 747.656 194.176 747.475 194.496C747.304 194.816 747.219 195.237 747.219 195.76V200H745.027ZM763.864 200.16C763.021 200.16 762.285 199.995 761.656 199.664C761.037 199.333 760.557 198.859 760.216 198.24C759.875 197.621 759.704 196.875 759.704 196C759.704 195.125 759.875 194.379 760.216 193.76C760.557 193.141 761.032 192.667 761.64 192.336C762.259 192.005 762.963 191.84 763.752 191.84C764.563 191.84 765.251 192.005 765.816 192.336C766.381 192.656 766.813 193.099 767.112 193.664C767.411 194.219 767.56 194.853 767.56 195.568C767.56 195.781 767.555 195.984 767.544 196.176C767.533 196.368 767.517 196.539 767.496 196.688H761.112V195.168H766.536L765.48 195.552C765.48 194.88 765.325 194.363 765.016 194C764.717 193.637 764.291 193.456 763.736 193.456C763.331 193.456 762.979 193.552 762.68 193.744C762.392 193.936 762.173 194.224 762.024 194.608C761.875 194.981 761.8 195.456 761.8 196.032C761.8 196.597 761.88 197.067 762.04 197.44C762.211 197.803 762.445 198.075 762.744 198.256C763.053 198.437 763.421 198.528 763.848 198.528C764.317 198.528 764.696 198.437 764.984 198.256C765.272 198.075 765.496 197.824 765.656 197.504L767.4 198.176C767.229 198.592 766.968 198.949 766.616 199.248C766.275 199.547 765.864 199.776 765.384 199.936C764.915 200.085 764.408 200.16 763.864 200.16ZM769.418 200V192H771.386L771.514 194.4L771.242 194.144C771.37 193.621 771.572 193.189 771.85 192.848C772.127 192.507 772.463 192.256 772.858 192.096C773.263 191.925 773.706 191.84 774.186 191.84C774.74 191.84 775.231 191.947 775.658 192.16C776.095 192.373 776.436 192.699 776.682 193.136C776.938 193.563 777.066 194.101 777.066 194.752V200H774.874V195.376C774.874 194.693 774.74 194.224 774.474 193.968C774.207 193.701 773.86 193.568 773.434 193.568C773.135 193.568 772.842 193.643 772.554 193.792C772.276 193.931 772.047 194.16 771.866 194.48C771.695 194.8 771.61 195.227 771.61 195.76V200H769.418ZM782.093 189.552V197.392C782.093 197.776 782.189 198.059 782.381 198.24C782.584 198.411 782.856 198.496 783.197 198.496C783.464 198.496 783.699 198.459 783.901 198.384C784.104 198.299 784.285 198.187 784.445 198.048L784.797 199.504C784.541 199.707 784.221 199.867 783.837 199.984C783.453 200.101 783.048 200.16 782.621 200.16C782.088 200.16 781.613 200.08 781.197 199.92C780.792 199.76 780.472 199.504 780.237 199.152C780.013 198.8 779.901 198.331 779.901 197.744V190.16L782.093 189.552ZM784.653 192V193.632H778.429V192H784.653Z" fill="#44403C"/>
<path d="M303.296 148.44C304.949 148.44 306.235 148.899 307.152 149.816C308.08 150.723 308.544 152.024 308.544 153.72C308.544 155.416 308.08 156.723 307.152 157.64C306.235 158.547 304.949 159 303.296 159H299.568V148.44H303.296ZM303.296 157.544C304.416 157.544 305.269 157.213 305.856 156.552C306.453 155.88 306.752 154.936 306.752 153.72C306.752 152.504 306.453 151.565 305.856 150.904C305.269 150.232 304.416 149.896 303.296 149.896H301.28V157.544H303.296ZM314.364 159.16C313.564 159.16 312.86 158.995 312.252 158.664C311.644 158.333 311.169 157.859 310.828 157.24C310.497 156.611 310.332 155.864 310.332 155C310.332 154.136 310.497 153.395 310.828 152.776C311.169 152.147 311.638 151.667 312.236 151.336C312.833 151.005 313.51 150.84 314.268 150.84C315.046 150.84 315.708 151 316.252 151.32C316.796 151.64 317.212 152.077 317.5 152.632C317.788 153.187 317.932 153.816 317.932 154.52C317.932 154.712 317.926 154.893 317.916 155.064C317.905 155.235 317.889 155.384 317.868 155.512H311.436V154.2H317.116L316.268 154.456C316.268 153.731 316.086 153.176 315.724 152.792C315.361 152.397 314.865 152.2 314.236 152.2C313.777 152.2 313.377 152.307 313.036 152.52C312.694 152.733 312.433 153.053 312.252 153.48C312.07 153.896 311.98 154.408 311.98 155.016C311.98 155.613 312.076 156.12 312.268 156.536C312.46 156.952 312.732 157.267 313.084 157.48C313.436 157.693 313.852 157.8 314.332 157.8C314.865 157.8 315.297 157.699 315.628 157.496C315.958 157.293 316.22 157.011 316.412 156.648L317.772 157.288C317.58 157.672 317.318 158.008 316.988 158.296C316.668 158.573 316.284 158.787 315.836 158.936C315.388 159.085 314.897 159.16 314.364 159.16ZM320.094 162.36V151H321.614L321.742 153.24L321.518 152.968C321.646 152.552 321.843 152.184 322.11 151.864C322.376 151.544 322.707 151.293 323.102 151.112C323.507 150.931 323.95 150.84 324.43 150.84C325.08 150.84 325.672 151.005 326.206 151.336C326.739 151.667 327.16 152.141 327.47 152.76C327.779 153.368 327.934 154.109 327.934 154.984C327.934 155.859 327.774 156.611 327.454 157.24C327.144 157.859 326.718 158.333 326.174 158.664C325.64 158.995 325.043 159.16 324.382 159.16C323.699 159.16 323.118 158.984 322.638 158.632C322.158 158.269 321.816 157.811 321.614 157.256L321.806 156.984V162.36H320.094ZM324.014 157.768C324.707 157.768 325.246 157.523 325.63 157.032C326.024 156.541 326.222 155.864 326.222 155C326.222 154.136 326.03 153.459 325.646 152.968C325.262 152.467 324.728 152.216 324.046 152.216C323.598 152.216 323.203 152.333 322.862 152.568C322.531 152.792 322.27 153.112 322.078 153.528C321.896 153.933 321.806 154.424 321.806 155C321.806 155.565 321.896 156.056 322.078 156.472C322.259 156.888 322.515 157.208 322.846 157.432C323.176 157.656 323.566 157.768 324.014 157.768ZM331.789 147.4V156.76C331.789 157.155 331.858 157.427 331.997 157.576C332.136 157.725 332.365 157.8 332.685 157.8C332.877 157.8 333.037 157.789 333.165 157.768C333.304 157.736 333.474 157.683 333.677 157.608L333.485 158.888C333.304 158.973 333.096 159.037 332.861 159.08C332.626 159.133 332.392 159.16 332.157 159.16C331.442 159.16 330.914 158.979 330.573 158.616C330.242 158.243 330.077 157.672 330.077 156.904V147.4H331.789ZM338.581 150.84C339.36 150.84 340.048 151.005 340.645 151.336C341.243 151.667 341.707 152.147 342.037 152.776C342.379 153.395 342.549 154.136 342.549 155C342.549 155.864 342.379 156.611 342.037 157.24C341.707 157.859 341.243 158.333 340.645 158.664C340.048 158.995 339.36 159.16 338.581 159.16C337.803 159.16 337.115 158.995 336.517 158.664C335.92 158.333 335.451 157.859 335.109 157.24C334.768 156.611 334.597 155.864 334.597 155C334.597 154.136 334.768 153.395 335.109 152.776C335.451 152.147 335.92 151.667 336.517 151.336C337.115 151.005 337.803 150.84 338.581 150.84ZM338.581 152.184C338.101 152.184 337.691 152.296 337.349 152.52C337.019 152.733 336.763 153.048 336.581 153.464C336.4 153.88 336.309 154.392 336.309 155C336.309 155.597 336.4 156.109 336.581 156.536C336.763 156.952 337.019 157.272 337.349 157.496C337.691 157.709 338.101 157.816 338.581 157.816C339.061 157.816 339.467 157.709 339.797 157.496C340.128 157.272 340.384 156.952 340.565 156.536C340.747 156.109 340.837 155.597 340.837 155C340.837 154.392 340.747 153.88 340.565 153.464C340.384 153.048 340.128 152.733 339.797 152.52C339.467 152.296 339.061 152.184 338.581 152.184ZM351.43 151L347.926 159.944C347.691 160.563 347.435 161.053 347.158 161.416C346.891 161.779 346.582 162.04 346.23 162.2C345.878 162.36 345.467 162.44 344.998 162.44C344.614 162.44 344.257 162.387 343.926 162.28C343.606 162.184 343.323 162.051 343.078 161.88L343.494 160.552C343.697 160.723 343.91 160.851 344.134 160.936C344.369 161.021 344.619 161.064 344.886 161.064C345.174 161.064 345.43 160.984 345.654 160.824C345.889 160.675 346.097 160.371 346.278 159.912L346.63 159.048L345.782 157.064L343.286 151H345.206L346.982 156.024L347.446 157.528L347.974 155.88L349.654 151H351.43ZM352.891 159V151H354.411L354.491 152.344C354.768 151.832 355.136 151.453 355.595 151.208C356.064 150.963 356.56 150.84 357.083 150.84C357.659 150.84 358.187 150.973 358.667 151.24C359.157 151.496 359.525 151.885 359.771 152.408C359.941 152.056 360.176 151.763 360.475 151.528C360.773 151.293 361.104 151.123 361.467 151.016C361.829 150.899 362.187 150.84 362.539 150.84C363.051 150.84 363.531 150.947 363.979 151.16C364.427 151.373 364.789 151.699 365.067 152.136C365.344 152.573 365.483 153.133 365.483 153.816V159H363.771V154.088C363.771 153.437 363.616 152.968 363.307 152.68C362.997 152.392 362.603 152.248 362.123 152.248C361.749 152.248 361.403 152.339 361.083 152.52C360.773 152.701 360.523 152.973 360.331 153.336C360.139 153.688 360.043 154.125 360.043 154.648V159H358.331V154.088C358.331 153.437 358.176 152.968 357.867 152.68C357.557 152.392 357.163 152.248 356.683 152.248C356.363 152.248 356.043 152.333 355.723 152.504C355.403 152.675 355.136 152.941 354.923 153.304C354.709 153.667 354.603 154.147 354.603 154.744V159H352.891ZM371.598 159.16C370.798 159.16 370.094 158.995 369.486 158.664C368.878 158.333 368.403 157.859 368.062 157.24C367.731 156.611 367.566 155.864 367.566 155C367.566 154.136 367.731 153.395 368.062 152.776C368.403 152.147 368.873 151.667 369.47 151.336C370.067 151.005 370.745 150.84 371.502 150.84C372.281 150.84 372.942 151 373.486 151.32C374.03 151.64 374.446 152.077 374.734 152.632C375.022 153.187 375.166 153.816 375.166 154.52C375.166 154.712 375.161 154.893 375.15 155.064C375.139 155.235 375.123 155.384 375.102 155.512H368.67V154.2H374.35L373.502 154.456C373.502 153.731 373.321 153.176 372.958 152.792C372.595 152.397 372.099 152.2 371.47 152.2C371.011 152.2 370.611 152.307 370.27 152.52C369.929 152.733 369.667 153.053 369.486 153.48C369.305 153.896 369.214 154.408 369.214 155.016C369.214 155.613 369.31 156.12 369.502 156.536C369.694 156.952 369.966 157.267 370.318 157.48C370.67 157.693 371.086 157.8 371.566 157.8C372.099 157.8 372.531 157.699 372.862 157.496C373.193 157.293 373.454 157.011 373.646 156.648L375.006 157.288C374.814 157.672 374.553 158.008 374.222 158.296C373.902 158.573 373.518 158.787 373.07 158.936C372.622 159.085 372.131 159.16 371.598 159.16ZM377.328 159V151H378.848L378.96 153.08L378.736 152.856C378.885 152.397 379.099 152.019 379.376 151.72C379.664 151.411 380 151.187 380.384 151.048C380.779 150.909 381.195 150.84 381.632 150.84C382.197 150.84 382.704 150.952 383.152 151.176C383.611 151.389 383.973 151.715 384.24 152.152C384.507 152.589 384.64 153.144 384.64 153.816V159H382.928V154.344C382.928 153.555 382.763 153.011 382.432 152.712C382.112 152.403 381.707 152.248 381.216 152.248C380.864 152.248 380.523 152.333 380.192 152.504C379.861 152.664 379.584 152.925 379.36 153.288C379.147 153.651 379.04 154.136 379.04 154.744V159H377.328ZM389.477 148.648V156.6C389.477 156.995 389.578 157.283 389.781 157.464C389.994 157.645 390.277 157.736 390.629 157.736C390.917 157.736 391.167 157.693 391.381 157.608C391.594 157.512 391.791 157.384 391.973 157.224L392.357 158.472C392.111 158.685 391.807 158.856 391.445 158.984C391.093 159.101 390.698 159.16 390.261 159.16C389.802 159.16 389.381 159.085 388.997 158.936C388.613 158.787 388.314 158.547 388.101 158.216C387.887 157.875 387.775 157.432 387.765 156.888V149.128L389.477 148.648ZM392.229 151V152.344H386.229V151H392.229ZM403.669 148.44C404.8 148.44 405.696 148.723 406.357 149.288C407.029 149.853 407.365 150.616 407.365 151.576C407.365 152.568 407.029 153.336 406.357 153.88C405.696 154.413 404.8 154.68 403.669 154.68L403.509 154.776H401.061V159H399.365V148.44H403.669ZM403.541 153.352C404.234 153.352 404.746 153.213 405.077 152.936C405.418 152.648 405.589 152.211 405.589 151.624C405.589 151.048 405.418 150.616 405.077 150.328C404.746 150.04 404.234 149.896 403.541 149.896H401.061V153.352H403.541ZM404.549 153.704L407.989 159H406.021L403.077 154.376L404.549 153.704ZM413.176 159.16C412.376 159.16 411.672 158.995 411.064 158.664C410.456 158.333 409.981 157.859 409.64 157.24C409.309 156.611 409.144 155.864 409.144 155C409.144 154.136 409.309 153.395 409.64 152.776C409.981 152.147 410.451 151.667 411.048 151.336C411.645 151.005 412.323 150.84 413.08 150.84C413.859 150.84 414.52 151 415.064 151.32C415.608 151.64 416.024 152.077 416.312 152.632C416.6 153.187 416.744 153.816 416.744 154.52C416.744 154.712 416.739 154.893 416.728 155.064C416.717 155.235 416.701 155.384 416.68 155.512H410.248V154.2H415.928L415.08 154.456C415.08 153.731 414.899 153.176 414.536 152.792C414.173 152.397 413.677 152.2 413.048 152.2C412.589 152.2 412.189 152.307 411.848 152.52C411.507 152.733 411.245 153.053 411.064 153.48C410.883 153.896 410.792 154.408 410.792 155.016C410.792 155.613 410.888 156.12 411.08 156.536C411.272 156.952 411.544 157.267 411.896 157.48C412.248 157.693 412.664 157.8 413.144 157.8C413.677 157.8 414.109 157.699 414.44 157.496C414.771 157.293 415.032 157.011 415.224 156.648L416.584 157.288C416.392 157.672 416.131 158.008 415.8 158.296C415.48 158.573 415.096 158.787 414.648 158.936C414.2 159.085 413.709 159.16 413.176 159.16ZM424.57 162.36V156.664L424.81 156.888C424.735 157.357 424.559 157.763 424.282 158.104C424.015 158.445 423.679 158.707 423.274 158.888C422.879 159.069 422.447 159.16 421.978 159.16C421.317 159.16 420.719 158.995 420.186 158.664C419.653 158.333 419.226 157.859 418.906 157.24C418.597 156.611 418.442 155.859 418.442 154.984C418.442 154.109 418.607 153.363 418.938 152.744C419.269 152.125 419.711 151.656 420.266 151.336C420.821 151.005 421.429 150.84 422.09 150.84C422.559 150.84 422.986 150.936 423.37 151.128C423.765 151.309 424.09 151.571 424.346 151.912C424.613 152.243 424.789 152.637 424.874 153.096L424.634 153.176L424.762 151H426.282V162.36H424.57ZM422.346 157.768C422.794 157.768 423.183 157.656 423.514 157.432C423.845 157.208 424.101 156.888 424.282 156.472C424.474 156.045 424.57 155.544 424.57 154.968C424.57 154.371 424.479 153.869 424.298 153.464C424.117 153.059 423.861 152.749 423.53 152.536C423.199 152.323 422.815 152.216 422.378 152.216C421.685 152.216 421.141 152.467 420.746 152.968C420.351 153.459 420.154 154.136 420.154 155C420.154 155.864 420.346 156.541 420.73 157.032C421.114 157.523 421.653 157.768 422.346 157.768ZM431.785 159.16C431.263 159.16 430.777 159.064 430.329 158.872C429.892 158.68 429.54 158.371 429.273 157.944C429.007 157.517 428.873 156.963 428.873 156.28V151H430.585V155.848C430.585 156.573 430.74 157.075 431.049 157.352C431.359 157.619 431.791 157.752 432.345 157.752C432.612 157.752 432.868 157.709 433.113 157.624C433.369 157.528 433.599 157.384 433.801 157.192C434.004 156.989 434.159 156.733 434.265 156.424C434.383 156.115 434.441 155.752 434.441 155.336V151H436.153V159H434.649L434.569 157.704C434.292 158.205 433.919 158.573 433.449 158.808C432.98 159.043 432.425 159.16 431.785 159.16ZM442.348 159.16C441.548 159.16 440.844 158.995 440.236 158.664C439.628 158.333 439.153 157.859 438.812 157.24C438.481 156.611 438.316 155.864 438.316 155C438.316 154.136 438.481 153.395 438.812 152.776C439.153 152.147 439.623 151.667 440.22 151.336C440.817 151.005 441.495 150.84 442.252 150.84C443.031 150.84 443.692 151 444.236 151.32C444.78 151.64 445.196 152.077 445.484 152.632C445.772 153.187 445.916 153.816 445.916 154.52C445.916 154.712 445.911 154.893 445.9 155.064C445.889 155.235 445.873 155.384 445.852 155.512H439.42V154.2H445.1L444.252 154.456C444.252 153.731 444.071 153.176 443.708 152.792C443.345 152.397 442.849 152.2 442.22 152.2C441.761 152.2 441.361 152.307 441.02 152.52C440.679 152.733 440.417 153.053 440.236 153.48C440.055 153.896 439.964 154.408 439.964 155.016C439.964 155.613 440.06 156.12 440.252 156.536C440.444 156.952 440.716 157.267 441.068 157.48C441.42 157.693 441.836 157.8 442.316 157.8C442.849 157.8 443.281 157.699 443.612 157.496C443.943 157.293 444.204 157.011 444.396 156.648L445.756 157.288C445.564 157.672 445.303 158.008 444.972 158.296C444.652 158.573 444.268 158.787 443.82 158.936C443.372 159.085 442.881 159.16 442.348 159.16ZM451.118 159.16C450.318 159.16 449.587 159.005 448.926 158.696C448.265 158.387 447.742 157.949 447.358 157.384L448.542 156.36C448.777 156.797 449.113 157.149 449.55 157.416C449.998 157.672 450.531 157.8 451.15 157.8C451.641 157.8 452.03 157.715 452.318 157.544C452.606 157.373 452.75 157.133 452.75 156.824C452.75 156.621 452.681 156.445 452.542 156.296C452.414 156.136 452.163 156.013 451.79 155.928L450.11 155.576C449.257 155.405 448.649 155.133 448.286 154.76C447.923 154.376 447.742 153.891 447.742 153.304C447.742 152.867 447.87 152.461 448.126 152.088C448.382 151.715 448.755 151.416 449.246 151.192C449.747 150.957 450.345 150.84 451.038 150.84C451.838 150.84 452.521 150.984 453.086 151.272C453.651 151.549 454.083 151.949 454.382 152.472L453.198 153.464C452.995 153.037 452.697 152.723 452.302 152.52C451.907 152.307 451.497 152.2 451.07 152.2C450.729 152.2 450.435 152.243 450.19 152.328C449.945 152.413 449.758 152.531 449.63 152.68C449.502 152.829 449.438 153.005 449.438 153.208C449.438 153.421 449.518 153.608 449.678 153.768C449.838 153.928 450.126 154.051 450.542 154.136L452.366 154.52C453.134 154.669 453.673 154.925 453.982 155.288C454.302 155.64 454.462 156.072 454.462 156.584C454.462 157.096 454.329 157.549 454.062 157.944C453.795 158.328 453.411 158.627 452.91 158.84C452.409 159.053 451.811 159.16 451.118 159.16ZM458.883 148.648V156.6C458.883 156.995 458.984 157.283 459.187 157.464C459.4 157.645 459.683 157.736 460.035 157.736C460.323 157.736 460.573 157.693 460.787 157.608C461 157.512 461.197 157.384 461.379 157.224L461.763 158.472C461.517 158.685 461.213 158.856 460.851 158.984C460.499 159.101 460.104 159.16 459.667 159.16C459.208 159.16 458.787 159.085 458.403 158.936C458.019 158.787 457.72 158.547 457.507 158.216C457.293 157.875 457.181 157.432 457.171 156.888V149.128L458.883 148.648ZM461.635 151V152.344H455.635V151H461.635Z" fill="#44403C"/>
<path d="M821.061 67.0607C821.646 66.4749 821.646 65.5251 821.061 64.9393L811.515 55.3934C810.929 54.8076 809.979 54.8076 809.393 55.3934C808.808 55.9792 808.808 56.9289 809.393 57.5147L817.879 66L809.393 74.4853C808.808 75.0711 808.808 76.0208 809.393 76.6066C809.979 77.1924 810.929 77.1924 811.515 76.6066L821.061 67.0607ZM75 67.5H820V64.5H75V67.5Z" fill="#A8A29E"/>
<path d="M635.707 165.707C636.098 165.317 636.098 164.683 635.707 164.293L629.343 157.929C628.953 157.538 628.319 157.538 627.929 157.929C627.538 158.319 627.538 158.953 627.929 159.343L633.586 165L627.929 170.657C627.538 171.047 627.538 171.681 627.929 172.071C628.319 172.462 628.953 172.462 629.343 172.071L635.707 165.707ZM162 166L635 166L635 164L162 164L162 166Z" fill="#A8A29E"/>
<path d="M200.707 274.707C201.098 274.317 201.098 273.683 200.707 273.293L194.343 266.929C193.953 266.538 193.319 266.538 192.929 266.929C192.538 267.319 192.538 267.953 192.929 268.343L198.586 274L192.929 279.657C192.538 280.047 192.538 280.681 192.929 281.071C193.319 281.462 193.953 281.462 194.343 281.071L200.707 274.707ZM162 275L200 275L200 273L162 273L162 275Z" fill="#A8A29E"/>
<g clip-path="url(#clip0_144_1462)">
<path d="M44.1999 29C43.8816 29 43.5764 29.1264 43.3514 29.3515C43.1263 29.5765 42.9999 29.8817 42.9999 30.2V32.6C42.9999 32.9183 43.1263 33.2235 43.3514 33.4485C43.5764 33.6736 43.8816 33.8 44.1999 33.8H45.9999V36.977C33.0183 38.471 22.8999 49.5254 22.8999 62.9C22.8999 77.2898 34.6101 89 48.9999 89C63.3897 89 75.0999 77.2898 75.0999 62.9C75.104 57.9748 73.7055 53.1502 71.0679 48.9908L73.6107 46.9322L74.7435 48.3314C74.8426 48.4539 74.9649 48.5557 75.1034 48.631C75.2418 48.7063 75.3938 48.7535 75.5505 48.7701C75.7072 48.7866 75.8657 48.7722 76.0168 48.7275C76.1679 48.6828 76.3088 48.6087 76.4313 48.5096L78.2973 46.9988C78.5443 46.7984 78.7017 46.5081 78.7347 46.1917C78.7678 45.8753 78.6739 45.5588 78.4737 45.3116L72.4329 37.85C72.3338 37.7275 72.2115 37.6257 72.073 37.5504C71.9346 37.4751 71.7826 37.4279 71.6259 37.4113C71.4692 37.3948 71.3107 37.4092 71.1596 37.4539C71.0085 37.4986 70.8676 37.5727 70.7451 37.6718L68.8791 39.1826C68.6321 39.383 68.4747 39.6733 68.4417 39.9897C68.4086 40.3061 68.5025 40.6226 68.7027 40.8698L69.8361 42.269L67.3041 44.3174C63.2619 40.3346 57.9297 37.661 51.9999 36.9782V33.8H53.7999C54.1182 33.8 54.4234 33.6736 54.6484 33.4485C54.8735 33.2235 54.9999 32.9183 54.9999 32.6V30.2C54.9999 29.8817 54.8735 29.5765 54.6484 29.3515C54.4234 29.1264 54.1182 29 53.7999 29H44.1999ZM48.9999 41C61.1199 41 70.8999 50.78 70.8999 62.9C70.8999 75.02 61.1199 84.8 48.9999 84.8C36.8799 84.8 27.0999 75.02 27.0999 62.9C27.0999 50.78 36.8799 41 48.9999 41ZM49.0011 45.4658L48.9999 62.9L62.9403 73.3682C64.8848 70.7786 66.0697 67.6986 66.362 64.4734C66.6542 61.2482 66.0424 58.0054 64.5951 55.1084C63.1478 52.2115 60.9223 49.775 58.1679 48.072C55.4136 46.3689 52.2394 45.4661 49.0011 45.4658Z" fill="#57534E"/>
</g>
<path d="M194.544 310H192.256L191.376 307.424H187.328L186.448 310H184.192L188.048 299.44H190.688L194.544 310ZM187.824 305.792H190.88L189.344 301.184L187.824 305.792ZM198.592 310.16C198.059 310.16 197.579 310.064 197.152 309.872C196.726 309.68 196.384 309.376 196.128 308.96C195.883 308.533 195.76 307.984 195.76 307.312V302H197.952V306.784C197.952 307.403 198.08 307.835 198.336 308.08C198.592 308.315 198.96 308.432 199.44 308.432C199.664 308.432 199.883 308.395 200.096 308.32C200.31 308.235 200.496 308.107 200.656 307.936C200.827 307.765 200.96 307.547 201.056 307.28C201.152 307.003 201.2 306.677 201.2 306.304V302H203.392V310H201.44L201.36 308.608C201.094 309.141 200.726 309.536 200.256 309.792C199.798 310.037 199.243 310.16 198.592 310.16ZM208.531 299.552V307.392C208.531 307.776 208.627 308.059 208.819 308.24C209.022 308.411 209.294 308.496 209.635 308.496C209.902 308.496 210.136 308.459 210.339 308.384C210.542 308.299 210.723 308.187 210.883 308.048L211.235 309.504C210.979 309.707 210.659 309.867 210.275 309.984C209.891 310.101 209.486 310.16 209.059 310.16C208.526 310.16 208.051 310.08 207.635 309.92C207.23 309.76 206.91 309.504 206.675 309.152C206.451 308.8 206.339 308.331 206.339 307.744V300.16L208.531 299.552ZM211.091 302V303.632H204.867V302H211.091ZM216.222 301.84C217.033 301.84 217.742 302.005 218.35 302.336C218.969 302.667 219.449 303.141 219.79 303.76C220.142 304.379 220.318 305.125 220.318 306C220.318 306.864 220.142 307.611 219.79 308.24C219.449 308.859 218.969 309.333 218.35 309.664C217.742 309.995 217.033 310.16 216.222 310.16C215.422 310.16 214.713 309.995 214.094 309.664C213.475 309.333 212.99 308.859 212.638 308.24C212.297 307.611 212.126 306.864 212.126 306C212.126 305.125 212.297 304.379 212.638 303.76C212.99 303.141 213.475 302.667 214.094 302.336C214.713 302.005 215.422 301.84 216.222 301.84ZM216.222 303.472C215.817 303.472 215.47 303.568 215.182 303.76C214.905 303.941 214.691 304.219 214.542 304.592C214.393 304.965 214.318 305.435 214.318 306C214.318 306.565 214.393 307.035 214.542 307.408C214.691 307.781 214.905 308.064 215.182 308.256C215.47 308.437 215.817 308.528 216.222 308.528C216.617 308.528 216.953 308.437 217.23 308.256C217.518 308.064 217.737 307.781 217.886 307.408C218.035 307.035 218.11 306.565 218.11 306C218.11 305.435 218.035 304.965 217.886 304.592C217.737 304.219 217.518 303.941 217.23 303.76C216.953 303.568 216.617 303.472 216.222 303.472ZM222.152 310V302H224.12L224.2 303.44C224.467 302.907 224.829 302.507 225.288 302.24C225.757 301.973 226.275 301.84 226.84 301.84C227.416 301.84 227.933 301.973 228.392 302.24C228.861 302.507 229.213 302.901 229.448 303.424C229.619 303.072 229.848 302.779 230.136 302.544C230.424 302.309 230.744 302.133 231.096 302.016C231.448 301.899 231.805 301.84 232.168 301.84C232.691 301.84 233.165 301.947 233.592 302.16C234.029 302.373 234.376 302.693 234.632 303.12C234.888 303.547 235.016 304.091 235.016 304.752V310H232.824V305.184C232.824 304.597 232.696 304.181 232.44 303.936C232.184 303.691 231.853 303.568 231.448 303.568C231.128 303.568 230.829 303.648 230.552 303.808C230.285 303.968 230.072 304.208 229.912 304.528C229.763 304.837 229.688 305.227 229.688 305.696V310H227.496V305.184C227.496 304.597 227.363 304.181 227.096 303.936C226.84 303.691 226.509 303.568 226.104 303.568C225.827 303.568 225.549 303.643 225.272 303.792C225.005 303.941 224.781 304.176 224.6 304.496C224.429 304.816 224.344 305.237 224.344 305.76V310H222.152ZM241.837 304.896C241.837 304.437 241.704 304.08 241.437 303.824C241.181 303.568 240.84 303.44 240.413 303.44C240.018 303.44 239.672 303.541 239.373 303.744C239.074 303.947 238.856 304.283 238.717 304.752L236.845 304.176C237.026 303.472 237.421 302.907 238.029 302.48C238.648 302.053 239.474 301.84 240.509 301.84C241.213 301.84 241.826 301.952 242.349 302.176C242.872 302.389 243.277 302.715 243.565 303.152C243.864 303.589 244.013 304.139 244.013 304.8V308.048C244.013 308.453 244.205 308.656 244.589 308.656C244.77 308.656 244.941 308.629 245.101 308.576L244.973 309.936C244.696 310.075 244.349 310.144 243.933 310.144C243.56 310.144 243.224 310.08 242.925 309.952C242.626 309.824 242.392 309.632 242.221 309.376C242.05 309.109 241.965 308.779 241.965 308.384V308.32L242.349 308.256C242.285 308.661 242.109 309.008 241.821 309.296C241.533 309.573 241.181 309.787 240.765 309.936C240.36 310.085 239.938 310.16 239.501 310.16C238.957 310.16 238.488 310.08 238.093 309.92C237.698 309.749 237.394 309.504 237.181 309.184C236.968 308.864 236.861 308.469 236.861 308C236.861 307.403 237.053 306.917 237.437 306.544C237.821 306.16 238.37 305.899 239.085 305.76L242.093 305.152L242.077 306.512L240.157 306.896C239.794 306.971 239.517 307.072 239.325 307.2C239.144 307.317 239.053 307.515 239.053 307.792C239.053 308.059 239.149 308.261 239.341 308.4C239.544 308.539 239.784 308.608 240.061 308.608C240.285 308.608 240.504 308.581 240.717 308.528C240.93 308.475 241.122 308.389 241.293 308.272C241.464 308.155 241.597 307.995 241.693 307.792C241.789 307.589 241.837 307.344 241.837 307.056V304.896ZM248.984 299.552V307.392C248.984 307.776 249.08 308.059 249.272 308.24C249.475 308.411 249.747 308.496 250.088 308.496C250.355 308.496 250.589 308.459 250.792 308.384C250.995 308.299 251.176 308.187 251.336 308.048L251.688 309.504C251.432 309.707 251.112 309.867 250.728 309.984C250.344 310.101 249.939 310.16 249.512 310.16C248.979 310.16 248.504 310.08 248.088 309.92C247.683 309.76 247.363 309.504 247.128 309.152C246.904 308.8 246.792 308.331 246.792 307.744V300.16L248.984 299.552ZM251.544 302V303.632H245.32V302H251.544ZM254.131 300.848C253.672 300.848 253.331 300.752 253.107 300.56C252.883 300.357 252.771 300.064 252.771 299.68C252.771 299.285 252.883 298.992 253.107 298.8C253.331 298.597 253.672 298.496 254.131 298.496C254.59 298.496 254.931 298.597 255.155 298.8C255.379 298.992 255.491 299.285 255.491 299.68C255.491 300.064 255.379 300.357 255.155 300.56C254.931 300.752 254.59 300.848 254.131 300.848ZM255.219 302V310H253.027V302H255.219ZM261.175 301.84C261.889 301.84 262.492 301.947 262.983 302.16C263.484 302.363 263.884 302.645 264.183 303.008C264.492 303.36 264.711 303.755 264.839 304.192L262.791 304.928C262.684 304.448 262.503 304.085 262.247 303.84C261.991 303.595 261.644 303.472 261.207 303.472C260.801 303.472 260.455 303.568 260.167 303.76C259.879 303.941 259.66 304.224 259.511 304.608C259.361 304.981 259.287 305.451 259.287 306.016C259.287 306.581 259.361 307.051 259.511 307.424C259.671 307.797 259.895 308.075 260.183 308.256C260.481 308.437 260.828 308.528 261.223 308.528C261.543 308.528 261.815 308.475 262.039 308.368C262.263 308.251 262.444 308.085 262.583 307.872C262.732 307.659 262.833 307.403 262.887 307.104L264.871 307.744C264.753 308.224 264.535 308.645 264.215 309.008C263.895 309.371 263.484 309.653 262.983 309.856C262.481 310.059 261.9 310.16 261.239 310.16C260.417 310.16 259.692 309.995 259.063 309.664C258.433 309.333 257.948 308.859 257.607 308.24C257.265 307.621 257.095 306.875 257.095 306C257.095 305.125 257.265 304.379 257.607 303.76C257.948 303.141 258.428 302.667 259.047 302.336C259.665 302.005 260.375 301.84 261.175 301.84ZM275.769 299.44C277.422 299.44 278.702 299.899 279.609 300.816C280.515 301.723 280.969 303.024 280.969 304.72C280.969 306.405 280.515 307.707 279.609 308.624C278.702 309.541 277.422 310 275.769 310H271.689V299.44H275.769ZM275.657 308.24C276.659 308.24 277.411 307.941 277.913 307.344C278.425 306.736 278.681 305.861 278.681 304.72C278.681 303.579 278.425 302.709 277.913 302.112C277.411 301.504 276.659 301.2 275.657 301.2H273.897V308.24H275.657ZM286.677 310.16C285.834 310.16 285.098 309.995 284.469 309.664C283.85 309.333 283.37 308.859 283.029 308.24C282.687 307.621 282.517 306.875 282.517 306C282.517 305.125 282.687 304.379 283.029 303.76C283.37 303.141 283.845 302.667 284.453 302.336C285.071 302.005 285.775 301.84 286.565 301.84C287.375 301.84 288.063 302.005 288.629 302.336C289.194 302.656 289.626 303.099 289.925 303.664C290.223 304.219 290.373 304.853 290.373 305.568C290.373 305.781 290.367 305.984 290.357 306.176C290.346 306.368 290.33 306.539 290.309 306.688H283.924V305.168H289.349L288.293 305.552C288.293 304.88 288.138 304.363 287.829 304C287.53 303.637 287.103 303.456 286.549 303.456C286.143 303.456 285.791 303.552 285.493 303.744C285.205 303.936 284.986 304.224 284.837 304.608C284.687 304.981 284.613 305.456 284.613 306.032C284.613 306.597 284.693 307.067 284.853 307.44C285.023 307.803 285.258 308.075 285.557 308.256C285.866 308.437 286.234 308.528 286.661 308.528C287.13 308.528 287.509 308.437 287.797 308.256C288.085 308.075 288.309 307.824 288.469 307.504L290.213 308.176C290.042 308.592 289.781 308.949 289.429 309.248C289.087 309.547 288.677 309.776 288.197 309.936C287.727 310.085 287.221 310.16 286.677 310.16ZM292.23 313.36V302H294.198L294.342 304.544L294.07 304.256C294.166 303.787 294.342 303.371 294.598 303.008C294.865 302.645 295.201 302.363 295.606 302.16C296.011 301.947 296.465 301.84 296.966 301.84C297.617 301.84 298.198 302.005 298.71 302.336C299.222 302.667 299.622 303.141 299.91 303.76C300.209 304.368 300.358 305.109 300.358 305.984C300.358 306.859 300.209 307.611 299.91 308.24C299.611 308.859 299.201 309.333 298.678 309.664C298.166 309.995 297.579 310.16 296.918 310.16C296.214 310.16 295.627 309.963 295.158 309.568C294.699 309.173 294.385 308.677 294.214 308.08L294.422 307.744V313.36H292.23ZM296.278 308.48C296.865 308.48 297.323 308.272 297.654 307.856C297.995 307.429 298.166 306.811 298.166 306C298.166 305.189 298.001 304.576 297.67 304.16C297.35 303.733 296.897 303.52 296.31 303.52C295.937 303.52 295.606 303.621 295.318 303.824C295.041 304.016 294.822 304.299 294.662 304.672C294.502 305.035 294.422 305.477 294.422 306C294.422 306.512 294.497 306.955 294.646 307.328C294.795 307.701 295.009 307.989 295.286 308.192C295.574 308.384 295.905 308.48 296.278 308.48ZM304.421 298.496V307.536C304.421 307.909 304.485 308.171 304.613 308.32C304.741 308.469 304.955 308.544 305.253 308.544C305.435 308.544 305.584 308.533 305.701 308.512C305.819 308.48 305.968 308.437 306.149 308.384L305.957 309.824C305.776 309.931 305.547 310.011 305.269 310.064C305.003 310.128 304.736 310.16 304.469 310.16C303.691 310.16 303.12 309.973 302.757 309.6C302.405 309.216 302.229 308.608 302.229 307.776V298.496H304.421ZM311.019 301.84C311.829 301.84 312.539 302.005 313.147 302.336C313.765 302.667 314.245 303.141 314.587 303.76C314.939 304.379 315.115 305.125 315.115 306C315.115 306.864 314.939 307.611 314.587 308.24C314.245 308.859 313.765 309.333 313.147 309.664C312.539 309.995 311.829 310.16 311.019 310.16C310.219 310.16 309.509 309.995 308.891 309.664C308.272 309.333 307.787 308.859 307.435 308.24C307.093 307.611 306.923 306.864 306.923 306C306.923 305.125 307.093 304.379 307.435 303.76C307.787 303.141 308.272 302.667 308.891 302.336C309.509 302.005 310.219 301.84 311.019 301.84ZM311.019 303.472C310.613 303.472 310.267 303.568 309.979 303.76C309.701 303.941 309.488 304.219 309.339 304.592C309.189 304.965 309.115 305.435 309.115 306C309.115 306.565 309.189 307.035 309.339 307.408C309.488 307.781 309.701 308.064 309.979 308.256C310.267 308.437 310.613 308.528 311.019 308.528C311.413 308.528 311.749 308.437 312.027 308.256C312.315 308.064 312.533 307.781 312.683 307.408C312.832 307.035 312.907 306.565 312.907 306C312.907 305.435 312.832 304.965 312.683 304.592C312.533 304.219 312.315 303.941 312.027 303.76C311.749 303.568 311.413 303.472 311.019 303.472ZM324.11 302L320.878 310.496C320.622 311.221 320.334 311.797 320.014 312.224C319.704 312.651 319.342 312.96 318.926 313.152C318.52 313.344 318.035 313.44 317.47 313.44C317.054 313.44 316.67 313.387 316.318 313.28C315.976 313.184 315.678 313.056 315.421 312.896L315.886 311.312C316.088 311.472 316.302 311.584 316.526 311.648C316.75 311.723 317.006 311.76 317.294 311.76C317.592 311.76 317.848 311.696 318.062 311.568C318.286 311.44 318.472 311.184 318.622 310.8L318.894 310.112L318.014 308.032L315.566 302H317.998L319.518 306.8L319.934 308.4L320.43 306.704L321.886 302H324.11ZM325.324 310V302H327.292L327.372 303.44C327.639 302.907 328.001 302.507 328.46 302.24C328.929 301.973 329.447 301.84 330.012 301.84C330.588 301.84 331.105 301.973 331.564 302.24C332.033 302.507 332.385 302.901 332.62 303.424C332.791 303.072 333.02 302.779 333.308 302.544C333.596 302.309 333.916 302.133 334.268 302.016C334.62 301.899 334.977 301.84 335.34 301.84C335.863 301.84 336.337 301.947 336.764 302.16C337.201 302.373 337.548 302.693 337.804 303.12C338.06 303.547 338.188 304.091 338.188 304.752V310H335.996V305.184C335.996 304.597 335.868 304.181 335.612 303.936C335.356 303.691 335.025 303.568 334.62 303.568C334.3 303.568 334.001 303.648 333.724 303.808C333.457 303.968 333.244 304.208 333.084 304.528C332.935 304.837 332.86 305.227 332.86 305.696V310H330.668V305.184C330.668 304.597 330.535 304.181 330.268 303.936C330.012 303.691 329.681 303.568 329.276 303.568C328.999 303.568 328.721 303.643 328.444 303.792C328.177 303.941 327.953 304.176 327.772 304.496C327.601 304.816 327.516 305.237 327.516 305.76V310H325.324ZM344.161 310.16C343.318 310.16 342.582 309.995 341.953 309.664C341.334 309.333 340.854 308.859 340.513 308.24C340.172 307.621 340.001 306.875 340.001 306C340.001 305.125 340.172 304.379 340.513 303.76C340.854 303.141 341.329 302.667 341.937 302.336C342.556 302.005 343.26 301.84 344.049 301.84C344.86 301.84 345.548 302.005 346.113 302.336C346.678 302.656 347.11 303.099 347.409 303.664C347.708 304.219 347.857 304.853 347.857 305.568C347.857 305.781 347.852 305.984 347.841 306.176C347.83 306.368 347.814 306.539 347.793 306.688H341.409V305.168H346.833L345.777 305.552C345.777 304.88 345.622 304.363 345.313 304C345.014 303.637 344.588 303.456 344.033 303.456C343.628 303.456 343.276 303.552 342.977 303.744C342.689 303.936 342.47 304.224 342.321 304.608C342.172 304.981 342.097 305.456 342.097 306.032C342.097 306.597 342.177 307.067 342.337 307.44C342.508 307.803 342.742 308.075 343.041 308.256C343.35 308.437 343.718 308.528 344.145 308.528C344.614 308.528 344.993 308.437 345.281 308.256C345.569 308.075 345.793 307.824 345.953 307.504L347.697 308.176C347.526 308.592 347.265 308.949 346.913 309.248C346.572 309.547 346.161 309.776 345.681 309.936C345.212 310.085 344.705 310.16 344.161 310.16ZM349.715 310V302H351.683L351.811 304.4L351.539 304.144C351.667 303.621 351.869 303.189 352.147 302.848C352.424 302.507 352.76 302.256 353.155 302.096C353.56 301.925 354.003 301.84 354.483 301.84C355.037 301.84 355.528 301.947 355.955 302.16C356.392 302.373 356.733 302.699 356.979 303.136C357.235 303.563 357.363 304.101 357.363 304.752V310H355.171V305.376C355.171 304.693 355.037 304.224 354.771 303.968C354.504 303.701 354.157 303.568 353.731 303.568C353.432 303.568 353.139 303.643 352.851 303.792C352.573 303.931 352.344 304.16 352.163 304.48C351.992 304.8 351.907 305.227 351.907 305.76V310H349.715ZM362.39 299.552V307.392C362.39 307.776 362.486 308.059 362.678 308.24C362.881 308.411 363.153 308.496 363.494 308.496C363.761 308.496 363.996 308.459 364.198 308.384C364.401 308.299 364.582 308.187 364.742 308.048L365.094 309.504C364.838 309.707 364.518 309.867 364.134 309.984C363.75 310.101 363.345 310.16 362.918 310.16C362.385 310.16 361.91 310.08 361.494 309.92C361.089 309.76 360.769 309.504 360.534 309.152C360.31 308.8 360.198 308.331 360.198 307.744V300.16L362.39 299.552ZM364.95 302V303.632H358.726V302H364.95Z" fill="#4338CA"/>
<path d="M291.661 238L290.129 241.403C289.828 241.367 289.525 241.347 289.222 241.345C288.234 241.339 287.275 241.513 286.377 241.835L284.206 238.81L280.096 241.798L282.342 244.925C281.649 245.918 281.187 247.053 280.988 248.246L277 248.681L277.499 253.722L281.744 253.257C282.219 254.206 282.872 255.057 283.667 255.763L281.855 259.793L286.465 261.845L288.285 257.798C289.373 257.913 290.44 257.81 291.436 257.519L294.062 261.099L297.023 258.945L298.112 260.817C296.739 261.862 295.511 263.083 294.462 264.449L289.866 261.816L287.465 266.157L291.958 268.752C291.287 270.351 290.837 272.033 290.619 273.752H285.394V278.743H290.643C290.796 279.848 291.047 280.938 291.392 282H307.2C304.967 281 303.413 278.768 303.413 276.173C303.413 272.646 306.284 269.786 309.829 269.786C313.373 269.786 316.247 272.646 316.247 276.173C316.247 278.768 314.691 281.001 312.457 282H321V254.543L319.909 253.948L317.333 258.41C315.735 257.73 314.052 257.27 312.329 257.043V251.884H307.314V257.037C305.605 257.258 303.968 257.705 302.43 258.341L299.897 253.948L296.536 255.829L295.673 254.624C296.348 253.749 296.841 252.746 297.12 251.677L301.268 251.228L300.77 246.187L296.825 246.574C296.367 245.403 295.646 244.351 294.719 243.499L296.271 240.053L291.661 238ZM289.108 245.827C291.283 245.805 293.117 247.484 293.251 249.668C293.389 251.924 291.663 253.863 289.397 254C287.13 254.138 285.182 252.423 285.044 250.168C284.906 247.913 286.629 245.974 288.895 245.836C288.966 245.832 289.038 245.828 289.108 245.827Z" fill="#4F46E5"/>
<g clip-path="url(#clip1_144_1462)">
<path d="M753.311 154.022C751.161 151.752 748.294 150.2 745.308 149.602C743.994 149.244 742.68 149.005 741.366 148.886C744.711 144.944 744.114 138.972 740.172 135.627C736.23 132.283 730.258 132.88 726.914 136.822C723.569 140.764 724.166 146.736 728.108 150.08C728.825 150.677 729.541 151.155 730.258 151.394V154.022L728.347 152.23C726.675 150.558 723.927 150.558 722.136 152.23C720.464 153.902 720.344 156.53 722.016 158.202L727.511 164.652C727.75 166.325 728.347 167.877 729.183 169.311C729.78 170.386 730.616 171.461 731.452 172.297V174.566C731.452 175.283 731.93 175.761 732.647 175.761H748.891C749.489 175.761 750.086 175.164 750.086 174.566V171.461C752.355 168.714 753.55 165.25 753.55 161.786V154.858C753.669 154.38 753.55 154.141 753.311 154.022ZM727.033 142.794C727.033 138.852 730.258 135.747 734.2 135.866C738.141 135.866 741.247 139.091 741.127 143.033C741.127 145.183 740.172 147.094 738.5 148.408V142.436C738.439 141.401 737.984 140.428 737.229 139.717C736.474 139.007 735.476 138.612 734.439 138.614C732.289 138.494 730.377 140.286 730.377 142.436V148.647C728.347 147.452 727.152 145.183 727.033 142.794ZM751.28 161.666C751.4 164.772 750.325 167.758 748.294 170.147C748.055 170.386 747.816 170.625 747.816 170.983V173.491H733.961V171.819C733.961 171.461 733.722 171.102 733.483 170.864C732.647 170.147 731.93 169.311 731.333 168.236C730.616 167.041 730.139 165.608 729.9 164.175C729.9 163.936 729.78 163.697 729.661 163.458L723.927 156.65C723.569 156.291 723.33 155.814 723.33 155.216C723.33 154.739 723.569 154.141 723.927 153.783C724.764 153.066 725.958 153.066 726.794 153.783L730.258 157.247V160.83L732.527 159.636V142.436C732.647 141.6 733.364 140.883 734.319 141.002C735.155 141.002 735.991 141.6 735.991 142.436V156.172L738.38 156.65V151.155C738.5 151.036 738.619 151.036 738.739 150.916C739.575 150.916 740.411 151.036 741.247 151.155V157.247L743.158 157.605V151.394L744.591 151.752C745.189 151.872 745.786 152.111 746.383 152.35V158.322L748.294 158.68V153.186C749.369 153.664 750.325 154.38 751.161 155.216L751.28 161.666Z" fill="#57534E"/>
</g>
<defs>
<clipPath id="clip0_144_1462">
<rect width="60" height="60" fill="white" transform="translate(19 29)"/>
</clipPath>
<clipPath id="clip1_144_1462">
<rect width="43" height="43" fill="white" transform="translate(717 133)"/>
</clipPath>
</defs>
</svg>
