<svg width="530" height="372" viewBox="0 0 530 372" fill="none" xmlns="http://www.w3.org/2000/svg">
<rect width="530" height="372" fill="white"/>
<rect x="7.75" y="6.75" width="211.5" height="357.5" rx="7.25" stroke="#EB7F0B" stroke-width="1.5"/>
<g clip-path="url(#clip0_111_1209)">
<path d="M78.617 155.219H151.383C151.812 155.219 152.223 155.033 152.526 154.7C152.83 154.367 153 153.916 153 153.445V103.555C153 103.084 152.83 102.633 152.526 102.3C152.223 101.968 151.812 101.781 151.383 101.781H78.617C78.1882 101.781 77.7769 101.968 77.4736 102.3C77.1704 102.633 77 103.084 77 103.555V153.445C77 153.916 77.1704 154.367 77.4736 154.7C77.7769 155.033 78.1882 155.219 78.617 155.219ZM149.766 151.671H80.234V105.329H149.766V151.671Z" fill="#D86613"/>
<path d="M142.182 110.208H145.416V146.81H142.182V110.208Z" fill="#D86613"/>
<path d="M133.095 110.208H136.329V146.81H133.095V110.208Z" fill="#D86613"/>
<path d="M93.6717 110.208H96.9058V146.81H93.6717V110.208Z" fill="#D86613"/>
<path d="M84.5838 110.208H87.8179V146.81H84.5838V110.208Z" fill="#D86613"/>
<path d="M105.508 141.913H124.492C125.217 141.913 125.912 141.597 126.424 141.035C126.937 140.472 127.225 139.71 127.225 138.914V118.085C127.225 117.29 126.937 116.527 126.424 115.965C125.912 115.403 125.217 115.087 124.492 115.087H105.508C104.783 115.087 104.088 115.403 103.576 115.965C103.063 116.527 102.775 117.29 102.775 118.085V138.914C102.775 139.71 103.063 140.472 103.576 141.035C104.088 141.597 104.783 141.913 105.508 141.913ZM123.991 138.364H106.009V118.635H123.991V138.364Z" fill="#D86613"/>
<path d="M122.471 111.876H125.705V116.861H122.471V111.876Z" fill="#D86613"/>
<path d="M116.407 111.876H119.641V116.861H116.407V111.876Z" fill="#D86613"/>
<path d="M110.343 111.876H113.577V116.861H110.343V111.876Z" fill="#D86613"/>
<path d="M104.279 111.876H107.513V116.861H104.279V111.876Z" fill="#D86613"/>
<path d="M122.471 140.139H125.705V145.124H122.471V140.139Z" fill="#D86613"/>
<path d="M116.407 140.139H119.641V145.124H116.407V140.139Z" fill="#D86613"/>
<path d="M110.343 140.139H113.577V145.124H110.343V140.139Z" fill="#D86613"/>
<path d="M104.279 140.139H107.513V145.124H104.279V140.139Z" fill="#D86613"/>
<path d="M125.608 116.755H130.151V120.303H125.608V116.755Z" fill="#D86613"/>
<path d="M125.608 123.408H130.151V126.957H125.608V123.408Z" fill="#D86613"/>
<path d="M125.608 130.062H130.151V133.61H125.608V130.062Z" fill="#D86613"/>
<path d="M125.608 136.714H130.151V140.263H125.608V136.714Z" fill="#D86613"/>
<path d="M99.8483 116.755H104.392V120.303H99.8483V116.755Z" fill="#D86613"/>
<path d="M99.8483 123.408H104.392V126.957H99.8483V123.408Z" fill="#D86613"/>
<path d="M99.8483 130.062H104.392V133.61H99.8483V130.062Z" fill="#D86613"/>
<path d="M99.8483 136.714H104.392V140.263H99.8483V136.714Z" fill="#D86613"/>
</g>
<g clip-path="url(#clip1_111_1209)">
<path d="M78.617 242.219H151.383C151.812 242.219 152.223 242.033 152.526 241.7C152.83 241.367 153 240.916 153 240.445V190.555C153 190.084 152.83 189.633 152.526 189.3C152.223 188.968 151.812 188.781 151.383 188.781H78.617C78.1882 188.781 77.7769 188.968 77.4736 189.3C77.1704 189.633 77 190.084 77 190.555V240.445C77 240.916 77.1704 241.367 77.4736 241.7C77.7769 242.033 78.1882 242.219 78.617 242.219ZM149.766 238.671H80.234V192.329H149.766V238.671Z" fill="#D86613"/>
<path d="M142.182 197.208H145.416V233.81H142.182V197.208Z" fill="#D86613"/>
<path d="M133.095 197.208H136.329V233.81H133.095V197.208Z" fill="#D86613"/>
<path d="M93.6717 197.208H96.9058V233.81H93.6717V197.208Z" fill="#D86613"/>
<path d="M84.5838 197.208H87.8179V233.81H84.5838V197.208Z" fill="#D86613"/>
<path d="M105.508 228.913H124.492C125.217 228.913 125.912 228.597 126.424 228.035C126.937 227.472 127.225 226.71 127.225 225.914V205.085C127.225 204.29 126.937 203.527 126.424 202.965C125.912 202.403 125.217 202.087 124.492 202.087H105.508C104.783 202.087 104.088 202.403 103.576 202.965C103.063 203.527 102.775 204.29 102.775 205.085V225.914C102.775 226.71 103.063 227.472 103.576 228.035C104.088 228.597 104.783 228.913 105.508 228.913ZM123.991 225.364H106.009V205.635H123.991V225.364Z" fill="#D86613"/>
<path d="M122.471 198.876H125.705V203.861H122.471V198.876Z" fill="#D86613"/>
<path d="M116.407 198.876H119.641V203.861H116.407V198.876Z" fill="#D86613"/>
<path d="M110.343 198.876H113.577V203.861H110.343V198.876Z" fill="#D86613"/>
<path d="M104.279 198.876H107.513V203.861H104.279V198.876Z" fill="#D86613"/>
<path d="M122.471 227.139H125.705V232.124H122.471V227.139Z" fill="#D86613"/>
<path d="M116.407 227.139H119.641V232.124H116.407V227.139Z" fill="#D86613"/>
<path d="M110.343 227.139H113.577V232.124H110.343V227.139Z" fill="#D86613"/>
<path d="M104.279 227.139H107.513V232.124H104.279V227.139Z" fill="#D86613"/>
<path d="M125.608 203.755H130.151V207.303H125.608V203.755Z" fill="#D86613"/>
<path d="M125.608 210.408H130.151V213.957H125.608V210.408Z" fill="#D86613"/>
<path d="M125.608 217.062H130.151V220.61H125.608V217.062Z" fill="#D86613"/>
<path d="M125.608 223.714H130.151V227.263H125.608V223.714Z" fill="#D86613"/>
<path d="M99.8483 203.755H104.392V207.303H99.8483V203.755Z" fill="#D86613"/>
<path d="M99.8483 210.408H104.392V213.957H99.8483V210.408Z" fill="#D86613"/>
<path d="M99.8483 217.062H104.392V220.61H99.8483V217.062Z" fill="#D86613"/>
<path d="M99.8483 223.714H104.392V227.263H99.8483V223.714Z" fill="#D86613"/>
</g>
<g clip-path="url(#clip2_111_1209)">
<path d="M78.617 329.219H151.383C151.812 329.219 152.223 329.033 152.526 328.7C152.83 328.367 153 327.916 153 327.445V277.555C153 277.084 152.83 276.633 152.526 276.3C152.223 275.968 151.812 275.781 151.383 275.781H78.617C78.1882 275.781 77.7769 275.968 77.4736 276.3C77.1704 276.633 77 277.084 77 277.555V327.445C77 327.916 77.1704 328.367 77.4736 328.7C77.7769 329.033 78.1882 329.219 78.617 329.219ZM149.766 325.671H80.234V279.329H149.766V325.671Z" fill="#D86613"/>
<path d="M142.182 284.208H145.416V320.81H142.182V284.208Z" fill="#D86613"/>
<path d="M133.095 284.208H136.329V320.81H133.095V284.208Z" fill="#D86613"/>
<path d="M93.6717 284.208H96.9058V320.81H93.6717V284.208Z" fill="#D86613"/>
<path d="M84.5838 284.208H87.8179V320.81H84.5838V284.208Z" fill="#D86613"/>
<path d="M105.508 315.913H124.492C125.217 315.913 125.912 315.597 126.424 315.035C126.937 314.472 127.225 313.71 127.225 312.914V292.085C127.225 291.29 126.937 290.527 126.424 289.965C125.912 289.403 125.217 289.087 124.492 289.087H105.508C104.783 289.087 104.088 289.403 103.576 289.965C103.063 290.527 102.775 291.29 102.775 292.085V312.914C102.775 313.71 103.063 314.472 103.576 315.035C104.088 315.597 104.783 315.913 105.508 315.913ZM123.991 312.364H106.009V292.635H123.991V312.364Z" fill="#D86613"/>
<path d="M122.471 285.876H125.705V290.861H122.471V285.876Z" fill="#D86613"/>
<path d="M116.407 285.876H119.641V290.861H116.407V285.876Z" fill="#D86613"/>
<path d="M110.343 285.876H113.577V290.861H110.343V285.876Z" fill="#D86613"/>
<path d="M104.279 285.876H107.513V290.861H104.279V285.876Z" fill="#D86613"/>
<path d="M122.471 314.139H125.705V319.124H122.471V314.139Z" fill="#D86613"/>
<path d="M116.407 314.139H119.641V319.124H116.407V314.139Z" fill="#D86613"/>
<path d="M110.343 314.139H113.577V319.124H110.343V314.139Z" fill="#D86613"/>
<path d="M104.279 314.139H107.513V319.124H104.279V314.139Z" fill="#D86613"/>
<path d="M125.608 290.755H130.151V294.303H125.608V290.755Z" fill="#D86613"/>
<path d="M125.608 297.408H130.151V300.957H125.608V297.408Z" fill="#D86613"/>
<path d="M125.608 304.062H130.151V307.61H125.608V304.062Z" fill="#D86613"/>
<path d="M125.608 310.714H130.151V314.263H125.608V310.714Z" fill="#D86613"/>
<path d="M99.8483 290.755H104.392V294.303H99.8483V290.755Z" fill="#D86613"/>
<path d="M99.8483 297.408H104.392V300.957H99.8483V297.408Z" fill="#D86613"/>
<path d="M99.8483 304.062H104.392V307.61H99.8483V304.062Z" fill="#D86613"/>
<path d="M99.8483 310.714H104.392V314.263H99.8483V310.714Z" fill="#D86613"/>
</g>
<path d="M100.16 20.8V23.02H95.74V34H92.98V23.02H88.54V20.8H100.16ZM105.98 27.62C105.98 27.0467 105.813 26.6 105.48 26.28C105.16 25.96 104.733 25.8 104.2 25.8C103.707 25.8 103.273 25.9267 102.9 26.18C102.527 26.4333 102.253 26.8533 102.08 27.44L99.7398 26.72C99.9665 25.84 100.46 25.1333 101.22 24.6C101.993 24.0667 103.027 23.8 104.32 23.8C105.2 23.8 105.967 23.94 106.62 24.22C107.273 24.4867 107.78 24.8933 108.14 25.44C108.513 25.9867 108.7 26.6733 108.7 27.5V31.56C108.7 32.0667 108.94 32.32 109.42 32.32C109.647 32.32 109.86 32.2867 110.06 32.22L109.9 33.92C109.553 34.0933 109.12 34.18 108.6 34.18C108.133 34.18 107.713 34.1 107.34 33.94C106.967 33.78 106.673 33.54 106.46 33.22C106.247 32.8867 106.14 32.4733 106.14 31.98V31.9L106.62 31.82C106.54 32.3267 106.32 32.76 105.96 33.12C105.6 33.4667 105.16 33.7333 104.64 33.92C104.133 34.1067 103.607 34.2 103.06 34.2C102.38 34.2 101.793 34.1 101.3 33.9C100.807 33.6867 100.427 33.38 100.16 32.98C99.8932 32.58 99.7598 32.0867 99.7598 31.5C99.7598 30.7533 99.9998 30.1467 100.48 29.68C100.96 29.2 101.647 28.8733 102.54 28.7L106.3 27.94L106.28 29.64L103.88 30.12C103.427 30.2133 103.08 30.34 102.84 30.5C102.613 30.6467 102.5 30.8933 102.5 31.24C102.5 31.5733 102.62 31.8267 102.86 32C103.113 32.1733 103.413 32.26 103.76 32.26C104.04 32.26 104.313 32.2267 104.58 32.16C104.847 32.0933 105.087 31.9867 105.3 31.84C105.513 31.6933 105.68 31.4933 105.8 31.24C105.92 30.9867 105.98 30.68 105.98 30.32V27.62ZM115.764 34.2C114.751 34.2 113.824 34.02 112.984 33.66C112.158 33.3 111.484 32.7933 110.964 32.14L112.544 30.54C112.864 31.02 113.291 31.4133 113.824 31.72C114.358 32.0267 114.991 32.18 115.724 32.18C116.244 32.18 116.658 32.1067 116.964 31.96C117.284 31.8 117.444 31.5533 117.444 31.22C117.444 31.0067 117.371 30.8267 117.224 30.68C117.078 30.52 116.784 30.3933 116.344 30.3L114.584 29.94C113.424 29.7 112.598 29.34 112.104 28.86C111.624 28.3667 111.384 27.7333 111.384 26.96C111.384 26.4133 111.544 25.9 111.864 25.42C112.198 24.94 112.691 24.5533 113.344 24.26C113.998 23.9533 114.811 23.8 115.784 23.8C116.784 23.8 117.651 23.96 118.384 24.28C119.131 24.5867 119.718 25.0467 120.144 25.66L118.504 27.26C118.211 26.7933 117.824 26.44 117.344 26.2C116.878 25.9467 116.384 25.82 115.864 25.82C115.491 25.82 115.171 25.86 114.904 25.94C114.638 26.02 114.438 26.1333 114.304 26.28C114.171 26.4133 114.104 26.5867 114.104 26.8C114.104 27.0133 114.198 27.2 114.384 27.36C114.571 27.5067 114.911 27.6333 115.404 27.74L117.444 28.16C118.431 28.36 119.138 28.7 119.564 29.18C119.991 29.6467 120.204 30.2133 120.204 30.88C120.204 31.52 120.031 32.0933 119.684 32.6C119.351 33.0933 118.851 33.4867 118.184 33.78C117.531 34.06 116.724 34.2 115.764 34.2ZM132.569 24L127.949 28.82L127.409 29.08L124.409 32.3L124.369 29.38L129.449 24H132.569ZM125.129 19.62V34H122.389V19.62H125.129ZM128.329 27.18L132.809 34H129.709L126.449 28.78L128.329 27.18ZM101.02 53.36C100.767 54.2133 100.367 54.9267 99.82 55.5C99.2733 56.0733 98.6267 56.5 97.88 56.78C97.1333 57.06 96.3133 57.2 95.42 57.2C94.1133 57.2 92.98 56.9267 92.02 56.38C91.0733 55.8333 90.34 55.0533 89.82 54.04C89.3133 53.0267 89.06 51.8133 89.06 50.4C89.06 48.9867 89.3133 47.7733 89.82 46.76C90.34 45.7467 91.0733 44.9667 92.02 44.42C92.98 43.8733 94.1 43.6 95.38 43.6C96.2867 43.6 97.1067 43.7267 97.84 43.98C98.5733 44.22 99.1933 44.5933 99.7 45.1C100.22 45.6067 100.6 46.2467 100.84 47.02L98.34 48.08C98.1133 47.28 97.7667 46.7133 97.3 46.38C96.8333 46.0333 96.2333 45.86 95.5 45.86C94.78 45.86 94.1467 46.0333 93.6 46.38C93.0667 46.7267 92.6533 47.24 92.36 47.92C92.0667 48.5867 91.92 49.4133 91.92 50.4C91.92 51.3733 92.0533 52.2 92.32 52.88C92.6 53.56 93.0067 54.0733 93.54 54.42C94.0733 54.7667 94.7267 54.94 95.5 54.94C96.22 54.94 96.84 54.7467 97.36 54.36C97.8933 53.9733 98.2667 53.3867 98.48 52.6L101.02 53.36ZM107.652 46.8C108.666 46.8 109.552 47.0067 110.312 47.42C111.086 47.8333 111.686 48.4267 112.112 49.2C112.552 49.9733 112.772 50.9067 112.772 52C112.772 53.08 112.552 54.0133 112.112 54.8C111.686 55.5733 111.086 56.1667 110.312 56.58C109.552 56.9933 108.666 57.2 107.652 57.2C106.652 57.2 105.766 56.9933 104.992 56.58C104.219 56.1667 103.612 55.5733 103.172 54.8C102.746 54.0133 102.532 53.08 102.532 52C102.532 50.9067 102.746 49.9733 103.172 49.2C103.612 48.4267 104.219 47.8333 104.992 47.42C105.766 47.0067 106.652 46.8 107.652 46.8ZM107.652 48.84C107.146 48.84 106.712 48.96 106.352 49.2C106.006 49.4267 105.739 49.7733 105.552 50.24C105.366 50.7067 105.272 51.2933 105.272 52C105.272 52.7067 105.366 53.2933 105.552 53.76C105.739 54.2267 106.006 54.58 106.352 54.82C106.712 55.0467 107.146 55.16 107.652 55.16C108.146 55.16 108.566 55.0467 108.912 54.82C109.272 54.58 109.546 54.2267 109.732 53.76C109.919 53.2933 110.012 52.7067 110.012 52C110.012 51.2933 109.919 50.7067 109.732 50.24C109.546 49.7733 109.272 49.4267 108.912 49.2C108.566 48.96 108.146 48.84 107.652 48.84ZM115.065 57V47H117.525L117.685 50L117.345 49.68C117.505 49.0267 117.758 48.4867 118.105 48.06C118.452 47.6333 118.872 47.32 119.365 47.12C119.872 46.9067 120.425 46.8 121.025 46.8C121.718 46.8 122.332 46.9333 122.865 47.2C123.412 47.4667 123.838 47.8733 124.145 48.42C124.465 48.9533 124.625 49.6267 124.625 50.44V57H121.885V51.22C121.885 50.3667 121.718 49.78 121.385 49.46C121.052 49.1267 120.618 48.96 120.085 48.96C119.712 48.96 119.345 49.0533 118.985 49.24C118.638 49.4133 118.352 49.7 118.125 50.1C117.912 50.5 117.805 51.0333 117.805 51.7V57H115.065ZM130.91 43.94V53.74C130.91 54.22 131.03 54.5733 131.27 54.8C131.523 55.0133 131.863 55.12 132.29 55.12C132.623 55.12 132.916 55.0733 133.17 54.98C133.423 54.8733 133.65 54.7333 133.85 54.56L134.29 56.38C133.97 56.6333 133.57 56.8333 133.09 56.98C132.61 57.1267 132.103 57.2 131.57 57.2C130.903 57.2 130.31 57.1 129.79 56.9C129.283 56.7 128.883 56.38 128.59 55.94C128.31 55.5 128.17 54.9133 128.17 54.18V44.7L130.91 43.94ZM134.11 47V49.04H126.33V47H134.11ZM141.761 50.62C141.761 50.0467 141.594 49.6 141.261 49.28C140.941 48.96 140.514 48.8 139.981 48.8C139.488 48.8 139.054 48.9267 138.681 49.18C138.308 49.4333 138.034 49.8533 137.861 50.44L135.521 49.72C135.748 48.84 136.241 48.1333 137.001 47.6C137.774 47.0667 138.808 46.8 140.101 46.8C140.981 46.8 141.748 46.94 142.401 47.22C143.054 47.4867 143.561 47.8933 143.921 48.44C144.294 48.9867 144.481 49.6733 144.481 50.5V54.56C144.481 55.0667 144.721 55.32 145.201 55.32C145.428 55.32 145.641 55.2867 145.841 55.22L145.681 56.92C145.334 57.0933 144.901 57.18 144.381 57.18C143.914 57.18 143.494 57.1 143.121 56.94C142.748 56.78 142.454 56.54 142.241 56.22C142.028 55.8867 141.921 55.4733 141.921 54.98V54.9L142.401 54.82C142.321 55.3267 142.101 55.76 141.741 56.12C141.381 56.4667 140.941 56.7333 140.421 56.92C139.914 57.1067 139.388 57.2 138.841 57.2C138.161 57.2 137.574 57.1 137.081 56.9C136.588 56.6867 136.208 56.38 135.941 55.98C135.674 55.58 135.541 55.0867 135.541 54.5C135.541 53.7533 135.781 53.1467 136.261 52.68C136.741 52.2 137.428 51.8733 138.321 51.7L142.081 50.94L142.061 52.64L139.661 53.12C139.208 53.2133 138.861 53.34 138.621 53.5C138.394 53.6467 138.281 53.8933 138.281 54.24C138.281 54.5733 138.401 54.8267 138.641 55C138.894 55.1733 139.194 55.26 139.541 55.26C139.821 55.26 140.094 55.2267 140.361 55.16C140.628 55.0933 140.868 54.9867 141.081 54.84C141.294 54.6933 141.461 54.4933 141.581 54.24C141.701 53.9867 141.761 53.68 141.761 53.32V50.62ZM148.925 45.56C148.352 45.56 147.925 45.44 147.645 45.2C147.365 44.9467 147.225 44.58 147.225 44.1C147.225 43.6067 147.365 43.24 147.645 43C147.925 42.7467 148.352 42.62 148.925 42.62C149.499 42.62 149.925 42.7467 150.205 43C150.485 43.24 150.625 43.6067 150.625 44.1C150.625 44.58 150.485 44.9467 150.205 45.2C149.925 45.44 149.499 45.56 148.925 45.56ZM150.285 47V57H147.545V47H150.285ZM153.19 57V47H155.65L155.81 50L155.47 49.68C155.63 49.0267 155.883 48.4867 156.23 48.06C156.577 47.6333 156.997 47.32 157.49 47.12C157.997 46.9067 158.55 46.8 159.15 46.8C159.843 46.8 160.457 46.9333 160.99 47.2C161.537 47.4667 161.963 47.8733 162.27 48.42C162.59 48.9533 162.75 49.6267 162.75 50.44V57H160.01V51.22C160.01 50.3667 159.843 49.78 159.51 49.46C159.177 49.1267 158.743 48.96 158.21 48.96C157.837 48.96 157.47 49.0533 157.11 49.24C156.763 49.4133 156.477 49.7 156.25 50.1C156.037 50.5 155.93 51.0333 155.93 51.7V57H153.19ZM170.213 57.2C169.159 57.2 168.239 56.9933 167.453 56.58C166.679 56.1667 166.079 55.5733 165.653 54.8C165.226 54.0267 165.013 53.0933 165.013 52C165.013 50.9067 165.226 49.9733 165.653 49.2C166.079 48.4267 166.673 47.8333 167.433 47.42C168.206 47.0067 169.086 46.8 170.073 46.8C171.086 46.8 171.946 47.0067 172.653 47.42C173.359 47.82 173.899 48.3733 174.273 49.08C174.646 49.7733 174.833 50.5667 174.833 51.46C174.833 51.7267 174.826 51.98 174.813 52.22C174.799 52.46 174.779 52.6733 174.753 52.86H166.773V50.96H173.553L172.233 51.44C172.233 50.6 172.039 49.9533 171.653 49.5C171.279 49.0467 170.746 48.82 170.053 48.82C169.546 48.82 169.106 48.94 168.733 49.18C168.373 49.42 168.099 49.78 167.913 50.26C167.726 50.7267 167.633 51.32 167.633 52.04C167.633 52.7467 167.733 53.3333 167.933 53.8C168.146 54.2533 168.439 54.5933 168.813 54.82C169.199 55.0467 169.659 55.16 170.193 55.16C170.779 55.16 171.253 55.0467 171.613 54.82C171.973 54.5933 172.253 54.28 172.453 53.88L174.633 54.72C174.419 55.24 174.093 55.6867 173.653 56.06C173.226 56.4333 172.713 56.72 172.113 56.92C171.526 57.1067 170.893 57.2 170.213 57.2ZM177.155 57V47H179.535L179.715 48.96C179.982 48.2667 180.368 47.7333 180.875 47.36C181.395 46.9867 182.042 46.8 182.815 46.8C183.042 46.8 183.248 46.82 183.435 46.86C183.622 46.9 183.775 46.9533 183.895 47.02L183.575 49.32C183.442 49.2667 183.275 49.2267 183.075 49.2C182.888 49.1733 182.642 49.16 182.335 49.16C181.935 49.16 181.548 49.26 181.175 49.46C180.802 49.6467 180.495 49.94 180.255 50.34C180.015 50.7267 179.895 51.22 179.895 51.82V57H177.155ZM189.319 57.2C188.306 57.2 187.379 57.02 186.539 56.66C185.712 56.3 185.039 55.7933 184.519 55.14L186.099 53.54C186.419 54.02 186.846 54.4133 187.379 54.72C187.912 55.0267 188.546 55.18 189.279 55.18C189.799 55.18 190.212 55.1067 190.519 54.96C190.839 54.8 190.999 54.5533 190.999 54.22C190.999 54.0067 190.926 53.8267 190.779 53.68C190.632 53.52 190.339 53.3933 189.899 53.3L188.139 52.94C186.979 52.7 186.152 52.34 185.659 51.86C185.179 51.3667 184.939 50.7333 184.939 49.96C184.939 49.4133 185.099 48.9 185.419 48.42C185.752 47.94 186.246 47.5533 186.899 47.26C187.552 46.9533 188.366 46.8 189.339 46.8C190.339 46.8 191.206 46.96 191.939 47.28C192.686 47.5867 193.272 48.0467 193.699 48.66L192.059 50.26C191.766 49.7933 191.379 49.44 190.899 49.2C190.432 48.9467 189.939 48.82 189.419 48.82C189.046 48.82 188.726 48.86 188.459 48.94C188.192 49.02 187.992 49.1333 187.859 49.28C187.726 49.4133 187.659 49.5867 187.659 49.8C187.659 50.0133 187.752 50.2 187.939 50.36C188.126 50.5067 188.466 50.6333 188.959 50.74L190.999 51.16C191.986 51.36 192.692 51.7 193.119 52.18C193.546 52.6467 193.759 53.2133 193.759 53.88C193.759 54.52 193.586 55.0933 193.239 55.6C192.906 56.0933 192.406 56.4867 191.739 56.78C191.086 57.06 190.279 57.2 189.319 57.2Z" fill="#44403C"/>
<g clip-path="url(#clip3_111_1209)">
<path d="M77 6H7V76H77V6Z" fill="url(#paint0_linear_111_1209)"/>
<path d="M41.8038 66.1438C41.6299 66.1472 41.4586 66.1019 41.3091 66.0131L20.0664 53.7678C19.9158 53.6808 19.7907 53.5556 19.7039 53.4049C19.617 53.2541 19.5714 53.0831 19.5718 52.9091V28.1011C19.5714 27.9271 19.617 27.7561 19.7039 27.6054C19.7907 27.4546 19.9158 27.3294 20.0664 27.2425L39.6011 15.9865C39.7462 15.8849 39.9173 15.8268 40.0942 15.8188C40.2711 15.8109 40.4467 15.8534 40.6003 15.9415C40.754 16.0296 40.8794 16.1595 40.9619 16.3163C41.0445 16.473 41.0807 16.6499 41.0664 16.8265V27.5691C41.0657 27.7358 41.0225 27.8996 40.9409 28.045C40.8592 28.1903 40.7418 28.3125 40.5998 28.3998L30.8278 33.9998V47.0105L41.8318 53.3665L51.4544 47.7665C51.5963 47.6845 51.7573 47.6414 51.9211 47.6414C52.0849 47.6414 52.2459 47.6845 52.3878 47.7665L61.6465 53.0865C61.7971 53.1734 61.9222 53.2986 62.009 53.4494C62.0959 53.6001 62.1414 53.7711 62.1411 53.9451C62.1458 54.1187 62.102 54.2901 62.0146 54.4402C61.9273 54.5902 61.7997 54.7129 61.6465 54.7945L42.2798 65.9944C42.1376 66.0865 41.9731 66.1381 41.8038 66.1438ZM21.4664 52.2371L42.3078 64.2678L60.1998 53.9265L52.7331 49.6238L42.8118 55.3545C42.6565 55.442 42.4813 55.4879 42.3031 55.4879C42.1249 55.4879 41.9497 55.442 41.7944 55.3545L29.3998 48.2051C29.2498 48.1196 29.1251 47.9961 29.0383 47.847C28.9514 47.6978 28.9055 47.5284 28.9051 47.3558V33.4958C28.9004 33.3222 28.9442 33.1508 29.0316 33.0007C29.119 32.8507 29.2465 32.728 29.3998 32.6465L39.1718 27.0465V18.4785L21.4384 28.7451L21.4664 52.2371Z" fill="white"/>
<path d="M63.4104 51.7332C63.2372 51.731 63.0674 51.6861 62.9157 51.6026L53.6664 46.2546C53.5131 46.173 53.3855 46.0504 53.2982 45.9003C53.2108 45.7503 53.167 45.5788 53.1717 45.4053V34.1026L43.3997 28.4652C43.2497 28.3798 43.125 28.2562 43.0382 28.1071C42.9513 27.9579 42.9054 27.7885 42.905 27.6159V16.8732C42.9012 16.7022 42.9444 16.5334 43.03 16.3852C43.1156 16.2371 43.2402 16.1153 43.3904 16.0332C43.5322 15.9513 43.6932 15.9082 43.857 15.9082C44.0209 15.9082 44.1818 15.9513 44.3237 16.0332L63.933 27.2986C64.083 27.3841 64.2077 27.5076 64.2945 27.6567C64.3814 27.8059 64.4273 27.9753 64.4277 28.1479V50.7066C64.428 50.8806 64.3825 51.0516 64.2956 51.2023C64.2088 51.3531 64.0837 51.4783 63.933 51.5653C63.7773 51.6677 63.5966 51.7257 63.4104 51.7332ZM55.0664 44.7799L62.533 49.0732V28.7732L44.7997 18.5066V27.0279L54.5997 32.7026C54.753 32.7841 54.8805 32.9068 54.9679 33.0569C55.0553 33.2069 55.0991 33.3783 55.0944 33.5519L55.0664 44.7799Z" fill="white"/>
</g>
<rect x="366.5" y="73.5" width="99" height="203" rx="7.5" stroke="#4A8F2A"/>
<g clip-path="url(#clip4_111_1209)">
<path d="M466 73H366V173H466V73Z" fill="url(#paint1_linear_111_1209)"/>
<path d="M385.333 94.2132L395.053 103.947L396.947 102.053L387.213 92.3332H394.667V89.6665H384C383.646 89.6665 383.307 89.807 383.057 90.057C382.807 90.3071 382.667 90.6462 382.667 90.9998V101.667H385.333V94.2132Z" fill="white"/>
<path d="M448 89.6665H437.333V92.3332H444.787L435.053 102.053L436.947 103.947L446.667 94.2132V101.667H449.333V90.9998C449.333 90.6462 449.193 90.3071 448.943 90.057C448.693 89.807 448.354 89.6665 448 89.6665Z" fill="white"/>
<path d="M395.053 142.053L385.333 151.787V144.333H382.667V155C382.667 155.354 382.807 155.693 383.057 155.943C383.307 156.193 383.646 156.333 384 156.333H394.667V153.667H387.213L396.947 143.947L395.053 142.053Z" fill="white"/>
<path d="M446.667 151.787L436.947 142.053L435.053 143.947L444.787 153.667H437.333V156.333H448C448.354 156.333 448.693 156.193 448.943 155.943C449.193 155.693 449.333 155.354 449.333 155V144.333H446.667V151.787Z" fill="white"/>
<path d="M405.466 103.987C407.825 102.94 410.449 102.646 412.98 103.145C415.512 103.644 417.828 104.911 419.613 106.773C421.204 108.389 422.407 110.345 423.133 112.493C423.215 112.719 423.356 112.919 423.542 113.071C423.728 113.224 423.952 113.323 424.19 113.358C424.428 113.394 424.67 113.364 424.893 113.273C425.115 113.182 425.309 113.032 425.453 112.84C425.858 112.275 426.39 111.813 427.006 111.491C427.622 111.169 428.305 110.996 429 110.987C431.053 110.987 433.533 112.56 433.786 116.987C433.804 117.28 433.918 117.56 434.111 117.781C434.304 118.003 434.565 118.155 434.853 118.213C440.04 119.307 442.666 122.213 442.666 126.747C442.666 131.04 440.786 133.587 436.906 134.533L437.533 137.12C442.56 135.907 445.333 132.213 445.333 126.747C445.333 121.28 442.16 117.413 436.36 115.827C435.68 110.653 432.253 108.32 429 108.32C427.514 108.307 426.064 108.774 424.866 109.653C424.031 107.861 422.889 106.227 421.493 104.827C419.331 102.597 416.539 101.081 413.492 100.48C410.444 99.8797 407.286 100.224 404.44 101.467C401.794 102.711 399.547 104.667 397.951 107.116C396.354 109.565 395.471 112.411 395.4 115.333C395.4 115.573 395.4 115.813 395.4 116.067C393.178 116.773 391.249 118.188 389.907 120.096C388.566 122.003 387.887 124.297 387.973 126.627C387.973 126.88 387.973 127.133 387.973 127.387C388.113 129.584 388.906 131.69 390.251 133.433C391.596 135.177 393.43 136.479 395.52 137.173L396.4 134.653C394.808 134.134 393.408 133.15 392.38 131.829C391.351 130.509 390.74 128.91 390.626 127.24C390.626 127.04 390.626 126.84 390.626 126.627C390.523 124.685 391.131 122.772 392.336 121.246C393.541 119.719 395.26 118.684 397.173 118.333C397.466 118.258 397.725 118.085 397.907 117.842C398.089 117.6 398.183 117.303 398.173 117C398.108 116.482 398.073 115.962 398.066 115.44C398.129 113.035 398.852 110.694 400.158 108.674C401.463 106.654 403.3 105.032 405.466 103.987Z" fill="white"/>
<path d="M437.267 130.093C437.333 129.893 437.35 129.679 437.318 129.471C437.285 129.262 437.204 129.064 437.08 128.893C436.957 128.721 436.795 128.58 436.607 128.483C436.42 128.385 436.211 128.334 436 128.333H432C431.858 127.184 431.332 126.118 430.507 125.307C430.188 124.986 429.807 124.735 429.387 124.567C428.968 124.4 428.518 124.32 428.067 124.333H414.36C414.013 123.253 413.347 121.893 412.32 121.667H412.067H406.733C405.547 121.667 404.76 123.16 404.36 124.333H402.747C402.283 124.313 401.821 124.388 401.387 124.553C400.954 124.718 400.559 124.97 400.227 125.293C399.733 125.776 399.342 126.353 399.074 126.99C398.806 127.626 398.667 128.309 398.667 129V145.667C398.667 146.02 398.807 146.359 399.057 146.609C399.307 146.859 399.646 147 400 147H430.667C430.945 146.997 431.216 146.906 431.441 146.741C431.666 146.576 431.833 146.345 431.92 146.08L437.267 130.093ZM434.147 131L432 137.453V131H434.147ZM429.333 144.333H401.333V129C401.319 128.353 401.558 127.726 402 127.253C402.077 127.168 402.172 127.101 402.278 127.057C402.384 127.014 402.499 126.994 402.613 127H405.28C405.62 127 405.948 126.871 406.195 126.638C406.443 126.405 406.593 126.086 406.613 125.747C406.745 125.253 406.937 124.779 407.187 124.333H411.467C411.679 124.761 411.853 125.207 411.987 125.667C411.987 126.02 412.127 126.359 412.377 126.609C412.627 126.859 412.966 127 413.32 127H428.093C428.193 127.004 428.29 127.028 428.38 127.072C428.469 127.116 428.549 127.177 428.613 127.253C429.072 127.719 429.33 128.346 429.333 129V144.333Z" fill="white"/>
</g>
<path d="M328.06 45.8V59H324.9L320.28 51.24L319.14 49.08H319.12L319.2 51.36V59H316.72V45.8H319.86L324.48 53.54L325.62 55.72H325.66L325.58 53.44V45.8H328.06ZM335.768 59.2C334.714 59.2 333.794 58.9933 333.008 58.58C332.234 58.1667 331.634 57.5733 331.208 56.8C330.781 56.0267 330.568 55.0933 330.568 54C330.568 52.9067 330.781 51.9733 331.208 51.2C331.634 50.4267 332.228 49.8333 332.988 49.42C333.761 49.0067 334.641 48.8 335.628 48.8C336.641 48.8 337.501 49.0067 338.208 49.42C338.914 49.82 339.454 50.3733 339.828 51.08C340.201 51.7733 340.388 52.5667 340.388 53.46C340.388 53.7267 340.381 53.98 340.368 54.22C340.354 54.46 340.334 54.6733 340.308 54.86H332.327V52.96H339.108L337.788 53.44C337.788 52.6 337.594 51.9533 337.208 51.5C336.834 51.0467 336.301 50.82 335.608 50.82C335.101 50.82 334.661 50.94 334.288 51.18C333.928 51.42 333.654 51.78 333.468 52.26C333.281 52.7267 333.188 53.32 333.188 54.04C333.188 54.7467 333.288 55.3333 333.488 55.8C333.701 56.2533 333.994 56.5933 334.368 56.82C334.754 57.0467 335.214 57.16 335.748 57.16C336.334 57.16 336.808 57.0467 337.168 56.82C337.528 56.5933 337.808 56.28 338.008 55.88L340.188 56.72C339.974 57.24 339.648 57.6867 339.208 58.06C338.781 58.4333 338.268 58.72 337.668 58.92C337.081 59.1067 336.448 59.2 335.768 59.2ZM346.074 45.94V55.74C346.074 56.22 346.194 56.5733 346.434 56.8C346.687 57.0133 347.027 57.12 347.454 57.12C347.787 57.12 348.08 57.0733 348.334 56.98C348.587 56.8733 348.814 56.7333 349.014 56.56L349.454 58.38C349.134 58.6333 348.734 58.8333 348.254 58.98C347.774 59.1267 347.267 59.2 346.734 59.2C346.067 59.2 345.474 59.1 344.954 58.9C344.447 58.7 344.047 58.38 343.754 57.94C343.474 57.5 343.334 56.9133 343.334 56.18V46.7L346.074 45.94ZM349.274 49V51.04H341.494V49H349.274ZM364.028 49H366.948L363.748 59H360.588L358.408 52.2L356.308 59H353.148L349.948 49H352.868L354.868 56.66L357.088 49H359.808L362.048 56.66L364.028 49ZM372.934 48.8C373.947 48.8 374.834 49.0067 375.594 49.42C376.367 49.8333 376.967 50.4267 377.394 51.2C377.834 51.9733 378.054 52.9067 378.054 54C378.054 55.08 377.834 56.0133 377.394 56.8C376.967 57.5733 376.367 58.1667 375.594 58.58C374.834 58.9933 373.947 59.2 372.934 59.2C371.934 59.2 371.047 58.9933 370.274 58.58C369.5 58.1667 368.894 57.5733 368.454 56.8C368.027 56.0133 367.814 55.08 367.814 54C367.814 52.9067 368.027 51.9733 368.454 51.2C368.894 50.4267 369.5 49.8333 370.274 49.42C371.047 49.0067 371.934 48.8 372.934 48.8ZM372.934 50.84C372.427 50.84 371.994 50.96 371.634 51.2C371.287 51.4267 371.02 51.7733 370.834 52.24C370.647 52.7067 370.554 53.2933 370.554 54C370.554 54.7067 370.647 55.2933 370.834 55.76C371.02 56.2267 371.287 56.58 371.634 56.82C371.994 57.0467 372.427 57.16 372.934 57.16C373.427 57.16 373.847 57.0467 374.194 56.82C374.554 56.58 374.827 56.2267 375.014 55.76C375.2 55.2933 375.294 54.7067 375.294 54C375.294 53.2933 375.2 52.7067 375.014 52.24C374.827 51.7733 374.554 51.4267 374.194 51.2C373.847 50.96 373.427 50.84 372.934 50.84ZM380.346 59V49H382.726L382.906 50.96C383.173 50.2667 383.56 49.7333 384.066 49.36C384.586 48.9867 385.233 48.8 386.006 48.8C386.233 48.8 386.44 48.82 386.626 48.86C386.813 48.9 386.966 48.9533 387.086 49.02L386.766 51.32C386.633 51.2667 386.466 51.2267 386.266 51.2C386.08 51.1733 385.833 51.16 385.526 51.16C385.126 51.16 384.74 51.26 384.366 51.46C383.993 51.6467 383.686 51.94 383.446 52.34C383.206 52.7267 383.086 53.22 383.086 53.82V59H380.346ZM398.964 49L394.344 53.82L393.804 54.08L390.804 57.3L390.764 54.38L395.844 49H398.964ZM391.524 44.62V59H388.784V44.62H391.524ZM394.724 52.18L399.204 59H396.104L392.844 53.78L394.724 52.18ZM416.737 48.02H409.617V51.38H415.237V53.6H409.617V59H406.857V45.8H416.737V48.02ZM420.203 47.56C419.629 47.56 419.203 47.44 418.923 47.2C418.643 46.9467 418.503 46.58 418.503 46.1C418.503 45.6067 418.643 45.24 418.923 45C419.203 44.7467 419.629 44.62 420.203 44.62C420.776 44.62 421.203 44.7467 421.483 45C421.763 45.24 421.903 45.6067 421.903 46.1C421.903 46.58 421.763 46.9467 421.483 47.2C421.203 47.44 420.776 47.56 420.203 47.56ZM421.563 49V59H418.823V49H421.563ZM427.167 44.62V55.92C427.167 56.3867 427.247 56.7133 427.407 56.9C427.567 57.0867 427.834 57.18 428.207 57.18C428.434 57.18 428.621 57.1667 428.767 57.14C428.914 57.1 429.101 57.0467 429.327 56.98L429.087 58.78C428.861 58.9133 428.574 59.0133 428.227 59.08C427.894 59.16 427.561 59.2 427.227 59.2C426.254 59.2 425.541 58.9667 425.087 58.5C424.647 58.02 424.427 57.26 424.427 56.22V44.62H427.167ZM435.494 59.2C434.441 59.2 433.521 58.9933 432.734 58.58C431.961 58.1667 431.361 57.5733 430.934 56.8C430.507 56.0267 430.294 55.0933 430.294 54C430.294 52.9067 430.507 51.9733 430.934 51.2C431.361 50.4267 431.954 49.8333 432.714 49.42C433.487 49.0067 434.367 48.8 435.354 48.8C436.367 48.8 437.227 49.0067 437.934 49.42C438.641 49.82 439.181 50.3733 439.554 51.08C439.927 51.7733 440.114 52.5667 440.114 53.46C440.114 53.7267 440.107 53.98 440.094 54.22C440.081 54.46 440.061 54.6733 440.034 54.86H432.054V52.96H438.834L437.514 53.44C437.514 52.6 437.321 51.9533 436.934 51.5C436.561 51.0467 436.027 50.82 435.334 50.82C434.827 50.82 434.387 50.94 434.014 51.18C433.654 51.42 433.381 51.78 433.194 52.26C433.007 52.7267 432.914 53.32 432.914 54.04C432.914 54.7467 433.014 55.3333 433.214 55.8C433.427 56.2533 433.721 56.5933 434.094 56.82C434.481 57.0467 434.941 57.16 435.474 57.16C436.061 57.16 436.534 57.0467 436.894 56.82C437.254 56.5933 437.534 56.28 437.734 55.88L439.914 56.72C439.701 57.24 439.374 57.6867 438.934 58.06C438.507 58.4333 437.994 58.72 437.394 58.92C436.807 59.1067 436.174 59.2 435.494 59.2ZM453.649 45.6C454.849 45.6 455.903 45.8067 456.809 46.22C457.716 46.6333 458.489 47.2467 459.129 48.06L457.589 49.84C457.043 49.1467 456.443 48.64 455.789 48.32C455.149 47.9867 454.403 47.82 453.549 47.82C452.989 47.82 452.523 47.8933 452.149 48.04C451.789 48.1867 451.523 48.38 451.349 48.62C451.189 48.86 451.109 49.1267 451.109 49.42C451.109 49.78 451.249 50.0867 451.529 50.34C451.809 50.58 452.289 50.78 452.969 50.94L455.429 51.5C456.736 51.7933 457.669 52.2333 458.229 52.82C458.803 53.3933 459.089 54.14 459.089 55.06C459.089 55.9267 458.863 56.6733 458.409 57.3C457.956 57.9133 457.323 58.3867 456.509 58.72C455.696 59.04 454.763 59.2 453.709 59.2C452.789 59.2 451.943 59.0933 451.169 58.88C450.409 58.6533 449.729 58.3467 449.129 57.96C448.529 57.5733 448.029 57.1267 447.629 56.62L449.189 54.76C449.496 55.1867 449.876 55.5667 450.329 55.9C450.783 56.2333 451.296 56.5 451.869 56.7C452.456 56.8867 453.069 56.98 453.709 56.98C454.256 56.98 454.716 56.92 455.089 56.8C455.476 56.6667 455.763 56.4867 455.949 56.26C456.149 56.02 456.249 55.7333 456.249 55.4C456.249 55.0533 456.129 54.76 455.889 54.52C455.663 54.2667 455.236 54.0733 454.609 53.94L451.929 53.34C451.156 53.1533 450.489 52.9133 449.929 52.62C449.383 52.3133 448.963 51.9267 448.669 51.46C448.389 50.98 448.249 50.4133 448.249 49.76C448.249 48.9733 448.463 48.2667 448.889 47.64C449.316 47.0133 449.929 46.52 450.729 46.16C451.543 45.7867 452.516 45.6 453.649 45.6ZM470.488 49L466.448 59.62C466.128 60.5267 465.768 61.2467 465.368 61.78C464.982 62.3133 464.528 62.7 464.008 62.94C463.502 63.18 462.895 63.3 462.188 63.3C461.668 63.3 461.188 63.2333 460.748 63.1C460.322 62.98 459.948 62.82 459.628 62.62L460.208 60.64C460.462 60.84 460.728 60.98 461.008 61.06C461.288 61.1533 461.608 61.2 461.968 61.2C462.342 61.2 462.662 61.12 462.928 60.96C463.208 60.8 463.442 60.48 463.628 60L463.968 59.14L462.868 56.54L459.808 49H462.848L464.748 55L465.268 57L465.888 54.88L467.708 49H470.488ZM475.792 59.2C474.778 59.2 473.852 59.02 473.012 58.66C472.185 58.3 471.512 57.7933 470.992 57.14L472.572 55.54C472.892 56.02 473.318 56.4133 473.852 56.72C474.385 57.0267 475.018 57.18 475.752 57.18C476.272 57.18 476.685 57.1067 476.992 56.96C477.312 56.8 477.472 56.5533 477.472 56.22C477.472 56.0067 477.398 55.8267 477.252 55.68C477.105 55.52 476.812 55.3933 476.372 55.3L474.612 54.94C473.452 54.7 472.625 54.34 472.132 53.86C471.652 53.3667 471.412 52.7333 471.412 51.96C471.412 51.4133 471.572 50.9 471.892 50.42C472.225 49.94 472.718 49.5533 473.372 49.26C474.025 48.9533 474.838 48.8 475.812 48.8C476.812 48.8 477.678 48.96 478.412 49.28C479.158 49.5867 479.745 50.0467 480.172 50.66L478.532 52.26C478.238 51.7933 477.852 51.44 477.372 51.2C476.905 50.9467 476.412 50.82 475.892 50.82C475.518 50.82 475.198 50.86 474.932 50.94C474.665 51.02 474.465 51.1333 474.332 51.28C474.198 51.4133 474.132 51.5867 474.132 51.8C474.132 52.0133 474.225 52.2 474.412 52.36C474.598 52.5067 474.938 52.6333 475.432 52.74L477.472 53.16C478.458 53.36 479.165 53.7 479.592 54.18C480.018 54.6467 480.232 55.2133 480.232 55.88C480.232 56.52 480.058 57.0933 479.712 57.6C479.378 58.0933 478.878 58.4867 478.212 58.78C477.558 59.06 476.752 59.2 475.792 59.2ZM485.957 45.94V55.74C485.957 56.22 486.077 56.5733 486.317 56.8C486.57 57.0133 486.91 57.12 487.337 57.12C487.67 57.12 487.963 57.0733 488.217 56.98C488.47 56.8733 488.697 56.7333 488.897 56.56L489.337 58.38C489.017 58.6333 488.617 58.8333 488.137 58.98C487.657 59.1267 487.15 59.2 486.617 59.2C485.95 59.2 485.357 59.1 484.837 58.9C484.33 58.7 483.93 58.38 483.637 57.94C483.357 57.5 483.217 56.9133 483.217 56.18V46.7L485.957 45.94ZM489.157 49V51.04H481.377V49H489.157ZM495.65 59.2C494.597 59.2 493.677 58.9933 492.89 58.58C492.117 58.1667 491.517 57.5733 491.09 56.8C490.664 56.0267 490.45 55.0933 490.45 54C490.45 52.9067 490.664 51.9733 491.09 51.2C491.517 50.4267 492.11 49.8333 492.87 49.42C493.644 49.0067 494.524 48.8 495.51 48.8C496.524 48.8 497.384 49.0067 498.09 49.42C498.797 49.82 499.337 50.3733 499.71 51.08C500.084 51.7733 500.27 52.5667 500.27 53.46C500.27 53.7267 500.264 53.98 500.25 54.22C500.237 54.46 500.217 54.6733 500.19 54.86H492.21V52.96H498.99L497.67 53.44C497.67 52.6 497.477 51.9533 497.09 51.5C496.717 51.0467 496.184 50.82 495.49 50.82C494.984 50.82 494.544 50.94 494.17 51.18C493.81 51.42 493.537 51.78 493.35 52.26C493.164 52.7267 493.07 53.32 493.07 54.04C493.07 54.7467 493.17 55.3333 493.37 55.8C493.584 56.2533 493.877 56.5933 494.25 56.82C494.637 57.0467 495.097 57.16 495.63 57.16C496.217 57.16 496.69 57.0467 497.05 56.82C497.41 56.5933 497.69 56.28 497.89 55.88L500.07 56.72C499.857 57.24 499.53 57.6867 499.09 58.06C498.664 58.4333 498.15 58.72 497.55 58.92C496.964 59.1067 496.33 59.2 495.65 59.2ZM502.592 59V49H505.052L505.152 50.8C505.486 50.1333 505.939 49.6333 506.512 49.3C507.099 48.9667 507.746 48.8 508.452 48.8C509.172 48.8 509.819 48.9667 510.392 49.3C510.979 49.6333 511.419 50.1267 511.712 50.78C511.926 50.34 512.212 49.9733 512.572 49.68C512.932 49.3867 513.332 49.1667 513.772 49.02C514.212 48.8733 514.659 48.8 515.112 48.8C515.766 48.8 516.359 48.9333 516.892 49.2C517.439 49.4667 517.872 49.8667 518.192 50.4C518.512 50.9333 518.672 51.6133 518.672 52.44V59H515.932V52.98C515.932 52.2467 515.772 51.7267 515.452 51.42C515.132 51.1133 514.719 50.96 514.212 50.96C513.812 50.96 513.439 51.06 513.092 51.26C512.759 51.46 512.492 51.76 512.292 52.16C512.106 52.5467 512.012 53.0333 512.012 53.62V59H509.272V52.98C509.272 52.2467 509.106 51.7267 508.772 51.42C508.452 51.1133 508.039 50.96 507.532 50.96C507.186 50.96 506.839 51.0533 506.492 51.24C506.159 51.4267 505.879 51.72 505.652 52.12C505.439 52.52 505.332 53.0467 505.332 53.7V59H502.592Z" fill="#44403C"/>
<path d="M393.762 250.44L389.922 261H387.346L383.49 250.44H385.826L388.05 257.16L388.658 259.24L389.25 257.176L391.49 250.44H393.762ZM399.639 250.28C400.684 250.28 401.586 250.499 402.343 250.936C403.1 251.373 403.682 251.997 404.087 252.808C404.503 253.619 404.711 254.589 404.711 255.72C404.711 256.851 404.503 257.821 404.087 258.632C403.682 259.443 403.1 260.067 402.343 260.504C401.586 260.941 400.684 261.16 399.639 261.16C398.594 261.16 397.687 260.941 396.919 260.504C396.162 260.067 395.575 259.443 395.159 258.632C394.754 257.821 394.551 256.851 394.551 255.72C394.551 254.589 394.754 253.619 395.159 252.808C395.575 251.997 396.162 251.373 396.919 250.936C397.687 250.499 398.594 250.28 399.639 250.28ZM399.639 252.088C399.042 252.088 398.535 252.227 398.119 252.504C397.703 252.781 397.383 253.192 397.159 253.736C396.946 254.269 396.839 254.931 396.839 255.72C396.839 256.499 396.946 257.16 397.159 257.704C397.383 258.248 397.703 258.659 398.119 258.936C398.535 259.213 399.042 259.352 399.639 259.352C400.226 259.352 400.727 259.213 401.143 258.936C401.559 258.659 401.874 258.248 402.087 257.704C402.311 257.16 402.423 256.499 402.423 255.72C402.423 254.931 402.311 254.269 402.087 253.736C401.874 253.192 401.559 252.781 401.143 252.504C400.727 252.227 400.226 252.088 399.639 252.088ZM409.147 259.224H414.715V261H406.939V250.44H409.147V259.224ZM425.208 250.44V256.84C425.208 258.28 424.824 259.363 424.056 260.088C423.288 260.803 422.168 261.16 420.696 261.16C419.224 261.16 418.104 260.803 417.336 260.088C416.568 259.363 416.184 258.28 416.184 256.84V250.44H418.392V256.744C418.392 257.629 418.578 258.285 418.952 258.712C419.336 259.139 419.917 259.352 420.696 259.352C421.474 259.352 422.05 259.139 422.424 258.712C422.797 258.285 422.984 257.629 422.984 256.744V250.44H425.208ZM439.239 250.44V261H437.239V255.496L437.351 252.408H437.319L434.391 261H432.583L429.671 252.408H429.639L429.751 255.496V261H427.751V250.44H430.951L432.855 256.2L433.527 258.584H433.559L434.247 256.216L436.135 250.44H439.239ZM441.985 261V250.44H449.905V252.216H444.193V254.84H448.689V256.536H444.193V259.224H450.129V261H441.985Z" fill="#57534E"/>
<path d="M448.858 210.15C448.673 209.998 446.994 208.724 443.39 208.724C442.457 208.724 441.492 208.817 440.56 208.974C439.878 204.227 435.931 201.93 435.772 201.81L434.807 201.249L434.186 202.148C433.412 203.356 432.817 204.723 432.479 206.116C431.825 208.817 432.228 211.359 433.597 213.531C431.95 214.462 429.279 214.68 428.717 214.712H384.59C383.44 214.712 382.507 215.643 382.507 216.792C382.447 220.641 383.096 224.485 384.432 228.116C385.953 232.084 388.221 235.035 391.144 236.832C394.437 238.846 399.813 239.995 405.871 239.995C408.603 239.995 411.34 239.744 414.044 239.249C417.807 238.568 421.411 237.262 424.731 235.373C427.468 233.788 429.922 231.774 432.005 229.417C435.516 225.475 437.599 221.071 439.12 217.162C439.338 217.162 439.524 217.162 439.742 217.162C443.564 217.162 445.925 215.643 447.228 214.337C448.1 213.531 448.749 212.535 449.218 211.419L449.496 210.613L448.858 210.15ZM421.547 213.439H427.452C427.73 213.439 427.981 213.221 427.981 212.911V207.635C427.981 207.358 427.763 207.107 427.452 207.107H421.547C421.269 207.107 421.018 207.325 421.018 207.635V212.911C421.051 213.221 421.269 213.439 421.547 213.439ZM413.314 198.331H419.219C419.497 198.331 419.748 198.114 419.748 197.803V192.528C419.748 192.25 419.497 192 419.219 192H413.314C413.036 192 412.785 192.218 412.785 192.528V197.803C412.785 198.081 413.03 198.331 413.314 198.331ZM413.314 205.899H419.219C419.497 205.899 419.748 205.648 419.748 205.371V200.095C419.748 199.818 419.497 199.567 419.219 199.567H413.314C413.036 199.567 412.785 199.785 412.785 200.095V205.371C412.785 205.654 413.03 205.899 413.314 205.899ZM405.14 205.899H411.045C411.324 205.899 411.574 205.648 411.574 205.371V200.095C411.574 199.818 411.356 199.567 411.045 199.567H405.14C404.862 199.567 404.612 199.785 404.612 200.095V205.371C404.612 205.654 404.83 205.899 405.14 205.899ZM396.842 205.899H402.747C403.025 205.899 403.276 205.648 403.276 205.371V200.095C403.276 199.818 403.058 199.567 402.747 199.567H396.842C396.564 199.567 396.313 199.785 396.313 200.095V205.371C396.346 205.654 396.564 205.899 396.842 205.899ZM413.314 213.439H419.219C419.497 213.439 419.748 213.221 419.748 212.911V207.635C419.748 207.358 419.53 207.107 419.219 207.107H413.314C413.036 207.107 412.785 207.325 412.785 207.635V212.911C412.785 213.221 413.03 213.439 413.314 213.439ZM405.14 213.439H411.045C411.324 213.439 411.574 213.221 411.574 212.911V207.635C411.574 207.358 411.356 207.107 411.045 207.107H405.14C404.862 207.107 404.612 207.325 404.612 207.635V212.911C404.612 213.221 404.83 213.439 405.14 213.439ZM396.842 213.439H402.747C403.025 213.439 403.276 213.221 403.276 212.911V207.635C403.276 207.358 403.058 207.107 402.747 207.107H396.842C396.564 207.107 396.313 207.325 396.313 207.635V212.911C396.346 213.221 396.564 213.439 396.842 213.439ZM388.701 213.439H394.606C394.884 213.439 395.135 213.221 395.135 212.911V207.635C395.135 207.358 394.917 207.107 394.606 207.107H388.701C388.423 207.107 388.172 207.325 388.172 207.635V212.911C388.205 213.221 388.423 213.439 388.701 213.439Z" fill="#0091E2"/>
<path d="M156.293 127.793C155.902 128.183 155.902 128.817 156.293 129.207L162.657 135.571C163.047 135.962 163.681 135.962 164.071 135.571C164.462 135.181 164.462 134.547 164.071 134.157L158.414 128.5L164.071 122.843C164.462 122.453 164.462 121.819 164.071 121.429C163.681 121.038 163.047 121.038 162.657 121.429L156.293 127.793ZM362.707 216.704C363.098 216.314 363.098 215.681 362.707 215.29L356.343 208.926C355.953 208.536 355.319 208.536 354.929 208.926C354.538 209.317 354.538 209.95 354.929 210.34L360.586 215.997L354.929 221.654C354.538 222.045 354.538 222.678 354.929 223.068C355.319 223.459 355.953 223.459 356.343 223.068L362.707 216.704ZM157 129.5H235.5V127.5H157V129.5ZM258.5 152.5V191.997H260.5V152.5H258.5ZM283.5 216.997H362V214.997H283.5V216.997ZM258.5 191.997C258.5 205.804 269.693 216.997 283.5 216.997V214.997C270.797 214.997 260.5 204.7 260.5 191.997H258.5ZM235.5 129.5C248.203 129.5 258.5 139.797 258.5 152.5H260.5C260.5 138.693 249.307 127.5 235.5 127.5V129.5Z" fill="#A8A29E"/>
<path d="M156.293 215.29C155.902 215.68 155.902 216.314 156.293 216.704L162.657 223.068C163.047 223.459 163.681 223.459 164.071 223.068C164.462 222.678 164.462 222.044 164.071 221.654L158.414 215.997L164.071 210.34C164.462 209.95 164.462 209.317 164.071 208.926C163.681 208.535 163.047 208.535 162.657 208.926L156.293 215.29ZM362.707 216.704C363.098 216.314 363.098 215.68 362.707 215.29L356.343 208.926C355.953 208.535 355.319 208.535 354.929 208.926C354.538 209.317 354.538 209.95 354.929 210.34L360.586 215.997L354.929 221.654C354.538 222.044 354.538 222.678 354.929 223.068C355.319 223.459 355.953 223.459 356.343 223.068L362.707 216.704ZM157 216.997H362V214.997H157V216.997Z" fill="#A8A29E"/>
<path d="M156.293 301.793C155.902 302.183 155.902 302.816 156.293 303.207L162.657 309.571C163.047 309.961 163.681 309.961 164.071 309.571C164.462 309.18 164.462 308.547 164.071 308.157L158.414 302.5L164.071 296.843C164.462 296.452 164.462 295.819 164.071 295.429C163.681 295.038 163.047 295.038 162.657 295.429L156.293 301.793ZM362.707 216.704C363.098 216.314 363.098 215.68 362.707 215.29L356.343 208.926C355.953 208.535 355.319 208.535 354.929 208.926C354.538 209.317 354.538 209.95 354.929 210.34L360.586 215.997L354.929 221.654C354.538 222.044 354.538 222.678 354.929 223.068C355.319 223.459 355.953 223.459 356.343 223.068L362.707 216.704ZM157 303.5H259V301.5H157V303.5ZM284 278.5V239.997H282V278.5H284ZM307 216.997H362V214.997H307V216.997ZM284 239.997C284 227.295 294.297 216.997 307 216.997V214.997C293.193 214.997 282 226.19 282 239.997H284ZM259 303.5C272.807 303.5 284 292.307 284 278.5H282C282 291.202 271.703 301.5 259 301.5V303.5Z" fill="#A8A29E"/>
<defs>
<linearGradient id="paint0_linear_111_1209" x1="-7.49747" y1="90.4947" x2="91.4975" y2="-8.50028" gradientUnits="userSpaceOnUse">
<stop stop-color="#C8511B"/>
<stop offset="1" stop-color="#FF9900"/>
</linearGradient>
<linearGradient id="paint1_linear_111_1209" x1="345.289" y1="193.715" x2="486.711" y2="52.2933" gradientUnits="userSpaceOnUse">
<stop stop-color="#1B660F"/>
<stop offset="1" stop-color="#6CAE3E"/>
</linearGradient>
<clipPath id="clip0_111_1209">
<rect width="76" height="55" fill="white" transform="matrix(-1 0 0 1 153 101)"/>
</clipPath>
<clipPath id="clip1_111_1209">
<rect width="76" height="55" fill="white" transform="matrix(-1 0 0 1 153 188)"/>
</clipPath>
<clipPath id="clip2_111_1209">
<rect width="76" height="55" fill="white" transform="matrix(-1 0 0 1 153 275)"/>
</clipPath>
<clipPath id="clip3_111_1209">
<path d="M7 14C7 9.58172 10.5817 6 15 6H77V76H7V14Z" fill="white"/>
</clipPath>
<clipPath id="clip4_111_1209">
<path d="M366 81C366 76.5817 369.582 73 374 73H458C462.418 73 466 76.5817 466 81V173H366V81Z" fill="white"/>
</clipPath>
</defs>
</svg>
