<svg width="700" height="330" viewBox="0 0 700 330" fill="none" xmlns="http://www.w3.org/2000/svg">
<rect width="700" height="330" fill="white"/>
<path d="M320.6 123C320.413 123 320.292 122.907 320.236 122.72L315.728 109.056C315.709 109.019 315.7 108.972 315.7 108.916C315.7 108.748 315.803 108.664 316.008 108.664H318.864C319.069 108.664 319.2 108.757 319.256 108.944L321.972 118.296C321.991 118.352 322.019 118.38 322.056 118.38C322.093 118.38 322.121 118.352 322.14 118.296L324.856 108.944C324.912 108.757 325.043 108.664 325.248 108.664L328.104 108.72C328.216 108.72 328.3 108.757 328.356 108.832C328.412 108.888 328.421 108.981 328.384 109.112L323.904 122.72C323.848 122.907 323.727 123 323.54 123H320.6ZM333.589 103.484C333.739 103.428 333.879 103.4 334.009 103.4H336.697C336.791 103.4 336.865 103.437 336.921 103.512C336.996 103.568 337.033 103.643 337.033 103.736V122.664C337.033 122.757 336.996 122.841 336.921 122.916C336.865 122.972 336.791 123 336.697 123H334.121C334.028 123 333.944 122.972 333.869 122.916C333.813 122.841 333.785 122.757 333.785 122.664V106.76C333.785 106.723 333.767 106.695 333.729 106.676C333.692 106.639 333.655 106.629 333.617 106.648L330.817 107.516C330.78 107.535 330.733 107.544 330.677 107.544C330.603 107.544 330.537 107.516 330.481 107.46C330.444 107.404 330.425 107.329 330.425 107.236L330.341 105.388C330.341 105.201 330.416 105.071 330.565 104.996L333.589 103.484ZM342.704 123.056C342.126 123.056 341.65 122.869 341.276 122.496C340.903 122.123 340.716 121.647 340.716 121.068C340.716 120.489 340.903 120.013 341.276 119.64C341.65 119.267 342.126 119.08 342.704 119.08C343.283 119.08 343.75 119.267 344.104 119.64C344.478 120.013 344.664 120.489 344.664 121.068C344.664 121.647 344.478 122.123 344.104 122.496C343.731 122.869 343.264 123.056 342.704 123.056ZM352.377 120.032C352.339 120.069 352.321 120.107 352.321 120.144C352.339 120.181 352.377 120.2 352.433 120.2H360.413C360.506 120.2 360.581 120.237 360.637 120.312C360.711 120.368 360.749 120.443 360.749 120.536V122.664C360.749 122.757 360.711 122.841 360.637 122.916C360.581 122.972 360.506 123 360.413 123H348.373C348.279 123 348.195 122.972 348.121 122.916C348.065 122.841 348.037 122.757 348.037 122.664V120.648C348.037 120.48 348.093 120.34 348.205 120.228C349.623 118.716 351.266 116.859 353.133 114.656L354.449 113.116C356.166 111.119 357.025 109.607 357.025 108.58C357.025 107.815 356.754 107.189 356.213 106.704C355.671 106.219 354.971 105.976 354.113 105.976C353.254 105.976 352.554 106.219 352.013 106.704C351.49 107.189 351.229 107.833 351.229 108.636V109.364C351.229 109.457 351.191 109.541 351.117 109.616C351.061 109.672 350.986 109.7 350.893 109.7H348.289C348.195 109.7 348.111 109.672 348.037 109.616C347.981 109.541 347.953 109.457 347.953 109.364V108.16C347.99 107.152 348.279 106.275 348.821 105.528C349.362 104.781 350.09 104.203 351.005 103.792C351.938 103.381 352.974 103.176 354.113 103.176C355.363 103.176 356.455 103.409 357.389 103.876C358.322 104.343 359.041 104.987 359.545 105.808C360.049 106.611 360.301 107.516 360.301 108.524C360.301 110.055 359.489 111.819 357.865 113.816C356.969 114.936 355.494 116.616 353.441 118.856L352.377 120.032ZM365.783 123.056C365.204 123.056 364.728 122.869 364.355 122.496C363.981 122.123 363.795 121.647 363.795 121.068C363.795 120.489 363.981 120.013 364.355 119.64C364.728 119.267 365.204 119.08 365.783 119.08C366.361 119.08 366.828 119.267 367.183 119.64C367.556 120.013 367.743 120.489 367.743 121.068C367.743 121.647 367.556 122.123 367.183 122.496C366.809 122.869 366.343 123.056 365.783 123.056ZM382.595 113.676C382.968 114.572 383.155 115.599 383.155 116.756C383.155 117.801 382.996 118.725 382.679 119.528C382.25 120.704 381.54 121.619 380.551 122.272C379.562 122.907 378.367 123.224 376.967 123.224C375.586 123.224 374.382 122.879 373.355 122.188C372.347 121.479 371.628 120.527 371.199 119.332C370.975 118.753 370.844 117.997 370.807 117.064C370.807 116.84 370.919 116.728 371.143 116.728H373.747C373.971 116.728 374.083 116.84 374.083 117.064C374.12 117.661 374.214 118.137 374.363 118.492C374.531 119.089 374.839 119.565 375.287 119.92C375.754 120.256 376.314 120.424 376.967 120.424C378.199 120.424 379.048 119.864 379.515 118.744C379.758 118.203 379.879 117.503 379.879 116.644C379.879 115.692 379.739 114.908 379.459 114.292C378.974 113.247 378.134 112.724 376.939 112.724C376.622 112.724 376.192 112.911 375.651 113.284C375.576 113.321 375.511 113.34 375.455 113.34C375.362 113.34 375.268 113.284 375.175 113.172L373.887 111.38C373.831 111.287 373.803 111.212 373.803 111.156C373.803 111.063 373.84 110.979 373.915 110.904L378.535 106.368C378.572 106.331 378.582 106.293 378.563 106.256C378.544 106.219 378.507 106.2 378.451 106.2H371.451C371.358 106.2 371.274 106.172 371.199 106.116C371.143 106.041 371.115 105.957 371.115 105.864V103.736C371.115 103.643 371.143 103.568 371.199 103.512C371.274 103.437 371.358 103.4 371.451 103.4H382.623C382.716 103.4 382.791 103.437 382.847 103.512C382.922 103.568 382.959 103.643 382.959 103.736V106.172C382.959 106.34 382.903 106.48 382.791 106.592L378.787 110.624C378.712 110.699 378.75 110.755 378.899 110.792C380.635 111.035 381.867 111.996 382.595 113.676Z" fill="#4F46E5"/>
<path d="M358.5 20.5107V36.0003C358.5 38.1005 358.5 39.1506 358.909 39.9527C359.268 40.6583 359.842 41.232 360.548 41.5915C361.35 42.0003 362.4 42.0003 364.5 42.0003H379.99M358.5 77.625L367.875 68.25L358.5 58.875M343.5 58.875L334.125 68.25L343.5 77.625M381 49.4558V76.5C381 82.8006 381 85.9509 379.774 88.3574C378.695 90.4742 376.974 92.1952 374.857 93.2738C372.451 94.5 369.301 94.5 363 94.5H339C332.699 94.5 329.549 94.5 327.143 93.2738C325.026 92.1952 323.305 90.4742 322.226 88.3574C321 85.9509 321 82.8006 321 76.5V37.5C321 31.1994 321 28.0491 322.226 25.6426C323.305 23.5258 325.026 21.8048 327.143 20.7262C329.549 19.5 332.699 19.5 339 19.5H351.044C353.796 19.5 355.172 19.5 356.466 19.8108C357.614 20.0864 358.712 20.541 359.718 21.1578C360.854 21.8535 361.826 22.8264 363.772 24.7721L375.728 36.7279C377.674 38.6736 378.646 39.6465 379.342 40.7818C379.959 41.7884 380.414 42.8857 380.689 44.0336C381 45.3284 381 46.7042 381 49.4558Z" stroke="#4F46E5" stroke-width="5" stroke-linecap="round" stroke-linejoin="round"/>
<path d="M34.6073 262.813V200.076C34.6073 196.82 35.9088 193.698 38.2255 191.396C40.5422 189.094 43.6843 187.801 46.9606 187.801H130.964C134.24 187.801 137.382 189.094 139.699 191.396C142.015 193.698 143.317 196.82 143.317 200.076V262.813M34.6073 262.813H143.317M34.6073 262.813L25.4658 294.937C24.9466 296.762 24.8601 298.682 25.2131 300.546C25.5662 302.41 26.3491 304.168 27.5005 305.68C28.6519 307.193 30.1404 308.42 31.8493 309.265C33.5582 310.11 35.4409 310.55 37.3497 310.551H140.574C142.483 310.55 144.366 310.11 146.075 309.265C147.784 308.42 149.272 307.193 150.424 305.68C151.575 304.168 152.358 302.41 152.711 300.546C153.064 298.682 152.978 296.762 152.458 294.937L143.317 262.813" stroke="#78716C" stroke-width="6"/>
<path d="M82.7856 292.138H95.139" stroke="#78716C" stroke-width="6" stroke-linecap="round" stroke-linejoin="round"/>
<path fill-rule="evenodd" clip-rule="evenodd" d="M98.9888 223.011C99.1517 223.174 99.281 223.367 99.3693 223.579C99.4575 223.792 99.5029 224.02 99.5029 224.25C99.5029 224.48 99.4575 224.708 99.3693 224.921C99.281 225.134 99.1517 225.327 98.9888 225.489L88.4888 235.989C88.3262 236.152 88.1331 236.281 87.9205 236.37C87.7079 236.458 87.48 236.503 87.2498 236.503C87.0196 236.503 86.7917 236.458 86.5791 236.37C86.3664 236.281 86.1733 236.152 86.0108 235.989L80.7608 230.739C80.5981 230.576 80.469 230.383 80.3809 230.171C80.2929 229.958 80.2476 229.73 80.2476 229.5C80.2476 229.27 80.2929 229.042 80.3809 228.83C80.469 228.617 80.5981 228.424 80.7608 228.261C81.0894 227.933 81.5351 227.748 81.9998 227.748C82.2299 227.748 82.4577 227.793 82.6703 227.881C82.8829 227.969 83.0761 228.098 83.2388 228.261L87.2498 232.276L96.5108 223.011C96.6733 222.848 96.8664 222.719 97.0791 222.631C97.2917 222.542 97.5196 222.497 97.7498 222.497C97.98 222.497 98.2079 222.542 98.4205 222.631C98.6331 222.719 98.8262 222.848 98.9888 223.011Z" fill="#16A34A"/>
<path d="M75 203.25H71.5C69.6435 203.25 67.863 203.987 66.5503 205.3C65.2375 206.613 64.5 208.393 64.5 210.25V247C64.5 248.857 65.2375 250.637 66.5503 251.95C67.863 253.263 69.6435 254 71.5 254H106.5C108.357 254 110.137 253.263 111.45 251.95C112.763 250.637 113.5 248.857 113.5 247V210.25C113.5 208.393 112.763 206.613 111.45 205.3C110.137 203.987 108.357 203.25 106.5 203.25H103V206.75H106.5C107.428 206.75 108.318 207.119 108.975 207.775C109.631 208.432 110 209.322 110 210.25V247C110 247.928 109.631 248.818 108.975 249.475C108.318 250.131 107.428 250.5 106.5 250.5H71.5C70.5717 250.5 69.6815 250.131 69.0251 249.475C68.3687 248.818 68 247.928 68 247V210.25C68 209.322 68.3687 208.432 69.0251 207.775C69.6815 207.119 70.5717 206.75 71.5 206.75H75V203.25Z" fill="#16A34A"/>
<path d="M94.25 201.5C94.7141 201.5 95.1593 201.684 95.4874 202.013C95.8156 202.341 96 202.786 96 203.25V206.75C96 207.214 95.8156 207.659 95.4874 207.987C95.1593 208.316 94.7141 208.5 94.25 208.5H83.75C83.2859 208.5 82.8408 208.316 82.5126 207.987C82.1844 207.659 82 207.214 82 206.75V203.25C82 202.786 82.1844 202.341 82.5126 202.013C82.8408 201.684 83.2859 201.5 83.75 201.5H94.25ZM83.75 198C82.3576 198 81.0223 198.553 80.0377 199.538C79.0531 200.522 78.5 201.858 78.5 203.25V206.75C78.5 208.142 79.0531 209.478 80.0377 210.462C81.0223 211.447 82.3576 212 83.75 212H94.25C95.6424 212 96.9777 211.447 97.9623 210.462C98.9469 209.478 99.5 208.142 99.5 206.75V203.25C99.5 201.858 98.9469 200.522 97.9623 199.538C96.9777 198.553 95.6424 198 94.25 198H83.75Z" fill="#16A34A"/>
<rect width="34" height="40" transform="translate(122 170)" fill="white"/>
<path d="M142.104 173.308C144.603 170.017 148.076 170.001 148.076 170.001C148.076 170.001 148.593 173.095 146.111 176.075C143.461 179.257 140.448 178.737 140.448 178.737C140.448 178.737 139.883 176.234 142.104 173.308ZM140.766 180.904C142.051 180.904 144.437 179.138 147.542 179.138C152.887 179.138 154.989 182.939 154.989 182.939C154.989 182.939 150.877 185.04 150.877 190.138C150.877 195.889 156 197.871 156 197.871C156 197.871 152.419 207.944 147.582 207.944C145.36 207.944 143.633 206.448 141.292 206.448C138.906 206.448 136.539 207.999 134.997 207.999C130.58 208 125 198.445 125 190.765C125 183.208 129.723 179.244 134.154 179.244C137.034 179.244 139.269 180.904 140.766 180.904Z" fill="#999999"/>
<path d="M302 58.5C302.828 58.5 303.5 57.8284 303.5 57C303.5 56.1716 302.828 55.5 302 55.5V58.5ZM87.9013 184.861C88.487 185.447 89.4368 185.447 90.0226 184.861L99.5685 175.315C100.154 174.73 100.154 173.78 99.5685 173.194C98.9827 172.608 98.033 172.608 97.4472 173.194L88.9619 181.679L80.4766 173.194C79.8908 172.608 78.9411 172.608 78.3553 173.194C77.7695 173.78 77.7695 174.73 78.3553 175.315L87.9013 184.861ZM302 55.5H112.962V58.5H302V55.5ZM87.4619 81V183.801H90.4619V81H87.4619ZM112.962 55.5C98.8786 55.5 87.4619 66.9167 87.4619 81H90.4619C90.4619 68.5736 100.535 58.5 112.962 58.5V55.5Z" fill="#D6D3D1"/>
<rect x="379.5" y="185.5" width="111" height="108" rx="14.5" stroke="#D6D3D1" stroke-width="3"/>
<path d="M462.583 283.437L461.298 273.158C460.794 269.126 460.542 267.111 459.594 265.591C458.758 264.253 457.55 263.187 456.118 262.524C454.493 261.771 452.462 261.771 448.399 261.771H422.601C418.538 261.771 416.506 261.771 414.881 262.524C413.45 263.187 412.242 264.253 411.406 265.591C410.457 267.111 410.205 269.126 409.701 273.158L408.417 283.437M417.896 294.271H453.104M417.896 294.271C412.66 294.271 408.417 290.027 408.417 284.791C408.417 279.556 412.66 275.312 417.896 275.312H453.104C458.339 275.312 462.583 279.556 462.583 284.791C462.583 290.027 458.339 294.271 453.104 294.271M417.896 294.271C412.66 294.271 408.417 298.514 408.417 303.75C408.417 308.985 412.66 313.229 417.896 313.229H453.104C458.339 313.229 462.583 308.985 462.583 303.75C462.583 298.514 458.339 294.271 453.104 294.271M419.25 284.791H419.277M419.25 303.75H419.277M435.5 284.791H451.75M435.5 303.75H451.75" stroke="#78716C" stroke-width="4" stroke-linecap="round" stroke-linejoin="round"/>
<path fill-rule="evenodd" clip-rule="evenodd" d="M444.989 223.011C445.152 223.174 445.281 223.367 445.369 223.579C445.457 223.792 445.503 224.02 445.503 224.25C445.503 224.48 445.457 224.708 445.369 224.921C445.281 225.134 445.152 225.327 444.989 225.489L434.489 235.989C434.326 236.152 434.133 236.281 433.92 236.37C433.708 236.458 433.48 236.503 433.25 236.503C433.02 236.503 432.792 236.458 432.579 236.37C432.366 236.281 432.173 236.152 432.011 235.989L426.761 230.739C426.598 230.576 426.469 230.383 426.381 230.171C426.293 229.958 426.248 229.73 426.248 229.5C426.248 229.27 426.293 229.042 426.381 228.83C426.469 228.617 426.598 228.424 426.761 228.261C427.089 227.933 427.535 227.748 428 227.748C428.23 227.748 428.458 227.793 428.67 227.881C428.883 227.969 429.076 228.098 429.239 228.261L433.25 232.276L442.511 223.011C442.673 222.848 442.866 222.719 443.079 222.631C443.292 222.542 443.52 222.497 443.75 222.497C443.98 222.497 444.208 222.542 444.42 222.631C444.633 222.719 444.826 222.848 444.989 223.011Z" fill="#16A34A"/>
<path d="M421 203.25H417.5C415.643 203.25 413.863 203.987 412.55 205.3C411.237 206.613 410.5 208.393 410.5 210.25V247C410.5 248.857 411.237 250.637 412.55 251.95C413.863 253.263 415.643 254 417.5 254H452.5C454.357 254 456.137 253.263 457.45 251.95C458.763 250.637 459.5 248.857 459.5 247V210.25C459.5 208.393 458.763 206.613 457.45 205.3C456.137 203.987 454.357 203.25 452.5 203.25H449V206.75H452.5C453.428 206.75 454.318 207.119 454.975 207.775C455.631 208.432 456 209.322 456 210.25V247C456 247.928 455.631 248.818 454.975 249.475C454.318 250.131 453.428 250.5 452.5 250.5H417.5C416.572 250.5 415.682 250.131 415.025 249.475C414.369 248.818 414 247.928 414 247V210.25C414 209.322 414.369 208.432 415.025 207.775C415.682 207.119 416.572 206.75 417.5 206.75H421V203.25Z" fill="#16A34A"/>
<path d="M440.25 201.5C440.714 201.5 441.159 201.684 441.487 202.013C441.816 202.341 442 202.786 442 203.25V206.75C442 207.214 441.816 207.659 441.487 207.987C441.159 208.316 440.714 208.5 440.25 208.5H429.75C429.286 208.5 428.841 208.316 428.513 207.987C428.184 207.659 428 207.214 428 206.75V203.25C428 202.786 428.184 202.341 428.513 202.013C428.841 201.684 429.286 201.5 429.75 201.5H440.25ZM429.75 198C428.358 198 427.022 198.553 426.038 199.538C425.053 200.522 424.5 201.858 424.5 203.25V206.75C424.5 208.142 425.053 209.478 426.038 210.462C427.022 211.447 428.358 212 429.75 212H440.25C441.642 212 442.978 211.447 443.962 210.462C444.947 209.478 445.5 208.142 445.5 206.75V203.25C445.5 201.858 444.947 200.522 443.962 199.538C442.978 198.553 441.642 198 440.25 198H429.75Z" fill="#16A34A"/>
<g clip-path="url(#clip0_190_2327)">
<path d="M505.951 188.457C505.951 198.097 498.135 205.913 488.494 205.913C478.853 205.913 471.037 198.097 471.037 188.457C471.037 178.816 478.853 171 488.494 171C498.135 171 505.951 178.816 505.951 188.457Z" fill="#DD4814"/>
<path d="M476.624 186.126C475.336 186.126 474.292 187.169 474.292 188.457C474.292 189.744 475.336 190.787 476.624 190.787C477.911 190.787 478.954 189.744 478.954 188.457C478.954 187.169 477.911 186.126 476.624 186.126ZM493.264 196.718C492.15 197.362 491.767 198.787 492.411 199.901C493.054 201.016 494.479 201.398 495.594 200.754C496.708 200.111 497.091 198.686 496.447 197.571C495.804 196.457 494.378 196.075 493.264 196.718ZM481.686 188.457C481.686 186.154 482.83 184.119 484.581 182.887L482.877 180.033C480.838 181.396 479.32 183.479 478.69 185.918C479.426 186.518 479.896 187.432 479.896 188.457C479.896 189.481 479.426 190.395 478.69 190.995C479.319 193.435 480.837 195.518 482.877 196.881L484.581 194.026C482.83 192.795 481.686 190.76 481.686 188.457ZM488.494 181.649C492.05 181.649 494.968 184.375 495.274 187.853L498.595 187.804C498.432 185.237 497.31 182.932 495.587 181.237C494.701 181.572 493.677 181.521 492.792 181.011C491.906 180.499 491.35 179.636 491.198 178.7C490.317 178.456 489.408 178.332 488.493 178.332C486.937 178.331 485.401 178.689 484.006 179.38L485.626 182.282C486.524 181.864 487.503 181.648 488.494 181.649ZM488.494 195.264C487.503 195.265 486.524 195.049 485.626 194.631L484.007 197.533C485.401 198.224 486.937 198.583 488.494 198.582C489.408 198.582 490.318 198.458 491.199 198.213C491.35 197.277 491.906 196.415 492.792 195.902C493.678 195.391 494.701 195.341 495.587 195.676C497.31 193.981 498.432 191.676 498.595 189.109L495.273 189.06C494.968 192.539 492.05 195.264 488.494 195.264ZM493.263 180.194C494.378 180.837 495.803 180.456 496.446 179.341C497.09 178.227 496.709 176.802 495.594 176.158C494.479 175.515 493.054 175.897 492.41 177.012C491.767 178.126 492.149 179.551 493.263 180.194Z" fill="white"/>
</g>
<rect x="553.5" y="185.5" width="111" height="108" rx="14.5" stroke="#D6D3D1" stroke-width="3"/>
<path d="M636.583 283.437L635.298 273.158C634.794 269.126 634.542 267.111 633.594 265.591C632.758 264.253 631.55 263.187 630.118 262.524C628.493 261.771 626.462 261.771 622.399 261.771H596.601C592.538 261.771 590.506 261.771 588.881 262.524C587.45 263.187 586.242 264.253 585.406 265.591C584.457 267.111 584.205 269.126 583.701 273.158L582.417 283.437M591.896 294.271H627.104M591.896 294.271C586.66 294.271 582.417 290.027 582.417 284.791C582.417 279.556 586.66 275.312 591.896 275.312H627.104C632.339 275.312 636.583 279.556 636.583 284.791C636.583 290.027 632.339 294.271 627.104 294.271M591.896 294.271C586.66 294.271 582.417 298.514 582.417 303.75C582.417 308.985 586.66 313.229 591.896 313.229H627.104C632.339 313.229 636.583 308.985 636.583 303.75C636.583 298.514 632.339 294.271 627.104 294.271M593.25 284.791H593.277M593.25 303.75H593.277M609.5 284.791H625.75M609.5 303.75H625.75" stroke="#78716C" stroke-width="4" stroke-linecap="round" stroke-linejoin="round"/>
<path fill-rule="evenodd" clip-rule="evenodd" d="M602.511 223.011C602.674 222.848 602.867 222.719 603.079 222.631C603.292 222.542 603.52 222.497 603.75 222.497C603.98 222.497 604.208 222.542 604.421 222.631C604.634 222.719 604.827 222.848 604.989 223.011L609 227.026L613.011 223.011C613.34 222.683 613.785 222.498 614.25 222.498C614.715 222.498 615.161 222.683 615.489 223.011C615.818 223.34 616.002 223.785 616.002 224.25C616.002 224.715 615.818 225.161 615.489 225.489L611.475 229.5L615.489 233.511C615.818 233.84 616.002 234.285 616.002 234.75C616.002 235.215 615.818 235.661 615.489 235.989C615.161 236.318 614.715 236.502 614.25 236.502C613.785 236.502 613.34 236.318 613.011 235.989L609 231.975L604.989 235.989C604.661 236.318 604.215 236.502 603.75 236.502C603.285 236.502 602.84 236.318 602.511 235.989C602.183 235.661 601.998 235.215 601.998 234.75C601.998 234.285 602.183 233.84 602.511 233.511L606.526 229.5L602.511 225.489C602.348 225.327 602.219 225.134 602.131 224.921C602.042 224.708 601.997 224.48 601.997 224.25C601.997 224.02 602.042 223.792 602.131 223.579C602.219 223.367 602.348 223.174 602.511 223.011Z" fill="#DC2626"/>
<path d="M595 203.25H591.5C589.643 203.25 587.863 203.987 586.55 205.3C585.237 206.613 584.5 208.393 584.5 210.25V247C584.5 248.857 585.237 250.637 586.55 251.95C587.863 253.263 589.643 254 591.5 254H626.5C628.357 254 630.137 253.263 631.45 251.95C632.763 250.637 633.5 248.857 633.5 247V210.25C633.5 208.393 632.763 206.613 631.45 205.3C630.137 203.987 628.357 203.25 626.5 203.25H623V206.75H626.5C627.428 206.75 628.318 207.119 628.975 207.775C629.631 208.432 630 209.322 630 210.25V247C630 247.928 629.631 248.818 628.975 249.475C628.318 250.131 627.428 250.5 626.5 250.5H591.5C590.572 250.5 589.682 250.131 589.025 249.475C588.369 248.818 588 247.928 588 247V210.25C588 209.322 588.369 208.432 589.025 207.775C589.682 207.119 590.572 206.75 591.5 206.75H595V203.25Z" fill="#DC2626"/>
<path d="M614.25 201.5C614.714 201.5 615.159 201.684 615.487 202.013C615.816 202.341 616 202.786 616 203.25V206.75C616 207.214 615.816 207.659 615.487 207.987C615.159 208.316 614.714 208.5 614.25 208.5H603.75C603.286 208.5 602.841 208.316 602.513 207.987C602.184 207.659 602 207.214 602 206.75V203.25C602 202.786 602.184 202.341 602.513 202.013C602.841 201.684 603.286 201.5 603.75 201.5H614.25ZM603.75 198C602.358 198 601.022 198.553 600.038 199.538C599.053 200.522 598.5 201.858 598.5 203.25V206.75C598.5 208.142 599.053 209.478 600.038 210.462C601.022 211.447 602.358 212 603.75 212H614.25C615.642 212 616.978 211.447 617.962 210.462C618.947 209.478 619.5 208.142 619.5 206.75V203.25C619.5 201.858 618.947 200.522 617.962 199.538C616.978 198.553 615.642 198 614.25 198H603.75Z" fill="#DC2626"/>
<g clip-path="url(#clip1_190_2327)">
<path d="M679.951 188.457C679.951 198.097 672.135 205.913 662.494 205.913C652.853 205.913 645.037 198.097 645.037 188.457C645.037 178.816 652.853 171 662.494 171C672.135 171 679.951 178.816 679.951 188.457Z" fill="#DD4814"/>
<path d="M650.624 186.126C649.336 186.126 648.292 187.169 648.292 188.457C648.292 189.744 649.336 190.787 650.624 190.787C651.911 190.787 652.954 189.744 652.954 188.457C652.954 187.169 651.911 186.126 650.624 186.126ZM667.264 196.718C666.15 197.362 665.767 198.787 666.411 199.901C667.054 201.016 668.479 201.398 669.594 200.754C670.708 200.111 671.091 198.686 670.447 197.571C669.804 196.457 668.378 196.075 667.264 196.718ZM655.686 188.457C655.686 186.154 656.83 184.119 658.581 182.887L656.877 180.033C654.838 181.396 653.32 183.479 652.69 185.918C653.426 186.518 653.896 187.432 653.896 188.457C653.896 189.481 653.426 190.395 652.69 190.995C653.319 193.435 654.837 195.518 656.877 196.881L658.581 194.026C656.83 192.795 655.686 190.76 655.686 188.457ZM662.494 181.649C666.05 181.649 668.968 184.375 669.274 187.853L672.595 187.804C672.432 185.237 671.31 182.932 669.587 181.237C668.701 181.572 667.677 181.521 666.792 181.011C665.906 180.499 665.35 179.636 665.198 178.7C664.317 178.456 663.408 178.332 662.493 178.332C660.937 178.331 659.401 178.689 658.006 179.38L659.626 182.282C660.524 181.864 661.503 181.648 662.494 181.649ZM662.494 195.264C661.503 195.265 660.524 195.049 659.626 194.631L658.007 197.533C659.401 198.224 660.937 198.583 662.494 198.582C663.408 198.582 664.318 198.458 665.199 198.213C665.35 197.277 665.906 196.415 666.792 195.902C667.678 195.391 668.701 195.341 669.587 195.676C671.31 193.981 672.432 191.676 672.595 189.109L669.273 189.06C668.968 192.539 666.05 195.264 662.494 195.264ZM667.263 180.194C668.378 180.837 669.803 180.456 670.446 179.341C671.09 178.227 670.709 176.802 669.594 176.158C668.479 175.515 667.054 175.897 666.41 177.012C665.767 178.126 666.149 179.551 667.263 180.194Z" fill="white"/>
</g>
<path d="M400 55.5C399.172 55.5 398.5 56.1716 398.5 57C398.5 57.8284 399.172 58.5 400 58.5V55.5ZM607.939 181.061C608.525 181.646 609.475 181.646 610.061 181.061L619.607 171.515C620.192 170.929 620.192 169.979 619.607 169.393C619.021 168.808 618.071 168.808 617.485 169.393L609 177.879L600.515 169.393C599.929 168.808 598.979 168.808 598.393 169.393C597.808 169.979 597.808 170.929 598.393 171.515L607.939 181.061ZM400 58.5H585V55.5H400V58.5ZM607.5 81V180H610.5V81H607.5ZM585 58.5C597.426 58.5 607.5 68.5736 607.5 81H610.5C610.5 66.9167 599.083 55.5 585 55.5V58.5Z" fill="#D6D3D1"/>
<path d="M400 55.5C399.172 55.5 398.5 56.1716 398.5 57C398.5 57.8284 399.172 58.5 400 58.5V55.5ZM433.939 181.061C434.525 181.646 435.475 181.646 436.061 181.061L445.607 171.515C446.192 170.929 446.192 169.979 445.607 169.393C445.021 168.808 444.071 168.808 443.485 169.393L435 177.879L426.515 169.393C425.929 168.808 424.979 168.808 424.393 169.393C423.808 169.979 423.808 170.929 424.393 171.515L433.939 181.061ZM400 58.5H411V55.5H400V58.5ZM433.5 81V180H436.5V81H433.5ZM411 58.5C423.426 58.5 433.5 68.5736 433.5 81H436.5C436.5 66.9167 425.083 55.5 411 55.5V58.5Z" fill="#D6D3D1"/>
<path d="M308.5 189H213.833C207.298 189 202 194.298 202 200.833V260C202 266.535 207.298 271.833 213.833 271.833H308.5C315.035 271.833 320.333 266.535 320.333 260V200.833C320.333 194.298 315.035 189 308.5 189Z" stroke="#78716C" stroke-width="6" stroke-linecap="round" stroke-linejoin="round"/>
<path d="M237.5 295.5H284.833M261.167 271.833V295.5" stroke="#78716C" stroke-width="6" stroke-linecap="round" stroke-linejoin="round"/>
<path fill-rule="evenodd" clip-rule="evenodd" d="M254.511 223.011C254.674 222.848 254.867 222.719 255.079 222.631C255.292 222.542 255.52 222.497 255.75 222.497C255.98 222.497 256.208 222.542 256.421 222.631C256.634 222.719 256.827 222.848 256.989 223.011L261 227.026L265.011 223.011C265.34 222.683 265.785 222.498 266.25 222.498C266.715 222.498 267.161 222.683 267.489 223.011C267.818 223.34 268.002 223.785 268.002 224.25C268.002 224.715 267.818 225.161 267.489 225.489L263.475 229.5L267.489 233.511C267.818 233.84 268.002 234.285 268.002 234.75C268.002 235.215 267.818 235.661 267.489 235.989C267.161 236.318 266.715 236.502 266.25 236.502C265.785 236.502 265.34 236.318 265.011 235.989L261 231.975L256.989 235.989C256.661 236.318 256.215 236.502 255.75 236.502C255.285 236.502 254.84 236.318 254.511 235.989C254.183 235.661 253.998 235.215 253.998 234.75C253.998 234.285 254.183 233.84 254.511 233.511L258.526 229.5L254.511 225.489C254.348 225.327 254.219 225.134 254.131 224.921C254.042 224.708 253.997 224.48 253.997 224.25C253.997 224.02 254.042 223.792 254.131 223.579C254.219 223.367 254.348 223.174 254.511 223.011Z" fill="#DC2626"/>
<path d="M247 203.25H243.5C241.643 203.25 239.863 203.987 238.55 205.3C237.237 206.613 236.5 208.393 236.5 210.25V247C236.5 248.857 237.237 250.637 238.55 251.95C239.863 253.263 241.643 254 243.5 254H278.5C280.357 254 282.137 253.263 283.45 251.95C284.763 250.637 285.5 248.857 285.5 247V210.25C285.5 208.393 284.763 206.613 283.45 205.3C282.137 203.987 280.357 203.25 278.5 203.25H275V206.75H278.5C279.428 206.75 280.318 207.119 280.975 207.775C281.631 208.432 282 209.322 282 210.25V247C282 247.928 281.631 248.818 280.975 249.475C280.318 250.131 279.428 250.5 278.5 250.5H243.5C242.572 250.5 241.682 250.131 241.025 249.475C240.369 248.818 240 247.928 240 247V210.25C240 209.322 240.369 208.432 241.025 207.775C241.682 207.119 242.572 206.75 243.5 206.75H247V203.25Z" fill="#DC2626"/>
<path d="M266.25 201.5C266.714 201.5 267.159 201.684 267.487 202.013C267.816 202.341 268 202.786 268 203.25V206.75C268 207.214 267.816 207.659 267.487 207.987C267.159 208.316 266.714 208.5 266.25 208.5H255.75C255.286 208.5 254.841 208.316 254.513 207.987C254.184 207.659 254 207.214 254 206.75V203.25C254 202.786 254.184 202.341 254.513 202.013C254.841 201.684 255.286 201.5 255.75 201.5H266.25ZM255.75 198C254.358 198 253.022 198.553 252.038 199.538C251.053 200.522 250.5 201.858 250.5 203.25V206.75C250.5 208.142 251.053 209.478 252.038 210.462C253.022 211.447 254.358 212 255.75 212H266.25C267.642 212 268.978 211.447 269.962 210.462C270.947 209.478 271.5 208.142 271.5 206.75V203.25C271.5 201.858 270.947 200.522 269.962 199.538C268.978 198.553 267.642 198 266.25 198H255.75Z" fill="#DC2626"/>
<rect width="37" height="36" transform="translate(295 172)" fill="white"/>
<path d="M298 176.809L311.895 174.925L311.901 188.274L298.013 188.352L298 176.809V176.809ZM311.888 189.812L311.899 203.172L298.011 201.271L298.01 189.722L311.888 189.812ZM313.573 174.678L331.996 172V188.104L313.573 188.249V174.678ZM332 189.937L331.996 205.969L313.572 203.379L313.547 189.907L332 189.937Z" fill="#00ADEF"/>
<path d="M302 58.5C302.829 58.5 303.5 57.8284 303.5 57C303.5 56.1716 302.829 55.5 302 55.5V58.5ZM260.106 186.061C260.692 186.646 261.642 186.646 262.228 186.061L271.774 176.515C272.359 175.929 272.359 174.979 271.774 174.393C271.188 173.808 270.238 173.808 269.652 174.393L261.167 182.879L252.682 174.393C252.096 173.808 251.146 173.808 250.56 174.393C249.975 174.979 249.975 175.929 250.56 176.515L260.106 186.061ZM302 55.5H285.167V58.5H302V55.5ZM259.667 81V185H262.667V81H259.667ZM285.167 55.5C271.084 55.5 259.667 66.9167 259.667 81H262.667C262.667 68.5736 272.741 58.5 285.167 58.5V55.5Z" fill="#D6D3D1"/>
<defs>
<clipPath id="clip0_190_2327">
<rect width="35" height="35" fill="white" transform="translate(471 171)"/>
</clipPath>
<clipPath id="clip1_190_2327">
<rect width="35" height="35" fill="white" transform="translate(645 171)"/>
</clipPath>
</defs>
</svg>
