<svg width="807" height="356" viewBox="0 0 807 356" fill="none" xmlns="http://www.w3.org/2000/svg">
<rect width="807" height="356" fill="white"/>
<rect x="397.5" y="154.5" width="396" height="96" rx="7.5" stroke="#A8A29E"/>
<rect x="426.75" y="175.75" width="76.5" height="53.5" rx="9.25" fill="#DCFCE7"/>
<path d="M471.471 209H468.611L467.511 205.78H462.451L461.351 209H458.531L463.351 195.8H466.651L471.471 209ZM463.071 203.74H466.891L464.971 197.98L463.071 203.74Z" fill="#15803D"/>
<rect x="426.75" y="175.75" width="76.5" height="53.5" rx="9.25" stroke="#16A34A" stroke-width="1.5"/>
<rect x="557.75" y="175.75" width="76.5" height="53.5" rx="9.25" fill="#E0E7FF"/>
<path d="M591.001 209V195.8H596.781C598.381 195.8 599.561 196.113 600.321 196.74C601.081 197.367 601.461 198.253 601.461 199.4C601.461 200.107 601.248 200.733 600.821 201.28C600.395 201.827 599.768 202.173 598.941 202.32V202.34C599.861 202.473 600.568 202.82 601.061 203.38C601.555 203.94 601.801 204.607 601.801 205.38C601.801 206.513 601.388 207.4 600.561 208.04C599.748 208.68 598.555 209 596.981 209H591.001ZM593.681 206.92H596.741C597.488 206.92 598.041 206.767 598.401 206.46C598.761 206.153 598.941 205.727 598.941 205.18C598.941 204.62 598.761 204.193 598.401 203.9C598.041 203.607 597.488 203.46 596.741 203.46H593.681V206.92ZM593.681 201.34H596.421C597.875 201.34 598.601 200.773 598.601 199.64C598.601 198.507 597.875 197.94 596.421 197.94H593.681V201.34Z" fill="#4338CA"/>
<rect x="557.75" y="175.75" width="76.5" height="53.5" rx="9.25" stroke="#4F46E5" stroke-width="1.5"/>
<path d="M553.707 203.207C554.098 202.817 554.098 202.183 553.707 201.793L547.343 195.429C546.953 195.038 546.319 195.038 545.929 195.429C545.538 195.819 545.538 196.453 545.929 196.843L551.586 202.5L545.929 208.157C545.538 208.547 545.538 209.181 545.929 209.571C546.319 209.962 546.953 209.962 547.343 209.571L553.707 203.207ZM508 203.5H553V201.5H508V203.5Z" fill="#A8A29E"/>
<rect x="688.75" y="175.75" width="76.5" height="53.5" rx="9.25" fill="#FEF3C7"/>
<path d="M733.194 205.36C732.94 206.213 732.54 206.927 731.994 207.5C731.447 208.073 730.8 208.5 730.054 208.78C729.307 209.06 728.487 209.2 727.594 209.2C726.287 209.2 725.154 208.927 724.194 208.38C723.247 207.833 722.514 207.053 721.994 206.04C721.487 205.027 721.234 203.813 721.234 202.4C721.234 200.987 721.487 199.773 721.994 198.76C722.514 197.747 723.247 196.967 724.194 196.42C725.154 195.873 726.274 195.6 727.554 195.6C728.46 195.6 729.28 195.727 730.014 195.98C730.747 196.22 731.367 196.593 731.874 197.1C732.394 197.607 732.774 198.247 733.014 199.02L730.514 200.08C730.287 199.28 729.94 198.713 729.474 198.38C729.007 198.033 728.407 197.86 727.674 197.86C726.954 197.86 726.32 198.033 725.774 198.38C725.24 198.727 724.827 199.24 724.534 199.92C724.24 200.587 724.094 201.413 724.094 202.4C724.094 203.373 724.227 204.2 724.494 204.88C724.774 205.56 725.18 206.073 725.714 206.42C726.247 206.767 726.9 206.94 727.674 206.94C728.394 206.94 729.014 206.747 729.534 206.36C730.067 205.973 730.44 205.387 730.654 204.6L733.194 205.36Z" fill="#B45309"/>
<rect x="688.75" y="175.75" width="76.5" height="53.5" rx="9.25" stroke="#F59E0B" stroke-width="1.5"/>
<path d="M684.707 203.207C685.098 202.817 685.098 202.183 684.707 201.793L678.343 195.429C677.953 195.038 677.319 195.038 676.929 195.429C676.538 195.819 676.538 196.453 676.929 196.843L682.586 202.5L676.929 208.157C676.538 208.547 676.538 209.181 676.929 209.571C677.319 209.962 677.953 209.962 678.343 209.571L684.707 203.207ZM639 203.5H684V201.5H639V203.5Z" fill="#A8A29E"/>
<path d="M503.54 129.6C504.74 129.6 505.793 129.807 506.7 130.22C507.607 130.633 508.38 131.247 509.02 132.06L507.48 133.84C506.933 133.147 506.333 132.64 505.68 132.32C505.04 131.987 504.293 131.82 503.44 131.82C502.88 131.82 502.413 131.893 502.04 132.04C501.68 132.187 501.413 132.38 501.24 132.62C501.08 132.86 501 133.127 501 133.42C501 133.78 501.14 134.087 501.42 134.34C501.7 134.58 502.18 134.78 502.86 134.94L505.32 135.5C506.627 135.793 507.56 136.233 508.12 136.82C508.693 137.393 508.98 138.14 508.98 139.06C508.98 139.927 508.753 140.673 508.3 141.3C507.847 141.913 507.213 142.387 506.4 142.72C505.587 143.04 504.653 143.2 503.6 143.2C502.68 143.2 501.833 143.093 501.06 142.88C500.3 142.653 499.62 142.347 499.02 141.96C498.42 141.573 497.92 141.127 497.52 140.62L499.08 138.76C499.387 139.187 499.767 139.567 500.22 139.9C500.673 140.233 501.187 140.5 501.76 140.7C502.347 140.887 502.96 140.98 503.6 140.98C504.147 140.98 504.607 140.92 504.98 140.8C505.367 140.667 505.653 140.487 505.84 140.26C506.04 140.02 506.14 139.733 506.14 139.4C506.14 139.053 506.02 138.76 505.78 138.52C505.553 138.267 505.127 138.073 504.5 137.94L501.82 137.34C501.047 137.153 500.38 136.913 499.82 136.62C499.273 136.313 498.853 135.927 498.56 135.46C498.28 134.98 498.14 134.413 498.14 133.76C498.14 132.973 498.353 132.267 498.78 131.64C499.207 131.013 499.82 130.52 500.62 130.16C501.433 129.787 502.407 129.6 503.54 129.6ZM523.331 129.8V143H520.571V129.8H523.331ZM514.751 129.8V143H511.991V129.8H514.751ZM522.011 135.22V137.44H513.371V135.22H522.011ZM538.636 143H535.776L534.676 139.78H529.616L528.516 143H525.696L530.516 129.8H533.816L538.636 143ZM530.236 137.74H534.056L532.136 131.98L530.236 137.74ZM546.814 129.8C548.308 129.8 549.481 130.16 550.334 130.88C551.188 131.6 551.614 132.567 551.614 133.78C551.614 135.073 551.188 136.067 550.334 136.76C549.481 137.44 548.314 137.78 546.834 137.78L546.554 137.94H543.714V143H540.994V129.8H546.814ZM546.494 135.84C547.268 135.84 547.841 135.687 548.214 135.38C548.601 135.06 548.794 134.573 548.794 133.92C548.794 133.267 548.601 132.787 548.214 132.48C547.841 132.16 547.268 132 546.494 132H543.714V135.84H546.494ZM548.114 136.42L552.394 143H549.294L545.754 137.22L548.114 136.42ZM554.988 143V129.8H564.888V132.02H557.748V135.3H563.368V137.42H557.748V140.78H565.168V143H554.988ZM573.144 129.8C575.211 129.8 576.811 130.373 577.944 131.52C579.078 132.653 579.644 134.28 579.644 136.4C579.644 138.507 579.078 140.133 577.944 141.28C576.811 142.427 575.211 143 573.144 143H568.044V129.8H573.144ZM573.004 140.8C574.258 140.8 575.198 140.427 575.824 139.68C576.464 138.92 576.784 137.827 576.784 136.4C576.784 134.973 576.464 133.887 575.824 133.14C575.198 132.38 574.258 132 573.004 132H570.804V140.8H573.004ZM594.873 129.8C595.886 129.8 596.753 129.973 597.473 130.32C598.193 130.653 598.746 131.14 599.133 131.78C599.533 132.407 599.733 133.167 599.733 134.06C599.733 134.953 599.533 135.72 599.133 136.36C598.746 136.987 598.193 137.473 597.473 137.82C596.753 138.153 595.886 138.32 594.873 138.32H592.093V143H589.333V129.8H594.873ZM594.453 136.14C595.279 136.14 595.899 135.967 596.313 135.62C596.726 135.26 596.933 134.74 596.933 134.06C596.933 133.367 596.726 132.847 596.313 132.5C595.899 132.153 595.279 131.98 594.453 131.98H592.093V136.14H594.453ZM605.422 129.8V143H602.662V129.8H605.422ZM614.794 129.8C615.807 129.8 616.674 129.973 617.394 130.32C618.114 130.653 618.667 131.14 619.054 131.78C619.454 132.407 619.654 133.167 619.654 134.06C619.654 134.953 619.454 135.72 619.054 136.36C618.667 136.987 618.114 137.473 617.394 137.82C616.674 138.153 615.807 138.32 614.794 138.32H612.014V143H609.254V129.8H614.794ZM614.374 136.14C615.2 136.14 615.82 135.967 616.234 135.62C616.647 135.26 616.854 134.74 616.854 134.06C616.854 133.367 616.647 132.847 616.234 132.5C615.82 132.153 615.2 131.98 614.374 131.98H612.014V136.14H614.374ZM622.583 143V129.8H632.483V132.02H625.343V135.3H630.963V137.42H625.343V140.78H632.763V143H622.583ZM638.4 140.78H645.36V143H635.64V129.8H638.4V140.78ZM650.811 129.8V143H648.051V129.8H650.811ZM665.983 129.8V143H662.823L658.203 135.24L657.063 133.08H657.043L657.123 135.36V143H654.643V129.8H657.783L662.403 137.54L663.543 139.72H663.583L663.503 137.44V129.8H665.983ZM669.828 143V129.8H679.728V132.02H672.588V135.3H678.208V137.42H672.588V140.78H680.008V143H669.828Z" fill="#57534E"/>
<rect x="13.75" y="14.75" width="199.5" height="118.5" rx="7.25" stroke="#A8A29E" stroke-width="1.5"/>
<line x1="18" y1="49.5" x2="210" y2="49.5" stroke="#D6D3D1"/>
<path d="M36.54 26.6C37.74 26.6 38.7933 26.8067 39.7 27.22C40.6067 27.6333 41.38 28.2467 42.02 29.06L40.48 30.84C39.9333 30.1467 39.3333 29.64 38.68 29.32C38.04 28.9867 37.2933 28.82 36.44 28.82C35.88 28.82 35.4133 28.8933 35.04 29.04C34.68 29.1867 34.4133 29.38 34.24 29.62C34.08 29.86 34 30.1267 34 30.42C34 30.78 34.14 31.0867 34.42 31.34C34.7 31.58 35.18 31.78 35.86 31.94L38.32 32.5C39.6267 32.7933 40.56 33.2333 41.12 33.82C41.6933 34.3933 41.98 35.14 41.98 36.06C41.98 36.9267 41.7533 37.6733 41.3 38.3C40.8467 38.9133 40.2133 39.3867 39.4 39.72C38.5867 40.04 37.6533 40.2 36.6 40.2C35.68 40.2 34.8333 40.0933 34.06 39.88C33.3 39.6533 32.62 39.3467 32.02 38.96C31.42 38.5733 30.92 38.1267 30.52 37.62L32.08 35.76C32.3867 36.1867 32.7667 36.5667 33.22 36.9C33.6733 37.2333 34.1867 37.5 34.76 37.7C35.3467 37.8867 35.96 37.98 36.6 37.98C37.1467 37.98 37.6067 37.92 37.98 37.8C38.3667 37.6667 38.6533 37.4867 38.84 37.26C39.04 37.02 39.14 36.7333 39.14 36.4C39.14 36.0533 39.02 35.76 38.78 35.52C38.5533 35.2667 38.1267 35.0733 37.5 34.94L34.82 34.34C34.0467 34.1533 33.38 33.9133 32.82 33.62C32.2733 33.3133 31.8533 32.9267 31.56 32.46C31.28 31.98 31.14 31.4133 31.14 30.76C31.14 29.9733 31.3533 29.2667 31.78 28.64C32.2067 28.0133 32.82 27.52 33.62 27.16C34.4333 26.7867 35.4067 26.6 36.54 26.6ZM48.9511 40.2C47.8978 40.2 46.9778 39.9933 46.1911 39.58C45.4178 39.1667 44.8178 38.5733 44.3911 37.8C43.9644 37.0267 43.7511 36.0933 43.7511 35C43.7511 33.9067 43.9644 32.9733 44.3911 32.2C44.8178 31.4267 45.4111 30.8333 46.1711 30.42C46.9444 30.0067 47.8244 29.8 48.8111 29.8C49.8244 29.8 50.6844 30.0067 51.3911 30.42C52.0978 30.82 52.6378 31.3733 53.0111 32.08C53.3844 32.7733 53.5711 33.5667 53.5711 34.46C53.5711 34.7267 53.5644 34.98 53.5511 35.22C53.5378 35.46 53.5178 35.6733 53.4911 35.86H45.5111V33.96H52.2911L50.9711 34.44C50.9711 33.6 50.7778 32.9533 50.3911 32.5C50.0178 32.0467 49.4844 31.82 48.7911 31.82C48.2844 31.82 47.8444 31.94 47.4711 32.18C47.1111 32.42 46.8378 32.78 46.6511 33.26C46.4644 33.7267 46.3711 34.32 46.3711 35.04C46.3711 35.7467 46.4711 36.3333 46.6711 36.8C46.8844 37.2533 47.1778 37.5933 47.5511 37.82C47.9378 38.0467 48.3978 38.16 48.9311 38.16C49.5178 38.16 49.9911 38.0467 50.3511 37.82C50.7111 37.5933 50.9911 37.28 51.1911 36.88L53.3711 37.72C53.1578 38.24 52.8311 38.6867 52.3911 39.06C51.9644 39.4333 51.4511 39.72 50.8511 39.92C50.2644 40.1067 49.6311 40.2 48.9511 40.2ZM55.8931 40V30H58.2731L58.4531 31.96C58.7198 31.2667 59.1065 30.7333 59.6131 30.36C60.1331 29.9867 60.7798 29.8 61.5531 29.8C61.7798 29.8 61.9865 29.82 62.1731 29.86C62.3598 29.9 62.5131 29.9533 62.6331 30.02L62.3131 32.32C62.1798 32.2667 62.0131 32.2267 61.8131 32.2C61.6265 32.1733 61.3798 32.16 61.0731 32.16C60.6731 32.16 60.2865 32.26 59.9131 32.46C59.5398 32.6467 59.2331 32.94 58.9931 33.34C58.7531 33.7267 58.6331 34.22 58.6331 34.82V40H55.8931ZM70.8906 30H73.7306L69.9306 40H66.7706L62.9706 30H65.8906L68.3706 37.9L70.8906 30ZM76.6286 28.56C76.0553 28.56 75.6286 28.44 75.3486 28.2C75.0686 27.9467 74.9286 27.58 74.9286 27.1C74.9286 26.6067 75.0686 26.24 75.3486 26C75.6286 25.7467 76.0553 25.62 76.6286 25.62C77.2019 25.62 77.6286 25.7467 77.9086 26C78.1886 26.24 78.3286 26.6067 78.3286 27.1C78.3286 27.58 78.1886 27.9467 77.9086 28.2C77.6286 28.44 77.2019 28.56 76.6286 28.56ZM77.9886 30V40H75.2486V30H77.9886ZM85.4331 29.8C86.3265 29.8 87.0798 29.9333 87.6931 30.2C88.3198 30.4533 88.8198 30.8067 89.1931 31.26C89.5798 31.7 89.8531 32.1933 90.0131 32.74L87.4531 33.66C87.3198 33.06 87.0931 32.6067 86.7731 32.3C86.4531 31.9933 86.0198 31.84 85.4731 31.84C84.9665 31.84 84.5331 31.96 84.1731 32.2C83.8131 32.4267 83.5398 32.78 83.3531 33.26C83.1665 33.7267 83.0731 34.3133 83.0731 35.02C83.0731 35.7267 83.1665 36.3133 83.3531 36.78C83.5531 37.2467 83.8331 37.5933 84.1931 37.82C84.5665 38.0467 84.9998 38.16 85.4931 38.16C85.8931 38.16 86.2331 38.0933 86.5131 37.96C86.7931 37.8133 87.0198 37.6067 87.1931 37.34C87.3798 37.0733 87.5065 36.7533 87.5731 36.38L90.0531 37.18C89.9065 37.78 89.6331 38.3067 89.2331 38.76C88.8331 39.2133 88.3198 39.5667 87.6931 39.82C87.0665 40.0733 86.3398 40.2 85.5131 40.2C84.4865 40.2 83.5798 39.9933 82.7931 39.58C82.0065 39.1667 81.3998 38.5733 80.9731 37.8C80.5465 37.0267 80.3331 36.0933 80.3331 35C80.3331 33.9067 80.5465 32.9733 80.9731 32.2C81.3998 31.4267 81.9998 30.8333 82.7731 30.42C83.5465 30.0067 84.4331 29.8 85.4331 29.8ZM96.8222 40.2C95.7689 40.2 94.8489 39.9933 94.0622 39.58C93.2889 39.1667 92.6889 38.5733 92.2622 37.8C91.8355 37.0267 91.6222 36.0933 91.6222 35C91.6222 33.9067 91.8355 32.9733 92.2622 32.2C92.6889 31.4267 93.2822 30.8333 94.0422 30.42C94.8155 30.0067 95.6955 29.8 96.6822 29.8C97.6955 29.8 98.5555 30.0067 99.2622 30.42C99.9689 30.82 100.509 31.3733 100.882 32.08C101.256 32.7733 101.442 33.5667 101.442 34.46C101.442 34.7267 101.436 34.98 101.422 35.22C101.409 35.46 101.389 35.6733 101.362 35.86H93.3822V33.96H100.162L98.8422 34.44C98.8422 33.6 98.6489 32.9533 98.2622 32.5C97.8889 32.0467 97.3555 31.82 96.6622 31.82C96.1555 31.82 95.7155 31.94 95.3422 32.18C94.9822 32.42 94.7089 32.78 94.5222 33.26C94.3355 33.7267 94.2422 34.32 94.2422 35.04C94.2422 35.7467 94.3422 36.3333 94.5422 36.8C94.7555 37.2533 95.0489 37.5933 95.4222 37.82C95.8089 38.0467 96.2689 38.16 96.8022 38.16C97.3889 38.16 97.8622 38.0467 98.2222 37.82C98.5822 37.5933 98.8622 37.28 99.0622 36.88L101.242 37.72C101.029 38.24 100.702 38.6867 100.262 39.06C99.8355 39.4333 99.3222 39.72 98.7222 39.92C98.1355 40.1067 97.5022 40.2 96.8222 40.2ZM112.143 40V31.64C112.143 31.3333 112.143 31.02 112.143 30.7C112.156 30.3667 112.17 30.0267 112.183 29.68C111.73 30.0933 111.223 30.4533 110.663 30.76C110.103 31.0667 109.53 31.28 108.943 31.4L108.583 29.08C108.89 29.0533 109.23 28.9667 109.603 28.82C109.99 28.66 110.376 28.4733 110.763 28.26C111.163 28.0333 111.523 27.8 111.843 27.56C112.176 27.3067 112.43 27.0533 112.603 26.8H114.843V40H112.143Z" fill="#44403C"/>
<path d="M35.632 61.44C36.3893 61.44 37.04 61.5733 37.584 61.84C38.1387 62.1067 38.5707 62.4853 38.88 62.976C39.1893 63.4667 39.344 64.0587 39.344 64.752C39.344 65.4347 39.1893 66.0267 38.88 66.528C38.5707 67.0187 38.1387 67.3973 37.584 67.664C37.04 67.9307 36.3893 68.064 35.632 68.064H33.28V72H31.568V61.44H35.632ZM35.36 66.592C36.1173 66.592 36.672 66.4373 37.024 66.128C37.3867 65.808 37.568 65.3493 37.568 64.752C37.568 64.144 37.3867 63.6853 37.024 63.376C36.672 63.056 36.1173 62.896 35.36 62.896H33.28V66.592H35.36ZM45.9833 66.864C45.9833 66.3307 45.8339 65.92 45.5353 65.632C45.2473 65.3333 44.8473 65.184 44.3353 65.184C43.8553 65.184 43.4446 65.296 43.1033 65.52C42.7619 65.744 42.5113 66.1067 42.3513 66.608L40.9113 66C41.1139 65.3493 41.5086 64.8267 42.0953 64.432C42.6926 64.0373 43.4606 63.84 44.3993 63.84C45.0393 63.84 45.6046 63.9467 46.0953 64.16C46.5859 64.3627 46.9699 64.672 47.2473 65.088C47.5353 65.504 47.6793 66.0373 47.6793 66.688V70.256C47.6793 70.6507 47.8766 70.848 48.2713 70.848C48.4633 70.848 48.6499 70.8213 48.8313 70.768L48.7353 71.952C48.4899 72.0693 48.1806 72.128 47.8073 72.128C47.4659 72.128 47.1566 72.0693 46.8793 71.952C46.6126 71.824 46.3993 71.6373 46.2393 71.392C46.0899 71.136 46.0153 70.8213 46.0153 70.448V70.336L46.3673 70.32C46.2713 70.736 46.0739 71.0827 45.7753 71.36C45.4766 71.6267 45.1299 71.8293 44.7352 71.968C44.3406 72.096 43.9406 72.16 43.5353 72.16C43.0339 72.16 42.5806 72.08 42.1753 71.92C41.7806 71.76 41.4659 71.52 41.2313 71.2C41.0073 70.8693 40.8953 70.464 40.8953 69.984C40.8953 69.3867 41.0873 68.896 41.4713 68.512C41.8659 68.128 42.4206 67.8667 43.1353 67.728L46.2393 67.12L46.2233 68.32L43.9673 68.784C43.5193 68.8693 43.1833 68.992 42.9593 69.152C42.7353 69.312 42.6233 69.5467 42.6233 69.856C42.6233 70.1547 42.7353 70.3947 42.9593 70.576C43.1939 70.7467 43.5033 70.832 43.8873 70.832C44.1539 70.832 44.4099 70.8 44.6553 70.736C44.9113 70.672 45.1406 70.5707 45.3433 70.432C45.5459 70.2827 45.7006 70.096 45.8073 69.872C45.9246 69.6373 45.9833 69.36 45.9833 69.04V66.864ZM50.4843 72V64H51.9403L52.1003 65.44C52.3136 64.9173 52.6283 64.5227 53.0443 64.256C53.4709 63.9787 53.9936 63.84 54.6123 63.84C54.7723 63.84 54.9323 63.856 55.0923 63.888C55.2523 63.9093 55.3856 63.9467 55.4923 64L55.2523 65.504C55.1349 65.4613 55.0016 65.4293 54.8523 65.408C54.7136 65.376 54.5216 65.36 54.2763 65.36C53.9456 65.36 53.6203 65.4507 53.3003 65.632C52.9803 65.8027 52.7136 66.064 52.5003 66.416C52.2976 66.768 52.1963 67.216 52.1963 67.76V72H50.4843ZM61.5614 66.864C61.5614 66.3307 61.412 65.92 61.1134 65.632C60.8254 65.3333 60.4254 65.184 59.9134 65.184C59.4334 65.184 59.0227 65.296 58.6814 65.52C58.34 65.744 58.0894 66.1067 57.9294 66.608L56.4894 66C56.692 65.3493 57.0867 64.8267 57.6734 64.432C58.2707 64.0373 59.0387 63.84 59.9774 63.84C60.6174 63.84 61.1827 63.9467 61.6734 64.16C62.164 64.3627 62.548 64.672 62.8254 65.088C63.1134 65.504 63.2574 66.0373 63.2574 66.688V70.256C63.2574 70.6507 63.4547 70.848 63.8494 70.848C64.0414 70.848 64.228 70.8213 64.4094 70.768L64.3134 71.952C64.068 72.0693 63.7587 72.128 63.3854 72.128C63.044 72.128 62.7347 72.0693 62.4574 71.952C62.1907 71.824 61.9774 71.6373 61.8174 71.392C61.668 71.136 61.5934 70.8213 61.5934 70.448V70.336L61.9454 70.32C61.8494 70.736 61.652 71.0827 61.3534 71.36C61.0547 71.6267 60.708 71.8293 60.3134 71.968C59.9187 72.096 59.5187 72.16 59.1134 72.16C58.612 72.16 58.1587 72.08 57.7534 71.92C57.3587 71.76 57.044 71.52 56.8094 71.2C56.5854 70.8693 56.4734 70.464 56.4734 69.984C56.4734 69.3867 56.6654 68.896 57.0494 68.512C57.444 68.128 57.9987 67.8667 58.7134 67.728L61.8174 67.12L61.8014 68.32L59.5454 68.784C59.0974 68.8693 58.7614 68.992 58.5374 69.152C58.3134 69.312 58.2014 69.5467 58.2014 69.856C58.2014 70.1547 58.3134 70.3947 58.5374 70.576C58.772 70.7467 59.0814 70.832 59.4654 70.832C59.732 70.832 59.988 70.8 60.2334 70.736C60.4894 70.672 60.7187 70.5707 60.9214 70.432C61.124 70.2827 61.2787 70.096 61.3854 69.872C61.5027 69.6373 61.5614 69.36 61.5614 69.04V66.864ZM66.0624 72V64H67.5824L67.6624 65.344C67.9397 64.832 68.3077 64.4533 68.7664 64.208C69.2357 63.9627 69.7317 63.84 70.2544 63.84C70.8304 63.84 71.3584 63.9733 71.8384 64.24C72.329 64.496 72.697 64.8853 72.9424 65.408C73.113 65.056 73.3477 64.7627 73.6464 64.528C73.945 64.2933 74.2757 64.1227 74.6384 64.016C75.001 63.8987 75.3584 63.84 75.7104 63.84C76.2224 63.84 76.7024 63.9467 77.1504 64.16C77.5984 64.3733 77.961 64.6987 78.2384 65.136C78.5157 65.5733 78.6544 66.1333 78.6544 66.816V72H76.9424V67.088C76.9424 66.4373 76.7877 65.968 76.4784 65.68C76.169 65.392 75.7744 65.248 75.2944 65.248C74.921 65.248 74.5744 65.3387 74.2544 65.52C73.945 65.7013 73.6944 65.9733 73.5024 66.336C73.3104 66.688 73.2144 67.1253 73.2144 67.648V72H71.5024V67.088C71.5024 66.4373 71.3477 65.968 71.0384 65.68C70.729 65.392 70.3344 65.248 69.8544 65.248C69.5344 65.248 69.2144 65.3333 68.8944 65.504C68.5744 65.6747 68.3077 65.9413 68.0944 66.304C67.881 66.6667 67.7744 67.1467 67.7744 67.744V72H66.0624ZM84.7699 72.16C83.9699 72.16 83.2659 71.9947 82.6579 71.664C82.0499 71.3333 81.5752 70.8587 81.2339 70.24C80.9032 69.6107 80.7379 68.864 80.7379 68C80.7379 67.136 80.9032 66.3947 81.2339 65.776C81.5752 65.1467 82.0445 64.6667 82.6419 64.336C83.2392 64.0053 83.9165 63.84 84.6739 63.84C85.4525 63.84 86.1139 64 86.6579 64.32C87.2019 64.64 87.6179 65.0773 87.9059 65.632C88.1939 66.1867 88.3379 66.816 88.3379 67.52C88.3379 67.712 88.3325 67.8933 88.3219 68.064C88.3112 68.2347 88.2952 68.384 88.2739 68.512H81.8419V67.2H87.5219L86.6739 67.456C86.6739 66.7307 86.4925 66.176 86.1299 65.792C85.7672 65.3973 85.2712 65.2 84.6419 65.2C84.1832 65.2 83.7832 65.3067 83.4419 65.52C83.1005 65.7333 82.8392 66.0533 82.6579 66.48C82.4765 66.896 82.3859 67.408 82.3859 68.016C82.3859 68.6133 82.4819 69.12 82.6739 69.536C82.8659 69.952 83.1379 70.2667 83.4899 70.48C83.8419 70.6933 84.2579 70.8 84.7379 70.8C85.2712 70.8 85.7032 70.6987 86.0339 70.496C86.3645 70.2933 86.6259 70.0107 86.8179 69.648L88.1779 70.288C87.9859 70.672 87.7245 71.008 87.3939 71.296C87.0739 71.5733 86.6899 71.7867 86.2419 71.936C85.7939 72.0853 85.3032 72.16 84.7699 72.16ZM92.6484 61.648V69.6C92.6484 69.9947 92.7497 70.2827 92.9524 70.464C93.1657 70.6453 93.4484 70.736 93.8004 70.736C94.0884 70.736 94.339 70.6933 94.5524 70.608C94.7657 70.512 94.963 70.384 95.1444 70.224L95.5284 71.472C95.283 71.6853 94.979 71.856 94.6164 71.984C94.2644 72.1013 93.8697 72.16 93.4324 72.16C92.9737 72.16 92.5524 72.0853 92.1684 71.936C91.7844 71.7867 91.4857 71.5467 91.2724 71.216C91.059 70.8747 90.947 70.432 90.9364 69.888V62.128L92.6484 61.648ZM95.4004 64V65.344H89.4004V64H95.4004ZM100.614 72.16C99.8136 72.16 99.1096 71.9947 98.5016 71.664C97.8936 71.3333 97.419 70.8587 97.0776 70.24C96.747 69.6107 96.5816 68.864 96.5816 68C96.5816 67.136 96.747 66.3947 97.0776 65.776C97.419 65.1467 97.8883 64.6667 98.4856 64.336C99.083 64.0053 99.7603 63.84 100.518 63.84C101.296 63.84 101.958 64 102.502 64.32C103.046 64.64 103.462 65.0773 103.75 65.632C104.038 66.1867 104.182 66.816 104.182 67.52C104.182 67.712 104.176 67.8933 104.166 68.064C104.155 68.2347 104.139 68.384 104.118 68.512H97.6856V67.2H103.366L102.518 67.456C102.518 66.7307 102.336 66.176 101.974 65.792C101.611 65.3973 101.115 65.2 100.486 65.2C100.027 65.2 99.627 65.3067 99.2856 65.52C98.9443 65.7333 98.683 66.0533 98.5016 66.48C98.3203 66.896 98.2296 67.408 98.2296 68.016C98.2296 68.6133 98.3256 69.12 98.5176 69.536C98.7096 69.952 98.9816 70.2667 99.3336 70.48C99.6856 70.6933 100.102 70.8 100.582 70.8C101.115 70.8 101.547 70.6987 101.878 70.496C102.208 70.2933 102.47 70.0107 102.662 69.648L104.022 70.288C103.83 70.672 103.568 71.008 103.238 71.296C102.918 71.5733 102.534 71.7867 102.086 71.936C101.638 72.0853 101.147 72.16 100.614 72.16ZM106.344 72V64H107.8L107.96 65.44C108.173 64.9173 108.488 64.5227 108.904 64.256C109.33 63.9787 109.853 63.84 110.472 63.84C110.632 63.84 110.792 63.856 110.952 63.888C111.112 63.9093 111.245 63.9467 111.352 64L111.112 65.504C110.994 65.4613 110.861 65.4293 110.712 65.408C110.573 65.376 110.381 65.36 110.136 65.36C109.805 65.36 109.48 65.4507 109.16 65.632C108.84 65.8027 108.573 66.064 108.36 66.416C108.157 66.768 108.056 67.216 108.056 67.76V72H106.344ZM115.727 72.16C114.927 72.16 114.197 72.0053 113.535 71.696C112.874 71.3867 112.351 70.9493 111.967 70.384L113.151 69.36C113.386 69.7973 113.722 70.1493 114.159 70.416C114.607 70.672 115.141 70.8 115.759 70.8C116.25 70.8 116.639 70.7147 116.927 70.544C117.215 70.3733 117.359 70.1333 117.359 69.824C117.359 69.6213 117.29 69.4453 117.151 69.296C117.023 69.136 116.773 69.0133 116.399 68.928L114.719 68.576C113.866 68.4053 113.258 68.1333 112.895 67.76C112.533 67.376 112.351 66.8907 112.351 66.304C112.351 65.8667 112.479 65.4613 112.735 65.088C112.991 64.7147 113.365 64.416 113.855 64.192C114.357 63.9573 114.954 63.84 115.647 63.84C116.447 63.84 117.13 63.984 117.695 64.272C118.261 64.5493 118.693 64.9493 118.991 65.472L117.807 66.464C117.605 66.0373 117.306 65.7227 116.911 65.52C116.517 65.3067 116.106 65.2 115.679 65.2C115.338 65.2 115.045 65.2427 114.799 65.328C114.554 65.4133 114.367 65.5307 114.239 65.68C114.111 65.8293 114.047 66.0053 114.047 66.208C114.047 66.4213 114.127 66.608 114.287 66.768C114.447 66.928 114.735 67.0507 115.151 67.136L116.975 67.52C117.743 67.6693 118.282 67.9253 118.591 68.288C118.911 68.64 119.071 69.072 119.071 69.584C119.071 70.096 118.938 70.5493 118.671 70.944C118.405 71.328 118.021 71.6267 117.519 71.84C117.018 72.0533 116.421 72.16 115.727 72.16ZM42.0025 91.704C41.3732 91.704 40.8558 91.512 40.4505 91.128C40.0558 90.7333 39.8585 90.232 39.8585 89.624C39.8585 89.0053 40.0558 88.5093 40.4505 88.136C40.8558 87.752 41.3732 87.56 42.0025 87.56C42.6425 87.56 43.1598 87.752 43.5545 88.136C43.9492 88.5093 44.1465 89.0053 44.1465 89.624C44.1465 90.232 43.9492 90.7333 43.5545 91.128C43.1598 91.512 42.6425 91.704 42.0025 91.704ZM59.872 84.44C61.0027 84.44 61.8987 84.7227 62.56 85.288C63.232 85.8533 63.568 86.616 63.568 87.576C63.568 88.568 63.232 89.336 62.56 89.88C61.8987 90.4133 61.0027 90.68 59.872 90.68L59.712 90.776H57.264V95H55.568V84.44H59.872ZM59.744 89.352C60.4373 89.352 60.9493 89.2133 61.28 88.936C61.6213 88.648 61.792 88.2107 61.792 87.624C61.792 87.048 61.6213 86.616 61.28 86.328C60.9493 86.04 60.4373 85.896 59.744 85.896H57.264V89.352H59.744ZM60.752 89.704L64.192 95H62.224L59.28 90.376L60.752 89.704ZM69.3793 95.16C68.5793 95.16 67.8753 94.9947 67.2673 94.664C66.6593 94.3333 66.1846 93.8587 65.8433 93.24C65.5126 92.6107 65.3473 91.864 65.3473 91C65.3473 90.136 65.5126 89.3947 65.8433 88.776C66.1846 88.1467 66.6539 87.6667 67.2513 87.336C67.8486 87.0053 68.5259 86.84 69.2833 86.84C70.0619 86.84 70.7233 87 71.2673 87.32C71.8113 87.64 72.2273 88.0773 72.5153 88.632C72.8033 89.1867 72.9473 89.816 72.9473 90.52C72.9473 90.712 72.9419 90.8933 72.9313 91.064C72.9206 91.2347 72.9046 91.384 72.8833 91.512H66.4513V90.2H72.1313L71.2833 90.456C71.2833 89.7307 71.1019 89.176 70.7393 88.792C70.3766 88.3973 69.8806 88.2 69.2513 88.2C68.7926 88.2 68.3926 88.3067 68.0513 88.52C67.7099 88.7333 67.4486 89.0533 67.2673 89.48C67.0859 89.896 66.9953 90.408 66.9953 91.016C66.9953 91.6133 67.0913 92.12 67.2833 92.536C67.4753 92.952 67.7473 93.2667 68.0993 93.48C68.4513 93.6933 68.8673 93.8 69.3473 93.8C69.8806 93.8 70.3126 93.6987 70.6433 93.496C70.9739 93.2933 71.2353 93.0107 71.4273 92.648L72.7873 93.288C72.5953 93.672 72.3339 94.008 72.0033 94.296C71.6833 94.5733 71.2993 94.7867 70.8513 94.936C70.4033 95.0853 69.9126 95.16 69.3793 95.16ZM75.1093 98.36V87H76.6293L76.7573 89.24L76.5333 88.968C76.6613 88.552 76.8586 88.184 77.1253 87.864C77.3919 87.544 77.7226 87.2933 78.1173 87.112C78.5226 86.9307 78.9653 86.84 79.4453 86.84C80.0959 86.84 80.6879 87.0053 81.2213 87.336C81.7546 87.6667 82.1759 88.1413 82.4853 88.76C82.7946 89.368 82.9493 90.1093 82.9493 90.984C82.9493 91.8587 82.7893 92.6107 82.4693 93.24C82.1599 93.8587 81.7333 94.3333 81.1893 94.664C80.6559 94.9947 80.0586 95.16 79.3973 95.16C78.7146 95.16 78.1333 94.984 77.6533 94.632C77.1733 94.2693 76.8319 93.8107 76.6293 93.256L76.8213 92.984V98.36H75.1093ZM79.0293 93.768C79.7226 93.768 80.2613 93.5227 80.6453 93.032C81.0399 92.5413 81.2373 91.864 81.2373 91C81.2373 90.136 81.0453 89.4587 80.6613 88.968C80.2773 88.4667 79.7439 88.216 79.0613 88.216C78.6133 88.216 78.2186 88.3333 77.8773 88.568C77.5466 88.792 77.2853 89.112 77.0933 89.528C76.9119 89.9333 76.8213 90.424 76.8213 91C76.8213 91.5653 76.9119 92.056 77.0933 92.472C77.2746 92.888 77.5306 93.208 77.8613 93.432C78.1919 93.656 78.5813 93.768 79.0293 93.768ZM88.6125 86.84C89.3912 86.84 90.0792 87.0053 90.6765 87.336C91.2738 87.6667 91.7378 88.1467 92.0685 88.776C92.4098 89.3947 92.5805 90.136 92.5805 91C92.5805 91.864 92.4098 92.6107 92.0685 93.24C91.7378 93.8587 91.2738 94.3333 90.6765 94.664C90.0792 94.9947 89.3912 95.16 88.6125 95.16C87.8338 95.16 87.1458 94.9947 86.5485 94.664C85.9512 94.3333 85.4818 93.8587 85.1405 93.24C84.7992 92.6107 84.6285 91.864 84.6285 91C84.6285 90.136 84.7992 89.3947 85.1405 88.776C85.4818 88.1467 85.9512 87.6667 86.5485 87.336C87.1458 87.0053 87.8338 86.84 88.6125 86.84ZM88.6125 88.184C88.1325 88.184 87.7218 88.296 87.3805 88.52C87.0498 88.7333 86.7938 89.048 86.6125 89.464C86.4312 89.88 86.3405 90.392 86.3405 91C86.3405 91.5973 86.4312 92.1093 86.6125 92.536C86.7938 92.952 87.0498 93.272 87.3805 93.496C87.7218 93.7093 88.1325 93.816 88.6125 93.816C89.0925 93.816 89.4978 93.7093 89.8285 93.496C90.1592 93.272 90.4152 92.952 90.5965 92.536C90.7778 92.1093 90.8685 91.5973 90.8685 91C90.8685 90.392 90.7778 89.88 90.5965 89.464C90.4152 89.048 90.1592 88.7333 89.8285 88.52C89.4978 88.296 89.0925 88.184 88.6125 88.184ZM97.7743 95.16C96.9743 95.16 96.2436 95.0053 95.5823 94.696C94.9209 94.3867 94.3983 93.9493 94.0143 93.384L95.1983 92.36C95.4329 92.7973 95.7689 93.1493 96.2063 93.416C96.6543 93.672 97.1876 93.8 97.8063 93.8C98.2969 93.8 98.6863 93.7147 98.9743 93.544C99.2623 93.3733 99.4063 93.1333 99.4063 92.824C99.4063 92.6213 99.3369 92.4453 99.1983 92.296C99.0703 92.136 98.8196 92.0133 98.4463 91.928L96.7663 91.576C95.9129 91.4053 95.3049 91.1333 94.9423 90.76C94.5796 90.376 94.3983 89.8907 94.3983 89.304C94.3983 88.8667 94.5263 88.4613 94.7823 88.088C95.0383 87.7147 95.4116 87.416 95.9023 87.192C96.4036 86.9573 97.0009 86.84 97.6943 86.84C98.4943 86.84 99.1769 86.984 99.7423 87.272C100.308 87.5493 100.74 87.9493 101.038 88.472L99.8543 89.464C99.6516 89.0373 99.3529 88.7227 98.9583 88.52C98.5636 88.3067 98.1529 88.2 97.7263 88.2C97.3849 88.2 97.0916 88.2427 96.8463 88.328C96.6009 88.4133 96.4143 88.5307 96.2863 88.68C96.1583 88.8293 96.0943 89.0053 96.0943 89.208C96.0943 89.4213 96.1743 89.608 96.3343 89.768C96.4943 89.928 96.7823 90.0507 97.1983 90.136L99.0223 90.52C99.7903 90.6693 100.329 90.9253 100.638 91.288C100.958 91.64 101.118 92.072 101.118 92.584C101.118 93.096 100.985 93.5493 100.718 93.944C100.452 94.328 100.068 94.6267 99.5663 94.84C99.0649 95.0533 98.4676 95.16 97.7743 95.16ZM104.067 85.656C103.694 85.656 103.406 85.5653 103.203 85.384C103.011 85.192 102.915 84.9253 102.915 84.584C102.915 84.2427 103.011 83.9813 103.203 83.8C103.406 83.6187 103.694 83.528 104.067 83.528C104.43 83.528 104.707 83.6187 104.899 83.8C105.102 83.9813 105.203 84.2427 105.203 84.584C105.203 84.9253 105.102 85.192 104.899 85.384C104.707 85.5653 104.43 85.656 104.067 85.656ZM104.915 87V95H103.203V87H104.915ZM109.93 84.648V92.6C109.93 92.9947 110.031 93.2827 110.234 93.464C110.447 93.6453 110.73 93.736 111.082 93.736C111.37 93.736 111.62 93.6933 111.834 93.608C112.047 93.512 112.244 93.384 112.426 93.224L112.81 94.472C112.564 94.6853 112.26 94.856 111.898 94.984C111.546 95.1013 111.151 95.16 110.714 95.16C110.255 95.16 109.834 95.0853 109.45 94.936C109.066 94.7867 108.767 94.5467 108.554 94.216C108.34 93.8747 108.228 93.432 108.218 92.888V85.128L109.93 84.648ZM112.682 87V88.344H106.682V87H112.682ZM117.847 86.84C118.626 86.84 119.314 87.0053 119.911 87.336C120.508 87.6667 120.972 88.1467 121.303 88.776C121.644 89.3947 121.815 90.136 121.815 91C121.815 91.864 121.644 92.6107 121.303 93.24C120.972 93.8587 120.508 94.3333 119.911 94.664C119.314 94.9947 118.626 95.16 117.847 95.16C117.068 95.16 116.38 94.9947 115.783 94.664C115.186 94.3333 114.716 93.8587 114.375 93.24C114.034 92.6107 113.863 91.864 113.863 91C113.863 90.136 114.034 89.3947 114.375 88.776C114.716 88.1467 115.186 87.6667 115.783 87.336C116.38 87.0053 117.068 86.84 117.847 86.84ZM117.847 88.184C117.367 88.184 116.956 88.296 116.615 88.52C116.284 88.7333 116.028 89.048 115.847 89.464C115.666 89.88 115.575 90.392 115.575 91C115.575 91.5973 115.666 92.1093 115.847 92.536C116.028 92.952 116.284 93.272 116.615 93.496C116.956 93.7093 117.367 93.816 117.847 93.816C118.327 93.816 118.732 93.7093 119.063 93.496C119.394 93.272 119.65 92.952 119.831 92.536C120.012 92.1093 120.103 91.5973 120.103 91C120.103 90.392 120.012 89.88 119.831 89.464C119.65 89.048 119.394 88.7333 119.063 88.52C118.732 88.296 118.327 88.184 117.847 88.184ZM123.969 95V87H125.425L125.585 88.44C125.798 87.9173 126.113 87.5227 126.529 87.256C126.955 86.9787 127.478 86.84 128.097 86.84C128.257 86.84 128.417 86.856 128.577 86.888C128.737 86.9093 128.87 86.9467 128.977 87L128.737 88.504C128.619 88.4613 128.486 88.4293 128.337 88.408C128.198 88.376 128.006 88.36 127.761 88.36C127.43 88.36 127.105 88.4507 126.785 88.632C126.465 88.8027 126.198 89.064 125.985 89.416C125.782 89.768 125.681 90.216 125.681 90.76V95H123.969ZM137.618 87L134.114 95.944C133.879 96.5627 133.623 97.0533 133.346 97.416C133.079 97.7787 132.77 98.04 132.418 98.2C132.066 98.36 131.655 98.44 131.186 98.44C130.802 98.44 130.444 98.3867 130.114 98.28C129.794 98.184 129.511 98.0507 129.266 97.88L129.682 96.552C129.884 96.7227 130.098 96.8507 130.322 96.936C130.556 97.0213 130.807 97.064 131.074 97.064C131.362 97.064 131.618 96.984 131.842 96.824C132.076 96.6747 132.284 96.3707 132.466 95.912L132.818 95.048L131.97 93.064L129.474 87H131.394L133.17 92.024L133.634 93.528L134.162 91.88L135.842 87H137.618ZM152.547 84.44V90.952C152.547 92.3493 152.179 93.4 151.443 94.104C150.707 94.808 149.635 95.16 148.227 95.16C146.84 95.16 145.773 94.808 145.027 94.104C144.291 93.4 143.923 92.3493 143.923 90.952V84.44H145.635V90.744C145.635 91.736 145.848 92.472 146.275 92.952C146.701 93.432 147.352 93.672 148.227 93.672C149.112 93.672 149.768 93.432 150.195 92.952C150.621 92.472 150.835 91.736 150.835 90.744V84.44H152.547ZM159.778 84.44C160.909 84.44 161.805 84.7227 162.466 85.288C163.138 85.8533 163.474 86.616 163.474 87.576C163.474 88.568 163.138 89.336 162.466 89.88C161.805 90.4133 160.909 90.68 159.778 90.68L159.618 90.776H157.17V95H155.474V84.44H159.778ZM159.65 89.352C160.344 89.352 160.856 89.2133 161.186 88.936C161.528 88.648 161.698 88.2107 161.698 87.624C161.698 87.048 161.528 86.616 161.186 86.328C160.856 86.04 160.344 85.896 159.65 85.896H157.17V89.352H159.65ZM160.658 89.704L164.098 95H162.13L159.186 90.376L160.658 89.704ZM167.936 93.528H173.76V95H166.224V84.44H167.936V93.528ZM42.0025 110.704C41.3732 110.704 40.8558 110.512 40.4505 110.128C40.0558 109.733 39.8585 109.232 39.8585 108.624C39.8585 108.005 40.0558 107.509 40.4505 107.136C40.8558 106.752 41.3732 106.56 42.0025 106.56C42.6425 106.56 43.1598 106.752 43.5545 107.136C43.9492 107.509 44.1465 108.005 44.1465 108.624C44.1465 109.232 43.9492 109.733 43.5545 110.128C43.1598 110.512 42.6425 110.704 42.0025 110.704ZM63.424 103.44V104.912H59.808V114H58.096V104.912H54.48V103.44H63.424ZM67.0824 114.16C66.2824 114.16 65.5784 113.995 64.9704 113.664C64.3624 113.333 63.8877 112.859 63.5464 112.24C63.2157 111.611 63.0504 110.864 63.0504 110C63.0504 109.136 63.2157 108.395 63.5464 107.776C63.8877 107.147 64.357 106.667 64.9544 106.336C65.5517 106.005 66.229 105.84 66.9864 105.84C67.765 105.84 68.4264 106 68.9704 106.32C69.5144 106.64 69.9304 107.077 70.2184 107.632C70.5064 108.187 70.6504 108.816 70.6504 109.52C70.6504 109.712 70.645 109.893 70.6344 110.064C70.6237 110.235 70.6077 110.384 70.5864 110.512H64.1544V109.2H69.8344L68.9864 109.456C68.9864 108.731 68.805 108.176 68.4424 107.792C68.0797 107.397 67.5837 107.2 66.9544 107.2C66.4957 107.2 66.0957 107.307 65.7544 107.52C65.413 107.733 65.1517 108.053 64.9704 108.48C64.789 108.896 64.6984 109.408 64.6984 110.016C64.6984 110.613 64.7944 111.12 64.9864 111.536C65.1784 111.952 65.4504 112.267 65.8024 112.48C66.1544 112.693 66.5704 112.8 67.0504 112.8C67.5837 112.8 68.0157 112.699 68.3464 112.496C68.677 112.293 68.9384 112.011 69.1304 111.648L70.4904 112.288C70.2984 112.672 70.037 113.008 69.7064 113.296C69.3864 113.573 69.0024 113.787 68.5544 113.936C68.1064 114.085 67.6157 114.16 67.0824 114.16ZM75.8524 114.16C75.0524 114.16 74.3217 114.005 73.6604 113.696C72.999 113.387 72.4764 112.949 72.0924 112.384L73.2764 111.36C73.511 111.797 73.847 112.149 74.2844 112.416C74.7324 112.672 75.2657 112.8 75.8844 112.8C76.375 112.8 76.7644 112.715 77.0524 112.544C77.3404 112.373 77.4844 112.133 77.4844 111.824C77.4844 111.621 77.415 111.445 77.2764 111.296C77.1484 111.136 76.8977 111.013 76.5244 110.928L74.8444 110.576C73.991 110.405 73.383 110.133 73.0204 109.76C72.6577 109.376 72.4764 108.891 72.4764 108.304C72.4764 107.867 72.6044 107.461 72.8604 107.088C73.1164 106.715 73.4897 106.416 73.9804 106.192C74.4817 105.957 75.079 105.84 75.7724 105.84C76.5724 105.84 77.255 105.984 77.8204 106.272C78.3857 106.549 78.8177 106.949 79.1164 107.472L77.9324 108.464C77.7297 108.037 77.431 107.723 77.0364 107.52C76.6417 107.307 76.231 107.2 75.8044 107.2C75.463 107.2 75.1697 107.243 74.9244 107.328C74.679 107.413 74.4924 107.531 74.3644 107.68C74.2364 107.829 74.1724 108.005 74.1724 108.208C74.1724 108.421 74.2524 108.608 74.4124 108.768C74.5724 108.928 74.8604 109.051 75.2764 109.136L77.1004 109.52C77.8684 109.669 78.407 109.925 78.7164 110.288C79.0364 110.64 79.1964 111.072 79.1964 111.584C79.1964 112.096 79.063 112.549 78.7964 112.944C78.5297 113.328 78.1457 113.627 77.6444 113.84C77.143 114.053 76.5457 114.16 75.8524 114.16ZM83.6171 103.648V111.6C83.6171 111.995 83.7185 112.283 83.9211 112.464C84.1345 112.645 84.4171 112.736 84.7691 112.736C85.0571 112.736 85.3078 112.693 85.5211 112.608C85.7345 112.512 85.9318 112.384 86.1131 112.224L86.4971 113.472C86.2518 113.685 85.9478 113.856 85.5851 113.984C85.2331 114.101 84.8385 114.16 84.4011 114.16C83.9425 114.16 83.5211 114.085 83.1371 113.936C82.7531 113.787 82.4545 113.547 82.2411 113.216C82.0278 112.875 81.9158 112.432 81.9051 111.888V104.128L83.6171 103.648ZM86.3691 106V107.344H80.3691V106H86.3691ZM96.7215 105.84C97.3615 105.84 97.9055 105.936 98.3535 106.128C98.8122 106.309 99.1962 106.571 99.5055 106.912C99.8148 107.253 100.05 107.643 100.21 108.08L98.5935 108.72C98.4548 108.229 98.2308 107.856 97.9215 107.6C97.6228 107.333 97.2282 107.2 96.7375 107.2C96.2575 107.2 95.8468 107.312 95.5055 107.536C95.1642 107.749 94.9028 108.064 94.7215 108.48C94.5508 108.896 94.4655 109.408 94.4655 110.016C94.4655 110.613 94.5562 111.12 94.7375 111.536C94.9188 111.952 95.1802 112.267 95.5215 112.48C95.8628 112.693 96.2682 112.8 96.7375 112.8C97.1002 112.8 97.4148 112.741 97.6815 112.624C97.9482 112.496 98.1668 112.32 98.3375 112.096C98.5188 111.861 98.6415 111.579 98.7055 111.248L100.258 111.776C100.108 112.256 99.8735 112.677 99.5535 113.04C99.2442 113.392 98.8548 113.669 98.3855 113.872C97.9162 114.064 97.3775 114.16 96.7695 114.16C95.9802 114.16 95.2815 113.995 94.6735 113.664C94.0655 113.333 93.5908 112.859 93.2495 112.24C92.9188 111.611 92.7535 110.864 92.7535 110C92.7535 109.136 92.9188 108.395 93.2495 107.776C93.5908 107.147 94.0602 106.667 94.6575 106.336C95.2655 106.005 95.9535 105.84 96.7215 105.84ZM105.722 105.84C106.501 105.84 107.189 106.005 107.786 106.336C108.383 106.667 108.847 107.147 109.178 107.776C109.519 108.395 109.69 109.136 109.69 110C109.69 110.864 109.519 111.611 109.178 112.24C108.847 112.859 108.383 113.333 107.786 113.664C107.189 113.995 106.501 114.16 105.722 114.16C104.943 114.16 104.255 113.995 103.658 113.664C103.061 113.333 102.591 112.859 102.25 112.24C101.909 111.611 101.738 110.864 101.738 110C101.738 109.136 101.909 108.395 102.25 107.776C102.591 107.147 103.061 106.667 103.658 106.336C104.255 106.005 104.943 105.84 105.722 105.84ZM105.722 107.184C105.242 107.184 104.831 107.296 104.49 107.52C104.159 107.733 103.903 108.048 103.722 108.464C103.541 108.88 103.45 109.392 103.45 110C103.45 110.597 103.541 111.109 103.722 111.536C103.903 111.952 104.159 112.272 104.49 112.496C104.831 112.709 105.242 112.816 105.722 112.816C106.202 112.816 106.607 112.709 106.938 112.496C107.269 112.272 107.525 111.952 107.706 111.536C107.887 111.109 107.978 110.597 107.978 110C107.978 109.392 107.887 108.88 107.706 108.464C107.525 108.048 107.269 107.733 106.938 107.52C106.607 107.296 106.202 107.184 105.722 107.184ZM111.844 114V106H113.364L113.444 107.344C113.721 106.832 114.089 106.453 114.548 106.208C115.017 105.963 115.513 105.84 116.036 105.84C116.612 105.84 117.14 105.973 117.62 106.24C118.11 106.496 118.478 106.885 118.724 107.408C118.894 107.056 119.129 106.763 119.428 106.528C119.726 106.293 120.057 106.123 120.42 106.016C120.782 105.899 121.14 105.84 121.492 105.84C122.004 105.84 122.484 105.947 122.932 106.16C123.38 106.373 123.742 106.699 124.02 107.136C124.297 107.573 124.436 108.133 124.436 108.816V114H122.724V109.088C122.724 108.437 122.569 107.968 122.26 107.68C121.95 107.392 121.556 107.248 121.076 107.248C120.702 107.248 120.356 107.339 120.036 107.52C119.726 107.701 119.476 107.973 119.284 108.336C119.092 108.688 118.996 109.125 118.996 109.648V114H117.284V109.088C117.284 108.437 117.129 107.968 116.82 107.68C116.51 107.392 116.116 107.248 115.636 107.248C115.316 107.248 114.996 107.333 114.676 107.504C114.356 107.675 114.089 107.941 113.876 108.304C113.662 108.667 113.556 109.147 113.556 109.744V114H111.844ZM127.031 114V106H128.551L128.631 107.344C128.908 106.832 129.276 106.453 129.735 106.208C130.204 105.963 130.7 105.84 131.223 105.84C131.799 105.84 132.327 105.973 132.807 106.24C133.298 106.496 133.666 106.885 133.911 107.408C134.082 107.056 134.316 106.763 134.615 106.528C134.914 106.293 135.244 106.123 135.607 106.016C135.97 105.899 136.327 105.84 136.679 105.84C137.191 105.84 137.671 105.947 138.119 106.16C138.567 106.373 138.93 106.699 139.207 107.136C139.484 107.573 139.623 108.133 139.623 108.816V114H137.911V109.088C137.911 108.437 137.756 107.968 137.447 107.68C137.138 107.392 136.743 107.248 136.263 107.248C135.89 107.248 135.543 107.339 135.223 107.52C134.914 107.701 134.663 107.973 134.471 108.336C134.279 108.688 134.183 109.125 134.183 109.648V114H132.471V109.088C132.471 108.437 132.316 107.968 132.007 107.68C131.698 107.392 131.303 107.248 130.823 107.248C130.503 107.248 130.183 107.333 129.863 107.504C129.543 107.675 129.276 107.941 129.063 108.304C128.85 108.667 128.743 109.147 128.743 109.744V114H127.031ZM146.843 108.864C146.843 108.331 146.693 107.92 146.395 107.632C146.107 107.333 145.707 107.184 145.195 107.184C144.715 107.184 144.304 107.296 143.963 107.52C143.621 107.744 143.371 108.107 143.211 108.608L141.771 108C141.973 107.349 142.368 106.827 142.955 106.432C143.552 106.037 144.32 105.84 145.259 105.84C145.899 105.84 146.464 105.947 146.955 106.16C147.445 106.363 147.829 106.672 148.107 107.088C148.395 107.504 148.539 108.037 148.539 108.688V112.256C148.539 112.651 148.736 112.848 149.131 112.848C149.323 112.848 149.509 112.821 149.691 112.768L149.595 113.952C149.349 114.069 149.04 114.128 148.667 114.128C148.325 114.128 148.016 114.069 147.739 113.952C147.472 113.824 147.259 113.637 147.099 113.392C146.949 113.136 146.875 112.821 146.875 112.448V112.336L147.227 112.32C147.131 112.736 146.933 113.083 146.635 113.36C146.336 113.627 145.989 113.829 145.595 113.968C145.2 114.096 144.8 114.16 144.395 114.16C143.893 114.16 143.44 114.08 143.035 113.92C142.64 113.76 142.325 113.52 142.091 113.2C141.867 112.869 141.755 112.464 141.755 111.984C141.755 111.387 141.947 110.896 142.331 110.512C142.725 110.128 143.28 109.867 143.995 109.728L147.099 109.12L147.083 110.32L144.827 110.784C144.379 110.869 144.043 110.992 143.819 111.152C143.595 111.312 143.483 111.547 143.483 111.856C143.483 112.155 143.595 112.395 143.819 112.576C144.053 112.747 144.363 112.832 144.747 112.832C145.013 112.832 145.269 112.8 145.515 112.736C145.771 112.672 146 112.571 146.203 112.432C146.405 112.283 146.56 112.096 146.667 111.872C146.784 111.637 146.843 111.36 146.843 111.04V108.864ZM151.344 114V106H152.864L152.976 108.08L152.752 107.856C152.901 107.397 153.114 107.019 153.392 106.72C153.68 106.411 154.016 106.187 154.4 106.048C154.794 105.909 155.21 105.84 155.648 105.84C156.213 105.84 156.72 105.952 157.168 106.176C157.626 106.389 157.989 106.715 158.256 107.152C158.522 107.589 158.656 108.144 158.656 108.816V114H156.944V109.344C156.944 108.555 156.778 108.011 156.448 107.712C156.128 107.403 155.722 107.248 155.232 107.248C154.88 107.248 154.538 107.333 154.208 107.504C153.877 107.664 153.6 107.925 153.376 108.288C153.162 108.651 153.056 109.136 153.056 109.744V114H151.344ZM164.322 114.16C163.661 114.16 163.058 113.995 162.514 113.664C161.981 113.333 161.559 112.859 161.25 112.24C160.941 111.621 160.786 110.88 160.786 110.016C160.786 109.12 160.951 108.363 161.282 107.744C161.613 107.125 162.055 106.656 162.61 106.336C163.165 106.005 163.773 105.84 164.434 105.84C165.117 105.84 165.693 106.027 166.162 106.4C166.631 106.773 166.946 107.259 167.106 107.856L166.914 108.032V102.4H168.626V114H167.106L166.978 111.824L167.202 111.84C167.127 112.32 166.951 112.736 166.674 113.088C166.397 113.429 166.05 113.696 165.634 113.888C165.229 114.069 164.791 114.16 164.322 114.16ZM164.69 112.784C165.149 112.784 165.543 112.667 165.874 112.432C166.205 112.197 166.461 111.867 166.642 111.44C166.823 111.013 166.914 110.501 166.914 109.904C166.914 109.349 166.823 108.875 166.642 108.48C166.461 108.075 166.205 107.765 165.874 107.552C165.554 107.339 165.181 107.232 164.754 107.232C164.039 107.232 163.485 107.477 163.09 107.968C162.695 108.459 162.498 109.136 162.498 110C162.498 110.864 162.69 111.547 163.074 112.048C163.458 112.539 163.997 112.784 164.69 112.784ZM174.321 114.16C173.521 114.16 172.79 114.005 172.129 113.696C171.468 113.387 170.945 112.949 170.561 112.384L171.745 111.36C171.98 111.797 172.316 112.149 172.753 112.416C173.201 112.672 173.734 112.8 174.353 112.8C174.844 112.8 175.233 112.715 175.521 112.544C175.809 112.373 175.953 112.133 175.953 111.824C175.953 111.621 175.884 111.445 175.745 111.296C175.617 111.136 175.366 111.013 174.993 110.928L173.313 110.576C172.46 110.405 171.852 110.133 171.489 109.76C171.126 109.376 170.945 108.891 170.945 108.304C170.945 107.867 171.073 107.461 171.329 107.088C171.585 106.715 171.958 106.416 172.449 106.192C172.95 105.957 173.548 105.84 174.241 105.84C175.041 105.84 175.724 105.984 176.289 106.272C176.854 106.549 177.286 106.949 177.585 107.472L176.401 108.464C176.198 108.037 175.9 107.723 175.505 107.52C175.11 107.307 174.7 107.2 174.273 107.2C173.932 107.2 173.638 107.243 173.393 107.328C173.148 107.413 172.961 107.531 172.833 107.68C172.705 107.829 172.641 108.005 172.641 108.208C172.641 108.421 172.721 108.608 172.881 108.768C173.041 108.928 173.329 109.051 173.745 109.136L175.569 109.52C176.337 109.669 176.876 109.925 177.185 110.288C177.505 110.64 177.665 111.072 177.665 111.584C177.665 112.096 177.532 112.549 177.265 112.944C176.998 113.328 176.614 113.627 176.113 113.84C175.612 114.053 175.014 114.16 174.321 114.16Z" fill="#78716C"/>
<rect x="13.75" y="167.75" width="199.5" height="70.5" rx="7.25" stroke="#A8A29E" stroke-width="1.5"/>
<line x1="18" y1="202.5" x2="210" y2="202.5" stroke="#D6D3D1"/>
<path d="M36.54 179.6C37.74 179.6 38.7933 179.807 39.7 180.22C40.6067 180.633 41.38 181.247 42.02 182.06L40.48 183.84C39.9333 183.147 39.3333 182.64 38.68 182.32C38.04 181.987 37.2933 181.82 36.44 181.82C35.88 181.82 35.4133 181.893 35.04 182.04C34.68 182.187 34.4133 182.38 34.24 182.62C34.08 182.86 34 183.127 34 183.42C34 183.78 34.14 184.087 34.42 184.34C34.7 184.58 35.18 184.78 35.86 184.94L38.32 185.5C39.6267 185.793 40.56 186.233 41.12 186.82C41.6933 187.393 41.98 188.14 41.98 189.06C41.98 189.927 41.7533 190.673 41.3 191.3C40.8467 191.913 40.2133 192.387 39.4 192.72C38.5867 193.04 37.6533 193.2 36.6 193.2C35.68 193.2 34.8333 193.093 34.06 192.88C33.3 192.653 32.62 192.347 32.02 191.96C31.42 191.573 30.92 191.127 30.52 190.62L32.08 188.76C32.3867 189.187 32.7667 189.567 33.22 189.9C33.6733 190.233 34.1867 190.5 34.76 190.7C35.3467 190.887 35.96 190.98 36.6 190.98C37.1467 190.98 37.6067 190.92 37.98 190.8C38.3667 190.667 38.6533 190.487 38.84 190.26C39.04 190.02 39.14 189.733 39.14 189.4C39.14 189.053 39.02 188.76 38.78 188.52C38.5533 188.267 38.1267 188.073 37.5 187.94L34.82 187.34C34.0467 187.153 33.38 186.913 32.82 186.62C32.2733 186.313 31.8533 185.927 31.56 185.46C31.28 184.98 31.14 184.413 31.14 183.76C31.14 182.973 31.3533 182.267 31.78 181.64C32.2067 181.013 32.82 180.52 33.62 180.16C34.4333 179.787 35.4067 179.6 36.54 179.6ZM48.9511 193.2C47.8978 193.2 46.9778 192.993 46.1911 192.58C45.4178 192.167 44.8178 191.573 44.3911 190.8C43.9644 190.027 43.7511 189.093 43.7511 188C43.7511 186.907 43.9644 185.973 44.3911 185.2C44.8178 184.427 45.4111 183.833 46.1711 183.42C46.9444 183.007 47.8244 182.8 48.8111 182.8C49.8244 182.8 50.6844 183.007 51.3911 183.42C52.0978 183.82 52.6378 184.373 53.0111 185.08C53.3844 185.773 53.5711 186.567 53.5711 187.46C53.5711 187.727 53.5644 187.98 53.5511 188.22C53.5378 188.46 53.5178 188.673 53.4911 188.86H45.5111V186.96H52.2911L50.9711 187.44C50.9711 186.6 50.7778 185.953 50.3911 185.5C50.0178 185.047 49.4844 184.82 48.7911 184.82C48.2844 184.82 47.8444 184.94 47.4711 185.18C47.1111 185.42 46.8378 185.78 46.6511 186.26C46.4644 186.727 46.3711 187.32 46.3711 188.04C46.3711 188.747 46.4711 189.333 46.6711 189.8C46.8844 190.253 47.1778 190.593 47.5511 190.82C47.9378 191.047 48.3978 191.16 48.9311 191.16C49.5178 191.16 49.9911 191.047 50.3511 190.82C50.7111 190.593 50.9911 190.28 51.1911 189.88L53.3711 190.72C53.1578 191.24 52.8311 191.687 52.3911 192.06C51.9644 192.433 51.4511 192.72 50.8511 192.92C50.2644 193.107 49.6311 193.2 48.9511 193.2ZM55.8931 193V183H58.2731L58.4531 184.96C58.7198 184.267 59.1065 183.733 59.6131 183.36C60.1331 182.987 60.7798 182.8 61.5531 182.8C61.7798 182.8 61.9865 182.82 62.1731 182.86C62.3598 182.9 62.5131 182.953 62.6331 183.02L62.3131 185.32C62.1798 185.267 62.0131 185.227 61.8131 185.2C61.6265 185.173 61.3798 185.16 61.0731 185.16C60.6731 185.16 60.2865 185.26 59.9131 185.46C59.5398 185.647 59.2331 185.94 58.9931 186.34C58.7531 186.727 58.6331 187.22 58.6331 187.82V193H55.8931ZM70.8906 183H73.7306L69.9306 193H66.7706L62.9706 183H65.8906L68.3706 190.9L70.8906 183ZM76.6286 181.56C76.0553 181.56 75.6286 181.44 75.3486 181.2C75.0686 180.947 74.9286 180.58 74.9286 180.1C74.9286 179.607 75.0686 179.24 75.3486 179C75.6286 178.747 76.0553 178.62 76.6286 178.62C77.2019 178.62 77.6286 178.747 77.9086 179C78.1886 179.24 78.3286 179.607 78.3286 180.1C78.3286 180.58 78.1886 180.947 77.9086 181.2C77.6286 181.44 77.2019 181.56 76.6286 181.56ZM77.9886 183V193H75.2486V183H77.9886ZM85.4331 182.8C86.3265 182.8 87.0798 182.933 87.6931 183.2C88.3198 183.453 88.8198 183.807 89.1931 184.26C89.5798 184.7 89.8531 185.193 90.0131 185.74L87.4531 186.66C87.3198 186.06 87.0931 185.607 86.7731 185.3C86.4531 184.993 86.0198 184.84 85.4731 184.84C84.9665 184.84 84.5331 184.96 84.1731 185.2C83.8131 185.427 83.5398 185.78 83.3531 186.26C83.1665 186.727 83.0731 187.313 83.0731 188.02C83.0731 188.727 83.1665 189.313 83.3531 189.78C83.5531 190.247 83.8331 190.593 84.1931 190.82C84.5665 191.047 84.9998 191.16 85.4931 191.16C85.8931 191.16 86.2331 191.093 86.5131 190.96C86.7931 190.813 87.0198 190.607 87.1931 190.34C87.3798 190.073 87.5065 189.753 87.5731 189.38L90.0531 190.18C89.9065 190.78 89.6331 191.307 89.2331 191.76C88.8331 192.213 88.3198 192.567 87.6931 192.82C87.0665 193.073 86.3398 193.2 85.5131 193.2C84.4865 193.2 83.5798 192.993 82.7931 192.58C82.0065 192.167 81.3998 191.573 80.9731 190.8C80.5465 190.027 80.3331 189.093 80.3331 188C80.3331 186.907 80.5465 185.973 80.9731 185.2C81.3998 184.427 81.9998 183.833 82.7731 183.42C83.5465 183.007 84.4331 182.8 85.4331 182.8ZM96.8222 193.2C95.7689 193.2 94.8489 192.993 94.0622 192.58C93.2889 192.167 92.6889 191.573 92.2622 190.8C91.8355 190.027 91.6222 189.093 91.6222 188C91.6222 186.907 91.8355 185.973 92.2622 185.2C92.6889 184.427 93.2822 183.833 94.0422 183.42C94.8155 183.007 95.6955 182.8 96.6822 182.8C97.6955 182.8 98.5555 183.007 99.2622 183.42C99.9689 183.82 100.509 184.373 100.882 185.08C101.256 185.773 101.442 186.567 101.442 187.46C101.442 187.727 101.436 187.98 101.422 188.22C101.409 188.46 101.389 188.673 101.362 188.86H93.3822V186.96H100.162L98.8422 187.44C98.8422 186.6 98.6489 185.953 98.2622 185.5C97.8889 185.047 97.3555 184.82 96.6622 184.82C96.1555 184.82 95.7155 184.94 95.3422 185.18C94.9822 185.42 94.7089 185.78 94.5222 186.26C94.3355 186.727 94.2422 187.32 94.2422 188.04C94.2422 188.747 94.3422 189.333 94.5422 189.8C94.7555 190.253 95.0489 190.593 95.4222 190.82C95.8089 191.047 96.2689 191.16 96.8022 191.16C97.3889 191.16 97.8622 191.047 98.2222 190.82C98.5822 190.593 98.8622 190.28 99.0622 189.88L101.242 190.72C101.029 191.24 100.702 191.687 100.262 192.06C99.8355 192.433 99.3222 192.72 98.7222 192.92C98.1355 193.107 97.5022 193.2 96.8222 193.2ZM109.738 193V191.14C110.938 190.327 111.951 189.593 112.778 188.94C113.618 188.273 114.291 187.66 114.798 187.1C115.318 186.527 115.691 185.987 115.918 185.48C116.158 184.973 116.278 184.467 116.278 183.96C116.278 183.347 116.091 182.847 115.718 182.46C115.344 182.06 114.818 181.86 114.138 181.86C113.391 181.86 112.804 182.113 112.378 182.62C111.964 183.127 111.738 183.847 111.698 184.78L109.318 183.88C109.384 182.973 109.624 182.207 110.038 181.58C110.464 180.94 111.038 180.453 111.758 180.12C112.491 179.773 113.331 179.6 114.278 179.6C115.091 179.6 115.791 179.713 116.378 179.94C116.978 180.167 117.471 180.48 117.858 180.88C118.258 181.267 118.558 181.713 118.758 182.22C118.958 182.727 119.058 183.253 119.058 183.8C119.058 184.653 118.844 185.46 118.418 186.22C118.004 186.98 117.364 187.733 116.498 188.48C115.631 189.227 114.531 190.013 113.198 190.84V190.86C113.398 190.847 113.638 190.833 113.918 190.82C114.211 190.807 114.511 190.8 114.818 190.8C115.124 190.787 115.391 190.78 115.618 190.78H119.258V193H109.738Z" fill="#44403C"/>
<path d="M35.632 214.44C36.3893 214.44 37.04 214.573 37.584 214.84C38.1387 215.107 38.5707 215.485 38.88 215.976C39.1893 216.467 39.344 217.059 39.344 217.752C39.344 218.435 39.1893 219.027 38.88 219.528C38.5707 220.019 38.1387 220.397 37.584 220.664C37.04 220.931 36.3893 221.064 35.632 221.064H33.28V225H31.568V214.44H35.632ZM35.36 219.592C36.1173 219.592 36.672 219.437 37.024 219.128C37.3867 218.808 37.568 218.349 37.568 217.752C37.568 217.144 37.3867 216.685 37.024 216.376C36.672 216.056 36.1173 215.896 35.36 215.896H33.28V219.592H35.36ZM45.9833 219.864C45.9833 219.331 45.8339 218.92 45.5353 218.632C45.2473 218.333 44.8473 218.184 44.3353 218.184C43.8553 218.184 43.4446 218.296 43.1033 218.52C42.7619 218.744 42.5113 219.107 42.3513 219.608L40.9113 219C41.1139 218.349 41.5086 217.827 42.0953 217.432C42.6926 217.037 43.4606 216.84 44.3993 216.84C45.0393 216.84 45.6046 216.947 46.0953 217.16C46.5859 217.363 46.9699 217.672 47.2473 218.088C47.5353 218.504 47.6793 219.037 47.6793 219.688V223.256C47.6793 223.651 47.8766 223.848 48.2713 223.848C48.4633 223.848 48.6499 223.821 48.8313 223.768L48.7353 224.952C48.4899 225.069 48.1806 225.128 47.8073 225.128C47.4659 225.128 47.1566 225.069 46.8793 224.952C46.6126 224.824 46.3993 224.637 46.2393 224.392C46.0899 224.136 46.0153 223.821 46.0153 223.448V223.336L46.3673 223.32C46.2713 223.736 46.0739 224.083 45.7753 224.36C45.4766 224.627 45.1299 224.829 44.7352 224.968C44.3406 225.096 43.9406 225.16 43.5353 225.16C43.0339 225.16 42.5806 225.08 42.1753 224.92C41.7806 224.76 41.4659 224.52 41.2313 224.2C41.0073 223.869 40.8953 223.464 40.8953 222.984C40.8953 222.387 41.0873 221.896 41.4713 221.512C41.8659 221.128 42.4206 220.867 43.1353 220.728L46.2393 220.12L46.2233 221.32L43.9673 221.784C43.5193 221.869 43.1833 221.992 42.9593 222.152C42.7353 222.312 42.6233 222.547 42.6233 222.856C42.6233 223.155 42.7353 223.395 42.9593 223.576C43.1939 223.747 43.5033 223.832 43.8873 223.832C44.1539 223.832 44.4099 223.8 44.6553 223.736C44.9113 223.672 45.1406 223.571 45.3433 223.432C45.5459 223.283 45.7006 223.096 45.8073 222.872C45.9246 222.637 45.9833 222.36 45.9833 222.04V219.864ZM50.4843 225V217H51.9403L52.1003 218.44C52.3136 217.917 52.6283 217.523 53.0443 217.256C53.4709 216.979 53.9936 216.84 54.6123 216.84C54.7723 216.84 54.9323 216.856 55.0923 216.888C55.2523 216.909 55.3856 216.947 55.4923 217L55.2523 218.504C55.1349 218.461 55.0016 218.429 54.8523 218.408C54.7136 218.376 54.5216 218.36 54.2763 218.36C53.9456 218.36 53.6203 218.451 53.3003 218.632C52.9803 218.803 52.7136 219.064 52.5003 219.416C52.2976 219.768 52.1963 220.216 52.1963 220.76V225H50.4843ZM61.5614 219.864C61.5614 219.331 61.412 218.92 61.1134 218.632C60.8254 218.333 60.4254 218.184 59.9134 218.184C59.4334 218.184 59.0227 218.296 58.6814 218.52C58.34 218.744 58.0894 219.107 57.9294 219.608L56.4894 219C56.692 218.349 57.0867 217.827 57.6734 217.432C58.2707 217.037 59.0387 216.84 59.9774 216.84C60.6174 216.84 61.1827 216.947 61.6734 217.16C62.164 217.363 62.548 217.672 62.8254 218.088C63.1134 218.504 63.2574 219.037 63.2574 219.688V223.256C63.2574 223.651 63.4547 223.848 63.8494 223.848C64.0414 223.848 64.228 223.821 64.4094 223.768L64.3134 224.952C64.068 225.069 63.7587 225.128 63.3854 225.128C63.044 225.128 62.7347 225.069 62.4574 224.952C62.1907 224.824 61.9774 224.637 61.8174 224.392C61.668 224.136 61.5934 223.821 61.5934 223.448V223.336L61.9454 223.32C61.8494 223.736 61.652 224.083 61.3534 224.36C61.0547 224.627 60.708 224.829 60.3134 224.968C59.9187 225.096 59.5187 225.16 59.1134 225.16C58.612 225.16 58.1587 225.08 57.7534 224.92C57.3587 224.76 57.044 224.52 56.8094 224.2C56.5854 223.869 56.4734 223.464 56.4734 222.984C56.4734 222.387 56.6654 221.896 57.0494 221.512C57.444 221.128 57.9987 220.867 58.7134 220.728L61.8174 220.12L61.8014 221.32L59.5454 221.784C59.0974 221.869 58.7614 221.992 58.5374 222.152C58.3134 222.312 58.2014 222.547 58.2014 222.856C58.2014 223.155 58.3134 223.395 58.5374 223.576C58.772 223.747 59.0814 223.832 59.4654 223.832C59.732 223.832 59.988 223.8 60.2334 223.736C60.4894 223.672 60.7187 223.571 60.9214 223.432C61.124 223.283 61.2787 223.096 61.3854 222.872C61.5027 222.637 61.5614 222.36 61.5614 222.04V219.864ZM66.0624 225V217H67.5824L67.6624 218.344C67.9397 217.832 68.3077 217.453 68.7664 217.208C69.2357 216.963 69.7317 216.84 70.2544 216.84C70.8304 216.84 71.3584 216.973 71.8384 217.24C72.329 217.496 72.697 217.885 72.9424 218.408C73.113 218.056 73.3477 217.763 73.6464 217.528C73.945 217.293 74.2757 217.123 74.6384 217.016C75.001 216.899 75.3584 216.84 75.7104 216.84C76.2224 216.84 76.7024 216.947 77.1504 217.16C77.5984 217.373 77.961 217.699 78.2384 218.136C78.5157 218.573 78.6544 219.133 78.6544 219.816V225H76.9424V220.088C76.9424 219.437 76.7877 218.968 76.4784 218.68C76.169 218.392 75.7744 218.248 75.2944 218.248C74.921 218.248 74.5744 218.339 74.2544 218.52C73.945 218.701 73.6944 218.973 73.5024 219.336C73.3104 219.688 73.2144 220.125 73.2144 220.648V225H71.5024V220.088C71.5024 219.437 71.3477 218.968 71.0384 218.68C70.729 218.392 70.3344 218.248 69.8544 218.248C69.5344 218.248 69.2144 218.333 68.8944 218.504C68.5744 218.675 68.3077 218.941 68.0944 219.304C67.881 219.667 67.7744 220.147 67.7744 220.744V225H66.0624ZM84.7699 225.16C83.9699 225.16 83.2659 224.995 82.6579 224.664C82.0499 224.333 81.5752 223.859 81.2339 223.24C80.9032 222.611 80.7379 221.864 80.7379 221C80.7379 220.136 80.9032 219.395 81.2339 218.776C81.5752 218.147 82.0445 217.667 82.6419 217.336C83.2392 217.005 83.9165 216.84 84.6739 216.84C85.4525 216.84 86.1139 217 86.6579 217.32C87.2019 217.64 87.6179 218.077 87.9059 218.632C88.1939 219.187 88.3379 219.816 88.3379 220.52C88.3379 220.712 88.3325 220.893 88.3219 221.064C88.3112 221.235 88.2952 221.384 88.2739 221.512H81.8419V220.2H87.5219L86.6739 220.456C86.6739 219.731 86.4925 219.176 86.1299 218.792C85.7672 218.397 85.2712 218.2 84.6419 218.2C84.1832 218.2 83.7832 218.307 83.4419 218.52C83.1005 218.733 82.8392 219.053 82.6579 219.48C82.4765 219.896 82.3859 220.408 82.3859 221.016C82.3859 221.613 82.4819 222.12 82.6739 222.536C82.8659 222.952 83.1379 223.267 83.4899 223.48C83.8419 223.693 84.2579 223.8 84.7379 223.8C85.2712 223.8 85.7032 223.699 86.0339 223.496C86.3645 223.293 86.6259 223.011 86.8179 222.648L88.1779 223.288C87.9859 223.672 87.7245 224.008 87.3939 224.296C87.0739 224.573 86.6899 224.787 86.2419 224.936C85.7939 225.085 85.3032 225.16 84.7699 225.16ZM92.6484 214.648V222.6C92.6484 222.995 92.7497 223.283 92.9524 223.464C93.1657 223.645 93.4484 223.736 93.8004 223.736C94.0884 223.736 94.339 223.693 94.5524 223.608C94.7657 223.512 94.963 223.384 95.1444 223.224L95.5284 224.472C95.283 224.685 94.979 224.856 94.6164 224.984C94.2644 225.101 93.8697 225.16 93.4324 225.16C92.9737 225.16 92.5524 225.085 92.1684 224.936C91.7844 224.787 91.4857 224.547 91.2724 224.216C91.059 223.875 90.947 223.432 90.9364 222.888V215.128L92.6484 214.648ZM95.4004 217V218.344H89.4004V217H95.4004ZM100.614 225.16C99.8136 225.16 99.1096 224.995 98.5016 224.664C97.8936 224.333 97.419 223.859 97.0776 223.24C96.747 222.611 96.5816 221.864 96.5816 221C96.5816 220.136 96.747 219.395 97.0776 218.776C97.419 218.147 97.8883 217.667 98.4856 217.336C99.083 217.005 99.7603 216.84 100.518 216.84C101.296 216.84 101.958 217 102.502 217.32C103.046 217.64 103.462 218.077 103.75 218.632C104.038 219.187 104.182 219.816 104.182 220.52C104.182 220.712 104.176 220.893 104.166 221.064C104.155 221.235 104.139 221.384 104.118 221.512H97.6856V220.2H103.366L102.518 220.456C102.518 219.731 102.336 219.176 101.974 218.792C101.611 218.397 101.115 218.2 100.486 218.2C100.027 218.2 99.627 218.307 99.2856 218.52C98.9443 218.733 98.683 219.053 98.5016 219.48C98.3203 219.896 98.2296 220.408 98.2296 221.016C98.2296 221.613 98.3256 222.12 98.5176 222.536C98.7096 222.952 98.9816 223.267 99.3336 223.48C99.6856 223.693 100.102 223.8 100.582 223.8C101.115 223.8 101.547 223.699 101.878 223.496C102.208 223.293 102.47 223.011 102.662 222.648L104.022 223.288C103.83 223.672 103.568 224.008 103.238 224.296C102.918 224.573 102.534 224.787 102.086 224.936C101.638 225.085 101.147 225.16 100.614 225.16ZM106.344 225V217H107.8L107.96 218.44C108.173 217.917 108.488 217.523 108.904 217.256C109.33 216.979 109.853 216.84 110.472 216.84C110.632 216.84 110.792 216.856 110.952 216.888C111.112 216.909 111.245 216.947 111.352 217L111.112 218.504C110.994 218.461 110.861 218.429 110.712 218.408C110.573 218.376 110.381 218.36 110.136 218.36C109.805 218.36 109.48 218.451 109.16 218.632C108.84 218.803 108.573 219.064 108.36 219.416C108.157 219.768 108.056 220.216 108.056 220.76V225H106.344ZM115.727 225.16C114.927 225.16 114.197 225.005 113.535 224.696C112.874 224.387 112.351 223.949 111.967 223.384L113.151 222.36C113.386 222.797 113.722 223.149 114.159 223.416C114.607 223.672 115.141 223.8 115.759 223.8C116.25 223.8 116.639 223.715 116.927 223.544C117.215 223.373 117.359 223.133 117.359 222.824C117.359 222.621 117.29 222.445 117.151 222.296C117.023 222.136 116.773 222.013 116.399 221.928L114.719 221.576C113.866 221.405 113.258 221.133 112.895 220.76C112.533 220.376 112.351 219.891 112.351 219.304C112.351 218.867 112.479 218.461 112.735 218.088C112.991 217.715 113.365 217.416 113.855 217.192C114.357 216.957 114.954 216.84 115.647 216.84C116.447 216.84 117.13 216.984 117.695 217.272C118.261 217.549 118.693 217.949 118.991 218.472L117.807 219.464C117.605 219.037 117.306 218.723 116.911 218.52C116.517 218.307 116.106 218.2 115.679 218.2C115.338 218.2 115.045 218.243 114.799 218.328C114.554 218.413 114.367 218.531 114.239 218.68C114.111 218.829 114.047 219.005 114.047 219.208C114.047 219.421 114.127 219.608 114.287 219.768C114.447 219.928 114.735 220.051 115.151 220.136L116.975 220.52C117.743 220.669 118.282 220.925 118.591 221.288C118.911 221.64 119.071 222.072 119.071 222.584C119.071 223.096 118.938 223.549 118.671 223.944C118.405 224.328 118.021 224.627 117.519 224.84C117.018 225.053 116.421 225.16 115.727 225.16Z" fill="#78716C"/>
<rect x="13.75" y="272.75" width="199.5" height="70.5" rx="7.25" stroke="#A8A29E" stroke-width="1.5"/>
<line x1="18" y1="307.5" x2="210" y2="307.5" stroke="#D6D3D1"/>
<path d="M36.54 284.6C37.74 284.6 38.7933 284.807 39.7 285.22C40.6067 285.633 41.38 286.247 42.02 287.06L40.48 288.84C39.9333 288.147 39.3333 287.64 38.68 287.32C38.04 286.987 37.2933 286.82 36.44 286.82C35.88 286.82 35.4133 286.893 35.04 287.04C34.68 287.187 34.4133 287.38 34.24 287.62C34.08 287.86 34 288.127 34 288.42C34 288.78 34.14 289.087 34.42 289.34C34.7 289.58 35.18 289.78 35.86 289.94L38.32 290.5C39.6267 290.793 40.56 291.233 41.12 291.82C41.6933 292.393 41.98 293.14 41.98 294.06C41.98 294.927 41.7533 295.673 41.3 296.3C40.8467 296.913 40.2133 297.387 39.4 297.72C38.5867 298.04 37.6533 298.2 36.6 298.2C35.68 298.2 34.8333 298.093 34.06 297.88C33.3 297.653 32.62 297.347 32.02 296.96C31.42 296.573 30.92 296.127 30.52 295.62L32.08 293.76C32.3867 294.187 32.7667 294.567 33.22 294.9C33.6733 295.233 34.1867 295.5 34.76 295.7C35.3467 295.887 35.96 295.98 36.6 295.98C37.1467 295.98 37.6067 295.92 37.98 295.8C38.3667 295.667 38.6533 295.487 38.84 295.26C39.04 295.02 39.14 294.733 39.14 294.4C39.14 294.053 39.02 293.76 38.78 293.52C38.5533 293.267 38.1267 293.073 37.5 292.94L34.82 292.34C34.0467 292.153 33.38 291.913 32.82 291.62C32.2733 291.313 31.8533 290.927 31.56 290.46C31.28 289.98 31.14 289.413 31.14 288.76C31.14 287.973 31.3533 287.267 31.78 286.64C32.2067 286.013 32.82 285.52 33.62 285.16C34.4333 284.787 35.4067 284.6 36.54 284.6ZM48.9511 298.2C47.8978 298.2 46.9778 297.993 46.1911 297.58C45.4178 297.167 44.8178 296.573 44.3911 295.8C43.9644 295.027 43.7511 294.093 43.7511 293C43.7511 291.907 43.9644 290.973 44.3911 290.2C44.8178 289.427 45.4111 288.833 46.1711 288.42C46.9444 288.007 47.8244 287.8 48.8111 287.8C49.8244 287.8 50.6844 288.007 51.3911 288.42C52.0978 288.82 52.6378 289.373 53.0111 290.08C53.3844 290.773 53.5711 291.567 53.5711 292.46C53.5711 292.727 53.5644 292.98 53.5511 293.22C53.5378 293.46 53.5178 293.673 53.4911 293.86H45.5111V291.96H52.2911L50.9711 292.44C50.9711 291.6 50.7778 290.953 50.3911 290.5C50.0178 290.047 49.4844 289.82 48.7911 289.82C48.2844 289.82 47.8444 289.94 47.4711 290.18C47.1111 290.42 46.8378 290.78 46.6511 291.26C46.4644 291.727 46.3711 292.32 46.3711 293.04C46.3711 293.747 46.4711 294.333 46.6711 294.8C46.8844 295.253 47.1778 295.593 47.5511 295.82C47.9378 296.047 48.3978 296.16 48.9311 296.16C49.5178 296.16 49.9911 296.047 50.3511 295.82C50.7111 295.593 50.9911 295.28 51.1911 294.88L53.3711 295.72C53.1578 296.24 52.8311 296.687 52.3911 297.06C51.9644 297.433 51.4511 297.72 50.8511 297.92C50.2644 298.107 49.6311 298.2 48.9511 298.2ZM55.8931 298V288H58.2731L58.4531 289.96C58.7198 289.267 59.1065 288.733 59.6131 288.36C60.1331 287.987 60.7798 287.8 61.5531 287.8C61.7798 287.8 61.9865 287.82 62.1731 287.86C62.3598 287.9 62.5131 287.953 62.6331 288.02L62.3131 290.32C62.1798 290.267 62.0131 290.227 61.8131 290.2C61.6265 290.173 61.3798 290.16 61.0731 290.16C60.6731 290.16 60.2865 290.26 59.9131 290.46C59.5398 290.647 59.2331 290.94 58.9931 291.34C58.7531 291.727 58.6331 292.22 58.6331 292.82V298H55.8931ZM70.8906 288H73.7306L69.9306 298H66.7706L62.9706 288H65.8906L68.3706 295.9L70.8906 288ZM76.6286 286.56C76.0553 286.56 75.6286 286.44 75.3486 286.2C75.0686 285.947 74.9286 285.58 74.9286 285.1C74.9286 284.607 75.0686 284.24 75.3486 284C75.6286 283.747 76.0553 283.62 76.6286 283.62C77.2019 283.62 77.6286 283.747 77.9086 284C78.1886 284.24 78.3286 284.607 78.3286 285.1C78.3286 285.58 78.1886 285.947 77.9086 286.2C77.6286 286.44 77.2019 286.56 76.6286 286.56ZM77.9886 288V298H75.2486V288H77.9886ZM85.4331 287.8C86.3265 287.8 87.0798 287.933 87.6931 288.2C88.3198 288.453 88.8198 288.807 89.1931 289.26C89.5798 289.7 89.8531 290.193 90.0131 290.74L87.4531 291.66C87.3198 291.06 87.0931 290.607 86.7731 290.3C86.4531 289.993 86.0198 289.84 85.4731 289.84C84.9665 289.84 84.5331 289.96 84.1731 290.2C83.8131 290.427 83.5398 290.78 83.3531 291.26C83.1665 291.727 83.0731 292.313 83.0731 293.02C83.0731 293.727 83.1665 294.313 83.3531 294.78C83.5531 295.247 83.8331 295.593 84.1931 295.82C84.5665 296.047 84.9998 296.16 85.4931 296.16C85.8931 296.16 86.2331 296.093 86.5131 295.96C86.7931 295.813 87.0198 295.607 87.1931 295.34C87.3798 295.073 87.5065 294.753 87.5731 294.38L90.0531 295.18C89.9065 295.78 89.6331 296.307 89.2331 296.76C88.8331 297.213 88.3198 297.567 87.6931 297.82C87.0665 298.073 86.3398 298.2 85.5131 298.2C84.4865 298.2 83.5798 297.993 82.7931 297.58C82.0065 297.167 81.3998 296.573 80.9731 295.8C80.5465 295.027 80.3331 294.093 80.3331 293C80.3331 291.907 80.5465 290.973 80.9731 290.2C81.3998 289.427 81.9998 288.833 82.7731 288.42C83.5465 288.007 84.4331 287.8 85.4331 287.8ZM96.8222 298.2C95.7689 298.2 94.8489 297.993 94.0622 297.58C93.2889 297.167 92.6889 296.573 92.2622 295.8C91.8355 295.027 91.6222 294.093 91.6222 293C91.6222 291.907 91.8355 290.973 92.2622 290.2C92.6889 289.427 93.2822 288.833 94.0422 288.42C94.8155 288.007 95.6955 287.8 96.6822 287.8C97.6955 287.8 98.5555 288.007 99.2622 288.42C99.9689 288.82 100.509 289.373 100.882 290.08C101.256 290.773 101.442 291.567 101.442 292.46C101.442 292.727 101.436 292.98 101.422 293.22C101.409 293.46 101.389 293.673 101.362 293.86H93.3822V291.96H100.162L98.8422 292.44C98.8422 291.6 98.6489 290.953 98.2622 290.5C97.8889 290.047 97.3555 289.82 96.6622 289.82C96.1555 289.82 95.7155 289.94 95.3422 290.18C94.9822 290.42 94.7089 290.78 94.5222 291.26C94.3355 291.727 94.2422 292.32 94.2422 293.04C94.2422 293.747 94.3422 294.333 94.5422 294.8C94.7555 295.253 95.0489 295.593 95.4222 295.82C95.8089 296.047 96.2689 296.16 96.8022 296.16C97.3889 296.16 97.8622 296.047 98.2222 295.82C98.5822 295.593 98.8622 295.28 99.0622 294.88L101.242 295.72C101.029 296.24 100.702 296.687 100.262 297.06C99.8355 297.433 99.3222 297.72 98.7222 297.92C98.1355 298.107 97.5022 298.2 96.8222 298.2ZM114.378 298.2C113.058 298.2 111.931 297.927 110.998 297.38C110.078 296.82 109.444 296.02 109.097 294.98L111.698 293.84C111.791 294.32 111.944 294.72 112.158 295.04C112.371 295.347 112.658 295.58 113.018 295.74C113.391 295.9 113.831 295.98 114.338 295.98C114.791 295.98 115.171 295.9 115.478 295.74C115.798 295.58 116.044 295.353 116.218 295.06C116.391 294.767 116.478 294.433 116.478 294.06C116.478 293.66 116.398 293.333 116.238 293.08C116.091 292.827 115.864 292.647 115.558 292.54C115.251 292.42 114.864 292.36 114.398 292.36C114.224 292.36 114.058 292.367 113.898 292.38C113.751 292.38 113.584 292.393 113.398 292.42V290.4C113.504 290.413 113.611 290.427 113.717 290.44C113.838 290.44 113.958 290.44 114.078 290.44C114.824 290.44 115.358 290.293 115.678 290C116.011 289.693 116.178 289.207 116.178 288.54C116.178 287.993 116.011 287.573 115.678 287.28C115.358 286.973 114.898 286.82 114.298 286.82C113.658 286.82 113.151 286.98 112.778 287.3C112.404 287.607 112.144 288.08 111.998 288.72L109.538 287.8C109.698 287.133 110.004 286.56 110.458 286.08C110.924 285.6 111.498 285.233 112.178 284.98C112.858 284.713 113.611 284.58 114.438 284.58C115.424 284.58 116.244 284.733 116.898 285.04C117.564 285.347 118.064 285.767 118.398 286.3C118.744 286.833 118.918 287.447 118.918 288.14C118.918 288.687 118.831 289.153 118.658 289.54C118.498 289.913 118.284 290.233 118.018 290.5C117.764 290.753 117.498 290.947 117.218 291.08C116.938 291.213 116.678 291.293 116.438 291.32V291.38C116.744 291.393 117.058 291.46 117.378 291.58C117.698 291.687 117.991 291.853 118.258 292.08C118.538 292.307 118.764 292.6 118.938 292.96C119.111 293.307 119.198 293.72 119.198 294.2C119.198 295 118.984 295.707 118.558 296.32C118.144 296.92 117.578 297.387 116.858 297.72C116.138 298.04 115.311 298.2 114.378 298.2Z" fill="#44403C"/>
<path d="M35.632 319.44C36.3893 319.44 37.04 319.573 37.584 319.84C38.1387 320.107 38.5707 320.485 38.88 320.976C39.1893 321.467 39.344 322.059 39.344 322.752C39.344 323.435 39.1893 324.027 38.88 324.528C38.5707 325.019 38.1387 325.397 37.584 325.664C37.04 325.931 36.3893 326.064 35.632 326.064H33.28V330H31.568V319.44H35.632ZM35.36 324.592C36.1173 324.592 36.672 324.437 37.024 324.128C37.3867 323.808 37.568 323.349 37.568 322.752C37.568 322.144 37.3867 321.685 37.024 321.376C36.672 321.056 36.1173 320.896 35.36 320.896H33.28V324.592H35.36ZM45.9833 324.864C45.9833 324.331 45.8339 323.92 45.5353 323.632C45.2473 323.333 44.8473 323.184 44.3353 323.184C43.8553 323.184 43.4446 323.296 43.1033 323.52C42.7619 323.744 42.5113 324.107 42.3513 324.608L40.9113 324C41.1139 323.349 41.5086 322.827 42.0953 322.432C42.6926 322.037 43.4606 321.84 44.3993 321.84C45.0393 321.84 45.6046 321.947 46.0953 322.16C46.5859 322.363 46.9699 322.672 47.2473 323.088C47.5353 323.504 47.6793 324.037 47.6793 324.688V328.256C47.6793 328.651 47.8766 328.848 48.2713 328.848C48.4633 328.848 48.6499 328.821 48.8313 328.768L48.7353 329.952C48.4899 330.069 48.1806 330.128 47.8073 330.128C47.4659 330.128 47.1566 330.069 46.8793 329.952C46.6126 329.824 46.3993 329.637 46.2393 329.392C46.0899 329.136 46.0153 328.821 46.0153 328.448V328.336L46.3673 328.32C46.2713 328.736 46.0739 329.083 45.7753 329.36C45.4766 329.627 45.1299 329.829 44.7352 329.968C44.3406 330.096 43.9406 330.16 43.5353 330.16C43.0339 330.16 42.5806 330.08 42.1753 329.92C41.7806 329.76 41.4659 329.52 41.2313 329.2C41.0073 328.869 40.8953 328.464 40.8953 327.984C40.8953 327.387 41.0873 326.896 41.4713 326.512C41.8659 326.128 42.4206 325.867 43.1353 325.728L46.2393 325.12L46.2233 326.32L43.9673 326.784C43.5193 326.869 43.1833 326.992 42.9593 327.152C42.7353 327.312 42.6233 327.547 42.6233 327.856C42.6233 328.155 42.7353 328.395 42.9593 328.576C43.1939 328.747 43.5033 328.832 43.8873 328.832C44.1539 328.832 44.4099 328.8 44.6553 328.736C44.9113 328.672 45.1406 328.571 45.3433 328.432C45.5459 328.283 45.7006 328.096 45.8073 327.872C45.9246 327.637 45.9833 327.36 45.9833 327.04V324.864ZM50.4843 330V322H51.9403L52.1003 323.44C52.3136 322.917 52.6283 322.523 53.0443 322.256C53.4709 321.979 53.9936 321.84 54.6123 321.84C54.7723 321.84 54.9323 321.856 55.0923 321.888C55.2523 321.909 55.3856 321.947 55.4923 322L55.2523 323.504C55.1349 323.461 55.0016 323.429 54.8523 323.408C54.7136 323.376 54.5216 323.36 54.2763 323.36C53.9456 323.36 53.6203 323.451 53.3003 323.632C52.9803 323.803 52.7136 324.064 52.5003 324.416C52.2976 324.768 52.1963 325.216 52.1963 325.76V330H50.4843ZM61.5614 324.864C61.5614 324.331 61.412 323.92 61.1134 323.632C60.8254 323.333 60.4254 323.184 59.9134 323.184C59.4334 323.184 59.0227 323.296 58.6814 323.52C58.34 323.744 58.0894 324.107 57.9294 324.608L56.4894 324C56.692 323.349 57.0867 322.827 57.6734 322.432C58.2707 322.037 59.0387 321.84 59.9774 321.84C60.6174 321.84 61.1827 321.947 61.6734 322.16C62.164 322.363 62.548 322.672 62.8254 323.088C63.1134 323.504 63.2574 324.037 63.2574 324.688V328.256C63.2574 328.651 63.4547 328.848 63.8494 328.848C64.0414 328.848 64.228 328.821 64.4094 328.768L64.3134 329.952C64.068 330.069 63.7587 330.128 63.3854 330.128C63.044 330.128 62.7347 330.069 62.4574 329.952C62.1907 329.824 61.9774 329.637 61.8174 329.392C61.668 329.136 61.5934 328.821 61.5934 328.448V328.336L61.9454 328.32C61.8494 328.736 61.652 329.083 61.3534 329.36C61.0547 329.627 60.708 329.829 60.3134 329.968C59.9187 330.096 59.5187 330.16 59.1134 330.16C58.612 330.16 58.1587 330.08 57.7534 329.92C57.3587 329.76 57.044 329.52 56.8094 329.2C56.5854 328.869 56.4734 328.464 56.4734 327.984C56.4734 327.387 56.6654 326.896 57.0494 326.512C57.444 326.128 57.9987 325.867 58.7134 325.728L61.8174 325.12L61.8014 326.32L59.5454 326.784C59.0974 326.869 58.7614 326.992 58.5374 327.152C58.3134 327.312 58.2014 327.547 58.2014 327.856C58.2014 328.155 58.3134 328.395 58.5374 328.576C58.772 328.747 59.0814 328.832 59.4654 328.832C59.732 328.832 59.988 328.8 60.2334 328.736C60.4894 328.672 60.7187 328.571 60.9214 328.432C61.124 328.283 61.2787 328.096 61.3854 327.872C61.5027 327.637 61.5614 327.36 61.5614 327.04V324.864ZM66.0624 330V322H67.5824L67.6624 323.344C67.9397 322.832 68.3077 322.453 68.7664 322.208C69.2357 321.963 69.7317 321.84 70.2544 321.84C70.8304 321.84 71.3584 321.973 71.8384 322.24C72.329 322.496 72.697 322.885 72.9424 323.408C73.113 323.056 73.3477 322.763 73.6464 322.528C73.945 322.293 74.2757 322.123 74.6384 322.016C75.001 321.899 75.3584 321.84 75.7104 321.84C76.2224 321.84 76.7024 321.947 77.1504 322.16C77.5984 322.373 77.961 322.699 78.2384 323.136C78.5157 323.573 78.6544 324.133 78.6544 324.816V330H76.9424V325.088C76.9424 324.437 76.7877 323.968 76.4784 323.68C76.169 323.392 75.7744 323.248 75.2944 323.248C74.921 323.248 74.5744 323.339 74.2544 323.52C73.945 323.701 73.6944 323.973 73.5024 324.336C73.3104 324.688 73.2144 325.125 73.2144 325.648V330H71.5024V325.088C71.5024 324.437 71.3477 323.968 71.0384 323.68C70.729 323.392 70.3344 323.248 69.8544 323.248C69.5344 323.248 69.2144 323.333 68.8944 323.504C68.5744 323.675 68.3077 323.941 68.0944 324.304C67.881 324.667 67.7744 325.147 67.7744 325.744V330H66.0624ZM84.7699 330.16C83.9699 330.16 83.2659 329.995 82.6579 329.664C82.0499 329.333 81.5752 328.859 81.2339 328.24C80.9032 327.611 80.7379 326.864 80.7379 326C80.7379 325.136 80.9032 324.395 81.2339 323.776C81.5752 323.147 82.0445 322.667 82.6419 322.336C83.2392 322.005 83.9165 321.84 84.6739 321.84C85.4525 321.84 86.1139 322 86.6579 322.32C87.2019 322.64 87.6179 323.077 87.9059 323.632C88.1939 324.187 88.3379 324.816 88.3379 325.52C88.3379 325.712 88.3325 325.893 88.3219 326.064C88.3112 326.235 88.2952 326.384 88.2739 326.512H81.8419V325.2H87.5219L86.6739 325.456C86.6739 324.731 86.4925 324.176 86.1299 323.792C85.7672 323.397 85.2712 323.2 84.6419 323.2C84.1832 323.2 83.7832 323.307 83.4419 323.52C83.1005 323.733 82.8392 324.053 82.6579 324.48C82.4765 324.896 82.3859 325.408 82.3859 326.016C82.3859 326.613 82.4819 327.12 82.6739 327.536C82.8659 327.952 83.1379 328.267 83.4899 328.48C83.8419 328.693 84.2579 328.8 84.7379 328.8C85.2712 328.8 85.7032 328.699 86.0339 328.496C86.3645 328.293 86.6259 328.011 86.8179 327.648L88.1779 328.288C87.9859 328.672 87.7245 329.008 87.3939 329.296C87.0739 329.573 86.6899 329.787 86.2419 329.936C85.7939 330.085 85.3032 330.16 84.7699 330.16ZM92.6484 319.648V327.6C92.6484 327.995 92.7497 328.283 92.9524 328.464C93.1657 328.645 93.4484 328.736 93.8004 328.736C94.0884 328.736 94.339 328.693 94.5524 328.608C94.7657 328.512 94.963 328.384 95.1444 328.224L95.5284 329.472C95.283 329.685 94.979 329.856 94.6164 329.984C94.2644 330.101 93.8697 330.16 93.4324 330.16C92.9737 330.16 92.5524 330.085 92.1684 329.936C91.7844 329.787 91.4857 329.547 91.2724 329.216C91.059 328.875 90.947 328.432 90.9364 327.888V320.128L92.6484 319.648ZM95.4004 322V323.344H89.4004V322H95.4004ZM100.614 330.16C99.8136 330.16 99.1096 329.995 98.5016 329.664C97.8936 329.333 97.419 328.859 97.0776 328.24C96.747 327.611 96.5816 326.864 96.5816 326C96.5816 325.136 96.747 324.395 97.0776 323.776C97.419 323.147 97.8883 322.667 98.4856 322.336C99.083 322.005 99.7603 321.84 100.518 321.84C101.296 321.84 101.958 322 102.502 322.32C103.046 322.64 103.462 323.077 103.75 323.632C104.038 324.187 104.182 324.816 104.182 325.52C104.182 325.712 104.176 325.893 104.166 326.064C104.155 326.235 104.139 326.384 104.118 326.512H97.6856V325.2H103.366L102.518 325.456C102.518 324.731 102.336 324.176 101.974 323.792C101.611 323.397 101.115 323.2 100.486 323.2C100.027 323.2 99.627 323.307 99.2856 323.52C98.9443 323.733 98.683 324.053 98.5016 324.48C98.3203 324.896 98.2296 325.408 98.2296 326.016C98.2296 326.613 98.3256 327.12 98.5176 327.536C98.7096 327.952 98.9816 328.267 99.3336 328.48C99.6856 328.693 100.102 328.8 100.582 328.8C101.115 328.8 101.547 328.699 101.878 328.496C102.208 328.293 102.47 328.011 102.662 327.648L104.022 328.288C103.83 328.672 103.568 329.008 103.238 329.296C102.918 329.573 102.534 329.787 102.086 329.936C101.638 330.085 101.147 330.16 100.614 330.16ZM106.344 330V322H107.8L107.96 323.44C108.173 322.917 108.488 322.523 108.904 322.256C109.33 321.979 109.853 321.84 110.472 321.84C110.632 321.84 110.792 321.856 110.952 321.888C111.112 321.909 111.245 321.947 111.352 322L111.112 323.504C110.994 323.461 110.861 323.429 110.712 323.408C110.573 323.376 110.381 323.36 110.136 323.36C109.805 323.36 109.48 323.451 109.16 323.632C108.84 323.803 108.573 324.064 108.36 324.416C108.157 324.768 108.056 325.216 108.056 325.76V330H106.344ZM115.727 330.16C114.927 330.16 114.197 330.005 113.535 329.696C112.874 329.387 112.351 328.949 111.967 328.384L113.151 327.36C113.386 327.797 113.722 328.149 114.159 328.416C114.607 328.672 115.141 328.8 115.759 328.8C116.25 328.8 116.639 328.715 116.927 328.544C117.215 328.373 117.359 328.133 117.359 327.824C117.359 327.621 117.29 327.445 117.151 327.296C117.023 327.136 116.773 327.013 116.399 326.928L114.719 326.576C113.866 326.405 113.258 326.133 112.895 325.76C112.533 325.376 112.351 324.891 112.351 324.304C112.351 323.867 112.479 323.461 112.735 323.088C112.991 322.715 113.365 322.416 113.855 322.192C114.357 321.957 114.954 321.84 115.647 321.84C116.447 321.84 117.13 321.984 117.695 322.272C118.261 322.549 118.693 322.949 118.991 323.472L117.807 324.464C117.605 324.037 117.306 323.723 116.911 323.52C116.517 323.307 116.106 323.2 115.679 323.2C115.338 323.2 115.045 323.243 114.799 323.328C114.554 323.413 114.367 323.531 114.239 323.68C114.111 323.829 114.047 324.005 114.047 324.208C114.047 324.421 114.127 324.608 114.287 324.768C114.447 324.928 114.735 325.051 115.151 325.136L116.975 325.52C117.743 325.669 118.282 325.925 118.591 326.288C118.911 326.64 119.071 327.072 119.071 327.584C119.071 328.096 118.938 328.549 118.671 328.944C118.405 329.328 118.021 329.627 117.519 329.84C117.018 330.053 116.421 330.16 115.727 330.16Z" fill="#78716C"/>
<path d="M393.707 203.207C394.098 202.817 394.098 202.183 393.707 201.793L387.343 195.429C386.953 195.038 386.319 195.038 385.929 195.429C385.538 195.819 385.538 196.453 385.929 196.843L391.586 202.5L385.929 208.157C385.538 208.547 385.538 209.181 385.929 209.571C386.319 209.962 386.953 209.962 387.343 209.571L393.707 203.207ZM218 75H275V73H218V75ZM298 98V178.5H300V98H298ZM323 203.5H393V201.5H323V203.5ZM298 178.5C298 192.307 309.193 203.5 323 203.5V201.5C310.297 201.5 300 191.203 300 178.5H298ZM275 75C287.703 75 298 85.2975 298 98H300C300 84.1929 288.807 73 275 73V75Z" fill="#A8A29E"/>
<path d="M393.707 203.207C394.098 202.817 394.098 202.183 393.707 201.793L387.343 195.429C386.953 195.038 386.319 195.038 385.929 195.429C385.538 195.819 385.538 196.453 385.929 196.843L391.586 202.5L385.929 208.157C385.538 208.547 385.538 209.181 385.929 209.571C386.319 209.962 386.953 209.962 387.343 209.571L393.707 203.207ZM218 203.5H393V201.5H218V203.5Z" fill="#A8A29E"/>
<path d="M393.707 203.207C394.098 202.817 394.098 202.183 393.707 201.793L387.343 195.429C386.953 195.038 386.319 195.038 385.929 195.429C385.538 195.819 385.538 196.453 385.929 196.843L391.586 202.5L385.929 208.157C385.538 208.547 385.538 209.181 385.929 209.571C386.319 209.962 386.953 209.962 387.343 209.571L393.707 203.207ZM218 309H289V307H218V309ZM314 284V226.5H312V284H314ZM337 203.5H393V201.5H337V203.5ZM314 226.5C314 213.797 324.297 203.5 337 203.5V201.5C323.193 201.5 312 212.693 312 226.5H314ZM289 309C302.807 309 314 297.807 314 284H312C312 296.703 301.703 307 289 307V309Z" fill="#A8A29E"/>
</svg>
