<svg width="998" height="390" viewBox="0 0 998 390" fill="none" xmlns="http://www.w3.org/2000/svg">
<rect width="998" height="390" fill="white"/>
<rect x="11.75" y="9.75" width="973.5" height="365.5" rx="7.25" stroke="#D6D3D1" stroke-width="1.5"/>
<path d="M422.54 44.6C423.74 44.6 424.793 44.8067 425.7 45.22C426.607 45.6333 427.38 46.2467 428.02 47.06L426.48 48.84C425.933 48.1467 425.333 47.64 424.68 47.32C424.04 46.9867 423.293 46.82 422.44 46.82C421.88 46.82 421.413 46.8933 421.04 47.04C420.68 47.1867 420.413 47.38 420.24 47.62C420.08 47.86 420 48.1267 420 48.42C420 48.78 420.14 49.0867 420.42 49.34C420.7 49.58 421.18 49.78 421.86 49.94L424.32 50.5C425.627 50.7933 426.56 51.2333 427.12 51.82C427.693 52.3933 427.98 53.14 427.98 54.06C427.98 54.9267 427.753 55.6733 427.3 56.3C426.847 56.9133 426.213 57.3867 425.4 57.72C424.587 58.04 423.653 58.2 422.6 58.2C421.68 58.2 420.833 58.0933 420.06 57.88C419.3 57.6533 418.62 57.3467 418.02 56.96C417.42 56.5733 416.92 56.1267 416.52 55.62L418.08 53.76C418.387 54.1867 418.767 54.5667 419.22 54.9C419.673 55.2333 420.187 55.5 420.76 55.7C421.347 55.8867 421.96 55.98 422.6 55.98C423.147 55.98 423.607 55.92 423.98 55.8C424.367 55.6667 424.653 55.4867 424.84 55.26C425.04 55.02 425.14 54.7333 425.14 54.4C425.14 54.0533 425.02 53.76 424.78 53.52C424.553 53.2667 424.127 53.0733 423.5 52.94L420.82 52.34C420.047 52.1533 419.38 51.9133 418.82 51.62C418.273 51.3133 417.853 50.9267 417.56 50.46C417.28 49.98 417.14 49.4133 417.14 48.76C417.14 47.9733 417.353 47.2667 417.78 46.64C418.207 46.0133 418.82 45.52 419.62 45.16C420.433 44.7867 421.407 44.6 422.54 44.6ZM441.06 44.8V47.02H436.64V58H433.88V47.02H429.44V44.8H441.06ZM453.476 58H450.616L449.516 54.78H444.456L443.356 58H440.536L445.356 44.8H448.656L453.476 58ZM445.076 52.74H448.896L446.976 46.98L445.076 52.74ZM464.575 44.8V47.02H460.155V58H457.395V47.02H452.955V44.8H464.575ZM467.23 58V44.8H477.13V47.02H469.99V50.3H475.61V52.42H469.99V55.78H477.41V58H467.23ZM501.16 44.8V58H498.66V51.12L498.8 47.26H498.76L495.1 58H492.84L489.2 47.26H489.16L489.3 51.12V58H486.8V44.8H490.8L493.18 52L494.02 54.98H494.06L494.92 52.02L497.28 44.8H501.16ZM516.453 58H513.593L512.493 54.78H507.433L506.333 58H503.513L508.333 44.8H511.633L516.453 58ZM508.053 52.74H511.873L509.953 46.98L508.053 52.74ZM529.622 54.36C529.369 55.2133 528.969 55.9267 528.422 56.5C527.876 57.0733 527.229 57.5 526.482 57.78C525.736 58.06 524.916 58.2 524.022 58.2C522.716 58.2 521.582 57.9267 520.622 57.38C519.676 56.8333 518.942 56.0533 518.422 55.04C517.916 54.0267 517.662 52.8133 517.662 51.4C517.662 49.9867 517.916 48.7733 518.422 47.76C518.942 46.7467 519.676 45.9667 520.622 45.42C521.582 44.8733 522.702 44.6 523.982 44.6C524.889 44.6 525.709 44.7267 526.442 44.98C527.176 45.22 527.796 45.5933 528.302 46.1C528.822 46.6067 529.202 47.2467 529.442 48.02L526.942 49.08C526.716 48.28 526.369 47.7133 525.902 47.38C525.436 47.0333 524.836 46.86 524.102 46.86C523.382 46.86 522.749 47.0333 522.202 47.38C521.669 47.7267 521.256 48.24 520.962 48.92C520.669 49.5867 520.522 50.4133 520.522 51.4C520.522 52.3733 520.656 53.2 520.922 53.88C521.202 54.56 521.609 55.0733 522.142 55.42C522.676 55.7667 523.329 55.94 524.102 55.94C524.822 55.94 525.442 55.7467 525.962 55.36C526.496 54.9733 526.869 54.3867 527.082 53.6L529.622 54.36ZM543.715 44.8V58H540.955V44.8H543.715ZM535.135 44.8V58H532.375V44.8H535.135ZM542.395 50.22V52.44H533.755V50.22H542.395ZM550.32 44.8V58H547.56V44.8H550.32ZM565.491 44.8V58H562.331L557.711 50.24L556.571 48.08H556.551L556.631 50.36V58H554.151V44.8H557.291L561.911 52.54L563.051 54.72H563.091L563.011 52.44V44.8H565.491ZM569.336 58V44.8H579.236V47.02H572.096V50.3H577.716V52.42H572.096V55.78H579.516V58H569.336Z" fill="#57534E"/>
<rect x="39.75" y="160.75" width="115.5" height="51.5" rx="7.25" fill="#EEF2FF"/>
<path d="M77.54 179.6C78.74 179.6 79.7933 179.807 80.7 180.22C81.6067 180.633 82.38 181.247 83.02 182.06L81.48 183.84C80.9333 183.147 80.3333 182.64 79.68 182.32C79.04 181.987 78.2933 181.82 77.44 181.82C76.88 181.82 76.4133 181.893 76.04 182.04C75.68 182.187 75.4133 182.38 75.24 182.62C75.08 182.86 75 183.127 75 183.42C75 183.78 75.14 184.087 75.42 184.34C75.7 184.58 76.18 184.78 76.86 184.94L79.32 185.5C80.6267 185.793 81.56 186.233 82.12 186.82C82.6933 187.393 82.98 188.14 82.98 189.06C82.98 189.927 82.7533 190.673 82.3 191.3C81.8467 191.913 81.2133 192.387 80.4 192.72C79.5867 193.04 78.6533 193.2 77.6 193.2C76.68 193.2 75.8333 193.093 75.06 192.88C74.3 192.653 73.62 192.347 73.02 191.96C72.42 191.573 71.92 191.127 71.52 190.62L73.08 188.76C73.3867 189.187 73.7667 189.567 74.22 189.9C74.6733 190.233 75.1867 190.5 75.76 190.7C76.3467 190.887 76.96 190.98 77.6 190.98C78.1467 190.98 78.6067 190.92 78.98 190.8C79.3667 190.667 79.6533 190.487 79.84 190.26C80.04 190.02 80.14 189.733 80.14 189.4C80.14 189.053 80.02 188.76 79.78 188.52C79.5533 188.267 79.1267 188.073 78.5 187.94L75.82 187.34C75.0467 187.153 74.38 186.913 73.82 186.62C73.2733 186.313 72.8533 185.927 72.56 185.46C72.28 184.98 72.14 184.413 72.14 183.76C72.14 182.973 72.3533 182.267 72.78 181.64C73.2067 181.013 73.82 180.52 74.62 180.16C75.4333 179.787 76.4067 179.6 77.54 179.6ZM88.8511 179.94V189.74C88.8511 190.22 88.9711 190.573 89.2111 190.8C89.4644 191.013 89.8044 191.12 90.2311 191.12C90.5644 191.12 90.8578 191.073 91.1111 190.98C91.3644 190.873 91.5911 190.733 91.7911 190.56L92.2311 192.38C91.9111 192.633 91.5111 192.833 91.0311 192.98C90.5511 193.127 90.0444 193.2 89.5111 193.2C88.8444 193.2 88.2511 193.1 87.7311 192.9C87.2244 192.7 86.8244 192.38 86.5311 191.94C86.2511 191.5 86.1111 190.913 86.1111 190.18V180.7L88.8511 179.94ZM92.0511 183V185.04H84.2711V183H92.0511ZM99.7025 186.62C99.7025 186.047 99.5358 185.6 99.2025 185.28C98.8825 184.96 98.4558 184.8 97.9225 184.8C97.4292 184.8 96.9958 184.927 96.6225 185.18C96.2492 185.433 95.9758 185.853 95.8025 186.44L93.4625 185.72C93.6892 184.84 94.1825 184.133 94.9425 183.6C95.7158 183.067 96.7492 182.8 98.0425 182.8C98.9225 182.8 99.6892 182.94 100.343 183.22C100.996 183.487 101.503 183.893 101.863 184.44C102.236 184.987 102.423 185.673 102.423 186.5V190.56C102.423 191.067 102.663 191.32 103.143 191.32C103.369 191.32 103.583 191.287 103.783 191.22L103.623 192.92C103.276 193.093 102.843 193.18 102.323 193.18C101.856 193.18 101.436 193.1 101.063 192.94C100.689 192.78 100.396 192.54 100.183 192.22C99.9692 191.887 99.8625 191.473 99.8625 190.98V190.9L100.343 190.82C100.263 191.327 100.043 191.76 99.6825 192.12C99.3225 192.467 98.8825 192.733 98.3625 192.92C97.8558 193.107 97.3292 193.2 96.7825 193.2C96.1025 193.2 95.5158 193.1 95.0225 192.9C94.5292 192.687 94.1492 192.38 93.8825 191.98C93.6158 191.58 93.4825 191.087 93.4825 190.5C93.4825 189.753 93.7225 189.147 94.2025 188.68C94.6825 188.2 95.3692 187.873 96.2625 187.7L100.023 186.94L100.003 188.64L97.6025 189.12C97.1492 189.213 96.8025 189.34 96.5625 189.5C96.3358 189.647 96.2225 189.893 96.2225 190.24C96.2225 190.573 96.3425 190.827 96.5825 191C96.8358 191.173 97.1358 191.26 97.4825 191.26C97.7625 191.26 98.0358 191.227 98.3025 191.16C98.5692 191.093 98.8092 190.987 99.0225 190.84C99.2358 190.693 99.4025 190.493 99.5225 190.24C99.6425 189.987 99.7025 189.68 99.7025 189.32V186.62ZM108.636 179.94V189.74C108.636 190.22 108.756 190.573 108.996 190.8C109.25 191.013 109.59 191.12 110.016 191.12C110.35 191.12 110.643 191.073 110.896 190.98C111.15 190.873 111.376 190.733 111.576 190.56L112.016 192.38C111.696 192.633 111.296 192.833 110.816 192.98C110.336 193.127 109.83 193.2 109.296 193.2C108.63 193.2 108.036 193.1 107.516 192.9C107.01 192.7 106.61 192.38 106.316 191.94C106.036 191.5 105.896 190.913 105.896 190.18V180.7L108.636 179.94ZM111.836 183V185.04H104.056V183H111.836ZM118.33 193.2C117.277 193.2 116.357 192.993 115.57 192.58C114.797 192.167 114.197 191.573 113.77 190.8C113.343 190.027 113.13 189.093 113.13 188C113.13 186.907 113.343 185.973 113.77 185.2C114.197 184.427 114.79 183.833 115.55 183.42C116.323 183.007 117.203 182.8 118.19 182.8C119.203 182.8 120.063 183.007 120.77 183.42C121.477 183.82 122.017 184.373 122.39 185.08C122.763 185.773 122.95 186.567 122.95 187.46C122.95 187.727 122.943 187.98 122.93 188.22C122.917 188.46 122.897 188.673 122.87 188.86H114.89V186.96H121.67L120.35 187.44C120.35 186.6 120.157 185.953 119.77 185.5C119.397 185.047 118.863 184.82 118.17 184.82C117.663 184.82 117.223 184.94 116.85 185.18C116.49 185.42 116.217 185.78 116.03 186.26C115.843 186.727 115.75 187.32 115.75 188.04C115.75 188.747 115.85 189.333 116.05 189.8C116.263 190.253 116.557 190.593 116.93 190.82C117.317 191.047 117.777 191.16 118.31 191.16C118.897 191.16 119.37 191.047 119.73 190.82C120.09 190.593 120.37 190.28 120.57 189.88L122.75 190.72C122.537 191.24 122.21 191.687 121.77 192.06C121.343 192.433 120.83 192.72 120.23 192.92C119.643 193.107 119.01 193.2 118.33 193.2Z" fill="#4338CA"/>
<rect x="39.75" y="160.75" width="115.5" height="51.5" rx="7.25" stroke="#4F46E5" stroke-width="1.5"/>
<rect x="41.75" y="64.75" width="112.5" height="51.5" rx="25.75" fill="white"/>
<path d="M79.6865 83.6C80.8865 83.6 81.9398 83.8067 82.8465 84.22C83.7532 84.6333 84.5265 85.2467 85.1665 86.06L83.6265 87.84C83.0798 87.1467 82.4798 86.64 81.8265 86.32C81.1865 85.9867 80.4398 85.82 79.5865 85.82C79.0265 85.82 78.5598 85.8933 78.1865 86.04C77.8265 86.1867 77.5598 86.38 77.3865 86.62C77.2265 86.86 77.1465 87.1267 77.1465 87.42C77.1465 87.78 77.2865 88.0867 77.5665 88.34C77.8465 88.58 78.3265 88.78 79.0065 88.94L81.4665 89.5C82.7732 89.7933 83.7065 90.2333 84.2665 90.82C84.8398 91.3933 85.1265 92.14 85.1265 93.06C85.1265 93.9267 84.8998 94.6733 84.4465 95.3C83.9932 95.9133 83.3598 96.3867 82.5465 96.72C81.7332 97.04 80.7998 97.2 79.7465 97.2C78.8265 97.2 77.9798 97.0933 77.2065 96.88C76.4465 96.6533 75.7665 96.3467 75.1665 95.96C74.5665 95.5733 74.0665 95.1267 73.6665 94.62L75.2265 92.76C75.5332 93.1867 75.9132 93.5667 76.3665 93.9C76.8198 94.2333 77.3332 94.5 77.9065 94.7C78.4932 94.8867 79.1065 94.98 79.7465 94.98C80.2932 94.98 80.7532 94.92 81.1265 94.8C81.5132 94.6667 81.7998 94.4867 81.9865 94.26C82.1865 94.02 82.2865 93.7333 82.2865 93.4C82.2865 93.0533 82.1665 92.76 81.9265 92.52C81.6998 92.2667 81.2732 92.0733 80.6465 91.94L77.9665 91.34C77.1932 91.1533 76.5265 90.9133 75.9665 90.62C75.4198 90.3133 74.9998 89.9267 74.7065 89.46C74.4265 88.98 74.2865 88.4133 74.2865 87.76C74.2865 86.9733 74.4998 86.2667 74.9265 85.64C75.3532 85.0133 75.9665 84.52 76.7665 84.16C77.5798 83.7867 78.5532 83.6 79.6865 83.6ZM90.9976 83.94V93.74C90.9976 94.22 91.1176 94.5733 91.3576 94.8C91.6109 95.0133 91.9509 95.12 92.3776 95.12C92.7109 95.12 93.0042 95.0733 93.2576 94.98C93.5109 94.8733 93.7376 94.7333 93.9376 94.56L94.3776 96.38C94.0576 96.6333 93.6576 96.8333 93.1776 96.98C92.6976 97.1267 92.1909 97.2 91.6576 97.2C90.9909 97.2 90.3976 97.1 89.8776 96.9C89.3709 96.7 88.9709 96.38 88.6776 95.94C88.3976 95.5 88.2576 94.9133 88.2576 94.18V84.7L90.9976 83.94ZM94.1976 87V89.04H86.4176V87H94.1976ZM101.849 90.62C101.849 90.0467 101.682 89.6 101.349 89.28C101.029 88.96 100.602 88.8 100.069 88.8C99.5757 88.8 99.1423 88.9267 98.769 89.18C98.3957 89.4333 98.1223 89.8533 97.949 90.44L95.609 89.72C95.8357 88.84 96.329 88.1333 97.089 87.6C97.8623 87.0667 98.8957 86.8 100.189 86.8C101.069 86.8 101.836 86.94 102.489 87.22C103.142 87.4867 103.649 87.8933 104.009 88.44C104.382 88.9867 104.569 89.6733 104.569 90.5V94.56C104.569 95.0667 104.809 95.32 105.289 95.32C105.516 95.32 105.729 95.2867 105.929 95.22L105.769 96.92C105.422 97.0933 104.989 97.18 104.469 97.18C104.002 97.18 103.582 97.1 103.209 96.94C102.836 96.78 102.542 96.54 102.329 96.22C102.116 95.8867 102.009 95.4733 102.009 94.98V94.9L102.489 94.82C102.409 95.3267 102.189 95.76 101.829 96.12C101.469 96.4667 101.029 96.7333 100.509 96.92C100.002 97.1067 99.4757 97.2 98.929 97.2C98.249 97.2 97.6623 97.1 97.169 96.9C96.6757 96.6867 96.2957 96.38 96.029 95.98C95.7623 95.58 95.629 95.0867 95.629 94.5C95.629 93.7533 95.869 93.1467 96.349 92.68C96.829 92.2 97.5157 91.8733 98.409 91.7L102.169 90.94L102.149 92.64L99.749 93.12C99.2957 93.2133 98.949 93.34 98.709 93.5C98.4823 93.6467 98.369 93.8933 98.369 94.24C98.369 94.5733 98.489 94.8267 98.729 95C98.9823 95.1733 99.2823 95.26 99.629 95.26C99.909 95.26 100.182 95.2267 100.449 95.16C100.716 95.0933 100.956 94.9867 101.169 94.84C101.382 94.6933 101.549 94.4933 101.669 94.24C101.789 93.9867 101.849 93.68 101.849 93.32V90.62ZM107.633 97V87H110.013L110.193 88.96C110.46 88.2667 110.847 87.7333 111.353 87.36C111.873 86.9867 112.52 86.8 113.293 86.8C113.52 86.8 113.727 86.82 113.913 86.86C114.1 86.9 114.253 86.9533 114.373 87.02L114.053 89.32C113.92 89.2667 113.753 89.2267 113.553 89.2C113.367 89.1733 113.12 89.16 112.813 89.16C112.413 89.16 112.027 89.26 111.653 89.46C111.28 89.6467 110.973 89.94 110.733 90.34C110.493 90.7267 110.373 91.22 110.373 91.82V97H107.633ZM119.24 83.94V93.74C119.24 94.22 119.36 94.5733 119.6 94.8C119.853 95.0133 120.193 95.12 120.62 95.12C120.953 95.12 121.246 95.0733 121.5 94.98C121.753 94.8733 121.98 94.7333 122.18 94.56L122.62 96.38C122.3 96.6333 121.9 96.8333 121.42 96.98C120.94 97.1267 120.433 97.2 119.9 97.2C119.233 97.2 118.64 97.1 118.12 96.9C117.613 96.7 117.213 96.38 116.92 95.94C116.64 95.5 116.5 94.9133 116.5 94.18V84.7L119.24 83.94ZM122.44 87V89.04H114.66V87H122.44Z" fill="#44403C"/>
<rect x="41.75" y="64.75" width="112.5" height="51.5" rx="25.75" stroke="#A8A29E" stroke-width="1.5"/>
<path d="M96.7929 156.707C97.1834 157.098 97.8166 157.098 98.2071 156.707L104.571 150.343C104.962 149.953 104.962 149.319 104.571 148.929C104.181 148.538 103.547 148.538 103.157 148.929L97.5 154.586L91.8431 148.929C91.4526 148.538 90.8195 148.538 90.4289 148.929C90.0384 149.319 90.0384 149.953 90.4289 150.343L96.7929 156.707ZM96.5 121V156H98.5V121H96.5Z" fill="#A8A29E"/>
<rect x="460.75" y="160.75" width="115.5" height="51.5" rx="7.25" fill="#EEF2FF"/>
<path d="M498.54 179.6C499.74 179.6 500.793 179.807 501.7 180.22C502.607 180.633 503.38 181.247 504.02 182.06L502.48 183.84C501.933 183.147 501.333 182.64 500.68 182.32C500.04 181.987 499.293 181.82 498.44 181.82C497.88 181.82 497.413 181.893 497.04 182.04C496.68 182.187 496.413 182.38 496.24 182.62C496.08 182.86 496 183.127 496 183.42C496 183.78 496.14 184.087 496.42 184.34C496.7 184.58 497.18 184.78 497.86 184.94L500.32 185.5C501.627 185.793 502.56 186.233 503.12 186.82C503.693 187.393 503.98 188.14 503.98 189.06C503.98 189.927 503.753 190.673 503.3 191.3C502.847 191.913 502.213 192.387 501.4 192.72C500.587 193.04 499.653 193.2 498.6 193.2C497.68 193.2 496.833 193.093 496.06 192.88C495.3 192.653 494.62 192.347 494.02 191.96C493.42 191.573 492.92 191.127 492.52 190.62L494.08 188.76C494.387 189.187 494.767 189.567 495.22 189.9C495.673 190.233 496.187 190.5 496.76 190.7C497.347 190.887 497.96 190.98 498.6 190.98C499.147 190.98 499.607 190.92 499.98 190.8C500.367 190.667 500.653 190.487 500.84 190.26C501.04 190.02 501.14 189.733 501.14 189.4C501.14 189.053 501.02 188.76 500.78 188.52C500.553 188.267 500.127 188.073 499.5 187.94L496.82 187.34C496.047 187.153 495.38 186.913 494.82 186.62C494.273 186.313 493.853 185.927 493.56 185.46C493.28 184.98 493.14 184.413 493.14 183.76C493.14 182.973 493.353 182.267 493.78 181.64C494.207 181.013 494.82 180.52 495.62 180.16C496.433 179.787 497.407 179.6 498.54 179.6ZM509.851 179.94V189.74C509.851 190.22 509.971 190.573 510.211 190.8C510.464 191.013 510.804 191.12 511.231 191.12C511.564 191.12 511.858 191.073 512.111 190.98C512.364 190.873 512.591 190.733 512.791 190.56L513.231 192.38C512.911 192.633 512.511 192.833 512.031 192.98C511.551 193.127 511.044 193.2 510.511 193.2C509.844 193.2 509.251 193.1 508.731 192.9C508.224 192.7 507.824 192.38 507.531 191.94C507.251 191.5 507.111 190.913 507.111 190.18V180.7L509.851 179.94ZM513.051 183V185.04H505.271V183H513.051ZM520.703 186.62C520.703 186.047 520.536 185.6 520.203 185.28C519.883 184.96 519.456 184.8 518.923 184.8C518.429 184.8 517.996 184.927 517.623 185.18C517.249 185.433 516.976 185.853 516.803 186.44L514.463 185.72C514.689 184.84 515.183 184.133 515.943 183.6C516.716 183.067 517.749 182.8 519.043 182.8C519.923 182.8 520.689 182.94 521.343 183.22C521.996 183.487 522.503 183.893 522.863 184.44C523.236 184.987 523.423 185.673 523.423 186.5V190.56C523.423 191.067 523.663 191.32 524.143 191.32C524.369 191.32 524.583 191.287 524.783 191.22L524.623 192.92C524.276 193.093 523.843 193.18 523.323 193.18C522.856 193.18 522.436 193.1 522.063 192.94C521.689 192.78 521.396 192.54 521.183 192.22C520.969 191.887 520.863 191.473 520.863 190.98V190.9L521.343 190.82C521.263 191.327 521.043 191.76 520.683 192.12C520.323 192.467 519.883 192.733 519.363 192.92C518.856 193.107 518.329 193.2 517.783 193.2C517.103 193.2 516.516 193.1 516.023 192.9C515.529 192.687 515.149 192.38 514.882 191.98C514.616 191.58 514.483 191.087 514.483 190.5C514.483 189.753 514.723 189.147 515.203 188.68C515.683 188.2 516.369 187.873 517.263 187.7L521.023 186.94L521.003 188.64L518.603 189.12C518.149 189.213 517.803 189.34 517.563 189.5C517.336 189.647 517.223 189.893 517.223 190.24C517.223 190.573 517.343 190.827 517.583 191C517.836 191.173 518.136 191.26 518.483 191.26C518.763 191.26 519.036 191.227 519.303 191.16C519.569 191.093 519.809 190.987 520.023 190.84C520.236 190.693 520.403 190.493 520.523 190.24C520.643 189.987 520.703 189.68 520.703 189.32V186.62ZM529.636 179.94V189.74C529.636 190.22 529.756 190.573 529.996 190.8C530.25 191.013 530.59 191.12 531.016 191.12C531.35 191.12 531.643 191.073 531.896 190.98C532.15 190.873 532.376 190.733 532.576 190.56L533.016 192.38C532.696 192.633 532.296 192.833 531.816 192.98C531.336 193.127 530.83 193.2 530.296 193.2C529.63 193.2 529.036 193.1 528.516 192.9C528.01 192.7 527.61 192.38 527.316 191.94C527.036 191.5 526.896 190.913 526.896 190.18V180.7L529.636 179.94ZM532.836 183V185.04H525.056V183H532.836ZM539.33 193.2C538.277 193.2 537.357 192.993 536.57 192.58C535.797 192.167 535.197 191.573 534.77 190.8C534.343 190.027 534.13 189.093 534.13 188C534.13 186.907 534.343 185.973 534.77 185.2C535.197 184.427 535.79 183.833 536.55 183.42C537.323 183.007 538.203 182.8 539.19 182.8C540.203 182.8 541.063 183.007 541.77 183.42C542.477 183.82 543.017 184.373 543.39 185.08C543.763 185.773 543.95 186.567 543.95 187.46C543.95 187.727 543.943 187.98 543.93 188.22C543.917 188.46 543.897 188.673 543.87 188.86H535.89V186.96H542.67L541.35 187.44C541.35 186.6 541.157 185.953 540.77 185.5C540.397 185.047 539.863 184.82 539.17 184.82C538.663 184.82 538.223 184.94 537.85 185.18C537.49 185.42 537.217 185.78 537.03 186.26C536.843 186.727 536.75 187.32 536.75 188.04C536.75 188.747 536.85 189.333 537.05 189.8C537.263 190.253 537.557 190.593 537.93 190.82C538.317 191.047 538.777 191.16 539.31 191.16C539.897 191.16 540.37 191.047 540.73 190.82C541.09 190.593 541.37 190.28 541.57 189.88L543.75 190.72C543.537 191.24 543.21 191.687 542.77 192.06C542.343 192.433 541.83 192.72 541.23 192.92C540.643 193.107 540.01 193.2 539.33 193.2Z" fill="#4338CA"/>
<rect x="460.75" y="160.75" width="115.5" height="51.5" rx="7.25" stroke="#4F46E5" stroke-width="1.5"/>
<rect x="243.75" y="288.75" width="115.5" height="51.5" rx="7.25" fill="#EEF2FF"/>
<path d="M281.54 307.6C282.74 307.6 283.793 307.807 284.7 308.22C285.607 308.633 286.38 309.247 287.02 310.06L285.48 311.84C284.933 311.147 284.333 310.64 283.68 310.32C283.04 309.987 282.293 309.82 281.44 309.82C280.88 309.82 280.413 309.893 280.04 310.04C279.68 310.187 279.413 310.38 279.24 310.62C279.08 310.86 279 311.127 279 311.42C279 311.78 279.14 312.087 279.42 312.34C279.7 312.58 280.18 312.78 280.86 312.94L283.32 313.5C284.627 313.793 285.56 314.233 286.12 314.82C286.693 315.393 286.98 316.14 286.98 317.06C286.98 317.927 286.753 318.673 286.3 319.3C285.847 319.913 285.213 320.387 284.4 320.72C283.587 321.04 282.653 321.2 281.6 321.2C280.68 321.2 279.833 321.093 279.06 320.88C278.3 320.653 277.62 320.347 277.02 319.96C276.42 319.573 275.92 319.127 275.52 318.62L277.08 316.76C277.387 317.187 277.767 317.567 278.22 317.9C278.673 318.233 279.187 318.5 279.76 318.7C280.347 318.887 280.96 318.98 281.6 318.98C282.147 318.98 282.607 318.92 282.98 318.8C283.367 318.667 283.653 318.487 283.84 318.26C284.04 318.02 284.14 317.733 284.14 317.4C284.14 317.053 284.02 316.76 283.78 316.52C283.553 316.267 283.127 316.073 282.5 315.94L279.82 315.34C279.047 315.153 278.38 314.913 277.82 314.62C277.273 314.313 276.853 313.927 276.56 313.46C276.28 312.98 276.14 312.413 276.14 311.76C276.14 310.973 276.353 310.267 276.78 309.64C277.207 309.013 277.82 308.52 278.62 308.16C279.433 307.787 280.407 307.6 281.54 307.6ZM292.851 307.94V317.74C292.851 318.22 292.971 318.573 293.211 318.8C293.464 319.013 293.804 319.12 294.231 319.12C294.564 319.12 294.858 319.073 295.111 318.98C295.364 318.873 295.591 318.733 295.791 318.56L296.231 320.38C295.911 320.633 295.511 320.833 295.031 320.98C294.551 321.127 294.044 321.2 293.511 321.2C292.844 321.2 292.251 321.1 291.731 320.9C291.224 320.7 290.824 320.38 290.531 319.94C290.251 319.5 290.111 318.913 290.111 318.18V308.7L292.851 307.94ZM296.051 311V313.04H288.271V311H296.051ZM303.703 314.62C303.703 314.047 303.536 313.6 303.203 313.28C302.883 312.96 302.456 312.8 301.923 312.8C301.429 312.8 300.996 312.927 300.623 313.18C300.249 313.433 299.976 313.853 299.803 314.44L297.463 313.72C297.689 312.84 298.183 312.133 298.943 311.6C299.716 311.067 300.749 310.8 302.043 310.8C302.923 310.8 303.689 310.94 304.343 311.22C304.996 311.487 305.503 311.893 305.863 312.44C306.236 312.987 306.423 313.673 306.423 314.5V318.56C306.423 319.067 306.663 319.32 307.143 319.32C307.369 319.32 307.583 319.287 307.783 319.22L307.623 320.92C307.276 321.093 306.843 321.18 306.323 321.18C305.856 321.18 305.436 321.1 305.063 320.94C304.689 320.78 304.396 320.54 304.183 320.22C303.969 319.887 303.863 319.473 303.863 318.98V318.9L304.343 318.82C304.263 319.327 304.043 319.76 303.683 320.12C303.323 320.467 302.883 320.733 302.363 320.92C301.856 321.107 301.329 321.2 300.783 321.2C300.103 321.2 299.516 321.1 299.023 320.9C298.529 320.687 298.149 320.38 297.882 319.98C297.616 319.58 297.483 319.087 297.483 318.5C297.483 317.753 297.723 317.147 298.203 316.68C298.683 316.2 299.369 315.873 300.263 315.7L304.023 314.94L304.003 316.64L301.603 317.12C301.149 317.213 300.803 317.34 300.563 317.5C300.336 317.647 300.223 317.893 300.223 318.24C300.223 318.573 300.343 318.827 300.583 319C300.836 319.173 301.136 319.26 301.483 319.26C301.763 319.26 302.036 319.227 302.303 319.16C302.569 319.093 302.809 318.987 303.023 318.84C303.236 318.693 303.403 318.493 303.523 318.24C303.643 317.987 303.703 317.68 303.703 317.32V314.62ZM312.636 307.94V317.74C312.636 318.22 312.756 318.573 312.996 318.8C313.25 319.013 313.59 319.12 314.016 319.12C314.35 319.12 314.643 319.073 314.896 318.98C315.15 318.873 315.376 318.733 315.576 318.56L316.016 320.38C315.696 320.633 315.296 320.833 314.816 320.98C314.336 321.127 313.83 321.2 313.296 321.2C312.63 321.2 312.036 321.1 311.516 320.9C311.01 320.7 310.61 320.38 310.316 319.94C310.036 319.5 309.896 318.913 309.896 318.18V308.7L312.636 307.94ZM315.836 311V313.04H308.056V311H315.836ZM322.33 321.2C321.277 321.2 320.357 320.993 319.57 320.58C318.797 320.167 318.197 319.573 317.77 318.8C317.343 318.027 317.13 317.093 317.13 316C317.13 314.907 317.343 313.973 317.77 313.2C318.197 312.427 318.79 311.833 319.55 311.42C320.323 311.007 321.203 310.8 322.19 310.8C323.203 310.8 324.063 311.007 324.77 311.42C325.477 311.82 326.017 312.373 326.39 313.08C326.763 313.773 326.95 314.567 326.95 315.46C326.95 315.727 326.943 315.98 326.93 316.22C326.917 316.46 326.897 316.673 326.87 316.86H318.89V314.96H325.67L324.35 315.44C324.35 314.6 324.157 313.953 323.77 313.5C323.397 313.047 322.863 312.82 322.17 312.82C321.663 312.82 321.223 312.94 320.85 313.18C320.49 313.42 320.217 313.78 320.03 314.26C319.843 314.727 319.75 315.32 319.75 316.04C319.75 316.747 319.85 317.333 320.05 317.8C320.263 318.253 320.557 318.593 320.93 318.82C321.317 319.047 321.777 319.16 322.31 319.16C322.897 319.16 323.37 319.047 323.73 318.82C324.09 318.593 324.37 318.28 324.57 317.88L326.75 318.72C326.537 319.24 326.21 319.687 325.77 320.06C325.343 320.433 324.83 320.72 324.23 320.92C323.643 321.107 323.01 321.2 322.33 321.2Z" fill="#4338CA"/>
<rect x="243.75" y="288.75" width="115.5" height="51.5" rx="7.25" stroke="#4F46E5" stroke-width="1.5"/>
<rect x="460.75" y="288.75" width="115.5" height="51.5" rx="7.25" fill="#EEF2FF"/>
<path d="M498.54 307.6C499.74 307.6 500.793 307.807 501.7 308.22C502.607 308.633 503.38 309.247 504.02 310.06L502.48 311.84C501.933 311.147 501.333 310.64 500.68 310.32C500.04 309.987 499.293 309.82 498.44 309.82C497.88 309.82 497.413 309.893 497.04 310.04C496.68 310.187 496.413 310.38 496.24 310.62C496.08 310.86 496 311.127 496 311.42C496 311.78 496.14 312.087 496.42 312.34C496.7 312.58 497.18 312.78 497.86 312.94L500.32 313.5C501.627 313.793 502.56 314.233 503.12 314.82C503.693 315.393 503.98 316.14 503.98 317.06C503.98 317.927 503.753 318.673 503.3 319.3C502.847 319.913 502.213 320.387 501.4 320.72C500.587 321.04 499.653 321.2 498.6 321.2C497.68 321.2 496.833 321.093 496.06 320.88C495.3 320.653 494.62 320.347 494.02 319.96C493.42 319.573 492.92 319.127 492.52 318.62L494.08 316.76C494.387 317.187 494.767 317.567 495.22 317.9C495.673 318.233 496.187 318.5 496.76 318.7C497.347 318.887 497.96 318.98 498.6 318.98C499.147 318.98 499.607 318.92 499.98 318.8C500.367 318.667 500.653 318.487 500.84 318.26C501.04 318.02 501.14 317.733 501.14 317.4C501.14 317.053 501.02 316.76 500.78 316.52C500.553 316.267 500.127 316.073 499.5 315.94L496.82 315.34C496.047 315.153 495.38 314.913 494.82 314.62C494.273 314.313 493.853 313.927 493.56 313.46C493.28 312.98 493.14 312.413 493.14 311.76C493.14 310.973 493.353 310.267 493.78 309.64C494.207 309.013 494.82 308.52 495.62 308.16C496.433 307.787 497.407 307.6 498.54 307.6ZM509.851 307.94V317.74C509.851 318.22 509.971 318.573 510.211 318.8C510.464 319.013 510.804 319.12 511.231 319.12C511.564 319.12 511.858 319.073 512.111 318.98C512.364 318.873 512.591 318.733 512.791 318.56L513.231 320.38C512.911 320.633 512.511 320.833 512.031 320.98C511.551 321.127 511.044 321.2 510.511 321.2C509.844 321.2 509.251 321.1 508.731 320.9C508.224 320.7 507.824 320.38 507.531 319.94C507.251 319.5 507.111 318.913 507.111 318.18V308.7L509.851 307.94ZM513.051 311V313.04H505.271V311H513.051ZM520.703 314.62C520.703 314.047 520.536 313.6 520.203 313.28C519.883 312.96 519.456 312.8 518.923 312.8C518.429 312.8 517.996 312.927 517.623 313.18C517.249 313.433 516.976 313.853 516.803 314.44L514.463 313.72C514.689 312.84 515.183 312.133 515.943 311.6C516.716 311.067 517.749 310.8 519.043 310.8C519.923 310.8 520.689 310.94 521.343 311.22C521.996 311.487 522.503 311.893 522.863 312.44C523.236 312.987 523.423 313.673 523.423 314.5V318.56C523.423 319.067 523.663 319.32 524.143 319.32C524.369 319.32 524.583 319.287 524.783 319.22L524.623 320.92C524.276 321.093 523.843 321.18 523.323 321.18C522.856 321.18 522.436 321.1 522.063 320.94C521.689 320.78 521.396 320.54 521.183 320.22C520.969 319.887 520.863 319.473 520.863 318.98V318.9L521.343 318.82C521.263 319.327 521.043 319.76 520.683 320.12C520.323 320.467 519.883 320.733 519.363 320.92C518.856 321.107 518.329 321.2 517.783 321.2C517.103 321.2 516.516 321.1 516.023 320.9C515.529 320.687 515.149 320.38 514.882 319.98C514.616 319.58 514.483 319.087 514.483 318.5C514.483 317.753 514.723 317.147 515.203 316.68C515.683 316.2 516.369 315.873 517.263 315.7L521.023 314.94L521.003 316.64L518.603 317.12C518.149 317.213 517.803 317.34 517.563 317.5C517.336 317.647 517.223 317.893 517.223 318.24C517.223 318.573 517.343 318.827 517.583 319C517.836 319.173 518.136 319.26 518.483 319.26C518.763 319.26 519.036 319.227 519.303 319.16C519.569 319.093 519.809 318.987 520.023 318.84C520.236 318.693 520.403 318.493 520.523 318.24C520.643 317.987 520.703 317.68 520.703 317.32V314.62ZM529.636 307.94V317.74C529.636 318.22 529.756 318.573 529.996 318.8C530.25 319.013 530.59 319.12 531.016 319.12C531.35 319.12 531.643 319.073 531.896 318.98C532.15 318.873 532.376 318.733 532.576 318.56L533.016 320.38C532.696 320.633 532.296 320.833 531.816 320.98C531.336 321.127 530.83 321.2 530.296 321.2C529.63 321.2 529.036 321.1 528.516 320.9C528.01 320.7 527.61 320.38 527.316 319.94C527.036 319.5 526.896 318.913 526.896 318.18V308.7L529.636 307.94ZM532.836 311V313.04H525.056V311H532.836ZM539.33 321.2C538.277 321.2 537.357 320.993 536.57 320.58C535.797 320.167 535.197 319.573 534.77 318.8C534.343 318.027 534.13 317.093 534.13 316C534.13 314.907 534.343 313.973 534.77 313.2C535.197 312.427 535.79 311.833 536.55 311.42C537.323 311.007 538.203 310.8 539.19 310.8C540.203 310.8 541.063 311.007 541.77 311.42C542.477 311.82 543.017 312.373 543.39 313.08C543.763 313.773 543.95 314.567 543.95 315.46C543.95 315.727 543.943 315.98 543.93 316.22C543.917 316.46 543.897 316.673 543.87 316.86H535.89V314.96H542.67L541.35 315.44C541.35 314.6 541.157 313.953 540.77 313.5C540.397 313.047 539.863 312.82 539.17 312.82C538.663 312.82 538.223 312.94 537.85 313.18C537.49 313.42 537.217 313.78 537.03 314.26C536.843 314.727 536.75 315.32 536.75 316.04C536.75 316.747 536.85 317.333 537.05 317.8C537.263 318.253 537.557 318.593 537.93 318.82C538.317 319.047 538.777 319.16 539.31 319.16C539.897 319.16 540.37 319.047 540.73 318.82C541.09 318.593 541.37 318.28 541.57 317.88L543.75 318.72C543.537 319.24 543.21 319.687 542.77 320.06C542.343 320.433 541.83 320.72 541.23 320.92C540.643 321.107 540.01 321.2 539.33 321.2Z" fill="#4338CA"/>
<rect x="460.75" y="288.75" width="115.5" height="51.5" rx="7.25" stroke="#4F46E5" stroke-width="1.5"/>
<rect x="828.75" y="160.75" width="128.5" height="51.5" rx="25.75" fill="#F0FDF4"/>
<path d="M859.04 179.6C860.24 179.6 861.293 179.807 862.2 180.22C863.107 180.633 863.88 181.247 864.52 182.06L862.98 183.84C862.433 183.147 861.833 182.64 861.18 182.32C860.54 181.987 859.793 181.82 858.94 181.82C858.38 181.82 857.913 181.893 857.54 182.04C857.18 182.187 856.913 182.38 856.74 182.62C856.58 182.86 856.5 183.127 856.5 183.42C856.5 183.78 856.64 184.087 856.92 184.34C857.2 184.58 857.68 184.78 858.36 184.94L860.82 185.5C862.127 185.793 863.06 186.233 863.62 186.82C864.193 187.393 864.48 188.14 864.48 189.06C864.48 189.927 864.253 190.673 863.8 191.3C863.347 191.913 862.713 192.387 861.9 192.72C861.087 193.04 860.153 193.2 859.1 193.2C858.18 193.2 857.333 193.093 856.56 192.88C855.8 192.653 855.12 192.347 854.52 191.96C853.92 191.573 853.42 191.127 853.02 190.62L854.58 188.76C854.887 189.187 855.267 189.567 855.72 189.9C856.173 190.233 856.687 190.5 857.26 190.7C857.847 190.887 858.46 190.98 859.1 190.98C859.647 190.98 860.107 190.92 860.48 190.8C860.867 190.667 861.153 190.487 861.34 190.26C861.54 190.02 861.64 189.733 861.64 189.4C861.64 189.053 861.52 188.76 861.28 188.52C861.053 188.267 860.627 188.073 860 187.94L857.32 187.34C856.547 187.153 855.88 186.913 855.32 186.62C854.773 186.313 854.353 185.927 854.06 185.46C853.78 184.98 853.64 184.413 853.64 183.76C853.64 182.973 853.853 182.267 854.28 181.64C854.707 181.013 855.32 180.52 856.12 180.16C856.933 179.787 857.907 179.6 859.04 179.6ZM870.233 193.2C869.566 193.2 868.966 193.08 868.433 192.84C867.899 192.6 867.473 192.22 867.153 191.7C866.846 191.167 866.693 190.48 866.693 189.64V183H869.433V188.98C869.433 189.753 869.593 190.293 869.913 190.6C870.233 190.893 870.693 191.04 871.293 191.04C871.573 191.04 871.846 190.993 872.113 190.9C872.379 190.793 872.613 190.633 872.813 190.42C873.026 190.207 873.193 189.933 873.313 189.6C873.433 189.253 873.493 188.847 873.493 188.38V183H876.233V193H873.793L873.693 191.26C873.359 191.927 872.899 192.42 872.313 192.74C871.739 193.047 871.046 193.2 870.233 193.2ZM883.656 182.8C884.549 182.8 885.302 182.933 885.916 183.2C886.542 183.453 887.042 183.807 887.416 184.26C887.802 184.7 888.076 185.193 888.236 185.74L885.676 186.66C885.542 186.06 885.316 185.607 884.996 185.3C884.676 184.993 884.242 184.84 883.696 184.84C883.189 184.84 882.756 184.96 882.396 185.2C882.036 185.427 881.762 185.78 881.576 186.26C881.389 186.727 881.296 187.313 881.296 188.02C881.296 188.727 881.389 189.313 881.576 189.78C881.776 190.247 882.056 190.593 882.416 190.82C882.789 191.047 883.222 191.16 883.716 191.16C884.116 191.16 884.456 191.093 884.736 190.96C885.016 190.813 885.242 190.607 885.416 190.34C885.602 190.073 885.729 189.753 885.796 189.38L888.276 190.18C888.129 190.78 887.856 191.307 887.456 191.76C887.056 192.213 886.542 192.567 885.916 192.82C885.289 193.073 884.562 193.2 883.736 193.2C882.709 193.2 881.802 192.993 881.016 192.58C880.229 192.167 879.622 191.573 879.196 190.8C878.769 190.027 878.556 189.093 878.556 188C878.556 186.907 878.769 185.973 879.196 185.2C879.622 184.427 880.222 183.833 880.996 183.42C881.769 183.007 882.656 182.8 883.656 182.8ZM894.945 182.8C895.838 182.8 896.592 182.933 897.205 183.2C897.832 183.453 898.332 183.807 898.705 184.26C899.092 184.7 899.365 185.193 899.525 185.74L896.965 186.66C896.832 186.06 896.605 185.607 896.285 185.3C895.965 184.993 895.532 184.84 894.985 184.84C894.478 184.84 894.045 184.96 893.685 185.2C893.325 185.427 893.052 185.78 892.865 186.26C892.678 186.727 892.585 187.313 892.585 188.02C892.585 188.727 892.678 189.313 892.865 189.78C893.065 190.247 893.345 190.593 893.705 190.82C894.078 191.047 894.512 191.16 895.005 191.16C895.405 191.16 895.745 191.093 896.025 190.96C896.305 190.813 896.532 190.607 896.705 190.34C896.892 190.073 897.018 189.753 897.085 189.38L899.565 190.18C899.418 190.78 899.145 191.307 898.745 191.76C898.345 192.213 897.832 192.567 897.205 192.82C896.578 193.073 895.852 193.2 895.025 193.2C893.998 193.2 893.092 192.993 892.305 192.58C891.518 192.167 890.912 191.573 890.485 190.8C890.058 190.027 889.845 189.093 889.845 188C889.845 186.907 890.058 185.973 890.485 185.2C890.912 184.427 891.512 183.833 892.285 183.42C893.058 183.007 893.945 182.8 894.945 182.8ZM906.334 193.2C905.281 193.2 904.361 192.993 903.574 192.58C902.801 192.167 902.201 191.573 901.774 190.8C901.347 190.027 901.134 189.093 901.134 188C901.134 186.907 901.347 185.973 901.774 185.2C902.201 184.427 902.794 183.833 903.554 183.42C904.327 183.007 905.207 182.8 906.194 182.8C907.207 182.8 908.067 183.007 908.774 183.42C909.481 183.82 910.021 184.373 910.394 185.08C910.767 185.773 910.954 186.567 910.954 187.46C910.954 187.727 910.947 187.98 910.934 188.22C910.921 188.46 910.901 188.673 910.874 188.86H902.894V186.96H909.674L908.354 187.44C908.354 186.6 908.161 185.953 907.774 185.5C907.401 185.047 906.867 184.82 906.174 184.82C905.667 184.82 905.227 184.94 904.854 185.18C904.494 185.42 904.221 185.78 904.034 186.26C903.847 186.727 903.754 187.32 903.754 188.04C903.754 188.747 903.854 189.333 904.054 189.8C904.267 190.253 904.561 190.593 904.934 190.82C905.321 191.047 905.781 191.16 906.314 191.16C906.901 191.16 907.374 191.047 907.734 190.82C908.094 190.593 908.374 190.28 908.574 189.88L910.754 190.72C910.541 191.24 910.214 191.687 909.774 192.06C909.347 192.433 908.834 192.72 908.234 192.92C907.647 193.107 907.014 193.2 906.334 193.2ZM917.276 193.2C916.263 193.2 915.336 193.02 914.496 192.66C913.669 192.3 912.996 191.793 912.476 191.14L914.056 189.54C914.376 190.02 914.803 190.413 915.336 190.72C915.869 191.027 916.503 191.18 917.236 191.18C917.756 191.18 918.169 191.107 918.476 190.96C918.796 190.8 918.956 190.553 918.956 190.22C918.956 190.007 918.883 189.827 918.736 189.68C918.589 189.52 918.296 189.393 917.856 189.3L916.096 188.94C914.936 188.7 914.109 188.34 913.616 187.86C913.136 187.367 912.896 186.733 912.896 185.96C912.896 185.413 913.056 184.9 913.376 184.42C913.709 183.94 914.203 183.553 914.856 183.26C915.509 182.953 916.323 182.8 917.296 182.8C918.296 182.8 919.163 182.96 919.896 183.28C920.643 183.587 921.229 184.047 921.656 184.66L920.016 186.26C919.723 185.793 919.336 185.44 918.856 185.2C918.389 184.947 917.896 184.82 917.376 184.82C917.003 184.82 916.683 184.86 916.416 184.94C916.149 185.02 915.949 185.133 915.816 185.28C915.683 185.413 915.616 185.587 915.616 185.8C915.616 186.013 915.709 186.2 915.896 186.36C916.083 186.507 916.423 186.633 916.916 186.74L918.956 187.16C919.943 187.36 920.649 187.7 921.076 188.18C921.503 188.647 921.716 189.213 921.716 189.88C921.716 190.52 921.543 191.093 921.196 191.6C920.863 192.093 920.363 192.487 919.696 192.78C919.043 193.06 918.236 193.2 917.276 193.2ZM927.901 193.2C926.888 193.2 925.961 193.02 925.121 192.66C924.294 192.3 923.621 191.793 923.101 191.14L924.681 189.54C925.001 190.02 925.428 190.413 925.961 190.72C926.494 191.027 927.128 191.18 927.861 191.18C928.381 191.18 928.794 191.107 929.101 190.96C929.421 190.8 929.581 190.553 929.581 190.22C929.581 190.007 929.508 189.827 929.361 189.68C929.214 189.52 928.921 189.393 928.481 189.3L926.721 188.94C925.561 188.7 924.734 188.34 924.241 187.86C923.761 187.367 923.521 186.733 923.521 185.96C923.521 185.413 923.681 184.9 924.001 184.42C924.334 183.94 924.828 183.553 925.481 183.26C926.134 182.953 926.948 182.8 927.921 182.8C928.921 182.8 929.788 182.96 930.521 183.28C931.268 183.587 931.854 184.047 932.281 184.66L930.641 186.26C930.348 185.793 929.961 185.44 929.481 185.2C929.014 184.947 928.521 184.82 928.001 184.82C927.628 184.82 927.308 184.86 927.041 184.94C926.774 185.02 926.574 185.133 926.441 185.28C926.308 185.413 926.241 185.587 926.241 185.8C926.241 186.013 926.334 186.2 926.521 186.36C926.708 186.507 927.048 186.633 927.541 186.74L929.581 187.16C930.568 187.36 931.274 187.7 931.701 188.18C932.128 188.647 932.341 189.213 932.341 189.88C932.341 190.52 932.168 191.093 931.821 191.6C931.488 192.093 930.988 192.487 930.321 192.78C929.668 193.06 928.861 193.2 927.901 193.2Z" fill="#15803D"/>
<rect x="828.75" y="160.75" width="128.5" height="51.5" rx="25.75" stroke="#16A34A" stroke-width="1.5"/>
<rect x="828.75" y="288.75" width="128.5" height="51.5" rx="25.75" fill="#FEF2F2"/>
<path d="M870.6 310.02H863.48V313.38H869.1V315.6H863.48V321H860.72V307.8H870.6V310.02ZM877.449 314.62C877.449 314.047 877.282 313.6 876.949 313.28C876.629 312.96 876.202 312.8 875.669 312.8C875.175 312.8 874.742 312.927 874.369 313.18C873.995 313.433 873.722 313.853 873.549 314.44L871.209 313.72C871.435 312.84 871.929 312.133 872.689 311.6C873.462 311.067 874.495 310.8 875.789 310.8C876.669 310.8 877.435 310.94 878.089 311.22C878.742 311.487 879.249 311.893 879.609 312.44C879.982 312.987 880.169 313.673 880.169 314.5V318.56C880.169 319.067 880.409 319.32 880.889 319.32C881.115 319.32 881.329 319.287 881.529 319.22L881.369 320.92C881.022 321.093 880.589 321.18 880.069 321.18C879.602 321.18 879.182 321.1 878.809 320.94C878.435 320.78 878.142 320.54 877.929 320.22C877.715 319.887 877.609 319.473 877.609 318.98V318.9L878.089 318.82C878.009 319.327 877.789 319.76 877.429 320.12C877.069 320.467 876.629 320.733 876.109 320.92C875.602 321.107 875.075 321.2 874.529 321.2C873.849 321.2 873.262 321.1 872.769 320.9C872.275 320.687 871.895 320.38 871.629 319.98C871.362 319.58 871.229 319.087 871.229 318.5C871.229 317.753 871.469 317.147 871.949 316.68C872.429 316.2 873.115 315.873 874.009 315.7L877.769 314.94L877.749 316.64L875.349 317.12C874.895 317.213 874.549 317.34 874.309 317.5C874.082 317.647 873.969 317.893 873.969 318.24C873.969 318.573 874.089 318.827 874.329 319C874.582 319.173 874.882 319.26 875.229 319.26C875.509 319.26 875.782 319.227 876.049 319.16C876.315 319.093 876.555 318.987 876.769 318.84C876.982 318.693 877.149 318.493 877.269 318.24C877.389 317.987 877.449 317.68 877.449 317.32V314.62ZM884.613 309.56C884.04 309.56 883.613 309.44 883.333 309.2C883.053 308.947 882.913 308.58 882.913 308.1C882.913 307.607 883.053 307.24 883.333 307C883.613 306.747 884.04 306.62 884.613 306.62C885.186 306.62 885.613 306.747 885.893 307C886.173 307.24 886.313 307.607 886.313 308.1C886.313 308.58 886.173 308.947 885.893 309.2C885.613 309.44 885.186 309.56 884.613 309.56ZM885.973 311V321H883.233V311H885.973ZM891.578 306.62V317.92C891.578 318.387 891.658 318.713 891.818 318.9C891.978 319.087 892.244 319.18 892.618 319.18C892.844 319.18 893.031 319.167 893.178 319.14C893.324 319.1 893.511 319.047 893.738 318.98L893.498 320.78C893.271 320.913 892.984 321.013 892.638 321.08C892.304 321.16 891.971 321.2 891.638 321.2C890.664 321.2 889.951 320.967 889.498 320.5C889.058 320.02 888.838 319.26 888.838 318.22V306.62H891.578ZM898.744 321.2C898.078 321.2 897.478 321.08 896.944 320.84C896.411 320.6 895.984 320.22 895.664 319.7C895.358 319.167 895.204 318.48 895.204 317.64V311H897.944V316.98C897.944 317.753 898.104 318.293 898.424 318.6C898.744 318.893 899.204 319.04 899.804 319.04C900.084 319.04 900.358 318.993 900.624 318.9C900.891 318.793 901.124 318.633 901.324 318.42C901.538 318.207 901.704 317.933 901.824 317.6C901.944 317.253 902.004 316.847 902.004 316.38V311H904.744V321H902.304L902.204 319.26C901.871 319.927 901.411 320.42 900.824 320.74C900.251 321.047 899.558 321.2 898.744 321.2ZM907.628 321V311H910.008L910.188 312.96C910.454 312.267 910.841 311.733 911.348 311.36C911.868 310.987 912.514 310.8 913.288 310.8C913.514 310.8 913.721 310.82 913.908 310.86C914.094 310.9 914.248 310.953 914.368 311.02L914.048 313.32C913.914 313.267 913.748 313.227 913.548 313.2C913.361 313.173 913.114 313.16 912.808 313.16C912.408 313.16 912.021 313.26 911.648 313.46C911.274 313.647 910.968 313.94 910.728 314.34C910.488 314.727 910.368 315.22 910.368 315.82V321H907.628ZM920.51 321.2C919.456 321.2 918.536 320.993 917.75 320.58C916.976 320.167 916.376 319.573 915.95 318.8C915.523 318.027 915.31 317.093 915.31 316C915.31 314.907 915.523 313.973 915.95 313.2C916.376 312.427 916.97 311.833 917.73 311.42C918.503 311.007 919.383 310.8 920.37 310.8C921.383 310.8 922.243 311.007 922.95 311.42C923.656 311.82 924.196 312.373 924.57 313.08C924.943 313.773 925.13 314.567 925.13 315.46C925.13 315.727 925.123 315.98 925.11 316.22C925.096 316.46 925.076 316.673 925.05 316.86H917.07V314.96H923.85L922.53 315.44C922.53 314.6 922.336 313.953 921.95 313.5C921.576 313.047 921.043 312.82 920.35 312.82C919.843 312.82 919.403 312.94 919.03 313.18C918.67 313.42 918.396 313.78 918.21 314.26C918.023 314.727 917.93 315.32 917.93 316.04C917.93 316.747 918.03 317.333 918.23 317.8C918.443 318.253 918.736 318.593 919.11 318.82C919.496 319.047 919.956 319.16 920.49 319.16C921.076 319.16 921.55 319.047 921.91 318.82C922.27 318.593 922.55 318.28 922.75 317.88L924.93 318.72C924.716 319.24 924.39 319.687 923.95 320.06C923.523 320.433 923.01 320.72 922.41 320.92C921.823 321.107 921.19 321.2 920.51 321.2Z" fill="#DC2626"/>
<rect x="828.75" y="288.75" width="128.5" height="51.5" rx="25.75" stroke="#DC2626" stroke-width="1.5"/>
<path d="M301.5 137L377 186.5L301.5 236L226 186.5L301.5 137Z" fill="#F5F5F4"/>
<path d="M267.062 179.8C269.129 179.8 270.729 180.373 271.862 181.52C272.996 182.653 273.562 184.28 273.562 186.4C273.562 188.507 272.996 190.133 271.862 191.28C270.729 192.427 269.129 193 267.062 193H261.962V179.8H267.062ZM266.922 190.8C268.176 190.8 269.116 190.427 269.742 189.68C270.382 188.92 270.702 187.827 270.702 186.4C270.702 184.973 270.382 183.887 269.742 183.14C269.116 182.38 268.176 182 266.922 182H264.722V190.8H266.922ZM280.697 193.2C279.644 193.2 278.724 192.993 277.937 192.58C277.164 192.167 276.564 191.573 276.137 190.8C275.711 190.027 275.497 189.093 275.497 188C275.497 186.907 275.711 185.973 276.137 185.2C276.564 184.427 277.157 183.833 277.917 183.42C278.691 183.007 279.571 182.8 280.557 182.8C281.571 182.8 282.431 183.007 283.137 183.42C283.844 183.82 284.384 184.373 284.757 185.08C285.131 185.773 285.317 186.567 285.317 187.46C285.317 187.727 285.311 187.98 285.297 188.22C285.284 188.46 285.264 188.673 285.237 188.86H277.257V186.96H284.037L282.717 187.44C282.717 186.6 282.524 185.953 282.137 185.5C281.764 185.047 281.231 184.82 280.537 184.82C280.031 184.82 279.591 184.94 279.217 185.18C278.857 185.42 278.584 185.78 278.397 186.26C278.211 186.727 278.117 187.32 278.117 188.04C278.117 188.747 278.217 189.333 278.417 189.8C278.631 190.253 278.924 190.593 279.297 190.82C279.684 191.047 280.144 191.16 280.677 191.16C281.264 191.16 281.737 191.047 282.097 190.82C282.457 190.593 282.737 190.28 282.937 189.88L285.117 190.72C284.904 191.24 284.577 191.687 284.137 192.06C283.711 192.433 283.197 192.72 282.597 192.92C282.011 193.107 281.377 193.2 280.697 193.2ZM292.179 182.8C293.073 182.8 293.826 182.933 294.439 183.2C295.066 183.453 295.566 183.807 295.939 184.26C296.326 184.7 296.599 185.193 296.759 185.74L294.199 186.66C294.066 186.06 293.839 185.607 293.519 185.3C293.199 184.993 292.766 184.84 292.219 184.84C291.713 184.84 291.279 184.96 290.919 185.2C290.559 185.427 290.286 185.78 290.099 186.26C289.913 186.727 289.819 187.313 289.819 188.02C289.819 188.727 289.913 189.313 290.099 189.78C290.299 190.247 290.579 190.593 290.939 190.82C291.313 191.047 291.746 191.16 292.239 191.16C292.639 191.16 292.979 191.093 293.259 190.96C293.539 190.813 293.766 190.607 293.939 190.34C294.126 190.073 294.253 189.753 294.319 189.38L296.799 190.18C296.653 190.78 296.379 191.307 295.979 191.76C295.579 192.213 295.066 192.567 294.439 192.82C293.813 193.073 293.086 193.2 292.259 193.2C291.233 193.2 290.326 192.993 289.539 192.58C288.753 192.167 288.146 191.573 287.719 190.8C287.293 190.027 287.079 189.093 287.079 188C287.079 186.907 287.293 185.973 287.719 185.2C288.146 184.427 288.746 183.833 289.519 183.42C290.293 183.007 291.179 182.8 292.179 182.8ZM300.308 181.56C299.735 181.56 299.308 181.44 299.028 181.2C298.748 180.947 298.608 180.58 298.608 180.1C298.608 179.607 298.748 179.24 299.028 179C299.308 178.747 299.735 178.62 300.308 178.62C300.882 178.62 301.308 178.747 301.588 179C301.868 179.24 302.008 179.607 302.008 180.1C302.008 180.58 301.868 180.947 301.588 181.2C301.308 181.44 300.882 181.56 300.308 181.56ZM301.668 183V193H298.928V183H301.668ZM308.573 193.2C307.559 193.2 306.633 193.02 305.793 192.66C304.966 192.3 304.293 191.793 303.773 191.14L305.353 189.54C305.673 190.02 306.099 190.413 306.633 190.72C307.166 191.027 307.799 191.18 308.533 191.18C309.053 191.18 309.466 191.107 309.773 190.96C310.093 190.8 310.253 190.553 310.253 190.22C310.253 190.007 310.179 189.827 310.033 189.68C309.886 189.52 309.593 189.393 309.153 189.3L307.393 188.94C306.233 188.7 305.406 188.34 304.913 187.86C304.433 187.367 304.193 186.733 304.193 185.96C304.193 185.413 304.353 184.9 304.673 184.42C305.006 183.94 305.499 183.553 306.153 183.26C306.806 182.953 307.619 182.8 308.593 182.8C309.593 182.8 310.459 182.96 311.193 183.28C311.939 183.587 312.526 184.047 312.953 184.66L311.313 186.26C311.019 185.793 310.633 185.44 310.153 185.2C309.686 184.947 309.193 184.82 308.673 184.82C308.299 184.82 307.979 184.86 307.713 184.94C307.446 185.02 307.246 185.133 307.113 185.28C306.979 185.413 306.913 185.587 306.913 185.8C306.913 186.013 307.006 186.2 307.193 186.36C307.379 186.507 307.719 186.633 308.213 186.74L310.253 187.16C311.239 187.36 311.946 187.7 312.373 188.18C312.799 188.647 313.013 189.213 313.013 189.88C313.013 190.52 312.839 191.093 312.493 191.6C312.159 192.093 311.659 192.487 310.993 192.78C310.339 193.06 309.533 193.2 308.573 193.2ZM316.578 181.56C316.004 181.56 315.578 181.44 315.298 181.2C315.018 180.947 314.878 180.58 314.878 180.1C314.878 179.607 315.018 179.24 315.298 179C315.578 178.747 316.004 178.62 316.578 178.62C317.151 178.62 317.578 178.747 317.858 179C318.138 179.24 318.278 179.607 318.278 180.1C318.278 180.58 318.138 180.947 317.858 181.2C317.578 181.44 317.151 181.56 316.578 181.56ZM317.938 183V193H315.198V183H317.938ZM325.402 182.8C326.416 182.8 327.302 183.007 328.062 183.42C328.836 183.833 329.436 184.427 329.862 185.2C330.302 185.973 330.522 186.907 330.522 188C330.522 189.08 330.302 190.013 329.862 190.8C329.436 191.573 328.836 192.167 328.062 192.58C327.302 192.993 326.416 193.2 325.402 193.2C324.402 193.2 323.516 192.993 322.742 192.58C321.969 192.167 321.362 191.573 320.922 190.8C320.496 190.013 320.282 189.08 320.282 188C320.282 186.907 320.496 185.973 320.922 185.2C321.362 184.427 321.969 183.833 322.742 183.42C323.516 183.007 324.402 182.8 325.402 182.8ZM325.402 184.84C324.896 184.84 324.462 184.96 324.102 185.2C323.756 185.427 323.489 185.773 323.302 186.24C323.116 186.707 323.022 187.293 323.022 188C323.022 188.707 323.116 189.293 323.302 189.76C323.489 190.227 323.756 190.58 324.102 190.82C324.462 191.047 324.896 191.16 325.402 191.16C325.896 191.16 326.316 191.047 326.662 190.82C327.022 190.58 327.296 190.227 327.482 189.76C327.669 189.293 327.762 188.707 327.762 188C327.762 187.293 327.669 186.707 327.482 186.24C327.296 185.773 327.022 185.427 326.662 185.2C326.316 184.96 325.896 184.84 325.402 184.84ZM332.815 193V183H335.275L335.435 186L335.095 185.68C335.255 185.027 335.508 184.487 335.855 184.06C336.202 183.633 336.622 183.32 337.115 183.12C337.622 182.907 338.175 182.8 338.775 182.8C339.468 182.8 340.082 182.933 340.615 183.2C341.162 183.467 341.588 183.873 341.895 184.42C342.215 184.953 342.375 185.627 342.375 186.44V193H339.635V187.22C339.635 186.367 339.468 185.78 339.135 185.46C338.802 185.127 338.368 184.96 337.835 184.96C337.462 184.96 337.095 185.053 336.735 185.24C336.388 185.413 336.102 185.7 335.875 186.1C335.662 186.5 335.555 187.033 335.555 187.7V193H332.815Z" fill="#44403C"/>
<path d="M222.707 187.207C223.098 186.817 223.098 186.183 222.707 185.793L216.343 179.429C215.953 179.038 215.319 179.038 214.929 179.429C214.538 179.819 214.538 180.453 214.929 180.843L220.586 186.5L214.929 192.157C214.538 192.547 214.538 193.181 214.929 193.571C215.319 193.962 215.953 193.962 216.343 193.571L222.707 187.207ZM160 187.5H222V185.5H160V187.5Z" fill="#A8A29E"/>
<path d="M456.707 187.207C457.098 186.817 457.098 186.183 456.707 185.793L450.343 179.429C449.953 179.038 449.319 179.038 448.929 179.429C448.538 179.819 448.538 180.453 448.929 180.843L454.586 186.5L448.929 192.157C448.538 192.547 448.538 193.181 448.929 193.571C449.319 193.962 449.953 193.962 450.343 193.571L456.707 187.207ZM381 187.5H456V185.5H381V187.5Z" fill="#A8A29E"/>
<path d="M300.793 284.707C301.183 285.098 301.817 285.098 302.207 284.707L308.571 278.343C308.962 277.953 308.962 277.319 308.571 276.929C308.181 276.538 307.547 276.538 307.157 276.929L301.5 282.586L295.843 276.929C295.453 276.538 294.819 276.538 294.429 276.929C294.038 277.319 294.038 277.953 294.429 278.343L300.793 284.707ZM300.5 240V284H302.5V240H300.5Z" fill="#A8A29E"/>
<path d="M456.707 315.207C457.098 314.817 457.098 314.183 456.707 313.793L450.343 307.429C449.953 307.038 449.319 307.038 448.929 307.429C448.538 307.819 448.538 308.453 448.929 308.843L454.586 314.5L448.929 320.157C448.538 320.547 448.538 321.181 448.929 321.571C449.319 321.962 449.953 321.962 450.343 321.571L456.707 315.207ZM364 315.5H456V313.5H364V315.5Z" fill="#A8A29E"/>
<path d="M320.231 251.44L316.487 258.048V262H314.279V258.048L310.535 251.44H312.887L314.583 254.608L315.383 256.256L316.199 254.608L317.895 251.44H320.231ZM323.723 262.16C322.881 262.16 322.145 261.995 321.515 261.664C320.897 261.333 320.417 260.859 320.075 260.24C319.734 259.621 319.563 258.875 319.563 258C319.563 257.125 319.734 256.379 320.075 255.76C320.417 255.141 320.891 254.667 321.499 254.336C322.118 254.005 322.822 253.84 323.611 253.84C324.422 253.84 325.11 254.005 325.675 254.336C326.241 254.656 326.673 255.099 326.971 255.664C327.27 256.219 327.419 256.853 327.419 257.568C327.419 257.781 327.414 257.984 327.403 258.176C327.393 258.368 327.377 258.539 327.355 258.688H320.971V257.168H326.395L325.339 257.552C325.339 256.88 325.185 256.363 324.875 256C324.577 255.637 324.15 255.456 323.595 255.456C323.19 255.456 322.838 255.552 322.539 255.744C322.251 255.936 322.033 256.224 321.883 256.608C321.734 256.981 321.659 257.456 321.659 258.032C321.659 258.597 321.739 259.067 321.899 259.44C322.07 259.803 322.305 260.075 322.603 260.256C322.913 260.437 323.281 260.528 323.707 260.528C324.177 260.528 324.555 260.437 324.843 260.256C325.131 260.075 325.355 259.824 325.515 259.504L327.259 260.176C327.089 260.592 326.827 260.949 326.475 261.248C326.134 261.547 325.723 261.776 325.243 261.936C324.774 262.085 324.267 262.16 323.723 262.16ZM332.477 262.16C331.666 262.16 330.925 262.016 330.253 261.728C329.592 261.44 329.053 261.035 328.637 260.512L329.901 259.232C330.157 259.616 330.498 259.931 330.925 260.176C331.352 260.421 331.858 260.544 332.445 260.544C332.861 260.544 333.192 260.485 333.437 260.368C333.693 260.24 333.821 260.043 333.821 259.776C333.821 259.605 333.762 259.461 333.645 259.344C333.528 259.216 333.293 259.115 332.941 259.04L331.533 258.752C330.605 258.56 329.944 258.272 329.549 257.888C329.165 257.493 328.973 256.987 328.973 256.368C328.973 255.931 329.101 255.52 329.357 255.136C329.624 254.752 330.018 254.443 330.541 254.208C331.064 253.963 331.714 253.84 332.493 253.84C333.293 253.84 333.986 253.968 334.573 254.224C335.17 254.469 335.64 254.837 335.981 255.328L334.669 256.608C334.434 256.235 334.125 255.952 333.741 255.76C333.368 255.557 332.973 255.456 332.557 255.456C332.258 255.456 332.002 255.488 331.789 255.552C331.576 255.616 331.416 255.707 331.309 255.824C331.202 255.931 331.149 256.069 331.149 256.24C331.149 256.411 331.224 256.56 331.373 256.688C331.522 256.805 331.794 256.907 332.189 256.992L333.821 257.328C334.61 257.488 335.176 257.76 335.517 258.144C335.858 258.517 336.029 258.971 336.029 259.504C336.029 260.016 335.89 260.475 335.613 260.88C335.346 261.275 334.946 261.589 334.413 261.824C333.89 262.048 333.245 262.16 332.477 262.16Z" fill="#44403C"/>
<path d="M416.784 165.44V176H414.256L410.56 169.792L409.648 168.064H409.632L409.696 169.888V176H407.712V165.44H410.224L413.92 171.632L414.832 173.376H414.864L414.8 171.552V165.44H416.784ZM422.886 167.84C423.697 167.84 424.406 168.005 425.014 168.336C425.633 168.667 426.113 169.141 426.454 169.76C426.806 170.379 426.982 171.125 426.982 172C426.982 172.864 426.806 173.611 426.454 174.24C426.113 174.859 425.633 175.333 425.014 175.664C424.406 175.995 423.697 176.16 422.886 176.16C422.086 176.16 421.377 175.995 420.758 175.664C420.139 175.333 419.654 174.859 419.302 174.24C418.961 173.611 418.79 172.864 418.79 172C418.79 171.125 418.961 170.379 419.302 169.76C419.654 169.141 420.139 168.667 420.758 168.336C421.377 168.005 422.086 167.84 422.886 167.84ZM422.886 169.472C422.481 169.472 422.134 169.568 421.846 169.76C421.569 169.941 421.355 170.219 421.206 170.592C421.057 170.965 420.982 171.435 420.982 172C420.982 172.565 421.057 173.035 421.206 173.408C421.355 173.781 421.569 174.064 421.846 174.256C422.134 174.437 422.481 174.528 422.886 174.528C423.281 174.528 423.617 174.437 423.894 174.256C424.182 174.064 424.401 173.781 424.55 173.408C424.699 173.035 424.774 172.565 424.774 172C424.774 171.435 424.699 170.965 424.55 170.592C424.401 170.219 424.182 169.941 423.894 169.76C423.617 169.568 423.281 169.472 422.886 169.472Z" fill="#44403C"/>
<path d="M672.595 333V322.44H680.515V324.216H674.803V326.84H679.299V328.536H674.803V331.224H680.739V333H672.595ZM682.496 333V325H684.4L684.544 326.568C684.757 326.013 685.066 325.587 685.472 325.288C685.888 324.989 686.405 324.84 687.024 324.84C687.205 324.84 687.37 324.856 687.52 324.888C687.669 324.92 687.792 324.963 687.888 325.016L687.632 326.856C687.525 326.813 687.392 326.781 687.232 326.76C687.082 326.739 686.885 326.728 686.64 326.728C686.32 326.728 686.01 326.808 685.712 326.968C685.413 327.117 685.168 327.352 684.976 327.672C684.784 327.981 684.688 328.376 684.688 328.856V333H682.496ZM689.246 333V325H691.15L691.294 326.568C691.507 326.013 691.816 325.587 692.222 325.288C692.638 324.989 693.155 324.84 693.774 324.84C693.955 324.84 694.12 324.856 694.27 324.888C694.419 324.92 694.542 324.963 694.638 325.016L694.382 326.856C694.275 326.813 694.142 326.781 693.982 326.76C693.832 326.739 693.635 326.728 693.39 326.728C693.07 326.728 692.76 326.808 692.462 326.968C692.163 327.117 691.918 327.352 691.726 327.672C691.534 327.981 691.438 328.376 691.438 328.856V333H689.246ZM699.488 324.84C700.298 324.84 701.008 325.005 701.616 325.336C702.234 325.667 702.714 326.141 703.056 326.76C703.408 327.379 703.584 328.125 703.584 329C703.584 329.864 703.408 330.611 703.056 331.24C702.714 331.859 702.234 332.333 701.616 332.664C701.008 332.995 700.298 333.16 699.488 333.16C698.688 333.16 697.978 332.995 697.36 332.664C696.741 332.333 696.256 331.859 695.904 331.24C695.562 330.611 695.392 329.864 695.392 329C695.392 328.125 695.562 327.379 695.904 326.76C696.256 326.141 696.741 325.667 697.36 325.336C697.978 325.005 698.688 324.84 699.488 324.84ZM699.488 326.472C699.082 326.472 698.736 326.568 698.448 326.76C698.17 326.941 697.957 327.219 697.808 327.592C697.658 327.965 697.584 328.435 697.584 329C697.584 329.565 697.658 330.035 697.808 330.408C697.957 330.781 698.17 331.064 698.448 331.256C698.736 331.437 699.082 331.528 699.488 331.528C699.882 331.528 700.218 331.437 700.496 331.256C700.784 331.064 701.002 330.781 701.152 330.408C701.301 330.035 701.376 329.565 701.376 329C701.376 328.435 701.301 327.965 701.152 327.592C701.002 327.219 700.784 326.941 700.496 326.76C700.218 326.568 699.882 326.472 699.488 326.472ZM705.418 333V325H707.322L707.466 326.568C707.679 326.013 707.988 325.587 708.394 325.288C708.81 324.989 709.327 324.84 709.946 324.84C710.127 324.84 710.292 324.856 710.442 324.888C710.591 324.92 710.714 324.963 710.81 325.016L710.554 326.856C710.447 326.813 710.314 326.781 710.154 326.76C710.004 326.739 709.807 326.728 709.562 326.728C709.242 326.728 708.932 326.808 708.634 326.968C708.335 327.117 708.09 327.352 707.898 327.672C707.706 327.981 707.61 328.376 707.61 328.856V333H705.418ZM720.409 324.84C721.22 324.84 721.929 325.005 722.537 325.336C723.156 325.667 723.636 326.141 723.977 326.76C724.329 327.379 724.505 328.125 724.505 329C724.505 329.864 724.329 330.611 723.977 331.24C723.636 331.859 723.156 332.333 722.537 332.664C721.929 332.995 721.22 333.16 720.409 333.16C719.609 333.16 718.9 332.995 718.281 332.664C717.663 332.333 717.177 331.859 716.825 331.24C716.484 330.611 716.313 329.864 716.313 329C716.313 328.125 716.484 327.379 716.825 326.76C717.177 326.141 717.663 325.667 718.281 325.336C718.9 325.005 719.609 324.84 720.409 324.84ZM720.409 326.472C720.004 326.472 719.657 326.568 719.369 326.76C719.092 326.941 718.879 327.219 718.729 327.592C718.58 327.965 718.505 328.435 718.505 329C718.505 329.565 718.58 330.035 718.729 330.408C718.879 330.781 719.092 331.064 719.369 331.256C719.657 331.437 720.004 331.528 720.409 331.528C720.804 331.528 721.14 331.437 721.417 331.256C721.705 331.064 721.924 330.781 722.073 330.408C722.223 330.035 722.297 329.565 722.297 329C722.297 328.435 722.223 327.965 722.073 327.592C721.924 327.219 721.705 326.941 721.417 326.76C721.14 326.568 720.804 326.472 720.409 326.472ZM729.972 324.84C730.686 324.84 731.289 324.947 731.78 325.16C732.281 325.363 732.681 325.645 732.98 326.008C733.289 326.36 733.508 326.755 733.635 327.192L731.588 327.928C731.481 327.448 731.3 327.085 731.044 326.84C730.788 326.595 730.441 326.472 730.004 326.472C729.598 326.472 729.252 326.568 728.964 326.76C728.676 326.941 728.457 327.224 728.308 327.608C728.158 327.981 728.084 328.451 728.084 329.016C728.084 329.581 728.158 330.051 728.308 330.424C728.468 330.797 728.692 331.075 728.98 331.256C729.278 331.437 729.625 331.528 730.02 331.528C730.34 331.528 730.612 331.475 730.836 331.368C731.06 331.251 731.241 331.085 731.38 330.872C731.529 330.659 731.63 330.403 731.684 330.104L733.668 330.744C733.55 331.224 733.332 331.645 733.012 332.008C732.692 332.371 732.281 332.653 731.78 332.856C731.278 333.059 730.697 333.16 730.036 333.16C729.214 333.16 728.489 332.995 727.86 332.664C727.23 332.333 726.745 331.859 726.404 331.24C726.062 330.621 725.892 329.875 725.892 329C725.892 328.125 726.062 327.379 726.404 326.76C726.745 326.141 727.225 325.667 727.844 325.336C728.462 325.005 729.172 324.84 729.972 324.84ZM739.003 324.84C739.717 324.84 740.32 324.947 740.811 325.16C741.312 325.363 741.712 325.645 742.011 326.008C742.32 326.36 742.539 326.755 742.667 327.192L740.619 327.928C740.512 327.448 740.331 327.085 740.075 326.84C739.819 326.595 739.472 326.472 739.035 326.472C738.629 326.472 738.283 326.568 737.995 326.76C737.707 326.941 737.488 327.224 737.339 327.608C737.189 327.981 737.115 328.451 737.115 329.016C737.115 329.581 737.189 330.051 737.339 330.424C737.499 330.797 737.723 331.075 738.011 331.256C738.309 331.437 738.656 331.528 739.051 331.528C739.371 331.528 739.643 331.475 739.867 331.368C740.091 331.251 740.272 331.085 740.411 330.872C740.56 330.659 740.661 330.403 740.715 330.104L742.699 330.744C742.581 331.224 742.363 331.645 742.043 332.008C741.723 332.371 741.312 332.653 740.811 332.856C740.309 333.059 739.728 333.16 739.067 333.16C738.245 333.16 737.52 332.995 736.891 332.664C736.261 332.333 735.776 331.859 735.435 331.24C735.093 330.621 734.923 329.875 734.923 329C734.923 328.125 735.093 327.379 735.435 326.76C735.776 326.141 736.256 325.667 736.875 325.336C737.493 325.005 738.203 324.84 739.003 324.84ZM747.186 333.16C746.653 333.16 746.173 333.064 745.746 332.872C745.319 332.68 744.978 332.376 744.722 331.96C744.477 331.533 744.354 330.984 744.354 330.312V325H746.546V329.784C746.546 330.403 746.674 330.835 746.93 331.08C747.186 331.315 747.554 331.432 748.034 331.432C748.258 331.432 748.477 331.395 748.69 331.32C748.903 331.235 749.09 331.107 749.25 330.936C749.421 330.765 749.554 330.547 749.65 330.28C749.746 330.003 749.794 329.677 749.794 329.304V325H751.986V333H750.034L749.954 331.608C749.687 332.141 749.319 332.536 748.85 332.792C748.391 333.037 747.837 333.16 747.186 333.16ZM754.293 333V325H756.197L756.341 326.568C756.554 326.013 756.863 325.587 757.269 325.288C757.685 324.989 758.202 324.84 758.821 324.84C759.002 324.84 759.167 324.856 759.317 324.888C759.466 324.92 759.589 324.963 759.685 325.016L759.429 326.856C759.322 326.813 759.189 326.781 759.029 326.76C758.879 326.739 758.682 326.728 758.437 326.728C758.117 326.728 757.807 326.808 757.509 326.968C757.21 327.117 756.965 327.352 756.773 327.672C756.581 327.981 756.485 328.376 756.485 328.856V333H754.293ZM761.043 333V325H762.947L763.091 326.568C763.304 326.013 763.613 325.587 764.019 325.288C764.435 324.989 764.952 324.84 765.571 324.84C765.752 324.84 765.917 324.856 766.067 324.888C766.216 324.92 766.339 324.963 766.435 325.016L766.179 326.856C766.072 326.813 765.939 326.781 765.779 326.76C765.629 326.739 765.432 326.728 765.187 326.728C764.867 326.728 764.557 326.808 764.259 326.968C763.96 327.117 763.715 327.352 763.523 327.672C763.331 327.981 763.235 328.376 763.235 328.856V333H761.043ZM771.348 333.16C770.506 333.16 769.77 332.995 769.14 332.664C768.522 332.333 768.042 331.859 767.7 331.24C767.359 330.621 767.188 329.875 767.188 329C767.188 328.125 767.359 327.379 767.7 326.76C768.042 326.141 768.516 325.667 769.124 325.336C769.743 325.005 770.447 324.84 771.236 324.84C772.047 324.84 772.735 325.005 773.3 325.336C773.866 325.656 774.298 326.099 774.596 326.664C774.895 327.219 775.044 327.853 775.044 328.568C775.044 328.781 775.039 328.984 775.028 329.176C775.018 329.368 775.002 329.539 774.98 329.688H768.596V328.168H774.02L772.964 328.552C772.964 327.88 772.81 327.363 772.5 327C772.202 326.637 771.775 326.456 771.22 326.456C770.815 326.456 770.463 326.552 770.164 326.744C769.876 326.936 769.658 327.224 769.508 327.608C769.359 327.981 769.284 328.456 769.284 329.032C769.284 329.597 769.364 330.067 769.524 330.44C769.695 330.803 769.93 331.075 770.228 331.256C770.538 331.437 770.906 331.528 771.332 331.528C771.802 331.528 772.18 331.437 772.468 331.256C772.756 331.075 772.98 330.824 773.14 330.504L774.884 331.176C774.714 331.592 774.452 331.949 774.1 332.248C773.759 332.547 773.348 332.776 772.868 332.936C772.399 333.085 771.892 333.16 771.348 333.16ZM779.926 333.16C779.265 333.16 778.673 332.995 778.15 332.664C777.638 332.333 777.233 331.859 776.934 331.24C776.646 330.621 776.502 329.88 776.502 329.016C776.502 328.131 776.657 327.379 776.966 326.76C777.275 326.131 777.691 325.656 778.214 325.336C778.747 325.005 779.345 324.84 780.006 324.84C780.71 324.84 781.291 325.043 781.75 325.448C782.209 325.853 782.507 326.376 782.646 327.016L782.438 327.272V321.496H784.63V333H782.662L782.518 330.568L782.79 330.696C782.715 331.197 782.545 331.635 782.278 332.008C782.011 332.371 781.675 332.653 781.27 332.856C780.865 333.059 780.417 333.16 779.926 333.16ZM780.566 331.48C780.95 331.48 781.281 331.384 781.558 331.192C781.835 330.989 782.049 330.696 782.198 330.312C782.358 329.928 782.438 329.469 782.438 328.936C782.438 328.424 782.363 327.992 782.214 327.64C782.065 327.277 781.851 327 781.574 326.808C781.297 326.616 780.971 326.52 780.598 326.52C780.001 326.52 779.531 326.733 779.19 327.16C778.859 327.576 778.694 328.189 778.694 329C778.694 329.811 778.859 330.429 779.19 330.856C779.521 331.272 779.979 331.48 780.566 331.48Z" fill="#DC2626"/>
<path d="M659.448 244.44V255H656.92L653.224 248.792L652.312 247.064H652.296L652.36 248.888V255H650.376V244.44H652.888L656.584 250.632L657.496 252.376H657.528L657.464 250.552V244.44H659.448ZM665.55 246.84C666.361 246.84 667.07 247.005 667.678 247.336C668.297 247.667 668.777 248.141 669.118 248.76C669.47 249.379 669.646 250.125 669.646 251C669.646 251.864 669.47 252.611 669.118 253.24C668.777 253.859 668.297 254.333 667.678 254.664C667.07 254.995 666.361 255.16 665.55 255.16C664.75 255.16 664.041 254.995 663.422 254.664C662.803 254.333 662.318 253.859 661.966 253.24C661.625 252.611 661.454 251.864 661.454 251C661.454 250.125 661.625 249.379 661.966 248.76C662.318 248.141 662.803 247.667 663.422 247.336C664.041 247.005 664.75 246.84 665.55 246.84ZM665.55 248.472C665.145 248.472 664.798 248.568 664.51 248.76C664.233 248.941 664.019 249.219 663.87 249.592C663.721 249.965 663.646 250.435 663.646 251C663.646 251.565 663.721 252.035 663.87 252.408C664.019 252.781 664.233 253.064 664.51 253.256C664.798 253.437 665.145 253.528 665.55 253.528C665.945 253.528 666.281 253.437 666.558 253.256C666.846 253.064 667.065 252.781 667.214 252.408C667.363 252.035 667.438 251.565 667.438 251C667.438 250.435 667.363 249.965 667.214 249.592C667.065 249.219 666.846 248.941 666.558 248.76C666.281 248.568 665.945 248.472 665.55 248.472ZM680.083 255.16C679.24 255.16 678.504 254.995 677.875 254.664C677.256 254.333 676.776 253.859 676.435 253.24C676.093 252.621 675.923 251.875 675.923 251C675.923 250.125 676.093 249.379 676.435 248.76C676.776 248.141 677.251 247.667 677.859 247.336C678.477 247.005 679.181 246.84 679.971 246.84C680.781 246.84 681.469 247.005 682.035 247.336C682.6 247.656 683.032 248.099 683.331 248.664C683.629 249.219 683.779 249.853 683.779 250.568C683.779 250.781 683.773 250.984 683.763 251.176C683.752 251.368 683.736 251.539 683.715 251.688H677.331V250.168H682.755L681.699 250.552C681.699 249.88 681.544 249.363 681.235 249C680.936 248.637 680.509 248.456 679.955 248.456C679.549 248.456 679.197 248.552 678.899 248.744C678.611 248.936 678.392 249.224 678.243 249.608C678.093 249.981 678.019 250.456 678.019 251.032C678.019 251.597 678.099 252.067 678.259 252.44C678.429 252.803 678.664 253.075 678.963 253.256C679.272 253.437 679.64 253.528 680.067 253.528C680.536 253.528 680.915 253.437 681.203 253.256C681.491 253.075 681.715 252.824 681.875 252.504L683.619 253.176C683.448 253.592 683.187 253.949 682.835 254.248C682.493 254.547 682.083 254.776 681.603 254.936C681.133 255.085 680.627 255.16 680.083 255.16ZM685.636 255V247H687.54L687.684 248.568C687.898 248.013 688.207 247.587 688.612 247.288C689.028 246.989 689.546 246.84 690.164 246.84C690.346 246.84 690.511 246.856 690.66 246.888C690.81 246.92 690.932 246.963 691.028 247.016L690.772 248.856C690.666 248.813 690.532 248.781 690.372 248.76C690.223 248.739 690.026 248.728 689.78 248.728C689.46 248.728 689.151 248.808 688.852 248.968C688.554 249.117 688.308 249.352 688.116 249.672C687.924 249.981 687.828 250.376 687.828 250.856V255H685.636ZM692.386 255V247H694.29L694.434 248.568C694.648 248.013 694.957 247.587 695.362 247.288C695.778 246.989 696.296 246.84 696.914 246.84C697.096 246.84 697.261 246.856 697.41 246.888C697.56 246.92 697.682 246.963 697.778 247.016L697.522 248.856C697.416 248.813 697.282 248.781 697.122 248.76C696.973 248.739 696.776 248.728 696.53 248.728C696.21 248.728 695.901 248.808 695.602 248.968C695.304 249.117 695.058 249.352 694.866 249.672C694.674 249.981 694.578 250.376 694.578 250.856V255H692.386ZM702.628 246.84C703.439 246.84 704.148 247.005 704.756 247.336C705.375 247.667 705.855 248.141 706.196 248.76C706.548 249.379 706.724 250.125 706.724 251C706.724 251.864 706.548 252.611 706.196 253.24C705.855 253.859 705.375 254.333 704.756 254.664C704.148 254.995 703.439 255.16 702.628 255.16C701.828 255.16 701.119 254.995 700.5 254.664C699.881 254.333 699.396 253.859 699.044 253.24C698.703 252.611 698.532 251.864 698.532 251C698.532 250.125 698.703 249.379 699.044 248.76C699.396 248.141 699.881 247.667 700.5 247.336C701.119 247.005 701.828 246.84 702.628 246.84ZM702.628 248.472C702.223 248.472 701.876 248.568 701.588 248.76C701.311 248.941 701.097 249.219 700.948 249.592C700.799 249.965 700.724 250.435 700.724 251C700.724 251.565 700.799 252.035 700.948 252.408C701.097 252.781 701.311 253.064 701.588 253.256C701.876 253.437 702.223 253.528 702.628 253.528C703.023 253.528 703.359 253.437 703.636 253.256C703.924 253.064 704.143 252.781 704.292 252.408C704.441 252.035 704.516 251.565 704.516 251C704.516 250.435 704.441 249.965 704.292 249.592C704.143 249.219 703.924 248.941 703.636 248.76C703.359 248.568 703.023 248.472 702.628 248.472ZM708.558 255V247H710.462L710.606 248.568C710.82 248.013 711.129 247.587 711.534 247.288C711.95 246.989 712.468 246.84 713.086 246.84C713.268 246.84 713.433 246.856 713.582 246.888C713.732 246.92 713.854 246.963 713.95 247.016L713.694 248.856C713.588 248.813 713.454 248.781 713.294 248.76C713.145 248.739 712.948 248.728 712.702 248.728C712.382 248.728 712.073 248.808 711.774 248.968C711.476 249.117 711.23 249.352 711.038 249.672C710.846 249.981 710.75 250.376 710.75 250.856V255H708.558ZM718.29 255.16C717.479 255.16 716.738 255.016 716.066 254.728C715.404 254.44 714.866 254.035 714.45 253.512L715.714 252.232C715.97 252.616 716.311 252.931 716.738 253.176C717.164 253.421 717.671 253.544 718.258 253.544C718.674 253.544 719.004 253.485 719.25 253.368C719.506 253.24 719.634 253.043 719.634 252.776C719.634 252.605 719.575 252.461 719.458 252.344C719.34 252.216 719.106 252.115 718.754 252.04L717.346 251.752C716.418 251.56 715.756 251.272 715.362 250.888C714.978 250.493 714.786 249.987 714.786 249.368C714.786 248.931 714.914 248.52 715.17 248.136C715.436 247.752 715.831 247.443 716.354 247.208C716.876 246.963 717.527 246.84 718.306 246.84C719.106 246.84 719.799 246.968 720.386 247.224C720.983 247.469 721.452 247.837 721.794 248.328L720.482 249.608C720.247 249.235 719.938 248.952 719.554 248.76C719.18 248.557 718.786 248.456 718.37 248.456C718.071 248.456 717.815 248.488 717.602 248.552C717.388 248.616 717.228 248.707 717.122 248.824C717.015 248.931 716.962 249.069 716.962 249.24C716.962 249.411 717.036 249.56 717.186 249.688C717.335 249.805 717.607 249.907 718.002 249.992L719.634 250.328C720.423 250.488 720.988 250.76 721.33 251.144C721.671 251.517 721.842 251.971 721.842 252.504C721.842 253.016 721.703 253.475 721.426 253.88C721.159 254.275 720.759 254.589 720.226 254.824C719.703 255.048 719.058 255.16 718.29 255.16Z" fill="#16A34A"/>
<path d="M824.707 187.207C825.098 186.817 825.098 186.183 824.707 185.793L818.343 179.429C817.953 179.038 817.319 179.038 816.929 179.429C816.538 179.819 816.538 180.453 816.929 180.843L822.586 186.5L816.929 192.157C816.538 192.547 816.538 193.181 816.929 193.571C817.319 193.962 817.953 193.962 818.343 193.571L824.707 187.207ZM581 187.5H824V185.5H581V187.5Z" fill="#A8A29E"/>
<path d="M824.707 315.207C825.098 314.817 825.098 314.183 824.707 313.793L818.343 307.429C817.953 307.038 817.319 307.038 816.929 307.429C816.538 307.819 816.538 308.453 816.929 308.843L822.586 314.5L816.929 320.157C816.538 320.547 816.538 321.181 816.929 321.571C817.319 321.962 817.953 321.962 818.343 321.571L824.707 315.207ZM581 315.5H824V313.5H581V315.5Z" fill="#A8A29E"/>
<path d="M824.707 187.207C825.098 186.817 825.098 186.183 824.707 185.793L818.343 179.429C817.953 179.038 817.319 179.038 816.929 179.429C816.538 179.819 816.538 180.453 816.929 180.843L822.586 186.5L816.929 192.157C816.538 192.547 816.538 193.181 816.929 193.571C817.319 193.962 817.953 193.962 818.343 193.571L824.707 187.207ZM581 315.5H617V313.5H581V315.5ZM642 290.5V210.5H640V290.5H642ZM665 187.5H824V185.5H665V187.5ZM642 210.5C642 197.797 652.297 187.5 665 187.5V185.5C651.193 185.5 640 196.693 640 210.5H642ZM617 315.5C630.807 315.5 642 304.307 642 290.5H640C640 303.203 629.703 313.5 617 313.5V315.5Z" fill="#A8A29E"/>
</svg>
