<svg width="866" height="373" viewBox="0 0 866 373" fill="none" xmlns="http://www.w3.org/2000/svg">
<rect width="866" height="373" fill="white"/>
<path d="M685.145 124.8C686.639 124.8 687.812 125.16 688.665 125.88C689.519 126.6 689.945 127.567 689.945 128.78C689.945 130.073 689.519 131.067 688.665 131.76C687.812 132.44 686.645 132.78 685.165 132.78L684.885 132.94H682.045V138H679.325V124.8H685.145ZM684.825 130.84C685.599 130.84 686.172 130.687 686.545 130.38C686.932 130.06 687.125 129.573 687.125 128.92C687.125 128.267 686.932 127.787 686.545 127.48C686.172 127.16 685.599 127 684.825 127H682.045V130.84H684.825ZM686.445 131.42L690.725 138H687.625L684.085 132.22L686.445 131.42ZM697.084 138.2C696.031 138.2 695.111 137.993 694.324 137.58C693.551 137.167 692.951 136.573 692.524 135.8C692.097 135.027 691.884 134.093 691.884 133C691.884 131.907 692.097 130.973 692.524 130.2C692.951 129.427 693.544 128.833 694.304 128.42C695.077 128.007 695.957 127.8 696.944 127.8C697.957 127.8 698.817 128.007 699.524 128.42C700.231 128.82 700.771 129.373 701.144 130.08C701.517 130.773 701.704 131.567 701.704 132.46C701.704 132.727 701.697 132.98 701.684 133.22C701.671 133.46 701.651 133.673 701.624 133.86H693.644V131.96H700.424L699.104 132.44C699.104 131.6 698.911 130.953 698.524 130.5C698.151 130.047 697.617 129.82 696.924 129.82C696.417 129.82 695.977 129.94 695.604 130.18C695.244 130.42 694.971 130.78 694.784 131.26C694.597 131.727 694.504 132.32 694.504 133.04C694.504 133.747 694.604 134.333 694.804 134.8C695.017 135.253 695.311 135.593 695.684 135.82C696.071 136.047 696.531 136.16 697.064 136.16C697.651 136.16 698.124 136.047 698.484 135.82C698.844 135.593 699.124 135.28 699.324 134.88L701.504 135.72C701.291 136.24 700.964 136.687 700.524 137.06C700.097 137.433 699.584 137.72 698.984 137.92C698.397 138.107 697.764 138.2 697.084 138.2ZM707.806 138.2C706.979 138.2 706.239 137.993 705.586 137.58C704.946 137.167 704.439 136.573 704.066 135.8C703.706 135.027 703.526 134.1 703.526 133.02C703.526 131.913 703.719 130.973 704.106 130.2C704.493 129.413 705.013 128.82 705.666 128.42C706.333 128.007 707.079 127.8 707.906 127.8C708.786 127.8 709.513 128.053 710.086 128.56C710.659 129.067 711.033 129.72 711.206 130.52L710.946 130.84V123.62H713.686V138H711.226L711.046 134.96L711.386 135.12C711.293 135.747 711.079 136.293 710.746 136.76C710.413 137.213 709.993 137.567 709.486 137.82C708.979 138.073 708.419 138.2 707.806 138.2ZM708.606 136.1C709.086 136.1 709.499 135.98 709.846 135.74C710.193 135.487 710.459 135.12 710.646 134.64C710.846 134.16 710.946 133.587 710.946 132.92C710.946 132.28 710.853 131.74 710.666 131.3C710.479 130.847 710.213 130.5 709.866 130.26C709.519 130.02 709.113 129.9 708.646 129.9C707.899 129.9 707.313 130.167 706.886 130.7C706.473 131.22 706.266 131.987 706.266 133C706.266 134.013 706.473 134.787 706.886 135.32C707.299 135.84 707.873 136.1 708.606 136.1ZM717.945 126.56C717.372 126.56 716.945 126.44 716.665 126.2C716.385 125.947 716.245 125.58 716.245 125.1C716.245 124.607 716.385 124.24 716.665 124C716.945 123.747 717.372 123.62 717.945 123.62C718.518 123.62 718.945 123.747 719.225 124C719.505 124.24 719.645 124.607 719.645 125.1C719.645 125.58 719.505 125.947 719.225 126.2C718.945 126.44 718.518 126.56 717.945 126.56ZM719.305 128V138H716.565V128H719.305ZM726.21 138.2C725.196 138.2 724.27 138.02 723.43 137.66C722.603 137.3 721.93 136.793 721.41 136.14L722.99 134.54C723.31 135.02 723.736 135.413 724.27 135.72C724.803 136.027 725.436 136.18 726.17 136.18C726.69 136.18 727.103 136.107 727.41 135.96C727.73 135.8 727.89 135.553 727.89 135.22C727.89 135.007 727.816 134.827 727.67 134.68C727.523 134.52 727.23 134.393 726.79 134.3L725.03 133.94C723.87 133.7 723.043 133.34 722.55 132.86C722.07 132.367 721.83 131.733 721.83 130.96C721.83 130.413 721.99 129.9 722.31 129.42C722.643 128.94 723.136 128.553 723.79 128.26C724.443 127.953 725.256 127.8 726.23 127.8C727.23 127.8 728.096 127.96 728.83 128.28C729.576 128.587 730.163 129.047 730.59 129.66L728.95 131.26C728.656 130.793 728.27 130.44 727.79 130.2C727.323 129.947 726.83 129.82 726.31 129.82C725.936 129.82 725.616 129.86 725.35 129.94C725.083 130.02 724.883 130.133 724.75 130.28C724.616 130.413 724.55 130.587 724.55 130.8C724.55 131.013 724.643 131.2 724.83 131.36C725.016 131.507 725.356 131.633 725.85 131.74L727.89 132.16C728.876 132.36 729.583 132.7 730.01 133.18C730.436 133.647 730.65 134.213 730.65 134.88C730.65 135.52 730.476 136.093 730.13 136.6C729.796 137.093 729.296 137.487 728.63 137.78C727.976 138.06 727.17 138.2 726.21 138.2Z" fill="#44403C"/>
<path d="M614.616 155.528H620.44V157H612.904V146.44H614.616V155.528ZM625.527 148.84C626.305 148.84 626.993 149.005 627.591 149.336C628.188 149.667 628.652 150.147 628.983 150.776C629.324 151.395 629.495 152.136 629.495 153C629.495 153.864 629.324 154.611 628.983 155.24C628.652 155.859 628.188 156.333 627.591 156.664C626.993 156.995 626.305 157.16 625.527 157.16C624.748 157.16 624.06 156.995 623.463 156.664C622.865 156.333 622.396 155.859 622.055 155.24C621.713 154.611 621.543 153.864 621.543 153C621.543 152.136 621.713 151.395 622.055 150.776C622.396 150.147 622.865 149.667 623.463 149.336C624.06 149.005 624.748 148.84 625.527 148.84ZM625.527 150.184C625.047 150.184 624.636 150.296 624.295 150.52C623.964 150.733 623.708 151.048 623.527 151.464C623.345 151.88 623.255 152.392 623.255 153C623.255 153.597 623.345 154.109 623.527 154.536C623.708 154.952 623.964 155.272 624.295 155.496C624.636 155.709 625.047 155.816 625.527 155.816C626.007 155.816 626.412 155.709 626.743 155.496C627.073 155.272 627.329 154.952 627.511 154.536C627.692 154.109 627.783 153.597 627.783 153C627.783 152.392 627.692 151.88 627.511 151.464C627.329 151.048 627.073 150.733 626.743 150.52C626.412 150.296 626.007 150.184 625.527 150.184ZM638.657 147.32L638.929 148.664C638.897 148.664 638.865 148.664 638.833 148.664C638.801 148.653 638.769 148.648 638.737 148.648C638.225 148.648 637.836 148.76 637.569 148.984C637.302 149.197 637.169 149.512 637.169 149.928L636.337 149.544C636.337 149.117 636.428 148.739 636.609 148.408C636.79 148.067 637.046 147.8 637.377 147.608C637.718 147.416 638.102 147.32 638.529 147.32C638.55 147.32 638.572 147.32 638.593 147.32C638.614 147.32 638.636 147.32 638.657 147.32ZM636.129 155.752C636.94 155.752 637.569 155.933 638.017 156.296C638.465 156.648 638.689 157.139 638.689 157.768C638.689 158.323 638.513 158.797 638.161 159.192C637.809 159.597 637.329 159.907 636.721 160.12C636.124 160.333 635.436 160.44 634.657 160.44C633.345 160.44 632.374 160.237 631.745 159.832C631.116 159.427 630.801 158.92 630.801 158.312C630.801 157.885 630.95 157.512 631.249 157.192C631.558 156.872 632.076 156.691 632.801 156.648L632.705 156.904C632.257 156.808 631.894 156.637 631.617 156.392C631.35 156.136 631.217 155.779 631.217 155.32C631.217 154.861 631.393 154.472 631.745 154.152C632.097 153.832 632.593 153.645 633.233 153.592L634.129 154.024H633.937C633.446 154.067 633.1 154.179 632.897 154.36C632.694 154.541 632.593 154.744 632.593 154.968C632.593 155.235 632.689 155.432 632.881 155.56C633.084 155.688 633.366 155.752 633.729 155.752H636.129ZM634.657 159.16C635.244 159.16 635.724 159.101 636.097 158.984C636.481 158.877 636.764 158.733 636.945 158.552C637.137 158.381 637.233 158.189 637.233 157.976C637.233 157.731 637.132 157.533 636.929 157.384C636.737 157.235 636.385 157.16 635.873 157.16H633.297C632.998 157.16 632.748 157.235 632.545 157.384C632.342 157.544 632.241 157.757 632.241 158.024C632.241 158.376 632.454 158.653 632.881 158.856C633.308 159.059 633.9 159.16 634.657 159.16ZM634.593 148.84C635.297 148.84 635.905 148.952 636.417 149.176C636.94 149.4 637.34 149.715 637.617 150.12C637.905 150.525 638.049 151 638.049 151.544C638.049 152.088 637.905 152.563 637.617 152.968C637.34 153.373 636.94 153.688 636.417 153.912C635.905 154.136 635.297 154.248 634.593 154.248C633.484 154.248 632.63 154.003 632.033 153.512C631.446 153.011 631.153 152.355 631.153 151.544C631.153 151 631.297 150.525 631.585 150.12C631.873 149.715 632.273 149.4 632.785 149.176C633.308 148.952 633.91 148.84 634.593 148.84ZM634.593 150.04C634.102 150.04 633.692 150.179 633.361 150.456C633.041 150.723 632.881 151.085 632.881 151.544C632.881 152.003 633.041 152.371 633.361 152.648C633.692 152.925 634.102 153.064 634.593 153.064C635.094 153.064 635.505 152.925 635.825 152.648C636.156 152.371 636.321 152.003 636.321 151.544C636.321 151.085 636.156 150.723 635.825 150.456C635.505 150.179 635.094 150.04 634.593 150.04ZM643.298 157.16C642.498 157.16 641.767 157.005 641.106 156.696C640.444 156.387 639.922 155.949 639.538 155.384L640.722 154.36C640.956 154.797 641.292 155.149 641.73 155.416C642.178 155.672 642.711 155.8 643.33 155.8C643.82 155.8 644.21 155.715 644.498 155.544C644.786 155.373 644.93 155.133 644.93 154.824C644.93 154.621 644.86 154.445 644.722 154.296C644.594 154.136 644.343 154.013 643.97 153.928L642.29 153.576C641.436 153.405 640.828 153.133 640.466 152.76C640.103 152.376 639.922 151.891 639.922 151.304C639.922 150.867 640.05 150.461 640.306 150.088C640.562 149.715 640.935 149.416 641.426 149.192C641.927 148.957 642.524 148.84 643.218 148.84C644.018 148.84 644.7 148.984 645.266 149.272C645.831 149.549 646.263 149.949 646.562 150.472L645.378 151.464C645.175 151.037 644.876 150.723 644.482 150.52C644.087 150.307 643.676 150.2 643.25 150.2C642.908 150.2 642.615 150.243 642.37 150.328C642.124 150.413 641.938 150.531 641.81 150.68C641.682 150.829 641.618 151.005 641.618 151.208C641.618 151.421 641.698 151.608 641.858 151.768C642.018 151.928 642.306 152.051 642.722 152.136L644.546 152.52C645.314 152.669 645.852 152.925 646.162 153.288C646.482 153.64 646.642 154.072 646.642 154.584C646.642 155.096 646.508 155.549 646.242 155.944C645.975 156.328 645.591 156.627 645.09 156.84C644.588 157.053 643.991 157.16 643.298 157.16ZM657.45 157.16C656.65 157.16 655.946 156.995 655.338 156.664C654.73 156.333 654.255 155.859 653.914 155.24C653.583 154.611 653.418 153.864 653.418 153C653.418 152.136 653.583 151.395 653.914 150.776C654.255 150.147 654.724 149.667 655.322 149.336C655.919 149.005 656.596 148.84 657.354 148.84C658.132 148.84 658.794 149 659.338 149.32C659.882 149.64 660.298 150.077 660.586 150.632C660.874 151.187 661.018 151.816 661.018 152.52C661.018 152.712 661.012 152.893 661.002 153.064C660.991 153.235 660.975 153.384 660.954 153.512H654.522V152.2H660.202L659.354 152.456C659.354 151.731 659.172 151.176 658.81 150.792C658.447 150.397 657.951 150.2 657.322 150.2C656.863 150.2 656.463 150.307 656.122 150.52C655.78 150.733 655.519 151.053 655.338 151.48C655.156 151.896 655.066 152.408 655.066 153.016C655.066 153.613 655.162 154.12 655.354 154.536C655.546 154.952 655.818 155.267 656.17 155.48C656.522 155.693 656.938 155.8 657.418 155.8C657.951 155.8 658.383 155.699 658.714 155.496C659.044 155.293 659.306 155.011 659.498 154.648L660.858 155.288C660.666 155.672 660.404 156.008 660.074 156.296C659.754 156.573 659.37 156.787 658.922 156.936C658.474 157.085 657.983 157.16 657.45 157.16ZM664.099 149L666.355 152.424L666.675 152.472L669.923 157H667.891L665.539 153.48L665.171 153.352L662.035 149H664.099ZM669.875 149L666.739 153.288L666.387 153.272L663.827 157H661.875L665.283 152.44L665.619 152.472L667.907 149H669.875ZM671.648 160.36V149H673.168L673.296 151.24L673.072 150.968C673.2 150.552 673.398 150.184 673.664 149.864C673.931 149.544 674.262 149.293 674.656 149.112C675.062 148.931 675.504 148.84 675.984 148.84C676.635 148.84 677.227 149.005 677.76 149.336C678.294 149.667 678.715 150.141 679.024 150.76C679.334 151.368 679.488 152.109 679.488 152.984C679.488 153.859 679.328 154.611 679.008 155.24C678.699 155.859 678.272 156.333 677.728 156.664C677.195 156.995 676.598 157.16 675.936 157.16C675.254 157.16 674.672 156.984 674.192 156.632C673.712 156.269 673.371 155.811 673.168 155.256L673.36 154.984V160.36H671.648ZM675.568 155.768C676.262 155.768 676.8 155.523 677.184 155.032C677.579 154.541 677.776 153.864 677.776 153C677.776 152.136 677.584 151.459 677.2 150.968C676.816 150.467 676.283 150.216 675.6 150.216C675.152 150.216 674.758 150.333 674.416 150.568C674.086 150.792 673.824 151.112 673.632 151.528C673.451 151.933 673.36 152.424 673.36 153C673.36 153.565 673.451 154.056 673.632 154.472C673.814 154.888 674.07 155.208 674.4 155.432C674.731 155.656 675.12 155.768 675.568 155.768ZM682.544 147.656C682.17 147.656 681.882 147.565 681.68 147.384C681.488 147.192 681.392 146.925 681.392 146.584C681.392 146.243 681.488 145.981 681.68 145.8C681.882 145.619 682.17 145.528 682.544 145.528C682.906 145.528 683.184 145.619 683.376 145.8C683.578 145.981 683.68 146.243 683.68 146.584C683.68 146.925 683.578 147.192 683.376 147.384C683.184 147.565 682.906 147.656 682.544 147.656ZM683.392 149V157H681.68V149H683.392ZM686.07 157V149H687.526L687.686 150.44C687.9 149.917 688.214 149.523 688.63 149.256C689.057 148.979 689.58 148.84 690.198 148.84C690.358 148.84 690.518 148.856 690.678 148.888C690.838 148.909 690.972 148.947 691.078 149L690.838 150.504C690.721 150.461 690.588 150.429 690.438 150.408C690.3 150.376 690.108 150.36 689.862 150.36C689.532 150.36 689.206 150.451 688.886 150.632C688.566 150.803 688.3 151.064 688.086 151.416C687.884 151.768 687.782 152.216 687.782 152.76V157H686.07ZM696.012 157.16C695.212 157.16 694.508 156.995 693.9 156.664C693.292 156.333 692.817 155.859 692.476 155.24C692.145 154.611 691.98 153.864 691.98 153C691.98 152.136 692.145 151.395 692.476 150.776C692.817 150.147 693.287 149.667 693.884 149.336C694.481 149.005 695.159 148.84 695.916 148.84C696.695 148.84 697.356 149 697.9 149.32C698.444 149.64 698.86 150.077 699.148 150.632C699.436 151.187 699.58 151.816 699.58 152.52C699.58 152.712 699.575 152.893 699.564 153.064C699.553 153.235 699.537 153.384 699.516 153.512H693.084V152.2H698.764L697.916 152.456C697.916 151.731 697.735 151.176 697.372 150.792C697.009 150.397 696.513 150.2 695.884 150.2C695.425 150.2 695.025 150.307 694.684 150.52C694.343 150.733 694.081 151.053 693.9 151.48C693.719 151.896 693.628 152.408 693.628 153.016C693.628 153.613 693.724 154.12 693.916 154.536C694.108 154.952 694.38 155.267 694.732 155.48C695.084 155.693 695.5 155.8 695.98 155.8C696.513 155.8 696.945 155.699 697.276 155.496C697.607 155.293 697.868 155.011 698.06 154.648L699.42 155.288C699.228 155.672 698.967 156.008 698.636 156.296C698.316 156.573 697.932 156.787 697.484 156.936C697.036 157.085 696.545 157.16 696.012 157.16ZM711.569 151.864C711.569 151.331 711.42 150.92 711.121 150.632C710.833 150.333 710.433 150.184 709.921 150.184C709.441 150.184 709.031 150.296 708.689 150.52C708.348 150.744 708.097 151.107 707.937 151.608L706.497 151C706.7 150.349 707.095 149.827 707.681 149.432C708.279 149.037 709.047 148.84 709.985 148.84C710.625 148.84 711.191 148.947 711.681 149.16C712.172 149.363 712.556 149.672 712.833 150.088C713.121 150.504 713.265 151.037 713.265 151.688V155.256C713.265 155.651 713.463 155.848 713.857 155.848C714.049 155.848 714.236 155.821 714.417 155.768L714.321 156.952C714.076 157.069 713.767 157.128 713.393 157.128C713.052 157.128 712.743 157.069 712.465 156.952C712.199 156.824 711.985 156.637 711.825 156.392C711.676 156.136 711.601 155.821 711.601 155.448V155.336L711.953 155.32C711.857 155.736 711.66 156.083 711.361 156.36C711.063 156.627 710.716 156.829 710.321 156.968C709.927 157.096 709.527 157.16 709.121 157.16C708.62 157.16 708.167 157.08 707.761 156.92C707.367 156.76 707.052 156.52 706.817 156.2C706.593 155.869 706.481 155.464 706.481 154.984C706.481 154.387 706.673 153.896 707.057 153.512C707.452 153.128 708.007 152.867 708.721 152.728L711.825 152.12L711.809 153.32L709.553 153.784C709.105 153.869 708.769 153.992 708.545 154.152C708.321 154.312 708.209 154.547 708.209 154.856C708.209 155.155 708.321 155.395 708.545 155.576C708.78 155.747 709.089 155.832 709.473 155.832C709.74 155.832 709.996 155.8 710.241 155.736C710.497 155.672 710.727 155.571 710.929 155.432C711.132 155.283 711.287 155.096 711.393 154.872C711.511 154.637 711.569 154.36 711.569 154.04V151.864ZM719.4 145.288C719.73 145.288 720.029 145.325 720.296 145.4C720.573 145.464 720.781 145.555 720.92 145.672L720.6 146.904C720.482 146.829 720.349 146.776 720.2 146.744C720.05 146.701 719.88 146.68 719.688 146.68C719.25 146.68 718.904 146.781 718.648 146.984C718.402 147.187 718.28 147.517 718.28 147.976V149.144L718.328 149.576V157H716.616V147.848C716.616 147.443 716.674 147.08 716.792 146.76C716.92 146.44 717.106 146.173 717.352 145.96C717.597 145.736 717.89 145.571 718.232 145.464C718.584 145.347 718.973 145.288 719.4 145.288ZM720.872 149V150.344H715.112V149H720.872ZM724.031 146.648V154.6C724.031 154.995 724.133 155.283 724.335 155.464C724.549 155.645 724.831 155.736 725.183 155.736C725.471 155.736 725.722 155.693 725.935 155.608C726.149 155.512 726.346 155.384 726.527 155.224L726.911 156.472C726.666 156.685 726.362 156.856 725.999 156.984C725.647 157.101 725.253 157.16 724.815 157.16C724.357 157.16 723.935 157.085 723.551 156.936C723.167 156.787 722.869 156.547 722.655 156.216C722.442 155.875 722.33 155.432 722.319 154.888V147.128L724.031 146.648ZM726.783 149V150.344H720.783V149H726.783ZM731.996 157.16C731.196 157.16 730.492 156.995 729.884 156.664C729.276 156.333 728.802 155.859 728.46 155.24C728.13 154.611 727.964 153.864 727.964 153C727.964 152.136 728.13 151.395 728.46 150.776C728.802 150.147 729.271 149.667 729.868 149.336C730.466 149.005 731.143 148.84 731.9 148.84C732.679 148.84 733.34 149 733.884 149.32C734.428 149.64 734.844 150.077 735.132 150.632C735.42 151.187 735.564 151.816 735.564 152.52C735.564 152.712 735.559 152.893 735.548 153.064C735.538 153.235 735.522 153.384 735.5 153.512H729.068V152.2H734.748L733.9 152.456C733.9 151.731 733.719 151.176 733.356 150.792C732.994 150.397 732.498 150.2 731.868 150.2C731.41 150.2 731.01 150.307 730.668 150.52C730.327 150.733 730.066 151.053 729.884 151.48C729.703 151.896 729.612 152.408 729.612 153.016C729.612 153.613 729.708 154.12 729.9 154.536C730.092 154.952 730.364 155.267 730.716 155.48C731.068 155.693 731.484 155.8 731.964 155.8C732.498 155.8 732.93 155.699 733.26 155.496C733.591 155.293 733.852 155.011 734.044 154.648L735.404 155.288C735.212 155.672 734.951 156.008 734.62 156.296C734.3 156.573 733.916 156.787 733.468 156.936C733.02 157.085 732.53 157.16 731.996 157.16ZM737.726 157V149H739.182L739.342 150.44C739.556 149.917 739.87 149.523 740.286 149.256C740.713 148.979 741.236 148.84 741.854 148.84C742.014 148.84 742.174 148.856 742.334 148.888C742.494 148.909 742.628 148.947 742.734 149L742.494 150.504C742.377 150.461 742.244 150.429 742.094 150.408C741.956 150.376 741.764 150.36 741.518 150.36C741.188 150.36 740.862 150.451 740.542 150.632C740.222 150.803 739.956 151.064 739.742 151.416C739.54 151.768 739.438 152.216 739.438 152.76V157H737.726ZM753.739 157V154.36H748.587V153.192C748.608 153.139 748.64 153.075 748.683 153C748.736 152.925 748.795 152.84 748.859 152.744L753.259 146.44H755.355V153.032H757.147V154.36H755.355V157H753.739ZM750.187 153.032H753.739V149.304C753.739 149.048 753.744 148.787 753.755 148.52C753.776 148.243 753.792 147.971 753.803 147.704H753.771C753.653 147.96 753.499 148.243 753.307 148.552C753.125 148.851 752.955 149.112 752.795 149.336L750.299 152.888C750.277 152.909 750.256 152.931 750.235 152.952C750.224 152.973 750.208 153 750.187 153.032ZM762.796 146.296C763.511 146.296 764.129 146.413 764.652 146.648C765.185 146.872 765.596 147.192 765.884 147.608C766.172 148.024 766.316 148.525 766.316 149.112C766.316 149.656 766.183 150.136 765.916 150.552C765.66 150.957 765.281 151.267 764.78 151.48V151.496C765.388 151.72 765.868 152.056 766.22 152.504C766.583 152.941 766.764 153.485 766.764 154.136C766.764 154.765 766.599 155.304 766.268 155.752C765.948 156.2 765.489 156.547 764.892 156.792C764.305 157.037 763.607 157.16 762.796 157.16C761.985 157.16 761.281 157.037 760.684 156.792C760.097 156.547 759.639 156.2 759.308 155.752C758.977 155.304 758.812 154.765 758.812 154.136C758.812 153.496 758.988 152.952 759.34 152.504C759.692 152.056 760.183 151.72 760.812 151.496V151.48C760.332 151.277 759.953 150.973 759.676 150.568C759.399 150.152 759.26 149.667 759.26 149.112C759.26 148.525 759.404 148.024 759.692 147.608C759.98 147.192 760.391 146.872 760.924 146.648C761.457 146.413 762.081 146.296 762.796 146.296ZM762.796 147.736C762.231 147.736 761.777 147.875 761.436 148.152C761.105 148.429 760.94 148.808 760.94 149.288C760.94 149.768 761.111 150.147 761.452 150.424C761.793 150.691 762.241 150.824 762.796 150.824C763.351 150.824 763.793 150.691 764.124 150.424C764.465 150.147 764.636 149.768 764.636 149.288C764.636 148.808 764.471 148.429 764.14 148.152C763.809 147.875 763.361 147.736 762.796 147.736ZM762.796 155.72C763.265 155.72 763.665 155.651 763.996 155.512C764.327 155.373 764.583 155.171 764.764 154.904C764.945 154.637 765.036 154.328 765.036 153.976C765.036 153.603 764.94 153.288 764.748 153.032C764.567 152.765 764.311 152.563 763.98 152.424C763.649 152.285 763.255 152.216 762.796 152.216C762.348 152.216 761.953 152.285 761.612 152.424C761.271 152.563 761.004 152.765 760.812 153.032C760.631 153.288 760.54 153.603 760.54 153.976C760.54 154.328 760.631 154.637 760.812 154.904C760.993 155.171 761.255 155.373 761.596 155.512C761.937 155.651 762.337 155.72 762.796 155.72ZM774.273 157V145.4H775.985V150.28C776.252 149.779 776.609 149.416 777.057 149.192C777.516 148.957 778.023 148.84 778.577 148.84C779.143 148.84 779.649 148.952 780.097 149.176C780.556 149.389 780.919 149.715 781.185 150.152C781.452 150.589 781.585 151.144 781.585 151.816V157H779.873V152.36C779.873 151.571 779.708 151.021 779.377 150.712C779.057 150.403 778.652 150.248 778.161 150.248C777.82 150.248 777.479 150.333 777.137 150.504C776.807 150.664 776.529 150.931 776.305 151.304C776.092 151.667 775.985 152.157 775.985 152.776V157H774.273ZM784.18 157V149H785.636L785.796 150.44C786.009 149.917 786.324 149.523 786.74 149.256C787.166 148.979 787.689 148.84 788.308 148.84C788.468 148.84 788.628 148.856 788.788 148.888C788.948 148.909 789.081 148.947 789.188 149L788.948 150.504C788.83 150.461 788.697 150.429 788.548 150.408C788.409 150.376 788.217 150.36 787.972 150.36C787.641 150.36 787.316 150.451 786.996 150.632C786.676 150.803 786.409 151.064 786.196 151.416C785.993 151.768 785.892 152.216 785.892 152.76V157H784.18ZM793.563 157.16C792.763 157.16 792.033 157.005 791.371 156.696C790.71 156.387 790.187 155.949 789.803 155.384L790.987 154.36C791.222 154.797 791.558 155.149 791.995 155.416C792.443 155.672 792.977 155.8 793.595 155.8C794.086 155.8 794.475 155.715 794.763 155.544C795.051 155.373 795.195 155.133 795.195 154.824C795.195 154.621 795.126 154.445 794.987 154.296C794.859 154.136 794.609 154.013 794.235 153.928L792.555 153.576C791.702 153.405 791.094 153.133 790.731 152.76C790.369 152.376 790.187 151.891 790.187 151.304C790.187 150.867 790.315 150.461 790.571 150.088C790.827 149.715 791.201 149.416 791.691 149.192C792.193 148.957 792.79 148.84 793.483 148.84C794.283 148.84 794.966 148.984 795.531 149.272C796.097 149.549 796.529 149.949 796.827 150.472L795.643 151.464C795.441 151.037 795.142 150.723 794.747 150.52C794.353 150.307 793.942 150.2 793.515 150.2C793.174 150.2 792.881 150.243 792.635 150.328C792.39 150.413 792.203 150.531 792.075 150.68C791.947 150.829 791.883 151.005 791.883 151.208C791.883 151.421 791.963 151.608 792.123 151.768C792.283 151.928 792.571 152.051 792.987 152.136L794.811 152.52C795.579 152.669 796.118 152.925 796.427 153.288C796.747 153.64 796.907 154.072 796.907 154.584C796.907 155.096 796.774 155.549 796.507 155.944C796.241 156.328 795.857 156.627 795.355 156.84C794.854 157.053 794.257 157.16 793.563 157.16Z" fill="#78716C"/>
<path d="M750.082 95.0246C744.745 97.8063 717.1 109.173 711.214 112.241C705.329 115.31 702.059 115.28 697.41 113.058C692.761 110.835 663.341 98.9516 658.041 96.4184C655.393 95.1528 654 94.084 654 93.0746V82.9668C654 82.9668 692.301 74.6289 698.484 72.4106C704.667 70.1922 706.812 70.1121 712.074 72.0395C717.336 73.9676 748.8 79.6442 754 81.5488L753.998 91.5137C753.998 92.5129 752.798 93.609 750.082 95.0246Z" fill="#912626"/>
<path d="M750.08 84.9766C744.744 87.7571 717.099 99.1243 711.214 102.192C705.328 105.261 702.059 105.231 697.41 103.009C692.76 100.788 663.342 88.902 658.042 86.3704C652.743 83.8372 652.632 82.0938 657.838 80.0555C663.043 78.0165 692.3 66.538 698.484 64.3196C704.667 62.102 706.812 62.0212 712.074 63.9493C717.336 65.8766 744.816 76.8145 750.015 78.7188C755.217 80.6255 755.416 82.1954 750.08 84.9766Z" fill="#C6302B"/>
<path d="M750.082 78.6696C744.745 81.4517 717.1 92.8181 711.214 95.8876C705.329 98.9552 702.059 98.9255 697.41 96.7029C692.76 94.4814 663.341 82.5966 658.041 80.0634C655.393 78.7978 654 77.7306 654 76.7208V66.6118C654 66.6118 692.301 58.2743 698.484 56.056C704.667 53.8376 706.812 53.7572 712.074 55.6849C717.337 57.6126 748.8 63.288 754 65.1931L753.998 75.1591C753.998 76.1579 752.798 77.254 750.082 78.6696Z" fill="#912626"/>
<path d="M750.08 68.6215C744.744 71.4027 717.099 82.7691 711.214 85.8382C705.328 88.9062 702.059 88.8761 697.41 86.6535C692.76 84.4324 663.342 72.5472 658.042 70.0152C652.743 67.4828 652.632 65.739 657.838 63.7C663.043 61.6621 692.301 50.1828 698.484 47.9648C704.667 45.7468 706.812 45.6664 712.074 47.5941C717.336 49.5215 744.816 60.4586 750.015 62.3636C755.217 64.2699 755.416 65.8402 750.08 68.6215Z" fill="#C6302B"/>
<path d="M750.082 61.7082C744.745 64.4894 717.1 75.8566 711.214 78.9261C705.329 81.9941 702.059 81.964 697.41 79.7414C692.76 77.5199 663.341 65.6347 658.041 63.1027C655.393 61.8359 654 60.7683 654 59.7597V49.6503C654 49.6503 692.301 41.3132 698.484 39.0953C704.667 36.8765 706.812 36.7968 712.074 38.7242C717.337 40.6519 748.8 46.3273 754 48.2324L753.998 58.198C753.998 59.1961 752.798 60.2921 750.082 61.7082Z" fill="#912626"/>
<path d="M750.08 51.66C744.744 54.4413 717.099 65.8085 711.214 68.8765C705.329 71.9444 702.059 71.9143 697.41 69.6929C692.761 67.4702 663.342 55.5858 658.043 53.0534C652.744 50.5214 652.633 48.7772 657.838 46.7386C663.044 44.7003 692.301 33.2225 698.485 31.0038C704.667 28.7854 706.812 28.7058 712.074 30.6335C717.336 32.5612 744.816 43.4983 750.015 45.4034C755.217 47.3081 755.417 48.8788 750.08 51.66Z" fill="#C6302B"/>
<path d="M716.22 41.8269L707.622 42.7195L705.698 47.3507L702.589 42.1828L692.662 41.2906L700.069 38.6191L697.847 34.5183L704.782 37.2308L711.321 35.0902L709.553 39.3304L716.22 41.8269ZM705.185 64.2949L689.139 57.6398L712.131 54.1105L705.185 64.2949ZM682.938 44.4011C689.726 44.4011 695.228 46.5339 695.228 49.1644C695.228 51.7957 689.726 53.9281 682.938 53.9281C676.151 53.9281 670.649 51.7953 670.649 49.1644C670.649 46.5339 676.151 44.4011 682.938 44.4011Z" fill="white"/>
<path d="M726.381 43.0929L739.989 48.4703L726.393 53.8425L726.381 43.0929Z" fill="#621B1C"/>
<path d="M711.326 49.0481L726.381 43.093L726.393 53.8426L724.916 54.42L711.326 49.0481Z" fill="#9A2928"/>
<path d="M758.066 318.8C760.133 318.8 761.733 319.373 762.866 320.52C763.999 321.653 764.566 323.28 764.566 325.4C764.566 327.507 763.999 329.133 762.866 330.28C761.733 331.427 760.133 332 758.066 332H752.966V318.8H758.066ZM757.926 329.8C759.179 329.8 760.119 329.427 760.746 328.68C761.386 327.92 761.706 326.827 761.706 325.4C761.706 323.973 761.386 322.887 760.746 322.14C760.119 321.38 759.179 321 757.926 321H755.726V329.8H757.926ZM772.683 325.62C772.683 325.047 772.516 324.6 772.183 324.28C771.863 323.96 771.436 323.8 770.903 323.8C770.41 323.8 769.976 323.927 769.603 324.18C769.23 324.433 768.956 324.853 768.783 325.44L766.443 324.72C766.67 323.84 767.163 323.133 767.923 322.6C768.696 322.067 769.73 321.8 771.023 321.8C771.903 321.8 772.67 321.94 773.323 322.22C773.976 322.487 774.483 322.893 774.843 323.44C775.216 323.987 775.403 324.673 775.403 325.5V329.56C775.403 330.067 775.643 330.32 776.123 330.32C776.35 330.32 776.563 330.287 776.763 330.22L776.603 331.92C776.256 332.093 775.823 332.18 775.303 332.18C774.836 332.18 774.416 332.1 774.043 331.94C773.67 331.78 773.376 331.54 773.163 331.22C772.95 330.887 772.843 330.473 772.843 329.98V329.9L773.323 329.82C773.243 330.327 773.023 330.76 772.663 331.12C772.303 331.467 771.863 331.733 771.343 331.92C770.836 332.107 770.31 332.2 769.763 332.2C769.083 332.2 768.496 332.1 768.003 331.9C767.51 331.687 767.13 331.38 766.863 330.98C766.596 330.58 766.463 330.087 766.463 329.5C766.463 328.753 766.703 328.147 767.183 327.68C767.663 327.2 768.35 326.873 769.243 326.7L773.003 325.94L772.983 327.64L770.583 328.12C770.13 328.213 769.783 328.34 769.543 328.5C769.316 328.647 769.203 328.893 769.203 329.24C769.203 329.573 769.323 329.827 769.563 330C769.816 330.173 770.116 330.26 770.463 330.26C770.743 330.26 771.016 330.227 771.283 330.16C771.55 330.093 771.79 329.987 772.003 329.84C772.216 329.693 772.383 329.493 772.503 329.24C772.623 328.987 772.683 328.68 772.683 328.32V325.62ZM782.467 332.2C781.454 332.2 780.527 332.02 779.687 331.66C778.861 331.3 778.187 330.793 777.667 330.14L779.247 328.54C779.567 329.02 779.994 329.413 780.527 329.72C781.061 330.027 781.694 330.18 782.427 330.18C782.947 330.18 783.361 330.107 783.667 329.96C783.987 329.8 784.147 329.553 784.147 329.22C784.147 329.007 784.074 328.827 783.927 328.68C783.781 328.52 783.487 328.393 783.047 328.3L781.287 327.94C780.127 327.7 779.301 327.34 778.807 326.86C778.327 326.367 778.087 325.733 778.087 324.96C778.087 324.413 778.247 323.9 778.567 323.42C778.901 322.94 779.394 322.553 780.047 322.26C780.701 321.953 781.514 321.8 782.487 321.8C783.487 321.8 784.354 321.96 785.087 322.28C785.834 322.587 786.421 323.047 786.847 323.66L785.207 325.26C784.914 324.793 784.527 324.44 784.047 324.2C783.581 323.947 783.087 323.82 782.567 323.82C782.194 323.82 781.874 323.86 781.607 323.94C781.341 324.02 781.141 324.133 781.007 324.28C780.874 324.413 780.807 324.587 780.807 324.8C780.807 325.013 780.901 325.2 781.087 325.36C781.274 325.507 781.614 325.633 782.107 325.74L784.147 326.16C785.134 326.36 785.841 326.7 786.267 327.18C786.694 327.647 786.907 328.213 786.907 328.88C786.907 329.52 786.734 330.093 786.387 330.6C786.054 331.093 785.554 331.487 784.887 331.78C784.234 332.06 783.427 332.2 782.467 332.2ZM789.092 332V317.62H791.832V323.7C792.152 323.06 792.592 322.587 793.152 322.28C793.712 321.96 794.346 321.8 795.052 321.8C795.746 321.8 796.359 321.933 796.892 322.2C797.439 322.467 797.866 322.873 798.172 323.42C798.492 323.953 798.652 324.627 798.652 325.44V332H795.912V326.24C795.912 325.373 795.746 324.78 795.412 324.46C795.079 324.127 794.652 323.96 794.132 323.96C793.746 323.96 793.372 324.053 793.012 324.24C792.666 324.413 792.379 324.707 792.152 325.12C791.939 325.52 791.832 326.053 791.832 326.72V332H789.092ZM807.355 332.2C806.742 332.2 806.182 332.073 805.675 331.82C805.182 331.553 804.768 331.193 804.435 330.74C804.115 330.273 803.895 329.753 803.775 329.18L804.055 328.82L803.895 332H801.475V317.62H804.215V324.82L803.955 324.4C804.168 323.653 804.575 323.033 805.175 322.54C805.775 322.047 806.528 321.8 807.435 321.8C808.222 321.8 808.935 322.007 809.575 322.42C810.215 322.833 810.715 323.427 811.075 324.2C811.448 324.973 811.635 325.913 811.635 327.02C811.635 328.1 811.448 329.027 811.075 329.8C810.715 330.573 810.208 331.167 809.555 331.58C808.915 331.993 808.182 332.2 807.355 332.2ZM806.535 330.1C807.268 330.1 807.842 329.84 808.255 329.32C808.682 328.787 808.895 328.013 808.895 327C808.895 325.987 808.688 325.22 808.275 324.7C807.862 324.167 807.288 323.9 806.555 323.9C806.075 323.9 805.662 324.027 805.315 324.28C804.968 324.533 804.695 324.893 804.495 325.36C804.308 325.827 804.215 326.38 804.215 327.02C804.215 327.673 804.308 328.233 804.495 328.7C804.695 329.153 804.968 329.5 805.315 329.74C805.675 329.98 806.082 330.1 806.535 330.1ZM818.574 321.8C819.588 321.8 820.474 322.007 821.234 322.42C822.008 322.833 822.608 323.427 823.034 324.2C823.474 324.973 823.694 325.907 823.694 327C823.694 328.08 823.474 329.013 823.034 329.8C822.608 330.573 822.008 331.167 821.234 331.58C820.474 331.993 819.588 332.2 818.574 332.2C817.574 332.2 816.688 331.993 815.914 331.58C815.141 331.167 814.534 330.573 814.094 329.8C813.668 329.013 813.454 328.08 813.454 327C813.454 325.907 813.668 324.973 814.094 324.2C814.534 323.427 815.141 322.833 815.914 322.42C816.688 322.007 817.574 321.8 818.574 321.8ZM818.574 323.84C818.068 323.84 817.634 323.96 817.274 324.2C816.928 324.427 816.661 324.773 816.474 325.24C816.288 325.707 816.194 326.293 816.194 327C816.194 327.707 816.288 328.293 816.474 328.76C816.661 329.227 816.928 329.58 817.274 329.82C817.634 330.047 818.068 330.16 818.574 330.16C819.068 330.16 819.488 330.047 819.834 329.82C820.194 329.58 820.468 329.227 820.654 328.76C820.841 328.293 820.934 327.707 820.934 327C820.934 326.293 820.841 325.707 820.654 325.24C820.468 324.773 820.194 324.427 819.834 324.2C819.488 323.96 819.068 323.84 818.574 323.84ZM831.628 325.62C831.628 325.047 831.462 324.6 831.128 324.28C830.808 323.96 830.382 323.8 829.848 323.8C829.355 323.8 828.922 323.927 828.548 324.18C828.175 324.433 827.902 324.853 827.728 325.44L825.388 324.72C825.615 323.84 826.108 323.133 826.868 322.6C827.642 322.067 828.675 321.8 829.968 321.8C830.848 321.8 831.615 321.94 832.268 322.22C832.922 322.487 833.428 322.893 833.788 323.44C834.162 323.987 834.348 324.673 834.348 325.5V329.56C834.348 330.067 834.588 330.32 835.068 330.32C835.295 330.32 835.508 330.287 835.708 330.22L835.548 331.92C835.202 332.093 834.768 332.18 834.248 332.18C833.782 332.18 833.362 332.1 832.988 331.94C832.615 331.78 832.322 331.54 832.108 331.22C831.895 330.887 831.788 330.473 831.788 329.98V329.9L832.268 329.82C832.188 330.327 831.968 330.76 831.608 331.12C831.248 331.467 830.808 331.733 830.288 331.92C829.782 332.107 829.255 332.2 828.708 332.2C828.028 332.2 827.442 332.1 826.948 331.9C826.455 331.687 826.075 331.38 825.808 330.98C825.542 330.58 825.408 330.087 825.408 329.5C825.408 328.753 825.648 328.147 826.128 327.68C826.608 327.2 827.295 326.873 828.188 326.7L831.948 325.94L831.928 327.64L829.528 328.12C829.075 328.213 828.728 328.34 828.488 328.5C828.262 328.647 828.148 328.893 828.148 329.24C828.148 329.573 828.268 329.827 828.508 330C828.762 330.173 829.062 330.26 829.408 330.26C829.688 330.26 829.962 330.227 830.228 330.16C830.495 330.093 830.735 329.987 830.948 329.84C831.162 329.693 831.328 329.493 831.448 329.24C831.568 328.987 831.628 328.68 831.628 328.32V325.62ZM837.413 332V322H839.793L839.973 323.96C840.239 323.267 840.626 322.733 841.133 322.36C841.653 321.987 842.299 321.8 843.073 321.8C843.299 321.8 843.506 321.82 843.693 321.86C843.879 321.9 844.033 321.953 844.153 322.02L843.833 324.32C843.699 324.267 843.533 324.227 843.333 324.2C843.146 324.173 842.899 324.16 842.593 324.16C842.193 324.16 841.806 324.26 841.433 324.46C841.059 324.647 840.753 324.94 840.513 325.34C840.273 325.727 840.153 326.22 840.153 326.82V332H837.413ZM849.435 332.2C848.608 332.2 847.868 331.993 847.215 331.58C846.575 331.167 846.068 330.573 845.695 329.8C845.335 329.027 845.155 328.1 845.155 327.02C845.155 325.913 845.348 324.973 845.735 324.2C846.122 323.413 846.642 322.82 847.295 322.42C847.962 322.007 848.708 321.8 849.535 321.8C850.415 321.8 851.142 322.053 851.715 322.56C852.288 323.067 852.662 323.72 852.835 324.52L852.575 324.84V317.62H855.315V332H852.855L852.675 328.96L853.015 329.12C852.922 329.747 852.708 330.293 852.375 330.76C852.042 331.213 851.622 331.567 851.115 331.82C850.608 332.073 850.048 332.2 849.435 332.2ZM850.235 330.1C850.715 330.1 851.128 329.98 851.475 329.74C851.822 329.487 852.088 329.12 852.275 328.64C852.475 328.16 852.575 327.587 852.575 326.92C852.575 326.28 852.482 325.74 852.295 325.3C852.108 324.847 851.842 324.5 851.495 324.26C851.148 324.02 850.742 323.9 850.275 323.9C849.528 323.9 848.942 324.167 848.515 324.7C848.102 325.22 847.895 325.987 847.895 327C847.895 328.013 848.102 328.787 848.515 329.32C848.928 329.84 849.502 330.1 850.235 330.1Z" fill="#44403C"/>
<g clip-path="url(#clip0_72_745)">
<path d="M847.324 263.009C847.324 257.195 840.08 251.686 828.973 248.269C831.536 236.892 830.397 227.841 825.377 224.943C824.22 224.263 822.868 223.941 821.39 223.941V227.93C822.209 227.93 822.868 228.091 823.419 228.395C825.84 229.79 826.89 235.103 826.071 241.937C825.876 243.618 825.555 245.389 825.164 247.196C821.675 246.337 817.866 245.675 813.861 245.246C811.458 241.937 808.966 238.931 806.456 236.302C812.259 230.882 817.706 227.912 821.408 227.912V223.923C816.513 223.923 810.105 227.429 803.626 233.511C797.147 227.465 790.74 223.995 785.845 223.995V227.984C789.529 227.984 794.994 230.935 800.796 236.32C798.304 238.949 795.812 241.937 793.445 245.246C789.422 245.675 785.613 246.337 782.125 247.214C781.715 245.425 781.413 243.69 781.199 242.026C780.363 235.193 781.395 229.88 783.798 228.467C784.332 228.145 785.026 228.002 785.845 228.002V224.013C784.35 224.013 782.997 224.335 781.822 225.014C776.82 227.912 775.699 236.946 778.28 248.287C767.209 251.722 760 257.213 760 263.009C760 268.823 767.244 274.332 778.351 277.749C775.788 289.126 776.927 298.177 781.947 301.075C783.104 301.755 784.456 302.077 785.952 302.077C790.846 302.077 797.254 298.571 803.733 292.489C810.212 298.535 816.62 302.006 821.515 302.006C823.01 302.006 824.363 301.684 825.537 301.004C830.539 298.106 831.66 289.072 829.08 277.731C840.115 274.314 847.324 268.805 847.324 263.009ZM824.149 251.078C823.491 253.385 822.672 255.764 821.746 258.143C821.016 256.712 820.251 255.281 819.414 253.85C818.596 252.419 817.724 251.024 816.851 249.664C819.379 250.04 821.817 250.505 824.149 251.078ZM815.997 270.129C814.609 272.543 813.185 274.833 811.707 276.962C809.055 277.194 806.367 277.32 803.662 277.32C800.974 277.32 798.287 277.194 795.652 276.98C794.175 274.851 792.733 272.579 791.345 270.182C789.992 267.839 788.764 265.46 787.642 263.063C788.746 260.666 789.992 258.269 791.327 255.925C792.715 253.51 794.139 251.221 795.617 249.092C798.269 248.859 800.956 248.734 803.662 248.734C806.35 248.734 809.037 248.859 811.672 249.074C813.149 251.203 814.591 253.475 815.979 255.872C817.332 258.215 818.56 260.594 819.681 262.991C818.56 265.388 817.332 267.785 815.997 270.129ZM821.746 267.803C822.707 270.2 823.526 272.597 824.203 274.923C821.871 275.495 819.414 275.978 816.869 276.354C817.741 274.976 818.613 273.563 819.432 272.114C820.251 270.683 821.016 269.234 821.746 267.803ZM803.698 286.89C802.042 285.173 800.387 283.259 798.749 281.166C800.351 281.237 801.989 281.291 803.644 281.291C805.317 281.291 806.973 281.255 808.592 281.166C806.99 283.259 805.335 285.173 803.698 286.89ZM790.455 276.354C787.927 275.978 785.489 275.513 783.157 274.941C783.816 272.633 784.634 270.254 785.56 267.875C786.29 269.306 787.055 270.737 787.892 272.168C788.728 273.599 789.583 274.994 790.455 276.354ZM803.609 239.128C805.264 240.845 806.919 242.759 808.557 244.852C806.955 244.781 805.317 244.727 803.662 244.727C801.989 244.727 800.333 244.763 798.714 244.852C800.316 242.759 801.971 240.845 803.609 239.128ZM790.437 249.664C789.565 251.042 788.693 252.455 787.874 253.904C787.055 255.335 786.29 256.766 785.56 258.197C784.599 255.8 783.78 253.403 783.104 251.078C785.435 250.523 787.892 250.04 790.437 249.664ZM774.329 272.061C768.028 269.359 763.951 265.817 763.951 263.009C763.951 260.201 768.028 256.641 774.329 253.958C775.859 253.296 777.532 252.705 779.259 252.151C780.274 255.657 781.608 259.306 783.264 263.045C781.626 266.766 780.309 270.397 779.312 273.885C777.55 273.331 775.877 272.722 774.329 272.061ZM783.905 297.623C781.484 296.228 780.434 290.915 781.253 284.081C781.448 282.4 781.769 280.629 782.16 278.822C785.649 279.681 789.458 280.343 793.463 280.772C795.866 284.081 798.358 287.087 800.867 289.716C795.065 295.136 789.618 298.106 785.916 298.106C785.115 298.088 784.439 297.927 783.905 297.623ZM826.125 283.992C826.961 290.825 825.929 296.138 823.526 297.551C822.992 297.873 822.298 298.016 821.479 298.016C817.795 298.016 812.33 295.065 806.528 289.68C809.02 287.051 811.512 284.064 813.879 280.754C817.902 280.325 821.711 279.663 825.199 278.787C825.609 280.593 825.929 282.328 826.125 283.992ZM832.978 272.061C831.447 272.722 829.774 273.313 828.047 273.867C827.033 270.361 825.698 266.712 824.042 262.973C825.68 259.252 826.997 255.621 827.994 252.133C829.756 252.687 831.429 253.296 832.995 253.958C839.296 256.659 843.372 260.201 843.372 263.009C843.355 265.817 839.279 269.377 832.978 272.061Z" fill="#61DAFB"/>
<path d="M803.644 271.184C808.137 271.184 811.778 267.524 811.778 263.009C811.778 258.494 808.137 254.834 803.644 254.834C799.152 254.834 795.51 258.494 795.51 263.009C795.51 267.524 799.152 271.184 803.644 271.184Z" fill="#61DAFB"/>
</g>
<path d="M282.951 206.224H288.519V208H280.743V197.44H282.951V206.224ZM293.636 199.84C294.447 199.84 295.156 200.005 295.764 200.336C296.383 200.667 296.863 201.141 297.204 201.76C297.556 202.379 297.732 203.125 297.732 204C297.732 204.864 297.556 205.611 297.204 206.24C296.863 206.859 296.383 207.333 295.764 207.664C295.156 207.995 294.447 208.16 293.636 208.16C292.836 208.16 292.127 207.995 291.508 207.664C290.889 207.333 290.404 206.859 290.052 206.24C289.711 205.611 289.54 204.864 289.54 204C289.54 203.125 289.711 202.379 290.052 201.76C290.404 201.141 290.889 200.667 291.508 200.336C292.127 200.005 292.836 199.84 293.636 199.84ZM293.636 201.472C293.231 201.472 292.884 201.568 292.596 201.76C292.319 201.941 292.105 202.219 291.956 202.592C291.807 202.965 291.732 203.435 291.732 204C291.732 204.565 291.807 205.035 291.956 205.408C292.105 205.781 292.319 206.064 292.596 206.256C292.884 206.437 293.231 206.528 293.636 206.528C294.031 206.528 294.367 206.437 294.644 206.256C294.932 206.064 295.151 205.781 295.3 205.408C295.449 205.035 295.524 204.565 295.524 204C295.524 203.435 295.449 202.965 295.3 202.592C295.151 202.219 294.932 201.941 294.644 201.76C294.367 201.568 294.031 201.472 293.636 201.472ZM306.88 198.096L307.136 199.664C307.093 199.664 307.045 199.664 306.992 199.664C306.949 199.653 306.901 199.648 306.848 199.648C306.357 199.648 305.989 199.76 305.744 199.984C305.498 200.197 305.376 200.496 305.376 200.88L304.48 200.512C304.48 200.085 304.565 199.691 304.736 199.328C304.906 198.955 305.157 198.656 305.488 198.432C305.829 198.208 306.234 198.096 306.704 198.096C306.725 198.096 306.752 198.096 306.784 198.096C306.816 198.096 306.848 198.096 306.88 198.096ZM304.256 206.496C305.12 206.496 305.786 206.683 306.256 207.056C306.725 207.429 306.96 207.952 306.96 208.624C306.96 209.232 306.784 209.744 306.432 210.16C306.08 210.587 305.584 210.907 304.944 211.12C304.314 211.333 303.584 211.44 302.752 211.44C301.376 211.44 300.368 211.248 299.728 210.864C299.098 210.48 298.784 209.979 298.784 209.36C298.784 208.923 298.949 208.555 299.28 208.256C299.621 207.957 300.181 207.792 300.96 207.76L300.88 208.016C300.325 207.92 299.898 207.739 299.6 207.472C299.312 207.195 299.168 206.816 299.168 206.336C299.168 205.845 299.354 205.445 299.728 205.136C300.112 204.816 300.629 204.629 301.28 204.576L302.24 205.024H302.016C301.557 205.056 301.232 205.152 301.04 205.312C300.858 205.461 300.768 205.632 300.768 205.824C300.768 206.048 300.853 206.219 301.024 206.336C301.205 206.443 301.461 206.496 301.792 206.496H304.256ZM302.768 209.936C303.322 209.936 303.776 209.888 304.128 209.792C304.49 209.696 304.757 209.573 304.928 209.424C305.109 209.275 305.2 209.109 305.2 208.928C305.2 208.725 305.12 208.56 304.96 208.432C304.8 208.315 304.512 208.256 304.096 208.256H301.392C301.136 208.256 300.922 208.32 300.752 208.448C300.592 208.576 300.512 208.752 300.512 208.976C300.512 209.275 300.709 209.509 301.104 209.68C301.509 209.851 302.064 209.936 302.768 209.936ZM302.784 199.84C303.53 199.84 304.176 199.952 304.72 200.176C305.274 200.389 305.696 200.699 305.984 201.104C306.282 201.509 306.432 201.995 306.432 202.56C306.432 203.115 306.282 203.595 305.984 204C305.696 204.405 305.274 204.72 304.72 204.944C304.176 205.157 303.53 205.264 302.784 205.264C301.6 205.264 300.693 205.024 300.064 204.544C299.445 204.053 299.136 203.392 299.136 202.56C299.136 201.995 299.28 201.509 299.568 201.104C299.866 200.699 300.288 200.389 300.832 200.176C301.376 199.952 302.026 199.84 302.784 199.84ZM302.784 201.216C302.357 201.216 302.005 201.333 301.728 201.568C301.45 201.803 301.312 202.128 301.312 202.544C301.312 202.96 301.45 203.291 301.728 203.536C302.005 203.771 302.357 203.888 302.784 203.888C303.21 203.888 303.557 203.771 303.824 203.536C304.101 203.291 304.24 202.96 304.24 202.544C304.24 202.128 304.101 201.803 303.824 201.568C303.557 201.333 303.21 201.216 302.784 201.216ZM311.485 208.16C310.674 208.16 309.933 208.016 309.261 207.728C308.599 207.44 308.061 207.035 307.645 206.512L308.909 205.232C309.165 205.616 309.506 205.931 309.933 206.176C310.359 206.421 310.866 206.544 311.453 206.544C311.869 206.544 312.199 206.485 312.445 206.368C312.701 206.24 312.829 206.043 312.829 205.776C312.829 205.605 312.77 205.461 312.653 205.344C312.535 205.216 312.301 205.115 311.949 205.04L310.541 204.752C309.613 204.56 308.951 204.272 308.557 203.888C308.173 203.493 307.981 202.987 307.981 202.368C307.981 201.931 308.109 201.52 308.365 201.136C308.631 200.752 309.026 200.443 309.549 200.208C310.071 199.963 310.722 199.84 311.501 199.84C312.301 199.84 312.994 199.968 313.581 200.224C314.178 200.469 314.647 200.837 314.989 201.328L313.677 202.608C313.442 202.235 313.133 201.952 312.749 201.76C312.375 201.557 311.981 201.456 311.565 201.456C311.266 201.456 311.01 201.488 310.797 201.552C310.583 201.616 310.423 201.707 310.317 201.824C310.21 201.931 310.157 202.069 310.157 202.24C310.157 202.411 310.231 202.56 310.381 202.688C310.53 202.805 310.802 202.907 311.197 202.992L312.829 203.328C313.618 203.488 314.183 203.76 314.525 204.144C314.866 204.517 315.037 204.971 315.037 205.504C315.037 206.016 314.898 206.475 314.621 206.88C314.354 207.275 313.954 207.589 313.421 207.824C312.898 208.048 312.253 208.16 311.485 208.16Z" fill="#44403C"/>
<g clip-path="url(#clip1_72_745)">
<path d="M681 214H581V314H681V214Z" fill="#693CC5"/>
<path d="M645.68 296C645.398 296.001 645.122 295.912 644.893 295.747C644.721 295.624 644.581 295.462 644.483 295.274C644.386 295.086 644.334 294.878 644.333 294.667V233.333C644.334 233.105 644.394 232.882 644.506 232.683C644.618 232.485 644.779 232.318 644.973 232.2C645.17 232.073 645.397 231.999 645.631 231.988C645.865 231.976 646.098 232.026 646.307 232.133L663.64 240.6C663.863 240.709 664.05 240.878 664.182 241.087C664.314 241.297 664.385 241.539 664.387 241.787V288.907C664.401 289.199 664.319 289.488 664.153 289.729C663.986 289.97 663.745 290.15 663.467 290.24L646.133 296C645.983 296.022 645.83 296.022 645.68 296ZM647.013 235.48V292.813L661.68 287.947V242.613L647.013 235.48Z" fill="white"/>
<path d="M616.334 296C616.192 296.019 616.048 296.019 615.907 296L598.574 290.24C598.298 290.147 598.06 289.967 597.896 289.726C597.732 289.485 597.652 289.197 597.667 288.907V241.787C597.669 241.539 597.74 241.297 597.872 241.087C598.003 240.878 598.191 240.709 598.414 240.6L615.747 232.133C615.955 232.026 616.188 231.976 616.422 231.988C616.657 231.999 616.883 232.073 617.08 232.2C617.272 232.32 617.431 232.487 617.54 232.685C617.65 232.884 617.707 233.107 617.707 233.333V294.667C617.706 294.878 617.655 295.086 617.557 295.274C617.46 295.462 617.319 295.624 617.147 295.747C616.914 295.923 616.626 296.013 616.334 296ZM600.334 288L615 292.867V235.533L600.334 242.693V288Z" fill="white"/>
<path d="M644.333 250.667H640.333V248H644.333V250.667ZM636.333 250.667H632.333V248H636.333V250.667ZM628.333 250.667H624.333V248H628.333V250.667ZM620.333 250.667H616.333V248H620.333V250.667Z" fill="white"/>
<path d="M644.333 280H640.333V277.333H644.333V280ZM636.333 280H632.333V277.333H636.333V280ZM628.333 280H624.333V277.333H628.333V280ZM620.333 280H616.333V277.333H620.333V280Z" fill="white"/>
<path d="M625.147 268.587L620.134 264.307C619.987 264.181 619.87 264.026 619.789 263.851C619.709 263.676 619.667 263.486 619.667 263.293C619.667 263.101 619.709 262.91 619.789 262.735C619.87 262.561 619.987 262.405 620.134 262.28L625.134 258L626.867 260.027L623.054 263.333L626.867 266.6L625.147 268.587Z" fill="white"/>
<path d="M636.867 268.587L635.133 266.56L638.947 263.333L635.12 260.08L636.853 258L641.867 262.267C642.013 262.392 642.131 262.547 642.211 262.722C642.292 262.897 642.334 263.087 642.334 263.28C642.334 263.473 642.292 263.663 642.211 263.838C642.131 264.013 642.013 264.168 641.867 264.293L636.867 268.587Z" fill="white"/>
<path d="M632.378 255.723L627.079 271.398L629.605 272.252L634.904 256.577L632.378 255.723Z" fill="white"/>
</g>
<path d="M579.956 337L576.116 323.8H579.056L581.656 334.7L584.296 323.8H586.936L589.616 334.7L592.196 323.8H595.016L591.176 337H588.076L586.236 329.8L585.616 326.68H585.576L584.956 329.8L583.136 337H579.956ZM600.586 337.2C599.533 337.2 598.613 336.993 597.826 336.58C597.053 336.167 596.453 335.573 596.026 334.8C595.599 334.027 595.386 333.093 595.386 332C595.386 330.907 595.599 329.973 596.026 329.2C596.453 328.427 597.046 327.833 597.806 327.42C598.579 327.007 599.459 326.8 600.446 326.8C601.459 326.8 602.319 327.007 603.026 327.42C603.733 327.82 604.273 328.373 604.646 329.08C605.019 329.773 605.206 330.567 605.206 331.46C605.206 331.727 605.199 331.98 605.186 332.22C605.173 332.46 605.153 332.673 605.126 332.86H597.146V330.96H603.926L602.606 331.44C602.606 330.6 602.413 329.953 602.026 329.5C601.653 329.047 601.119 328.82 600.426 328.82C599.919 328.82 599.479 328.94 599.106 329.18C598.746 329.42 598.473 329.78 598.286 330.26C598.099 330.727 598.006 331.32 598.006 332.04C598.006 332.747 598.106 333.333 598.306 333.8C598.519 334.253 598.813 334.593 599.186 334.82C599.573 335.047 600.033 335.16 600.566 335.16C601.153 335.16 601.626 335.047 601.986 334.82C602.346 334.593 602.626 334.28 602.826 333.88L605.006 334.72C604.793 335.24 604.466 335.687 604.026 336.06C603.599 336.433 603.086 336.72 602.486 336.92C601.899 337.107 601.266 337.2 600.586 337.2ZM613.408 337.2C612.795 337.2 612.235 337.073 611.728 336.82C611.235 336.553 610.821 336.193 610.488 335.74C610.168 335.273 609.948 334.753 609.828 334.18L610.108 333.82L609.948 337H607.528V322.62H610.268V329.82L610.008 329.4C610.221 328.653 610.628 328.033 611.228 327.54C611.828 327.047 612.581 326.8 613.488 326.8C614.275 326.8 614.988 327.007 615.628 327.42C616.268 327.833 616.768 328.427 617.128 329.2C617.501 329.973 617.688 330.913 617.688 332.02C617.688 333.1 617.501 334.027 617.128 334.8C616.768 335.573 616.261 336.167 615.608 336.58C614.968 336.993 614.235 337.2 613.408 337.2ZM612.588 335.1C613.321 335.1 613.895 334.84 614.308 334.32C614.735 333.787 614.948 333.013 614.948 332C614.948 330.987 614.741 330.22 614.328 329.7C613.915 329.167 613.341 328.9 612.608 328.9C612.128 328.9 611.715 329.027 611.368 329.28C611.021 329.533 610.748 329.893 610.548 330.36C610.361 330.827 610.268 331.38 610.268 332.02C610.268 332.673 610.361 333.233 610.548 333.7C610.748 334.153 611.021 334.5 611.368 334.74C611.728 334.98 612.135 335.1 612.588 335.1ZM625.108 323.6C626.308 323.6 627.362 323.807 628.268 324.22C629.175 324.633 629.948 325.247 630.588 326.06L629.048 327.84C628.502 327.147 627.902 326.64 627.248 326.32C626.608 325.987 625.862 325.82 625.008 325.82C624.448 325.82 623.982 325.893 623.608 326.04C623.248 326.187 622.982 326.38 622.808 326.62C622.648 326.86 622.568 327.127 622.568 327.42C622.568 327.78 622.708 328.087 622.988 328.34C623.268 328.58 623.748 328.78 624.428 328.94L626.888 329.5C628.195 329.793 629.128 330.233 629.688 330.82C630.262 331.393 630.548 332.14 630.548 333.06C630.548 333.927 630.322 334.673 629.868 335.3C629.415 335.913 628.782 336.387 627.968 336.72C627.155 337.04 626.222 337.2 625.168 337.2C624.248 337.2 623.402 337.093 622.628 336.88C621.868 336.653 621.188 336.347 620.588 335.96C619.988 335.573 619.488 335.127 619.088 334.62L620.648 332.76C620.955 333.187 621.335 333.567 621.788 333.9C622.242 334.233 622.755 334.5 623.328 334.7C623.915 334.887 624.528 334.98 625.168 334.98C625.715 334.98 626.175 334.92 626.548 334.8C626.935 334.667 627.222 334.487 627.408 334.26C627.608 334.02 627.708 333.733 627.708 333.4C627.708 333.053 627.588 332.76 627.348 332.52C627.122 332.267 626.695 332.073 626.068 331.94L623.388 331.34C622.615 331.153 621.948 330.913 621.388 330.62C620.842 330.313 620.422 329.927 620.128 329.46C619.848 328.98 619.708 328.413 619.708 327.76C619.708 326.973 619.922 326.267 620.348 325.64C620.775 325.013 621.388 324.52 622.188 324.16C623.002 323.787 623.975 323.6 625.108 323.6ZM637.439 326.8C638.453 326.8 639.339 327.007 640.099 327.42C640.873 327.833 641.473 328.427 641.899 329.2C642.339 329.973 642.559 330.907 642.559 332C642.559 333.08 642.339 334.013 641.899 334.8C641.473 335.573 640.873 336.167 640.099 336.58C639.339 336.993 638.453 337.2 637.439 337.2C636.439 337.2 635.553 336.993 634.779 336.58C634.006 336.167 633.399 335.573 632.959 334.8C632.533 334.013 632.319 333.08 632.319 332C632.319 330.907 632.533 329.973 632.959 329.2C633.399 328.427 634.006 327.833 634.779 327.42C635.553 327.007 636.439 326.8 637.439 326.8ZM637.439 328.84C636.933 328.84 636.499 328.96 636.139 329.2C635.793 329.427 635.526 329.773 635.339 330.24C635.153 330.707 635.059 331.293 635.059 332C635.059 332.707 635.153 333.293 635.339 333.76C635.526 334.227 635.793 334.58 636.139 334.82C636.499 335.047 636.933 335.16 637.439 335.16C637.933 335.16 638.353 335.047 638.699 334.82C639.059 334.58 639.333 334.227 639.519 333.76C639.706 333.293 639.799 332.707 639.799 332C639.799 331.293 639.706 330.707 639.519 330.24C639.333 329.773 639.059 329.427 638.699 329.2C638.353 328.96 637.933 328.84 637.439 328.84ZM649.392 326.8C650.285 326.8 651.039 326.933 651.652 327.2C652.279 327.453 652.779 327.807 653.152 328.26C653.539 328.7 653.812 329.193 653.972 329.74L651.412 330.66C651.279 330.06 651.052 329.607 650.732 329.3C650.412 328.993 649.979 328.84 649.432 328.84C648.925 328.84 648.492 328.96 648.132 329.2C647.772 329.427 647.499 329.78 647.312 330.26C647.125 330.727 647.032 331.313 647.032 332.02C647.032 332.727 647.125 333.313 647.312 333.78C647.512 334.247 647.792 334.593 648.152 334.82C648.525 335.047 648.959 335.16 649.452 335.16C649.852 335.16 650.192 335.093 650.472 334.96C650.752 334.813 650.979 334.607 651.152 334.34C651.339 334.073 651.465 333.753 651.532 333.38L654.012 334.18C653.865 334.78 653.592 335.307 653.192 335.76C652.792 336.213 652.279 336.567 651.652 336.82C651.025 337.073 650.299 337.2 649.472 337.2C648.445 337.2 647.539 336.993 646.752 336.58C645.965 336.167 645.359 335.573 644.932 334.8C644.505 334.027 644.292 333.093 644.292 332C644.292 330.907 644.505 329.973 644.932 329.2C645.359 328.427 645.959 327.833 646.732 327.42C647.505 327.007 648.392 326.8 649.392 326.8ZM666.321 327L661.701 331.82L661.161 332.08L658.161 335.3L658.121 332.38L663.201 327H666.321ZM658.881 322.62V337H656.141V322.62H658.881ZM662.081 330.18L666.561 337H663.461L660.201 331.78L662.081 330.18ZM672.344 337.2C671.29 337.2 670.37 336.993 669.584 336.58C668.81 336.167 668.21 335.573 667.784 334.8C667.357 334.027 667.144 333.093 667.144 332C667.144 330.907 667.357 329.973 667.784 329.2C668.21 328.427 668.804 327.833 669.564 327.42C670.337 327.007 671.217 326.8 672.204 326.8C673.217 326.8 674.077 327.007 674.784 327.42C675.49 327.82 676.03 328.373 676.404 329.08C676.777 329.773 676.964 330.567 676.964 331.46C676.964 331.727 676.957 331.98 676.944 332.22C676.93 332.46 676.91 332.673 676.884 332.86H668.904V330.96H675.684L674.364 331.44C674.364 330.6 674.17 329.953 673.784 329.5C673.41 329.047 672.877 328.82 672.184 328.82C671.677 328.82 671.237 328.94 670.864 329.18C670.504 329.42 670.23 329.78 670.044 330.26C669.857 330.727 669.764 331.32 669.764 332.04C669.764 332.747 669.864 333.333 670.064 333.8C670.277 334.253 670.57 334.593 670.944 334.82C671.33 335.047 671.79 335.16 672.324 335.16C672.91 335.16 673.384 335.047 673.744 334.82C674.104 334.593 674.384 334.28 674.584 333.88L676.764 334.72C676.55 335.24 676.224 335.687 675.784 336.06C675.357 336.433 674.844 336.72 674.244 336.92C673.657 337.107 673.024 337.2 672.344 337.2ZM682.65 323.94V333.74C682.65 334.22 682.77 334.573 683.01 334.8C683.263 335.013 683.603 335.12 684.03 335.12C684.363 335.12 684.657 335.073 684.91 334.98C685.163 334.873 685.39 334.733 685.59 334.56L686.03 336.38C685.71 336.633 685.31 336.833 684.83 336.98C684.35 337.127 683.843 337.2 683.31 337.2C682.643 337.2 682.05 337.1 681.53 336.9C681.023 336.7 680.623 336.38 680.33 335.94C680.05 335.5 679.91 334.913 679.91 334.18V324.7L682.65 323.94ZM685.85 327V329.04H678.07V327H685.85ZM582.559 360H579.699L578.599 356.78H573.539L572.439 360H569.619L574.439 346.8H577.739L582.559 360ZM574.159 354.74H577.979L576.059 348.98L574.159 354.74ZM590.057 346.8C591.07 346.8 591.937 346.973 592.657 347.32C593.377 347.653 593.93 348.14 594.317 348.78C594.717 349.407 594.917 350.167 594.917 351.06C594.917 351.953 594.717 352.72 594.317 353.36C593.93 353.987 593.377 354.473 592.657 354.82C591.937 355.153 591.07 355.32 590.057 355.32H587.277V360H584.517V346.8H590.057ZM589.637 353.14C590.464 353.14 591.084 352.967 591.497 352.62C591.91 352.26 592.117 351.74 592.117 351.06C592.117 350.367 591.91 349.847 591.497 349.5C591.084 349.153 590.464 348.98 589.637 348.98H587.277V353.14H589.637ZM600.207 346.8V360H597.447V346.8H600.207ZM615.171 360.2C613.958 360.2 612.891 359.933 611.971 359.4C611.065 358.867 610.358 358.093 609.851 357.08C609.345 356.067 609.091 354.847 609.091 353.42C609.091 352.007 609.358 350.793 609.891 349.78C610.425 348.753 611.178 347.967 612.151 347.42C613.138 346.873 614.278 346.6 615.571 346.6C616.998 346.6 618.151 346.867 619.031 347.4C619.911 347.92 620.611 348.733 621.131 349.84L618.571 350.94C618.358 350.233 617.991 349.713 617.471 349.38C616.965 349.033 616.338 348.86 615.591 348.86C614.845 348.86 614.198 349.04 613.651 349.4C613.105 349.747 612.685 350.26 612.391 350.94C612.098 351.607 611.951 352.427 611.951 353.4C611.951 354.4 612.091 355.247 612.371 355.94C612.651 356.62 613.065 357.133 613.611 357.48C614.171 357.813 614.858 357.98 615.671 357.98C616.111 357.98 616.518 357.927 616.891 357.82C617.278 357.713 617.611 357.553 617.891 357.34C618.171 357.127 618.391 356.853 618.551 356.52C618.711 356.187 618.791 355.8 618.791 355.36V355.06H615.331V353.04H621.171V360H619.231L619.031 357.12L619.511 357.46C619.218 358.34 618.698 359.02 617.951 359.5C617.218 359.967 616.291 360.2 615.171 360.2ZM629.624 353.62C629.624 353.047 629.458 352.6 629.124 352.28C628.804 351.96 628.378 351.8 627.844 351.8C627.351 351.8 626.918 351.927 626.544 352.18C626.171 352.433 625.898 352.853 625.724 353.44L623.384 352.72C623.611 351.84 624.104 351.133 624.864 350.6C625.638 350.067 626.671 349.8 627.964 349.8C628.844 349.8 629.611 349.94 630.264 350.22C630.918 350.487 631.424 350.893 631.784 351.44C632.158 351.987 632.344 352.673 632.344 353.5V357.56C632.344 358.067 632.584 358.32 633.064 358.32C633.291 358.32 633.504 358.287 633.704 358.22L633.544 359.92C633.198 360.093 632.764 360.18 632.244 360.18C631.778 360.18 631.358 360.1 630.984 359.94C630.611 359.78 630.318 359.54 630.104 359.22C629.891 358.887 629.784 358.473 629.784 357.98V357.9L630.264 357.82C630.184 358.327 629.964 358.76 629.604 359.12C629.244 359.467 628.804 359.733 628.284 359.92C627.778 360.107 627.251 360.2 626.704 360.2C626.024 360.2 625.438 360.1 624.944 359.9C624.451 359.687 624.071 359.38 623.804 358.98C623.538 358.58 623.404 358.087 623.404 357.5C623.404 356.753 623.644 356.147 624.124 355.68C624.604 355.2 625.291 354.873 626.184 354.7L629.944 353.94L629.924 355.64L627.524 356.12C627.071 356.213 626.724 356.34 626.484 356.5C626.258 356.647 626.144 356.893 626.144 357.24C626.144 357.573 626.264 357.827 626.504 358C626.758 358.173 627.058 358.26 627.404 358.26C627.684 358.26 627.958 358.227 628.224 358.16C628.491 358.093 628.731 357.987 628.944 357.84C629.158 357.693 629.324 357.493 629.444 357.24C629.564 356.987 629.624 356.68 629.624 356.32V353.62ZM638.558 346.94V356.74C638.558 357.22 638.678 357.573 638.918 357.8C639.171 358.013 639.511 358.12 639.938 358.12C640.271 358.12 640.565 358.073 640.818 357.98C641.071 357.873 641.298 357.733 641.498 357.56L641.938 359.38C641.618 359.633 641.218 359.833 640.738 359.98C640.258 360.127 639.751 360.2 639.218 360.2C638.551 360.2 637.958 360.1 637.438 359.9C636.931 359.7 636.531 359.38 636.238 358.94C635.958 358.5 635.818 357.913 635.818 357.18V347.7L638.558 346.94ZM641.758 350V352.04H633.978V350H641.758ZM648.252 360.2C647.199 360.2 646.279 359.993 645.492 359.58C644.719 359.167 644.119 358.573 643.692 357.8C643.265 357.027 643.052 356.093 643.052 355C643.052 353.907 643.265 352.973 643.692 352.2C644.119 351.427 644.712 350.833 645.472 350.42C646.245 350.007 647.125 349.8 648.112 349.8C649.125 349.8 649.985 350.007 650.692 350.42C651.399 350.82 651.939 351.373 652.312 352.08C652.685 352.773 652.872 353.567 652.872 354.46C652.872 354.727 652.865 354.98 652.852 355.22C652.839 355.46 652.819 355.673 652.792 355.86H644.812V353.96H651.592L650.272 354.44C650.272 353.6 650.079 352.953 649.692 352.5C649.319 352.047 648.785 351.82 648.092 351.82C647.585 351.82 647.145 351.94 646.772 352.18C646.412 352.42 646.139 352.78 645.952 353.26C645.765 353.727 645.672 354.32 645.672 355.04C645.672 355.747 645.772 356.333 645.972 356.8C646.185 357.253 646.479 357.593 646.852 357.82C647.239 358.047 647.699 358.16 648.232 358.16C648.819 358.16 649.292 358.047 649.652 357.82C650.012 357.593 650.292 357.28 650.492 356.88L652.672 357.72C652.459 358.24 652.132 358.687 651.692 359.06C651.265 359.433 650.752 359.72 650.152 359.92C649.565 360.107 648.932 360.2 648.252 360.2ZM667.82 350H670.74L667.54 360H664.38L662.2 353.2L660.1 360H656.94L653.74 350H656.66L658.66 357.66L660.88 350H663.6L665.84 357.66L667.82 350ZM677.984 353.62C677.984 353.047 677.817 352.6 677.484 352.28C677.164 351.96 676.737 351.8 676.204 351.8C675.71 351.8 675.277 351.927 674.904 352.18C674.53 352.433 674.257 352.853 674.084 353.44L671.744 352.72C671.97 351.84 672.464 351.133 673.224 350.6C673.997 350.067 675.03 349.8 676.324 349.8C677.204 349.8 677.97 349.94 678.624 350.22C679.277 350.487 679.784 350.893 680.144 351.44C680.517 351.987 680.704 352.673 680.704 353.5V357.56C680.704 358.067 680.944 358.32 681.424 358.32C681.65 358.32 681.864 358.287 682.064 358.22L681.904 359.92C681.557 360.093 681.124 360.18 680.604 360.18C680.137 360.18 679.717 360.1 679.344 359.94C678.97 359.78 678.677 359.54 678.464 359.22C678.25 358.887 678.144 358.473 678.144 357.98V357.9L678.624 357.82C678.544 358.327 678.324 358.76 677.964 359.12C677.604 359.467 677.164 359.733 676.644 359.92C676.137 360.107 675.61 360.2 675.064 360.2C674.384 360.2 673.797 360.1 673.304 359.9C672.81 359.687 672.43 359.38 672.164 358.98C671.897 358.58 671.764 358.087 671.764 357.5C671.764 356.753 672.004 356.147 672.484 355.68C672.964 355.2 673.65 354.873 674.544 354.7L678.304 353.94L678.284 355.64L675.884 356.12C675.43 356.213 675.084 356.34 674.844 356.5C674.617 356.647 674.504 356.893 674.504 357.24C674.504 357.573 674.624 357.827 674.864 358C675.117 358.173 675.417 358.26 675.764 358.26C676.044 358.26 676.317 358.227 676.584 358.16C676.85 358.093 677.09 357.987 677.304 357.84C677.517 357.693 677.684 357.493 677.804 357.24C677.924 356.987 677.984 356.68 677.984 356.32V353.62ZM692.543 350L688.503 360.62C688.183 361.527 687.823 362.247 687.423 362.78C687.036 363.313 686.583 363.7 686.063 363.94C685.556 364.18 684.95 364.3 684.243 364.3C683.723 364.3 683.243 364.233 682.803 364.1C682.376 363.98 682.003 363.82 681.683 363.62L682.263 361.64C682.516 361.84 682.783 361.98 683.063 362.06C683.343 362.153 683.663 362.2 684.023 362.2C684.396 362.2 684.716 362.12 684.983 361.96C685.263 361.8 685.496 361.48 685.683 361L686.023 360.14L684.923 357.54L681.863 350H684.903L686.803 356L687.323 358L687.943 355.88L689.763 350H692.543Z" fill="#44403C"/>
<path d="M756.707 263.707C757.098 263.317 757.098 262.684 756.707 262.293L750.343 255.929C749.953 255.539 749.319 255.539 748.929 255.929C748.538 256.32 748.538 256.953 748.929 257.343L754.586 263L748.929 268.657C748.538 269.048 748.538 269.681 748.929 270.071C749.319 270.462 749.953 270.462 750.343 270.071L756.707 263.707ZM685 264H756V262H685V264Z" fill="#A8A29E"/>
<path d="M815.406 138.906H803.594C803.146 138.906 802.717 139.11 802.401 139.474C802.084 139.837 801.906 140.33 801.906 140.844V145.203C801.907 145.504 801.968 145.8 802.085 146.069C802.202 146.338 802.372 146.572 802.581 146.753L808.094 151.5L802.581 156.247C802.372 156.428 802.202 156.662 802.085 156.931C801.968 157.2 801.907 157.496 801.906 157.797V162.156C801.906 162.67 802.084 163.163 802.401 163.526C802.717 163.89 803.146 164.094 803.594 164.094H815.406C815.854 164.094 816.283 163.89 816.599 163.526C816.916 163.163 817.094 162.67 817.094 162.156V157.84C817.093 157.541 817.032 157.246 816.916 156.977C816.8 156.709 816.632 156.475 816.424 156.294L810.9 151.5L816.424 146.705C816.632 146.524 816.8 146.29 816.916 146.022C817.033 145.754 817.093 145.459 817.094 145.16V140.844C817.094 140.33 816.916 139.837 816.599 139.474C816.283 139.11 815.854 138.906 815.406 138.906ZM815.406 140.844V142.781H803.594V140.844H815.406ZM815.406 162.156H803.594V157.797L809.5 152.711L815.406 157.839V162.156ZM809.5 150.289L803.594 145.203V144.719H815.406V145.16L809.5 150.289Z" fill="#78716C"/>
<rect x="8.75" y="6.75" width="211.5" height="357.5" rx="7.25" stroke="#EB7F0B" stroke-width="1.5"/>
<g clip-path="url(#clip2_72_745)">
<path d="M79.617 155.219H152.383C152.812 155.219 153.223 155.032 153.526 154.7C153.83 154.367 154 153.916 154 153.445V103.555C154 103.084 153.83 102.633 153.526 102.3C153.223 101.967 152.812 101.781 152.383 101.781H79.617C79.1882 101.781 78.7769 101.967 78.4736 102.3C78.1704 102.633 78 103.084 78 103.555V153.445C78 153.916 78.1704 154.367 78.4736 154.7C78.7769 155.032 79.1882 155.219 79.617 155.219ZM150.766 151.671H81.234V105.329H150.766V151.671Z" fill="#D86613"/>
<path d="M143.182 110.208H146.416V146.81H143.182V110.208Z" fill="#D86613"/>
<path d="M134.095 110.208H137.329V146.81H134.095V110.208Z" fill="#D86613"/>
<path d="M94.6717 110.208H97.9058V146.81H94.6717V110.208Z" fill="#D86613"/>
<path d="M85.5838 110.208H88.8179V146.81H85.5838V110.208Z" fill="#D86613"/>
<path d="M106.508 141.913H125.492C126.217 141.913 126.912 141.597 127.424 141.035C127.937 140.472 128.225 139.71 128.225 138.915V118.086C128.225 117.29 127.937 116.528 127.424 115.965C126.912 115.403 126.217 115.087 125.492 115.087H106.508C105.783 115.087 105.088 115.403 104.576 115.965C104.063 116.528 103.775 117.29 103.775 118.086V138.915C103.775 139.71 104.063 140.472 104.576 141.035C105.088 141.597 105.783 141.913 106.508 141.913ZM124.991 138.365H107.009V118.636H124.991V138.365Z" fill="#D86613"/>
<path d="M123.471 111.876H126.705V116.861H123.471V111.876Z" fill="#D86613"/>
<path d="M117.407 111.876H120.641V116.861H117.407V111.876Z" fill="#D86613"/>
<path d="M111.343 111.876H114.577V116.861H111.343V111.876Z" fill="#D86613"/>
<path d="M105.279 111.876H108.513V116.861H105.279V111.876Z" fill="#D86613"/>
<path d="M123.471 140.139H126.705V145.124H123.471V140.139Z" fill="#D86613"/>
<path d="M117.407 140.139H120.641V145.124H117.407V140.139Z" fill="#D86613"/>
<path d="M111.343 140.139H114.577V145.124H111.343V140.139Z" fill="#D86613"/>
<path d="M105.279 140.139H108.513V145.124H105.279V140.139Z" fill="#D86613"/>
<path d="M126.608 116.755H131.151V120.303H126.608V116.755Z" fill="#D86613"/>
<path d="M126.608 123.408H131.151V126.956H126.608V123.408Z" fill="#D86613"/>
<path d="M126.608 130.061H131.151V133.61H126.608V130.061Z" fill="#D86613"/>
<path d="M126.608 136.715H131.151V140.263H126.608V136.715Z" fill="#D86613"/>
<path d="M100.848 116.755H105.392V120.303H100.848V116.755Z" fill="#D86613"/>
<path d="M100.848 123.408H105.392V126.956H100.848V123.408Z" fill="#D86613"/>
<path d="M100.848 130.061H105.392V133.61H100.848V130.061Z" fill="#D86613"/>
<path d="M100.848 136.715H105.392V140.263H100.848V136.715Z" fill="#D86613"/>
</g>
<g clip-path="url(#clip3_72_745)">
<path d="M79.617 242.219H152.383C152.812 242.219 153.223 242.032 153.526 241.7C153.83 241.367 154 240.916 154 240.445V190.555C154 190.084 153.83 189.633 153.526 189.3C153.223 188.967 152.812 188.781 152.383 188.781H79.617C79.1882 188.781 78.7769 188.967 78.4736 189.3C78.1704 189.633 78 190.084 78 190.555V240.445C78 240.916 78.1704 241.367 78.4736 241.7C78.7769 242.032 79.1882 242.219 79.617 242.219ZM150.766 238.671H81.234V192.329H150.766V238.671Z" fill="#D86613"/>
<path d="M143.182 197.208H146.416V233.81H143.182V197.208Z" fill="#D86613"/>
<path d="M134.095 197.208H137.329V233.81H134.095V197.208Z" fill="#D86613"/>
<path d="M94.6717 197.208H97.9058V233.81H94.6717V197.208Z" fill="#D86613"/>
<path d="M85.5838 197.208H88.8179V233.81H85.5838V197.208Z" fill="#D86613"/>
<path d="M106.508 228.913H125.492C126.217 228.913 126.912 228.597 127.424 228.035C127.937 227.472 128.225 226.71 128.225 225.915V205.086C128.225 204.29 127.937 203.528 127.424 202.965C126.912 202.403 126.217 202.087 125.492 202.087H106.508C105.783 202.087 105.088 202.403 104.576 202.965C104.063 203.528 103.775 204.29 103.775 205.086V225.915C103.775 226.71 104.063 227.472 104.576 228.035C105.088 228.597 105.783 228.913 106.508 228.913ZM124.991 225.365H107.009V205.636H124.991V225.365Z" fill="#D86613"/>
<path d="M123.471 198.876H126.705V203.861H123.471V198.876Z" fill="#D86613"/>
<path d="M117.407 198.876H120.641V203.861H117.407V198.876Z" fill="#D86613"/>
<path d="M111.343 198.876H114.577V203.861H111.343V198.876Z" fill="#D86613"/>
<path d="M105.279 198.876H108.513V203.861H105.279V198.876Z" fill="#D86613"/>
<path d="M123.471 227.139H126.705V232.124H123.471V227.139Z" fill="#D86613"/>
<path d="M117.407 227.139H120.641V232.124H117.407V227.139Z" fill="#D86613"/>
<path d="M111.343 227.139H114.577V232.124H111.343V227.139Z" fill="#D86613"/>
<path d="M105.279 227.139H108.513V232.124H105.279V227.139Z" fill="#D86613"/>
<path d="M126.608 203.755H131.151V207.303H126.608V203.755Z" fill="#D86613"/>
<path d="M126.608 210.408H131.151V213.956H126.608V210.408Z" fill="#D86613"/>
<path d="M126.608 217.061H131.151V220.61H126.608V217.061Z" fill="#D86613"/>
<path d="M126.608 223.715H131.151V227.263H126.608V223.715Z" fill="#D86613"/>
<path d="M100.848 203.755H105.392V207.303H100.848V203.755Z" fill="#D86613"/>
<path d="M100.848 210.408H105.392V213.956H100.848V210.408Z" fill="#D86613"/>
<path d="M100.848 217.061H105.392V220.61H100.848V217.061Z" fill="#D86613"/>
<path d="M100.848 223.715H105.392V227.263H100.848V223.715Z" fill="#D86613"/>
</g>
<g clip-path="url(#clip4_72_745)">
<path d="M79.617 329.219H152.383C152.812 329.219 153.223 329.032 153.526 328.7C153.83 328.367 154 327.916 154 327.445V277.555C154 277.084 153.83 276.633 153.526 276.3C153.223 275.967 152.812 275.781 152.383 275.781H79.617C79.1882 275.781 78.7769 275.967 78.4736 276.3C78.1704 276.633 78 277.084 78 277.555V327.445C78 327.916 78.1704 328.367 78.4736 328.7C78.7769 329.032 79.1882 329.219 79.617 329.219ZM150.766 325.671H81.234V279.329H150.766V325.671Z" fill="#D86613"/>
<path d="M143.182 284.208H146.416V320.81H143.182V284.208Z" fill="#D86613"/>
<path d="M134.095 284.208H137.329V320.81H134.095V284.208Z" fill="#D86613"/>
<path d="M94.6717 284.208H97.9058V320.81H94.6717V284.208Z" fill="#D86613"/>
<path d="M85.5838 284.208H88.8179V320.81H85.5838V284.208Z" fill="#D86613"/>
<path d="M106.508 315.913H125.492C126.217 315.913 126.912 315.597 127.424 315.035C127.937 314.472 128.225 313.71 128.225 312.915V292.086C128.225 291.29 127.937 290.528 127.424 289.965C126.912 289.403 126.217 289.087 125.492 289.087H106.508C105.783 289.087 105.088 289.403 104.576 289.965C104.063 290.528 103.775 291.29 103.775 292.086V312.915C103.775 313.71 104.063 314.472 104.576 315.035C105.088 315.597 105.783 315.913 106.508 315.913ZM124.991 312.365H107.009V292.636H124.991V312.365Z" fill="#D86613"/>
<path d="M123.471 285.876H126.705V290.861H123.471V285.876Z" fill="#D86613"/>
<path d="M117.407 285.876H120.641V290.861H117.407V285.876Z" fill="#D86613"/>
<path d="M111.343 285.876H114.577V290.861H111.343V285.876Z" fill="#D86613"/>
<path d="M105.279 285.876H108.513V290.861H105.279V285.876Z" fill="#D86613"/>
<path d="M123.471 314.139H126.705V319.124H123.471V314.139Z" fill="#D86613"/>
<path d="M117.407 314.139H120.641V319.124H117.407V314.139Z" fill="#D86613"/>
<path d="M111.343 314.139H114.577V319.124H111.343V314.139Z" fill="#D86613"/>
<path d="M105.279 314.139H108.513V319.124H105.279V314.139Z" fill="#D86613"/>
<path d="M126.608 290.755H131.151V294.303H126.608V290.755Z" fill="#D86613"/>
<path d="M126.608 297.408H131.151V300.956H126.608V297.408Z" fill="#D86613"/>
<path d="M126.608 304.061H131.151V307.61H126.608V304.061Z" fill="#D86613"/>
<path d="M126.608 310.715H131.151V314.263H126.608V310.715Z" fill="#D86613"/>
<path d="M100.848 290.755H105.392V294.303H100.848V290.755Z" fill="#D86613"/>
<path d="M100.848 297.408H105.392V300.956H100.848V297.408Z" fill="#D86613"/>
<path d="M100.848 304.061H105.392V307.61H100.848V304.061Z" fill="#D86613"/>
<path d="M100.848 310.715H105.392V314.263H100.848V310.715Z" fill="#D86613"/>
</g>
<path d="M101.16 20.8V23.02H96.74V34H93.98V23.02H89.54V20.8H101.16ZM106.98 27.62C106.98 27.0467 106.813 26.6 106.48 26.28C106.16 25.96 105.733 25.8 105.2 25.8C104.707 25.8 104.273 25.9267 103.9 26.18C103.527 26.4333 103.253 26.8533 103.08 27.44L100.74 26.72C100.967 25.84 101.46 25.1333 102.22 24.6C102.993 24.0667 104.027 23.8 105.32 23.8C106.2 23.8 106.967 23.94 107.62 24.22C108.273 24.4867 108.78 24.8933 109.14 25.44C109.513 25.9867 109.7 26.6733 109.7 27.5V31.56C109.7 32.0667 109.94 32.32 110.42 32.32C110.647 32.32 110.86 32.2867 111.06 32.22L110.9 33.92C110.553 34.0933 110.12 34.18 109.6 34.18C109.133 34.18 108.713 34.1 108.34 33.94C107.967 33.78 107.673 33.54 107.46 33.22C107.247 32.8867 107.14 32.4733 107.14 31.98V31.9L107.62 31.82C107.54 32.3267 107.32 32.76 106.96 33.12C106.6 33.4667 106.16 33.7333 105.64 33.92C105.133 34.1067 104.607 34.2 104.06 34.2C103.38 34.2 102.793 34.1 102.3 33.9C101.807 33.6867 101.427 33.38 101.16 32.98C100.893 32.58 100.76 32.0867 100.76 31.5C100.76 30.7533 101 30.1467 101.48 29.68C101.96 29.2 102.647 28.8733 103.54 28.7L107.3 27.94L107.28 29.64L104.88 30.12C104.427 30.2133 104.08 30.34 103.84 30.5C103.613 30.6467 103.5 30.8933 103.5 31.24C103.5 31.5733 103.62 31.8267 103.86 32C104.113 32.1733 104.413 32.26 104.76 32.26C105.04 32.26 105.313 32.2267 105.58 32.16C105.847 32.0933 106.087 31.9867 106.3 31.84C106.513 31.6933 106.68 31.4933 106.8 31.24C106.92 30.9867 106.98 30.68 106.98 30.32V27.62ZM116.764 34.2C115.751 34.2 114.824 34.02 113.984 33.66C113.158 33.3 112.484 32.7933 111.964 32.14L113.544 30.54C113.864 31.02 114.291 31.4133 114.824 31.72C115.358 32.0267 115.991 32.18 116.724 32.18C117.244 32.18 117.658 32.1067 117.964 31.96C118.284 31.8 118.444 31.5533 118.444 31.22C118.444 31.0067 118.371 30.8267 118.224 30.68C118.078 30.52 117.784 30.3933 117.344 30.3L115.584 29.94C114.424 29.7 113.598 29.34 113.104 28.86C112.624 28.3667 112.384 27.7333 112.384 26.96C112.384 26.4133 112.544 25.9 112.864 25.42C113.198 24.94 113.691 24.5533 114.344 24.26C114.998 23.9533 115.811 23.8 116.784 23.8C117.784 23.8 118.651 23.96 119.384 24.28C120.131 24.5867 120.718 25.0467 121.144 25.66L119.504 27.26C119.211 26.7933 118.824 26.44 118.344 26.2C117.878 25.9467 117.384 25.82 116.864 25.82C116.491 25.82 116.171 25.86 115.904 25.94C115.638 26.02 115.438 26.1333 115.304 26.28C115.171 26.4133 115.104 26.5867 115.104 26.8C115.104 27.0133 115.198 27.2 115.384 27.36C115.571 27.5067 115.911 27.6333 116.404 27.74L118.444 28.16C119.431 28.36 120.138 28.7 120.564 29.18C120.991 29.6467 121.204 30.2133 121.204 30.88C121.204 31.52 121.031 32.0933 120.684 32.6C120.351 33.0933 119.851 33.4867 119.184 33.78C118.531 34.06 117.724 34.2 116.764 34.2ZM133.569 24L128.949 28.82L128.409 29.08L125.409 32.3L125.369 29.38L130.449 24H133.569ZM126.129 19.62V34H123.389V19.62H126.129ZM129.329 27.18L133.809 34H130.709L127.449 28.78L129.329 27.18ZM102.02 53.36C101.767 54.2133 101.367 54.9267 100.82 55.5C100.273 56.0733 99.6267 56.5 98.88 56.78C98.1333 57.06 97.3133 57.2 96.42 57.2C95.1133 57.2 93.98 56.9267 93.02 56.38C92.0733 55.8333 91.34 55.0533 90.82 54.04C90.3133 53.0267 90.06 51.8133 90.06 50.4C90.06 48.9867 90.3133 47.7733 90.82 46.76C91.34 45.7467 92.0733 44.9667 93.02 44.42C93.98 43.8733 95.1 43.6 96.38 43.6C97.2867 43.6 98.1067 43.7267 98.84 43.98C99.5733 44.22 100.193 44.5933 100.7 45.1C101.22 45.6067 101.6 46.2467 101.84 47.02L99.34 48.08C99.1133 47.28 98.7667 46.7133 98.3 46.38C97.8333 46.0333 97.2333 45.86 96.5 45.86C95.78 45.86 95.1467 46.0333 94.6 46.38C94.0667 46.7267 93.6533 47.24 93.36 47.92C93.0667 48.5867 92.92 49.4133 92.92 50.4C92.92 51.3733 93.0533 52.2 93.32 52.88C93.6 53.56 94.0067 54.0733 94.54 54.42C95.0733 54.7667 95.7267 54.94 96.5 54.94C97.22 54.94 97.84 54.7467 98.36 54.36C98.8933 53.9733 99.2667 53.3867 99.48 52.6L102.02 53.36ZM108.652 46.8C109.666 46.8 110.552 47.0067 111.312 47.42C112.086 47.8333 112.686 48.4267 113.112 49.2C113.552 49.9733 113.772 50.9067 113.772 52C113.772 53.08 113.552 54.0133 113.112 54.8C112.686 55.5733 112.086 56.1667 111.312 56.58C110.552 56.9933 109.666 57.2 108.652 57.2C107.652 57.2 106.766 56.9933 105.992 56.58C105.219 56.1667 104.612 55.5733 104.172 54.8C103.746 54.0133 103.532 53.08 103.532 52C103.532 50.9067 103.746 49.9733 104.172 49.2C104.612 48.4267 105.219 47.8333 105.992 47.42C106.766 47.0067 107.652 46.8 108.652 46.8ZM108.652 48.84C108.146 48.84 107.712 48.96 107.352 49.2C107.006 49.4267 106.739 49.7733 106.552 50.24C106.366 50.7067 106.272 51.2933 106.272 52C106.272 52.7067 106.366 53.2933 106.552 53.76C106.739 54.2267 107.006 54.58 107.352 54.82C107.712 55.0467 108.146 55.16 108.652 55.16C109.146 55.16 109.566 55.0467 109.912 54.82C110.272 54.58 110.546 54.2267 110.732 53.76C110.919 53.2933 111.012 52.7067 111.012 52C111.012 51.2933 110.919 50.7067 110.732 50.24C110.546 49.7733 110.272 49.4267 109.912 49.2C109.566 48.96 109.146 48.84 108.652 48.84ZM116.065 57V47H118.525L118.685 50L118.345 49.68C118.505 49.0267 118.758 48.4867 119.105 48.06C119.452 47.6333 119.872 47.32 120.365 47.12C120.872 46.9067 121.425 46.8 122.025 46.8C122.718 46.8 123.332 46.9333 123.865 47.2C124.412 47.4667 124.838 47.8733 125.145 48.42C125.465 48.9533 125.625 49.6267 125.625 50.44V57H122.885V51.22C122.885 50.3667 122.718 49.78 122.385 49.46C122.052 49.1267 121.618 48.96 121.085 48.96C120.712 48.96 120.345 49.0533 119.985 49.24C119.638 49.4133 119.352 49.7 119.125 50.1C118.912 50.5 118.805 51.0333 118.805 51.7V57H116.065ZM131.91 43.94V53.74C131.91 54.22 132.03 54.5733 132.27 54.8C132.523 55.0133 132.863 55.12 133.29 55.12C133.623 55.12 133.916 55.0733 134.17 54.98C134.423 54.8733 134.65 54.7333 134.85 54.56L135.29 56.38C134.97 56.6333 134.57 56.8333 134.09 56.98C133.61 57.1267 133.103 57.2 132.57 57.2C131.903 57.2 131.31 57.1 130.79 56.9C130.283 56.7 129.883 56.38 129.59 55.94C129.31 55.5 129.17 54.9133 129.17 54.18V44.7L131.91 43.94ZM135.11 47V49.04H127.33V47H135.11ZM142.761 50.62C142.761 50.0467 142.594 49.6 142.261 49.28C141.941 48.96 141.514 48.8 140.981 48.8C140.488 48.8 140.054 48.9267 139.681 49.18C139.308 49.4333 139.034 49.8533 138.861 50.44L136.521 49.72C136.748 48.84 137.241 48.1333 138.001 47.6C138.774 47.0667 139.808 46.8 141.101 46.8C141.981 46.8 142.748 46.94 143.401 47.22C144.054 47.4867 144.561 47.8933 144.921 48.44C145.294 48.9867 145.481 49.6733 145.481 50.5V54.56C145.481 55.0667 145.721 55.32 146.201 55.32C146.428 55.32 146.641 55.2867 146.841 55.22L146.681 56.92C146.334 57.0933 145.901 57.18 145.381 57.18C144.914 57.18 144.494 57.1 144.121 56.94C143.748 56.78 143.454 56.54 143.241 56.22C143.028 55.8867 142.921 55.4733 142.921 54.98V54.9L143.401 54.82C143.321 55.3267 143.101 55.76 142.741 56.12C142.381 56.4667 141.941 56.7333 141.421 56.92C140.914 57.1067 140.388 57.2 139.841 57.2C139.161 57.2 138.574 57.1 138.081 56.9C137.588 56.6867 137.208 56.38 136.941 55.98C136.674 55.58 136.541 55.0867 136.541 54.5C136.541 53.7533 136.781 53.1467 137.261 52.68C137.741 52.2 138.428 51.8733 139.321 51.7L143.081 50.94L143.061 52.64L140.661 53.12C140.208 53.2133 139.861 53.34 139.621 53.5C139.394 53.6467 139.281 53.8933 139.281 54.24C139.281 54.5733 139.401 54.8267 139.641 55C139.894 55.1733 140.194 55.26 140.541 55.26C140.821 55.26 141.094 55.2267 141.361 55.16C141.628 55.0933 141.868 54.9867 142.081 54.84C142.294 54.6933 142.461 54.4933 142.581 54.24C142.701 53.9867 142.761 53.68 142.761 53.32V50.62ZM149.925 45.56C149.352 45.56 148.925 45.44 148.645 45.2C148.365 44.9467 148.225 44.58 148.225 44.1C148.225 43.6067 148.365 43.24 148.645 43C148.925 42.7467 149.352 42.62 149.925 42.62C150.499 42.62 150.925 42.7467 151.205 43C151.485 43.24 151.625 43.6067 151.625 44.1C151.625 44.58 151.485 44.9467 151.205 45.2C150.925 45.44 150.499 45.56 149.925 45.56ZM151.285 47V57H148.545V47H151.285ZM154.19 57V47H156.65L156.81 50L156.47 49.68C156.63 49.0267 156.883 48.4867 157.23 48.06C157.577 47.6333 157.997 47.32 158.49 47.12C158.997 46.9067 159.55 46.8 160.15 46.8C160.843 46.8 161.457 46.9333 161.99 47.2C162.537 47.4667 162.963 47.8733 163.27 48.42C163.59 48.9533 163.75 49.6267 163.75 50.44V57H161.01V51.22C161.01 50.3667 160.843 49.78 160.51 49.46C160.177 49.1267 159.743 48.96 159.21 48.96C158.837 48.96 158.47 49.0533 158.11 49.24C157.763 49.4133 157.477 49.7 157.25 50.1C157.037 50.5 156.93 51.0333 156.93 51.7V57H154.19ZM171.213 57.2C170.159 57.2 169.239 56.9933 168.453 56.58C167.679 56.1667 167.079 55.5733 166.653 54.8C166.226 54.0267 166.013 53.0933 166.013 52C166.013 50.9067 166.226 49.9733 166.653 49.2C167.079 48.4267 167.673 47.8333 168.433 47.42C169.206 47.0067 170.086 46.8 171.073 46.8C172.086 46.8 172.946 47.0067 173.653 47.42C174.359 47.82 174.899 48.3733 175.273 49.08C175.646 49.7733 175.833 50.5667 175.833 51.46C175.833 51.7267 175.826 51.98 175.813 52.22C175.799 52.46 175.779 52.6733 175.753 52.86H167.773V50.96H174.553L173.233 51.44C173.233 50.6 173.039 49.9533 172.653 49.5C172.279 49.0467 171.746 48.82 171.053 48.82C170.546 48.82 170.106 48.94 169.733 49.18C169.373 49.42 169.099 49.78 168.913 50.26C168.726 50.7267 168.633 51.32 168.633 52.04C168.633 52.7467 168.733 53.3333 168.933 53.8C169.146 54.2533 169.439 54.5933 169.813 54.82C170.199 55.0467 170.659 55.16 171.193 55.16C171.779 55.16 172.253 55.0467 172.613 54.82C172.973 54.5933 173.253 54.28 173.453 53.88L175.633 54.72C175.419 55.24 175.093 55.6867 174.653 56.06C174.226 56.4333 173.713 56.72 173.113 56.92C172.526 57.1067 171.893 57.2 171.213 57.2ZM178.155 57V47H180.535L180.715 48.96C180.982 48.2667 181.368 47.7333 181.875 47.36C182.395 46.9867 183.042 46.8 183.815 46.8C184.042 46.8 184.248 46.82 184.435 46.86C184.622 46.9 184.775 46.9533 184.895 47.02L184.575 49.32C184.442 49.2667 184.275 49.2267 184.075 49.2C183.888 49.1733 183.642 49.16 183.335 49.16C182.935 49.16 182.548 49.26 182.175 49.46C181.802 49.6467 181.495 49.94 181.255 50.34C181.015 50.7267 180.895 51.22 180.895 51.82V57H178.155ZM190.319 57.2C189.306 57.2 188.379 57.02 187.539 56.66C186.712 56.3 186.039 55.7933 185.519 55.14L187.099 53.54C187.419 54.02 187.846 54.4133 188.379 54.72C188.912 55.0267 189.546 55.18 190.279 55.18C190.799 55.18 191.212 55.1067 191.519 54.96C191.839 54.8 191.999 54.5533 191.999 54.22C191.999 54.0067 191.926 53.8267 191.779 53.68C191.632 53.52 191.339 53.3933 190.899 53.3L189.139 52.94C187.979 52.7 187.152 52.34 186.659 51.86C186.179 51.3667 185.939 50.7333 185.939 49.96C185.939 49.4133 186.099 48.9 186.419 48.42C186.752 47.94 187.246 47.5533 187.899 47.26C188.552 46.9533 189.366 46.8 190.339 46.8C191.339 46.8 192.206 46.96 192.939 47.28C193.686 47.5867 194.272 48.0467 194.699 48.66L193.059 50.26C192.766 49.7933 192.379 49.44 191.899 49.2C191.432 48.9467 190.939 48.82 190.419 48.82C190.046 48.82 189.726 48.86 189.459 48.94C189.192 49.02 188.992 49.1333 188.859 49.28C188.726 49.4133 188.659 49.5867 188.659 49.8C188.659 50.0133 188.752 50.2 188.939 50.36C189.126 50.5067 189.466 50.6333 189.959 50.74L191.999 51.16C192.986 51.36 193.692 51.7 194.119 52.18C194.546 52.6467 194.759 53.2133 194.759 53.88C194.759 54.52 194.586 55.0933 194.239 55.6C193.906 56.0933 193.406 56.4867 192.739 56.78C192.086 57.06 191.279 57.2 190.319 57.2Z" fill="#44403C"/>
<g clip-path="url(#clip5_72_745)">
<path d="M78 6H8V76H78V6Z" fill="url(#paint0_linear_72_745)"/>
<path d="M42.8038 66.144C42.6299 66.1474 42.4586 66.1021 42.3091 66.0134L21.0664 53.768C20.9158 53.681 20.7907 53.5559 20.7039 53.4051C20.617 53.2543 20.5714 53.0833 20.5718 52.9094V28.1014C20.5714 27.9274 20.617 27.7564 20.7039 27.6056C20.7907 27.4549 20.9158 27.3297 21.0664 27.2427L40.6011 15.9867C40.7462 15.8852 40.9173 15.827 41.0942 15.8191C41.2711 15.8111 41.4467 15.8536 41.6003 15.9417C41.754 16.0298 41.8794 16.1598 41.9619 16.3165C42.0445 16.4732 42.0807 16.6502 42.0664 16.8267V27.5694C42.0657 27.7361 42.0225 27.8999 41.9409 28.0452C41.8592 28.1906 41.7418 28.3127 41.5998 28.4L31.8278 34V47.0107L42.8318 53.3667L52.4544 47.7667C52.5963 47.6848 52.7573 47.6417 52.9211 47.6417C53.0849 47.6417 53.2459 47.6848 53.3878 47.7667L62.6465 53.0867C62.7971 53.1737 62.9222 53.2989 63.009 53.4496C63.0959 53.6004 63.1414 53.7714 63.1411 53.9454C63.1458 54.1189 63.102 54.2904 63.0146 54.4404C62.9273 54.5905 62.7997 54.7132 62.6465 54.7947L43.2798 65.9947C43.1376 66.0867 42.9731 66.1384 42.8038 66.144ZM22.4664 52.2374L43.3078 64.268L61.1998 53.9267L53.7331 49.624L43.8118 55.3547C43.6565 55.4422 43.4813 55.4882 43.3031 55.4882C43.1249 55.4882 42.9497 55.4422 42.7944 55.3547L30.3998 48.2054C30.2498 48.1199 30.1251 47.9963 30.0383 47.8472C29.9514 47.6981 29.9055 47.5286 29.9051 47.356V33.496C29.9004 33.3225 29.9442 33.151 30.0316 33.001C30.119 32.8509 30.2465 32.7282 30.3998 32.6467L40.1718 27.0467V18.4787L22.4384 28.7454L22.4664 52.2374Z" fill="white"/>
<path d="M64.4104 51.7335C64.2372 51.7312 64.0674 51.6863 63.9157 51.6028L54.6664 46.2548C54.5131 46.1733 54.3855 46.0506 54.2982 45.9006C54.2108 45.7505 54.167 45.5791 54.1717 45.4055V34.1028L44.3997 28.4655C44.2497 28.38 44.125 28.2565 44.0382 28.1073C43.9513 27.9582 43.9054 27.7887 43.905 27.6162V16.8735C43.9012 16.7024 43.9444 16.5336 44.03 16.3855C44.1156 16.2373 44.2402 16.1156 44.3904 16.0335C44.5322 15.9516 44.6932 15.9084 44.857 15.9084C45.0209 15.9084 45.1818 15.9516 45.3237 16.0335L64.933 27.2988C65.083 27.3843 65.2077 27.5079 65.2945 27.657C65.3814 27.8061 65.4273 27.9756 65.4277 28.1482V50.7068C65.428 50.8808 65.3825 51.0518 65.2956 51.2026C65.2088 51.3533 65.0837 51.4785 64.933 51.5655C64.7773 51.6679 64.5966 51.726 64.4104 51.7335ZM56.0664 44.7802L63.533 49.0735V28.7735L45.7997 18.5068V27.0282L55.5997 32.7028C55.753 32.7844 55.8805 32.9071 55.9679 33.0571C56.0553 33.2071 56.0991 33.3786 56.0944 33.5522L56.0664 44.7802Z" fill="white"/>
</g>
<g clip-path="url(#clip6_72_745)">
<path d="M445 246.12H355C354.47 246.12 353.961 245.909 353.586 245.534C353.211 245.159 353 244.65 353 244.12V187.88C353 187.349 353.211 186.841 353.586 186.466C353.961 186.091 354.47 185.88 355 185.88H445C445.53 185.88 446.039 186.091 446.414 186.466C446.789 186.841 447 187.349 447 187.88V244.12C447 244.65 446.789 245.159 446.414 245.534C446.039 245.909 445.53 246.12 445 246.12ZM357 242.12H443V189.88H357V242.12Z" fill="#D86613"/>
<path d="M366.38 195.38H362.38V236.64H366.38V195.38Z" fill="#D86613"/>
<path d="M377.62 195.38H373.62V236.64H377.62V195.38Z" fill="#D86613"/>
<path d="M426.38 195.38H422.38V236.64H426.38V195.38Z" fill="#D86613"/>
<path d="M437.62 195.38H433.62V236.64H437.62V195.38Z" fill="#D86613"/>
<path d="M411.74 231.12H388.26C387.363 231.12 386.504 230.764 385.87 230.13C385.236 229.496 384.88 228.636 384.88 227.74V204.26C384.88 203.363 385.236 202.504 385.87 201.87C386.504 201.236 387.363 200.88 388.26 200.88H411.74C412.636 200.88 413.496 201.236 414.13 201.87C414.764 202.504 415.12 203.363 415.12 204.26V227.74C415.12 228.636 414.764 229.496 414.13 230.13C413.496 230.764 412.636 231.12 411.74 231.12ZM388.88 227.12H411.12V204.88H388.88V227.12Z" fill="#D86613"/>
<path d="M390.76 197.26H386.76V202.88H390.76V197.26Z" fill="#D86613"/>
<path d="M398.26 197.26H394.26V202.88H398.26V197.26Z" fill="#D86613"/>
<path d="M405.76 197.26H401.76V202.88H405.76V197.26Z" fill="#D86613"/>
<path d="M413.26 197.26H409.26V202.88H413.26V197.26Z" fill="#D86613"/>
<path d="M390.76 229.12H386.76V234.74H390.76V229.12Z" fill="#D86613"/>
<path d="M398.26 229.12H394.26V234.74H398.26V229.12Z" fill="#D86613"/>
<path d="M405.76 229.12H401.76V234.74H405.76V229.12Z" fill="#D86613"/>
<path d="M413.26 229.12H409.26V234.74H413.26V229.12Z" fill="#D86613"/>
<path d="M386.88 202.76H381.26V206.76H386.88V202.76Z" fill="#D86613"/>
<path d="M386.88 210.26H381.26V214.26H386.88V210.26Z" fill="#D86613"/>
<path d="M386.88 217.76H381.26V221.76H386.88V217.76Z" fill="#D86613"/>
<path d="M386.88 225.26H381.26V229.26H386.88V225.26Z" fill="#D86613"/>
<path d="M418.74 202.76H413.12V206.76H418.74V202.76Z" fill="#D86613"/>
<path d="M418.74 210.26H413.12V214.26H418.74V210.26Z" fill="#D86613"/>
<path d="M418.74 217.76H413.12V221.76H418.74V217.76Z" fill="#D86613"/>
<path d="M418.74 225.26H413.12V229.26H418.74V225.26Z" fill="#D86613"/>
</g>
<path d="M360.101 269V255.8H365.881C367.481 255.8 368.661 256.113 369.421 256.74C370.181 257.367 370.561 258.253 370.561 259.4C370.561 260.107 370.348 260.733 369.921 261.28C369.494 261.827 368.868 262.173 368.041 262.32V262.34C368.961 262.473 369.668 262.82 370.161 263.38C370.654 263.94 370.901 264.607 370.901 265.38C370.901 266.513 370.488 267.4 369.661 268.04C368.848 268.68 367.654 269 366.081 269H360.101ZM362.781 266.92H365.841C366.588 266.92 367.141 266.767 367.501 266.46C367.861 266.153 368.041 265.727 368.041 265.18C368.041 264.62 367.861 264.193 367.501 263.9C367.141 263.607 366.588 263.46 365.841 263.46H362.781V266.92ZM362.781 261.34H365.521C366.974 261.34 367.701 260.773 367.701 259.64C367.701 258.507 366.974 257.94 365.521 257.94H362.781V261.34ZM378.958 262.62C378.958 262.047 378.792 261.6 378.458 261.28C378.138 260.96 377.712 260.8 377.178 260.8C376.685 260.8 376.252 260.927 375.878 261.18C375.505 261.433 375.232 261.853 375.058 262.44L372.718 261.72C372.945 260.84 373.438 260.133 374.198 259.6C374.972 259.067 376.005 258.8 377.298 258.8C378.178 258.8 378.945 258.94 379.598 259.22C380.252 259.487 380.758 259.893 381.118 260.44C381.492 260.987 381.678 261.673 381.678 262.5V266.56C381.678 267.067 381.918 267.32 382.398 267.32C382.625 267.32 382.838 267.287 383.038 267.22L382.878 268.92C382.532 269.093 382.098 269.18 381.578 269.18C381.112 269.18 380.692 269.1 380.318 268.94C379.945 268.78 379.652 268.54 379.438 268.22C379.225 267.887 379.118 267.473 379.118 266.98V266.9L379.598 266.82C379.518 267.327 379.298 267.76 378.938 268.12C378.578 268.467 378.138 268.733 377.618 268.92C377.112 269.107 376.585 269.2 376.038 269.2C375.358 269.2 374.772 269.1 374.278 268.9C373.785 268.687 373.405 268.38 373.138 267.98C372.872 267.58 372.738 267.087 372.738 266.5C372.738 265.753 372.978 265.147 373.458 264.68C373.938 264.2 374.625 263.873 375.518 263.7L379.278 262.94L379.258 264.64L376.858 265.12C376.405 265.213 376.058 265.34 375.818 265.5C375.592 265.647 375.478 265.893 375.478 266.24C375.478 266.573 375.598 266.827 375.838 267C376.092 267.173 376.392 267.26 376.738 267.26C377.018 267.26 377.292 267.227 377.558 267.16C377.825 267.093 378.065 266.987 378.278 266.84C378.492 266.693 378.658 266.493 378.778 266.24C378.898 265.987 378.958 265.68 378.958 265.32V262.62ZM389.244 258.8C390.137 258.8 390.89 258.933 391.504 259.2C392.13 259.453 392.63 259.807 393.004 260.26C393.39 260.7 393.664 261.193 393.824 261.74L391.264 262.66C391.13 262.06 390.904 261.607 390.584 261.3C390.264 260.993 389.83 260.84 389.284 260.84C388.777 260.84 388.344 260.96 387.984 261.2C387.624 261.427 387.35 261.78 387.164 262.26C386.977 262.727 386.884 263.313 386.884 264.02C386.884 264.727 386.977 265.313 387.164 265.78C387.364 266.247 387.644 266.593 388.004 266.82C388.377 267.047 388.81 267.16 389.304 267.16C389.704 267.16 390.044 267.093 390.324 266.96C390.604 266.813 390.83 266.607 391.004 266.34C391.19 266.073 391.317 265.753 391.384 265.38L393.864 266.18C393.717 266.78 393.444 267.307 393.044 267.76C392.644 268.213 392.13 268.567 391.504 268.82C390.877 269.073 390.15 269.2 389.324 269.2C388.297 269.2 387.39 268.993 386.604 268.58C385.817 268.167 385.21 267.573 384.784 266.8C384.357 266.027 384.144 265.093 384.144 264C384.144 262.907 384.357 261.973 384.784 261.2C385.21 260.427 385.81 259.833 386.584 259.42C387.357 259.007 388.244 258.8 389.244 258.8ZM406.173 259L401.553 263.82L401.013 264.08L398.013 267.3L397.973 264.38L403.053 259H406.173ZM398.733 254.62V269H395.993V254.62H398.733ZM401.933 262.18L406.413 269H403.313L400.053 263.78L401.933 262.18ZM412.195 269.2C411.142 269.2 410.222 268.993 409.435 268.58C408.662 268.167 408.062 267.573 407.635 266.8C407.209 266.027 406.995 265.093 406.995 264C406.995 262.907 407.209 261.973 407.635 261.2C408.062 260.427 408.655 259.833 409.415 259.42C410.189 259.007 411.069 258.8 412.055 258.8C413.069 258.8 413.929 259.007 414.635 259.42C415.342 259.82 415.882 260.373 416.255 261.08C416.629 261.773 416.815 262.567 416.815 263.46C416.815 263.727 416.809 263.98 416.795 264.22C416.782 264.46 416.762 264.673 416.735 264.86H408.755V262.96H415.535L414.215 263.44C414.215 262.6 414.022 261.953 413.635 261.5C413.262 261.047 412.729 260.82 412.035 260.82C411.529 260.82 411.089 260.94 410.715 261.18C410.355 261.42 410.082 261.78 409.895 262.26C409.709 262.727 409.615 263.32 409.615 264.04C409.615 264.747 409.715 265.333 409.915 265.8C410.129 266.253 410.422 266.593 410.795 266.82C411.182 267.047 411.642 267.16 412.175 267.16C412.762 267.16 413.235 267.047 413.595 266.82C413.955 266.593 414.235 266.28 414.435 265.88L416.615 266.72C416.402 267.24 416.075 267.687 415.635 268.06C415.209 268.433 414.695 268.72 414.095 268.92C413.509 269.107 412.875 269.2 412.195 269.2ZM419.137 269V259H421.597L421.757 262L421.417 261.68C421.577 261.027 421.831 260.487 422.177 260.06C422.524 259.633 422.944 259.32 423.437 259.12C423.944 258.907 424.497 258.8 425.097 258.8C425.791 258.8 426.404 258.933 426.937 259.2C427.484 259.467 427.911 259.873 428.217 260.42C428.537 260.953 428.697 261.627 428.697 262.44V269H425.957V263.22C425.957 262.367 425.791 261.78 425.457 261.46C425.124 261.127 424.691 260.96 424.157 260.96C423.784 260.96 423.417 261.053 423.057 261.24C422.711 261.413 422.424 261.7 422.197 262.1C421.984 262.5 421.877 263.033 421.877 263.7V269H419.137ZM435.3 269.2C434.473 269.2 433.733 268.993 433.08 268.58C432.44 268.167 431.933 267.573 431.56 266.8C431.2 266.027 431.02 265.1 431.02 264.02C431.02 262.913 431.213 261.973 431.6 261.2C431.987 260.413 432.507 259.82 433.16 259.42C433.827 259.007 434.573 258.8 435.4 258.8C436.28 258.8 437.007 259.053 437.58 259.56C438.153 260.067 438.527 260.72 438.7 261.52L438.44 261.84V254.62H441.18V269H438.72L438.54 265.96L438.88 266.12C438.787 266.747 438.573 267.293 438.24 267.76C437.907 268.213 437.487 268.567 436.98 268.82C436.473 269.073 435.913 269.2 435.3 269.2ZM436.1 267.1C436.58 267.1 436.993 266.98 437.34 266.74C437.687 266.487 437.953 266.12 438.14 265.64C438.34 265.16 438.44 264.587 438.44 263.92C438.44 263.28 438.347 262.74 438.16 262.3C437.973 261.847 437.707 261.5 437.36 261.26C437.013 261.02 436.607 260.9 436.14 260.9C435.393 260.9 434.807 261.167 434.38 261.7C433.967 262.22 433.76 262.987 433.76 264C433.76 265.013 433.967 265.787 434.38 266.32C434.793 266.84 435.367 267.1 436.1 267.1Z" fill="#44403C"/>
<path d="M349.707 216.707C350.098 216.317 350.098 215.683 349.707 215.293L343.343 208.929C342.953 208.538 342.319 208.538 341.929 208.929C341.538 209.319 341.538 209.953 341.929 210.343L347.586 216L341.929 221.657C341.538 222.047 341.538 222.681 341.929 223.071C342.319 223.462 342.953 223.462 343.343 223.071L349.707 216.707ZM158 129.5H230V127.5H158V129.5ZM253 152.5V192H255V152.5H253ZM278 217H349V215H278V217ZM253 192C253 205.807 264.193 217 278 217V215C265.297 215 255 204.703 255 192H253ZM230 129.5C242.703 129.5 253 139.797 253 152.5H255C255 138.693 243.807 127.5 230 127.5V129.5Z" fill="#A8A29E"/>
<path d="M650.707 72.7071C651.098 72.3166 651.098 71.6834 650.707 71.2929L644.343 64.9289C643.953 64.5384 643.319 64.5384 642.929 64.9289C642.538 65.3195 642.538 65.9526 642.929 66.3431L648.586 72L642.929 77.6569C642.538 78.0474 642.538 78.6805 642.929 79.0711C643.319 79.4616 643.953 79.4616 644.343 79.0711L650.707 72.7071ZM451 217H491V215H451V217ZM516 192V96H514V192H516ZM539 73H650V71H539V73ZM516 96C516 83.2975 526.297 73 539 73V71C525.193 71 514 82.1929 514 96H516ZM491 217C504.807 217 516 205.807 516 192H514C514 204.703 503.703 215 491 215V217Z" fill="#A8A29E"/>
<path d="M577.707 264.707C578.098 264.317 578.098 263.683 577.707 263.293L571.343 256.929C570.953 256.538 570.319 256.538 569.929 256.929C569.538 257.319 569.538 257.953 569.929 258.343L575.586 264L569.929 269.657C569.538 270.047 569.538 270.681 569.929 271.071C570.319 271.462 570.953 271.462 571.343 271.071L577.707 264.707ZM451 217H489V215H451V217ZM537 265H577V263H537V265ZM512 240C512 253.807 523.193 265 537 265V263C524.297 263 514 252.703 514 240H512ZM489 217C501.703 217 512 227.297 512 240H514C514 226.193 502.807 215 489 215V217Z" fill="#A8A29E"/>
<path d="M349.707 216.707C350.098 216.317 350.098 215.683 349.707 215.293L343.343 208.929C342.953 208.538 342.319 208.538 341.929 208.929C341.538 209.319 341.538 209.953 341.929 210.343L347.586 216L341.929 221.657C341.538 222.047 341.538 222.681 341.929 223.071C342.319 223.462 342.953 223.462 343.343 223.071L349.707 216.707ZM158 217H349V215H158V217Z" fill="#A8A29E"/>
<path d="M349.707 216.707C350.098 216.317 350.098 215.683 349.707 215.293L343.343 208.929C342.953 208.538 342.319 208.538 341.929 208.929C341.538 209.319 341.538 209.953 341.929 210.343L347.586 216L341.929 221.657C341.538 222.047 341.538 222.681 341.929 223.071C342.319 223.462 342.953 223.462 343.343 223.071L349.707 216.707ZM158 303.5H250V301.5H158V303.5ZM275 278.5V240H273V278.5H275ZM298 217H349V215H298V217ZM275 240C275 227.297 285.297 217 298 217V215C284.193 215 273 226.193 273 240H275ZM250 303.5C263.807 303.5 275 292.307 275 278.5H273C273 291.203 262.703 301.5 250 301.5V303.5Z" fill="#A8A29E"/>
<defs>
<linearGradient id="paint0_linear_72_745" x1="-6.49747" y1="90.4947" x2="92.4975" y2="-8.50028" gradientUnits="userSpaceOnUse">
<stop stop-color="#C8511B"/>
<stop offset="1" stop-color="#FF9900"/>
</linearGradient>
<clipPath id="clip0_72_745">
<rect width="87.3239" height="100" fill="white" transform="translate(760 213)"/>
</clipPath>
<clipPath id="clip1_72_745">
<rect width="100" height="100" fill="white" transform="translate(581 214)"/>
</clipPath>
<clipPath id="clip2_72_745">
<rect width="76" height="55" fill="white" transform="matrix(-1 0 0 1 154 101)"/>
</clipPath>
<clipPath id="clip3_72_745">
<rect width="76" height="55" fill="white" transform="matrix(-1 0 0 1 154 188)"/>
</clipPath>
<clipPath id="clip4_72_745">
<rect width="76" height="55" fill="white" transform="matrix(-1 0 0 1 154 275)"/>
</clipPath>
<clipPath id="clip5_72_745">
<path d="M8 14C8 9.58172 11.5817 6 16 6H78V76H8V14Z" fill="white"/>
</clipPath>
<clipPath id="clip6_72_745">
<rect width="94" height="62" fill="white" transform="translate(353 185)"/>
</clipPath>
</defs>
</svg>
