<svg width="560" height="606" viewBox="0 0 560 606" fill="none" xmlns="http://www.w3.org/2000/svg">
<rect width="560" height="606" fill="white"/>
<rect x="12.5" y="189.5" width="536" height="96" rx="7.5" stroke="#A8A29E"/>
<rect x="13.75" y="35.75" width="394.5" height="84.5" rx="7.25" fill="#FAFAF9" stroke="#A3A3A3" stroke-width="1.5" stroke-dasharray="6 6"/>
<rect x="41" y="210" width="78" height="55" rx="10" fill="#D1FAE5"/>
<path d="M86.471 244H83.611L82.511 240.78H77.451L76.351 244H73.531L78.351 230.8H81.651L86.471 244ZM78.071 238.74H81.891L79.971 232.98L78.071 238.74Z" fill="#047857"/>
<rect x="172" y="210" width="78" height="55" rx="10" fill="#FAE8FF"/>
<path d="M206.001 244V230.8H211.781C213.381 230.8 214.561 231.113 215.321 231.74C216.081 232.367 216.461 233.253 216.461 234.4C216.461 235.107 216.248 235.733 215.821 236.28C215.395 236.827 214.768 237.173 213.941 237.32V237.34C214.861 237.473 215.568 237.82 216.061 238.38C216.555 238.94 216.801 239.607 216.801 240.38C216.801 241.513 216.388 242.4 215.561 243.04C214.748 243.68 213.555 244 211.981 244H206.001ZM208.681 241.92H211.741C212.488 241.92 213.041 241.767 213.401 241.46C213.761 241.153 213.941 240.727 213.941 240.18C213.941 239.62 213.761 239.193 213.401 238.9C213.041 238.607 212.488 238.46 211.741 238.46H208.681V241.92ZM208.681 236.34H211.421C212.875 236.34 213.601 235.773 213.601 234.64C213.601 233.507 212.875 232.94 211.421 232.94H208.681V236.34Z" fill="#86198F"/>
<path d="M168.707 238.207C169.098 237.817 169.098 237.183 168.707 236.793L162.343 230.429C161.953 230.038 161.319 230.038 160.929 230.429C160.538 230.819 160.538 231.453 160.929 231.843L166.586 237.5L160.929 243.157C160.538 243.547 160.538 244.181 160.929 244.571C161.319 244.962 161.953 244.962 162.343 244.571L168.707 238.207ZM123 238.5H168V236.5H123V238.5Z" fill="#A8A29E"/>
<rect x="303" y="210" width="78" height="55" rx="10" fill="#FEF3C7"/>
<path d="M348.194 240.36C347.94 241.213 347.54 241.927 346.994 242.5C346.447 243.073 345.8 243.5 345.054 243.78C344.307 244.06 343.487 244.2 342.594 244.2C341.287 244.2 340.154 243.927 339.194 243.38C338.247 242.833 337.514 242.053 336.994 241.04C336.487 240.027 336.234 238.813 336.234 237.4C336.234 235.987 336.487 234.773 336.994 233.76C337.514 232.747 338.247 231.967 339.194 231.42C340.154 230.873 341.274 230.6 342.554 230.6C343.46 230.6 344.28 230.727 345.014 230.98C345.747 231.22 346.367 231.593 346.874 232.1C347.394 232.607 347.774 233.247 348.014 234.02L345.514 235.08C345.287 234.28 344.94 233.713 344.474 233.38C344.007 233.033 343.407 232.86 342.674 232.86C341.954 232.86 341.32 233.033 340.774 233.38C340.24 233.727 339.827 234.24 339.534 234.92C339.24 235.587 339.094 236.413 339.094 237.4C339.094 238.373 339.227 239.2 339.494 239.88C339.774 240.56 340.18 241.073 340.714 241.42C341.247 241.767 341.9 241.94 342.674 241.94C343.394 241.94 344.014 241.747 344.534 241.36C345.067 240.973 345.44 240.387 345.654 239.6L348.194 240.36Z" fill="#B45309"/>
<path d="M299.707 238.207C300.098 237.817 300.098 237.183 299.707 236.793L293.343 230.429C292.953 230.038 292.319 230.038 291.929 230.429C291.538 230.819 291.538 231.453 291.929 231.843L297.586 237.5L291.929 243.157C291.538 243.547 291.538 244.181 291.929 244.571C292.319 244.962 292.953 244.962 293.343 244.571L299.707 238.207ZM254 238.5H299V236.5H254V238.5Z" fill="#A8A29E"/>
<rect x="41.75" y="210.75" width="76.5" height="53.5" rx="9.25" fill="#DCFCE7"/>
<path d="M86.471 244H83.611L82.511 240.78H77.451L76.351 244H73.531L78.351 230.8H81.651L86.471 244ZM78.071 238.74H81.891L79.971 232.98L78.071 238.74Z" fill="#15803D"/>
<rect x="41.75" y="210.75" width="76.5" height="53.5" rx="9.25" stroke="#16A34A" stroke-width="1.5"/>
<rect x="172.75" y="210.75" width="76.5" height="53.5" rx="9.25" fill="#E0E7FF"/>
<path d="M206.001 244V230.8H211.781C213.381 230.8 214.561 231.113 215.321 231.74C216.081 232.367 216.461 233.253 216.461 234.4C216.461 235.107 216.248 235.733 215.821 236.28C215.395 236.827 214.768 237.173 213.941 237.32V237.34C214.861 237.473 215.568 237.82 216.061 238.38C216.555 238.94 216.801 239.607 216.801 240.38C216.801 241.513 216.388 242.4 215.561 243.04C214.748 243.68 213.555 244 211.981 244H206.001ZM208.681 241.92H211.741C212.488 241.92 213.041 241.767 213.401 241.46C213.761 241.153 213.941 240.727 213.941 240.18C213.941 239.62 213.761 239.193 213.401 238.9C213.041 238.607 212.488 238.46 211.741 238.46H208.681V241.92ZM208.681 236.34H211.421C212.875 236.34 213.601 235.773 213.601 234.64C213.601 233.507 212.875 232.94 211.421 232.94H208.681V236.34Z" fill="#4338CA"/>
<rect x="172.75" y="210.75" width="76.5" height="53.5" rx="9.25" stroke="#4F46E5" stroke-width="1.5"/>
<rect x="303.75" y="210.75" width="76.5" height="53.5" rx="9.25" fill="#F5F5F4"/>
<path d="M348.194 240.36C347.94 241.213 347.54 241.927 346.994 242.5C346.447 243.073 345.8 243.5 345.054 243.78C344.307 244.06 343.487 244.2 342.594 244.2C341.287 244.2 340.154 243.927 339.194 243.38C338.247 242.833 337.514 242.053 336.994 241.04C336.487 240.027 336.234 238.813 336.234 237.4C336.234 235.987 336.487 234.773 336.994 233.76C337.514 232.747 338.247 231.967 339.194 231.42C340.154 230.873 341.274 230.6 342.554 230.6C343.46 230.6 344.28 230.727 345.014 230.98C345.747 231.22 346.367 231.593 346.874 232.1C347.394 232.607 347.774 233.247 348.014 234.02L345.514 235.08C345.287 234.28 344.94 233.713 344.474 233.38C344.007 233.033 343.407 232.86 342.674 232.86C341.954 232.86 341.32 233.033 340.774 233.38C340.24 233.727 339.827 234.24 339.534 234.92C339.24 235.587 339.094 236.413 339.094 237.4C339.094 238.373 339.227 239.2 339.494 239.88C339.774 240.56 340.18 241.073 340.714 241.42C341.247 241.767 341.9 241.94 342.674 241.94C343.394 241.94 344.014 241.747 344.534 241.36C345.067 240.973 345.44 240.387 345.654 239.6L348.194 240.36Z" fill="#A8A29E"/>
<rect x="303.75" y="210.75" width="76.5" height="53.5" rx="9.25" stroke="#A8A29E" stroke-width="1.5"/>
<rect x="434.75" y="210.75" width="77.5" height="53.5" rx="9.25" fill="#F5F5F4"/>
<path d="M473.133 230.8C475.199 230.8 476.799 231.373 477.933 232.52C479.066 233.653 479.633 235.28 479.633 237.4C479.633 239.507 479.066 241.133 477.933 242.28C476.799 243.427 475.199 244 473.133 244H468.033V230.8H473.133ZM472.993 241.8C474.246 241.8 475.186 241.427 475.813 240.68C476.453 239.92 476.773 238.827 476.773 237.4C476.773 235.973 476.453 234.887 475.813 234.14C475.186 233.38 474.246 233 472.993 233H470.793V241.8H472.993Z" fill="#A8A29E"/>
<rect x="434.75" y="210.75" width="77.5" height="53.5" rx="9.25" stroke="#A8A29E" stroke-width="1.5"/>
<path d="M430.707 238.207C431.098 237.817 431.098 237.183 430.707 236.793L424.343 230.429C423.953 230.038 423.319 230.038 422.929 230.429C422.538 230.819 422.538 231.453 422.929 231.843L428.586 237.5L422.929 243.157C422.538 243.547 422.538 244.181 422.929 244.571C423.319 244.962 423.953 244.962 424.343 244.571L430.707 238.207ZM385 238.5H430V236.5H385V238.5Z" fill="#A8A29E"/>
<path d="M19.26 165.8C20.2733 165.8 21.14 165.973 21.86 166.32C22.58 166.653 23.1333 167.14 23.52 167.78C23.92 168.407 24.12 169.167 24.12 170.06C24.12 170.953 23.92 171.72 23.52 172.36C23.1333 172.987 22.58 173.473 21.86 173.82C21.14 174.153 20.2733 174.32 19.26 174.32H16.48V179H13.72V165.8H19.26ZM18.84 172.14C19.6667 172.14 20.2867 171.967 20.7 171.62C21.1133 171.26 21.32 170.74 21.32 170.06C21.32 169.367 21.1133 168.847 20.7 168.5C20.2867 168.153 19.6667 167.98 18.84 167.98H16.48V172.14H18.84ZM28.1497 167.56C27.5764 167.56 27.1497 167.44 26.8697 167.2C26.5897 166.947 26.4497 166.58 26.4497 166.1C26.4497 165.607 26.5897 165.24 26.8697 165C27.1497 164.747 27.5764 164.62 28.1497 164.62C28.723 164.62 29.1497 164.747 29.4297 165C29.7097 165.24 29.8497 165.607 29.8497 166.1C29.8497 166.58 29.7097 166.947 29.4297 167.2C29.1497 167.44 28.723 167.56 28.1497 167.56ZM29.5097 169V179H26.7697V169H29.5097ZM32.8142 183.2V169H35.2742L35.4542 172.18L35.1142 171.82C35.2342 171.233 35.4542 170.713 35.7742 170.26C36.1076 169.807 36.5276 169.453 37.0342 169.2C37.5409 168.933 38.1076 168.8 38.7342 168.8C39.5476 168.8 40.2742 169.007 40.9142 169.42C41.5542 169.833 42.0542 170.427 42.4142 171.2C42.7876 171.96 42.9742 172.887 42.9742 173.98C42.9742 175.073 42.7876 176.013 42.4142 176.8C42.0409 177.573 41.5276 178.167 40.8742 178.58C40.2342 178.993 39.5009 179.2 38.6742 179.2C37.7942 179.2 37.0609 178.953 36.4742 178.46C35.9009 177.967 35.5076 177.347 35.2942 176.6L35.5542 176.18V183.2H32.8142ZM37.8742 177.1C38.6076 177.1 39.1809 176.84 39.5942 176.32C40.0209 175.787 40.2342 175.013 40.2342 174C40.2342 172.987 40.0276 172.22 39.6142 171.7C39.2142 171.167 38.6476 170.9 37.9142 170.9C37.4476 170.9 37.0342 171.027 36.6742 171.28C36.3276 171.52 36.0542 171.873 35.8542 172.34C35.6542 172.793 35.5542 173.347 35.5542 174C35.5542 174.64 35.6476 175.193 35.8342 175.66C36.0209 176.127 36.2876 176.487 36.6342 176.74C36.9942 176.98 37.4076 177.1 37.8742 177.1ZM50.3933 179.2C49.3399 179.2 48.4199 178.993 47.6333 178.58C46.8599 178.167 46.2599 177.573 45.8333 176.8C45.4066 176.027 45.1933 175.093 45.1933 174C45.1933 172.907 45.4066 171.973 45.8333 171.2C46.2599 170.427 46.8533 169.833 47.6133 169.42C48.3866 169.007 49.2666 168.8 50.2533 168.8C51.2666 168.8 52.1266 169.007 52.8333 169.42C53.5399 169.82 54.0799 170.373 54.4533 171.08C54.8266 171.773 55.0133 172.567 55.0133 173.46C55.0133 173.727 55.0066 173.98 54.9933 174.22C54.9799 174.46 54.9599 174.673 54.9333 174.86H46.9533V172.96H53.7333L52.4133 173.44C52.4133 172.6 52.2199 171.953 51.8333 171.5C51.4599 171.047 50.9266 170.82 50.2333 170.82C49.7266 170.82 49.2866 170.94 48.9133 171.18C48.5533 171.42 48.2799 171.78 48.0933 172.26C47.9066 172.727 47.8133 173.32 47.8133 174.04C47.8133 174.747 47.9133 175.333 48.1133 175.8C48.3266 176.253 48.6199 176.593 48.9933 176.82C49.3799 177.047 49.8399 177.16 50.3733 177.16C50.9599 177.16 51.4333 177.047 51.7933 176.82C52.1533 176.593 52.4333 176.28 52.6333 175.88L54.8133 176.72C54.5999 177.24 54.2733 177.687 53.8333 178.06C53.4066 178.433 52.8933 178.72 52.2933 178.92C51.7066 179.107 51.0733 179.2 50.3933 179.2ZM60.4353 164.62V175.92C60.4353 176.387 60.5153 176.713 60.6753 176.9C60.8353 177.087 61.102 177.18 61.4753 177.18C61.702 177.18 61.8886 177.167 62.0353 177.14C62.182 177.1 62.3686 177.047 62.5953 176.98L62.3553 178.78C62.1286 178.913 61.842 179.013 61.4953 179.08C61.162 179.16 60.8286 179.2 60.4953 179.2C59.522 179.2 58.8086 178.967 58.3553 178.5C57.9153 178.02 57.6953 177.26 57.6953 176.22V164.62H60.4353ZM65.902 167.56C65.3287 167.56 64.902 167.44 64.622 167.2C64.342 166.947 64.202 166.58 64.202 166.1C64.202 165.607 64.342 165.24 64.622 165C64.902 164.747 65.3287 164.62 65.902 164.62C66.4754 164.62 66.902 164.747 67.182 165C67.462 165.24 67.602 165.607 67.602 166.1C67.602 166.58 67.462 166.947 67.182 167.2C66.902 167.44 66.4754 167.56 65.902 167.56ZM67.262 169V179H64.522V169H67.262ZM70.5666 179V169H73.0266L73.1866 172L72.8466 171.68C73.0066 171.027 73.2599 170.487 73.6066 170.06C73.9532 169.633 74.3732 169.32 74.8666 169.12C75.3732 168.907 75.9266 168.8 76.5266 168.8C77.2199 168.8 77.8332 168.933 78.3666 169.2C78.9132 169.467 79.3399 169.873 79.6466 170.42C79.9666 170.953 80.1266 171.627 80.1266 172.44V179H77.3866V173.22C77.3866 172.367 77.2199 171.78 76.8866 171.46C76.5532 171.127 76.1199 170.96 75.5866 170.96C75.2132 170.96 74.8466 171.053 74.4866 171.24C74.1399 171.413 73.8532 171.7 73.6266 172.1C73.4132 172.5 73.3066 173.033 73.3066 173.7V179H70.5666ZM87.9894 179.2C86.936 179.2 86.016 178.993 85.2294 178.58C84.456 178.167 83.856 177.573 83.4294 176.8C83.0027 176.027 82.7894 175.093 82.7894 174C82.7894 172.907 83.0027 171.973 83.4294 171.2C83.856 170.427 84.4494 169.833 85.2094 169.42C85.9827 169.007 86.8627 168.8 87.8494 168.8C88.8627 168.8 89.7227 169.007 90.4294 169.42C91.136 169.82 91.676 170.373 92.0494 171.08C92.4227 171.773 92.6094 172.567 92.6094 173.46C92.6094 173.727 92.6027 173.98 92.5894 174.22C92.576 174.46 92.556 174.673 92.5294 174.86H84.5494V172.96H91.3294L90.0094 173.44C90.0094 172.6 89.816 171.953 89.4294 171.5C89.056 171.047 88.5227 170.82 87.8294 170.82C87.3227 170.82 86.8827 170.94 86.5094 171.18C86.1494 171.42 85.876 171.78 85.6894 172.26C85.5027 172.727 85.4094 173.32 85.4094 174.04C85.4094 174.747 85.5094 175.333 85.7094 175.8C85.9227 176.253 86.216 176.593 86.5894 176.82C86.976 177.047 87.436 177.16 87.9694 177.16C88.556 177.16 89.0294 177.047 89.3894 176.82C89.7494 176.593 90.0294 176.28 90.2294 175.88L92.4094 176.72C92.196 177.24 91.8694 177.687 91.4294 178.06C91.0027 178.433 90.4894 178.72 89.8894 178.92C89.3027 179.107 88.6694 179.2 87.9894 179.2ZM104.11 179V170.64C104.11 170.333 104.11 170.02 104.11 169.7C104.124 169.367 104.137 169.027 104.15 168.68C103.697 169.093 103.19 169.453 102.63 169.76C102.07 170.067 101.497 170.28 100.91 170.4L100.55 168.08C100.857 168.053 101.197 167.967 101.57 167.82C101.957 167.66 102.344 167.473 102.73 167.26C103.13 167.033 103.49 166.8 103.81 166.56C104.144 166.307 104.397 166.053 104.57 165.8H106.81V179H104.11Z" fill="#44403C"/>
<path d="M18.54 12.6C19.74 12.6 20.7933 12.8067 21.7 13.22C22.6067 13.6333 23.38 14.2467 24.02 15.06L22.48 16.84C21.9333 16.1467 21.3333 15.64 20.68 15.32C20.04 14.9867 19.2933 14.82 18.44 14.82C17.88 14.82 17.4133 14.8933 17.04 15.04C16.68 15.1867 16.4133 15.38 16.24 15.62C16.08 15.86 16 16.1267 16 16.42C16 16.78 16.14 17.0867 16.42 17.34C16.7 17.58 17.18 17.78 17.86 17.94L20.32 18.5C21.6267 18.7933 22.56 19.2333 23.12 19.82C23.6933 20.3933 23.98 21.14 23.98 22.06C23.98 22.9267 23.7533 23.6733 23.3 24.3C22.8467 24.9133 22.2133 25.3867 21.4 25.72C20.5867 26.04 19.6533 26.2 18.6 26.2C17.68 26.2 16.8333 26.0933 16.06 25.88C15.3 25.6533 14.62 25.3467 14.02 24.96C13.42 24.5733 12.92 24.1267 12.52 23.62L14.08 21.76C14.3867 22.1867 14.7667 22.5667 15.22 22.9C15.6733 23.2333 16.1867 23.5 16.76 23.7C17.3467 23.8867 17.96 23.98 18.6 23.98C19.1467 23.98 19.6067 23.92 19.98 23.8C20.3667 23.6667 20.6533 23.4867 20.84 23.26C21.04 23.02 21.14 22.7333 21.14 22.4C21.14 22.0533 21.02 21.76 20.78 21.52C20.5533 21.2667 20.1267 21.0733 19.5 20.94L16.82 20.34C16.0467 20.1533 15.38 19.9133 14.82 19.62C14.2733 19.3133 13.8533 18.9267 13.56 18.46C13.28 17.98 13.14 17.4133 13.14 16.76C13.14 15.9733 13.3533 15.2667 13.78 14.64C14.2067 14.0133 14.82 13.52 15.62 13.16C16.4333 12.7867 17.4067 12.6 18.54 12.6ZM38.3311 12.8V26H35.5711V12.8H38.3311ZM29.7511 12.8V26H26.9911V12.8H29.7511ZM37.0111 18.22V20.44H28.3711V18.22H37.0111ZM53.6363 26H50.7762L49.6762 22.78H44.6162L43.5162 26H40.6962L45.5162 12.8H48.8162L53.6363 26ZM45.2362 20.74H49.0562L47.1362 14.98L45.2362 20.74ZM61.8142 12.8C63.3076 12.8 64.4809 13.16 65.3342 13.88C66.1876 14.6 66.6142 15.5667 66.6142 16.78C66.6142 18.0733 66.1876 19.0667 65.3342 19.76C64.4809 20.44 63.3142 20.78 61.8342 20.78L61.5542 20.94H58.7142V26H55.9942V12.8H61.8142ZM61.4942 18.84C62.2676 18.84 62.8409 18.6867 63.2142 18.38C63.6009 18.06 63.7942 17.5733 63.7942 16.92C63.7942 16.2667 63.6009 15.7867 63.2142 15.48C62.8409 15.16 62.2676 15 61.4942 15H58.7142V18.84H61.4942ZM63.1142 19.42L67.3942 26H64.2942L60.7542 20.22L63.1142 19.42ZM69.988 26V12.8H79.888V15.02H72.748V18.3H78.368V20.42H72.748V23.78H80.168V26H69.988ZM88.1442 12.8C90.2109 12.8 91.8109 13.3733 92.9442 14.52C94.0776 15.6533 94.6442 17.28 94.6442 19.4C94.6442 21.5067 94.0776 23.1333 92.9442 24.28C91.8109 25.4267 90.2109 26 88.1442 26H83.0442V12.8H88.1442ZM88.0042 23.8C89.2576 23.8 90.1976 23.4267 90.8242 22.68C91.4642 21.92 91.7842 20.8267 91.7842 19.4C91.7842 17.9733 91.4642 16.8867 90.8242 16.14C90.1976 15.38 89.2576 15 88.0042 15H85.8042V23.8H88.0042ZM109.153 12.6C110.353 12.6 111.406 12.8067 112.313 13.22C113.219 13.6333 113.993 14.2467 114.633 15.06L113.093 16.84C112.546 16.1467 111.946 15.64 111.293 15.32C110.653 14.9867 109.906 14.82 109.053 14.82C108.493 14.82 108.026 14.8933 107.653 15.04C107.293 15.1867 107.026 15.38 106.853 15.62C106.693 15.86 106.613 16.1267 106.613 16.42C106.613 16.78 106.753 17.0867 107.033 17.34C107.313 17.58 107.793 17.78 108.473 17.94L110.933 18.5C112.239 18.7933 113.173 19.2333 113.733 19.82C114.306 20.3933 114.593 21.14 114.593 22.06C114.593 22.9267 114.366 23.6733 113.913 24.3C113.459 24.9133 112.826 25.3867 112.013 25.72C111.199 26.04 110.266 26.2 109.213 26.2C108.293 26.2 107.446 26.0933 106.673 25.88C105.913 25.6533 105.233 25.3467 104.633 24.96C104.033 24.5733 103.533 24.1267 103.133 23.62L104.693 21.76C104.999 22.1867 105.379 22.5667 105.833 22.9C106.286 23.2333 106.799 23.5 107.373 23.7C107.959 23.8867 108.573 23.98 109.213 23.98C109.759 23.98 110.219 23.92 110.593 23.8C110.979 23.6667 111.266 23.4867 111.453 23.26C111.653 23.02 111.753 22.7333 111.753 22.4C111.753 22.0533 111.633 21.76 111.393 21.52C111.166 21.2667 110.739 21.0733 110.113 20.94L107.433 20.34C106.659 20.1533 105.993 19.9133 105.433 19.62C104.886 19.3133 104.466 18.9267 104.173 18.46C103.893 17.98 103.753 17.4133 103.753 16.76C103.753 15.9733 103.966 15.2667 104.393 14.64C104.819 14.0133 105.433 13.52 106.233 13.16C107.046 12.7867 108.019 12.6 109.153 12.6ZM117.604 26V12.8H127.504V15.02H120.364V18.3H125.984V20.42H120.364V23.78H127.784V26H117.604ZM135.904 26.2C134.691 26.2 133.624 25.9333 132.704 25.4C131.797 24.8667 131.091 24.0933 130.584 23.08C130.077 22.0667 129.824 20.8467 129.824 19.42C129.824 18.0067 130.091 16.7933 130.624 15.78C131.157 14.7533 131.911 13.9667 132.884 13.42C133.871 12.8733 135.011 12.6 136.304 12.6C137.731 12.6 138.884 12.8667 139.764 13.4C140.644 13.92 141.344 14.7333 141.864 15.84L139.304 16.94C139.091 16.2333 138.724 15.7133 138.204 15.38C137.697 15.0333 137.071 14.86 136.324 14.86C135.577 14.86 134.931 15.04 134.384 15.4C133.837 15.7467 133.417 16.26 133.124 16.94C132.831 17.6067 132.684 18.4267 132.684 19.4C132.684 20.4 132.824 21.2467 133.104 21.94C133.384 22.62 133.797 23.1333 134.344 23.48C134.904 23.8133 135.591 23.98 136.404 23.98C136.844 23.98 137.251 23.9267 137.624 23.82C138.011 23.7133 138.344 23.5533 138.624 23.34C138.904 23.1267 139.124 22.8533 139.284 22.52C139.444 22.1867 139.524 21.8 139.524 21.36V21.06H136.064V19.04H141.904V26H139.964L139.764 23.12L140.244 23.46C139.951 24.34 139.431 25.02 138.684 25.5C137.951 25.9667 137.024 26.2 135.904 26.2ZM159.697 12.8V26H157.197V19.12L157.337 15.26H157.297L153.637 26H151.377L147.737 15.26H147.697L147.837 19.12V26H145.337V12.8H149.337L151.717 20L152.557 22.98H152.597L153.457 20.02L155.817 12.8H159.697ZM163.53 26V12.8H173.43V15.02H166.29V18.3H171.91V20.42H166.29V23.78H173.71V26H163.53ZM187.926 12.8V26H184.766L180.146 18.24L179.006 16.08H178.986L179.066 18.36V26H176.586V12.8H179.726L184.346 20.54L185.486 22.72H185.526L185.446 20.44V12.8H187.926ZM202.212 12.8V15.02H197.792V26H195.032V15.02H190.592V12.8H202.212ZM209.316 12.6C210.516 12.6 211.569 12.8067 212.476 13.22C213.382 13.6333 214.156 14.2467 214.796 15.06L213.256 16.84C212.709 16.1467 212.109 15.64 211.456 15.32C210.816 14.9867 210.069 14.82 209.216 14.82C208.656 14.82 208.189 14.8933 207.816 15.04C207.456 15.1867 207.189 15.38 207.016 15.62C206.856 15.86 206.776 16.1267 206.776 16.42C206.776 16.78 206.916 17.0867 207.196 17.34C207.476 17.58 207.956 17.78 208.636 17.94L211.096 18.5C212.402 18.7933 213.336 19.2333 213.896 19.82C214.469 20.3933 214.756 21.14 214.756 22.06C214.756 22.9267 214.529 23.6733 214.076 24.3C213.622 24.9133 212.989 25.3867 212.176 25.72C211.362 26.04 210.429 26.2 209.376 26.2C208.456 26.2 207.609 26.0933 206.836 25.88C206.076 25.6533 205.396 25.3467 204.796 24.96C204.196 24.5733 203.696 24.1267 203.296 23.62L204.856 21.76C205.162 22.1867 205.542 22.5667 205.996 22.9C206.449 23.2333 206.962 23.5 207.536 23.7C208.122 23.8867 208.736 23.98 209.376 23.98C209.922 23.98 210.382 23.92 210.756 23.8C211.142 23.6667 211.429 23.4867 211.616 23.26C211.816 23.02 211.916 22.7333 211.916 22.4C211.916 22.0533 211.796 21.76 211.556 21.52C211.329 21.2667 210.902 21.0733 210.276 20.94L207.596 20.34C206.822 20.1533 206.156 19.9133 205.596 19.62C205.049 19.3133 204.629 18.9267 204.336 18.46C204.056 17.98 203.916 17.4133 203.916 16.76C203.916 15.9733 204.129 15.2667 204.556 14.64C204.982 14.0133 205.596 13.52 206.396 13.16C207.209 12.7867 208.182 12.6 209.316 12.6Z" fill="#57534E"/>
<rect x="172.75" y="49.75" width="76.5" height="53.5" rx="9.25" fill="#E0E7FF"/>
<path d="M206.001 83V69.8H211.781C213.381 69.8 214.561 70.1133 215.321 70.74C216.081 71.3667 216.461 72.2533 216.461 73.4C216.461 74.1067 216.248 74.7333 215.821 75.28C215.395 75.8267 214.768 76.1733 213.941 76.32V76.34C214.861 76.4733 215.568 76.82 216.061 77.38C216.555 77.94 216.801 78.6067 216.801 79.38C216.801 80.5133 216.388 81.4 215.561 82.04C214.748 82.68 213.555 83 211.981 83H206.001ZM208.681 80.92H211.741C212.488 80.92 213.041 80.7667 213.401 80.46C213.761 80.1533 213.941 79.7267 213.941 79.18C213.941 78.62 213.761 78.1933 213.401 77.9C213.041 77.6067 212.488 77.46 211.741 77.46H208.681V80.92ZM208.681 75.34H211.421C212.875 75.34 213.601 74.7733 213.601 73.64C213.601 72.5067 212.875 71.94 211.421 71.94H208.681V75.34Z" fill="#4338CA"/>
<rect x="172.75" y="49.75" width="76.5" height="53.5" rx="9.25" stroke="#4F46E5" stroke-width="1.5"/>
<rect x="43.75" y="49.75" width="76.5" height="53.5" rx="9.25" fill="#DCFCE7"/>
<path d="M88.471 83H85.611L84.511 79.78H79.451L78.351 83H75.531L80.351 69.8H83.651L88.471 83ZM80.071 77.74H83.891L81.971 71.98L80.071 77.74Z" fill="#15803D"/>
<rect x="43.75" y="49.75" width="76.5" height="53.5" rx="9.25" stroke="#16A34A" stroke-width="1.5"/>
<rect x="12.5" y="344.5" width="536" height="96" rx="7.5" stroke="#A8A29E"/>
<rect x="41.75" y="365.75" width="76.5" height="53.5" rx="9.25" fill="#DCFCE7"/>
<path d="M86.471 399H83.611L82.511 395.78H77.451L76.351 399H73.531L78.351 385.8H81.651L86.471 399ZM78.071 393.74H81.891L79.971 387.98L78.071 393.74Z" fill="#15803D"/>
<rect x="41.75" y="365.75" width="76.5" height="53.5" rx="9.25" stroke="#16A34A" stroke-width="1.5"/>
<rect x="172.75" y="365.75" width="76.5" height="53.5" rx="9.25" fill="#E0E7FF"/>
<path d="M206.001 399V385.8H211.781C213.381 385.8 214.561 386.113 215.321 386.74C216.081 387.367 216.461 388.253 216.461 389.4C216.461 390.107 216.248 390.733 215.821 391.28C215.395 391.827 214.768 392.173 213.941 392.32V392.34C214.861 392.473 215.568 392.82 216.061 393.38C216.555 393.94 216.801 394.607 216.801 395.38C216.801 396.513 216.388 397.4 215.561 398.04C214.748 398.68 213.555 399 211.981 399H206.001ZM208.681 396.92H211.741C212.488 396.92 213.041 396.767 213.401 396.46C213.761 396.153 213.941 395.727 213.941 395.18C213.941 394.62 213.761 394.193 213.401 393.9C213.041 393.607 212.488 393.46 211.741 393.46H208.681V396.92ZM208.681 391.34H211.421C212.875 391.34 213.601 390.773 213.601 389.64C213.601 388.507 212.875 387.94 211.421 387.94H208.681V391.34Z" fill="#4338CA"/>
<rect x="172.75" y="365.75" width="76.5" height="53.5" rx="9.25" stroke="#4F46E5" stroke-width="1.5"/>
<rect x="303.75" y="365.75" width="76.5" height="53.5" rx="9.25" fill="#F5F5F4"/>
<path d="M342.743 385.8C344.236 385.8 345.41 386.16 346.263 386.88C347.116 387.6 347.543 388.567 347.543 389.78C347.543 391.073 347.116 392.067 346.263 392.76C345.41 393.44 344.243 393.78 342.763 393.78L342.483 393.94H339.643V399H336.923V385.8H342.743ZM342.423 391.84C343.196 391.84 343.77 391.687 344.143 391.38C344.53 391.06 344.723 390.573 344.723 389.92C344.723 389.267 344.53 388.787 344.143 388.48C343.77 388.16 343.196 388 342.423 388H339.643V391.84H342.423ZM344.043 392.42L348.323 399H345.223L341.683 393.22L344.043 392.42Z" fill="#A8A29E"/>
<rect x="303.75" y="365.75" width="76.5" height="53.5" rx="9.25" stroke="#A8A29E" stroke-width="1.5"/>
<rect x="434.75" y="365.75" width="75.5" height="53.5" rx="9.25" fill="#FAE8FF"/>
<path d="M478.584 399H475.304L472.424 394.32L469.584 399H466.424L470.964 392.34L466.744 385.8H469.984L472.644 390.24L475.344 385.8H478.344L474.104 392.24L478.584 399Z" fill="#A21CAF"/>
<rect x="434.75" y="365.75" width="75.5" height="53.5" rx="9.25" stroke="#C026D3" stroke-width="1.5"/>
<path d="M168.707 393.207C169.098 392.817 169.098 392.183 168.707 391.793L162.343 385.429C161.953 385.038 161.319 385.038 160.929 385.429C160.538 385.819 160.538 386.453 160.929 386.843L166.586 392.5L160.929 398.157C160.538 398.547 160.538 399.181 160.929 399.571C161.319 399.962 161.953 399.962 162.343 399.571L168.707 393.207ZM123 393.5H168V391.5H123V393.5Z" fill="#A8A29E"/>
<path d="M299.707 393.207C300.098 392.817 300.098 392.183 299.707 391.793L293.343 385.429C292.953 385.038 292.319 385.038 291.929 385.429C291.538 385.819 291.538 386.453 291.929 386.843L297.586 392.5L291.929 398.157C291.538 398.547 291.538 399.181 291.929 399.571C292.319 399.962 292.953 399.962 293.343 399.571L299.707 393.207ZM254 393.5H299V391.5H254V393.5Z" fill="#A8A29E"/>
<path d="M430.707 393.207C431.098 392.817 431.098 392.183 430.707 391.793L424.343 385.429C423.953 385.038 423.319 385.038 422.929 385.429C422.538 385.819 422.538 386.453 422.929 386.843L428.586 392.5L422.929 398.157C422.538 398.547 422.538 399.181 422.929 399.571C423.319 399.962 423.953 399.962 424.343 399.571L430.707 393.207ZM385 393.5H430V391.5H385V393.5Z" fill="#A8A29E"/>
<path d="M19.26 320.8C20.2733 320.8 21.14 320.973 21.86 321.32C22.58 321.653 23.1333 322.14 23.52 322.78C23.92 323.407 24.12 324.167 24.12 325.06C24.12 325.953 23.92 326.72 23.52 327.36C23.1333 327.987 22.58 328.473 21.86 328.82C21.14 329.153 20.2733 329.32 19.26 329.32H16.48V334H13.72V320.8H19.26ZM18.84 327.14C19.6667 327.14 20.2867 326.967 20.7 326.62C21.1133 326.26 21.32 325.74 21.32 325.06C21.32 324.367 21.1133 323.847 20.7 323.5C20.2867 323.153 19.6667 322.98 18.84 322.98H16.48V327.14H18.84ZM28.1497 322.56C27.5764 322.56 27.1497 322.44 26.8697 322.2C26.5897 321.947 26.4497 321.58 26.4497 321.1C26.4497 320.607 26.5897 320.24 26.8697 320C27.1497 319.747 27.5764 319.62 28.1497 319.62C28.723 319.62 29.1497 319.747 29.4297 320C29.7097 320.24 29.8497 320.607 29.8497 321.1C29.8497 321.58 29.7097 321.947 29.4297 322.2C29.1497 322.44 28.723 322.56 28.1497 322.56ZM29.5097 324V334H26.7697V324H29.5097ZM32.8142 338.2V324H35.2742L35.4542 327.18L35.1142 326.82C35.2342 326.233 35.4542 325.713 35.7742 325.26C36.1076 324.807 36.5276 324.453 37.0342 324.2C37.5409 323.933 38.1076 323.8 38.7342 323.8C39.5476 323.8 40.2742 324.007 40.9142 324.42C41.5542 324.833 42.0542 325.427 42.4142 326.2C42.7876 326.96 42.9742 327.887 42.9742 328.98C42.9742 330.073 42.7876 331.013 42.4142 331.8C42.0409 332.573 41.5276 333.167 40.8742 333.58C40.2342 333.993 39.5009 334.2 38.6742 334.2C37.7942 334.2 37.0609 333.953 36.4742 333.46C35.9009 332.967 35.5076 332.347 35.2942 331.6L35.5542 331.18V338.2H32.8142ZM37.8742 332.1C38.6076 332.1 39.1809 331.84 39.5942 331.32C40.0209 330.787 40.2342 330.013 40.2342 329C40.2342 327.987 40.0276 327.22 39.6142 326.7C39.2142 326.167 38.6476 325.9 37.9142 325.9C37.4476 325.9 37.0342 326.027 36.6742 326.28C36.3276 326.52 36.0542 326.873 35.8542 327.34C35.6542 327.793 35.5542 328.347 35.5542 329C35.5542 329.64 35.6476 330.193 35.8342 330.66C36.0209 331.127 36.2876 331.487 36.6342 331.74C36.9942 331.98 37.4076 332.1 37.8742 332.1ZM50.3933 334.2C49.3399 334.2 48.4199 333.993 47.6333 333.58C46.8599 333.167 46.2599 332.573 45.8333 331.8C45.4066 331.027 45.1933 330.093 45.1933 329C45.1933 327.907 45.4066 326.973 45.8333 326.2C46.2599 325.427 46.8533 324.833 47.6133 324.42C48.3866 324.007 49.2666 323.8 50.2533 323.8C51.2666 323.8 52.1266 324.007 52.8333 324.42C53.5399 324.82 54.0799 325.373 54.4533 326.08C54.8266 326.773 55.0133 327.567 55.0133 328.46C55.0133 328.727 55.0066 328.98 54.9933 329.22C54.9799 329.46 54.9599 329.673 54.9333 329.86H46.9533V327.96H53.7333L52.4133 328.44C52.4133 327.6 52.2199 326.953 51.8333 326.5C51.4599 326.047 50.9266 325.82 50.2333 325.82C49.7266 325.82 49.2866 325.94 48.9133 326.18C48.5533 326.42 48.2799 326.78 48.0933 327.26C47.9066 327.727 47.8133 328.32 47.8133 329.04C47.8133 329.747 47.9133 330.333 48.1133 330.8C48.3266 331.253 48.6199 331.593 48.9933 331.82C49.3799 332.047 49.8399 332.16 50.3733 332.16C50.9599 332.16 51.4333 332.047 51.7933 331.82C52.1533 331.593 52.4333 331.28 52.6333 330.88L54.8133 331.72C54.5999 332.24 54.2733 332.687 53.8333 333.06C53.4066 333.433 52.8933 333.72 52.2933 333.92C51.7066 334.107 51.0733 334.2 50.3933 334.2ZM60.4353 319.62V330.92C60.4353 331.387 60.5153 331.713 60.6753 331.9C60.8353 332.087 61.102 332.18 61.4753 332.18C61.702 332.18 61.8886 332.167 62.0353 332.14C62.182 332.1 62.3686 332.047 62.5953 331.98L62.3553 333.78C62.1286 333.913 61.842 334.013 61.4953 334.08C61.162 334.16 60.8286 334.2 60.4953 334.2C59.522 334.2 58.8086 333.967 58.3553 333.5C57.9153 333.02 57.6953 332.26 57.6953 331.22V319.62H60.4353ZM65.902 322.56C65.3287 322.56 64.902 322.44 64.622 322.2C64.342 321.947 64.202 321.58 64.202 321.1C64.202 320.607 64.342 320.24 64.622 320C64.902 319.747 65.3287 319.62 65.902 319.62C66.4754 319.62 66.902 319.747 67.182 320C67.462 320.24 67.602 320.607 67.602 321.1C67.602 321.58 67.462 321.947 67.182 322.2C66.902 322.44 66.4754 322.56 65.902 322.56ZM67.262 324V334H64.522V324H67.262ZM70.5666 334V324H73.0266L73.1866 327L72.8466 326.68C73.0066 326.027 73.2599 325.487 73.6066 325.06C73.9532 324.633 74.3732 324.32 74.8666 324.12C75.3732 323.907 75.9266 323.8 76.5266 323.8C77.2199 323.8 77.8332 323.933 78.3666 324.2C78.9132 324.467 79.3399 324.873 79.6466 325.42C79.9666 325.953 80.1266 326.627 80.1266 327.44V334H77.3866V328.22C77.3866 327.367 77.2199 326.78 76.8866 326.46C76.5532 326.127 76.1199 325.96 75.5866 325.96C75.2132 325.96 74.8466 326.053 74.4866 326.24C74.1399 326.413 73.8532 326.7 73.6266 327.1C73.4132 327.5 73.3066 328.033 73.3066 328.7V334H70.5666ZM87.9894 334.2C86.936 334.2 86.016 333.993 85.2294 333.58C84.456 333.167 83.856 332.573 83.4294 331.8C83.0027 331.027 82.7894 330.093 82.7894 329C82.7894 327.907 83.0027 326.973 83.4294 326.2C83.856 325.427 84.4494 324.833 85.2094 324.42C85.9827 324.007 86.8627 323.8 87.8494 323.8C88.8627 323.8 89.7227 324.007 90.4294 324.42C91.136 324.82 91.676 325.373 92.0494 326.08C92.4227 326.773 92.6094 327.567 92.6094 328.46C92.6094 328.727 92.6027 328.98 92.5894 329.22C92.576 329.46 92.556 329.673 92.5294 329.86H84.5494V327.96H91.3294L90.0094 328.44C90.0094 327.6 89.816 326.953 89.4294 326.5C89.056 326.047 88.5227 325.82 87.8294 325.82C87.3227 325.82 86.8827 325.94 86.5094 326.18C86.1494 326.42 85.876 326.78 85.6894 327.26C85.5027 327.727 85.4094 328.32 85.4094 329.04C85.4094 329.747 85.5094 330.333 85.7094 330.8C85.9227 331.253 86.216 331.593 86.5894 331.82C86.976 332.047 87.436 332.16 87.9694 332.16C88.556 332.16 89.0294 332.047 89.3894 331.82C89.7494 331.593 90.0294 331.28 90.2294 330.88L92.4094 331.72C92.196 332.24 91.8694 332.687 91.4294 333.06C91.0027 333.433 90.4894 333.72 89.8894 333.92C89.3027 334.107 88.6694 334.2 87.9894 334.2ZM101.705 334V332.14C102.905 331.327 103.918 330.593 104.745 329.94C105.585 329.273 106.258 328.66 106.765 328.1C107.285 327.527 107.658 326.987 107.885 326.48C108.125 325.973 108.245 325.467 108.245 324.96C108.245 324.347 108.058 323.847 107.685 323.46C107.311 323.06 106.785 322.86 106.105 322.86C105.358 322.86 104.771 323.113 104.345 323.62C103.931 324.127 103.705 324.847 103.665 325.78L101.285 324.88C101.351 323.973 101.591 323.207 102.005 322.58C102.431 321.94 103.005 321.453 103.725 321.12C104.458 320.773 105.298 320.6 106.245 320.6C107.058 320.6 107.758 320.713 108.345 320.94C108.945 321.167 109.438 321.48 109.825 321.88C110.225 322.267 110.525 322.713 110.725 323.22C110.925 323.727 111.025 324.253 111.025 324.8C111.025 325.653 110.811 326.46 110.385 327.22C109.971 327.98 109.331 328.733 108.465 329.48C107.598 330.227 106.498 331.013 105.165 331.84V331.86C105.365 331.847 105.605 331.833 105.885 331.82C106.178 331.807 106.478 331.8 106.785 331.8C107.091 331.787 107.358 331.78 107.585 331.78H111.225V334H101.705Z" fill="#44403C"/>
<rect x="301.75" y="49.75" width="75.5" height="53.5" rx="9.25" fill="#FAE8FF"/>
<path d="M345.584 83H342.304L339.424 78.32L336.584 83H333.424L337.964 76.34L333.744 69.8H336.984L339.644 74.24L342.344 69.8H345.344L341.104 76.24L345.584 83Z" fill="#A21CAF"/>
<rect x="301.75" y="49.75" width="75.5" height="53.5" rx="9.25" stroke="#C026D3" stroke-width="1.5"/>
<rect x="12.5" y="499.5" width="536" height="96" rx="7.5" stroke="#A8A29E"/>
<rect x="41.75" y="520.75" width="76.5" height="53.5" rx="9.25" fill="#E0E7FF"/>
<path d="M75.0013 554V540.8H80.7813C82.3813 540.8 83.5613 541.113 84.3213 541.74C85.0813 542.367 85.4613 543.253 85.4613 544.4C85.4613 545.107 85.2479 545.733 84.8213 546.28C84.3946 546.827 83.7679 547.173 82.9413 547.32V547.34C83.8613 547.473 84.5679 547.82 85.0613 548.38C85.5546 548.94 85.8013 549.607 85.8013 550.38C85.8013 551.513 85.3879 552.4 84.5613 553.04C83.7479 553.68 82.5546 554 80.9813 554H75.0013ZM77.6813 551.92H80.7413C81.4879 551.92 82.0413 551.767 82.4013 551.46C82.7613 551.153 82.9413 550.727 82.9413 550.18C82.9413 549.62 82.7613 549.193 82.4013 548.9C82.0413 548.607 81.4879 548.46 80.7413 548.46H77.6813V551.92ZM77.6813 546.34H80.4213C81.8746 546.34 82.6013 545.773 82.6013 544.64C82.6013 543.507 81.8746 542.94 80.4213 542.94H77.6813V546.34Z" fill="#4338CA"/>
<rect x="41.75" y="520.75" width="76.5" height="53.5" rx="9.25" stroke="#4F46E5" stroke-width="1.5"/>
<path d="M303.707 548.207C304.098 547.817 304.098 547.183 303.707 546.793L297.343 540.429C296.953 540.038 296.319 540.038 295.929 540.429C295.538 540.819 295.538 541.453 295.929 541.843L301.586 547.5L295.929 553.157C295.538 553.547 295.538 554.181 295.929 554.571C296.319 554.962 296.953 554.962 297.343 554.571L303.707 548.207ZM123 548.5H303V546.5H123V548.5Z" fill="#A8A29E"/>
<rect x="172.75" y="520.75" width="80.5" height="53.5" rx="9.25" fill="#F5F5F4"/>
<path d="M220.184 540.8V554H217.684V547.12L217.824 543.26H217.784L214.124 554H211.864L208.224 543.26H208.184L208.324 547.12V554H205.824V540.8H209.824L212.204 548L213.044 550.98H213.084L213.944 548.02L216.304 540.8H220.184Z" fill="#A8A29E"/>
<rect x="172.75" y="520.75" width="80.5" height="53.5" rx="9.25" stroke="#A8A29E" stroke-width="1.5"/>
<rect x="307.75" y="520.75" width="75.5" height="53.5" rx="9.25" fill="#FAE8FF"/>
<path d="M351.584 554H348.304L345.424 549.32L342.584 554H339.424L343.964 547.34L339.744 540.8H342.984L345.644 545.24L348.344 540.8H351.344L347.104 547.24L351.584 554Z" fill="#A21CAF"/>
<rect x="307.75" y="520.75" width="75.5" height="53.5" rx="9.25" stroke="#C026D3" stroke-width="1.5"/>
<rect x="437.75" y="520.75" width="75.5" height="53.5" rx="9.25" fill="#F5F5F4"/>
<path d="M472.292 552.76L471.792 551.8H481.032V554H470.052V551.92L478.572 542.04L479.052 543H470.212V540.8H480.792V542.88L472.292 552.76Z" fill="#A8A29E"/>
<rect x="437.75" y="520.75" width="75.5" height="53.5" rx="9.25" stroke="#A8A29E" stroke-width="1.5"/>
<path d="M433.707 548.207C434.098 547.817 434.098 547.183 433.707 546.793L427.343 540.429C426.953 540.038 426.319 540.038 425.929 540.429C425.538 540.819 425.538 541.453 425.929 541.843L431.586 547.5L425.929 553.157C425.538 553.547 425.538 554.181 425.929 554.571C426.319 554.962 426.953 554.962 427.343 554.571L433.707 548.207ZM388 548.5H433V546.5H388V548.5Z" fill="#A8A29E"/>
<path d="M19.26 475.8C20.2733 475.8 21.14 475.973 21.86 476.32C22.58 476.653 23.1333 477.14 23.52 477.78C23.92 478.407 24.12 479.167 24.12 480.06C24.12 480.953 23.92 481.72 23.52 482.36C23.1333 482.987 22.58 483.473 21.86 483.82C21.14 484.153 20.2733 484.32 19.26 484.32H16.48V489H13.72V475.8H19.26ZM18.84 482.14C19.6667 482.14 20.2867 481.967 20.7 481.62C21.1133 481.26 21.32 480.74 21.32 480.06C21.32 479.367 21.1133 478.847 20.7 478.5C20.2867 478.153 19.6667 477.98 18.84 477.98H16.48V482.14H18.84ZM28.1497 477.56C27.5764 477.56 27.1497 477.44 26.8697 477.2C26.5897 476.947 26.4497 476.58 26.4497 476.1C26.4497 475.607 26.5897 475.24 26.8697 475C27.1497 474.747 27.5764 474.62 28.1497 474.62C28.723 474.62 29.1497 474.747 29.4297 475C29.7097 475.24 29.8497 475.607 29.8497 476.1C29.8497 476.58 29.7097 476.947 29.4297 477.2C29.1497 477.44 28.723 477.56 28.1497 477.56ZM29.5097 479V489H26.7697V479H29.5097ZM32.8142 493.2V479H35.2742L35.4542 482.18L35.1142 481.82C35.2342 481.233 35.4542 480.713 35.7742 480.26C36.1076 479.807 36.5276 479.453 37.0342 479.2C37.5409 478.933 38.1076 478.8 38.7342 478.8C39.5476 478.8 40.2742 479.007 40.9142 479.42C41.5542 479.833 42.0542 480.427 42.4142 481.2C42.7876 481.96 42.9742 482.887 42.9742 483.98C42.9742 485.073 42.7876 486.013 42.4142 486.8C42.0409 487.573 41.5276 488.167 40.8742 488.58C40.2342 488.993 39.5009 489.2 38.6742 489.2C37.7942 489.2 37.0609 488.953 36.4742 488.46C35.9009 487.967 35.5076 487.347 35.2942 486.6L35.5542 486.18V493.2H32.8142ZM37.8742 487.1C38.6076 487.1 39.1809 486.84 39.5942 486.32C40.0209 485.787 40.2342 485.013 40.2342 484C40.2342 482.987 40.0276 482.22 39.6142 481.7C39.2142 481.167 38.6476 480.9 37.9142 480.9C37.4476 480.9 37.0342 481.027 36.6742 481.28C36.3276 481.52 36.0542 481.873 35.8542 482.34C35.6542 482.793 35.5542 483.347 35.5542 484C35.5542 484.64 35.6476 485.193 35.8342 485.66C36.0209 486.127 36.2876 486.487 36.6342 486.74C36.9942 486.98 37.4076 487.1 37.8742 487.1ZM50.3933 489.2C49.3399 489.2 48.4199 488.993 47.6333 488.58C46.8599 488.167 46.2599 487.573 45.8333 486.8C45.4066 486.027 45.1933 485.093 45.1933 484C45.1933 482.907 45.4066 481.973 45.8333 481.2C46.2599 480.427 46.8533 479.833 47.6133 479.42C48.3866 479.007 49.2666 478.8 50.2533 478.8C51.2666 478.8 52.1266 479.007 52.8333 479.42C53.5399 479.82 54.0799 480.373 54.4533 481.08C54.8266 481.773 55.0133 482.567 55.0133 483.46C55.0133 483.727 55.0066 483.98 54.9933 484.22C54.9799 484.46 54.9599 484.673 54.9333 484.86H46.9533V482.96H53.7333L52.4133 483.44C52.4133 482.6 52.2199 481.953 51.8333 481.5C51.4599 481.047 50.9266 480.82 50.2333 480.82C49.7266 480.82 49.2866 480.94 48.9133 481.18C48.5533 481.42 48.2799 481.78 48.0933 482.26C47.9066 482.727 47.8133 483.32 47.8133 484.04C47.8133 484.747 47.9133 485.333 48.1133 485.8C48.3266 486.253 48.6199 486.593 48.9933 486.82C49.3799 487.047 49.8399 487.16 50.3733 487.16C50.9599 487.16 51.4333 487.047 51.7933 486.82C52.1533 486.593 52.4333 486.28 52.6333 485.88L54.8133 486.72C54.5999 487.24 54.2733 487.687 53.8333 488.06C53.4066 488.433 52.8933 488.72 52.2933 488.92C51.7066 489.107 51.0733 489.2 50.3933 489.2ZM60.4353 474.62V485.92C60.4353 486.387 60.5153 486.713 60.6753 486.9C60.8353 487.087 61.102 487.18 61.4753 487.18C61.702 487.18 61.8886 487.167 62.0353 487.14C62.182 487.1 62.3686 487.047 62.5953 486.98L62.3553 488.78C62.1286 488.913 61.842 489.013 61.4953 489.08C61.162 489.16 60.8286 489.2 60.4953 489.2C59.522 489.2 58.8086 488.967 58.3553 488.5C57.9153 488.02 57.6953 487.26 57.6953 486.22V474.62H60.4353ZM65.902 477.56C65.3287 477.56 64.902 477.44 64.622 477.2C64.342 476.947 64.202 476.58 64.202 476.1C64.202 475.607 64.342 475.24 64.622 475C64.902 474.747 65.3287 474.62 65.902 474.62C66.4754 474.62 66.902 474.747 67.182 475C67.462 475.24 67.602 475.607 67.602 476.1C67.602 476.58 67.462 476.947 67.182 477.2C66.902 477.44 66.4754 477.56 65.902 477.56ZM67.262 479V489H64.522V479H67.262ZM70.5666 489V479H73.0266L73.1866 482L72.8466 481.68C73.0066 481.027 73.2599 480.487 73.6066 480.06C73.9532 479.633 74.3732 479.32 74.8666 479.12C75.3732 478.907 75.9266 478.8 76.5266 478.8C77.2199 478.8 77.8332 478.933 78.3666 479.2C78.9132 479.467 79.3399 479.873 79.6466 480.42C79.9666 480.953 80.1266 481.627 80.1266 482.44V489H77.3866V483.22C77.3866 482.367 77.2199 481.78 76.8866 481.46C76.5532 481.127 76.1199 480.96 75.5866 480.96C75.2132 480.96 74.8466 481.053 74.4866 481.24C74.1399 481.413 73.8532 481.7 73.6266 482.1C73.4132 482.5 73.3066 483.033 73.3066 483.7V489H70.5666ZM87.9894 489.2C86.936 489.2 86.016 488.993 85.2294 488.58C84.456 488.167 83.856 487.573 83.4294 486.8C83.0027 486.027 82.7894 485.093 82.7894 484C82.7894 482.907 83.0027 481.973 83.4294 481.2C83.856 480.427 84.4494 479.833 85.2094 479.42C85.9827 479.007 86.8627 478.8 87.8494 478.8C88.8627 478.8 89.7227 479.007 90.4294 479.42C91.136 479.82 91.676 480.373 92.0494 481.08C92.4227 481.773 92.6094 482.567 92.6094 483.46C92.6094 483.727 92.6027 483.98 92.5894 484.22C92.576 484.46 92.556 484.673 92.5294 484.86H84.5494V482.96H91.3294L90.0094 483.44C90.0094 482.6 89.816 481.953 89.4294 481.5C89.056 481.047 88.5227 480.82 87.8294 480.82C87.3227 480.82 86.8827 480.94 86.5094 481.18C86.1494 481.42 85.876 481.78 85.6894 482.26C85.5027 482.727 85.4094 483.32 85.4094 484.04C85.4094 484.747 85.5094 485.333 85.7094 485.8C85.9227 486.253 86.216 486.593 86.5894 486.82C86.976 487.047 87.436 487.16 87.9694 487.16C88.556 487.16 89.0294 487.047 89.3894 486.82C89.7494 486.593 90.0294 486.28 90.2294 485.88L92.4094 486.72C92.196 487.24 91.8694 487.687 91.4294 488.06C91.0027 488.433 90.4894 488.72 89.8894 488.92C89.3027 489.107 88.6694 489.2 87.9894 489.2ZM106.345 489.2C105.025 489.2 103.898 488.927 102.965 488.38C102.045 487.82 101.411 487.02 101.065 485.98L103.665 484.84C103.758 485.32 103.911 485.72 104.125 486.04C104.338 486.347 104.625 486.58 104.985 486.74C105.358 486.9 105.798 486.98 106.305 486.98C106.758 486.98 107.138 486.9 107.445 486.74C107.765 486.58 108.011 486.353 108.185 486.06C108.358 485.767 108.445 485.433 108.445 485.06C108.445 484.66 108.365 484.333 108.205 484.08C108.058 483.827 107.831 483.647 107.525 483.54C107.218 483.42 106.831 483.36 106.365 483.36C106.191 483.36 106.025 483.367 105.865 483.38C105.718 483.38 105.551 483.393 105.365 483.42V481.4C105.471 481.413 105.578 481.427 105.685 481.44C105.805 481.44 105.925 481.44 106.045 481.44C106.791 481.44 107.325 481.293 107.645 481C107.978 480.693 108.145 480.207 108.145 479.54C108.145 478.993 107.978 478.573 107.645 478.28C107.325 477.973 106.865 477.82 106.265 477.82C105.625 477.82 105.118 477.98 104.745 478.3C104.371 478.607 104.111 479.08 103.965 479.72L101.505 478.8C101.665 478.133 101.971 477.56 102.425 477.08C102.891 476.6 103.465 476.233 104.145 475.98C104.825 475.713 105.578 475.58 106.405 475.58C107.391 475.58 108.211 475.733 108.865 476.04C109.531 476.347 110.031 476.767 110.365 477.3C110.711 477.833 110.885 478.447 110.885 479.14C110.885 479.687 110.798 480.153 110.625 480.54C110.465 480.913 110.251 481.233 109.985 481.5C109.731 481.753 109.465 481.947 109.185 482.08C108.905 482.213 108.645 482.293 108.405 482.32V482.38C108.711 482.393 109.025 482.46 109.345 482.58C109.665 482.687 109.958 482.853 110.225 483.08C110.505 483.307 110.731 483.6 110.905 483.96C111.078 484.307 111.165 484.72 111.165 485.2C111.165 486 110.951 486.707 110.525 487.32C110.111 487.92 109.545 488.387 108.825 488.72C108.105 489.04 107.278 489.2 106.345 489.2Z" fill="#44403C"/>
</svg>
