<svg width="684" height="278" viewBox="0 0 684 278" fill="none" xmlns="http://www.w3.org/2000/svg">
<rect width="684" height="278" fill="white"/>
<rect x="367" y="9" width="160" height="262" fill="#EEF2FF"/>
<rect x="7.5" y="8.5" width="670" height="263" rx="11.5" stroke="#A8A29E"/>
<path d="M37.936 87.28C38.9813 87.28 39.8827 87.4987 40.64 87.936C41.3973 88.3733 41.9787 88.9973 42.384 89.808C42.8 90.6187 43.008 91.5893 43.008 92.72C43.008 93.8507 42.8 94.8213 42.384 95.632C41.9787 96.4427 41.3973 97.0667 40.64 97.504C39.8827 97.9413 38.9813 98.16 37.936 98.16C36.8907 98.16 35.984 97.9413 35.216 97.504C34.4587 97.0667 33.872 96.4427 33.456 95.632C33.0507 94.8213 32.848 93.8507 32.848 92.72C32.848 91.5893 33.0507 90.6187 33.456 89.808C33.872 88.9973 34.4587 88.3733 35.216 87.936C35.984 87.4987 36.8907 87.28 37.936 87.28ZM37.936 89.088C37.3387 89.088 36.832 89.2267 36.416 89.504C36 89.7813 35.68 90.192 35.456 90.736C35.2427 91.2693 35.136 91.9307 35.136 92.72C35.136 93.4987 35.2427 94.16 35.456 94.704C35.68 95.248 36 95.6587 36.416 95.936C36.832 96.2133 37.3387 96.352 37.936 96.352C38.5227 96.352 39.024 96.2133 39.44 95.936C39.856 95.6587 40.1707 95.248 40.384 94.704C40.608 94.16 40.72 93.4987 40.72 92.72C40.72 91.9307 40.608 91.2693 40.384 90.736C40.1707 90.192 39.856 89.7813 39.44 89.504C39.024 89.2267 38.5227 89.088 37.936 89.088ZM44.9645 101.36V90H46.9325L47.0765 92.544L46.8045 92.256C46.9005 91.7867 47.0765 91.3707 47.3325 91.008C47.5992 90.6453 47.9352 90.3627 48.3405 90.16C48.7458 89.9467 49.1992 89.84 49.7005 89.84C50.3512 89.84 50.9325 90.0053 51.4445 90.336C51.9565 90.6667 52.3565 91.1413 52.6445 91.76C52.9432 92.368 53.0925 93.1093 53.0925 93.984C53.0925 94.8587 52.9432 95.6107 52.6445 96.24C52.3458 96.8587 51.9352 97.3333 51.4125 97.664C50.9005 97.9947 50.3138 98.16 49.6525 98.16C48.9485 98.16 48.3618 97.9627 47.8925 97.568C47.4338 97.1733 47.1192 96.6773 46.9485 96.08L47.1565 95.744V101.36H44.9645ZM49.0125 96.48C49.5992 96.48 50.0578 96.272 50.3885 95.856C50.7298 95.4293 50.9005 94.8107 50.9005 94C50.9005 93.1893 50.7352 92.576 50.4045 92.16C50.0845 91.7333 49.6312 91.52 49.0445 91.52C48.6712 91.52 48.3405 91.6213 48.0525 91.824C47.7752 92.016 47.5565 92.2987 47.3965 92.672C47.2365 93.0347 47.1565 93.4773 47.1565 94C47.1565 94.512 47.2312 94.9547 47.3805 95.328C47.5298 95.7013 47.7432 95.9893 48.0205 96.192C48.3085 96.384 48.6392 96.48 49.0125 96.48ZM58.7078 98.16C57.8651 98.16 57.1291 97.9947 56.4998 97.664C55.8811 97.3333 55.4011 96.8587 55.0598 96.24C54.7184 95.6213 54.5478 94.8747 54.5478 94C54.5478 93.1253 54.7184 92.3787 55.0598 91.76C55.4011 91.1413 55.8758 90.6667 56.4838 90.336C57.1024 90.0053 57.8064 89.84 58.5958 89.84C59.4064 89.84 60.0944 90.0053 60.6598 90.336C61.2251 90.656 61.6571 91.0987 61.9558 91.664C62.2544 92.2187 62.4038 92.8533 62.4038 93.568C62.4038 93.7813 62.3984 93.984 62.3878 94.176C62.3771 94.368 62.3611 94.5387 62.3398 94.688H55.9557V93.168H61.3798L60.3238 93.552C60.3238 92.88 60.1691 92.3627 59.8598 92C59.5611 91.6373 59.1344 91.456 58.5798 91.456C58.1744 91.456 57.8224 91.552 57.5238 91.744C57.2358 91.936 57.0171 92.224 56.8678 92.608C56.7184 92.9813 56.6438 93.456 56.6438 94.032C56.6438 94.5973 56.7238 95.0667 56.8838 95.44C57.0544 95.8027 57.2891 96.0747 57.5878 96.256C57.8971 96.4373 58.2651 96.528 58.6918 96.528C59.1611 96.528 59.5398 96.4373 59.8278 96.256C60.1158 96.0747 60.3398 95.824 60.4998 95.504L62.2438 96.176C62.0731 96.592 61.8118 96.9493 61.4598 97.248C61.1184 97.5467 60.7078 97.776 60.2278 97.936C59.7584 98.0853 59.2518 98.16 58.7078 98.16ZM64.2614 98V90H66.2294L66.3574 92.4L66.0854 92.144C66.2134 91.6213 66.416 91.1893 66.6934 90.848C66.9707 90.5067 67.3067 90.256 67.7014 90.096C68.1067 89.9253 68.5494 89.84 69.0294 89.84C69.584 89.84 70.0747 89.9467 70.5014 90.16C70.9387 90.3733 71.28 90.6987 71.5254 91.136C71.7814 91.5627 71.9094 92.1013 71.9094 92.752V98H69.7174V93.376C69.7174 92.6933 69.584 92.224 69.3174 91.968C69.0507 91.7013 68.704 91.568 68.2774 91.568C67.9787 91.568 67.6854 91.6427 67.3974 91.792C67.12 91.9307 66.8907 92.16 66.7094 92.48C66.5387 92.8 66.4534 93.2267 66.4534 93.76V98H64.2614ZM83.1383 87.28C84.0983 87.28 84.9409 87.4453 85.6663 87.776C86.3916 88.1067 87.0103 88.5973 87.5223 89.248L86.2903 90.672C85.8529 90.1173 85.3729 89.712 84.8503 89.456C84.3383 89.1893 83.7409 89.056 83.0583 89.056C82.6103 89.056 82.2369 89.1147 81.9383 89.232C81.6503 89.3493 81.4369 89.504 81.2983 89.696C81.1703 89.888 81.1063 90.1013 81.1063 90.336C81.1063 90.624 81.2183 90.8693 81.4423 91.072C81.6663 91.264 82.0503 91.424 82.5943 91.552L84.5623 92C85.6076 92.2347 86.3543 92.5867 86.8023 93.056C87.2609 93.5147 87.4903 94.112 87.4903 94.848C87.4903 95.5413 87.3089 96.1387 86.9462 96.64C86.5836 97.1307 86.0769 97.5093 85.4263 97.776C84.7756 98.032 84.0289 98.16 83.1863 98.16C82.4503 98.16 81.7729 98.0747 81.1543 97.904C80.5463 97.7227 80.0023 97.4773 79.5223 97.168C79.0423 96.8587 78.6423 96.5013 78.3223 96.096L79.5703 94.608C79.8156 94.9493 80.1196 95.2533 80.4823 95.52C80.8449 95.7867 81.2556 96 81.7143 96.16C82.1836 96.3093 82.6743 96.384 83.1863 96.384C83.6236 96.384 83.9916 96.336 84.2903 96.24C84.5996 96.1333 84.8289 95.9893 84.9783 95.808C85.1383 95.616 85.2183 95.3867 85.2183 95.12C85.2183 94.8427 85.1223 94.608 84.9303 94.416C84.7489 94.2133 84.4076 94.0587 83.9063 93.952L81.7623 93.472C81.1436 93.3227 80.6103 93.1307 80.1623 92.896C79.7249 92.6507 79.3889 92.3413 79.1543 91.968C78.9303 91.584 78.8183 91.1307 78.8183 90.608C78.8183 89.9787 78.9889 89.4133 79.3303 88.912C79.6716 88.4107 80.1623 88.016 80.8023 87.728C81.4529 87.4293 82.2316 87.28 83.1383 87.28ZM93.0031 89.84C93.8138 89.84 94.5231 90.0053 95.1311 90.336C95.7498 90.6667 96.2298 91.1413 96.5711 91.76C96.9231 92.3787 97.0991 93.1253 97.0991 94C97.0991 94.864 96.9231 95.6107 96.5711 96.24C96.2298 96.8587 95.7498 97.3333 95.1311 97.664C94.5231 97.9947 93.8138 98.16 93.0031 98.16C92.2031 98.16 91.4938 97.9947 90.8751 97.664C90.2565 97.3333 89.7711 96.8587 89.4191 96.24C89.0778 95.6107 88.9071 94.864 88.9071 94C88.9071 93.1253 89.0778 92.3787 89.4191 91.76C89.7711 91.1413 90.2565 90.6667 90.8751 90.336C91.4938 90.0053 92.2031 89.84 93.0031 89.84ZM93.0031 91.472C92.5978 91.472 92.2511 91.568 91.9631 91.76C91.6858 91.9413 91.4725 92.2187 91.3231 92.592C91.1738 92.9653 91.0991 93.4347 91.0991 94C91.0991 94.5653 91.1738 95.0347 91.3231 95.408C91.4725 95.7813 91.6858 96.064 91.9631 96.256C92.2511 96.4373 92.5978 96.528 93.0031 96.528C93.3978 96.528 93.7338 96.4373 94.0111 96.256C94.2991 96.064 94.5178 95.7813 94.6671 95.408C94.8165 95.0347 94.8911 94.5653 94.8911 94C94.8911 93.4347 94.8165 92.9653 94.6671 92.592C94.5178 92.2187 94.2991 91.9413 94.0111 91.76C93.7338 91.568 93.3978 91.472 93.0031 91.472ZM101.717 98.16C101.184 98.16 100.704 98.064 100.277 97.872C99.8506 97.68 99.5093 97.376 99.2533 96.96C99.0079 96.5333 98.8853 95.984 98.8853 95.312V90H101.077V94.784C101.077 95.4027 101.205 95.8347 101.461 96.08C101.717 96.3147 102.085 96.432 102.565 96.432C102.789 96.432 103.008 96.3947 103.221 96.32C103.435 96.2347 103.621 96.1067 103.781 95.936C103.952 95.7653 104.085 95.5467 104.181 95.28C104.277 95.0027 104.325 94.6773 104.325 94.304V90H106.517V98H104.565L104.485 96.608C104.219 97.1413 103.851 97.536 103.381 97.792C102.923 98.0373 102.368 98.16 101.717 98.16ZM108.824 98V90H110.728L110.872 91.568C111.085 91.0133 111.395 90.5867 111.8 90.288C112.216 89.9893 112.733 89.84 113.352 89.84C113.533 89.84 113.699 89.856 113.848 89.888C113.997 89.92 114.12 89.9627 114.216 90.016L113.96 91.856C113.853 91.8133 113.72 91.7813 113.56 91.76C113.411 91.7387 113.213 91.728 112.968 91.728C112.648 91.728 112.339 91.808 112.04 91.968C111.741 92.1173 111.496 92.352 111.304 92.672C111.112 92.9813 111.016 93.376 111.016 93.856V98H108.824ZM119.05 89.84C119.764 89.84 120.367 89.9467 120.858 90.16C121.359 90.3627 121.759 90.6453 122.058 91.008C122.367 91.36 122.586 91.7547 122.714 92.192L120.666 92.928C120.559 92.448 120.378 92.0853 120.122 91.84C119.866 91.5947 119.519 91.472 119.082 91.472C118.676 91.472 118.33 91.568 118.042 91.76C117.754 91.9413 117.535 92.224 117.386 92.608C117.236 92.9813 117.162 93.4507 117.162 94.016C117.162 94.5813 117.236 95.0507 117.386 95.424C117.546 95.7973 117.77 96.0747 118.058 96.256C118.356 96.4373 118.703 96.528 119.098 96.528C119.418 96.528 119.69 96.4747 119.914 96.368C120.138 96.2507 120.319 96.0853 120.458 95.872C120.607 95.6587 120.708 95.4027 120.762 95.104L122.746 95.744C122.628 96.224 122.41 96.6453 122.09 97.008C121.77 97.3707 121.359 97.6533 120.858 97.856C120.356 98.0587 119.775 98.16 119.114 98.16C118.292 98.16 117.567 97.9947 116.938 97.664C116.308 97.3333 115.823 96.8587 115.482 96.24C115.14 95.6213 114.97 94.8747 114.97 94C114.97 93.1253 115.14 92.3787 115.482 91.76C115.823 91.1413 116.303 90.6667 116.922 90.336C117.54 90.0053 118.25 89.84 119.05 89.84ZM128.161 98.16C127.318 98.16 126.582 97.9947 125.953 97.664C125.334 97.3333 124.854 96.8587 124.513 96.24C124.172 95.6213 124.001 94.8747 124.001 94C124.001 93.1253 124.172 92.3787 124.513 91.76C124.854 91.1413 125.329 90.6667 125.937 90.336C126.556 90.0053 127.26 89.84 128.049 89.84C128.86 89.84 129.548 90.0053 130.113 90.336C130.678 90.656 131.11 91.0987 131.409 91.664C131.708 92.2187 131.857 92.8533 131.857 93.568C131.857 93.7813 131.852 93.984 131.841 94.176C131.83 94.368 131.814 94.5387 131.793 94.688H125.409V93.168H130.833L129.777 93.552C129.777 92.88 129.622 92.3627 129.313 92C129.014 91.6373 128.588 91.456 128.033 91.456C127.628 91.456 127.276 91.552 126.977 91.744C126.689 91.936 126.47 92.224 126.321 92.608C126.172 92.9813 126.097 93.456 126.097 94.032C126.097 94.5973 126.177 95.0667 126.337 95.44C126.508 95.8027 126.742 96.0747 127.041 96.256C127.35 96.4373 127.718 96.528 128.145 96.528C128.614 96.528 128.993 96.4373 129.281 96.256C129.569 96.0747 129.793 95.824 129.953 95.504L131.697 96.176C131.526 96.592 131.265 96.9493 130.913 97.248C130.572 97.5467 130.161 97.776 129.681 97.936C129.212 98.0853 128.705 98.16 128.161 98.16Z" fill="#44403C"/>
<path d="M33.376 149V138.44H41.296V140.216H35.584V142.84H40.08V144.536H35.584V147.224H41.52V149H33.376ZM47.837 143.896C47.837 143.437 47.7037 143.08 47.437 142.824C47.181 142.568 46.8397 142.44 46.413 142.44C46.0183 142.44 45.6717 142.541 45.373 142.744C45.0743 142.947 44.8557 143.283 44.717 143.752L42.845 143.176C43.0263 142.472 43.421 141.907 44.029 141.48C44.6477 141.053 45.4743 140.84 46.509 140.84C47.213 140.84 47.8263 140.952 48.349 141.176C48.8717 141.389 49.277 141.715 49.565 142.152C49.8637 142.589 50.013 143.139 50.013 143.8V147.048C50.013 147.453 50.205 147.656 50.589 147.656C50.7703 147.656 50.941 147.629 51.101 147.576L50.973 148.936C50.6957 149.075 50.349 149.144 49.933 149.144C49.5597 149.144 49.2237 149.08 48.925 148.952C48.6263 148.824 48.3917 148.632 48.221 148.376C48.0503 148.109 47.965 147.779 47.965 147.384V147.32L48.349 147.256C48.285 147.661 48.109 148.008 47.821 148.296C47.533 148.573 47.181 148.787 46.765 148.936C46.3597 149.085 45.9383 149.16 45.501 149.16C44.957 149.16 44.4877 149.08 44.093 148.92C43.6983 148.749 43.3943 148.504 43.181 148.184C42.9677 147.864 42.861 147.469 42.861 147C42.861 146.403 43.053 145.917 43.437 145.544C43.821 145.16 44.3703 144.899 45.085 144.76L48.093 144.152L48.077 145.512L46.157 145.896C45.7943 145.971 45.517 146.072 45.325 146.2C45.1437 146.317 45.053 146.515 45.053 146.792C45.053 147.059 45.149 147.261 45.341 147.4C45.5437 147.539 45.7837 147.608 46.061 147.608C46.285 147.608 46.5037 147.581 46.717 147.528C46.9303 147.475 47.1223 147.389 47.293 147.272C47.4637 147.155 47.597 146.995 47.693 146.792C47.789 146.589 47.837 146.344 47.837 146.056V143.896ZM55.6645 149.16C54.8538 149.16 54.1125 149.016 53.4405 148.728C52.7792 148.44 52.2405 148.035 51.8245 147.512L53.0885 146.232C53.3445 146.616 53.6858 146.931 54.1125 147.176C54.5392 147.421 55.0458 147.544 55.6325 147.544C56.0485 147.544 56.3792 147.485 56.6245 147.368C56.8805 147.24 57.0085 147.043 57.0085 146.776C57.0085 146.605 56.9498 146.461 56.8325 146.344C56.7152 146.216 56.4805 146.115 56.1285 146.04L54.7205 145.752C53.7925 145.56 53.1312 145.272 52.7365 144.888C52.3525 144.493 52.1605 143.987 52.1605 143.368C52.1605 142.931 52.2885 142.52 52.5445 142.136C52.8112 141.752 53.2058 141.443 53.7285 141.208C54.2512 140.963 54.9018 140.84 55.6805 140.84C56.4805 140.84 57.1738 140.968 57.7605 141.224C58.3578 141.469 58.8272 141.837 59.1685 142.328L57.8565 143.608C57.6218 143.235 57.3125 142.952 56.9285 142.76C56.5552 142.557 56.1605 142.456 55.7445 142.456C55.4458 142.456 55.1898 142.488 54.9765 142.552C54.7632 142.616 54.6032 142.707 54.4965 142.824C54.3898 142.931 54.3365 143.069 54.3365 143.24C54.3365 143.411 54.4112 143.56 54.5605 143.688C54.7098 143.805 54.9818 143.907 55.3765 143.992L57.0085 144.328C57.7978 144.488 58.3632 144.76 58.7045 145.144C59.0458 145.517 59.2165 145.971 59.2165 146.504C59.2165 147.016 59.0778 147.475 58.8005 147.88C58.5338 148.275 58.1338 148.589 57.6005 148.824C57.0778 149.048 56.4325 149.16 55.6645 149.16ZM68.1876 141L64.9556 149.496C64.6996 150.221 64.4116 150.797 64.0916 151.224C63.7823 151.651 63.4196 151.96 63.0036 152.152C62.5983 152.344 62.113 152.44 61.5476 152.44C61.1316 152.44 60.7476 152.387 60.3956 152.28C60.0543 152.184 59.7556 152.056 59.4996 151.896L59.9636 150.312C60.1663 150.472 60.3796 150.584 60.6036 150.648C60.8276 150.723 61.0836 150.76 61.3716 150.76C61.6703 150.76 61.9263 150.696 62.1396 150.568C62.3636 150.44 62.5503 150.184 62.6996 149.8L62.9716 149.112L62.0916 147.032L59.6436 141H62.0756L63.5956 145.8L64.0116 147.4L64.5076 145.704L65.9636 141H68.1876ZM76.5621 138.552V146.392C76.5621 146.776 76.6581 147.059 76.8501 147.24C77.0528 147.411 77.3248 147.496 77.6661 147.496C77.9328 147.496 78.1675 147.459 78.3701 147.384C78.5728 147.299 78.7541 147.187 78.9141 147.048L79.2661 148.504C79.0101 148.707 78.6901 148.867 78.3061 148.984C77.9221 149.101 77.5168 149.16 77.0901 149.16C76.5568 149.16 76.0821 149.08 75.6661 148.92C75.2608 148.76 74.9408 148.504 74.7061 148.152C74.4821 147.8 74.3701 147.331 74.3701 146.744V139.16L76.5621 138.552ZM79.1221 141V142.632H72.8981V141H79.1221ZM84.2531 140.84C85.0638 140.84 85.7731 141.005 86.3811 141.336C86.9998 141.667 87.4798 142.141 87.8211 142.76C88.1731 143.379 88.3491 144.125 88.3491 145C88.3491 145.864 88.1731 146.611 87.8211 147.24C87.4798 147.859 86.9998 148.333 86.3811 148.664C85.7731 148.995 85.0638 149.16 84.2531 149.16C83.4531 149.16 82.7438 148.995 82.1251 148.664C81.5065 148.333 81.0211 147.859 80.6691 147.24C80.3278 146.611 80.1571 145.864 80.1571 145C80.1571 144.125 80.3278 143.379 80.6691 142.76C81.0211 142.141 81.5065 141.667 82.1251 141.336C82.7438 141.005 83.4531 140.84 84.2531 140.84ZM84.2531 142.472C83.8478 142.472 83.5011 142.568 83.2131 142.76C82.9358 142.941 82.7225 143.219 82.5731 143.592C82.4238 143.965 82.3491 144.435 82.3491 145C82.3491 145.565 82.4238 146.035 82.5731 146.408C82.7225 146.781 82.9358 147.064 83.2131 147.256C83.5011 147.437 83.8478 147.528 84.2531 147.528C84.6478 147.528 84.9838 147.437 85.2611 147.256C85.5491 147.064 85.7678 146.781 85.9171 146.408C86.0665 146.035 86.1411 145.565 86.1411 145C86.1411 144.435 86.0665 143.965 85.9171 143.592C85.7678 143.219 85.5491 142.941 85.2611 142.76C84.9838 142.568 84.6478 142.472 84.2531 142.472ZM104.114 138.44V144.84C104.114 146.28 103.73 147.363 102.962 148.088C102.194 148.803 101.074 149.16 99.6019 149.16C98.1299 149.16 97.0099 148.803 96.2419 148.088C95.4739 147.363 95.0899 146.28 95.0899 144.84V138.44H97.2979V144.744C97.2979 145.629 97.4845 146.285 97.8579 146.712C98.2419 147.139 98.8232 147.352 99.6019 147.352C100.381 147.352 100.957 147.139 101.33 146.712C101.703 146.285 101.89 145.629 101.89 144.744V138.44H104.114ZM109.555 149.16C108.744 149.16 108.003 149.016 107.331 148.728C106.67 148.44 106.131 148.035 105.715 147.512L106.979 146.232C107.235 146.616 107.576 146.931 108.003 147.176C108.43 147.421 108.936 147.544 109.523 147.544C109.939 147.544 110.27 147.485 110.515 147.368C110.771 147.24 110.899 147.043 110.899 146.776C110.899 146.605 110.84 146.461 110.723 146.344C110.606 146.216 110.371 146.115 110.019 146.04L108.611 145.752C107.683 145.56 107.022 145.272 106.627 144.888C106.243 144.493 106.051 143.987 106.051 143.368C106.051 142.931 106.179 142.52 106.435 142.136C106.702 141.752 107.096 141.443 107.619 141.208C108.142 140.963 108.792 140.84 109.571 140.84C110.371 140.84 111.064 140.968 111.651 141.224C112.248 141.469 112.718 141.837 113.059 142.328L111.747 143.608C111.512 143.235 111.203 142.952 110.819 142.76C110.446 142.557 110.051 142.456 109.635 142.456C109.336 142.456 109.08 142.488 108.867 142.552C108.654 142.616 108.494 142.707 108.387 142.824C108.28 142.931 108.227 143.069 108.227 143.24C108.227 143.411 108.302 143.56 108.451 143.688C108.6 143.805 108.872 143.907 109.267 143.992L110.899 144.328C111.688 144.488 112.254 144.76 112.595 145.144C112.936 145.517 113.107 145.971 113.107 146.504C113.107 147.016 112.968 147.475 112.691 147.88C112.424 148.275 112.024 148.589 111.491 148.824C110.968 149.048 110.323 149.16 109.555 149.16ZM118.536 149.16C117.693 149.16 116.957 148.995 116.328 148.664C115.709 148.333 115.229 147.859 114.888 147.24C114.547 146.621 114.376 145.875 114.376 145C114.376 144.125 114.547 143.379 114.888 142.76C115.229 142.141 115.704 141.667 116.312 141.336C116.931 141.005 117.635 140.84 118.424 140.84C119.235 140.84 119.923 141.005 120.488 141.336C121.053 141.656 121.485 142.099 121.784 142.664C122.083 143.219 122.232 143.853 122.232 144.568C122.232 144.781 122.227 144.984 122.216 145.176C122.205 145.368 122.189 145.539 122.168 145.688H115.784V144.168H121.208L120.152 144.552C120.152 143.88 119.997 143.363 119.688 143C119.389 142.637 118.963 142.456 118.408 142.456C118.003 142.456 117.651 142.552 117.352 142.744C117.064 142.936 116.845 143.224 116.696 143.608C116.547 143.981 116.472 144.456 116.472 145.032C116.472 145.597 116.552 146.067 116.712 146.44C116.883 146.803 117.117 147.075 117.416 147.256C117.725 147.437 118.093 147.528 118.52 147.528C118.989 147.528 119.368 147.437 119.656 147.256C119.944 147.075 120.168 146.824 120.328 146.504L122.072 147.176C121.901 147.592 121.64 147.949 121.288 148.248C120.947 148.547 120.536 148.776 120.056 148.936C119.587 149.085 119.08 149.16 118.536 149.16Z" fill="#44403C"/>
<path d="M42.448 189.44V200H40.24V189.44H42.448ZM35.584 189.44V200H33.376V189.44H35.584ZM41.392 193.776V195.552H34.48V193.776H41.392ZM46.0841 190.848C45.6255 190.848 45.2841 190.752 45.0601 190.56C44.8361 190.357 44.7241 190.064 44.7241 189.68C44.7241 189.285 44.8361 188.992 45.0601 188.8C45.2841 188.597 45.6255 188.496 46.0841 188.496C46.5428 188.496 46.8841 188.597 47.1081 188.8C47.3321 188.992 47.4441 189.285 47.4441 189.68C47.4441 190.064 47.3321 190.357 47.1081 190.56C46.8841 190.752 46.5428 190.848 46.0841 190.848ZM47.1721 192V200H44.9801V192H47.1721ZM56.8718 190.096L57.1278 191.664C57.0851 191.664 57.0371 191.664 56.9838 191.664C56.9411 191.653 56.8931 191.648 56.8398 191.648C56.3491 191.648 55.9811 191.76 55.7358 191.984C55.4904 192.197 55.3678 192.496 55.3678 192.88L54.4718 192.512C54.4718 192.085 54.5571 191.691 54.7278 191.328C54.8984 190.955 55.1491 190.656 55.4798 190.432C55.8211 190.208 56.2264 190.096 56.6958 190.096C56.7171 190.096 56.7438 190.096 56.7758 190.096C56.8078 190.096 56.8398 190.096 56.8718 190.096ZM54.2478 198.496C55.1118 198.496 55.7784 198.683 56.2478 199.056C56.7171 199.429 56.9518 199.952 56.9518 200.624C56.9518 201.232 56.7758 201.744 56.4237 202.16C56.0718 202.587 55.5758 202.907 54.9358 203.12C54.3064 203.333 53.5758 203.44 52.7438 203.44C51.3678 203.44 50.3598 203.248 49.7198 202.864C49.0904 202.48 48.7758 201.979 48.7758 201.36C48.7758 200.923 48.9411 200.555 49.2718 200.256C49.6131 199.957 50.1731 199.792 50.9518 199.76L50.8718 200.016C50.3171 199.92 49.8904 199.739 49.5918 199.472C49.3038 199.195 49.1598 198.816 49.1598 198.336C49.1598 197.845 49.3464 197.445 49.7198 197.136C50.1038 196.816 50.6211 196.629 51.2718 196.576L52.2318 197.024H52.0078C51.5491 197.056 51.2238 197.152 51.0318 197.312C50.8504 197.461 50.7598 197.632 50.7598 197.824C50.7598 198.048 50.8451 198.219 51.0158 198.336C51.1971 198.443 51.4531 198.496 51.7838 198.496H54.2478ZM52.7598 201.936C53.3144 201.936 53.7678 201.888 54.1198 201.792C54.4824 201.696 54.7491 201.573 54.9198 201.424C55.1011 201.275 55.1918 201.109 55.1918 200.928C55.1918 200.725 55.1118 200.56 54.9518 200.432C54.7918 200.315 54.5038 200.256 54.0878 200.256H51.3838C51.1278 200.256 50.9144 200.32 50.7438 200.448C50.5838 200.576 50.5038 200.752 50.5038 200.976C50.5038 201.275 50.7011 201.509 51.0958 201.68C51.5011 201.851 52.0558 201.936 52.7598 201.936ZM52.7758 191.84C53.5224 191.84 54.1678 191.952 54.7118 192.176C55.2664 192.389 55.6878 192.699 55.9758 193.104C56.2744 193.509 56.4237 193.995 56.4237 194.56C56.4237 195.115 56.2744 195.595 55.9758 196C55.6878 196.405 55.2664 196.72 54.7118 196.944C54.1678 197.157 53.5224 197.264 52.7758 197.264C51.5918 197.264 50.6851 197.024 50.0558 196.544C49.4371 196.053 49.1278 195.392 49.1278 194.56C49.1278 193.995 49.2718 193.509 49.5598 193.104C49.8584 192.699 50.2798 192.389 50.8238 192.176C51.3678 191.952 52.0184 191.84 52.7758 191.84ZM52.7758 193.216C52.3491 193.216 51.9971 193.333 51.7198 193.568C51.4424 193.803 51.3038 194.128 51.3038 194.544C51.3038 194.96 51.4424 195.291 51.7198 195.536C51.9971 195.771 52.3491 195.888 52.7758 195.888C53.2024 195.888 53.5491 195.771 53.8158 195.536C54.0931 195.291 54.2318 194.96 54.2318 194.544C54.2318 194.128 54.0931 193.803 53.8158 193.568C53.5491 193.333 53.2024 193.216 52.7758 193.216ZM58.277 200V188.496H60.469V193.36C60.725 192.848 61.077 192.469 61.525 192.224C61.973 191.968 62.4797 191.84 63.045 191.84C63.5997 191.84 64.0903 191.947 64.517 192.16C64.9543 192.373 65.2957 192.699 65.541 193.136C65.797 193.563 65.925 194.101 65.925 194.752V200H63.733V195.392C63.733 194.699 63.5997 194.224 63.333 193.968C63.0663 193.701 62.725 193.568 62.309 193.568C61.9997 193.568 61.701 193.643 61.413 193.792C61.1357 193.931 60.9063 194.165 60.725 194.496C60.5543 194.816 60.469 195.243 60.469 195.776V200H58.277ZM70.3433 188.496V197.536C70.3433 197.909 70.4073 198.171 70.5353 198.32C70.6633 198.469 70.8766 198.544 71.1753 198.544C71.3566 198.544 71.5059 198.533 71.6233 198.512C71.7406 198.48 71.8899 198.437 72.0713 198.384L71.8793 199.824C71.6979 199.931 71.4686 200.011 71.1913 200.064C70.9246 200.128 70.6579 200.16 70.3913 200.16C69.6126 200.16 69.0419 199.973 68.6793 199.6C68.3273 199.216 68.1513 198.608 68.1513 197.776V188.496H70.3433ZM80.4845 192L77.2525 200.496C76.9965 201.221 76.7085 201.797 76.3885 202.224C76.0792 202.651 75.7165 202.96 75.3005 203.152C74.8952 203.344 74.4098 203.44 73.8445 203.44C73.4285 203.44 73.0445 203.387 72.6925 203.28C72.3512 203.184 72.0525 203.056 71.7965 202.896L72.2605 201.312C72.4632 201.472 72.6765 201.584 72.9005 201.648C73.1245 201.723 73.3805 201.76 73.6685 201.76C73.9672 201.76 74.2232 201.696 74.4365 201.568C74.6605 201.44 74.8472 201.184 74.9965 200.8L75.2685 200.112L74.3885 198.032L71.9405 192H74.3725L75.8925 196.8L76.3085 198.4L76.8045 196.704L78.2605 192H80.4845ZM95.4785 197.088C95.2758 197.771 94.9558 198.341 94.5185 198.8C94.0812 199.259 93.5638 199.6 92.9665 199.824C92.3692 200.048 91.7132 200.16 90.9985 200.16C89.9532 200.16 89.0465 199.941 88.2785 199.504C87.5212 199.067 86.9345 198.443 86.5185 197.632C86.1132 196.821 85.9105 195.851 85.9105 194.72C85.9105 193.589 86.1132 192.619 86.5185 191.808C86.9345 190.997 87.5212 190.373 88.2785 189.936C89.0465 189.499 89.9425 189.28 90.9665 189.28C91.6918 189.28 92.3478 189.381 92.9345 189.584C93.5212 189.776 94.0172 190.075 94.4225 190.48C94.8385 190.885 95.1425 191.397 95.3345 192.016L93.3345 192.864C93.1532 192.224 92.8758 191.771 92.5025 191.504C92.1292 191.227 91.6492 191.088 91.0625 191.088C90.4865 191.088 89.9798 191.227 89.5425 191.504C89.1158 191.781 88.7852 192.192 88.5505 192.736C88.3158 193.269 88.1985 193.931 88.1985 194.72C88.1985 195.499 88.3052 196.16 88.5185 196.704C88.7425 197.248 89.0678 197.659 89.4945 197.936C89.9212 198.213 90.4438 198.352 91.0625 198.352C91.6385 198.352 92.1345 198.197 92.5505 197.888C92.9772 197.579 93.2758 197.109 93.4465 196.48L95.4785 197.088ZM99.9204 200.16C99.387 200.16 98.907 200.064 98.4804 199.872C98.0537 199.68 97.7124 199.376 97.4564 198.96C97.211 198.533 97.0884 197.984 97.0884 197.312V192H99.2804V196.784C99.2804 197.403 99.4084 197.835 99.6644 198.08C99.9204 198.315 100.288 198.432 100.768 198.432C100.992 198.432 101.211 198.395 101.424 198.32C101.638 198.235 101.824 198.107 101.984 197.936C102.155 197.765 102.288 197.547 102.384 197.28C102.48 197.003 102.528 196.677 102.528 196.304V192H104.72V200H102.768L102.688 198.608C102.422 199.141 102.054 199.536 101.584 199.792C101.126 200.037 100.571 200.16 99.9204 200.16ZM110.227 200.16C109.416 200.16 108.675 200.016 108.003 199.728C107.342 199.44 106.803 199.035 106.387 198.512L107.651 197.232C107.907 197.616 108.248 197.931 108.675 198.176C109.102 198.421 109.608 198.544 110.195 198.544C110.611 198.544 110.942 198.485 111.187 198.368C111.443 198.24 111.571 198.043 111.571 197.776C111.571 197.605 111.512 197.461 111.395 197.344C111.278 197.216 111.043 197.115 110.691 197.04L109.283 196.752C108.355 196.56 107.694 196.272 107.299 195.888C106.915 195.493 106.723 194.987 106.723 194.368C106.723 193.931 106.851 193.52 107.107 193.136C107.374 192.752 107.768 192.443 108.291 192.208C108.814 191.963 109.464 191.84 110.243 191.84C111.043 191.84 111.736 191.968 112.323 192.224C112.92 192.469 113.39 192.837 113.731 193.328L112.419 194.608C112.184 194.235 111.875 193.952 111.491 193.76C111.118 193.557 110.723 193.456 110.307 193.456C110.008 193.456 109.752 193.488 109.539 193.552C109.326 193.616 109.166 193.707 109.059 193.824C108.952 193.931 108.899 194.069 108.899 194.24C108.899 194.411 108.974 194.56 109.123 194.688C109.272 194.805 109.544 194.907 109.939 194.992L111.571 195.328C112.36 195.488 112.926 195.76 113.267 196.144C113.608 196.517 113.779 196.971 113.779 197.504C113.779 198.016 113.64 198.475 113.363 198.88C113.096 199.275 112.696 199.589 112.163 199.824C111.64 200.048 110.995 200.16 110.227 200.16ZM118.359 189.552V197.392C118.359 197.776 118.455 198.059 118.647 198.24C118.85 198.411 119.122 198.496 119.463 198.496C119.73 198.496 119.964 198.459 120.167 198.384C120.37 198.299 120.551 198.187 120.711 198.048L121.063 199.504C120.807 199.707 120.487 199.867 120.103 199.984C119.719 200.101 119.314 200.16 118.887 200.16C118.354 200.16 117.879 200.08 117.463 199.92C117.058 199.76 116.738 199.504 116.503 199.152C116.279 198.8 116.167 198.331 116.167 197.744V190.16L118.359 189.552ZM120.919 192V193.632H114.695V192H120.919ZM126.05 191.84C126.861 191.84 127.57 192.005 128.178 192.336C128.797 192.667 129.277 193.141 129.618 193.76C129.97 194.379 130.146 195.125 130.146 196C130.146 196.864 129.97 197.611 129.618 198.24C129.277 198.859 128.797 199.333 128.178 199.664C127.57 199.995 126.861 200.16 126.05 200.16C125.25 200.16 124.541 199.995 123.922 199.664C123.303 199.333 122.818 198.859 122.466 198.24C122.125 197.611 121.954 196.864 121.954 196C121.954 195.125 122.125 194.379 122.466 193.76C122.818 193.141 123.303 192.667 123.922 192.336C124.541 192.005 125.25 191.84 126.05 191.84ZM126.05 193.472C125.645 193.472 125.298 193.568 125.01 193.76C124.733 193.941 124.519 194.219 124.37 194.592C124.221 194.965 124.146 195.435 124.146 196C124.146 196.565 124.221 197.035 124.37 197.408C124.519 197.781 124.733 198.064 125.01 198.256C125.298 198.437 125.645 198.528 126.05 198.528C126.445 198.528 126.781 198.437 127.058 198.256C127.346 198.064 127.565 197.781 127.714 197.408C127.863 197.035 127.938 196.565 127.938 196C127.938 195.435 127.863 194.965 127.714 194.592C127.565 194.219 127.346 193.941 127.058 193.76C126.781 193.568 126.445 193.472 126.05 193.472ZM131.98 200V192H133.948L134.028 193.44C134.295 192.907 134.657 192.507 135.116 192.24C135.585 191.973 136.103 191.84 136.668 191.84C137.244 191.84 137.761 191.973 138.22 192.24C138.689 192.507 139.041 192.901 139.276 193.424C139.447 193.072 139.676 192.779 139.964 192.544C140.252 192.309 140.572 192.133 140.924 192.016C141.276 191.899 141.633 191.84 141.996 191.84C142.519 191.84 142.993 191.947 143.42 192.16C143.857 192.373 144.204 192.693 144.46 193.12C144.716 193.547 144.844 194.091 144.844 194.752V200H142.652V195.184C142.652 194.597 142.524 194.181 142.268 193.936C142.012 193.691 141.681 193.568 141.276 193.568C140.956 193.568 140.657 193.648 140.38 193.808C140.113 193.968 139.9 194.208 139.74 194.528C139.591 194.837 139.516 195.227 139.516 195.696V200H137.324V195.184C137.324 194.597 137.191 194.181 136.924 193.936C136.668 193.691 136.337 193.568 135.932 193.568C135.655 193.568 135.377 193.643 135.1 193.792C134.833 193.941 134.609 194.176 134.428 194.496C134.257 194.816 134.172 195.237 134.172 195.76V200H131.98ZM148.209 190.848C147.75 190.848 147.409 190.752 147.185 190.56C146.961 190.357 146.849 190.064 146.849 189.68C146.849 189.285 146.961 188.992 147.185 188.8C147.409 188.597 147.75 188.496 148.209 188.496C148.668 188.496 149.009 188.597 149.233 188.8C149.457 188.992 149.569 189.285 149.569 189.68C149.569 190.064 149.457 190.357 149.233 190.56C149.009 190.752 148.668 190.848 148.209 190.848ZM149.297 192V200H147.105V192H149.297ZM151.157 200V198.592L154.709 194.496L155.621 193.584L154.293 193.616H151.189V192H158.053V193.408L154.517 197.488L153.605 198.416L155.061 198.384H158.181V200H151.157ZM164.556 194.896C164.556 194.437 164.422 194.08 164.156 193.824C163.9 193.568 163.558 193.44 163.132 193.44C162.737 193.44 162.39 193.541 162.092 193.744C161.793 193.947 161.574 194.283 161.436 194.752L159.564 194.176C159.745 193.472 160.14 192.907 160.748 192.48C161.366 192.053 162.193 191.84 163.228 191.84C163.932 191.84 164.545 191.952 165.068 192.176C165.59 192.389 165.996 192.715 166.284 193.152C166.582 193.589 166.732 194.139 166.732 194.8V198.048C166.732 198.453 166.924 198.656 167.308 198.656C167.489 198.656 167.66 198.629 167.82 198.576L167.692 199.936C167.414 200.075 167.068 200.144 166.652 200.144C166.278 200.144 165.942 200.08 165.644 199.952C165.345 199.824 165.11 199.632 164.94 199.376C164.769 199.109 164.684 198.779 164.684 198.384V198.32L165.068 198.256C165.004 198.661 164.828 199.008 164.54 199.296C164.252 199.573 163.9 199.787 163.484 199.936C163.078 200.085 162.657 200.16 162.22 200.16C161.676 200.16 161.206 200.08 160.812 199.92C160.417 199.749 160.113 199.504 159.9 199.184C159.686 198.864 159.58 198.469 159.58 198C159.58 197.403 159.772 196.917 160.156 196.544C160.54 196.16 161.089 195.899 161.804 195.76L164.812 195.152L164.796 196.512L162.876 196.896C162.513 196.971 162.236 197.072 162.044 197.2C161.862 197.317 161.772 197.515 161.772 197.792C161.772 198.059 161.868 198.261 162.06 198.4C162.262 198.539 162.502 198.608 162.78 198.608C163.004 198.608 163.222 198.581 163.436 198.528C163.649 198.475 163.841 198.389 164.012 198.272C164.182 198.155 164.316 197.995 164.412 197.792C164.508 197.589 164.556 197.344 164.556 197.056V194.896ZM173.887 200.16C173.397 200.16 172.949 200.059 172.543 199.856C172.149 199.643 171.818 199.355 171.551 198.992C171.295 198.619 171.119 198.203 171.023 197.744L171.247 197.456L171.119 200H169.183V188.496H171.375V194.256L171.167 193.92C171.338 193.323 171.663 192.827 172.143 192.432C172.623 192.037 173.226 191.84 173.951 191.84C174.581 191.84 175.151 192.005 175.663 192.336C176.175 192.667 176.575 193.141 176.863 193.76C177.162 194.379 177.311 195.131 177.311 196.016C177.311 196.88 177.162 197.621 176.863 198.24C176.575 198.859 176.17 199.333 175.647 199.664C175.135 199.995 174.549 200.16 173.887 200.16ZM173.231 198.48C173.818 198.48 174.277 198.272 174.607 197.856C174.949 197.429 175.119 196.811 175.119 196C175.119 195.189 174.954 194.576 174.623 194.16C174.293 193.733 173.834 193.52 173.247 193.52C172.863 193.52 172.533 193.621 172.255 193.824C171.978 194.027 171.759 194.315 171.599 194.688C171.45 195.061 171.375 195.504 171.375 196.016C171.375 196.539 171.45 196.987 171.599 197.36C171.759 197.723 171.978 198 172.255 198.192C172.543 198.384 172.869 198.48 173.231 198.48ZM181.375 188.496V197.536C181.375 197.909 181.439 198.171 181.567 198.32C181.695 198.469 181.908 198.544 182.207 198.544C182.388 198.544 182.537 198.533 182.655 198.512C182.772 198.48 182.921 198.437 183.103 198.384L182.911 199.824C182.729 199.931 182.5 200.011 182.223 200.064C181.956 200.128 181.689 200.16 181.423 200.16C180.644 200.16 180.073 199.973 179.711 199.6C179.359 199.216 179.183 198.608 179.183 197.776V188.496H181.375ZM188.036 200.16C187.193 200.16 186.457 199.995 185.828 199.664C185.209 199.333 184.729 198.859 184.388 198.24C184.047 197.621 183.876 196.875 183.876 196C183.876 195.125 184.047 194.379 184.388 193.76C184.729 193.141 185.204 192.667 185.812 192.336C186.431 192.005 187.135 191.84 187.924 191.84C188.735 191.84 189.423 192.005 189.988 192.336C190.553 192.656 190.985 193.099 191.284 193.664C191.583 194.219 191.732 194.853 191.732 195.568C191.732 195.781 191.727 195.984 191.716 196.176C191.705 196.368 191.689 196.539 191.668 196.688H185.284V195.168H190.708L189.652 195.552C189.652 194.88 189.497 194.363 189.188 194C188.889 193.637 188.463 193.456 187.908 193.456C187.503 193.456 187.151 193.552 186.852 193.744C186.564 193.936 186.345 194.224 186.196 194.608C186.047 194.981 185.972 195.456 185.972 196.032C185.972 196.597 186.052 197.067 186.212 197.44C186.383 197.803 186.617 198.075 186.916 198.256C187.225 198.437 187.593 198.528 188.02 198.528C188.489 198.528 188.868 198.437 189.156 198.256C189.444 198.075 189.668 197.824 189.828 197.504L191.572 198.176C191.401 198.592 191.14 198.949 190.788 199.248C190.447 199.547 190.036 199.776 189.556 199.936C189.087 200.085 188.58 200.16 188.036 200.16Z" fill="#44403C"/>
<path d="M38.032 240.44C39.2267 240.44 40.1653 240.728 40.848 241.304C41.5307 241.88 41.872 242.653 41.872 243.624C41.872 244.659 41.5307 245.453 40.848 246.008C40.1653 246.552 39.232 246.824 38.048 246.824L37.824 246.952H35.552V251H33.376V240.44H38.032ZM37.776 245.272C38.3947 245.272 38.8533 245.149 39.152 244.904C39.4613 244.648 39.616 244.259 39.616 243.736C39.616 243.213 39.4613 242.829 39.152 242.584C38.8533 242.328 38.3947 242.2 37.776 242.2H35.552V245.272H37.776ZM39.072 245.736L42.496 251H40.016L37.184 246.376L39.072 245.736ZM47.5828 251.16C46.7401 251.16 46.0041 250.995 45.3748 250.664C44.7561 250.333 44.2761 249.859 43.9348 249.24C43.5934 248.621 43.4228 247.875 43.4228 247C43.4228 246.125 43.5934 245.379 43.9348 244.76C44.2761 244.141 44.7508 243.667 45.3588 243.336C45.9774 243.005 46.6814 242.84 47.4708 242.84C48.2814 242.84 48.9694 243.005 49.5348 243.336C50.1001 243.656 50.5321 244.099 50.8308 244.664C51.1294 245.219 51.2788 245.853 51.2788 246.568C51.2788 246.781 51.2734 246.984 51.2628 247.176C51.2521 247.368 51.2361 247.539 51.2148 247.688H44.8307V246.168H50.2548L49.1988 246.552C49.1988 245.88 49.0441 245.363 48.7348 245C48.4361 244.637 48.0094 244.456 47.4548 244.456C47.0494 244.456 46.6974 244.552 46.3988 244.744C46.1108 244.936 45.8921 245.224 45.7428 245.608C45.5934 245.981 45.5188 246.456 45.5188 247.032C45.5188 247.597 45.5988 248.067 45.7588 248.44C45.9294 248.803 46.1641 249.075 46.4628 249.256C46.7721 249.437 47.1401 249.528 47.5668 249.528C48.0361 249.528 48.4148 249.437 48.7028 249.256C48.9908 249.075 49.2148 248.824 49.3748 248.504L51.1188 249.176C50.9481 249.592 50.6868 249.949 50.3348 250.248C49.9934 250.547 49.5828 250.776 49.1028 250.936C48.6334 251.085 48.1268 251.16 47.5828 251.16ZM55.9204 251.16C55.387 251.16 54.907 251.064 54.4804 250.872C54.0537 250.68 53.7124 250.376 53.4564 249.96C53.211 249.533 53.0884 248.984 53.0884 248.312V243H55.2804V247.784C55.2804 248.403 55.4084 248.835 55.6644 249.08C55.9204 249.315 56.2884 249.432 56.7684 249.432C56.9924 249.432 57.211 249.395 57.4244 249.32C57.6377 249.235 57.8244 249.107 57.9844 248.936C58.155 248.765 58.2884 248.547 58.3844 248.28C58.4804 248.003 58.5284 247.677 58.5284 247.304V243H60.7204V251H58.7684L58.6884 249.608C58.4217 250.141 58.0537 250.536 57.5844 250.792C57.1257 251.037 56.571 251.16 55.9204 251.16ZM66.227 251.16C65.4163 251.16 64.675 251.016 64.003 250.728C63.3417 250.44 62.803 250.035 62.387 249.512L63.651 248.232C63.907 248.616 64.2483 248.931 64.675 249.176C65.1017 249.421 65.6083 249.544 66.195 249.544C66.611 249.544 66.9417 249.485 67.187 249.368C67.443 249.24 67.571 249.043 67.571 248.776C67.571 248.605 67.5123 248.461 67.395 248.344C67.2777 248.216 67.043 248.115 66.691 248.04L65.283 247.752C64.355 247.56 63.6937 247.272 63.299 246.888C62.915 246.493 62.723 245.987 62.723 245.368C62.723 244.931 62.851 244.52 63.107 244.136C63.3737 243.752 63.7683 243.443 64.291 243.208C64.8137 242.963 65.4643 242.84 66.243 242.84C67.043 242.84 67.7363 242.968 68.323 243.224C68.9203 243.469 69.3897 243.837 69.731 244.328L68.419 245.608C68.1843 245.235 67.875 244.952 67.491 244.76C67.1177 244.557 66.723 244.456 66.307 244.456C66.0083 244.456 65.7523 244.488 65.539 244.552C65.3257 244.616 65.1657 244.707 65.059 244.824C64.9523 244.931 64.899 245.069 64.899 245.24C64.899 245.411 64.9737 245.56 65.123 245.688C65.2723 245.805 65.5443 245.907 65.939 245.992L67.571 246.328C68.3603 246.488 68.9257 246.76 69.267 247.144C69.6083 247.517 69.779 247.971 69.779 248.504C69.779 249.016 69.6403 249.475 69.363 249.88C69.0963 250.275 68.6963 250.589 68.163 250.824C67.6403 251.048 66.995 251.16 66.227 251.16ZM76.087 245.896C76.087 245.437 75.9537 245.08 75.687 244.824C75.431 244.568 75.0897 244.44 74.663 244.44C74.2683 244.44 73.9217 244.541 73.623 244.744C73.3243 244.947 73.1057 245.283 72.967 245.752L71.095 245.176C71.2763 244.472 71.671 243.907 72.279 243.48C72.8977 243.053 73.7243 242.84 74.759 242.84C75.463 242.84 76.0763 242.952 76.599 243.176C77.1217 243.389 77.527 243.715 77.815 244.152C78.1137 244.589 78.263 245.139 78.263 245.8V249.048C78.263 249.453 78.455 249.656 78.839 249.656C79.0203 249.656 79.191 249.629 79.351 249.576L79.223 250.936C78.9457 251.075 78.599 251.144 78.183 251.144C77.8097 251.144 77.4737 251.08 77.175 250.952C76.8763 250.824 76.6417 250.632 76.471 250.376C76.3003 250.109 76.215 249.779 76.215 249.384V249.32L76.599 249.256C76.535 249.661 76.359 250.008 76.071 250.296C75.783 250.573 75.431 250.787 75.015 250.936C74.6097 251.085 74.1883 251.16 73.751 251.16C73.207 251.16 72.7377 251.08 72.343 250.92C71.9483 250.749 71.6443 250.504 71.431 250.184C71.2177 249.864 71.111 249.469 71.111 249C71.111 248.403 71.303 247.917 71.687 247.544C72.071 247.16 72.6203 246.899 73.335 246.76L76.343 246.152L76.327 247.512L74.407 247.896C74.0443 247.971 73.767 248.072 73.575 248.2C73.3937 248.317 73.303 248.515 73.303 248.792C73.303 249.059 73.399 249.261 73.591 249.4C73.7937 249.539 74.0337 249.608 74.311 249.608C74.535 249.608 74.7537 249.581 74.967 249.528C75.1803 249.475 75.3723 249.389 75.543 249.272C75.7137 249.155 75.847 248.995 75.943 248.792C76.039 248.589 76.087 248.344 76.087 248.056V245.896ZM85.4185 251.16C84.9278 251.16 84.4798 251.059 84.0745 250.856C83.6798 250.643 83.3492 250.355 83.0825 249.992C82.8265 249.619 82.6505 249.203 82.5545 248.744L82.7785 248.456L82.6505 251H80.7145V239.496H82.9065V245.256L82.6985 244.92C82.8692 244.323 83.1945 243.827 83.6745 243.432C84.1545 243.037 84.7572 242.84 85.4825 242.84C86.1118 242.84 86.6825 243.005 87.1945 243.336C87.7065 243.667 88.1065 244.141 88.3945 244.76C88.6932 245.379 88.8425 246.131 88.8425 247.016C88.8425 247.88 88.6932 248.621 88.3945 249.24C88.1065 249.859 87.7012 250.333 87.1785 250.664C86.6665 250.995 86.0798 251.16 85.4185 251.16ZM84.7625 249.48C85.3492 249.48 85.8078 249.272 86.1385 248.856C86.4798 248.429 86.6505 247.811 86.6505 247C86.6505 246.189 86.4852 245.576 86.1545 245.16C85.8238 244.733 85.3652 244.52 84.7785 244.52C84.3945 244.52 84.0638 244.621 83.7865 244.824C83.5092 245.027 83.2905 245.315 83.1305 245.688C82.9812 246.061 82.9065 246.504 82.9065 247.016C82.9065 247.539 82.9812 247.987 83.1305 248.36C83.2905 248.723 83.5092 249 83.7865 249.192C84.0745 249.384 84.3998 249.48 84.7625 249.48ZM92.9058 239.496V248.536C92.9058 248.909 92.9698 249.171 93.0978 249.32C93.2258 249.469 93.4391 249.544 93.7378 249.544C93.9191 249.544 94.0684 249.533 94.1858 249.512C94.3031 249.48 94.4524 249.437 94.6338 249.384L94.4418 250.824C94.2604 250.931 94.0311 251.011 93.7538 251.064C93.4871 251.128 93.2204 251.16 92.9538 251.16C92.1751 251.16 91.6044 250.973 91.2418 250.6C90.8898 250.216 90.7138 249.608 90.7138 248.776V239.496H92.9058ZM99.5671 251.16C98.7245 251.16 97.9885 250.995 97.3591 250.664C96.7405 250.333 96.2605 249.859 95.9191 249.24C95.5778 248.621 95.4071 247.875 95.4071 247C95.4071 246.125 95.5778 245.379 95.9191 244.76C96.2605 244.141 96.7351 243.667 97.3431 243.336C97.9618 243.005 98.6658 242.84 99.4551 242.84C100.266 242.84 100.954 243.005 101.519 243.336C102.084 243.656 102.516 244.099 102.815 244.664C103.114 245.219 103.263 245.853 103.263 246.568C103.263 246.781 103.258 246.984 103.247 247.176C103.236 247.368 103.22 247.539 103.199 247.688H96.8151V246.168H102.239L101.183 246.552C101.183 245.88 101.028 245.363 100.719 245C100.42 244.637 99.9938 244.456 99.4391 244.456C99.0338 244.456 98.6818 244.552 98.3831 244.744C98.0951 244.936 97.8765 245.224 97.7271 245.608C97.5778 245.981 97.5031 246.456 97.5031 247.032C97.5031 247.597 97.5831 248.067 97.7431 248.44C97.9138 248.803 98.1485 249.075 98.4471 249.256C98.7565 249.437 99.1245 249.528 99.5511 249.528C100.02 249.528 100.399 249.437 100.687 249.256C100.975 249.075 101.199 248.824 101.359 248.504L103.103 249.176C102.932 249.592 102.671 249.949 102.319 250.248C101.978 250.547 101.567 250.776 101.087 250.936C100.618 251.085 100.111 251.16 99.5671 251.16ZM114.667 240.44C115.478 240.44 116.171 240.579 116.747 240.856C117.323 241.123 117.766 241.512 118.075 242.024C118.395 242.525 118.555 243.133 118.555 243.848C118.555 244.563 118.395 245.176 118.075 245.688C117.766 246.189 117.323 246.579 116.747 246.856C116.171 247.123 115.478 247.256 114.667 247.256H112.443V251H110.235V240.44H114.667ZM114.331 245.512C114.993 245.512 115.489 245.373 115.819 245.096C116.15 244.808 116.315 244.392 116.315 243.848C116.315 243.293 116.15 242.877 115.819 242.6C115.489 242.323 114.993 242.184 114.331 242.184H112.443V245.512H114.331ZM121.459 241.848C121 241.848 120.659 241.752 120.435 241.56C120.211 241.357 120.099 241.064 120.099 240.68C120.099 240.285 120.211 239.992 120.435 239.8C120.659 239.597 121 239.496 121.459 239.496C121.918 239.496 122.259 239.597 122.483 239.8C122.707 239.992 122.819 240.285 122.819 240.68C122.819 241.064 122.707 241.357 122.483 241.56C122.259 241.752 121.918 241.848 121.459 241.848ZM122.547 243V251H120.355V243H122.547ZM124.871 254.36V243H126.839L126.983 245.544L126.711 245.256C126.807 244.787 126.983 244.371 127.239 244.008C127.505 243.645 127.841 243.363 128.247 243.16C128.652 242.947 129.105 242.84 129.607 242.84C130.257 242.84 130.839 243.005 131.351 243.336C131.863 243.667 132.263 244.141 132.551 244.76C132.849 245.368 132.999 246.109 132.999 246.984C132.999 247.859 132.849 248.611 132.551 249.24C132.252 249.859 131.841 250.333 131.319 250.664C130.807 250.995 130.22 251.16 129.559 251.16C128.855 251.16 128.268 250.963 127.799 250.568C127.34 250.173 127.025 249.677 126.855 249.08L127.063 248.744V254.36H124.871ZM128.919 249.48C129.505 249.48 129.964 249.272 130.295 248.856C130.636 248.429 130.807 247.811 130.807 247C130.807 246.189 130.641 245.576 130.311 245.16C129.991 244.733 129.537 244.52 128.951 244.52C128.577 244.52 128.247 244.621 127.959 244.824C127.681 245.016 127.463 245.299 127.303 245.672C127.143 246.035 127.063 246.477 127.063 247C127.063 247.512 127.137 247.955 127.287 248.328C127.436 248.701 127.649 248.989 127.927 249.192C128.215 249.384 128.545 249.48 128.919 249.48ZM138.614 251.16C137.771 251.16 137.035 250.995 136.406 250.664C135.787 250.333 135.307 249.859 134.966 249.24C134.625 248.621 134.454 247.875 134.454 247C134.454 246.125 134.625 245.379 134.966 244.76C135.307 244.141 135.782 243.667 136.39 243.336C137.009 243.005 137.713 242.84 138.502 242.84C139.313 242.84 140.001 243.005 140.566 243.336C141.131 243.656 141.563 244.099 141.862 244.664C142.161 245.219 142.31 245.853 142.31 246.568C142.31 246.781 142.305 246.984 142.294 247.176C142.283 247.368 142.267 247.539 142.246 247.688H135.862V246.168H141.286L140.23 246.552C140.23 245.88 140.075 245.363 139.766 245C139.467 244.637 139.041 244.456 138.486 244.456C138.081 244.456 137.729 244.552 137.43 244.744C137.142 244.936 136.923 245.224 136.774 245.608C136.625 245.981 136.55 246.456 136.55 247.032C136.55 247.597 136.63 248.067 136.79 248.44C136.961 248.803 137.195 249.075 137.494 249.256C137.803 249.437 138.171 249.528 138.598 249.528C139.067 249.528 139.446 249.437 139.734 249.256C140.022 249.075 140.246 248.824 140.406 248.504L142.15 249.176C141.979 249.592 141.718 249.949 141.366 250.248C141.025 250.547 140.614 250.776 140.134 250.936C139.665 251.085 139.158 251.16 138.614 251.16ZM146.328 239.496V248.536C146.328 248.909 146.392 249.171 146.52 249.32C146.648 249.469 146.861 249.544 147.16 249.544C147.341 249.544 147.49 249.533 147.608 249.512C147.725 249.48 147.874 249.437 148.056 249.384L147.864 250.824C147.682 250.931 147.453 251.011 147.176 251.064C146.909 251.128 146.642 251.16 146.376 251.16C145.597 251.16 145.026 250.973 144.664 250.6C144.312 250.216 144.136 249.608 144.136 248.776V239.496H146.328ZM150.381 241.848C149.922 241.848 149.581 241.752 149.357 241.56C149.133 241.357 149.021 241.064 149.021 240.68C149.021 240.285 149.133 239.992 149.357 239.8C149.581 239.597 149.922 239.496 150.381 239.496C150.84 239.496 151.181 239.597 151.405 239.8C151.629 239.992 151.741 240.285 151.741 240.68C151.741 241.064 151.629 241.357 151.405 241.56C151.181 241.752 150.84 241.848 150.381 241.848ZM151.469 243V251H149.277V243H151.469ZM153.793 251V243H155.761L155.889 245.4L155.617 245.144C155.745 244.621 155.947 244.189 156.225 243.848C156.502 243.507 156.838 243.256 157.233 243.096C157.638 242.925 158.081 242.84 158.561 242.84C159.115 242.84 159.606 242.947 160.033 243.16C160.47 243.373 160.811 243.699 161.057 244.136C161.313 244.563 161.441 245.101 161.441 245.752V251H159.249V246.376C159.249 245.693 159.115 245.224 158.849 244.968C158.582 244.701 158.235 244.568 157.809 244.568C157.51 244.568 157.217 244.643 156.929 244.792C156.651 244.931 156.422 245.16 156.241 245.48C156.07 245.8 155.985 246.227 155.985 246.76V251H153.793ZM167.411 251.16C166.568 251.16 165.832 250.995 165.203 250.664C164.584 250.333 164.104 249.859 163.763 249.24C163.422 248.621 163.251 247.875 163.251 247C163.251 246.125 163.422 245.379 163.763 244.76C164.104 244.141 164.579 243.667 165.187 243.336C165.806 243.005 166.51 242.84 167.299 242.84C168.11 242.84 168.798 243.005 169.363 243.336C169.928 243.656 170.36 244.099 170.659 244.664C170.958 245.219 171.107 245.853 171.107 246.568C171.107 246.781 171.102 246.984 171.091 247.176C171.08 247.368 171.064 247.539 171.043 247.688H164.659V246.168H170.083L169.027 246.552C169.027 245.88 168.872 245.363 168.563 245C168.264 244.637 167.838 244.456 167.283 244.456C166.878 244.456 166.526 244.552 166.227 244.744C165.939 244.936 165.72 245.224 165.571 245.608C165.422 245.981 165.347 246.456 165.347 247.032C165.347 247.597 165.427 248.067 165.587 248.44C165.758 248.803 165.992 249.075 166.291 249.256C166.6 249.437 166.968 249.528 167.395 249.528C167.864 249.528 168.243 249.437 168.531 249.256C168.819 249.075 169.043 248.824 169.203 248.504L170.947 249.176C170.776 249.592 170.515 249.949 170.163 250.248C169.822 250.547 169.411 250.776 168.931 250.936C168.462 251.085 167.955 251.16 167.411 251.16Z" fill="#44403C"/>
<path d="M588.138 35.12C589.998 35.12 591.438 35.636 592.458 36.668C593.478 37.688 593.988 39.152 593.988 41.06C593.988 42.956 593.478 44.42 592.458 45.452C591.438 46.484 589.998 47 588.138 47H583.548V35.12H588.138ZM588.012 45.02C589.14 45.02 589.986 44.684 590.55 44.012C591.126 43.328 591.414 42.344 591.414 41.06C591.414 39.776 591.126 38.798 590.55 38.126C589.986 37.442 589.14 37.1 588.012 37.1H586.032V45.02H588.012ZM598.97 35.12V47H596.486V35.12H598.97ZM611.598 35.12L607.386 42.554V47H604.902V42.554L600.69 35.12H603.336L605.244 38.684L606.144 40.538L607.062 38.684L608.97 35.12H611.598Z" fill="#44403C"/>
<path d="M606.334 85L593.5 97.8333L587.667 92" stroke="#4F46E5" stroke-width="3" stroke-linecap="round" stroke-linejoin="round"/>
<path d="M606.334 187L593.5 199.833L587.667 194" stroke="#4F46E5" stroke-width="3" stroke-linecap="round" stroke-linejoin="round"/>
<path d="M606.334 238L593.5 250.833L587.667 245" stroke="#4F46E5" stroke-width="3" stroke-linecap="round" stroke-linejoin="round"/>
<path d="M248.718 43.724C248.49 44.492 248.13 45.134 247.638 45.65C247.146 46.166 246.564 46.55 245.892 46.802C245.22 47.054 244.482 47.18 243.678 47.18C242.502 47.18 241.482 46.934 240.618 46.442C239.766 45.95 239.106 45.248 238.638 44.336C238.182 43.424 237.954 42.332 237.954 41.06C237.954 39.788 238.182 38.696 238.638 37.784C239.106 36.872 239.766 36.17 240.618 35.678C241.482 35.186 242.49 34.94 243.642 34.94C244.458 34.94 245.196 35.054 245.856 35.282C246.516 35.498 247.074 35.834 247.53 36.29C247.998 36.746 248.34 37.322 248.556 38.018L246.306 38.972C246.102 38.252 245.79 37.742 245.37 37.442C244.95 37.13 244.41 36.974 243.75 36.974C243.102 36.974 242.532 37.13 242.04 37.442C241.56 37.754 241.188 38.216 240.924 38.828C240.66 39.428 240.528 40.172 240.528 41.06C240.528 41.936 240.648 42.68 240.888 43.292C241.14 43.904 241.506 44.366 241.986 44.678C242.466 44.99 243.054 45.146 243.75 45.146C244.398 45.146 244.956 44.972 245.424 44.624C245.904 44.276 246.24 43.748 246.432 43.04L248.718 43.724ZM254.687 37.82C255.599 37.82 256.397 38.006 257.081 38.378C257.777 38.75 258.317 39.284 258.701 39.98C259.097 40.676 259.295 41.516 259.295 42.5C259.295 43.472 259.097 44.312 258.701 45.02C258.317 45.716 257.777 46.25 257.081 46.622C256.397 46.994 255.599 47.18 254.687 47.18C253.787 47.18 252.989 46.994 252.293 46.622C251.597 46.25 251.051 45.716 250.655 45.02C250.271 44.312 250.079 43.472 250.079 42.5C250.079 41.516 250.271 40.676 250.655 39.98C251.051 39.284 251.597 38.75 252.293 38.378C252.989 38.006 253.787 37.82 254.687 37.82ZM254.687 39.656C254.231 39.656 253.841 39.764 253.517 39.98C253.205 40.184 252.965 40.496 252.797 40.916C252.629 41.336 252.545 41.864 252.545 42.5C252.545 43.136 252.629 43.664 252.797 44.084C252.965 44.504 253.205 44.822 253.517 45.038C253.841 45.242 254.231 45.344 254.687 45.344C255.131 45.344 255.509 45.242 255.821 45.038C256.145 44.822 256.391 44.504 256.559 44.084C256.727 43.664 256.811 43.136 256.811 42.5C256.811 41.864 256.727 41.336 256.559 40.916C256.391 40.496 256.145 40.184 255.821 39.98C255.509 39.764 255.131 39.656 254.687 39.656ZM261.359 47V38H263.573L263.663 39.62C263.963 39.02 264.371 38.57 264.887 38.27C265.415 37.97 265.997 37.82 266.633 37.82C267.281 37.82 267.863 37.97 268.379 38.27C268.907 38.57 269.303 39.014 269.566 39.602C269.759 39.206 270.017 38.876 270.341 38.612C270.665 38.348 271.025 38.15 271.421 38.018C271.817 37.886 272.219 37.82 272.627 37.82C273.215 37.82 273.749 37.94 274.229 38.18C274.721 38.42 275.111 38.78 275.399 39.26C275.687 39.74 275.831 40.352 275.831 41.096V47H273.365V41.582C273.365 40.922 273.221 40.454 272.933 40.178C272.645 39.902 272.273 39.764 271.817 39.764C271.457 39.764 271.121 39.854 270.809 40.034C270.509 40.214 270.269 40.484 270.089 40.844C269.921 41.192 269.837 41.63 269.837 42.158V47H267.371V41.582C267.371 40.922 267.221 40.454 266.921 40.178C266.633 39.902 266.261 39.764 265.805 39.764C265.493 39.764 265.181 39.848 264.869 40.016C264.569 40.184 264.317 40.448 264.113 40.808C263.921 41.168 263.825 41.642 263.825 42.23V47H261.359ZM278.374 47V38H280.588L280.678 39.62C280.978 39.02 281.386 38.57 281.902 38.27C282.43 37.97 283.012 37.82 283.648 37.82C284.296 37.82 284.878 37.97 285.394 38.27C285.922 38.57 286.318 39.014 286.582 39.602C286.774 39.206 287.032 38.876 287.356 38.612C287.68 38.348 288.04 38.15 288.436 38.018C288.832 37.886 289.234 37.82 289.642 37.82C290.23 37.82 290.764 37.94 291.244 38.18C291.736 38.42 292.126 38.78 292.414 39.26C292.702 39.74 292.846 40.352 292.846 41.096V47H290.38V41.582C290.38 40.922 290.236 40.454 289.948 40.178C289.66 39.902 289.288 39.764 288.832 39.764C288.472 39.764 288.136 39.854 287.824 40.034C287.524 40.214 287.284 40.484 287.104 40.844C286.936 41.192 286.852 41.63 286.852 42.158V47H284.386V41.582C284.386 40.922 284.236 40.454 283.936 40.178C283.648 39.902 283.276 39.764 282.82 39.764C282.508 39.764 282.196 39.848 281.884 40.016C281.584 40.184 281.332 40.448 281.128 40.808C280.936 41.168 280.84 41.642 280.84 42.23V47H278.374ZM299.566 47.18C298.618 47.18 297.79 46.994 297.082 46.622C296.386 46.25 295.846 45.716 295.462 45.02C295.078 44.324 294.886 43.484 294.886 42.5C294.886 41.516 295.078 40.676 295.462 39.98C295.846 39.284 296.38 38.75 297.064 38.378C297.76 38.006 298.552 37.82 299.44 37.82C300.352 37.82 301.126 38.006 301.762 38.378C302.398 38.738 302.884 39.236 303.22 39.872C303.556 40.496 303.724 41.21 303.724 42.014C303.724 42.254 303.718 42.482 303.706 42.698C303.694 42.914 303.676 43.106 303.652 43.274H296.47V41.564H302.572L301.384 41.996C301.384 41.24 301.21 40.658 300.862 40.25C300.526 39.842 300.046 39.638 299.422 39.638C298.966 39.638 298.57 39.746 298.234 39.962C297.91 40.178 297.664 40.502 297.496 40.934C297.328 41.354 297.244 41.888 297.244 42.536C297.244 43.172 297.334 43.7 297.514 44.12C297.706 44.528 297.97 44.834 298.306 45.038C298.654 45.242 299.068 45.344 299.548 45.344C300.076 45.344 300.502 45.242 300.826 45.038C301.15 44.834 301.402 44.552 301.582 44.192L303.544 44.948C303.352 45.416 303.058 45.818 302.662 46.154C302.278 46.49 301.816 46.748 301.276 46.928C300.748 47.096 300.178 47.18 299.566 47.18ZM305.814 47V38H307.956L308.118 39.764C308.358 39.14 308.706 38.66 309.162 38.324C309.63 37.988 310.212 37.82 310.908 37.82C311.112 37.82 311.298 37.838 311.466 37.874C311.634 37.91 311.772 37.958 311.88 38.018L311.592 40.088C311.472 40.04 311.322 40.004 311.142 39.98C310.974 39.956 310.752 39.944 310.476 39.944C310.116 39.944 309.768 40.034 309.432 40.214C309.096 40.382 308.82 40.646 308.604 41.006C308.388 41.354 308.28 41.798 308.28 42.338V47H305.814ZM317.318 37.82C318.122 37.82 318.8 37.94 319.352 38.18C319.916 38.408 320.366 38.726 320.702 39.134C321.05 39.53 321.296 39.974 321.44 40.466L319.136 41.294C319.016 40.754 318.812 40.346 318.524 40.07C318.236 39.794 317.846 39.656 317.354 39.656C316.898 39.656 316.508 39.764 316.184 39.98C315.86 40.184 315.614 40.502 315.446 40.934C315.278 41.354 315.194 41.882 315.194 42.518C315.194 43.154 315.278 43.682 315.446 44.102C315.626 44.522 315.878 44.834 316.202 45.038C316.538 45.242 316.928 45.344 317.372 45.344C317.732 45.344 318.038 45.284 318.29 45.164C318.542 45.032 318.746 44.846 318.902 44.606C319.07 44.366 319.184 44.078 319.244 43.742L321.476 44.462C321.344 45.002 321.098 45.476 320.738 45.884C320.378 46.292 319.916 46.61 319.352 46.838C318.788 47.066 318.134 47.18 317.39 47.18C316.466 47.18 315.65 46.994 314.942 46.622C314.234 46.25 313.688 45.716 313.304 45.02C312.92 44.324 312.728 43.484 312.728 42.5C312.728 41.516 312.92 40.676 313.304 39.98C313.688 39.284 314.228 38.75 314.924 38.378C315.62 38.006 316.418 37.82 317.318 37.82ZM324.634 36.704C324.118 36.704 323.734 36.596 323.482 36.38C323.23 36.152 323.104 35.822 323.104 35.39C323.104 34.946 323.23 34.616 323.482 34.4C323.734 34.172 324.118 34.058 324.634 34.058C325.15 34.058 325.534 34.172 325.786 34.4C326.038 34.616 326.164 34.946 326.164 35.39C326.164 35.822 326.038 36.152 325.786 36.38C325.534 36.596 325.15 36.704 324.634 36.704ZM325.858 38V47H323.392V38H325.858ZM333.602 41.258C333.602 40.742 333.452 40.34 333.152 40.052C332.864 39.764 332.48 39.62 332 39.62C331.556 39.62 331.166 39.734 330.83 39.962C330.494 40.19 330.248 40.568 330.092 41.096L327.986 40.448C328.19 39.656 328.634 39.02 329.318 38.54C330.014 38.06 330.944 37.82 332.108 37.82C332.9 37.82 333.59 37.946 334.178 38.198C334.766 38.438 335.222 38.804 335.546 39.296C335.882 39.788 336.05 40.406 336.05 41.15V44.804C336.05 45.26 336.266 45.488 336.698 45.488C336.902 45.488 337.094 45.458 337.274 45.398L337.13 46.928C336.818 47.084 336.428 47.162 335.96 47.162C335.54 47.162 335.162 47.09 334.826 46.946C334.49 46.802 334.226 46.586 334.034 46.298C333.842 45.998 333.746 45.626 333.746 45.182V45.11L334.178 45.038C334.106 45.494 333.908 45.884 333.584 46.208C333.26 46.52 332.864 46.76 332.396 46.928C331.94 47.096 331.466 47.18 330.974 47.18C330.362 47.18 329.834 47.09 329.39 46.91C328.946 46.718 328.604 46.442 328.364 46.082C328.124 45.722 328.004 45.278 328.004 44.75C328.004 44.078 328.22 43.532 328.652 43.112C329.084 42.68 329.702 42.386 330.506 42.23L333.89 41.546L333.872 43.076L331.712 43.508C331.304 43.592 330.992 43.706 330.776 43.85C330.572 43.982 330.47 44.204 330.47 44.516C330.47 44.816 330.578 45.044 330.794 45.2C331.022 45.356 331.292 45.434 331.604 45.434C331.856 45.434 332.102 45.404 332.342 45.344C332.582 45.284 332.798 45.188 332.99 45.056C333.182 44.924 333.332 44.744 333.44 44.516C333.548 44.288 333.602 44.012 333.602 43.688V41.258ZM341.238 34.058V44.228C341.238 44.648 341.31 44.942 341.454 45.11C341.598 45.278 341.838 45.362 342.174 45.362C342.378 45.362 342.546 45.35 342.678 45.326C342.81 45.29 342.978 45.242 343.182 45.182L342.966 46.802C342.762 46.922 342.504 47.012 342.192 47.072C341.892 47.144 341.592 47.18 341.292 47.18C340.416 47.18 339.774 46.97 339.366 46.55C338.97 46.118 338.772 45.434 338.772 44.498V34.058H341.238Z" fill="#44403C"/>
<path d="M300.334 187L287.5 199.833L281.667 194" stroke="#4F46E5" stroke-width="3" stroke-linecap="round" stroke-linejoin="round"/>
<path d="M300.334 136L287.5 148.833L281.667 143" stroke="#4F46E5" stroke-width="3" stroke-linecap="round" stroke-linejoin="round"/>
<path d="M300.334 238L287.5 250.833L281.667 245" stroke="#4F46E5" stroke-width="3" stroke-linecap="round" stroke-linejoin="round"/>
<line x1="18" y1="118.5" x2="665" y2="118.5" stroke="url(#paint0_linear_144_1559)"/>
<line x1="18" y1="169.5" x2="665" y2="169.5" stroke="url(#paint1_linear_144_1559)"/>
<line x1="18" y1="220.5" x2="665" y2="220.5" stroke="url(#paint2_linear_144_1559)"/>
<line x1="18" y1="67.5" x2="665" y2="67.5" stroke="url(#paint3_linear_144_1559)"/>
<path d="M456.334 85L443.5 97.8333L437.667 92" stroke="#4F46E5" stroke-width="3" stroke-linecap="round" stroke-linejoin="round"/>
<path d="M456.334 136L443.5 148.833L437.667 143" stroke="#4F46E5" stroke-width="3" stroke-linecap="round" stroke-linejoin="round"/>
<path d="M456.334 238L443.5 250.833L437.667 245" stroke="#4F46E5" stroke-width="3" stroke-linecap="round" stroke-linejoin="round"/>
<g clip-path="url(#clip0_144_1559)">
<path d="M416.432 45.9279L417.903 43.9304C419.334 44.9999 420.745 45.4838 422.076 45.4838C423.789 45.4838 424.757 44.677 424.757 43.5672C424.757 42.7012 424.173 42.0941 422.642 41.7308L420.163 41.1458C417.925 40.6012 416.696 39.3095 416.696 37.4333C416.696 34.9715 418.732 33.1963 421.876 33.1963C423.832 33.1963 425.706 33.8823 427.037 35.1736L425.384 36.9493C424.295 35.939 423.086 35.4964 421.836 35.4964C420.163 35.4964 419.255 36.2632 419.255 37.2721C419.255 38.0789 419.8 38.624 421.413 39.0074L423.892 39.5924C426.188 40.1572 427.336 41.4085 427.336 43.3848C427.336 46.0279 425.34 47.8032 421.994 47.8032C419.919 47.8041 417.923 47.1373 416.432 45.9279Z" fill="#1C1917"/>
<path d="M439.352 43.0019H431.187C431.388 44.7574 432.577 45.7259 434.351 45.7259C435.541 45.7259 436.549 45.2818 437.395 44.2528L439.089 45.544C438 47.0171 436.327 47.8052 434.311 47.8052C430.965 47.8052 428.768 45.6263 428.768 42.4785C428.768 39.2908 431.066 36.9902 434.291 36.9902C437.294 36.9902 439.411 38.968 439.411 42.0951C439.412 42.3984 439.392 42.7014 439.352 43.0019ZM431.307 41.1858H436.972C436.71 39.7329 435.723 39.0267 434.271 39.0267C432.759 39.0267 431.69 39.7936 431.307 41.1858Z" fill="#1C1917"/>
<path d="M451.225 37.2312V47.5617H448.806V46.7746C448.02 47.441 446.951 47.8037 445.842 47.8037C443.02 47.8037 440.702 45.5426 440.702 42.3967C440.702 39.2509 443.02 36.9888 445.841 36.9888C446.95 36.9888 448.019 37.352 448.805 38.0178V37.2312H451.225ZM448.806 44.374V40.4189C448.141 39.6122 447.172 39.2287 446.205 39.2287C444.492 39.2287 443.161 40.4594 443.161 42.3967C443.161 44.3341 444.492 45.5844 446.205 45.5844C446.701 45.5876 447.191 45.4806 447.641 45.2713C448.091 45.062 448.488 44.7556 448.805 44.374H448.806Z" fill="#1C1917"/>
<path d="M469.709 41.2676V47.5617H467.29V41.791C467.29 40.0557 466.503 39.2287 465.355 39.2287C464.528 39.2287 463.641 39.6324 462.895 40.52C462.915 40.7605 462.936 41.004 462.936 41.2666V47.5617H460.516V41.791C460.516 40.0557 459.73 39.2287 458.581 39.2287C457.775 39.2287 456.908 39.6324 456.162 40.4594V47.5617H453.743V37.2312H456.162V38.1189C457.013 37.3959 458.09 36.9958 459.206 36.9888C460.557 36.9888 461.646 37.5743 462.291 38.6432C463.339 37.5541 464.669 36.9888 465.98 36.9888C468.177 36.9888 469.709 38.5427 469.709 41.2676Z" fill="#1C1917"/>
<path d="M472.106 32.6714H474.526V47.5621H472.106V32.6714Z" fill="#1C1917"/>
<path d="M486.985 43.0019H478.819C479.021 44.7574 480.21 45.7259 481.984 45.7259C483.174 45.7259 484.181 45.2818 485.028 44.2528L486.721 45.544C485.633 47.0171 483.96 47.8052 481.944 47.8052C478.597 47.8052 476.4 45.6263 476.4 42.4785C476.4 39.2908 478.698 36.9902 481.924 36.9902C484.927 36.9902 487.044 38.968 487.044 42.0951C487.045 42.3984 487.025 42.7014 486.985 43.0019ZM478.94 41.1858H484.605C484.343 39.7329 483.355 39.0267 481.903 39.0267C480.392 39.0267 479.323 39.7936 478.94 41.1858Z" fill="#1C1917"/>
<path d="M488.293 46.2907L489.543 44.4745C490.611 45.302 491.841 45.7254 492.95 45.7254C494.079 45.7254 494.724 45.2611 494.724 44.6155C494.724 44.131 494.361 43.7683 493.292 43.5258L491.498 43.1025C489.422 42.618 488.575 41.7097 488.575 40.2775C488.575 38.3199 490.147 36.9883 492.709 36.9883C494.402 36.9883 495.954 37.5536 496.982 38.5018L495.672 40.2169C494.704 39.45 493.656 39.0666 492.608 39.0666C491.519 39.0666 490.955 39.4904 490.955 40.1159C490.955 40.5801 491.277 40.8625 492.386 41.1261L494.18 41.55C496.277 42.0344 497.123 42.9827 497.123 44.4553C497.123 46.473 495.571 47.8047 492.87 47.8047C491.095 47.8037 489.382 47.2187 488.293 46.2907Z" fill="#1C1917"/>
<path d="M498.171 46.2907L499.421 44.4745C500.489 45.302 501.719 45.7254 502.827 45.7254C503.956 45.7254 504.602 45.2611 504.602 44.6155C504.602 44.131 504.239 43.7683 503.17 43.5258L501.376 43.1025C499.299 42.618 498.453 41.7097 498.453 40.2775C498.453 38.3199 500.025 36.9883 502.587 36.9883C504.28 36.9883 505.832 37.5536 506.86 38.5018L505.55 40.2169C504.582 39.45 503.534 39.0666 502.486 39.0666C501.397 39.0666 500.833 39.4904 500.833 40.1159C500.833 40.5801 501.155 40.8625 502.264 41.1261L504.058 41.55C506.155 42.0344 507.001 42.9827 507.001 44.4553C507.001 46.473 505.449 47.8047 502.748 47.8047C500.972 47.8037 499.259 47.2187 498.171 46.2907Z" fill="#1C1917"/>
<path d="M402.458 33.9731H397.488C395.759 33.9737 394.101 34.6613 392.879 35.8848C391.656 37.1084 390.969 38.7678 390.969 40.4982C390.969 40.7022 391.009 40.9043 391.087 41.0928C391.165 41.2814 391.279 41.4527 391.423 41.597C391.568 41.7413 391.739 41.8557 391.927 41.9338C392.115 42.0119 392.317 42.0521 392.521 42.0521H394.075V40.4982C394.076 39.5925 394.436 38.7243 395.076 38.0839C395.716 37.4435 396.583 37.0833 397.488 37.0824H402.458C404.33 37.0824 405.866 38.5916 405.874 40.4655C405.893 45.1094 402.125 48.8937 397.49 48.8937H392.521C392.11 48.8937 391.715 49.0574 391.423 49.3488C391.132 49.6403 390.969 50.0355 390.969 50.4476V52.0015H397.488C403.852 52.0015 409.023 46.7952 408.975 40.4145C408.952 36.8419 406.026 33.9731 402.458 33.9731Z" fill="#6366F1"/>
<path d="M397.488 47.027C398.345 47.0272 399.193 46.8585 399.984 46.5305C400.776 46.2025 401.495 45.7216 402.101 45.1153C402.707 44.5089 403.187 43.7891 403.515 42.9969C403.843 42.2046 404.011 41.3555 404.011 40.4981C404.011 40.294 403.971 40.0919 403.893 39.9034C403.815 39.7149 403.7 39.5436 403.556 39.3993C403.412 39.255 403.241 39.1405 403.052 39.0624C402.864 38.9843 402.662 38.9442 402.458 38.9442H400.906V40.4981C400.906 40.9474 400.818 41.3924 400.646 41.8076C400.474 42.2227 400.223 42.6 399.905 42.9177C399.588 43.2354 399.211 43.4874 398.796 43.6592C398.381 43.8311 397.937 43.9194 397.488 43.9191H392.521C390.649 43.9191 389.114 42.4099 389.106 40.5361C389.086 35.8921 392.855 32.1083 397.488 32.1083H402.458C402.87 32.1082 403.265 31.9444 403.556 31.6529C403.847 31.3614 404.011 30.9661 404.011 30.5539V29H397.488C391.126 29 385.952 34.2064 386 40.5871C386.027 44.1577 388.954 47.027 392.521 47.027H397.488Z" fill="#6366F1"/>
</g>
<defs>
<linearGradient id="paint0_linear_144_1559" x1="18" y1="119" x2="665" y2="119" gradientUnits="userSpaceOnUse">
<stop stop-color="#D6D3D1"/>
<stop offset="0.493045" stop-color="#D6D3D1"/>
<stop offset="0.663447" stop-color="#6366F1"/>
<stop offset="0.829985" stop-color="#D6D3D1"/>
<stop offset="1" stop-color="#D6D3D1"/>
</linearGradient>
<linearGradient id="paint1_linear_144_1559" x1="18" y1="170" x2="665" y2="170" gradientUnits="userSpaceOnUse">
<stop stop-color="#D6D3D1"/>
<stop offset="0.493045" stop-color="#D6D3D1"/>
<stop offset="0.663447" stop-color="#6366F1"/>
<stop offset="0.829985" stop-color="#D6D3D1"/>
<stop offset="1" stop-color="#D6D3D1"/>
</linearGradient>
<linearGradient id="paint2_linear_144_1559" x1="18" y1="221" x2="665" y2="221" gradientUnits="userSpaceOnUse">
<stop stop-color="#D6D3D1"/>
<stop offset="0.493045" stop-color="#D6D3D1"/>
<stop offset="0.663447" stop-color="#6366F1"/>
<stop offset="0.829985" stop-color="#D6D3D1"/>
<stop offset="1" stop-color="#D6D3D1"/>
</linearGradient>
<linearGradient id="paint3_linear_144_1559" x1="18" y1="68" x2="665" y2="68" gradientUnits="userSpaceOnUse">
<stop stop-color="#A8A29E"/>
<stop offset="0.474111" stop-color="#A8A29E"/>
<stop offset="0.661515" stop-color="#5357F1"/>
<stop offset="0.840804" stop-color="#A8A29E"/>
<stop offset="1" stop-color="#A8A29E"/>
</linearGradient>
<clipPath id="clip0_144_1559">
<rect width="121" height="23" fill="white" transform="translate(386 29)"/>
</clipPath>
</defs>
</svg>
