<svg width="868" height="392" viewBox="0 0 868 392" fill="none" xmlns="http://www.w3.org/2000/svg">
<g clip-path="url(#clip0_144_1559)">
<rect width="868" height="392" fill="white"/>
<rect x="475" y="1" width="208" height="390" fill="#EEF2FF"/>
<rect x="0.5" y="0.5" width="867" height="391" rx="11.5" stroke="#A8A29E"/>
<path d="M33.904 119.92C35.472 119.92 36.824 120.248 37.96 120.904C39.096 121.56 39.968 122.496 40.576 123.712C41.2 124.928 41.512 126.384 41.512 128.08C41.512 129.776 41.2 131.232 40.576 132.448C39.968 133.664 39.096 134.6 37.96 135.256C36.824 135.912 35.472 136.24 33.904 136.24C32.336 136.24 30.976 135.912 29.824 135.256C28.688 134.6 27.808 133.664 27.184 132.448C26.576 131.232 26.272 129.776 26.272 128.08C26.272 126.384 26.576 124.928 27.184 123.712C27.808 122.496 28.688 121.56 29.824 120.904C30.976 120.248 32.336 119.92 33.904 119.92ZM33.904 122.632C33.008 122.632 32.248 122.84 31.624 123.256C31 123.672 30.52 124.288 30.184 125.104C29.864 125.904 29.704 126.896 29.704 128.08C29.704 129.248 29.864 130.24 30.184 131.056C30.52 131.872 31 132.488 31.624 132.904C32.248 133.32 33.008 133.528 33.904 133.528C34.784 133.528 35.536 133.32 36.16 132.904C36.784 132.488 37.256 131.872 37.576 131.056C37.912 130.24 38.08 129.248 38.08 128.08C38.08 126.896 37.912 125.904 37.576 125.104C37.256 124.288 36.784 123.672 36.16 123.256C35.536 122.84 34.784 122.632 33.904 122.632ZM44.4468 141.04V124H47.3988L47.6148 127.816L47.2068 127.384C47.3508 126.68 47.6148 126.056 47.9988 125.512C48.3988 124.968 48.9028 124.544 49.5108 124.24C50.1188 123.92 50.7988 123.76 51.5508 123.76C52.5268 123.76 53.3988 124.008 54.1668 124.504C54.9348 125 55.5348 125.712 55.9668 126.64C56.4148 127.552 56.6388 128.664 56.6388 129.976C56.6388 131.288 56.4148 132.416 55.9668 133.36C55.5188 134.288 54.9028 135 54.1188 135.496C53.3508 135.992 52.4708 136.24 51.4788 136.24C50.4228 136.24 49.5428 135.944 48.8388 135.352C48.1508 134.76 47.6788 134.016 47.4228 133.12L47.7348 132.616V141.04H44.4468ZM50.5188 133.72C51.3988 133.72 52.0868 133.408 52.5828 132.784C53.0948 132.144 53.3508 131.216 53.3508 130C53.3508 128.784 53.1028 127.864 52.6068 127.24C52.1268 126.6 51.4468 126.28 50.5668 126.28C50.0068 126.28 49.5108 126.432 49.0788 126.736C48.6628 127.024 48.3348 127.448 48.0948 128.008C47.8548 128.552 47.7348 129.216 47.7348 130C47.7348 130.768 47.8468 131.432 48.0708 131.992C48.2948 132.552 48.6148 132.984 49.0308 133.288C49.4628 133.576 49.9588 133.72 50.5188 133.72ZM65.0616 136.24C63.7976 136.24 62.6936 135.992 61.7496 135.496C60.8216 135 60.1016 134.288 59.5896 133.36C59.0776 132.432 58.8216 131.312 58.8216 130C58.8216 128.688 59.0776 127.568 59.5896 126.64C60.1016 125.712 60.8136 125 61.7256 124.504C62.6536 124.008 63.7096 123.76 64.8936 123.76C66.1096 123.76 67.1416 124.008 67.9896 124.504C68.8376 124.984 69.4856 125.648 69.9336 126.496C70.3816 127.328 70.6056 128.28 70.6056 129.352C70.6056 129.672 70.5976 129.976 70.5816 130.264C70.5656 130.552 70.5416 130.808 70.5096 131.032H60.9336V128.752H69.0696L67.4856 129.328C67.4856 128.32 67.2536 127.544 66.7896 127C66.3416 126.456 65.7016 126.184 64.8696 126.184C64.2616 126.184 63.7336 126.328 63.2856 126.616C62.8536 126.904 62.5256 127.336 62.3016 127.912C62.0776 128.472 61.9656 129.184 61.9656 130.048C61.9656 130.896 62.0856 131.6 62.3256 132.16C62.5816 132.704 62.9336 133.112 63.3816 133.384C63.8456 133.656 64.3976 133.792 65.0376 133.792C65.7416 133.792 66.3096 133.656 66.7416 133.384C67.1736 133.112 67.5096 132.736 67.7496 132.256L70.3656 133.264C70.1096 133.888 69.7176 134.424 69.1896 134.872C68.6776 135.32 68.0616 135.664 67.3416 135.904C66.6376 136.128 65.8776 136.24 65.0616 136.24ZM73.3921 136V124H76.3441L76.5361 127.6L76.1281 127.216C76.3201 126.432 76.6241 125.784 77.0401 125.272C77.4561 124.76 77.9601 124.384 78.5521 124.144C79.1601 123.888 79.8241 123.76 80.5441 123.76C81.3761 123.76 82.1121 123.92 82.7521 124.24C83.4081 124.56 83.9201 125.048 84.2881 125.704C84.6721 126.344 84.8641 127.152 84.8641 128.128V136H81.5761V129.064C81.5761 128.04 81.3761 127.336 80.9761 126.952C80.5761 126.552 80.0561 126.352 79.4161 126.352C78.9681 126.352 78.5281 126.464 78.0961 126.688C77.6801 126.896 77.3361 127.24 77.0641 127.72C76.8081 128.2 76.6801 128.84 76.6801 129.64V136H73.3921ZM101.707 119.92C103.147 119.92 104.411 120.168 105.499 120.664C106.587 121.16 107.515 121.896 108.283 122.872L106.435 125.008C105.779 124.176 105.059 123.568 104.275 123.184C103.507 122.784 102.611 122.584 101.587 122.584C100.915 122.584 100.355 122.672 99.9074 122.848C99.4754 123.024 99.1554 123.256 98.9474 123.544C98.7554 123.832 98.6594 124.152 98.6594 124.504C98.6594 124.936 98.8274 125.304 99.1634 125.608C99.4994 125.896 100.075 126.136 100.891 126.328L103.843 127C105.411 127.352 106.531 127.88 107.203 128.584C107.891 129.272 108.235 130.168 108.235 131.272C108.235 132.312 107.963 133.208 107.419 133.96C106.875 134.696 106.115 135.264 105.139 135.664C104.163 136.048 103.043 136.24 101.779 136.24C100.675 136.24 99.6594 136.112 98.7314 135.856C97.8194 135.584 97.0034 135.216 96.2834 134.752C95.5634 134.288 94.9634 133.752 94.4834 133.144L96.3554 130.912C96.7234 131.424 97.1794 131.88 97.7234 132.28C98.2674 132.68 98.8834 133 99.5714 133.24C100.275 133.464 101.011 133.576 101.779 133.576C102.435 133.576 102.987 133.504 103.435 133.36C103.899 133.2 104.243 132.984 104.467 132.712C104.707 132.424 104.827 132.08 104.827 131.68C104.827 131.264 104.683 130.912 104.395 130.624C104.123 130.32 103.611 130.088 102.859 129.928L99.6434 129.208C98.7154 128.984 97.9154 128.696 97.2434 128.344C96.5874 127.976 96.0834 127.512 95.7314 126.952C95.3954 126.376 95.2274 125.696 95.2274 124.912C95.2274 123.968 95.4834 123.12 95.9954 122.368C96.5074 121.616 97.2434 121.024 98.2034 120.592C99.1794 120.144 100.347 119.92 101.707 119.92ZM116.505 123.76C117.721 123.76 118.785 124.008 119.697 124.504C120.625 125 121.345 125.712 121.857 126.64C122.385 127.568 122.649 128.688 122.649 130C122.649 131.296 122.385 132.416 121.857 133.36C121.345 134.288 120.625 135 119.697 135.496C118.785 135.992 117.721 136.24 116.505 136.24C115.305 136.24 114.241 135.992 113.313 135.496C112.385 135 111.657 134.288 111.129 133.36C110.617 132.416 110.361 131.296 110.361 130C110.361 128.688 110.617 127.568 111.129 126.64C111.657 125.712 112.385 125 113.313 124.504C114.241 124.008 115.305 123.76 116.505 123.76ZM116.505 126.208C115.897 126.208 115.377 126.352 114.945 126.64C114.529 126.912 114.209 127.328 113.985 127.888C113.761 128.448 113.649 129.152 113.649 130C113.649 130.848 113.761 131.552 113.985 132.112C114.209 132.672 114.529 133.096 114.945 133.384C115.377 133.656 115.897 133.792 116.505 133.792C117.097 133.792 117.601 133.656 118.017 133.384C118.449 133.096 118.777 132.672 119.001 132.112C119.225 131.552 119.337 130.848 119.337 130C119.337 129.152 119.225 128.448 119.001 127.888C118.777 127.328 118.449 126.912 118.017 126.64C117.601 126.352 117.097 126.208 116.505 126.208ZM129.576 136.24C128.776 136.24 128.056 136.096 127.416 135.808C126.776 135.52 126.264 135.064 125.88 134.44C125.512 133.8 125.328 132.976 125.328 131.968V124H128.616V131.176C128.616 132.104 128.808 132.752 129.192 133.12C129.576 133.472 130.128 133.648 130.848 133.648C131.184 133.648 131.512 133.592 131.832 133.48C132.152 133.352 132.432 133.16 132.672 132.904C132.928 132.648 133.128 132.32 133.272 131.92C133.416 131.504 133.488 131.016 133.488 130.456V124H136.776V136H133.848L133.728 133.912C133.328 134.712 132.776 135.304 132.072 135.688C131.384 136.056 130.552 136.24 129.576 136.24ZM140.236 136V124H143.092L143.308 126.352C143.628 125.52 144.092 124.88 144.7 124.432C145.324 123.984 146.1 123.76 147.028 123.76C147.3 123.76 147.548 123.784 147.772 123.832C147.996 123.88 148.18 123.944 148.324 124.024L147.94 126.784C147.78 126.72 147.58 126.672 147.34 126.64C147.116 126.608 146.82 126.592 146.452 126.592C145.972 126.592 145.508 126.712 145.06 126.952C144.612 127.176 144.244 127.528 143.956 128.008C143.668 128.472 143.524 129.064 143.524 129.784V136H140.236ZM155.574 123.76C156.646 123.76 157.55 123.92 158.286 124.24C159.038 124.544 159.638 124.968 160.086 125.512C160.55 126.04 160.878 126.632 161.07 127.288L157.998 128.392C157.838 127.672 157.566 127.128 157.182 126.76C156.798 126.392 156.278 126.208 155.622 126.208C155.014 126.208 154.494 126.352 154.062 126.64C153.63 126.912 153.302 127.336 153.078 127.912C152.854 128.472 152.742 129.176 152.742 130.024C152.742 130.872 152.854 131.576 153.078 132.136C153.318 132.696 153.654 133.112 154.086 133.384C154.534 133.656 155.054 133.792 155.646 133.792C156.126 133.792 156.534 133.712 156.87 133.552C157.206 133.376 157.478 133.128 157.686 132.808C157.91 132.488 158.062 132.104 158.142 131.656L161.118 132.616C160.942 133.336 160.614 133.968 160.134 134.512C159.654 135.056 159.038 135.48 158.286 135.784C157.534 136.088 156.662 136.24 155.67 136.24C154.438 136.24 153.35 135.992 152.406 135.496C151.462 135 150.734 134.288 150.222 133.36C149.71 132.432 149.454 131.312 149.454 130C149.454 128.688 149.71 127.568 150.222 126.64C150.734 125.712 151.454 125 152.382 124.504C153.31 124.008 154.374 123.76 155.574 123.76ZM169.241 136.24C167.977 136.24 166.873 135.992 165.929 135.496C165.001 135 164.281 134.288 163.769 133.36C163.257 132.432 163.001 131.312 163.001 130C163.001 128.688 163.257 127.568 163.769 126.64C164.281 125.712 164.993 125 165.905 124.504C166.833 124.008 167.889 123.76 169.073 123.76C170.289 123.76 171.321 124.008 172.169 124.504C173.017 124.984 173.665 125.648 174.113 126.496C174.561 127.328 174.785 128.28 174.785 129.352C174.785 129.672 174.777 129.976 174.761 130.264C174.745 130.552 174.721 130.808 174.689 131.032H165.113V128.752H173.249L171.665 129.328C171.665 128.32 171.433 127.544 170.969 127C170.521 126.456 169.881 126.184 169.049 126.184C168.441 126.184 167.913 126.328 167.465 126.616C167.033 126.904 166.705 127.336 166.481 127.912C166.257 128.472 166.145 129.184 166.145 130.048C166.145 130.896 166.265 131.6 166.505 132.16C166.761 132.704 167.113 133.112 167.561 133.384C168.025 133.656 168.577 133.792 169.217 133.792C169.921 133.792 170.489 133.656 170.921 133.384C171.353 133.112 171.689 132.736 171.929 132.256L174.545 133.264C174.289 133.888 173.897 134.424 173.369 134.872C172.857 135.32 172.241 135.664 171.521 135.904C170.817 136.128 170.057 136.24 169.241 136.24Z" fill="#44403C"/>
<path d="M27.064 210V194.16H38.944V196.824H30.376V200.76H37.12V203.304H30.376V207.336H39.28V210H27.064ZM48.7555 202.344C48.7555 201.656 48.5555 201.12 48.1555 200.736C47.7715 200.352 47.2595 200.16 46.6195 200.16C46.0275 200.16 45.5075 200.312 45.0595 200.616C44.6115 200.92 44.2835 201.424 44.0755 202.128L41.2675 201.264C41.5395 200.208 42.1315 199.36 43.0435 198.72C43.9715 198.08 45.2115 197.76 46.7635 197.76C47.8195 197.76 48.7395 197.928 49.5235 198.264C50.3075 198.584 50.9155 199.072 51.3475 199.728C51.7955 200.384 52.0195 201.208 52.0195 202.2V207.072C52.0195 207.68 52.3075 207.984 52.8835 207.984C53.1555 207.984 53.4115 207.944 53.6515 207.864L53.4595 209.904C53.0435 210.112 52.5235 210.216 51.8995 210.216C51.3395 210.216 50.8355 210.12 50.3875 209.928C49.9395 209.736 49.5875 209.448 49.3315 209.064C49.0755 208.664 48.9475 208.168 48.9475 207.576V207.48L49.5235 207.384C49.4275 207.992 49.1635 208.512 48.7315 208.944C48.2995 209.36 47.7715 209.68 47.1475 209.904C46.5395 210.128 45.9075 210.24 45.2515 210.24C44.4355 210.24 43.7315 210.12 43.1395 209.88C42.5475 209.624 42.0915 209.256 41.7715 208.776C41.4515 208.296 41.2915 207.704 41.2915 207C41.2915 206.104 41.5795 205.376 42.1555 204.816C42.7315 204.24 43.5555 203.848 44.6275 203.64L49.1395 202.728L49.1155 204.768L46.2355 205.344C45.6915 205.456 45.2755 205.608 44.9875 205.8C44.7155 205.976 44.5795 206.272 44.5795 206.688C44.5795 207.088 44.7235 207.392 45.0115 207.6C45.3155 207.808 45.6755 207.912 46.0915 207.912C46.4275 207.912 46.7555 207.872 47.0755 207.792C47.3955 207.712 47.6835 207.584 47.9395 207.408C48.1955 207.232 48.3955 206.992 48.5395 206.688C48.6835 206.384 48.7555 206.016 48.7555 205.584V202.344ZM60.4968 210.24C59.2808 210.24 58.1688 210.024 57.1608 209.592C56.1688 209.16 55.3608 208.552 54.7368 207.768L56.6328 205.848C57.0168 206.424 57.5288 206.896 58.1688 207.264C58.8088 207.632 59.5688 207.816 60.4488 207.816C61.0728 207.816 61.5688 207.728 61.9368 207.552C62.3208 207.36 62.5128 207.064 62.5128 206.664C62.5128 206.408 62.4248 206.192 62.2488 206.016C62.0728 205.824 61.7208 205.672 61.1928 205.56L59.0808 205.128C57.6888 204.84 56.6968 204.408 56.1048 203.832C55.5288 203.24 55.2408 202.48 55.2408 201.552C55.2408 200.896 55.4328 200.28 55.8168 199.704C56.2168 199.128 56.8088 198.664 57.5928 198.312C58.3768 197.944 59.3528 197.76 60.5208 197.76C61.7208 197.76 62.7608 197.952 63.6408 198.336C64.5368 198.704 65.2408 199.256 65.7528 199.992L63.7848 201.912C63.4328 201.352 62.9688 200.928 62.3928 200.64C61.8328 200.336 61.2408 200.184 60.6168 200.184C60.1688 200.184 59.7848 200.232 59.4648 200.328C59.1448 200.424 58.9048 200.56 58.7448 200.736C58.5848 200.896 58.5048 201.104 58.5048 201.36C58.5048 201.616 58.6168 201.84 58.8408 202.032C59.0648 202.208 59.4728 202.36 60.0648 202.488L62.5128 202.992C63.6968 203.232 64.5448 203.64 65.0568 204.216C65.5688 204.776 65.8248 205.456 65.8248 206.256C65.8248 207.024 65.6168 207.712 65.2008 208.32C64.8008 208.912 64.2008 209.384 63.4008 209.736C62.6168 210.072 61.6488 210.24 60.4968 210.24ZM79.2814 198L74.4334 210.744C74.0494 211.832 73.6174 212.696 73.1374 213.336C72.6734 213.976 72.1294 214.44 71.5054 214.728C70.8974 215.016 70.1694 215.16 69.3214 215.16C68.6974 215.16 68.1214 215.08 67.5934 214.92C67.0814 214.776 66.6334 214.584 66.2494 214.344L66.9454 211.968C67.2494 212.208 67.5694 212.376 67.9054 212.472C68.2414 212.584 68.6254 212.64 69.0574 212.64C69.5054 212.64 69.8894 212.544 70.2094 212.352C70.5454 212.16 70.8254 211.776 71.0494 211.2L71.4574 210.168L70.1374 207.048L66.4654 198H70.1134L72.3934 205.2L73.0174 207.6L73.7614 205.056L75.9454 198H79.2814ZM91.8432 194.328V206.088C91.8432 206.664 91.9872 207.088 92.2752 207.36C92.5792 207.616 92.9872 207.744 93.4992 207.744C93.8992 207.744 94.2512 207.688 94.5552 207.576C94.8592 207.448 95.1312 207.28 95.3712 207.072L95.8992 209.256C95.5152 209.56 95.0352 209.8 94.4592 209.976C93.8832 210.152 93.2752 210.24 92.6352 210.24C91.8352 210.24 91.1232 210.12 90.4992 209.88C89.8912 209.64 89.4112 209.256 89.0592 208.728C88.7232 208.2 88.5552 207.496 88.5552 206.616V195.24L91.8432 194.328ZM95.6832 198V200.448H86.3472V198H95.6832ZM103.38 197.76C104.596 197.76 105.66 198.008 106.572 198.504C107.5 199 108.22 199.712 108.732 200.64C109.26 201.568 109.524 202.688 109.524 204C109.524 205.296 109.26 206.416 108.732 207.36C108.22 208.288 107.5 209 106.572 209.496C105.66 209.992 104.596 210.24 103.38 210.24C102.18 210.24 101.116 209.992 100.188 209.496C99.2597 209 98.5317 208.288 98.0037 207.36C97.4917 206.416 97.2357 205.296 97.2357 204C97.2357 202.688 97.4917 201.568 98.0037 200.64C98.5317 199.712 99.2597 199 100.188 198.504C101.116 198.008 102.18 197.76 103.38 197.76ZM103.38 200.208C102.772 200.208 102.252 200.352 101.82 200.64C101.404 200.912 101.084 201.328 100.86 201.888C100.636 202.448 100.524 203.152 100.524 204C100.524 204.848 100.636 205.552 100.86 206.112C101.084 206.672 101.404 207.096 101.82 207.384C102.252 207.656 102.772 207.792 103.38 207.792C103.972 207.792 104.476 207.656 104.892 207.384C105.324 207.096 105.652 206.672 105.876 206.112C106.1 205.552 106.212 204.848 106.212 204C106.212 203.152 106.1 202.448 105.876 201.888C105.652 201.328 105.324 200.912 104.892 200.64C104.476 200.352 103.972 200.208 103.38 200.208ZM133.171 194.16V203.76C133.171 205.92 132.595 207.544 131.443 208.632C130.291 209.704 128.611 210.24 126.403 210.24C124.195 210.24 122.515 209.704 121.363 208.632C120.211 207.544 119.635 205.92 119.635 203.76V194.16H122.947V203.616C122.947 204.944 123.227 205.928 123.787 206.568C124.363 207.208 125.235 207.528 126.403 207.528C127.571 207.528 128.435 207.208 128.995 206.568C129.555 205.928 129.835 204.944 129.835 203.616V194.16H133.171ZM141.333 210.24C140.117 210.24 139.005 210.024 137.997 209.592C137.005 209.16 136.197 208.552 135.573 207.768L137.469 205.848C137.853 206.424 138.365 206.896 139.005 207.264C139.645 207.632 140.405 207.816 141.285 207.816C141.909 207.816 142.405 207.728 142.773 207.552C143.157 207.36 143.349 207.064 143.349 206.664C143.349 206.408 143.261 206.192 143.085 206.016C142.909 205.824 142.557 205.672 142.029 205.56L139.917 205.128C138.525 204.84 137.533 204.408 136.941 203.832C136.365 203.24 136.077 202.48 136.077 201.552C136.077 200.896 136.269 200.28 136.653 199.704C137.053 199.128 137.645 198.664 138.429 198.312C139.213 197.944 140.189 197.76 141.357 197.76C142.557 197.76 143.597 197.952 144.477 198.336C145.373 198.704 146.077 199.256 146.589 199.992L144.621 201.912C144.269 201.352 143.805 200.928 143.229 200.64C142.669 200.336 142.077 200.184 141.453 200.184C141.005 200.184 140.621 200.232 140.301 200.328C139.981 200.424 139.741 200.56 139.581 200.736C139.421 200.896 139.341 201.104 139.341 201.36C139.341 201.616 139.453 201.84 139.677 202.032C139.901 202.208 140.309 202.36 140.901 202.488L143.349 202.992C144.533 203.232 145.381 203.64 145.893 204.216C146.405 204.776 146.661 205.456 146.661 206.256C146.661 207.024 146.453 207.712 146.037 208.32C145.637 208.912 145.037 209.384 144.237 209.736C143.453 210.072 142.485 210.24 141.333 210.24ZM154.804 210.24C153.54 210.24 152.436 209.992 151.492 209.496C150.564 209 149.844 208.288 149.332 207.36C148.82 206.432 148.564 205.312 148.564 204C148.564 202.688 148.82 201.568 149.332 200.64C149.844 199.712 150.556 199 151.468 198.504C152.396 198.008 153.452 197.76 154.636 197.76C155.852 197.76 156.884 198.008 157.732 198.504C158.58 198.984 159.228 199.648 159.676 200.496C160.124 201.328 160.348 202.28 160.348 203.352C160.348 203.672 160.34 203.976 160.324 204.264C160.308 204.552 160.284 204.808 160.252 205.032H150.676V202.752H158.812L157.228 203.328C157.228 202.32 156.996 201.544 156.532 201C156.084 200.456 155.444 200.184 154.612 200.184C154.004 200.184 153.476 200.328 153.028 200.616C152.596 200.904 152.268 201.336 152.044 201.912C151.82 202.472 151.708 203.184 151.708 204.048C151.708 204.896 151.828 205.6 152.068 206.16C152.324 206.704 152.676 207.112 153.124 207.384C153.588 207.656 154.14 207.792 154.78 207.792C155.484 207.792 156.052 207.656 156.484 207.384C156.916 207.112 157.252 206.736 157.492 206.256L160.108 207.264C159.852 207.888 159.46 208.424 158.932 208.872C158.42 209.32 157.804 209.664 157.084 209.904C156.38 210.128 155.62 210.24 154.804 210.24Z" fill="#44403C"/>
<path d="M40.672 268.16V284H37.36V268.16H40.672ZM30.376 268.16V284H27.064V268.16H30.376ZM39.088 274.664V277.328H28.72V274.664H39.088ZM46.1262 270.272C45.4382 270.272 44.9262 270.128 44.5902 269.84C44.2542 269.536 44.0862 269.096 44.0862 268.52C44.0862 267.928 44.2542 267.488 44.5902 267.2C44.9262 266.896 45.4382 266.744 46.1262 266.744C46.8142 266.744 47.3262 266.896 47.6622 267.2C47.9982 267.488 48.1662 267.928 48.1662 268.52C48.1662 269.096 47.9982 269.536 47.6622 269.84C47.3262 270.128 46.8142 270.272 46.1262 270.272ZM47.7582 272V284H44.4702V272H47.7582ZM62.3076 269.144L62.6916 271.496C62.6276 271.496 62.5556 271.496 62.4756 271.496C62.4116 271.48 62.3396 271.472 62.2596 271.472C61.5236 271.472 60.9716 271.64 60.6036 271.976C60.2356 272.296 60.0516 272.744 60.0516 273.32L58.7076 272.768C58.7076 272.128 58.8356 271.536 59.0916 270.992C59.3476 270.432 59.7236 269.984 60.2196 269.648C60.7316 269.312 61.3396 269.144 62.0436 269.144C62.0756 269.144 62.1156 269.144 62.1636 269.144C62.2116 269.144 62.2596 269.144 62.3076 269.144ZM58.3716 281.744C59.6676 281.744 60.6676 282.024 61.3716 282.584C62.0756 283.144 62.4276 283.928 62.4276 284.936C62.4276 285.848 62.1636 286.616 61.6356 287.24C61.1076 287.88 60.3636 288.36 59.4036 288.68C58.4596 289 57.3636 289.16 56.1156 289.16C54.0516 289.16 52.5396 288.872 51.5796 288.296C50.6356 287.72 50.1636 286.968 50.1636 286.04C50.1636 285.384 50.4116 284.832 50.9076 284.384C51.4196 283.936 52.2596 283.688 53.4276 283.64L53.3076 284.024C52.4756 283.88 51.8356 283.608 51.3876 283.208C50.9556 282.792 50.7396 282.224 50.7396 281.504C50.7396 280.768 51.0196 280.168 51.5796 279.704C52.1556 279.224 52.9316 278.944 53.9076 278.864L55.3476 279.536H55.0116C54.3236 279.584 53.8356 279.728 53.5476 279.968C53.2756 280.192 53.1396 280.448 53.1396 280.736C53.1396 281.072 53.2676 281.328 53.5236 281.504C53.7956 281.664 54.1796 281.744 54.6756 281.744H58.3716ZM56.1396 286.904C56.9716 286.904 57.6516 286.832 58.1796 286.688C58.7236 286.544 59.1236 286.36 59.3796 286.136C59.6516 285.912 59.7876 285.664 59.7876 285.392C59.7876 285.088 59.6676 284.84 59.4276 284.648C59.1876 284.472 58.7556 284.384 58.1316 284.384H54.0756C53.6916 284.384 53.3716 284.48 53.1156 284.672C52.8756 284.864 52.7556 285.128 52.7556 285.464C52.7556 285.912 53.0516 286.264 53.6436 286.52C54.2516 286.776 55.0836 286.904 56.1396 286.904ZM56.1636 271.76C57.2836 271.76 58.2516 271.928 59.0676 272.264C59.8996 272.584 60.5316 273.048 60.9636 273.656C61.4116 274.264 61.6356 274.992 61.6356 275.84C61.6356 276.672 61.4116 277.392 60.9636 278C60.5316 278.608 59.8996 279.08 59.0676 279.416C58.2516 279.736 57.2836 279.896 56.1636 279.896C54.3876 279.896 53.0276 279.536 52.0836 278.816C51.1556 278.08 50.6916 277.088 50.6916 275.84C50.6916 274.992 50.9076 274.264 51.3396 273.656C51.7876 273.048 52.4196 272.584 53.2356 272.264C54.0516 271.928 55.0276 271.76 56.1636 271.76ZM56.1636 273.824C55.5236 273.824 54.9956 274 54.5796 274.352C54.1636 274.704 53.9556 275.192 53.9556 275.816C53.9556 276.44 54.1636 276.936 54.5796 277.304C54.9956 277.656 55.5236 277.832 56.1636 277.832C56.8036 277.832 57.3236 277.656 57.7236 277.304C58.1396 276.936 58.3476 276.44 58.3476 275.816C58.3476 275.192 58.1396 274.704 57.7236 274.352C57.3236 274 56.8036 273.824 56.1636 273.824ZM64.4155 284V266.744H67.7035V274.04C68.0875 273.272 68.6155 272.704 69.2875 272.336C69.9595 271.952 70.7195 271.76 71.5675 271.76C72.3995 271.76 73.1355 271.92 73.7755 272.24C74.4315 272.56 74.9435 273.048 75.3115 273.704C75.6955 274.344 75.8875 275.152 75.8875 276.128V284H72.5995V277.088C72.5995 276.048 72.3995 275.336 71.9995 274.952C71.5995 274.552 71.0875 274.352 70.4635 274.352C69.9995 274.352 69.5515 274.464 69.1195 274.688C68.7035 274.896 68.3595 275.248 68.0875 275.744C67.8315 276.224 67.7035 276.864 67.7035 277.664V284H64.4155ZM82.5149 266.744V280.304C82.5149 280.864 82.6109 281.256 82.8029 281.48C82.9949 281.704 83.3149 281.816 83.7629 281.816C84.0349 281.816 84.2589 281.8 84.4349 281.768C84.6109 281.72 84.8349 281.656 85.1069 281.576L84.8189 283.736C84.5469 283.896 84.2029 284.016 83.7869 284.096C83.3869 284.192 82.9869 284.24 82.5869 284.24C81.4189 284.24 80.5629 283.96 80.0189 283.4C79.4909 282.824 79.2269 281.912 79.2269 280.664V266.744H82.5149ZM97.7268 272L92.8788 284.744C92.4948 285.832 92.0628 286.696 91.5828 287.336C91.1188 287.976 90.5748 288.44 89.9508 288.728C89.3428 289.016 88.6148 289.16 87.7668 289.16C87.1428 289.16 86.5668 289.08 86.0388 288.92C85.5268 288.776 85.0788 288.584 84.6947 288.344L85.3908 285.968C85.6948 286.208 86.0148 286.376 86.3508 286.472C86.6868 286.584 87.0708 286.64 87.5028 286.64C87.9508 286.64 88.3348 286.544 88.6548 286.352C88.9908 286.16 89.2708 285.776 89.4948 285.2L89.9028 284.168L88.5828 281.048L84.9108 272H88.5588L90.8388 279.2L91.4628 281.6L92.2068 279.056L94.3908 272H97.7268ZM120.218 279.632C119.914 280.656 119.434 281.512 118.778 282.2C118.122 282.888 117.346 283.4 116.45 283.736C115.554 284.072 114.57 284.24 113.498 284.24C111.93 284.24 110.57 283.912 109.418 283.256C108.282 282.6 107.402 281.664 106.778 280.448C106.17 279.232 105.866 277.776 105.866 276.08C105.866 274.384 106.17 272.928 106.778 271.712C107.402 270.496 108.282 269.56 109.418 268.904C110.57 268.248 111.914 267.92 113.45 267.92C114.538 267.92 115.522 268.072 116.402 268.376C117.282 268.664 118.026 269.112 118.634 269.72C119.258 270.328 119.714 271.096 120.002 272.024L117.002 273.296C116.73 272.336 116.314 271.656 115.754 271.256C115.194 270.84 114.474 270.632 113.594 270.632C112.73 270.632 111.97 270.84 111.314 271.256C110.674 271.672 110.178 272.288 109.826 273.104C109.474 273.904 109.298 274.896 109.298 276.08C109.298 277.248 109.458 278.24 109.778 279.056C110.114 279.872 110.602 280.488 111.242 280.904C111.882 281.32 112.666 281.528 113.594 281.528C114.458 281.528 115.202 281.296 115.826 280.832C116.466 280.368 116.914 279.664 117.17 278.72L120.218 279.632ZM126.881 284.24C126.081 284.24 125.361 284.096 124.721 283.808C124.081 283.52 123.569 283.064 123.185 282.44C122.817 281.8 122.633 280.976 122.633 279.968V272H125.921V279.176C125.921 280.104 126.113 280.752 126.497 281.12C126.881 281.472 127.433 281.648 128.153 281.648C128.489 281.648 128.817 281.592 129.137 281.48C129.457 281.352 129.737 281.16 129.977 280.904C130.233 280.648 130.433 280.32 130.577 279.92C130.721 279.504 130.793 279.016 130.793 278.456V272H134.081V284H131.153L131.033 281.912C130.633 282.712 130.081 283.304 129.377 283.688C128.689 284.056 127.857 284.24 126.881 284.24ZM142.341 284.24C141.125 284.24 140.013 284.024 139.005 283.592C138.013 283.16 137.205 282.552 136.581 281.768L138.477 279.848C138.861 280.424 139.373 280.896 140.013 281.264C140.653 281.632 141.413 281.816 142.293 281.816C142.917 281.816 143.413 281.728 143.781 281.552C144.165 281.36 144.357 281.064 144.357 280.664C144.357 280.408 144.269 280.192 144.093 280.016C143.917 279.824 143.565 279.672 143.037 279.56L140.925 279.128C139.533 278.84 138.541 278.408 137.949 277.832C137.373 277.24 137.085 276.48 137.085 275.552C137.085 274.896 137.277 274.28 137.661 273.704C138.061 273.128 138.653 272.664 139.437 272.312C140.221 271.944 141.197 271.76 142.365 271.76C143.565 271.76 144.605 271.952 145.485 272.336C146.381 272.704 147.085 273.256 147.597 273.992L145.629 275.912C145.277 275.352 144.813 274.928 144.237 274.64C143.677 274.336 143.085 274.184 142.461 274.184C142.013 274.184 141.629 274.232 141.309 274.328C140.989 274.424 140.749 274.56 140.589 274.736C140.429 274.896 140.349 275.104 140.349 275.36C140.349 275.616 140.461 275.84 140.685 276.032C140.909 276.208 141.317 276.36 141.909 276.488L144.357 276.992C145.541 277.232 146.389 277.64 146.901 278.216C147.413 278.776 147.669 279.456 147.669 280.256C147.669 281.024 147.461 281.712 147.045 282.32C146.645 282.912 146.045 283.384 145.245 283.736C144.461 284.072 143.493 284.24 142.341 284.24ZM154.539 268.328V280.088C154.539 280.664 154.683 281.088 154.971 281.36C155.275 281.616 155.683 281.744 156.195 281.744C156.595 281.744 156.947 281.688 157.251 281.576C157.555 281.448 157.827 281.28 158.067 281.072L158.595 283.256C158.211 283.56 157.731 283.8 157.155 283.976C156.579 284.152 155.971 284.24 155.331 284.24C154.531 284.24 153.819 284.12 153.195 283.88C152.587 283.64 152.107 283.256 151.755 282.728C151.419 282.2 151.251 281.496 151.251 280.616V269.24L154.539 268.328ZM158.379 272V274.448H149.043V272H158.379ZM166.075 271.76C167.291 271.76 168.355 272.008 169.267 272.504C170.195 273 170.915 273.712 171.427 274.64C171.955 275.568 172.219 276.688 172.219 278C172.219 279.296 171.955 280.416 171.427 281.36C170.915 282.288 170.195 283 169.267 283.496C168.355 283.992 167.291 284.24 166.075 284.24C164.875 284.24 163.811 283.992 162.883 283.496C161.955 283 161.227 282.288 160.699 281.36C160.187 280.416 159.931 279.296 159.931 278C159.931 276.688 160.187 275.568 160.699 274.64C161.227 273.712 161.955 273 162.883 272.504C163.811 272.008 164.875 271.76 166.075 271.76ZM166.075 274.208C165.467 274.208 164.947 274.352 164.515 274.64C164.099 274.912 163.779 275.328 163.555 275.888C163.331 276.448 163.219 277.152 163.219 278C163.219 278.848 163.331 279.552 163.555 280.112C163.779 280.672 164.099 281.096 164.515 281.384C164.947 281.656 165.467 281.792 166.075 281.792C166.667 281.792 167.171 281.656 167.587 281.384C168.019 281.096 168.347 280.672 168.571 280.112C168.795 279.552 168.907 278.848 168.907 278C168.907 277.152 168.795 276.448 168.571 275.888C168.347 275.328 168.019 274.912 167.587 274.64C167.171 274.352 166.667 274.208 166.075 274.208ZM174.97 284V272H177.922L178.042 274.16C178.442 273.36 178.986 272.76 179.674 272.36C180.378 271.96 181.154 271.76 182.002 271.76C182.866 271.76 183.642 271.96 184.33 272.36C185.034 272.76 185.562 273.352 185.914 274.136C186.17 273.608 186.514 273.168 186.946 272.816C187.378 272.464 187.858 272.2 188.386 272.024C188.914 271.848 189.45 271.76 189.994 271.76C190.778 271.76 191.49 271.92 192.13 272.24C192.786 272.56 193.306 273.04 193.69 273.68C194.074 274.32 194.266 275.136 194.266 276.128V284H190.978V276.776C190.978 275.896 190.786 275.272 190.402 274.904C190.018 274.536 189.522 274.352 188.914 274.352C188.434 274.352 187.986 274.472 187.57 274.712C187.17 274.952 186.85 275.312 186.61 275.792C186.386 276.256 186.274 276.84 186.274 277.544V284H182.986V276.776C182.986 275.896 182.786 275.272 182.386 274.904C182.002 274.536 181.506 274.352 180.898 274.352C180.482 274.352 180.066 274.464 179.65 274.688C179.25 274.912 178.914 275.264 178.642 275.744C178.386 276.224 178.258 276.856 178.258 277.64V284H174.97ZM199.314 270.272C198.626 270.272 198.114 270.128 197.778 269.84C197.442 269.536 197.274 269.096 197.274 268.52C197.274 267.928 197.442 267.488 197.778 267.2C198.114 266.896 198.626 266.744 199.314 266.744C200.002 266.744 200.514 266.896 200.85 267.2C201.186 267.488 201.354 267.928 201.354 268.52C201.354 269.096 201.186 269.536 200.85 269.84C200.514 270.128 200.002 270.272 199.314 270.272ZM200.946 272V284H197.658V272H200.946ZM203.735 284V281.888L209.063 275.744L210.431 274.376L208.439 274.424H203.783V272H214.079V274.112L208.775 280.232L207.407 281.624L209.591 281.576H214.271V284H203.735ZM223.834 276.344C223.834 275.656 223.634 275.12 223.234 274.736C222.85 274.352 222.338 274.16 221.698 274.16C221.106 274.16 220.586 274.312 220.138 274.616C219.69 274.92 219.362 275.424 219.154 276.128L216.346 275.264C216.618 274.208 217.21 273.36 218.122 272.72C219.05 272.08 220.29 271.76 221.842 271.76C222.898 271.76 223.818 271.928 224.602 272.264C225.386 272.584 225.994 273.072 226.426 273.728C226.874 274.384 227.098 275.208 227.098 276.2V281.072C227.098 281.68 227.386 281.984 227.962 281.984C228.234 281.984 228.49 281.944 228.73 281.864L228.538 283.904C228.122 284.112 227.602 284.216 226.978 284.216C226.418 284.216 225.914 284.12 225.466 283.928C225.018 283.736 224.666 283.448 224.41 283.064C224.154 282.664 224.026 282.168 224.026 281.576V281.48L224.602 281.384C224.506 281.992 224.242 282.512 223.81 282.944C223.378 283.36 222.85 283.68 222.226 283.904C221.618 284.128 220.986 284.24 220.33 284.24C219.514 284.24 218.81 284.12 218.218 283.88C217.626 283.624 217.17 283.256 216.85 282.776C216.53 282.296 216.37 281.704 216.37 281C216.37 280.104 216.658 279.376 217.234 278.816C217.81 278.24 218.634 277.848 219.706 277.64L224.218 276.728L224.194 278.768L221.314 279.344C220.77 279.456 220.354 279.608 220.066 279.8C219.794 279.976 219.658 280.272 219.658 280.688C219.658 281.088 219.802 281.392 220.09 281.6C220.394 281.808 220.754 281.912 221.17 281.912C221.506 281.912 221.834 281.872 222.154 281.792C222.474 281.712 222.762 281.584 223.018 281.408C223.274 281.232 223.474 280.992 223.618 280.688C223.762 280.384 223.834 280.016 223.834 279.584V276.344ZM237.831 284.24C237.095 284.24 236.423 284.088 235.815 283.784C235.223 283.464 234.727 283.032 234.327 282.488C233.943 281.928 233.679 281.304 233.535 280.616L233.871 280.184L233.679 284H230.775V266.744H234.063V275.384L233.751 274.88C234.007 273.984 234.495 273.24 235.215 272.648C235.935 272.056 236.839 271.76 237.927 271.76C238.871 271.76 239.727 272.008 240.495 272.504C241.263 273 241.863 273.712 242.295 274.64C242.743 275.568 242.967 276.696 242.967 278.024C242.967 279.32 242.743 280.432 242.295 281.36C241.863 282.288 241.255 283 240.471 283.496C239.703 283.992 238.823 284.24 237.831 284.24ZM236.847 281.72C237.727 281.72 238.415 281.408 238.911 280.784C239.423 280.144 239.679 279.216 239.679 278C239.679 276.784 239.431 275.864 238.935 275.24C238.439 274.6 237.751 274.28 236.871 274.28C236.295 274.28 235.799 274.432 235.383 274.736C234.967 275.04 234.639 275.472 234.399 276.032C234.175 276.592 234.063 277.256 234.063 278.024C234.063 278.808 234.175 279.48 234.399 280.04C234.639 280.584 234.967 281 235.383 281.288C235.815 281.576 236.303 281.72 236.847 281.72ZM249.062 266.744V280.304C249.062 280.864 249.158 281.256 249.35 281.48C249.542 281.704 249.862 281.816 250.31 281.816C250.582 281.816 250.806 281.8 250.982 281.768C251.158 281.72 251.382 281.656 251.654 281.576L251.366 283.736C251.094 283.896 250.75 284.016 250.334 284.096C249.934 284.192 249.534 284.24 249.134 284.24C247.966 284.24 247.11 283.96 246.566 283.4C246.038 282.824 245.774 281.912 245.774 280.664V266.744H249.062ZM259.054 284.24C257.79 284.24 256.686 283.992 255.742 283.496C254.814 283 254.094 282.288 253.582 281.36C253.07 280.432 252.814 279.312 252.814 278C252.814 276.688 253.07 275.568 253.582 274.64C254.094 273.712 254.806 273 255.718 272.504C256.646 272.008 257.702 271.76 258.886 271.76C260.102 271.76 261.134 272.008 261.982 272.504C262.83 272.984 263.478 273.648 263.926 274.496C264.374 275.328 264.598 276.28 264.598 277.352C264.598 277.672 264.59 277.976 264.574 278.264C264.558 278.552 264.534 278.808 264.502 279.032H254.926V276.752H263.062L261.478 277.328C261.478 276.32 261.246 275.544 260.782 275C260.334 274.456 259.694 274.184 258.862 274.184C258.254 274.184 257.726 274.328 257.278 274.616C256.846 274.904 256.518 275.336 256.294 275.912C256.07 276.472 255.958 277.184 255.958 278.048C255.958 278.896 256.078 279.6 256.318 280.16C256.574 280.704 256.926 281.112 257.374 281.384C257.838 281.656 258.39 281.792 259.03 281.792C259.734 281.792 260.302 281.656 260.734 281.384C261.166 281.112 261.502 280.736 261.742 280.256L264.358 281.264C264.102 281.888 263.71 282.424 263.182 282.872C262.67 283.32 262.054 283.664 261.334 283.904C260.63 284.128 259.87 284.24 259.054 284.24Z" fill="#44403C"/>
<path d="M34.048 342.16C35.84 342.16 37.248 342.592 38.272 343.456C39.296 344.32 39.808 345.48 39.808 346.936C39.808 348.488 39.296 349.68 38.272 350.512C37.248 351.328 35.848 351.736 34.072 351.736L33.736 351.928H30.328V358H27.064V342.16H34.048ZM33.664 349.408C34.592 349.408 35.28 349.224 35.728 348.856C36.192 348.472 36.424 347.888 36.424 347.104C36.424 346.32 36.192 345.744 35.728 345.376C35.28 344.992 34.592 344.8 33.664 344.8H30.328V349.408H33.664ZM35.608 350.104L40.744 358H37.024L32.776 351.064L35.608 350.104ZM48.3741 358.24C47.1101 358.24 46.0061 357.992 45.0621 357.496C44.1341 357 43.4141 356.288 42.9021 355.36C42.3901 354.432 42.1341 353.312 42.1341 352C42.1341 350.688 42.3901 349.568 42.9021 348.64C43.4141 347.712 44.1261 347 45.0381 346.504C45.9661 346.008 47.0221 345.76 48.2061 345.76C49.4221 345.76 50.4541 346.008 51.3021 346.504C52.1501 346.984 52.7981 347.648 53.2461 348.496C53.6941 349.328 53.9181 350.28 53.9181 351.352C53.9181 351.672 53.9101 351.976 53.8941 352.264C53.8781 352.552 53.8541 352.808 53.8221 353.032H44.2461V350.752H52.3821L50.7981 351.328C50.7981 350.32 50.5661 349.544 50.1021 349C49.6541 348.456 49.0141 348.184 48.1821 348.184C47.5741 348.184 47.0461 348.328 46.5981 348.616C46.1661 348.904 45.8381 349.336 45.6141 349.912C45.3901 350.472 45.2781 351.184 45.2781 352.048C45.2781 352.896 45.3981 353.6 45.6381 354.16C45.8941 354.704 46.2461 355.112 46.6941 355.384C47.1581 355.656 47.7101 355.792 48.3501 355.792C49.0541 355.792 49.6221 355.656 50.0541 355.384C50.4861 355.112 50.8221 354.736 51.0621 354.256L53.6781 355.264C53.4221 355.888 53.0301 356.424 52.5021 356.872C51.9901 357.32 51.3741 357.664 50.6541 357.904C49.9501 358.128 49.1901 358.24 48.3741 358.24ZM60.8806 358.24C60.0806 358.24 59.3606 358.096 58.7206 357.808C58.0806 357.52 57.5686 357.064 57.1846 356.44C56.8166 355.8 56.6326 354.976 56.6326 353.968V346H59.9206V353.176C59.9206 354.104 60.1126 354.752 60.4966 355.12C60.8806 355.472 61.4326 355.648 62.1526 355.648C62.4886 355.648 62.8166 355.592 63.1366 355.48C63.4566 355.352 63.7366 355.16 63.9766 354.904C64.2326 354.648 64.4326 354.32 64.5766 353.92C64.7206 353.504 64.7926 353.016 64.7926 352.456V346H68.0806V358H65.1526L65.0326 355.912C64.6326 356.712 64.0806 357.304 63.3766 357.688C62.6886 358.056 61.8566 358.24 60.8806 358.24ZM76.3405 358.24C75.1245 358.24 74.0125 358.024 73.0045 357.592C72.0125 357.16 71.2045 356.552 70.5805 355.768L72.4765 353.848C72.8605 354.424 73.3725 354.896 74.0125 355.264C74.6525 355.632 75.4125 355.816 76.2925 355.816C76.9165 355.816 77.4125 355.728 77.7805 355.552C78.1645 355.36 78.3565 355.064 78.3565 354.664C78.3565 354.408 78.2685 354.192 78.0925 354.016C77.9165 353.824 77.5645 353.672 77.0365 353.56L74.9245 353.128C73.5325 352.84 72.5405 352.408 71.9485 351.832C71.3725 351.24 71.0845 350.48 71.0845 349.552C71.0845 348.896 71.2765 348.28 71.6605 347.704C72.0605 347.128 72.6525 346.664 73.4365 346.312C74.2205 345.944 75.1965 345.76 76.3645 345.76C77.5645 345.76 78.6045 345.952 79.4845 346.336C80.3805 346.704 81.0845 347.256 81.5965 347.992L79.6285 349.912C79.2765 349.352 78.8125 348.928 78.2365 348.64C77.6765 348.336 77.0845 348.184 76.4605 348.184C76.0125 348.184 75.6285 348.232 75.3085 348.328C74.9885 348.424 74.7485 348.56 74.5885 348.736C74.4285 348.896 74.3485 349.104 74.3485 349.36C74.3485 349.616 74.4605 349.84 74.6845 350.032C74.9085 350.208 75.3165 350.36 75.9085 350.488L78.3565 350.992C79.5405 351.232 80.3885 351.64 80.9005 352.216C81.4125 352.776 81.6685 353.456 81.6685 354.256C81.6685 355.024 81.4605 355.712 81.0445 356.32C80.6445 356.912 80.0445 357.384 79.2445 357.736C78.4605 358.072 77.4925 358.24 76.3405 358.24ZM91.1305 350.344C91.1305 349.656 90.9305 349.12 90.5305 348.736C90.1465 348.352 89.6345 348.16 88.9945 348.16C88.4025 348.16 87.8825 348.312 87.4345 348.616C86.9865 348.92 86.6585 349.424 86.4505 350.128L83.6425 349.264C83.9145 348.208 84.5065 347.36 85.4185 346.72C86.3465 346.08 87.5865 345.76 89.1385 345.76C90.1945 345.76 91.1145 345.928 91.8985 346.264C92.6825 346.584 93.2905 347.072 93.7225 347.728C94.1705 348.384 94.3945 349.208 94.3945 350.2V355.072C94.3945 355.68 94.6825 355.984 95.2585 355.984C95.5305 355.984 95.7865 355.944 96.0265 355.864L95.8345 357.904C95.4185 358.112 94.8985 358.216 94.2745 358.216C93.7145 358.216 93.2105 358.12 92.7625 357.928C92.3145 357.736 91.9625 357.448 91.7065 357.064C91.4505 356.664 91.3225 356.168 91.3225 355.576V355.48L91.8985 355.384C91.8025 355.992 91.5385 356.512 91.1065 356.944C90.6745 357.36 90.1465 357.68 89.5225 357.904C88.9145 358.128 88.2825 358.24 87.6265 358.24C86.8105 358.24 86.1065 358.12 85.5145 357.88C84.9225 357.624 84.4665 357.256 84.1465 356.776C83.8265 356.296 83.6665 355.704 83.6665 355C83.6665 354.104 83.9545 353.376 84.5305 352.816C85.1065 352.24 85.9305 351.848 87.0025 351.64L91.5145 350.728L91.4905 352.768L88.6105 353.344C88.0665 353.456 87.6505 353.608 87.3625 353.8C87.0905 353.976 86.9545 354.272 86.9545 354.688C86.9545 355.088 87.0985 355.392 87.3865 355.6C87.6905 355.808 88.0505 355.912 88.4665 355.912C88.8025 355.912 89.1305 355.872 89.4505 355.792C89.7705 355.712 90.0585 355.584 90.3145 355.408C90.5705 355.232 90.7705 354.992 90.9145 354.688C91.0585 354.384 91.1305 354.016 91.1305 353.584V350.344ZM105.128 358.24C104.392 358.24 103.72 358.088 103.112 357.784C102.52 357.464 102.024 357.032 101.624 356.488C101.24 355.928 100.976 355.304 100.832 354.616L101.168 354.184L100.976 358H98.0718V340.744H101.36V349.384L101.048 348.88C101.304 347.984 101.792 347.24 102.512 346.648C103.232 346.056 104.136 345.76 105.224 345.76C106.168 345.76 107.024 346.008 107.792 346.504C108.56 347 109.16 347.712 109.592 348.64C110.04 349.568 110.264 350.696 110.264 352.024C110.264 353.32 110.04 354.432 109.592 355.36C109.16 356.288 108.552 357 107.768 357.496C107 357.992 106.12 358.24 105.128 358.24ZM104.144 355.72C105.024 355.72 105.712 355.408 106.208 354.784C106.72 354.144 106.976 353.216 106.976 352C106.976 350.784 106.728 349.864 106.232 349.24C105.736 348.6 105.048 348.28 104.168 348.28C103.592 348.28 103.096 348.432 102.68 348.736C102.264 349.04 101.936 349.472 101.696 350.032C101.472 350.592 101.36 351.256 101.36 352.024C101.36 352.808 101.472 353.48 101.696 354.04C101.936 354.584 102.264 355 102.68 355.288C103.112 355.576 103.6 355.72 104.144 355.72ZM116.359 340.744V354.304C116.359 354.864 116.455 355.256 116.647 355.48C116.839 355.704 117.159 355.816 117.607 355.816C117.879 355.816 118.103 355.8 118.279 355.768C118.455 355.72 118.679 355.656 118.951 355.576L118.663 357.736C118.391 357.896 118.047 358.016 117.631 358.096C117.231 358.192 116.831 358.24 116.431 358.24C115.263 358.24 114.407 357.96 113.863 357.4C113.335 356.824 113.071 355.912 113.071 354.664V340.744H116.359ZM126.351 358.24C125.087 358.24 123.983 357.992 123.039 357.496C122.111 357 121.391 356.288 120.879 355.36C120.367 354.432 120.111 353.312 120.111 352C120.111 350.688 120.367 349.568 120.879 348.64C121.391 347.712 122.103 347 123.015 346.504C123.943 346.008 124.999 345.76 126.183 345.76C127.399 345.76 128.431 346.008 129.279 346.504C130.127 346.984 130.775 347.648 131.223 348.496C131.671 349.328 131.895 350.28 131.895 351.352C131.895 351.672 131.887 351.976 131.871 352.264C131.855 352.552 131.831 352.808 131.799 353.032H122.223V350.752H130.359L128.775 351.328C128.775 350.32 128.543 349.544 128.079 349C127.631 348.456 126.991 348.184 126.159 348.184C125.551 348.184 125.023 348.328 124.575 348.616C124.143 348.904 123.815 349.336 123.591 349.912C123.367 350.472 123.255 351.184 123.255 352.048C123.255 352.896 123.375 353.6 123.615 354.16C123.871 354.704 124.223 355.112 124.671 355.384C125.135 355.656 125.687 355.792 126.327 355.792C127.031 355.792 127.599 355.656 128.031 355.384C128.463 355.112 128.799 354.736 129.039 354.256L131.655 355.264C131.399 355.888 131.007 356.424 130.479 356.872C129.967 357.32 129.351 357.664 128.631 357.904C127.927 358.128 127.167 358.24 126.351 358.24ZM149.001 342.16C150.217 342.16 151.257 342.368 152.121 342.784C152.985 343.184 153.649 343.768 154.113 344.536C154.593 345.288 154.833 346.2 154.833 347.272C154.833 348.344 154.593 349.264 154.113 350.032C153.649 350.784 152.985 351.368 152.121 351.784C151.257 352.184 150.217 352.384 149.001 352.384H145.665V358H142.353V342.16H149.001ZM148.497 349.768C149.489 349.768 150.233 349.56 150.729 349.144C151.225 348.712 151.473 348.088 151.473 347.272C151.473 346.44 151.225 345.816 150.729 345.4C150.233 344.984 149.489 344.776 148.497 344.776H145.665V349.768H148.497ZM159.189 344.272C158.501 344.272 157.989 344.128 157.653 343.84C157.317 343.536 157.149 343.096 157.149 342.52C157.149 341.928 157.317 341.488 157.653 341.2C157.989 340.896 158.501 340.744 159.189 340.744C159.877 340.744 160.389 340.896 160.725 341.2C161.061 341.488 161.229 341.928 161.229 342.52C161.229 343.096 161.061 343.536 160.725 343.84C160.389 344.128 159.877 344.272 159.189 344.272ZM160.821 346V358H157.533V346H160.821ZM164.306 363.04V346H167.258L167.474 349.816L167.066 349.384C167.21 348.68 167.474 348.056 167.858 347.512C168.258 346.968 168.762 346.544 169.37 346.24C169.978 345.92 170.658 345.76 171.41 345.76C172.386 345.76 173.258 346.008 174.026 346.504C174.794 347 175.394 347.712 175.826 348.64C176.274 349.552 176.498 350.664 176.498 351.976C176.498 353.288 176.274 354.416 175.826 355.36C175.378 356.288 174.762 357 173.978 357.496C173.21 357.992 172.33 358.24 171.338 358.24C170.282 358.24 169.402 357.944 168.698 357.352C168.01 356.76 167.538 356.016 167.282 355.12L167.594 354.616V363.04H164.306ZM170.378 355.72C171.258 355.72 171.946 355.408 172.442 354.784C172.954 354.144 173.21 353.216 173.21 352C173.21 350.784 172.962 349.864 172.466 349.24C171.986 348.6 171.306 348.28 170.426 348.28C169.866 348.28 169.37 348.432 168.938 348.736C168.522 349.024 168.194 349.448 167.954 350.008C167.714 350.552 167.594 351.216 167.594 352C167.594 352.768 167.706 353.432 167.93 353.992C168.154 354.552 168.474 354.984 168.89 355.288C169.322 355.576 169.818 355.72 170.378 355.72ZM184.921 358.24C183.657 358.24 182.553 357.992 181.609 357.496C180.681 357 179.961 356.288 179.449 355.36C178.937 354.432 178.681 353.312 178.681 352C178.681 350.688 178.937 349.568 179.449 348.64C179.961 347.712 180.673 347 181.585 346.504C182.513 346.008 183.569 345.76 184.753 345.76C185.969 345.76 187.001 346.008 187.849 346.504C188.697 346.984 189.345 347.648 189.793 348.496C190.241 349.328 190.465 350.28 190.465 351.352C190.465 351.672 190.457 351.976 190.441 352.264C190.425 352.552 190.401 352.808 190.369 353.032H180.793V350.752H188.929L187.345 351.328C187.345 350.32 187.113 349.544 186.649 349C186.201 348.456 185.561 348.184 184.729 348.184C184.121 348.184 183.593 348.328 183.145 348.616C182.713 348.904 182.385 349.336 182.161 349.912C181.937 350.472 181.825 351.184 181.825 352.048C181.825 352.896 181.945 353.6 182.185 354.16C182.441 354.704 182.793 355.112 183.241 355.384C183.705 355.656 184.257 355.792 184.897 355.792C185.601 355.792 186.169 355.656 186.601 355.384C187.033 355.112 187.369 354.736 187.609 354.256L190.225 355.264C189.969 355.888 189.577 356.424 189.049 356.872C188.537 357.32 187.921 357.664 187.201 357.904C186.497 358.128 185.737 358.24 184.921 358.24ZM196.491 340.744V354.304C196.491 354.864 196.587 355.256 196.779 355.48C196.971 355.704 197.291 355.816 197.739 355.816C198.011 355.816 198.235 355.8 198.411 355.768C198.587 355.72 198.811 355.656 199.083 355.576L198.795 357.736C198.523 357.896 198.179 358.016 197.763 358.096C197.363 358.192 196.963 358.24 196.563 358.24C195.395 358.24 194.539 357.96 193.995 357.4C193.467 356.824 193.203 355.912 193.203 354.664V340.744H196.491ZM202.572 344.272C201.884 344.272 201.372 344.128 201.036 343.84C200.7 343.536 200.532 343.096 200.532 342.52C200.532 341.928 200.7 341.488 201.036 341.2C201.372 340.896 201.884 340.744 202.572 340.744C203.26 340.744 203.772 340.896 204.108 341.2C204.444 341.488 204.612 341.928 204.612 342.52C204.612 343.096 204.444 343.536 204.108 343.84C203.772 344.128 203.26 344.272 202.572 344.272ZM204.204 346V358H200.916V346H204.204ZM207.689 358V346H210.641L210.833 349.6L210.425 349.216C210.617 348.432 210.921 347.784 211.337 347.272C211.753 346.76 212.257 346.384 212.849 346.144C213.457 345.888 214.121 345.76 214.841 345.76C215.673 345.76 216.409 345.92 217.049 346.24C217.705 346.56 218.217 347.048 218.585 347.704C218.969 348.344 219.161 349.152 219.161 350.128V358H215.873V351.064C215.873 350.04 215.673 349.336 215.273 348.952C214.873 348.552 214.353 348.352 213.713 348.352C213.265 348.352 212.825 348.464 212.393 348.688C211.977 348.896 211.633 349.24 211.361 349.72C211.105 350.2 210.977 350.84 210.977 351.64V358H207.689ZM228.116 358.24C226.852 358.24 225.748 357.992 224.804 357.496C223.876 357 223.156 356.288 222.644 355.36C222.132 354.432 221.876 353.312 221.876 352C221.876 350.688 222.132 349.568 222.644 348.64C223.156 347.712 223.868 347 224.78 346.504C225.708 346.008 226.764 345.76 227.948 345.76C229.164 345.76 230.196 346.008 231.044 346.504C231.892 346.984 232.54 347.648 232.988 348.496C233.436 349.328 233.66 350.28 233.66 351.352C233.66 351.672 233.652 351.976 233.636 352.264C233.62 352.552 233.596 352.808 233.564 353.032H223.988V350.752H232.124L230.54 351.328C230.54 350.32 230.308 349.544 229.844 349C229.396 348.456 228.756 348.184 227.924 348.184C227.316 348.184 226.788 348.328 226.34 348.616C225.908 348.904 225.58 349.336 225.356 349.912C225.132 350.472 225.02 351.184 225.02 352.048C225.02 352.896 225.14 353.6 225.38 354.16C225.636 354.704 225.988 355.112 226.436 355.384C226.9 355.656 227.452 355.792 228.092 355.792C228.796 355.792 229.364 355.656 229.796 355.384C230.228 355.112 230.564 354.736 230.804 354.256L233.42 355.264C233.164 355.888 232.772 356.424 232.244 356.872C231.732 357.32 231.116 357.664 230.396 357.904C229.692 358.128 228.932 358.24 228.116 358.24Z" fill="#44403C"/>
<path d="M763.184 45.16C765.664 45.16 767.584 45.848 768.944 47.224C770.304 48.584 770.984 50.536 770.984 53.08C770.984 55.608 770.304 57.56 768.944 58.936C767.584 60.312 765.664 61 763.184 61H757.064V45.16H763.184ZM763.016 58.36C764.52 58.36 765.648 57.912 766.4 57.016C767.168 56.104 767.552 54.792 767.552 53.08C767.552 51.368 767.168 50.064 766.4 49.168C765.648 48.256 764.52 47.8 763.016 47.8H760.376V58.36H763.016ZM777.626 45.16V61H774.314V45.16H777.626ZM794.464 45.16L788.848 55.072V61H785.536V55.072L779.92 45.16H783.448L785.992 49.912L787.192 52.384L788.416 49.912L790.96 45.16H794.464Z" fill="#44403C"/>
<path d="M788.334 118L770 136.333L761.667 128" stroke="#4F46E5" stroke-width="5" stroke-linecap="round" stroke-linejoin="round"/>
<path d="M788.334 266L770 284.333L761.667 276" stroke="#4F46E5" stroke-width="5" stroke-linecap="round" stroke-linejoin="round"/>
<path d="M788.334 340L770 358.333L761.667 350" stroke="#4F46E5" stroke-width="5" stroke-linecap="round" stroke-linejoin="round"/>
<path d="M319.624 56.632C319.32 57.656 318.84 58.512 318.184 59.2C317.528 59.888 316.752 60.4 315.856 60.736C314.96 61.072 313.976 61.24 312.904 61.24C311.336 61.24 309.976 60.912 308.824 60.256C307.688 59.6 306.808 58.664 306.184 57.448C305.576 56.232 305.272 54.776 305.272 53.08C305.272 51.384 305.576 49.928 306.184 48.712C306.808 47.496 307.688 46.56 308.824 45.904C309.976 45.248 311.32 44.92 312.856 44.92C313.944 44.92 314.928 45.072 315.808 45.376C316.688 45.664 317.432 46.112 318.04 46.72C318.664 47.328 319.12 48.096 319.408 49.024L316.408 50.296C316.136 49.336 315.72 48.656 315.16 48.256C314.6 47.84 313.88 47.632 313 47.632C312.136 47.632 311.376 47.84 310.72 48.256C310.08 48.672 309.584 49.288 309.232 50.104C308.88 50.904 308.704 51.896 308.704 53.08C308.704 54.248 308.864 55.24 309.184 56.056C309.52 56.872 310.008 57.488 310.648 57.904C311.288 58.32 312.072 58.528 313 58.528C313.864 58.528 314.608 58.296 315.232 57.832C315.872 57.368 316.32 56.664 316.576 55.72L319.624 56.632ZM327.583 48.76C328.799 48.76 329.863 49.008 330.775 49.504C331.703 50 332.423 50.712 332.935 51.64C333.463 52.568 333.727 53.688 333.727 55C333.727 56.296 333.463 57.416 332.935 58.36C332.423 59.288 331.703 60 330.775 60.496C329.863 60.992 328.799 61.24 327.583 61.24C326.383 61.24 325.319 60.992 324.391 60.496C323.463 60 322.735 59.288 322.207 58.36C321.695 57.416 321.439 56.296 321.439 55C321.439 53.688 321.695 52.568 322.207 51.64C322.735 50.712 323.463 50 324.391 49.504C325.319 49.008 326.383 48.76 327.583 48.76ZM327.583 51.208C326.975 51.208 326.455 51.352 326.023 51.64C325.607 51.912 325.287 52.328 325.063 52.888C324.839 53.448 324.727 54.152 324.727 55C324.727 55.848 324.839 56.552 325.063 57.112C325.287 57.672 325.607 58.096 326.023 58.384C326.455 58.656 326.975 58.792 327.583 58.792C328.175 58.792 328.679 58.656 329.095 58.384C329.527 58.096 329.855 57.672 330.079 57.112C330.303 56.552 330.415 55.848 330.415 55C330.415 54.152 330.303 53.448 330.079 52.888C329.855 52.328 329.527 51.912 329.095 51.64C328.679 51.352 328.175 51.208 327.583 51.208ZM336.478 61V49H339.43L339.55 51.16C339.95 50.36 340.494 49.76 341.182 49.36C341.886 48.96 342.662 48.76 343.51 48.76C344.374 48.76 345.15 48.96 345.838 49.36C346.542 49.76 347.07 50.352 347.422 51.136C347.678 50.608 348.022 50.168 348.454 49.816C348.886 49.464 349.366 49.2 349.894 49.024C350.422 48.848 350.958 48.76 351.502 48.76C352.286 48.76 352.998 48.92 353.638 49.24C354.294 49.56 354.814 50.04 355.198 50.68C355.582 51.32 355.774 52.136 355.774 53.128V61H352.486V53.776C352.486 52.896 352.294 52.272 351.91 51.904C351.526 51.536 351.03 51.352 350.422 51.352C349.942 51.352 349.494 51.472 349.078 51.712C348.678 51.952 348.358 52.312 348.118 52.792C347.894 53.256 347.782 53.84 347.782 54.544V61H344.494V53.776C344.494 52.896 344.294 52.272 343.894 51.904C343.51 51.536 343.014 51.352 342.406 51.352C341.99 51.352 341.574 51.464 341.158 51.688C340.758 51.912 340.422 52.264 340.15 52.744C339.894 53.224 339.766 53.856 339.766 54.64V61H336.478ZM359.166 61V49H362.118L362.238 51.16C362.638 50.36 363.182 49.76 363.87 49.36C364.574 48.96 365.35 48.76 366.198 48.76C367.062 48.76 367.838 48.96 368.526 49.36C369.23 49.76 369.758 50.352 370.109 51.136C370.366 50.608 370.71 50.168 371.142 49.816C371.574 49.464 372.054 49.2 372.582 49.024C373.11 48.848 373.646 48.76 374.19 48.76C374.974 48.76 375.686 48.92 376.326 49.24C376.982 49.56 377.502 50.04 377.886 50.68C378.27 51.32 378.462 52.136 378.462 53.128V61H375.174V53.776C375.174 52.896 374.982 52.272 374.598 51.904C374.214 51.536 373.718 51.352 373.11 51.352C372.63 51.352 372.182 51.472 371.766 51.712C371.366 51.952 371.046 52.312 370.806 52.792C370.582 53.256 370.47 53.84 370.47 54.544V61H367.182V53.776C367.182 52.896 366.982 52.272 366.582 51.904C366.198 51.536 365.702 51.352 365.094 51.352C364.678 51.352 364.262 51.464 363.846 51.688C363.446 51.912 363.11 52.264 362.838 52.744C362.582 53.224 362.454 53.856 362.454 54.64V61H359.166ZM387.421 61.24C386.157 61.24 385.053 60.992 384.109 60.496C383.181 60 382.461 59.288 381.949 58.36C381.437 57.432 381.181 56.312 381.181 55C381.181 53.688 381.437 52.568 381.949 51.64C382.461 50.712 383.173 50 384.085 49.504C385.013 49.008 386.069 48.76 387.253 48.76C388.469 48.76 389.501 49.008 390.349 49.504C391.197 49.984 391.845 50.648 392.293 51.496C392.741 52.328 392.965 53.28 392.965 54.352C392.965 54.672 392.957 54.976 392.941 55.264C392.925 55.552 392.901 55.808 392.869 56.032H383.293V53.752H391.429L389.845 54.328C389.845 53.32 389.613 52.544 389.149 52C388.701 51.456 388.061 51.184 387.229 51.184C386.621 51.184 386.093 51.328 385.645 51.616C385.213 51.904 384.885 52.336 384.661 52.912C384.437 53.472 384.325 54.184 384.325 55.048C384.325 55.896 384.445 56.6 384.685 57.16C384.941 57.704 385.293 58.112 385.741 58.384C386.205 58.656 386.757 58.792 387.397 58.792C388.101 58.792 388.669 58.656 389.101 58.384C389.533 58.112 389.869 57.736 390.109 57.256L392.725 58.264C392.469 58.888 392.077 59.424 391.549 59.872C391.037 60.32 390.421 60.664 389.701 60.904C388.997 61.128 388.237 61.24 387.421 61.24ZM395.751 61V49H398.607L398.823 51.352C399.143 50.52 399.607 49.88 400.215 49.432C400.839 48.984 401.615 48.76 402.543 48.76C402.815 48.76 403.063 48.784 403.287 48.832C403.511 48.88 403.695 48.944 403.839 49.024L403.455 51.784C403.295 51.72 403.095 51.672 402.855 51.64C402.631 51.608 402.335 51.592 401.967 51.592C401.487 51.592 401.023 51.712 400.575 51.952C400.127 52.176 399.759 52.528 399.471 53.008C399.183 53.472 399.039 54.064 399.039 54.784V61H395.751ZM411.09 48.76C412.162 48.76 413.066 48.92 413.802 49.24C414.554 49.544 415.154 49.968 415.602 50.512C416.066 51.04 416.394 51.632 416.586 52.288L413.514 53.392C413.354 52.672 413.082 52.128 412.698 51.76C412.314 51.392 411.794 51.208 411.138 51.208C410.53 51.208 410.01 51.352 409.578 51.64C409.146 51.912 408.818 52.336 408.594 52.912C408.37 53.472 408.258 54.176 408.258 55.024C408.258 55.872 408.37 56.576 408.594 57.136C408.834 57.696 409.17 58.112 409.602 58.384C410.05 58.656 410.57 58.792 411.162 58.792C411.642 58.792 412.05 58.712 412.386 58.552C412.722 58.376 412.994 58.128 413.202 57.808C413.426 57.488 413.578 57.104 413.658 56.656L416.634 57.616C416.458 58.336 416.13 58.968 415.65 59.512C415.17 60.056 414.554 60.48 413.802 60.784C413.05 61.088 412.178 61.24 411.186 61.24C409.954 61.24 408.866 60.992 407.922 60.496C406.978 60 406.25 59.288 405.738 58.36C405.226 57.432 404.97 56.312 404.97 55C404.97 53.688 405.226 52.568 405.738 51.64C406.25 50.712 406.97 50 407.898 49.504C408.826 49.008 409.89 48.76 411.09 48.76ZM420.845 47.272C420.157 47.272 419.645 47.128 419.309 46.84C418.973 46.536 418.805 46.096 418.805 45.52C418.805 44.928 418.973 44.488 419.309 44.2C419.645 43.896 420.157 43.744 420.845 43.744C421.533 43.744 422.045 43.896 422.381 44.2C422.717 44.488 422.885 44.928 422.885 45.52C422.885 46.096 422.717 46.536 422.381 46.84C422.045 47.128 421.533 47.272 420.845 47.272ZM422.477 49V61H419.189V49H422.477ZM432.802 53.344C432.802 52.656 432.602 52.12 432.202 51.736C431.818 51.352 431.306 51.16 430.666 51.16C430.074 51.16 429.554 51.312 429.106 51.616C428.658 51.92 428.33 52.424 428.122 53.128L425.314 52.264C425.586 51.208 426.178 50.36 427.09 49.72C428.018 49.08 429.258 48.76 430.81 48.76C431.866 48.76 432.786 48.928 433.57 49.264C434.354 49.584 434.962 50.072 435.394 50.728C435.842 51.384 436.066 52.208 436.066 53.2V58.072C436.066 58.68 436.354 58.984 436.93 58.984C437.202 58.984 437.458 58.944 437.698 58.864L437.506 60.904C437.09 61.112 436.57 61.216 435.946 61.216C435.386 61.216 434.882 61.12 434.434 60.928C433.986 60.736 433.634 60.448 433.378 60.064C433.122 59.664 432.994 59.168 432.994 58.576V58.48L433.57 58.384C433.474 58.992 433.21 59.512 432.778 59.944C432.346 60.36 431.818 60.68 431.194 60.904C430.586 61.128 429.954 61.24 429.298 61.24C428.482 61.24 427.778 61.12 427.186 60.88C426.594 60.624 426.138 60.256 425.818 59.776C425.498 59.296 425.338 58.704 425.338 58C425.338 57.104 425.626 56.376 426.202 55.816C426.778 55.24 427.602 54.848 428.674 54.64L433.186 53.728L433.162 55.768L430.282 56.344C429.738 56.456 429.322 56.608 429.034 56.8C428.762 56.976 428.626 57.272 428.626 57.688C428.626 58.088 428.77 58.392 429.058 58.6C429.362 58.808 429.722 58.912 430.138 58.912C430.474 58.912 430.802 58.872 431.122 58.792C431.442 58.712 431.73 58.584 431.986 58.408C432.242 58.232 432.442 57.992 432.586 57.688C432.73 57.384 432.802 57.016 432.802 56.584V53.344ZM442.984 43.744V57.304C442.984 57.864 443.08 58.256 443.272 58.48C443.464 58.704 443.784 58.816 444.232 58.816C444.504 58.816 444.728 58.8 444.904 58.768C445.08 58.72 445.304 58.656 445.576 58.576L445.288 60.736C445.016 60.896 444.672 61.016 444.256 61.096C443.856 61.192 443.456 61.24 443.056 61.24C441.888 61.24 441.032 60.96 440.488 60.4C439.96 59.824 439.696 58.912 439.696 57.664V43.744H442.984Z" fill="#44403C"/>
<path d="M388.334 266L370 284.333L361.667 276" stroke="#4F46E5" stroke-width="5" stroke-linecap="round" stroke-linejoin="round"/>
<path d="M388.334 192L370 210.333L361.667 202" stroke="#4F46E5" stroke-width="5" stroke-linecap="round" stroke-linejoin="round"/>
<path d="M388.334 340L370 358.333L361.667 350" stroke="#4F46E5" stroke-width="5" stroke-linecap="round" stroke-linejoin="round"/>
<line x1="11" y1="166.5" x2="860" y2="166.5" stroke="url(#paint0_linear_144_1559)"/>
<line x1="11" y1="241.5" x2="860" y2="241.5" stroke="url(#paint1_linear_144_1559)"/>
<line x1="11" y1="316.5" x2="860" y2="316.5" stroke="url(#paint2_linear_144_1559)"/>
<line x1="11" y1="91.5" x2="860" y2="91.5" stroke="url(#paint3_linear_144_1559)"/>
<path d="M593.334 118L575 136.333L566.667 128" stroke="#4F46E5" stroke-width="5" stroke-linecap="round" stroke-linejoin="round"/>
<path d="M593.334 192L575 210.333L566.667 202" stroke="#4F46E5" stroke-width="5" stroke-linecap="round" stroke-linejoin="round"/>
<path d="M593.334 340L575 358.333L566.667 350" stroke="#4F46E5" stroke-width="5" stroke-linecap="round" stroke-linejoin="round"/>
<g clip-path="url(#clip1_144_1559)">
<path d="M537.755 58.7154L539.822 55.917C541.833 57.4153 543.816 58.0933 545.685 58.0933C548.092 58.0933 549.452 56.9631 549.452 55.4082C549.452 54.195 548.631 53.3444 546.48 52.8355L542.997 52.016C539.853 51.253 538.126 49.4433 538.126 46.8148C538.126 43.3659 540.986 40.8789 545.404 40.8789C548.152 40.8789 550.785 41.84 552.655 43.649L550.332 46.1367C548.803 44.7213 547.104 44.1013 545.347 44.1013C542.997 44.1013 541.722 45.1756 541.722 46.589C541.722 47.7193 542.487 48.4829 544.753 49.0201L548.237 49.8396C551.463 50.6309 553.075 52.384 553.075 55.1527C553.075 58.8556 550.271 61.3427 545.569 61.3427C542.654 61.344 539.85 60.4099 537.755 58.7154Z" fill="#1C1917"/>
<path d="M569.958 54.6161H558.486C558.769 57.0755 560.439 58.4322 562.932 58.4322C564.603 58.4322 566.019 57.8101 567.208 56.3684L569.588 58.1774C568.058 60.2412 565.708 61.3452 562.875 61.3452C558.174 61.3452 555.087 58.2927 555.087 53.8828C555.087 49.4169 558.316 46.1938 562.847 46.1938C567.067 46.1938 570.041 48.9646 570.041 53.3456C570.042 53.7705 570.014 54.195 569.958 54.6161ZM558.655 52.0717H566.614C566.245 50.0363 564.858 49.0469 562.818 49.0469C560.695 49.0469 559.193 50.1212 558.655 52.0717Z" fill="#1C1917"/>
<path d="M586.637 46.5321V61.0047H583.239V59.9021C582.134 60.8355 580.633 61.3437 579.075 61.3437C575.11 61.3437 571.854 58.176 571.854 53.7687C571.854 49.3615 575.11 46.1924 579.074 46.1924C580.632 46.1924 582.133 46.7012 583.238 47.6341V46.5321H586.637ZM583.239 56.5388V50.9979C582.304 49.8677 580.943 49.3305 579.585 49.3305C577.178 49.3305 575.308 51.0546 575.308 53.7687C575.308 56.4829 577.178 58.2346 579.585 58.2346C580.282 58.239 580.971 58.0892 581.602 57.796C582.234 57.5027 582.793 57.0734 583.238 56.5388H583.239Z" fill="#1C1917"/>
<path d="M612.607 52.1869V61.0047H609.208V52.9202C609.208 50.4891 608.103 49.3305 606.49 49.3305C605.328 49.3305 604.082 49.896 603.034 51.1395C603.062 51.4765 603.091 51.8175 603.091 52.1855V61.0047H599.692V52.9202C599.692 50.4891 598.587 49.3305 596.973 49.3305C595.84 49.3305 594.623 49.896 593.575 51.0546V61.0047H590.176V46.5321H593.575V47.7756C594.769 46.7627 596.284 46.2022 597.851 46.1924C599.749 46.1924 601.278 47.0126 602.185 48.5102C603.657 46.9843 605.527 46.1924 607.367 46.1924C610.454 46.1924 612.607 48.3694 612.607 52.1869Z" fill="#1C1917"/>
<path d="M615.977 40.1431H619.375V61.0045H615.977V40.1431Z" fill="#1C1917"/>
<path d="M636.879 54.6165H625.407C625.69 57.0759 627.361 58.4327 629.854 58.4327C631.525 58.4327 632.94 57.8106 634.13 56.3689L636.509 58.1779C634.98 60.2417 632.629 61.3457 629.797 61.3457C625.096 61.3457 622.009 58.2932 622.009 53.8832C622.009 49.4174 625.237 46.1943 629.769 46.1943C633.989 46.1943 636.963 48.9651 636.963 53.3461C636.964 53.771 636.936 54.1954 636.879 54.6165ZM625.577 52.0722H633.535C633.167 50.0368 631.78 49.0473 629.74 49.0473C627.616 49.0473 626.115 50.1217 625.577 52.0722Z" fill="#1C1917"/>
<path d="M638.718 59.2237L640.474 56.6794C641.975 57.8387 643.703 58.4318 645.26 58.4318C646.846 58.4318 647.753 57.7814 647.753 56.8769C647.753 56.1982 647.243 55.69 645.742 55.3503L643.221 54.7572C640.304 54.0785 639.114 52.806 639.114 50.7995C639.114 48.057 641.323 46.1914 644.922 46.1914C647.301 46.1914 649.481 46.9833 650.926 48.3118L649.085 50.7146C647.726 49.6402 646.253 49.1031 644.78 49.1031C643.25 49.1031 642.458 49.6968 642.458 50.573C642.458 51.2234 642.911 51.6191 644.469 51.9884L646.989 52.5822C649.934 53.2609 651.124 54.5894 651.124 56.6524C651.124 59.4792 648.943 61.3448 645.149 61.3448C642.655 61.3434 640.247 60.5239 638.718 59.2237Z" fill="#1C1917"/>
<path d="M652.596 59.2237L654.351 56.6794C655.853 57.8387 657.58 58.4318 659.138 58.4318C660.724 58.4318 661.63 57.7814 661.63 56.8769C661.63 56.1982 661.121 55.69 659.619 55.3503L657.099 54.7572C654.181 54.0785 652.992 52.806 652.992 50.7995C652.992 48.057 655.201 46.1914 658.8 46.1914C661.179 46.1914 663.359 46.9833 664.804 48.3118L662.963 50.7146C661.603 49.6402 660.131 49.1031 658.658 49.1031C657.128 49.1031 656.335 49.6968 656.335 50.573C656.335 51.2234 656.789 51.6191 658.347 51.9884L660.867 52.5822C663.812 53.2609 665.002 54.5894 665.002 56.6524C665.002 59.4792 662.821 61.3448 659.026 61.3448C656.531 61.3434 654.125 60.5239 652.596 59.2237Z" fill="#1C1917"/>
<path d="M518.123 41.9673H511.139C508.711 41.968 506.381 42.9313 504.664 44.6455C502.946 46.3597 501.981 48.6844 501.98 51.1086C501.98 51.3945 502.037 51.6776 502.147 51.9417C502.256 52.2059 502.417 52.4459 502.619 52.648C502.822 52.8502 503.062 53.0105 503.327 53.1199C503.592 53.2293 503.875 53.2856 504.162 53.2856H506.345V51.1086C506.346 49.8399 506.852 48.6234 507.751 47.7263C508.649 46.8291 509.868 46.3245 511.139 46.3233H518.123C520.753 46.3233 522.911 48.4376 522.921 51.0628C522.949 57.5689 517.654 62.8705 511.142 62.8705H504.162C503.583 62.8705 503.028 63.0998 502.619 63.5081C502.21 63.9164 501.98 64.4701 501.98 65.0475V67.2245H511.139C520.081 67.2245 527.347 59.9305 527.279 50.9914C527.247 45.9863 523.135 41.9673 518.123 41.9673Z" fill="#6366F1"/>
<path d="M511.14 60.2552C512.344 60.2555 513.535 60.0192 514.648 59.5596C515.76 59.1001 516.77 58.4264 517.621 57.5769C518.472 56.7275 519.147 55.719 519.608 54.6091C520.068 53.4993 520.305 52.3097 520.304 51.1084C520.304 50.8225 520.248 50.5394 520.138 50.2753C520.029 50.0112 519.868 49.7712 519.666 49.569C519.463 49.3669 519.223 49.2065 518.958 49.0971C518.693 48.9877 518.41 48.9314 518.123 48.9314H515.942V51.1084C515.942 51.7379 515.818 52.3613 515.577 52.9429C515.336 53.5246 514.982 54.0531 514.536 54.4982C514.09 54.9433 513.561 55.2963 512.978 55.5371C512.395 55.7778 511.771 55.9015 511.14 55.9012H504.162C501.532 55.9012 499.374 53.7869 499.364 51.1617C499.336 44.6556 504.631 39.3547 511.14 39.3547H518.123C518.702 39.3545 519.257 39.125 519.666 38.7166C520.075 38.3082 520.304 37.7544 520.304 37.177V35H511.14C502.201 35 494.933 42.2939 495 51.2331C495.038 56.2355 499.15 60.2552 504.162 60.2552H511.14Z" fill="#6366F1"/>
</g>
</g>
<defs>
<linearGradient id="paint0_linear_144_1559" x1="11" y1="167" x2="860" y2="167" gradientUnits="userSpaceOnUse">
<stop stop-color="#D6D3D1"/>
<stop offset="0.493045" stop-color="#D6D3D1"/>
<stop offset="0.663447" stop-color="#6366F1"/>
<stop offset="0.829985" stop-color="#D6D3D1"/>
<stop offset="1" stop-color="#D6D3D1"/>
</linearGradient>
<linearGradient id="paint1_linear_144_1559" x1="11" y1="242" x2="860" y2="242" gradientUnits="userSpaceOnUse">
<stop stop-color="#D6D3D1"/>
<stop offset="0.493045" stop-color="#D6D3D1"/>
<stop offset="0.663447" stop-color="#6366F1"/>
<stop offset="0.829985" stop-color="#D6D3D1"/>
<stop offset="1" stop-color="#D6D3D1"/>
</linearGradient>
<linearGradient id="paint2_linear_144_1559" x1="11" y1="317" x2="860" y2="317" gradientUnits="userSpaceOnUse">
<stop stop-color="#D6D3D1"/>
<stop offset="0.493045" stop-color="#D6D3D1"/>
<stop offset="0.663447" stop-color="#6366F1"/>
<stop offset="0.829985" stop-color="#D6D3D1"/>
<stop offset="1" stop-color="#D6D3D1"/>
</linearGradient>
<linearGradient id="paint3_linear_144_1559" x1="11" y1="92" x2="860" y2="92" gradientUnits="userSpaceOnUse">
<stop stop-color="#A8A29E"/>
<stop offset="0.474111" stop-color="#A8A29E"/>
<stop offset="0.661515" stop-color="#5357F1"/>
<stop offset="0.840804" stop-color="#A8A29E"/>
<stop offset="1" stop-color="#A8A29E"/>
</linearGradient>
<clipPath id="clip0_144_1559">
<rect width="868" height="392" fill="white"/>
</clipPath>
<clipPath id="clip1_144_1559">
<rect width="170" height="32.2222" fill="white" transform="translate(495 35)"/>
</clipPath>
</defs>
</svg>
