<svg width="747" height="442" viewBox="0 0 747 442" fill="none" xmlns="http://www.w3.org/2000/svg">
<rect width="747" height="442" fill="white"/>
<path d="M281.02 26.36C280.767 27.2133 280.367 27.9267 279.82 28.5C279.273 29.0733 278.627 29.5 277.88 29.78C277.133 30.06 276.313 30.2 275.42 30.2C274.113 30.2 272.98 29.9267 272.02 29.38C271.073 28.8333 270.34 28.0533 269.82 27.04C269.313 26.0267 269.06 24.8133 269.06 23.4C269.06 21.9867 269.313 20.7733 269.82 19.76C270.34 18.7467 271.073 17.9667 272.02 17.42C272.98 16.8733 274.1 16.6 275.38 16.6C276.287 16.6 277.107 16.7267 277.84 16.98C278.573 17.22 279.193 17.5933 279.7 18.1C280.22 18.6067 280.6 19.2467 280.84 20.02L278.34 21.08C278.113 20.28 277.767 19.7133 277.3 19.38C276.833 19.0333 276.233 18.86 275.5 18.86C274.78 18.86 274.147 19.0333 273.6 19.38C273.067 19.7267 272.653 20.24 272.36 20.92C272.067 21.5867 271.92 22.4133 271.92 23.4C271.92 24.3733 272.053 25.2 272.32 25.88C272.6 26.56 273.007 27.0733 273.54 27.42C274.073 27.7667 274.727 27.94 275.5 27.94C276.22 27.94 276.84 27.7467 277.36 27.36C277.893 26.9733 278.267 26.3867 278.48 25.6L281.02 26.36ZM294.792 16.8V24.8C294.792 26.6 294.312 27.9533 293.352 28.86C292.392 29.7533 290.992 30.2 289.152 30.2C287.312 30.2 285.912 29.7533 284.952 28.86C283.992 27.9533 283.512 26.6 283.512 24.8V16.8H286.272V24.68C286.272 25.7867 286.506 26.6067 286.972 27.14C287.452 27.6733 288.179 27.94 289.152 27.94C290.126 27.94 290.846 27.6733 291.312 27.14C291.779 26.6067 292.012 25.7867 292.012 24.68V16.8H294.792ZM303.192 16.6C304.392 16.6 305.445 16.8067 306.352 17.22C307.258 17.6333 308.032 18.2467 308.672 19.06L307.132 20.84C306.585 20.1467 305.985 19.64 305.332 19.32C304.692 18.9867 303.945 18.82 303.092 18.82C302.532 18.82 302.065 18.8933 301.692 19.04C301.332 19.1867 301.065 19.38 300.892 19.62C300.732 19.86 300.652 20.1267 300.652 20.42C300.652 20.78 300.792 21.0867 301.072 21.34C301.352 21.58 301.832 21.78 302.512 21.94L304.972 22.5C306.278 22.7933 307.212 23.2333 307.772 23.82C308.345 24.3933 308.632 25.14 308.632 26.06C308.632 26.9267 308.405 27.6733 307.952 28.3C307.498 28.9133 306.865 29.3867 306.052 29.72C305.238 30.04 304.305 30.2 303.252 30.2C302.332 30.2 301.485 30.0933 300.712 29.88C299.952 29.6533 299.272 29.3467 298.672 28.96C298.072 28.5733 297.572 28.1267 297.172 27.62L298.732 25.76C299.038 26.1867 299.418 26.5667 299.872 26.9C300.325 27.2333 300.838 27.5 301.412 27.7C301.998 27.8867 302.612 27.98 303.252 27.98C303.798 27.98 304.258 27.92 304.632 27.8C305.018 27.6667 305.305 27.4867 305.492 27.26C305.692 27.02 305.792 26.7333 305.792 26.4C305.792 26.0533 305.672 25.76 305.432 25.52C305.205 25.2667 304.778 25.0733 304.152 24.94L301.472 24.34C300.698 24.1533 300.032 23.9133 299.472 23.62C298.925 23.3133 298.505 22.9267 298.212 22.46C297.932 21.98 297.792 21.4133 297.792 20.76C297.792 19.9733 298.005 19.2667 298.432 18.64C298.858 18.0133 299.472 17.52 300.272 17.16C301.085 16.7867 302.058 16.6 303.192 16.6ZM321.712 16.8V19.02H317.292V30H314.532V19.02H310.092V16.8H321.712ZM329.559 16.6C330.866 16.6 331.992 16.8733 332.939 17.42C333.886 17.9667 334.612 18.7467 335.119 19.76C335.639 20.7733 335.899 21.9867 335.899 23.4C335.899 24.8133 335.639 26.0267 335.119 27.04C334.612 28.0533 333.886 28.8333 332.939 29.38C331.992 29.9267 330.866 30.2 329.559 30.2C328.252 30.2 327.119 29.9267 326.159 29.38C325.212 28.8333 324.479 28.0533 323.959 27.04C323.452 26.0267 323.199 24.8133 323.199 23.4C323.199 21.9867 323.452 20.7733 323.959 19.76C324.479 18.7467 325.212 17.9667 326.159 17.42C327.119 16.8733 328.252 16.6 329.559 16.6ZM329.559 18.86C328.812 18.86 328.179 19.0333 327.659 19.38C327.139 19.7267 326.739 20.24 326.459 20.92C326.192 21.5867 326.059 22.4133 326.059 23.4C326.059 24.3733 326.192 25.2 326.459 25.88C326.739 26.56 327.139 27.0733 327.659 27.42C328.179 27.7667 328.812 27.94 329.559 27.94C330.292 27.94 330.919 27.7667 331.439 27.42C331.959 27.0733 332.352 26.56 332.619 25.88C332.899 25.2 333.039 24.3733 333.039 23.4C333.039 22.4133 332.899 21.5867 332.619 20.92C332.352 20.24 331.959 19.7267 331.439 19.38C330.919 19.0333 330.292 18.86 329.559 18.86ZM353.443 16.8V30H350.943V23.12L351.083 19.26H351.043L347.383 30H345.123L341.483 19.26H341.443L341.583 23.12V30H339.083V16.8H343.083L345.463 24L346.303 26.98H346.343L347.203 24.02L349.563 16.8H353.443ZM369.33 16.8C370.343 16.8 371.21 16.9733 371.93 17.32C372.65 17.6533 373.203 18.14 373.59 18.78C373.99 19.4067 374.19 20.1667 374.19 21.06C374.19 21.9533 373.99 22.72 373.59 23.36C373.203 23.9867 372.65 24.4733 371.93 24.82C371.21 25.1533 370.343 25.32 369.33 25.32H366.55V30H363.79V16.8H369.33ZM368.91 23.14C369.736 23.14 370.356 22.9667 370.77 22.62C371.183 22.26 371.39 21.74 371.39 21.06C371.39 20.3667 371.183 19.8467 370.77 19.5C370.356 19.1533 369.736 18.98 368.91 18.98H366.55V23.14H368.91ZM379.879 16.8V30H377.119V16.8H379.879ZM389.251 16.8C390.264 16.8 391.131 16.9733 391.851 17.32C392.571 17.6533 393.124 18.14 393.511 18.78C393.911 19.4067 394.111 20.1667 394.111 21.06C394.111 21.9533 393.911 22.72 393.511 23.36C393.124 23.9867 392.571 24.4733 391.851 24.82C391.131 25.1533 390.264 25.32 389.251 25.32H386.471V30H383.711V16.8H389.251ZM388.831 23.14C389.657 23.14 390.277 22.9667 390.691 22.62C391.104 22.26 391.311 21.74 391.311 21.06C391.311 20.3667 391.104 19.8467 390.691 19.5C390.277 19.1533 389.657 18.98 388.831 18.98H386.471V23.14H388.831ZM397.04 30V16.8H406.94V19.02H399.8V22.3H405.42V24.42H399.8V27.78H407.22V30H397.04ZM412.857 27.78H419.817V30H410.097V16.8H412.857V27.78ZM425.268 16.8V30H422.508V16.8H425.268ZM440.44 16.8V30H437.28L432.66 22.24L431.52 20.08H431.5L431.58 22.36V30H429.1V16.8H432.24L436.86 24.54L438 26.72H438.04L437.96 24.44V16.8H440.44ZM444.285 30V16.8H454.185V19.02H447.045V22.3H452.665V24.42H447.045V27.78H454.465V30H444.285ZM473.734 19.02H466.614V22.38H472.234V24.6H466.614V30H463.854V16.8H473.734V19.02ZM482.064 16.6C483.37 16.6 484.497 16.8733 485.444 17.42C486.39 17.9667 487.117 18.7467 487.624 19.76C488.144 20.7733 488.404 21.9867 488.404 23.4C488.404 24.8133 488.144 26.0267 487.624 27.04C487.117 28.0533 486.39 28.8333 485.444 29.38C484.497 29.9267 483.37 30.2 482.064 30.2C480.757 30.2 479.624 29.9267 478.664 29.38C477.717 28.8333 476.984 28.0533 476.464 27.04C475.957 26.0267 475.704 24.8133 475.704 23.4C475.704 21.9867 475.957 20.7733 476.464 19.76C476.984 18.7467 477.717 17.9667 478.664 17.42C479.624 16.8733 480.757 16.6 482.064 16.6ZM482.064 18.86C481.317 18.86 480.684 19.0333 480.164 19.38C479.644 19.7267 479.244 20.24 478.964 20.92C478.697 21.5867 478.564 22.4133 478.564 23.4C478.564 24.3733 478.697 25.2 478.964 25.88C479.244 26.56 479.644 27.0733 480.164 27.42C480.684 27.7667 481.317 27.94 482.064 27.94C482.797 27.94 483.424 27.7667 483.944 27.42C484.464 27.0733 484.857 26.56 485.124 25.88C485.404 25.2 485.544 24.3733 485.544 23.4C485.544 22.4133 485.404 21.5867 485.124 20.92C484.857 20.24 484.464 19.7267 483.944 19.38C483.424 19.0333 482.797 18.86 482.064 18.86ZM497.408 16.8C498.901 16.8 500.075 17.16 500.928 17.88C501.781 18.6 502.208 19.5667 502.208 20.78C502.208 22.0733 501.781 23.0667 500.928 23.76C500.075 24.44 498.908 24.78 497.428 24.78L497.148 24.94H494.308V30H491.588V16.8H497.408ZM497.088 22.84C497.861 22.84 498.435 22.6867 498.808 22.38C499.195 22.06 499.388 21.5733 499.388 20.92C499.388 20.2667 499.195 19.7867 498.808 19.48C498.435 19.16 497.861 19 497.088 19H494.308V22.84H497.088ZM498.708 23.42L502.988 30H499.888L496.348 24.22L498.708 23.42ZM512.095 30V16.8H521.995V19.02H514.855V22.3H520.475V24.42H514.855V27.78H522.275V30H512.095ZM536.611 30H533.751L532.651 26.78H527.591L526.491 30H523.671L528.491 16.8H531.791L536.611 30ZM528.211 24.74H532.031L530.111 18.98L528.211 24.74ZM549.781 26.36C549.528 27.2133 549.128 27.9267 548.581 28.5C548.034 29.0733 547.388 29.5 546.641 29.78C545.894 30.06 545.074 30.2 544.181 30.2C542.874 30.2 541.741 29.9267 540.781 29.38C539.834 28.8333 539.101 28.0533 538.581 27.04C538.074 26.0267 537.821 24.8133 537.821 23.4C537.821 21.9867 538.074 20.7733 538.581 19.76C539.101 18.7467 539.834 17.9667 540.781 17.42C541.741 16.8733 542.861 16.6 544.141 16.6C545.048 16.6 545.868 16.7267 546.601 16.98C547.334 17.22 547.954 17.5933 548.461 18.1C548.981 18.6067 549.361 19.2467 549.601 20.02L547.101 21.08C546.874 20.28 546.528 19.7133 546.061 19.38C545.594 19.0333 544.994 18.86 544.261 18.86C543.541 18.86 542.908 19.0333 542.361 19.38C541.828 19.7267 541.414 20.24 541.121 20.92C540.828 21.5867 540.681 22.4133 540.681 23.4C540.681 24.3733 540.814 25.2 541.081 25.88C541.361 26.56 541.768 27.0733 542.301 27.42C542.834 27.7667 543.488 27.94 544.261 27.94C544.981 27.94 545.601 27.7467 546.121 27.36C546.654 26.9733 547.028 26.3867 547.241 25.6L549.781 26.36ZM563.873 16.8V30H561.113V16.8H563.873ZM555.293 16.8V30H552.533V16.8H555.293ZM562.553 22.22V24.44H553.913V22.22H562.553ZM579.052 16.6C580.252 16.6 581.305 16.8067 582.212 17.22C583.118 17.6333 583.892 18.2467 584.532 19.06L582.992 20.84C582.445 20.1467 581.845 19.64 581.192 19.32C580.552 18.9867 579.805 18.82 578.952 18.82C578.392 18.82 577.925 18.8933 577.552 19.04C577.192 19.1867 576.925 19.38 576.752 19.62C576.592 19.86 576.512 20.1267 576.512 20.42C576.512 20.78 576.652 21.0867 576.932 21.34C577.212 21.58 577.692 21.78 578.372 21.94L580.832 22.5C582.138 22.7933 583.072 23.2333 583.632 23.82C584.205 24.3933 584.492 25.14 584.492 26.06C584.492 26.9267 584.265 27.6733 583.812 28.3C583.358 28.9133 582.725 29.3867 581.912 29.72C581.098 30.04 580.165 30.2 579.112 30.2C578.192 30.2 577.345 30.0933 576.572 29.88C575.812 29.6533 575.132 29.3467 574.532 28.96C573.932 28.5733 573.432 28.1267 573.032 27.62L574.592 25.76C574.898 26.1867 575.278 26.5667 575.732 26.9C576.185 27.2333 576.698 27.5 577.272 27.7C577.858 27.8867 578.472 27.98 579.112 27.98C579.658 27.98 580.118 27.92 580.492 27.8C580.878 27.6667 581.165 27.4867 581.352 27.26C581.552 27.02 581.652 26.7333 581.652 26.4C581.652 26.0533 581.532 25.76 581.292 25.52C581.065 25.2667 580.638 25.0733 580.012 24.94L577.332 24.34C576.558 24.1533 575.892 23.9133 575.332 23.62C574.785 23.3133 574.365 22.9267 574.072 22.46C573.792 21.98 573.652 21.4133 573.652 20.76C573.652 19.9733 573.865 19.2667 574.292 18.64C574.718 18.0133 575.332 17.52 576.132 17.16C576.945 16.7867 577.918 16.6 579.052 16.6ZM587.503 30V16.8H597.403V19.02H590.263V22.3H595.883V24.42H590.263V27.78H597.683V30H587.503ZM606.379 16.8C607.872 16.8 609.046 17.16 609.899 17.88C610.752 18.6 611.179 19.5667 611.179 20.78C611.179 22.0733 610.752 23.0667 609.899 23.76C609.046 24.44 607.879 24.78 606.399 24.78L606.119 24.94H603.279V30H600.559V16.8H606.379ZM606.059 22.84C606.832 22.84 607.406 22.6867 607.779 22.38C608.166 22.06 608.359 21.5733 608.359 20.92C608.359 20.2667 608.166 19.7867 607.779 19.48C607.406 19.16 606.832 19 606.059 19H603.279V22.84H606.059ZM607.679 23.42L611.959 30H608.859L605.319 24.22L607.679 23.42ZM625.777 16.8L620.977 30H617.757L612.937 16.8H615.857L618.637 25.2L619.397 27.8L620.137 25.22L622.937 16.8H625.777ZM630.935 16.8V30H628.175V16.8H630.935ZM646.067 26.36C645.814 27.2133 645.414 27.9267 644.867 28.5C644.32 29.0733 643.674 29.5 642.927 29.78C642.18 30.06 641.36 30.2 640.467 30.2C639.16 30.2 638.027 29.9267 637.067 29.38C636.12 28.8333 635.387 28.0533 634.867 27.04C634.36 26.0267 634.107 24.8133 634.107 23.4C634.107 21.9867 634.36 20.7733 634.867 19.76C635.387 18.7467 636.12 17.9667 637.067 17.42C638.027 16.8733 639.147 16.6 640.427 16.6C641.334 16.6 642.154 16.7267 642.887 16.98C643.62 17.22 644.24 17.5933 644.747 18.1C645.267 18.6067 645.647 19.2467 645.887 20.02L643.387 21.08C643.16 20.28 642.814 19.7133 642.347 19.38C641.88 19.0333 641.28 18.86 640.547 18.86C639.827 18.86 639.194 19.0333 638.647 19.38C638.114 19.7267 637.7 20.24 637.407 20.92C637.114 21.5867 636.967 22.4133 636.967 23.4C636.967 24.3733 637.1 25.2 637.367 25.88C637.647 26.56 638.054 27.0733 638.587 27.42C639.12 27.7667 639.774 27.94 640.547 27.94C641.267 27.94 641.887 27.7467 642.407 27.36C642.94 26.9733 643.314 26.3867 643.527 25.6L646.067 26.36ZM648.819 30V16.8H658.719V19.02H651.579V22.3H657.199V24.42H651.579V27.78H658.999V30H648.819Z" fill="#57534E"/>
<rect x="199.75" y="56.75" width="528.5" height="95.5" rx="7.25" fill="#EEF2FF" stroke="#4F46E5" stroke-width="1.5"/>
<rect x="228.75" y="77.75" width="76.5" height="53.5" rx="9.25" fill="white"/>
<path d="M273.471 111H270.611L269.511 107.78H264.451L263.351 111H260.531L265.351 97.8H268.651L273.471 111ZM265.071 105.74H268.891L266.971 99.98L265.071 105.74Z" fill="#A8A29E"/>
<rect x="228.75" y="77.75" width="76.5" height="53.5" rx="9.25" stroke="#A8A29E" stroke-width="1.5"/>
<rect x="359.75" y="77.75" width="76.5" height="53.5" rx="9.25" fill="white"/>
<path d="M393.001 111V97.8H398.781C400.381 97.8 401.561 98.1133 402.321 98.74C403.081 99.3667 403.461 100.253 403.461 101.4C403.461 102.107 403.248 102.733 402.821 103.28C402.395 103.827 401.768 104.173 400.941 104.32V104.34C401.861 104.473 402.568 104.82 403.061 105.38C403.555 105.94 403.801 106.607 403.801 107.38C403.801 108.513 403.388 109.4 402.561 110.04C401.748 110.68 400.555 111 398.981 111H393.001ZM395.681 108.92H398.741C399.488 108.92 400.041 108.767 400.401 108.46C400.761 108.153 400.941 107.727 400.941 107.18C400.941 106.62 400.761 106.193 400.401 105.9C400.041 105.607 399.488 105.46 398.741 105.46H395.681V108.92ZM395.681 103.34H398.421C399.875 103.34 400.601 102.773 400.601 101.64C400.601 100.507 399.875 99.94 398.421 99.94H395.681V103.34Z" fill="#A8A29E"/>
<rect x="359.75" y="77.75" width="76.5" height="53.5" rx="9.25" stroke="#A8A29E" stroke-width="1.5"/>
<rect x="490.75" y="77.75" width="76.5" height="53.5" rx="9.25" fill="white"/>
<path d="M535.194 107.36C534.94 108.213 534.54 108.927 533.994 109.5C533.447 110.073 532.8 110.5 532.054 110.78C531.307 111.06 530.487 111.2 529.594 111.2C528.287 111.2 527.154 110.927 526.194 110.38C525.247 109.833 524.514 109.053 523.994 108.04C523.487 107.027 523.234 105.813 523.234 104.4C523.234 102.987 523.487 101.773 523.994 100.76C524.514 99.7467 525.247 98.9667 526.194 98.42C527.154 97.8733 528.274 97.6 529.554 97.6C530.46 97.6 531.28 97.7267 532.014 97.98C532.747 98.22 533.367 98.5933 533.874 99.1C534.394 99.6067 534.774 100.247 535.014 101.02L532.514 102.08C532.287 101.28 531.94 100.713 531.474 100.38C531.007 100.033 530.407 99.86 529.674 99.86C528.954 99.86 528.32 100.033 527.774 100.38C527.24 100.727 526.827 101.24 526.534 101.92C526.24 102.587 526.094 103.413 526.094 104.4C526.094 105.373 526.227 106.2 526.494 106.88C526.774 107.56 527.18 108.073 527.714 108.42C528.247 108.767 528.9 108.94 529.674 108.94C530.394 108.94 531.014 108.747 531.534 108.36C532.067 107.973 532.44 107.387 532.654 106.6L535.194 107.36Z" fill="#A8A29E"/>
<rect x="490.75" y="77.75" width="76.5" height="53.5" rx="9.25" stroke="#A8A29E" stroke-width="1.5"/>
<rect x="621.75" y="77.75" width="77.5" height="53.5" rx="9.25" fill="white"/>
<path d="M660.133 97.8C662.199 97.8 663.799 98.3733 664.933 99.52C666.066 100.653 666.633 102.28 666.633 104.4C666.633 106.507 666.066 108.133 664.933 109.28C663.799 110.427 662.199 111 660.133 111H655.033V97.8H660.133ZM659.993 108.8C661.246 108.8 662.186 108.427 662.813 107.68C663.453 106.92 663.773 105.827 663.773 104.4C663.773 102.973 663.453 101.887 662.813 101.14C662.186 100.38 661.246 100 659.993 100H657.793V108.8H659.993Z" fill="#A8A29E"/>
<rect x="621.75" y="77.75" width="77.5" height="53.5" rx="9.25" stroke="#A8A29E" stroke-width="1.5"/>
<path d="M486.707 105.207C487.098 104.817 487.098 104.183 486.707 103.793L480.343 97.4289C479.953 97.0384 479.319 97.0384 478.929 97.4289C478.538 97.8195 478.538 98.4526 478.929 98.8431L484.586 104.5L478.929 110.157C478.538 110.547 478.538 111.181 478.929 111.571C479.319 111.962 479.953 111.962 480.343 111.571L486.707 105.207ZM441 105.5H486V103.5H441V105.5Z" fill="#A8A29E"/>
<path d="M617.707 105.207C618.098 104.817 618.098 104.183 617.707 103.793L611.343 97.4289C610.953 97.0384 610.319 97.0384 609.929 97.4289C609.538 97.8195 609.538 98.4526 609.929 98.8431L615.586 104.5L609.929 110.157C609.538 110.547 609.538 111.181 609.929 111.571C610.319 111.962 610.953 111.962 611.343 111.571L617.707 105.207ZM572 105.5H617V103.5H572V105.5Z" fill="#A8A29E"/>
<path d="M355.707 105.207C356.098 104.817 356.098 104.183 355.707 103.793L349.343 97.4289C348.953 97.0384 348.319 97.0384 347.929 97.4289C347.538 97.8195 347.538 98.4526 347.929 98.8431L353.586 104.5L347.929 110.157C347.538 110.547 347.538 111.181 347.929 111.571C348.319 111.962 348.953 111.962 349.343 111.571L355.707 105.207ZM310 105.5H355V103.5H310V105.5Z" fill="#A8A29E"/>
<path d="M45.54 97.6C46.74 97.6 47.7933 97.8067 48.7 98.22C49.6067 98.6333 50.38 99.2467 51.02 100.06L49.48 101.84C48.9333 101.147 48.3333 100.64 47.68 100.32C47.04 99.9867 46.2933 99.82 45.44 99.82C44.88 99.82 44.4133 99.8933 44.04 100.04C43.68 100.187 43.4133 100.38 43.24 100.62C43.08 100.86 43 101.127 43 101.42C43 101.78 43.14 102.087 43.42 102.34C43.7 102.58 44.18 102.78 44.86 102.94L47.32 103.5C48.6267 103.793 49.56 104.233 50.12 104.82C50.6933 105.393 50.98 106.14 50.98 107.06C50.98 107.927 50.7533 108.673 50.3 109.3C49.8467 109.913 49.2133 110.387 48.4 110.72C47.5867 111.04 46.6533 111.2 45.6 111.2C44.68 111.2 43.8333 111.093 43.06 110.88C42.3 110.653 41.62 110.347 41.02 109.96C40.42 109.573 39.92 109.127 39.52 108.62L41.08 106.76C41.3867 107.187 41.7667 107.567 42.22 107.9C42.6733 108.233 43.1867 108.5 43.76 108.7C44.3467 108.887 44.96 108.98 45.6 108.98C46.1467 108.98 46.6067 108.92 46.98 108.8C47.3667 108.667 47.6533 108.487 47.84 108.26C48.04 108.02 48.14 107.733 48.14 107.4C48.14 107.053 48.02 106.76 47.78 106.52C47.5533 106.267 47.1267 106.073 46.5 105.94L43.82 105.34C43.0467 105.153 42.38 104.913 41.82 104.62C41.2733 104.313 40.8533 103.927 40.56 103.46C40.28 102.98 40.14 102.413 40.14 101.76C40.14 100.973 40.3533 100.267 40.78 99.64C41.2067 99.0133 41.82 98.52 42.62 98.16C43.4333 97.7867 44.4067 97.6 45.54 97.6ZM58.3511 111.2C57.2978 111.2 56.3778 110.993 55.5911 110.58C54.8178 110.167 54.2178 109.573 53.7911 108.8C53.3644 108.027 53.1511 107.093 53.1511 106C53.1511 104.907 53.3644 103.973 53.7911 103.2C54.2178 102.427 54.8111 101.833 55.5711 101.42C56.3444 101.007 57.2244 100.8 58.2111 100.8C59.2244 100.8 60.0844 101.007 60.7911 101.42C61.4978 101.82 62.0378 102.373 62.4111 103.08C62.7844 103.773 62.9711 104.567 62.9711 105.46C62.9711 105.727 62.9644 105.98 62.9511 106.22C62.9378 106.46 62.9178 106.673 62.8911 106.86H54.9111V104.96H61.6911L60.3711 105.44C60.3711 104.6 60.1778 103.953 59.7911 103.5C59.4178 103.047 58.8844 102.82 58.1911 102.82C57.6844 102.82 57.2444 102.94 56.8711 103.18C56.5111 103.42 56.2378 103.78 56.0511 104.26C55.8644 104.727 55.7711 105.32 55.7711 106.04C55.7711 106.747 55.8711 107.333 56.0711 107.8C56.2844 108.253 56.5778 108.593 56.9511 108.82C57.3378 109.047 57.7978 109.16 58.3311 109.16C58.9178 109.16 59.3911 109.047 59.7511 108.82C60.1111 108.593 60.3911 108.28 60.5911 107.88L62.7711 108.72C62.5578 109.24 62.2311 109.687 61.7911 110.06C61.3644 110.433 60.8511 110.72 60.2511 110.92C59.6644 111.107 59.0311 111.2 58.3511 111.2ZM65.6931 111V101H68.0731L68.2531 102.96C68.5198 102.267 68.9065 101.733 69.4131 101.36C69.9331 100.987 70.5798 100.8 71.3531 100.8C71.5798 100.8 71.7865 100.82 71.9731 100.86C72.1598 100.9 72.3131 100.953 72.4331 101.02L72.1131 103.32C71.9798 103.267 71.8131 103.227 71.6131 103.2C71.4265 103.173 71.1798 103.16 70.8731 103.16C70.4731 103.16 70.0865 103.26 69.7131 103.46C69.3398 103.647 69.0331 103.94 68.7931 104.34C68.5531 104.727 68.4331 105.22 68.4331 105.82V111H65.6931ZM81.0906 101H83.9306L80.1306 111H76.9706L73.1706 101H76.0906L78.5706 108.9L81.0906 101ZM87.2286 99.56C86.6553 99.56 86.2286 99.44 85.9486 99.2C85.6686 98.9467 85.5286 98.58 85.5286 98.1C85.5286 97.6067 85.6686 97.24 85.9486 97C86.2286 96.7467 86.6553 96.62 87.2286 96.62C87.8019 96.62 88.2286 96.7467 88.5086 97C88.7886 97.24 88.9286 97.6067 88.9286 98.1C88.9286 98.58 88.7886 98.9467 88.5086 99.2C88.2286 99.44 87.8019 99.56 87.2286 99.56ZM88.5886 101V111H85.8486V101H88.5886ZM96.4331 100.8C97.3265 100.8 98.0798 100.933 98.6931 101.2C99.3198 101.453 99.8198 101.807 100.193 102.26C100.58 102.7 100.853 103.193 101.013 103.74L98.4531 104.66C98.3198 104.06 98.0931 103.607 97.7731 103.3C97.4531 102.993 97.0198 102.84 96.4731 102.84C95.9665 102.84 95.5331 102.96 95.1731 103.2C94.8131 103.427 94.5398 103.78 94.3531 104.26C94.1665 104.727 94.0731 105.313 94.0731 106.02C94.0731 106.727 94.1665 107.313 94.3531 107.78C94.5531 108.247 94.8331 108.593 95.1931 108.82C95.5665 109.047 95.9998 109.16 96.4931 109.16C96.8931 109.16 97.2331 109.093 97.5131 108.96C97.7931 108.813 98.0198 108.607 98.1931 108.34C98.3798 108.073 98.5065 107.753 98.5731 107.38L101.053 108.18C100.906 108.78 100.633 109.307 100.233 109.76C99.8331 110.213 99.3198 110.567 98.6931 110.82C98.0665 111.073 97.3398 111.2 96.5131 111.2C95.4865 111.2 94.5798 110.993 93.7931 110.58C93.0065 110.167 92.3998 109.573 91.9731 108.8C91.5465 108.027 91.3331 107.093 91.3331 106C91.3331 104.907 91.5465 103.973 91.9731 103.2C92.3998 102.427 92.9998 101.833 93.7731 101.42C94.5465 101.007 95.4331 100.8 96.4331 100.8ZM108.222 111.2C107.169 111.2 106.249 110.993 105.462 110.58C104.689 110.167 104.089 109.573 103.662 108.8C103.236 108.027 103.022 107.093 103.022 106C103.022 104.907 103.236 103.973 103.662 103.2C104.089 102.427 104.682 101.833 105.442 101.42C106.216 101.007 107.096 100.8 108.082 100.8C109.096 100.8 109.956 101.007 110.662 101.42C111.369 101.82 111.909 102.373 112.282 103.08C112.656 103.773 112.842 104.567 112.842 105.46C112.842 105.727 112.836 105.98 112.822 106.22C112.809 106.46 112.789 106.673 112.762 106.86H104.782V104.96H111.562L110.242 105.44C110.242 104.6 110.049 103.953 109.662 103.5C109.289 103.047 108.756 102.82 108.062 102.82C107.556 102.82 107.116 102.94 106.742 103.18C106.382 103.42 106.109 103.78 105.922 104.26C105.736 104.727 105.642 105.32 105.642 106.04C105.642 106.747 105.742 107.333 105.942 107.8C106.156 108.253 106.449 108.593 106.822 108.82C107.209 109.047 107.669 109.16 108.202 109.16C108.789 109.16 109.262 109.047 109.622 108.82C109.982 108.593 110.262 108.28 110.462 107.88L112.642 108.72C112.429 109.24 112.102 109.687 111.662 110.06C111.236 110.433 110.722 110.72 110.122 110.92C109.536 111.107 108.902 111.2 108.222 111.2ZM124.343 111V102.64C124.343 102.333 124.343 102.02 124.343 101.7C124.356 101.367 124.37 101.027 124.383 100.68C123.93 101.093 123.423 101.453 122.863 101.76C122.303 102.067 121.73 102.28 121.143 102.4L120.783 100.08C121.09 100.053 121.43 99.9667 121.803 99.82C122.19 99.66 122.576 99.4733 122.963 99.26C123.363 99.0333 123.723 98.8 124.043 98.56C124.376 98.3067 124.63 98.0533 124.803 97.8H127.043V111H124.343Z" fill="#44403C"/>
<rect x="16.75" y="81.75" width="134.5" height="45.5" rx="7.25" stroke="#A8A29E" stroke-width="1.5"/>
<path d="M156 104.5H195" stroke="#78716C" stroke-width="1.5" stroke-miterlimit="0" stroke-linejoin="bevel" stroke-dasharray="2 2"/>
<rect x="199.75" y="192.75" width="528.5" height="95.5" rx="7.25" fill="#F0FDF4" stroke="#16A34A" stroke-width="1.5"/>
<rect x="228.75" y="213.75" width="74.5" height="53.5" rx="9.25" fill="white"/>
<path d="M270.474 233.8V242.14C270.474 243.727 270.027 244.967 269.134 245.86C268.24 246.753 266.974 247.2 265.334 247.2C264.16 247.2 263.207 246.987 262.474 246.56C261.74 246.133 261.234 245.533 260.954 244.76C260.674 243.987 260.62 243.1 260.794 242.1L263.474 241.62C263.314 242.793 263.387 243.64 263.694 244.16C264 244.68 264.567 244.94 265.394 244.94C266.26 244.94 266.86 244.673 267.194 244.14C267.54 243.607 267.714 242.813 267.714 241.76V233.8H270.474Z" fill="#A8A29E"/>
<rect x="228.75" y="213.75" width="74.5" height="53.5" rx="9.25" stroke="#A8A29E" stroke-width="1.5"/>
<rect x="357.75" y="213.75" width="77.5" height="53.5" rx="9.25" fill="white"/>
<path d="M402.167 233.8V247H399.007L394.387 239.24L393.247 237.08H393.227L393.307 239.36V247H390.827V233.8H393.967L398.587 241.54L399.727 243.72H399.767L399.687 241.44V233.8H402.167Z" fill="#A8A29E"/>
<rect x="357.75" y="213.75" width="77.5" height="53.5" rx="9.25" stroke="#A8A29E" stroke-width="1.5"/>
<path d="M353.707 241.207C354.098 240.817 354.098 240.183 353.707 239.793L347.343 233.429C346.953 233.038 346.319 233.038 345.929 233.429C345.538 233.819 345.538 234.453 345.929 234.843L351.586 240.5L345.929 246.157C345.538 246.547 345.538 247.181 345.929 247.571C346.319 247.962 346.953 247.962 347.343 247.571L353.707 241.207ZM308 241.5H353V239.5H308V241.5Z" fill="#A8A29E"/>
<rect x="489.75" y="213.75" width="76.5" height="53.5" rx="9.25" fill="white"/>
<path d="M528.743 233.8C530.236 233.8 531.41 234.16 532.263 234.88C533.116 235.6 533.543 236.567 533.543 237.78C533.543 239.073 533.116 240.067 532.263 240.76C531.41 241.44 530.243 241.78 528.763 241.78L528.483 241.94H525.643V247H522.923V233.8H528.743ZM528.423 239.84C529.196 239.84 529.77 239.687 530.143 239.38C530.53 239.06 530.723 238.573 530.723 237.92C530.723 237.267 530.53 236.787 530.143 236.48C529.77 236.16 529.196 236 528.423 236H525.643V239.84H528.423ZM530.043 240.42L534.323 247H531.223L527.683 241.22L530.043 240.42Z" fill="#A8A29E"/>
<rect x="489.75" y="213.75" width="76.5" height="53.5" rx="9.25" stroke="#A8A29E" stroke-width="1.5"/>
<rect x="620.75" y="213.75" width="75.5" height="53.5" rx="9.25" fill="white"/>
<path d="M664.584 247H661.304L658.424 242.32L655.584 247H652.424L656.964 240.34L652.744 233.8H655.984L658.644 238.24L661.344 233.8H664.344L660.104 240.24L664.584 247Z" fill="#A8A29E"/>
<rect x="620.75" y="213.75" width="75.5" height="53.5" rx="9.25" stroke="#A8A29E" stroke-width="1.5"/>
<path d="M485.707 241.207C486.098 240.817 486.098 240.183 485.707 239.793L479.343 233.429C478.953 233.038 478.319 233.038 477.929 233.429C477.538 233.819 477.538 234.453 477.929 234.843L483.586 240.5L477.929 246.157C477.538 246.547 477.538 247.181 477.929 247.571C478.319 247.962 478.953 247.962 479.343 247.571L485.707 241.207ZM440 241.5H485V239.5H440V241.5Z" fill="#A8A29E"/>
<path d="M616.707 241.207C617.098 240.817 617.098 240.183 616.707 239.793L610.343 233.429C609.953 233.038 609.319 233.038 608.929 233.429C608.538 233.819 608.538 234.453 608.929 234.843L614.586 240.5L608.929 246.157C608.538 246.547 608.538 247.181 608.929 247.571C609.319 247.962 609.953 247.962 610.343 247.571L616.707 241.207ZM571 241.5H616V239.5H571V241.5Z" fill="#A8A29E"/>
<path d="M45.54 233.6C46.74 233.6 47.7933 233.807 48.7 234.22C49.6067 234.633 50.38 235.247 51.02 236.06L49.48 237.84C48.9333 237.147 48.3333 236.64 47.68 236.32C47.04 235.987 46.2933 235.82 45.44 235.82C44.88 235.82 44.4133 235.893 44.04 236.04C43.68 236.187 43.4133 236.38 43.24 236.62C43.08 236.86 43 237.127 43 237.42C43 237.78 43.14 238.087 43.42 238.34C43.7 238.58 44.18 238.78 44.86 238.94L47.32 239.5C48.6267 239.793 49.56 240.233 50.12 240.82C50.6933 241.393 50.98 242.14 50.98 243.06C50.98 243.927 50.7533 244.673 50.3 245.3C49.8467 245.913 49.2133 246.387 48.4 246.72C47.5867 247.04 46.6533 247.2 45.6 247.2C44.68 247.2 43.8333 247.093 43.06 246.88C42.3 246.653 41.62 246.347 41.02 245.96C40.42 245.573 39.92 245.127 39.52 244.62L41.08 242.76C41.3867 243.187 41.7667 243.567 42.22 243.9C42.6733 244.233 43.1867 244.5 43.76 244.7C44.3467 244.887 44.96 244.98 45.6 244.98C46.1467 244.98 46.6067 244.92 46.98 244.8C47.3667 244.667 47.6533 244.487 47.84 244.26C48.04 244.02 48.14 243.733 48.14 243.4C48.14 243.053 48.02 242.76 47.78 242.52C47.5533 242.267 47.1267 242.073 46.5 241.94L43.82 241.34C43.0467 241.153 42.38 240.913 41.82 240.62C41.2733 240.313 40.8533 239.927 40.56 239.46C40.28 238.98 40.14 238.413 40.14 237.76C40.14 236.973 40.3533 236.267 40.78 235.64C41.2067 235.013 41.82 234.52 42.62 234.16C43.4333 233.787 44.4067 233.6 45.54 233.6ZM58.3511 247.2C57.2978 247.2 56.3778 246.993 55.5911 246.58C54.8178 246.167 54.2178 245.573 53.7911 244.8C53.3644 244.027 53.1511 243.093 53.1511 242C53.1511 240.907 53.3644 239.973 53.7911 239.2C54.2178 238.427 54.8111 237.833 55.5711 237.42C56.3444 237.007 57.2244 236.8 58.2111 236.8C59.2244 236.8 60.0844 237.007 60.7911 237.42C61.4978 237.82 62.0378 238.373 62.4111 239.08C62.7844 239.773 62.9711 240.567 62.9711 241.46C62.9711 241.727 62.9644 241.98 62.9511 242.22C62.9378 242.46 62.9178 242.673 62.8911 242.86H54.9111V240.96H61.6911L60.3711 241.44C60.3711 240.6 60.1778 239.953 59.7911 239.5C59.4178 239.047 58.8844 238.82 58.1911 238.82C57.6844 238.82 57.2444 238.94 56.8711 239.18C56.5111 239.42 56.2378 239.78 56.0511 240.26C55.8644 240.727 55.7711 241.32 55.7711 242.04C55.7711 242.747 55.8711 243.333 56.0711 243.8C56.2844 244.253 56.5778 244.593 56.9511 244.82C57.3378 245.047 57.7978 245.16 58.3311 245.16C58.9178 245.16 59.3911 245.047 59.7511 244.82C60.1111 244.593 60.3911 244.28 60.5911 243.88L62.7711 244.72C62.5578 245.24 62.2311 245.687 61.7911 246.06C61.3644 246.433 60.8511 246.72 60.2511 246.92C59.6644 247.107 59.0311 247.2 58.3511 247.2ZM65.6931 247V237H68.0731L68.2531 238.96C68.5198 238.267 68.9065 237.733 69.4131 237.36C69.9331 236.987 70.5798 236.8 71.3531 236.8C71.5798 236.8 71.7865 236.82 71.9731 236.86C72.1598 236.9 72.3131 236.953 72.4331 237.02L72.1131 239.32C71.9798 239.267 71.8131 239.227 71.6131 239.2C71.4265 239.173 71.1798 239.16 70.8731 239.16C70.4731 239.16 70.0865 239.26 69.7131 239.46C69.3398 239.647 69.0331 239.94 68.7931 240.34C68.5531 240.727 68.4331 241.22 68.4331 241.82V247H65.6931ZM81.0906 237H83.9306L80.1306 247H76.9706L73.1706 237H76.0906L78.5706 244.9L81.0906 237ZM87.2286 235.56C86.6553 235.56 86.2286 235.44 85.9486 235.2C85.6686 234.947 85.5286 234.58 85.5286 234.1C85.5286 233.607 85.6686 233.24 85.9486 233C86.2286 232.747 86.6553 232.62 87.2286 232.62C87.8019 232.62 88.2286 232.747 88.5086 233C88.7886 233.24 88.9286 233.607 88.9286 234.1C88.9286 234.58 88.7886 234.947 88.5086 235.2C88.2286 235.44 87.8019 235.56 87.2286 235.56ZM88.5886 237V247H85.8486V237H88.5886ZM96.4331 236.8C97.3265 236.8 98.0798 236.933 98.6931 237.2C99.3198 237.453 99.8198 237.807 100.193 238.26C100.58 238.7 100.853 239.193 101.013 239.74L98.4531 240.66C98.3198 240.06 98.0931 239.607 97.7731 239.3C97.4531 238.993 97.0198 238.84 96.4731 238.84C95.9665 238.84 95.5331 238.96 95.1731 239.2C94.8131 239.427 94.5398 239.78 94.3531 240.26C94.1665 240.727 94.0731 241.313 94.0731 242.02C94.0731 242.727 94.1665 243.313 94.3531 243.78C94.5531 244.247 94.8331 244.593 95.1931 244.82C95.5665 245.047 95.9998 245.16 96.4931 245.16C96.8931 245.16 97.2331 245.093 97.5131 244.96C97.7931 244.813 98.0198 244.607 98.1931 244.34C98.3798 244.073 98.5065 243.753 98.5731 243.38L101.053 244.18C100.906 244.78 100.633 245.307 100.233 245.76C99.8331 246.213 99.3198 246.567 98.6931 246.82C98.0665 247.073 97.3398 247.2 96.5131 247.2C95.4865 247.2 94.5798 246.993 93.7931 246.58C93.0065 246.167 92.3998 245.573 91.9731 244.8C91.5465 244.027 91.3331 243.093 91.3331 242C91.3331 240.907 91.5465 239.973 91.9731 239.2C92.3998 238.427 92.9998 237.833 93.7731 237.42C94.5465 237.007 95.4331 236.8 96.4331 236.8ZM108.222 247.2C107.169 247.2 106.249 246.993 105.462 246.58C104.689 246.167 104.089 245.573 103.662 244.8C103.236 244.027 103.022 243.093 103.022 242C103.022 240.907 103.236 239.973 103.662 239.2C104.089 238.427 104.682 237.833 105.442 237.42C106.216 237.007 107.096 236.8 108.082 236.8C109.096 236.8 109.956 237.007 110.662 237.42C111.369 237.82 111.909 238.373 112.282 239.08C112.656 239.773 112.842 240.567 112.842 241.46C112.842 241.727 112.836 241.98 112.822 242.22C112.809 242.46 112.789 242.673 112.762 242.86H104.782V240.96H111.562L110.242 241.44C110.242 240.6 110.049 239.953 109.662 239.5C109.289 239.047 108.756 238.82 108.062 238.82C107.556 238.82 107.116 238.94 106.742 239.18C106.382 239.42 106.109 239.78 105.922 240.26C105.736 240.727 105.642 241.32 105.642 242.04C105.642 242.747 105.742 243.333 105.942 243.8C106.156 244.253 106.449 244.593 106.822 244.82C107.209 245.047 107.669 245.16 108.202 245.16C108.789 245.16 109.262 245.047 109.622 244.82C109.982 244.593 110.262 244.28 110.462 243.88L112.642 244.72C112.429 245.24 112.102 245.687 111.662 246.06C111.236 246.433 110.722 246.72 110.122 246.92C109.536 247.107 108.902 247.2 108.222 247.2ZM121.937 247V245.14C123.137 244.327 124.151 243.593 124.977 242.94C125.817 242.273 126.491 241.66 126.997 241.1C127.517 240.527 127.891 239.987 128.117 239.48C128.357 238.973 128.477 238.467 128.477 237.96C128.477 237.347 128.291 236.847 127.917 236.46C127.544 236.06 127.017 235.86 126.337 235.86C125.591 235.86 125.004 236.113 124.577 236.62C124.164 237.127 123.937 237.847 123.897 238.78L121.517 237.88C121.584 236.973 121.824 236.207 122.237 235.58C122.664 234.94 123.237 234.453 123.957 234.12C124.691 233.773 125.531 233.6 126.477 233.6C127.291 233.6 127.991 233.713 128.577 233.94C129.177 234.167 129.671 234.48 130.057 234.88C130.457 235.267 130.757 235.713 130.957 236.22C131.157 236.727 131.257 237.253 131.257 237.8C131.257 238.653 131.044 239.46 130.617 240.22C130.204 240.98 129.564 241.733 128.697 242.48C127.831 243.227 126.731 244.013 125.397 244.84V244.86C125.597 244.847 125.837 244.833 126.117 244.82C126.411 244.807 126.711 244.8 127.017 244.8C127.324 244.787 127.591 244.78 127.817 244.78H131.457V247H121.937Z" fill="#44403C"/>
<rect x="16.75" y="217.75" width="138.5" height="45.5" rx="7.25" stroke="#A8A29E" stroke-width="1.5"/>
<path d="M160 240.5H195" stroke="#78716C" stroke-width="1.5" stroke-miterlimit="0" stroke-linejoin="bevel" stroke-dasharray="2 2"/>
<rect x="199.75" y="328.75" width="528.5" height="95.5" rx="7.25" fill="#FDF4FF" stroke="#C026D3" stroke-width="1.5"/>
<rect x="228.75" y="349.75" width="75.5" height="53.5" rx="9.25" fill="white"/>
<path d="M271.977 372.02H264.857V375.38H270.477V377.6H264.857V383H262.097V369.8H271.977V372.02Z" fill="#A8A29E"/>
<rect x="228.75" y="349.75" width="75.5" height="53.5" rx="9.25" stroke="#A8A29E" stroke-width="1.5"/>
<rect x="358.75" y="349.75" width="80.5" height="53.5" rx="9.25" fill="white"/>
<path d="M406.184 369.8V383H403.684V376.12L403.824 372.26H403.784L400.124 383H397.864L394.224 372.26H394.184L394.324 376.12V383H391.824V369.8H395.824L398.204 377L399.044 379.98H399.084L399.944 377.02L402.304 369.8H406.184Z" fill="#A8A29E"/>
<rect x="358.75" y="349.75" width="80.5" height="53.5" rx="9.25" stroke="#A8A29E" stroke-width="1.5"/>
<rect x="493.75" y="349.75" width="75.5" height="53.5" rx="9.25" fill="white"/>
<path d="M537.56 369.8L532.88 378.06V383H530.12V378.06L525.44 369.8H528.38L530.5 373.76L531.5 375.82L532.52 373.76L534.64 369.8H537.56Z" fill="#A8A29E"/>
<rect x="493.75" y="349.75" width="75.5" height="53.5" rx="9.25" stroke="#A8A29E" stroke-width="1.5"/>
<rect x="623.75" y="349.75" width="75.5" height="53.5" rx="9.25" fill="white"/>
<path d="M658.292 381.76L657.792 380.8H667.032V383H656.052V380.92L664.572 371.04L665.052 372H656.212V369.8H666.792V371.88L658.292 381.76Z" fill="#A8A29E"/>
<rect x="623.75" y="349.75" width="75.5" height="53.5" rx="9.25" stroke="#A8A29E" stroke-width="1.5"/>
<path d="M354.707 377.207C355.098 376.817 355.098 376.183 354.707 375.793L348.343 369.429C347.953 369.038 347.319 369.038 346.929 369.429C346.538 369.819 346.538 370.453 346.929 370.843L352.586 376.5L346.929 382.157C346.538 382.547 346.538 383.181 346.929 383.571C347.319 383.962 347.953 383.962 348.343 383.571L354.707 377.207ZM309 377.5H354V375.5H309V377.5Z" fill="#A8A29E"/>
<path d="M489.707 377.207C490.098 376.817 490.098 376.183 489.707 375.793L483.343 369.429C482.953 369.038 482.319 369.038 481.929 369.429C481.538 369.819 481.538 370.453 481.929 370.843L487.586 376.5L481.929 382.157C481.538 382.547 481.538 383.181 481.929 383.571C482.319 383.962 482.953 383.962 483.343 383.571L489.707 377.207ZM444 377.5H489V375.5H444V377.5Z" fill="#A8A29E"/>
<path d="M619.707 377.207C620.098 376.817 620.098 376.183 619.707 375.793L613.343 369.429C612.953 369.038 612.319 369.038 611.929 369.429C611.538 369.819 611.538 370.453 611.929 370.843L617.586 376.5L611.929 382.157C611.538 382.547 611.538 383.181 611.929 383.571C612.319 383.962 612.953 383.962 613.343 383.571L619.707 377.207ZM574 377.5H619V375.5H574V377.5Z" fill="#A8A29E"/>
<path d="M45.54 369.6C46.74 369.6 47.7933 369.807 48.7 370.22C49.6067 370.633 50.38 371.247 51.02 372.06L49.48 373.84C48.9333 373.147 48.3333 372.64 47.68 372.32C47.04 371.987 46.2933 371.82 45.44 371.82C44.88 371.82 44.4133 371.893 44.04 372.04C43.68 372.187 43.4133 372.38 43.24 372.62C43.08 372.86 43 373.127 43 373.42C43 373.78 43.14 374.087 43.42 374.34C43.7 374.58 44.18 374.78 44.86 374.94L47.32 375.5C48.6267 375.793 49.56 376.233 50.12 376.82C50.6933 377.393 50.98 378.14 50.98 379.06C50.98 379.927 50.7533 380.673 50.3 381.3C49.8467 381.913 49.2133 382.387 48.4 382.72C47.5867 383.04 46.6533 383.2 45.6 383.2C44.68 383.2 43.8333 383.093 43.06 382.88C42.3 382.653 41.62 382.347 41.02 381.96C40.42 381.573 39.92 381.127 39.52 380.62L41.08 378.76C41.3867 379.187 41.7667 379.567 42.22 379.9C42.6733 380.233 43.1867 380.5 43.76 380.7C44.3467 380.887 44.96 380.98 45.6 380.98C46.1467 380.98 46.6067 380.92 46.98 380.8C47.3667 380.667 47.6533 380.487 47.84 380.26C48.04 380.02 48.14 379.733 48.14 379.4C48.14 379.053 48.02 378.76 47.78 378.52C47.5533 378.267 47.1267 378.073 46.5 377.94L43.82 377.34C43.0467 377.153 42.38 376.913 41.82 376.62C41.2733 376.313 40.8533 375.927 40.56 375.46C40.28 374.98 40.14 374.413 40.14 373.76C40.14 372.973 40.3533 372.267 40.78 371.64C41.2067 371.013 41.82 370.52 42.62 370.16C43.4333 369.787 44.4067 369.6 45.54 369.6ZM58.3511 383.2C57.2978 383.2 56.3778 382.993 55.5911 382.58C54.8178 382.167 54.2178 381.573 53.7911 380.8C53.3644 380.027 53.1511 379.093 53.1511 378C53.1511 376.907 53.3644 375.973 53.7911 375.2C54.2178 374.427 54.8111 373.833 55.5711 373.42C56.3444 373.007 57.2244 372.8 58.2111 372.8C59.2244 372.8 60.0844 373.007 60.7911 373.42C61.4978 373.82 62.0378 374.373 62.4111 375.08C62.7844 375.773 62.9711 376.567 62.9711 377.46C62.9711 377.727 62.9644 377.98 62.9511 378.22C62.9378 378.46 62.9178 378.673 62.8911 378.86H54.9111V376.96H61.6911L60.3711 377.44C60.3711 376.6 60.1778 375.953 59.7911 375.5C59.4178 375.047 58.8844 374.82 58.1911 374.82C57.6844 374.82 57.2444 374.94 56.8711 375.18C56.5111 375.42 56.2378 375.78 56.0511 376.26C55.8644 376.727 55.7711 377.32 55.7711 378.04C55.7711 378.747 55.8711 379.333 56.0711 379.8C56.2844 380.253 56.5778 380.593 56.9511 380.82C57.3378 381.047 57.7978 381.16 58.3311 381.16C58.9178 381.16 59.3911 381.047 59.7511 380.82C60.1111 380.593 60.3911 380.28 60.5911 379.88L62.7711 380.72C62.5578 381.24 62.2311 381.687 61.7911 382.06C61.3644 382.433 60.8511 382.72 60.2511 382.92C59.6644 383.107 59.0311 383.2 58.3511 383.2ZM65.6931 383V373H68.0731L68.2531 374.96C68.5198 374.267 68.9065 373.733 69.4131 373.36C69.9331 372.987 70.5798 372.8 71.3531 372.8C71.5798 372.8 71.7865 372.82 71.9731 372.86C72.1598 372.9 72.3131 372.953 72.4331 373.02L72.1131 375.32C71.9798 375.267 71.8131 375.227 71.6131 375.2C71.4265 375.173 71.1798 375.16 70.8731 375.16C70.4731 375.16 70.0865 375.26 69.7131 375.46C69.3398 375.647 69.0331 375.94 68.7931 376.34C68.5531 376.727 68.4331 377.22 68.4331 377.82V383H65.6931ZM81.0906 373H83.9306L80.1306 383H76.9706L73.1706 373H76.0906L78.5706 380.9L81.0906 373ZM87.2286 371.56C86.6553 371.56 86.2286 371.44 85.9486 371.2C85.6686 370.947 85.5286 370.58 85.5286 370.1C85.5286 369.607 85.6686 369.24 85.9486 369C86.2286 368.747 86.6553 368.62 87.2286 368.62C87.8019 368.62 88.2286 368.747 88.5086 369C88.7886 369.24 88.9286 369.607 88.9286 370.1C88.9286 370.58 88.7886 370.947 88.5086 371.2C88.2286 371.44 87.8019 371.56 87.2286 371.56ZM88.5886 373V383H85.8486V373H88.5886ZM96.4331 372.8C97.3265 372.8 98.0798 372.933 98.6931 373.2C99.3198 373.453 99.8198 373.807 100.193 374.26C100.58 374.7 100.853 375.193 101.013 375.74L98.4531 376.66C98.3198 376.06 98.0931 375.607 97.7731 375.3C97.4531 374.993 97.0198 374.84 96.4731 374.84C95.9665 374.84 95.5331 374.96 95.1731 375.2C94.8131 375.427 94.5398 375.78 94.3531 376.26C94.1665 376.727 94.0731 377.313 94.0731 378.02C94.0731 378.727 94.1665 379.313 94.3531 379.78C94.5531 380.247 94.8331 380.593 95.1931 380.82C95.5665 381.047 95.9998 381.16 96.4931 381.16C96.8931 381.16 97.2331 381.093 97.5131 380.96C97.7931 380.813 98.0198 380.607 98.1931 380.34C98.3798 380.073 98.5065 379.753 98.5731 379.38L101.053 380.18C100.906 380.78 100.633 381.307 100.233 381.76C99.8331 382.213 99.3198 382.567 98.6931 382.82C98.0665 383.073 97.3398 383.2 96.5131 383.2C95.4865 383.2 94.5798 382.993 93.7931 382.58C93.0065 382.167 92.3998 381.573 91.9731 380.8C91.5465 380.027 91.3331 379.093 91.3331 378C91.3331 376.907 91.5465 375.973 91.9731 375.2C92.3998 374.427 92.9998 373.833 93.7731 373.42C94.5465 373.007 95.4331 372.8 96.4331 372.8ZM108.222 383.2C107.169 383.2 106.249 382.993 105.462 382.58C104.689 382.167 104.089 381.573 103.662 380.8C103.236 380.027 103.022 379.093 103.022 378C103.022 376.907 103.236 375.973 103.662 375.2C104.089 374.427 104.682 373.833 105.442 373.42C106.216 373.007 107.096 372.8 108.082 372.8C109.096 372.8 109.956 373.007 110.662 373.42C111.369 373.82 111.909 374.373 112.282 375.08C112.656 375.773 112.842 376.567 112.842 377.46C112.842 377.727 112.836 377.98 112.822 378.22C112.809 378.46 112.789 378.673 112.762 378.86H104.782V376.96H111.562L110.242 377.44C110.242 376.6 110.049 375.953 109.662 375.5C109.289 375.047 108.756 374.82 108.062 374.82C107.556 374.82 107.116 374.94 106.742 375.18C106.382 375.42 106.109 375.78 105.922 376.26C105.736 376.727 105.642 377.32 105.642 378.04C105.642 378.747 105.742 379.333 105.942 379.8C106.156 380.253 106.449 380.593 106.822 380.82C107.209 381.047 107.669 381.16 108.202 381.16C108.789 381.16 109.262 381.047 109.622 380.82C109.982 380.593 110.262 380.28 110.462 379.88L112.642 380.72C112.429 381.24 112.102 381.687 111.662 382.06C111.236 382.433 110.722 382.72 110.122 382.92C109.536 383.107 108.902 383.2 108.222 383.2ZM126.577 383.2C125.257 383.2 124.131 382.927 123.197 382.38C122.277 381.82 121.644 381.02 121.297 379.98L123.897 378.84C123.991 379.32 124.144 379.72 124.357 380.04C124.571 380.347 124.857 380.58 125.217 380.74C125.591 380.9 126.031 380.98 126.537 380.98C126.991 380.98 127.371 380.9 127.677 380.74C127.997 380.58 128.244 380.353 128.417 380.06C128.591 379.767 128.677 379.433 128.677 379.06C128.677 378.66 128.597 378.333 128.437 378.08C128.291 377.827 128.064 377.647 127.757 377.54C127.451 377.42 127.064 377.36 126.597 377.36C126.424 377.36 126.257 377.367 126.097 377.38C125.951 377.38 125.784 377.393 125.597 377.42V375.4C125.704 375.413 125.811 375.427 125.917 375.44C126.037 375.44 126.157 375.44 126.277 375.44C127.024 375.44 127.557 375.293 127.877 375C128.211 374.693 128.377 374.207 128.377 373.54C128.377 372.993 128.211 372.573 127.877 372.28C127.557 371.973 127.097 371.82 126.497 371.82C125.857 371.82 125.351 371.98 124.977 372.3C124.604 372.607 124.344 373.08 124.197 373.72L121.737 372.8C121.897 372.133 122.204 371.56 122.657 371.08C123.124 370.6 123.697 370.233 124.377 369.98C125.057 369.713 125.811 369.58 126.637 369.58C127.624 369.58 128.444 369.733 129.097 370.04C129.764 370.347 130.264 370.767 130.597 371.3C130.944 371.833 131.117 372.447 131.117 373.14C131.117 373.687 131.031 374.153 130.857 374.54C130.697 374.913 130.484 375.233 130.217 375.5C129.964 375.753 129.697 375.947 129.417 376.08C129.137 376.213 128.877 376.293 128.637 376.32V376.38C128.944 376.393 129.257 376.46 129.577 376.58C129.897 376.687 130.191 376.853 130.457 377.08C130.737 377.307 130.964 377.6 131.137 377.96C131.311 378.307 131.397 378.72 131.397 379.2C131.397 380 131.184 380.707 130.757 381.32C130.344 381.92 129.777 382.387 129.057 382.72C128.337 383.04 127.511 383.2 126.577 383.2Z" fill="#44403C"/>
<rect x="16.75" y="353.75" width="138.5" height="45.5" rx="7.25" stroke="#A8A29E" stroke-width="1.5"/>
<path d="M160 376.5H195" stroke="#78716C" stroke-width="1.5" stroke-miterlimit="0" stroke-linejoin="bevel" stroke-dasharray="2 2"/>
</svg>
