<svg width="957" height="406" viewBox="0 0 957 406" fill="none" xmlns="http://www.w3.org/2000/svg">
<rect width="957" height="406" fill="white"/>
<line x1="121" y1="347.5" x2="852" y2="347.5" stroke="#A8A29E" stroke-width="3"/>
<rect x="14.5" y="16.5" width="928" height="200" rx="9.5" stroke="#A8A29E"/>
<path d="M417.483 37.8C418.497 37.8 419.363 37.9733 420.083 38.32C420.803 38.6533 421.357 39.14 421.743 39.78C422.143 40.4067 422.343 41.1667 422.343 42.06C422.343 42.9533 422.143 43.72 421.743 44.36C421.357 44.9867 420.803 45.4733 420.083 45.82C419.363 46.1533 418.497 46.32 417.483 46.32H414.703V51H411.943V37.8H417.483ZM417.063 44.14C417.89 44.14 418.51 43.9667 418.923 43.62C419.337 43.26 419.543 42.74 419.543 42.06C419.543 41.3667 419.337 40.8467 418.923 40.5C418.51 40.1533 417.89 39.98 417.063 39.98H414.703V44.14H417.063ZM431.093 37.8C432.586 37.8 433.76 38.16 434.613 38.88C435.466 39.6 435.893 40.5667 435.893 41.78C435.893 43.0733 435.466 44.0667 434.613 44.76C433.76 45.44 432.593 45.78 431.113 45.78L430.833 45.94H427.993V51H425.273V37.8H431.093ZM430.773 43.84C431.546 43.84 432.12 43.6867 432.493 43.38C432.88 43.06 433.073 42.5733 433.073 41.92C433.073 41.2667 432.88 40.7867 432.493 40.48C432.12 40.16 431.546 40 430.773 40H427.993V43.84H430.773ZM432.393 44.42L436.673 51H433.573L430.033 45.22L432.393 44.42ZM444.85 37.6C446.156 37.6 447.283 37.8733 448.23 38.42C449.176 38.9667 449.903 39.7467 450.41 40.76C450.93 41.7733 451.19 42.9867 451.19 44.4C451.19 45.8133 450.93 47.0267 450.41 48.04C449.903 49.0533 449.176 49.8333 448.23 50.38C447.283 50.9267 446.156 51.2 444.85 51.2C443.543 51.2 442.41 50.9267 441.45 50.38C440.503 49.8333 439.77 49.0533 439.25 48.04C438.743 47.0267 438.49 45.8133 438.49 44.4C438.49 42.9867 438.743 41.7733 439.25 40.76C439.77 39.7467 440.503 38.9667 441.45 38.42C442.41 37.8733 443.543 37.6 444.85 37.6ZM444.85 39.86C444.103 39.86 443.47 40.0333 442.95 40.38C442.43 40.7267 442.03 41.24 441.75 41.92C441.483 42.5867 441.35 43.4133 441.35 44.4C441.35 45.3733 441.483 46.2 441.75 46.88C442.03 47.56 442.43 48.0733 442.95 48.42C443.47 48.7667 444.103 48.94 444.85 48.94C445.583 48.94 446.21 48.7667 446.73 48.42C447.25 48.0733 447.643 47.56 447.91 46.88C448.19 46.2 448.33 45.3733 448.33 44.4C448.33 43.4133 448.19 42.5867 447.91 41.92C447.643 41.24 447.25 40.7267 446.73 40.38C446.21 40.0333 445.583 39.86 444.85 39.86ZM459.474 37.8C461.541 37.8 463.141 38.3733 464.274 39.52C465.407 40.6533 465.974 42.28 465.974 44.4C465.974 46.5067 465.407 48.1333 464.274 49.28C463.141 50.4267 461.541 51 459.474 51H454.374V37.8H459.474ZM459.334 48.8C460.587 48.8 461.527 48.4267 462.154 47.68C462.794 46.92 463.114 45.8267 463.114 44.4C463.114 42.9733 462.794 41.8867 462.154 41.14C461.527 40.38 460.587 40 459.334 40H457.134V48.8H459.334ZM480.169 37.8V45.8C480.169 47.6 479.689 48.9533 478.729 49.86C477.769 50.7533 476.369 51.2 474.529 51.2C472.689 51.2 471.289 50.7533 470.329 49.86C469.369 48.9533 468.889 47.6 468.889 45.8V37.8H471.649V45.68C471.649 46.7867 471.882 47.6067 472.349 48.14C472.829 48.6733 473.556 48.94 474.529 48.94C475.502 48.94 476.222 48.6733 476.689 48.14C477.156 47.6067 477.389 46.7867 477.389 45.68V37.8H480.169ZM495.048 47.36C494.795 48.2133 494.395 48.9267 493.848 49.5C493.301 50.0733 492.655 50.5 491.908 50.78C491.161 51.06 490.341 51.2 489.448 51.2C488.141 51.2 487.008 50.9267 486.048 50.38C485.101 49.8333 484.368 49.0533 483.848 48.04C483.341 47.0267 483.088 45.8133 483.088 44.4C483.088 42.9867 483.341 41.7733 483.848 40.76C484.368 39.7467 485.101 38.9667 486.048 38.42C487.008 37.8733 488.128 37.6 489.408 37.6C490.315 37.6 491.135 37.7267 491.868 37.98C492.601 38.22 493.221 38.5933 493.728 39.1C494.248 39.6067 494.628 40.2467 494.868 41.02L492.368 42.08C492.141 41.28 491.795 40.7133 491.328 40.38C490.861 40.0333 490.261 39.86 489.528 39.86C488.808 39.86 488.175 40.0333 487.628 40.38C487.095 40.7267 486.681 41.24 486.388 41.92C486.095 42.5867 485.948 43.4133 485.948 44.4C485.948 45.3733 486.081 46.2 486.348 46.88C486.628 47.56 487.035 48.0733 487.568 48.42C488.101 48.7667 488.755 48.94 489.528 48.94C490.248 48.94 490.868 48.7467 491.388 48.36C491.921 47.9733 492.295 47.3867 492.508 46.6L495.048 47.36ZM508.24 37.8V40.02H503.82V51H501.06V40.02H496.62V37.8H508.24ZM513.656 37.8V51H510.896V37.8H513.656ZM523.187 37.6C524.494 37.6 525.621 37.8733 526.567 38.42C527.514 38.9667 528.241 39.7467 528.747 40.76C529.267 41.7733 529.527 42.9867 529.527 44.4C529.527 45.8133 529.267 47.0267 528.747 48.04C528.241 49.0533 527.514 49.8333 526.567 50.38C525.621 50.9267 524.494 51.2 523.187 51.2C521.881 51.2 520.747 50.9267 519.787 50.38C518.841 49.8333 518.107 49.0533 517.587 48.04C517.081 47.0267 516.827 45.8133 516.827 44.4C516.827 42.9867 517.081 41.7733 517.587 40.76C518.107 39.7467 518.841 38.9667 519.787 38.42C520.747 37.8733 521.881 37.6 523.187 37.6ZM523.187 39.86C522.441 39.86 521.807 40.0333 521.287 40.38C520.767 40.7267 520.367 41.24 520.087 41.92C519.821 42.5867 519.687 43.4133 519.687 44.4C519.687 45.3733 519.821 46.2 520.087 46.88C520.367 47.56 520.767 48.0733 521.287 48.42C521.807 48.7667 522.441 48.94 523.187 48.94C523.921 48.94 524.547 48.7667 525.067 48.42C525.587 48.0733 525.981 47.56 526.247 46.88C526.527 46.2 526.667 45.3733 526.667 44.4C526.667 43.4133 526.527 42.5867 526.247 41.92C525.981 41.24 525.587 40.7267 525.067 40.38C524.547 40.0333 523.921 39.86 523.187 39.86ZM544.051 37.8V51H540.891L536.271 43.24L535.131 41.08H535.111L535.191 43.36V51H532.711V37.8H535.851L540.471 45.54L541.611 47.72H541.651L541.571 45.44V37.8H544.051Z" fill="#44403C"/>
<path d="M43.552 337.16V353H41.176V343.832L41.368 339.464H41.344L36.52 353H34.384L29.56 339.464H29.536L29.728 343.832V353H27.352V337.16H31.168L34.36 346.328L35.464 350.096H35.512L36.64 346.328L39.808 337.16H43.552ZM52.9422 340.76C54.1102 340.76 55.1422 341.008 56.0382 341.504C56.9342 342 57.6302 342.72 58.1262 343.664C58.6382 344.592 58.8942 345.704 58.8942 347C58.8942 348.296 58.6382 349.416 58.1262 350.36C57.6302 351.288 56.9342 352 56.0382 352.496C55.1422 352.992 54.1102 353.24 52.9422 353.24C51.7742 353.24 50.7422 352.992 49.8462 352.496C48.9502 352 48.2462 351.288 47.7342 350.36C47.2222 349.416 46.9662 348.296 46.9662 347C46.9662 345.704 47.2222 344.592 47.7342 343.664C48.2462 342.72 48.9502 342 49.8462 341.504C50.7422 341.008 51.7742 340.76 52.9422 340.76ZM52.9422 342.776C52.2222 342.776 51.6062 342.944 51.0942 343.28C50.5982 343.6 50.2142 344.072 49.9422 344.696C49.6702 345.32 49.5342 346.088 49.5342 347C49.5342 347.896 49.6702 348.664 49.9422 349.304C50.2142 349.928 50.5982 350.408 51.0942 350.744C51.6062 351.064 52.2222 351.224 52.9422 351.224C53.6622 351.224 54.2702 351.064 54.7662 350.744C55.2622 350.408 55.6462 349.928 55.9182 349.304C56.1902 348.664 56.3262 347.896 56.3262 347C56.3262 346.088 56.1902 345.32 55.9182 344.696C55.6462 344.072 55.2622 343.6 54.7662 343.28C54.2702 342.944 53.6622 342.776 52.9422 342.776ZM62.1248 353V341H64.4048L64.5728 344.12L64.2368 343.784C64.4608 343.096 64.7808 342.528 65.1968 342.08C65.6288 341.616 66.1328 341.28 66.7088 341.072C67.3008 340.864 67.9248 340.76 68.5808 340.76C69.4288 340.76 70.1888 340.928 70.8608 341.264C71.5488 341.584 72.0928 342.072 72.4928 342.728C72.8928 343.384 73.0928 344.216 73.0928 345.224V353H70.5248V346.016C70.5248 344.832 70.2768 344.016 69.7808 343.568C69.3008 343.104 68.6928 342.872 67.9568 342.872C67.4288 342.872 66.9168 343 66.4208 343.256C65.9248 343.496 65.5088 343.888 65.1728 344.432C64.8528 344.976 64.6928 345.704 64.6928 346.616V353H62.1248ZM81.5922 353.24C80.6002 353.24 79.6962 352.992 78.8802 352.496C78.0802 352 77.4482 351.288 76.9842 350.36C76.5202 349.432 76.2882 348.32 76.2882 347.024C76.2882 345.68 76.5362 344.544 77.0322 343.616C77.5282 342.688 78.1922 341.984 79.0242 341.504C79.8562 341.008 80.7682 340.76 81.7602 340.76C82.7842 340.76 83.6482 341.04 84.3522 341.6C85.0562 342.16 85.5282 342.888 85.7682 343.784L85.4802 344.048V335.6H88.0482V353H85.7682L85.5762 349.736L85.9122 349.76C85.8002 350.48 85.5362 351.104 85.1202 351.632C84.7042 352.144 84.1842 352.544 83.5602 352.832C82.9522 353.104 82.2962 353.24 81.5922 353.24ZM82.1442 351.176C82.8322 351.176 83.4242 351 83.9202 350.648C84.4162 350.296 84.8002 349.8 85.0722 349.16C85.3442 348.52 85.4802 347.752 85.4802 346.856C85.4802 346.024 85.3442 345.312 85.0722 344.72C84.8002 344.112 84.4162 343.648 83.9202 343.328C83.4402 343.008 82.8802 342.848 82.2402 342.848C81.1682 342.848 80.3362 343.216 79.7442 343.952C79.1522 344.688 78.8562 345.704 78.8562 347C78.8562 348.296 79.1442 349.32 79.7202 350.072C80.2962 350.808 81.1042 351.176 82.1442 351.176ZM98.9671 345.296C98.9671 344.496 98.7431 343.88 98.2951 343.448C97.8631 343 97.2631 342.776 96.4951 342.776C95.7751 342.776 95.1591 342.944 94.6471 343.28C94.1351 343.616 93.7591 344.16 93.5191 344.912L91.3591 344C91.6631 343.024 92.2551 342.24 93.1351 341.648C94.0311 341.056 95.1831 340.76 96.5911 340.76C97.5511 340.76 98.3991 340.92 99.1351 341.24C99.8711 341.544 100.447 342.008 100.863 342.632C101.295 343.256 101.511 344.056 101.511 345.032V350.384C101.511 350.976 101.807 351.272 102.399 351.272C102.687 351.272 102.967 351.232 103.239 351.152L103.095 352.928C102.727 353.104 102.263 353.192 101.703 353.192C101.191 353.192 100.727 353.104 100.311 352.928C99.9111 352.736 99.5911 352.456 99.3511 352.088C99.1271 351.704 99.0151 351.232 99.0151 350.672V350.504L99.5431 350.48C99.3991 351.104 99.1031 351.624 98.6551 352.04C98.2071 352.44 97.6871 352.744 97.0951 352.952C96.5031 353.144 95.9031 353.24 95.2951 353.24C94.5431 353.24 93.8631 353.12 93.2551 352.88C92.6631 352.64 92.1911 352.28 91.8391 351.8C91.5031 351.304 91.3351 350.696 91.3351 349.976C91.3351 349.08 91.6231 348.344 92.1991 347.768C92.7911 347.192 93.6231 346.8 94.6951 346.592L99.3511 345.68L99.3271 347.48L95.9431 348.176C95.2711 348.304 94.7671 348.488 94.4311 348.728C94.0951 348.968 93.9271 349.32 93.9271 349.784C93.9271 350.232 94.0951 350.592 94.4311 350.864C94.7831 351.12 95.2471 351.248 95.8231 351.248C96.2231 351.248 96.6071 351.2 96.9751 351.104C97.3591 351.008 97.7031 350.856 98.0071 350.648C98.3111 350.424 98.5431 350.144 98.7031 349.808C98.8791 349.456 98.9671 349.04 98.9671 348.56V345.296ZM115.528 341L110.272 354.416C109.92 355.344 109.536 356.08 109.12 356.624C108.72 357.168 108.256 357.56 107.728 357.8C107.2 358.04 106.584 358.16 105.88 358.16C105.304 358.16 104.768 358.08 104.272 357.92C103.792 357.776 103.368 357.576 103 357.32L103.624 355.328C103.928 355.584 104.248 355.776 104.584 355.904C104.936 356.032 105.312 356.096 105.712 356.096C106.144 356.096 106.528 355.976 106.864 355.736C107.216 355.512 107.528 355.056 107.8 354.368L108.328 353.072L107.056 350.096L103.312 341H106.192L108.856 348.536L109.552 350.792L110.344 348.32L112.864 341H115.528Z" fill="#292524"/>
<path d="M870.8 339.368H861.92V343.976H868.88V346.184H861.92V353H859.352V337.16H870.8V339.368ZM872.867 353V341H875.051L875.291 343.16C875.611 342.376 876.083 341.784 876.707 341.384C877.347 340.968 878.131 340.76 879.059 340.76C879.299 340.76 879.539 340.784 879.779 340.832C880.019 340.864 880.219 340.92 880.379 341L880.019 343.256C879.843 343.192 879.643 343.144 879.419 343.112C879.211 343.064 878.923 343.04 878.555 343.04C878.059 343.04 877.571 343.176 877.091 343.448C876.611 343.704 876.211 344.096 875.891 344.624C875.587 345.152 875.435 345.824 875.435 346.64V353H872.867ZM884.101 338.984C883.541 338.984 883.109 338.848 882.805 338.576C882.517 338.288 882.373 337.888 882.373 337.376C882.373 336.864 882.517 336.472 882.805 336.2C883.109 335.928 883.541 335.792 884.101 335.792C884.645 335.792 885.061 335.928 885.349 336.2C885.653 336.472 885.805 336.864 885.805 337.376C885.805 337.888 885.653 338.288 885.349 338.576C885.061 338.848 884.645 338.984 884.101 338.984ZM885.373 341V353H882.805V341H885.373ZM893.998 353.24C893.006 353.24 892.102 352.992 891.286 352.496C890.486 352 889.854 351.288 889.39 350.36C888.926 349.432 888.694 348.32 888.694 347.024C888.694 345.68 888.942 344.544 889.438 343.616C889.934 342.688 890.598 341.984 891.43 341.504C892.262 341.008 893.174 340.76 894.166 340.76C895.19 340.76 896.054 341.04 896.758 341.6C897.462 342.16 897.934 342.888 898.174 343.784L897.886 344.048V335.6H900.454V353H898.174L897.982 349.736L898.318 349.76C898.206 350.48 897.942 351.104 897.526 351.632C897.11 352.144 896.59 352.544 895.966 352.832C895.358 353.104 894.702 353.24 893.998 353.24ZM894.55 351.176C895.238 351.176 895.83 351 896.326 350.648C896.822 350.296 897.206 349.8 897.478 349.16C897.75 348.52 897.886 347.752 897.886 346.856C897.886 346.024 897.75 345.312 897.478 344.72C897.206 344.112 896.822 343.648 896.326 343.328C895.846 343.008 895.286 342.848 894.646 342.848C893.574 342.848 892.742 343.216 892.15 343.952C891.558 344.688 891.262 345.704 891.262 347C891.262 348.296 891.55 349.32 892.126 350.072C892.702 350.808 893.51 351.176 894.55 351.176ZM911.373 345.296C911.373 344.496 911.149 343.88 910.701 343.448C910.269 343 909.669 342.776 908.901 342.776C908.181 342.776 907.565 342.944 907.053 343.28C906.541 343.616 906.165 344.16 905.925 344.912L903.765 344C904.069 343.024 904.661 342.24 905.541 341.648C906.437 341.056 907.589 340.76 908.997 340.76C909.957 340.76 910.805 340.92 911.541 341.24C912.277 341.544 912.853 342.008 913.269 342.632C913.701 343.256 913.917 344.056 913.917 345.032V350.384C913.917 350.976 914.213 351.272 914.805 351.272C915.093 351.272 915.373 351.232 915.645 351.152L915.501 352.928C915.133 353.104 914.669 353.192 914.109 353.192C913.597 353.192 913.133 353.104 912.717 352.928C912.317 352.736 911.997 352.456 911.757 352.088C911.533 351.704 911.421 351.232 911.421 350.672V350.504L911.949 350.48C911.805 351.104 911.509 351.624 911.061 352.04C910.613 352.44 910.093 352.744 909.501 352.952C908.909 353.144 908.309 353.24 907.701 353.24C906.949 353.24 906.269 353.12 905.661 352.88C905.069 352.64 904.597 352.28 904.245 351.8C903.909 351.304 903.741 350.696 903.741 349.976C903.741 349.08 904.029 348.344 904.605 347.768C905.197 347.192 906.029 346.8 907.101 346.592L911.757 345.68L911.733 347.48L908.349 348.176C907.677 348.304 907.173 348.488 906.837 348.728C906.501 348.968 906.333 349.32 906.333 349.784C906.333 350.232 906.501 350.592 906.837 350.864C907.189 351.12 907.653 351.248 908.229 351.248C908.629 351.248 909.013 351.2 909.381 351.104C909.765 351.008 910.109 350.856 910.413 350.648C910.717 350.424 910.949 350.144 911.109 349.808C911.285 349.456 911.373 349.04 911.373 348.56V345.296ZM927.934 341L922.678 354.416C922.326 355.344 921.942 356.08 921.526 356.624C921.126 357.168 920.662 357.56 920.134 357.8C919.606 358.04 918.99 358.16 918.286 358.16C917.71 358.16 917.174 358.08 916.678 357.92C916.198 357.776 915.774 357.576 915.406 357.32L916.03 355.328C916.334 355.584 916.654 355.776 916.99 355.904C917.342 356.032 917.718 356.096 918.118 356.096C918.55 356.096 918.934 355.976 919.27 355.736C919.622 355.512 919.934 355.056 920.206 354.368L920.734 353.072L919.462 350.096L915.718 341H918.598L921.262 348.536L921.958 350.792L922.75 348.32L925.27 341H927.934Z" fill="#292524"/>
<path d="M83.75 296.5H79.625V295.125C79.625 294.76 79.4801 294.411 79.2223 294.153C78.9644 293.895 78.6147 293.75 78.25 293.75C77.8853 293.75 77.5356 293.895 77.2777 294.153C77.0199 294.411 76.875 294.76 76.875 295.125V296.5H63.125V295.125C63.125 294.76 62.9801 294.411 62.7223 294.153C62.4644 293.895 62.1147 293.75 61.75 293.75C61.3853 293.75 61.0356 293.895 60.7777 294.153C60.5199 294.411 60.375 294.76 60.375 295.125V296.5H56.25C55.5207 296.5 54.8212 296.79 54.3055 297.305C53.7897 297.821 53.5 298.521 53.5 299.25V326.75C53.5 327.479 53.7897 328.179 54.3055 328.695C54.8212 329.21 55.5207 329.5 56.25 329.5H83.75C84.4793 329.5 85.1788 329.21 85.6945 328.695C86.2103 328.179 86.5 327.479 86.5 326.75V299.25C86.5 298.521 86.2103 297.821 85.6945 297.305C85.1788 296.79 84.4793 296.5 83.75 296.5ZM60.375 299.25V300.625C60.375 300.99 60.5199 301.339 60.7777 301.597C61.0356 301.855 61.3853 302 61.75 302C62.1147 302 62.4644 301.855 62.7223 301.597C62.9801 301.339 63.125 300.99 63.125 300.625V299.25H76.875V300.625C76.875 300.99 77.0199 301.339 77.2777 301.597C77.5356 301.855 77.8853 302 78.25 302C78.6147 302 78.9644 301.855 79.2223 301.597C79.4801 301.339 79.625 300.99 79.625 300.625V299.25H83.75V304.75H56.25V299.25H60.375ZM83.75 326.75H56.25V307.5H83.75V326.75ZM67.25 311.625V322.625C67.25 322.99 67.1051 323.339 66.8473 323.597C66.5894 323.855 66.2397 324 65.875 324C65.5103 324 65.1606 323.855 64.9027 323.597C64.6449 323.339 64.5 322.99 64.5 322.625V313.849L63.7403 314.231C63.4139 314.394 63.0361 314.421 62.6899 314.305C62.3437 314.19 62.0576 313.942 61.8944 313.615C61.7312 313.289 61.7043 312.911 61.8197 312.565C61.9351 312.219 62.1833 311.933 62.5097 311.769L65.2597 310.394C65.4694 310.289 65.7025 310.24 65.9367 310.25C66.171 310.261 66.3987 310.331 66.5981 310.455C66.7976 310.578 66.9622 310.75 67.0763 310.955C67.1904 311.16 67.2502 311.391 67.25 311.625ZM77.4181 316.859L74.125 321.25H76.875C77.2397 321.25 77.5894 321.395 77.8473 321.653C78.1051 321.911 78.25 322.26 78.25 322.625C78.25 322.99 78.1051 323.339 77.8473 323.597C77.5894 323.855 77.2397 324 76.875 324H71.375C71.1196 324 70.8693 323.929 70.6521 323.795C70.4349 323.66 70.2594 323.468 70.1452 323.24C70.031 323.012 69.9826 322.756 70.0056 322.502C70.0285 322.247 70.1218 322.004 70.275 321.8L75.2216 315.205C75.3341 315.055 75.4148 314.884 75.4588 314.702C75.5027 314.52 75.509 314.331 75.4773 314.146C75.4455 313.962 75.3763 313.785 75.274 313.628C75.1717 313.471 75.0384 313.337 74.8823 313.234C74.7262 313.13 74.5506 313.059 74.3662 313.026C74.1818 312.993 73.9926 312.998 73.8102 313.04C73.6277 313.083 73.4559 313.162 73.3052 313.273C73.1545 313.385 73.0282 313.526 72.9339 313.688C72.8463 313.849 72.7272 313.991 72.5838 314.106C72.4403 314.22 72.2754 314.305 72.0986 314.355C71.9219 314.405 71.737 314.419 71.5548 314.396C71.3726 314.373 71.1968 314.314 71.0378 314.222C70.8788 314.13 70.7398 314.007 70.629 313.861C70.5183 313.715 70.4379 313.547 70.3928 313.369C70.3476 313.191 70.3386 313.006 70.3662 312.825C70.3938 312.643 70.4574 312.469 70.5534 312.312C71.0076 311.526 71.7084 310.912 72.5472 310.565C73.386 310.218 74.3159 310.157 75.1927 310.392C76.0696 310.627 76.8445 311.145 77.3972 311.865C77.9499 312.585 78.2497 313.467 78.25 314.375C78.2529 315.272 77.9606 316.145 77.4181 316.859Z" fill="#44403C"/>
<rect x="124.75" y="100.75" width="168.5" height="78.5" rx="9.25" fill="#EEF2FF"/>
<path d="M166.056 122.16C167.272 122.16 168.312 122.368 169.176 122.784C170.04 123.184 170.704 123.768 171.168 124.536C171.648 125.288 171.888 126.2 171.888 127.272C171.888 128.344 171.648 129.264 171.168 130.032C170.704 130.784 170.04 131.368 169.176 131.784C168.312 132.184 167.272 132.384 166.056 132.384H162.72V138H159.408V122.16H166.056ZM165.552 129.768C166.544 129.768 167.288 129.56 167.784 129.144C168.28 128.712 168.528 128.088 168.528 127.272C168.528 126.44 168.28 125.816 167.784 125.4C167.288 124.984 166.544 124.776 165.552 124.776H162.72V129.768H165.552ZM181.427 130.344C181.427 129.656 181.227 129.12 180.827 128.736C180.443 128.352 179.931 128.16 179.291 128.16C178.699 128.16 178.179 128.312 177.731 128.616C177.283 128.92 176.955 129.424 176.747 130.128L173.939 129.264C174.211 128.208 174.803 127.36 175.715 126.72C176.643 126.08 177.883 125.76 179.435 125.76C180.491 125.76 181.411 125.928 182.195 126.264C182.979 126.584 183.587 127.072 184.019 127.728C184.467 128.384 184.691 129.208 184.691 130.2V135.072C184.691 135.68 184.979 135.984 185.555 135.984C185.827 135.984 186.083 135.944 186.323 135.864L186.131 137.904C185.715 138.112 185.195 138.216 184.571 138.216C184.011 138.216 183.507 138.12 183.059 137.928C182.611 137.736 182.259 137.448 182.003 137.064C181.747 136.664 181.619 136.168 181.619 135.576V135.48L182.195 135.384C182.099 135.992 181.835 136.512 181.403 136.944C180.971 137.36 180.443 137.68 179.819 137.904C179.211 138.128 178.579 138.24 177.923 138.24C177.107 138.24 176.403 138.12 175.811 137.88C175.219 137.624 174.763 137.256 174.443 136.776C174.123 136.296 173.963 135.704 173.963 135C173.963 134.104 174.251 133.376 174.827 132.816C175.403 132.24 176.227 131.848 177.299 131.64L181.811 130.728L181.787 132.768L178.907 133.344C178.363 133.456 177.947 133.608 177.659 133.8C177.387 133.976 177.251 134.272 177.251 134.688C177.251 135.088 177.395 135.392 177.683 135.6C177.987 135.808 178.347 135.912 178.763 135.912C179.099 135.912 179.427 135.872 179.747 135.792C180.067 135.712 180.355 135.584 180.611 135.408C180.867 135.232 181.067 134.992 181.211 134.688C181.355 134.384 181.427 134.016 181.427 133.584V130.344ZM198.899 126L194.051 138.744C193.667 139.832 193.235 140.696 192.755 141.336C192.291 141.976 191.747 142.44 191.123 142.728C190.515 143.016 189.787 143.16 188.939 143.16C188.315 143.16 187.739 143.08 187.211 142.92C186.699 142.776 186.251 142.584 185.867 142.344L186.563 139.968C186.867 140.208 187.187 140.376 187.523 140.472C187.859 140.584 188.243 140.64 188.675 140.64C189.123 140.64 189.507 140.544 189.827 140.352C190.163 140.16 190.443 139.776 190.667 139.2L191.075 138.168L189.755 135.048L186.083 126H189.731L192.011 133.2L192.635 135.6L193.379 133.056L195.563 126H198.899ZM200.72 138V126H203.672L203.792 128.16C204.192 127.36 204.736 126.76 205.424 126.36C206.128 125.96 206.904 125.76 207.752 125.76C208.616 125.76 209.392 125.96 210.08 126.36C210.784 126.76 211.312 127.352 211.664 128.136C211.92 127.608 212.264 127.168 212.696 126.816C213.128 126.464 213.608 126.2 214.136 126.024C214.664 125.848 215.2 125.76 215.744 125.76C216.528 125.76 217.24 125.92 217.88 126.24C218.536 126.56 219.056 127.04 219.44 127.68C219.824 128.32 220.016 129.136 220.016 130.128V138H216.728V130.776C216.728 129.896 216.536 129.272 216.152 128.904C215.768 128.536 215.272 128.352 214.664 128.352C214.184 128.352 213.736 128.472 213.32 128.712C212.92 128.952 212.6 129.312 212.36 129.792C212.136 130.256 212.024 130.84 212.024 131.544V138H208.736V130.776C208.736 129.896 208.536 129.272 208.136 128.904C207.752 128.536 207.256 128.352 206.648 128.352C206.232 128.352 205.816 128.464 205.4 128.688C205 128.912 204.664 129.264 204.392 129.744C204.136 130.224 204.008 130.856 204.008 131.64V138H200.72ZM228.976 138.24C227.712 138.24 226.608 137.992 225.664 137.496C224.736 137 224.016 136.288 223.504 135.36C222.992 134.432 222.736 133.312 222.736 132C222.736 130.688 222.992 129.568 223.504 128.64C224.016 127.712 224.728 127 225.64 126.504C226.568 126.008 227.624 125.76 228.808 125.76C230.024 125.76 231.056 126.008 231.904 126.504C232.752 126.984 233.4 127.648 233.848 128.496C234.296 129.328 234.52 130.28 234.52 131.352C234.52 131.672 234.512 131.976 234.496 132.264C234.48 132.552 234.456 132.808 234.424 133.032H224.848V130.752H232.984L231.4 131.328C231.4 130.32 231.168 129.544 230.704 129C230.256 128.456 229.616 128.184 228.784 128.184C228.176 128.184 227.648 128.328 227.2 128.616C226.768 128.904 226.44 129.336 226.216 129.912C225.992 130.472 225.88 131.184 225.88 132.048C225.88 132.896 226 133.6 226.24 134.16C226.496 134.704 226.848 135.112 227.296 135.384C227.76 135.656 228.312 135.792 228.952 135.792C229.656 135.792 230.224 135.656 230.656 135.384C231.088 135.112 231.424 134.736 231.664 134.256L234.28 135.264C234.024 135.888 233.632 136.424 233.104 136.872C232.592 137.32 231.976 137.664 231.256 137.904C230.552 138.128 229.792 138.24 228.976 138.24ZM237.306 138V126H240.258L240.45 129.6L240.042 129.216C240.234 128.432 240.538 127.784 240.954 127.272C241.37 126.76 241.874 126.384 242.466 126.144C243.074 125.888 243.738 125.76 244.458 125.76C245.29 125.76 246.026 125.92 246.666 126.24C247.322 126.56 247.834 127.048 248.202 127.704C248.586 128.344 248.778 129.152 248.778 130.128V138H245.49V131.064C245.49 130.04 245.29 129.336 244.89 128.952C244.49 128.552 243.97 128.352 243.33 128.352C242.882 128.352 242.442 128.464 242.01 128.688C241.594 128.896 241.25 129.24 240.978 129.72C240.722 130.2 240.594 130.84 240.594 131.64V138H237.306ZM256.32 122.328V134.088C256.32 134.664 256.464 135.088 256.752 135.36C257.056 135.616 257.464 135.744 257.976 135.744C258.376 135.744 258.728 135.688 259.032 135.576C259.336 135.448 259.608 135.28 259.848 135.072L260.376 137.256C259.992 137.56 259.512 137.8 258.936 137.976C258.36 138.152 257.752 138.24 257.112 138.24C256.312 138.24 255.6 138.12 254.976 137.88C254.368 137.64 253.888 137.256 253.536 136.728C253.2 136.2 253.032 135.496 253.032 134.616V123.24L256.32 122.328ZM260.16 126V128.448H250.824V126H260.16Z" fill="#4338CA"/>
<path d="M180.295 148.28C181.255 148.28 182.097 148.445 182.823 148.776C183.548 149.107 184.167 149.597 184.679 150.248L183.447 151.672C183.009 151.117 182.529 150.712 182.007 150.456C181.495 150.189 180.897 150.056 180.215 150.056C179.767 150.056 179.393 150.115 179.095 150.232C178.807 150.349 178.593 150.504 178.455 150.696C178.327 150.888 178.263 151.101 178.263 151.336C178.263 151.624 178.375 151.869 178.599 152.072C178.823 152.264 179.207 152.424 179.751 152.552L181.719 153C182.764 153.235 183.511 153.587 183.959 154.056C184.417 154.515 184.647 155.112 184.647 155.848C184.647 156.541 184.465 157.139 184.102 157.64C183.74 158.131 183.233 158.509 182.583 158.776C181.932 159.032 181.185 159.16 180.343 159.16C179.607 159.16 178.929 159.075 178.311 158.904C177.703 158.723 177.159 158.477 176.679 158.168C176.199 157.859 175.799 157.501 175.479 157.096L176.727 155.608C176.972 155.949 177.276 156.253 177.639 156.52C178.001 156.787 178.412 157 178.871 157.16C179.34 157.309 179.831 157.384 180.343 157.384C180.78 157.384 181.148 157.336 181.447 157.24C181.756 157.133 181.985 156.989 182.135 156.808C182.295 156.616 182.375 156.387 182.375 156.12C182.375 155.843 182.279 155.608 182.087 155.416C181.905 155.213 181.564 155.059 181.063 154.952L178.919 154.472C178.3 154.323 177.767 154.131 177.319 153.896C176.881 153.651 176.545 153.341 176.311 152.968C176.087 152.584 175.975 152.131 175.975 151.608C175.975 150.979 176.145 150.413 176.487 149.912C176.828 149.411 177.319 149.016 177.959 148.728C178.609 148.429 179.388 148.28 180.295 148.28ZM186.735 159V148.44H194.655V150.216H188.943V152.84H193.439V154.536H188.943V157.224H194.879V159H186.735ZM201.516 148.44C202.711 148.44 203.65 148.728 204.332 149.304C205.015 149.88 205.356 150.653 205.356 151.624C205.356 152.659 205.015 153.453 204.332 154.008C203.65 154.552 202.716 154.824 201.532 154.824L201.308 154.952H199.036V159H196.86V148.44H201.516ZM201.26 153.272C201.879 153.272 202.338 153.149 202.636 152.904C202.946 152.648 203.1 152.259 203.1 151.736C203.1 151.213 202.946 150.829 202.636 150.584C202.338 150.328 201.879 150.2 201.26 150.2H199.036V153.272H201.26ZM202.556 153.736L205.98 159H203.5L200.668 154.376L202.556 153.736ZM216.715 148.44L212.875 159H210.299L206.443 148.44H208.779L211.003 155.16L211.611 157.24L212.203 155.176L214.443 148.44H216.715ZM220.522 148.44V159H218.314V148.44H220.522ZM232.307 156.088C232.104 156.771 231.784 157.341 231.347 157.8C230.909 158.259 230.392 158.6 229.795 158.824C229.197 159.048 228.541 159.16 227.827 159.16C226.781 159.16 225.875 158.941 225.107 158.504C224.349 158.067 223.763 157.443 223.347 156.632C222.941 155.821 222.739 154.851 222.739 153.72C222.739 152.589 222.941 151.619 223.347 150.808C223.763 149.997 224.349 149.373 225.107 148.936C225.875 148.499 226.771 148.28 227.795 148.28C228.52 148.28 229.176 148.381 229.763 148.584C230.349 148.776 230.845 149.075 231.251 149.48C231.667 149.885 231.971 150.397 232.163 151.016L230.163 151.864C229.981 151.224 229.704 150.771 229.331 150.504C228.957 150.227 228.477 150.088 227.891 150.088C227.315 150.088 226.808 150.227 226.371 150.504C225.944 150.781 225.613 151.192 225.379 151.736C225.144 152.269 225.027 152.931 225.027 153.72C225.027 154.499 225.133 155.16 225.347 155.704C225.571 156.248 225.896 156.659 226.323 156.936C226.749 157.213 227.272 157.352 227.891 157.352C228.467 157.352 228.963 157.197 229.379 156.888C229.805 156.579 230.104 156.109 230.275 155.48L232.307 156.088ZM234.189 159V148.44H242.109V150.216H236.397V152.84H240.892V154.536H236.397V157.224H242.333V159H234.189Z" fill="#57534E"/>
<rect x="124.75" y="100.75" width="168.5" height="78.5" rx="9.25" stroke="#4F46E5" stroke-width="1.5"/>
<rect x="394.75" y="100.75" width="168.5" height="78.5" rx="9.25" fill="#EEF2FF"/>
<path d="M428.653 122.16V138H425.341V122.16H428.653ZM432.365 138V126H435.317L435.509 129.6L435.101 129.216C435.293 128.432 435.597 127.784 436.013 127.272C436.429 126.76 436.933 126.384 437.525 126.144C438.133 125.888 438.797 125.76 439.517 125.76C440.349 125.76 441.085 125.92 441.725 126.24C442.381 126.56 442.893 127.048 443.261 127.704C443.645 128.344 443.837 129.152 443.837 130.128V138H440.549V131.064C440.549 130.04 440.349 129.336 439.949 128.952C439.549 128.552 439.029 128.352 438.389 128.352C437.941 128.352 437.501 128.464 437.069 128.688C436.653 128.896 436.309 129.24 436.037 129.72C435.781 130.2 435.653 130.84 435.653 131.64V138H432.365ZM454.791 126H458.199L453.639 138H449.847L445.287 126H448.791L451.767 135.48L454.791 126ZM465.448 138.24C464.184 138.24 463.08 137.992 462.136 137.496C461.208 137 460.488 136.288 459.976 135.36C459.464 134.432 459.208 133.312 459.208 132C459.208 130.688 459.464 129.568 459.976 128.64C460.488 127.712 461.2 127 462.112 126.504C463.04 126.008 464.096 125.76 465.28 125.76C466.496 125.76 467.528 126.008 468.376 126.504C469.224 126.984 469.872 127.648 470.32 128.496C470.768 129.328 470.992 130.28 470.992 131.352C470.992 131.672 470.984 131.976 470.968 132.264C470.952 132.552 470.928 132.808 470.896 133.032H461.32V130.752H469.456L467.872 131.328C467.872 130.32 467.64 129.544 467.176 129C466.728 128.456 466.088 128.184 465.256 128.184C464.648 128.184 464.12 128.328 463.672 128.616C463.24 128.904 462.912 129.336 462.688 129.912C462.464 130.472 462.352 131.184 462.352 132.048C462.352 132.896 462.472 133.6 462.712 134.16C462.968 134.704 463.32 135.112 463.768 135.384C464.232 135.656 464.784 135.792 465.424 135.792C466.128 135.792 466.696 135.656 467.128 135.384C467.56 135.112 467.896 134.736 468.136 134.256L470.752 135.264C470.496 135.888 470.104 136.424 469.576 136.872C469.064 137.32 468.448 137.664 467.728 137.904C467.024 138.128 466.264 138.24 465.448 138.24ZM473.779 138V126H476.731L476.923 129.6L476.515 129.216C476.707 128.432 477.011 127.784 477.427 127.272C477.843 126.76 478.347 126.384 478.939 126.144C479.547 125.888 480.211 125.76 480.931 125.76C481.763 125.76 482.499 125.92 483.139 126.24C483.795 126.56 484.307 127.048 484.675 127.704C485.059 128.344 485.251 129.152 485.251 130.128V138H481.963V131.064C481.963 130.04 481.763 129.336 481.363 128.952C480.963 128.552 480.443 128.352 479.803 128.352C479.355 128.352 478.915 128.464 478.483 128.688C478.067 128.896 477.723 129.24 477.451 129.72C477.195 130.2 477.067 130.84 477.067 131.64V138H473.779ZM492.792 122.328V134.088C492.792 134.664 492.936 135.088 493.224 135.36C493.528 135.616 493.936 135.744 494.448 135.744C494.848 135.744 495.2 135.688 495.504 135.576C495.808 135.448 496.08 135.28 496.32 135.072L496.848 137.256C496.464 137.56 495.984 137.8 495.408 137.976C494.832 138.152 494.224 138.24 493.584 138.24C492.784 138.24 492.072 138.12 491.448 137.88C490.84 137.64 490.36 137.256 490.008 136.728C489.672 136.2 489.504 135.496 489.504 134.616V123.24L492.792 122.328ZM496.632 126V128.448H487.296V126H496.632ZM504.329 125.76C505.545 125.76 506.609 126.008 507.521 126.504C508.449 127 509.169 127.712 509.681 128.64C510.209 129.568 510.473 130.688 510.473 132C510.473 133.296 510.209 134.416 509.681 135.36C509.169 136.288 508.449 137 507.521 137.496C506.609 137.992 505.545 138.24 504.329 138.24C503.129 138.24 502.065 137.992 501.137 137.496C500.209 137 499.481 136.288 498.953 135.36C498.441 134.416 498.185 133.296 498.185 132C498.185 130.688 498.441 129.568 498.953 128.64C499.481 127.712 500.209 127 501.137 126.504C502.065 126.008 503.129 125.76 504.329 125.76ZM504.329 128.208C503.721 128.208 503.201 128.352 502.769 128.64C502.353 128.912 502.033 129.328 501.809 129.888C501.585 130.448 501.473 131.152 501.473 132C501.473 132.848 501.585 133.552 501.809 134.112C502.033 134.672 502.353 135.096 502.769 135.384C503.201 135.656 503.721 135.792 504.329 135.792C504.921 135.792 505.425 135.656 505.841 135.384C506.273 135.096 506.601 134.672 506.825 134.112C507.049 133.552 507.161 132.848 507.161 132C507.161 131.152 507.049 130.448 506.825 129.888C506.601 129.328 506.273 128.912 505.841 128.64C505.425 128.352 504.921 128.208 504.329 128.208ZM513.224 138V126H516.08L516.296 128.352C516.616 127.52 517.08 126.88 517.688 126.432C518.312 125.984 519.088 125.76 520.016 125.76C520.288 125.76 520.536 125.784 520.76 125.832C520.984 125.88 521.168 125.944 521.312 126.024L520.928 128.784C520.768 128.72 520.568 128.672 520.328 128.64C520.104 128.608 519.808 128.592 519.44 128.592C518.96 128.592 518.496 128.712 518.048 128.952C517.6 129.176 517.232 129.528 516.944 130.008C516.656 130.472 516.512 131.064 516.512 131.784V138H513.224ZM534.629 126L529.781 138.744C529.397 139.832 528.965 140.696 528.485 141.336C528.021 141.976 527.477 142.44 526.853 142.728C526.245 143.016 525.517 143.16 524.669 143.16C524.045 143.16 523.469 143.08 522.941 142.92C522.429 142.776 521.981 142.584 521.597 142.344L522.293 139.968C522.597 140.208 522.917 140.376 523.253 140.472C523.589 140.584 523.973 140.64 524.405 140.64C524.853 140.64 525.237 140.544 525.557 140.352C525.893 140.16 526.173 139.776 526.397 139.2L526.805 138.168L525.485 135.048L521.813 126H525.461L527.741 133.2L528.365 135.6L529.109 133.056L531.293 126H534.629Z" fill="#4338CA"/>
<path d="M450.295 148.28C451.255 148.28 452.097 148.445 452.823 148.776C453.548 149.107 454.167 149.597 454.679 150.248L453.447 151.672C453.009 151.117 452.529 150.712 452.007 150.456C451.495 150.189 450.897 150.056 450.215 150.056C449.767 150.056 449.393 150.115 449.095 150.232C448.807 150.349 448.593 150.504 448.455 150.696C448.327 150.888 448.263 151.101 448.263 151.336C448.263 151.624 448.375 151.869 448.599 152.072C448.823 152.264 449.207 152.424 449.751 152.552L451.719 153C452.764 153.235 453.511 153.587 453.959 154.056C454.417 154.515 454.647 155.112 454.647 155.848C454.647 156.541 454.465 157.139 454.102 157.64C453.74 158.131 453.233 158.509 452.583 158.776C451.932 159.032 451.185 159.16 450.343 159.16C449.607 159.16 448.929 159.075 448.311 158.904C447.703 158.723 447.159 158.477 446.679 158.168C446.199 157.859 445.799 157.501 445.479 157.096L446.727 155.608C446.972 155.949 447.276 156.253 447.639 156.52C448.001 156.787 448.412 157 448.871 157.16C449.34 157.309 449.831 157.384 450.343 157.384C450.78 157.384 451.148 157.336 451.447 157.24C451.756 157.133 451.985 156.989 452.135 156.808C452.295 156.616 452.375 156.387 452.375 156.12C452.375 155.843 452.279 155.608 452.087 155.416C451.905 155.213 451.564 155.059 451.063 154.952L448.919 154.472C448.3 154.323 447.767 154.131 447.319 153.896C446.881 153.651 446.545 153.341 446.311 152.968C446.087 152.584 445.975 152.131 445.975 151.608C445.975 150.979 446.145 150.413 446.487 149.912C446.828 149.411 447.319 149.016 447.959 148.728C448.609 148.429 449.388 148.28 450.295 148.28ZM456.735 159V148.44H464.655V150.216H458.943V152.84H463.439V154.536H458.943V157.224H464.879V159H456.735ZM471.516 148.44C472.711 148.44 473.65 148.728 474.332 149.304C475.015 149.88 475.356 150.653 475.356 151.624C475.356 152.659 475.015 153.453 474.332 154.008C473.65 154.552 472.716 154.824 471.532 154.824L471.308 154.952H469.036V159H466.86V148.44H471.516ZM471.26 153.272C471.879 153.272 472.338 153.149 472.636 152.904C472.946 152.648 473.1 152.259 473.1 151.736C473.1 151.213 472.946 150.829 472.636 150.584C472.338 150.328 471.879 150.2 471.26 150.2H469.036V153.272H471.26ZM472.556 153.736L475.98 159H473.5L470.668 154.376L472.556 153.736ZM486.715 148.44L482.875 159H480.299L476.443 148.44H478.779L481.003 155.16L481.611 157.24L482.203 155.176L484.443 148.44H486.715ZM490.522 148.44V159H488.314V148.44H490.522ZM502.307 156.088C502.104 156.771 501.784 157.341 501.347 157.8C500.909 158.259 500.392 158.6 499.795 158.824C499.197 159.048 498.541 159.16 497.827 159.16C496.781 159.16 495.875 158.941 495.107 158.504C494.349 158.067 493.763 157.443 493.347 156.632C492.941 155.821 492.739 154.851 492.739 153.72C492.739 152.589 492.941 151.619 493.347 150.808C493.763 149.997 494.349 149.373 495.107 148.936C495.875 148.499 496.771 148.28 497.795 148.28C498.52 148.28 499.176 148.381 499.763 148.584C500.349 148.776 500.845 149.075 501.251 149.48C501.667 149.885 501.971 150.397 502.163 151.016L500.163 151.864C499.981 151.224 499.704 150.771 499.331 150.504C498.957 150.227 498.477 150.088 497.891 150.088C497.315 150.088 496.808 150.227 496.371 150.504C495.944 150.781 495.613 151.192 495.379 151.736C495.144 152.269 495.027 152.931 495.027 153.72C495.027 154.499 495.133 155.16 495.347 155.704C495.571 156.248 495.896 156.659 496.323 156.936C496.749 157.213 497.272 157.352 497.891 157.352C498.467 157.352 498.963 157.197 499.379 156.888C499.805 156.579 500.104 156.109 500.275 155.48L502.307 156.088ZM504.189 159V148.44H512.109V150.216H506.397V152.84H510.892V154.536H506.397V157.224H512.333V159H504.189Z" fill="#57534E"/>
<rect x="394.75" y="100.75" width="168.5" height="78.5" rx="9.25" stroke="#4F46E5" stroke-width="1.5"/>
<rect x="664.75" y="100.75" width="168.5" height="78.5" rx="9.25" fill="#EEF2FF"/>
<path d="M695.332 122.16V138H691.54L685.996 128.688L684.628 126.096H684.604L684.7 128.832V138H681.724V122.16H685.492L691.036 131.448L692.404 134.064H692.452L692.356 131.328V122.16H695.332ZM704.485 125.76C705.701 125.76 706.765 126.008 707.677 126.504C708.605 127 709.325 127.712 709.837 128.64C710.365 129.568 710.629 130.688 710.629 132C710.629 133.296 710.365 134.416 709.837 135.36C709.325 136.288 708.605 137 707.677 137.496C706.765 137.992 705.701 138.24 704.485 138.24C703.285 138.24 702.221 137.992 701.293 137.496C700.365 137 699.637 136.288 699.109 135.36C698.597 134.416 698.341 133.296 698.341 132C698.341 130.688 698.597 129.568 699.109 128.64C699.637 127.712 700.365 127 701.293 126.504C702.221 126.008 703.285 125.76 704.485 125.76ZM704.485 128.208C703.877 128.208 703.357 128.352 702.925 128.64C702.509 128.912 702.189 129.328 701.965 129.888C701.741 130.448 701.629 131.152 701.629 132C701.629 132.848 701.741 133.552 701.965 134.112C702.189 134.672 702.509 135.096 702.925 135.384C703.357 135.656 703.877 135.792 704.485 135.792C705.077 135.792 705.581 135.656 705.997 135.384C706.429 135.096 706.757 134.672 706.981 134.112C707.205 133.552 707.317 132.848 707.317 132C707.317 131.152 707.205 130.448 706.981 129.888C706.757 129.328 706.429 128.912 705.997 128.64C705.581 128.352 705.077 128.208 704.485 128.208ZM717.511 122.328V134.088C717.511 134.664 717.655 135.088 717.943 135.36C718.247 135.616 718.655 135.744 719.167 135.744C719.567 135.744 719.919 135.688 720.223 135.576C720.527 135.448 720.799 135.28 721.039 135.072L721.567 137.256C721.183 137.56 720.703 137.8 720.127 137.976C719.551 138.152 718.943 138.24 718.303 138.24C717.503 138.24 716.791 138.12 716.167 137.88C715.559 137.64 715.079 137.256 714.727 136.728C714.391 136.2 714.223 135.496 714.223 134.616V123.24L717.511 122.328ZM721.351 126V128.448H712.015V126H721.351ZM725.232 124.272C724.544 124.272 724.032 124.128 723.696 123.84C723.36 123.536 723.192 123.096 723.192 122.52C723.192 121.928 723.36 121.488 723.696 121.2C724.032 120.896 724.544 120.744 725.232 120.744C725.92 120.744 726.432 120.896 726.768 121.2C727.104 121.488 727.272 121.928 727.272 122.52C727.272 123.096 727.104 123.536 726.768 123.84C726.432 124.128 725.92 124.272 725.232 124.272ZM726.864 126V138H723.576V126H726.864ZM735.701 120.504C736.261 120.504 736.765 120.568 737.213 120.696C737.677 120.808 738.021 120.952 738.245 121.128L737.789 123.312C737.613 123.2 737.413 123.112 737.189 123.048C736.965 122.984 736.701 122.952 736.397 122.952C735.773 122.952 735.277 123.096 734.909 123.384C734.541 123.656 734.357 124.128 734.357 124.8V126.456L734.501 127.104V138H731.213V124.56C731.213 123.888 731.325 123.296 731.549 122.784C731.773 122.272 732.085 121.848 732.485 121.512C732.885 121.176 733.357 120.928 733.901 120.768C734.461 120.592 735.061 120.504 735.701 120.504ZM738.149 126V128.448H729.125V126H738.149ZM741.773 124.272C741.085 124.272 740.573 124.128 740.237 123.84C739.901 123.536 739.733 123.096 739.733 122.52C739.733 121.928 739.901 121.488 740.237 121.2C740.573 120.896 741.085 120.744 741.773 120.744C742.461 120.744 742.973 120.896 743.309 121.2C743.645 121.488 743.813 121.928 743.813 122.52C743.813 123.096 743.645 123.536 743.309 123.84C742.973 124.128 742.461 124.272 741.773 124.272ZM743.405 126V138H740.117V126H743.405ZM752.344 125.76C753.416 125.76 754.32 125.92 755.056 126.24C755.808 126.544 756.408 126.968 756.856 127.512C757.32 128.04 757.648 128.632 757.84 129.288L754.768 130.392C754.608 129.672 754.336 129.128 753.952 128.76C753.568 128.392 753.048 128.208 752.392 128.208C751.784 128.208 751.264 128.352 750.832 128.64C750.4 128.912 750.072 129.336 749.848 129.912C749.624 130.472 749.512 131.176 749.512 132.024C749.512 132.872 749.624 133.576 749.848 134.136C750.088 134.696 750.424 135.112 750.856 135.384C751.304 135.656 751.824 135.792 752.416 135.792C752.896 135.792 753.304 135.712 753.64 135.552C753.976 135.376 754.248 135.128 754.456 134.808C754.68 134.488 754.832 134.104 754.912 133.656L757.888 134.616C757.712 135.336 757.384 135.968 756.904 136.512C756.424 137.056 755.808 137.48 755.056 137.784C754.304 138.088 753.432 138.24 752.44 138.24C751.208 138.24 750.12 137.992 749.176 137.496C748.232 137 747.504 136.288 746.992 135.36C746.48 134.432 746.224 133.312 746.224 132C746.224 130.688 746.48 129.568 746.992 128.64C747.504 127.712 748.224 127 749.152 126.504C750.08 126.008 751.144 125.76 752.344 125.76ZM767.283 130.344C767.283 129.656 767.083 129.12 766.683 128.736C766.299 128.352 765.787 128.16 765.147 128.16C764.555 128.16 764.035 128.312 763.587 128.616C763.139 128.92 762.811 129.424 762.603 130.128L759.795 129.264C760.067 128.208 760.659 127.36 761.571 126.72C762.499 126.08 763.739 125.76 765.291 125.76C766.347 125.76 767.267 125.928 768.051 126.264C768.835 126.584 769.443 127.072 769.875 127.728C770.323 128.384 770.547 129.208 770.547 130.2V135.072C770.547 135.68 770.835 135.984 771.411 135.984C771.683 135.984 771.939 135.944 772.179 135.864L771.987 137.904C771.571 138.112 771.051 138.216 770.427 138.216C769.867 138.216 769.363 138.12 768.915 137.928C768.467 137.736 768.115 137.448 767.859 137.064C767.603 136.664 767.475 136.168 767.475 135.576V135.48L768.051 135.384C767.955 135.992 767.691 136.512 767.259 136.944C766.827 137.36 766.299 137.68 765.675 137.904C765.067 138.128 764.435 138.24 763.779 138.24C762.963 138.24 762.259 138.12 761.667 137.88C761.075 137.624 760.619 137.256 760.299 136.776C759.979 136.296 759.819 135.704 759.819 135C759.819 134.104 760.107 133.376 760.683 132.816C761.259 132.24 762.083 131.848 763.155 131.64L767.667 130.728L767.643 132.768L764.763 133.344C764.219 133.456 763.803 133.608 763.515 133.8C763.243 133.976 763.107 134.272 763.107 134.688C763.107 135.088 763.251 135.392 763.539 135.6C763.843 135.808 764.203 135.912 764.619 135.912C764.955 135.912 765.283 135.872 765.603 135.792C765.923 135.712 766.211 135.584 766.467 135.408C766.723 135.232 766.923 134.992 767.067 134.688C767.211 134.384 767.283 134.016 767.283 133.584V130.344ZM778.003 122.328V134.088C778.003 134.664 778.147 135.088 778.435 135.36C778.739 135.616 779.147 135.744 779.659 135.744C780.059 135.744 780.411 135.688 780.715 135.576C781.019 135.448 781.291 135.28 781.531 135.072L782.059 137.256C781.675 137.56 781.195 137.8 780.619 137.976C780.043 138.152 779.435 138.24 778.795 138.24C777.995 138.24 777.283 138.12 776.659 137.88C776.051 137.64 775.571 137.256 775.219 136.728C774.883 136.2 774.715 135.496 774.715 134.616V123.24L778.003 122.328ZM781.843 126V128.448H772.507V126H781.843ZM785.724 124.272C785.036 124.272 784.524 124.128 784.188 123.84C783.852 123.536 783.684 123.096 783.684 122.52C783.684 121.928 783.852 121.488 784.188 121.2C784.524 120.896 785.036 120.744 785.724 120.744C786.412 120.744 786.924 120.896 787.26 121.2C787.596 121.488 787.764 121.928 787.764 122.52C787.764 123.096 787.596 123.536 787.26 123.84C786.924 124.128 786.412 124.272 785.724 124.272ZM787.356 126V138H784.068V126H787.356ZM796.313 125.76C797.529 125.76 798.593 126.008 799.505 126.504C800.433 127 801.153 127.712 801.665 128.64C802.193 129.568 802.457 130.688 802.457 132C802.457 133.296 802.193 134.416 801.665 135.36C801.153 136.288 800.433 137 799.505 137.496C798.593 137.992 797.529 138.24 796.313 138.24C795.113 138.24 794.049 137.992 793.121 137.496C792.193 137 791.465 136.288 790.937 135.36C790.425 134.416 790.169 133.296 790.169 132C790.169 130.688 790.425 129.568 790.937 128.64C791.465 127.712 792.193 127 793.121 126.504C794.049 126.008 795.113 125.76 796.313 125.76ZM796.313 128.208C795.705 128.208 795.185 128.352 794.753 128.64C794.337 128.912 794.017 129.328 793.793 129.888C793.569 130.448 793.457 131.152 793.457 132C793.457 132.848 793.569 133.552 793.793 134.112C794.017 134.672 794.337 135.096 794.753 135.384C795.185 135.656 795.705 135.792 796.313 135.792C796.905 135.792 797.409 135.656 797.825 135.384C798.257 135.096 798.585 134.672 798.809 134.112C799.033 133.552 799.145 132.848 799.145 132C799.145 131.152 799.033 130.448 798.809 129.888C798.585 129.328 798.257 128.912 797.825 128.64C797.409 128.352 796.905 128.208 796.313 128.208ZM805.208 138V126H808.16L808.352 129.6L807.944 129.216C808.136 128.432 808.44 127.784 808.856 127.272C809.272 126.76 809.776 126.384 810.368 126.144C810.976 125.888 811.64 125.76 812.36 125.76C813.192 125.76 813.928 125.92 814.568 126.24C815.224 126.56 815.736 127.048 816.104 127.704C816.488 128.344 816.68 129.152 816.68 130.128V138H813.392V131.064C813.392 130.04 813.192 129.336 812.792 128.952C812.392 128.552 811.872 128.352 811.232 128.352C810.784 128.352 810.344 128.464 809.912 128.688C809.496 128.896 809.152 129.24 808.88 129.72C808.624 130.2 808.496 130.84 808.496 131.64V138H805.208Z" fill="#4338CA"/>
<path d="M720.295 148.28C721.255 148.28 722.097 148.445 722.823 148.776C723.548 149.107 724.167 149.597 724.679 150.248L723.447 151.672C723.009 151.117 722.529 150.712 722.007 150.456C721.495 150.189 720.897 150.056 720.215 150.056C719.767 150.056 719.393 150.115 719.095 150.232C718.807 150.349 718.593 150.504 718.455 150.696C718.327 150.888 718.263 151.101 718.263 151.336C718.263 151.624 718.375 151.869 718.599 152.072C718.823 152.264 719.207 152.424 719.751 152.552L721.719 153C722.764 153.235 723.511 153.587 723.959 154.056C724.417 154.515 724.647 155.112 724.647 155.848C724.647 156.541 724.465 157.139 724.102 157.64C723.74 158.131 723.233 158.509 722.583 158.776C721.932 159.032 721.185 159.16 720.343 159.16C719.607 159.16 718.929 159.075 718.311 158.904C717.703 158.723 717.159 158.477 716.679 158.168C716.199 157.859 715.799 157.501 715.479 157.096L716.727 155.608C716.972 155.949 717.276 156.253 717.639 156.52C718.001 156.787 718.412 157 718.871 157.16C719.34 157.309 719.831 157.384 720.343 157.384C720.78 157.384 721.148 157.336 721.447 157.24C721.756 157.133 721.985 156.989 722.135 156.808C722.295 156.616 722.375 156.387 722.375 156.12C722.375 155.843 722.279 155.608 722.087 155.416C721.905 155.213 721.564 155.059 721.063 154.952L718.919 154.472C718.3 154.323 717.767 154.131 717.319 153.896C716.881 153.651 716.545 153.341 716.311 152.968C716.087 152.584 715.975 152.131 715.975 151.608C715.975 150.979 716.145 150.413 716.487 149.912C716.828 149.411 717.319 149.016 717.959 148.728C718.609 148.429 719.388 148.28 720.295 148.28ZM726.735 159V148.44H734.655V150.216H728.943V152.84H733.439V154.536H728.943V157.224H734.879V159H726.735ZM741.516 148.44C742.711 148.44 743.65 148.728 744.332 149.304C745.015 149.88 745.356 150.653 745.356 151.624C745.356 152.659 745.015 153.453 744.332 154.008C743.65 154.552 742.716 154.824 741.532 154.824L741.308 154.952H739.036V159H736.86V148.44H741.516ZM741.26 153.272C741.879 153.272 742.338 153.149 742.636 152.904C742.946 152.648 743.1 152.259 743.1 151.736C743.1 151.213 742.946 150.829 742.636 150.584C742.338 150.328 741.879 150.2 741.26 150.2H739.036V153.272H741.26ZM742.556 153.736L745.98 159H743.5L740.668 154.376L742.556 153.736ZM756.715 148.44L752.875 159H750.299L746.443 148.44H748.779L751.003 155.16L751.611 157.24L752.203 155.176L754.443 148.44H756.715ZM760.522 148.44V159H758.314V148.44H760.522ZM772.307 156.088C772.104 156.771 771.784 157.341 771.347 157.8C770.909 158.259 770.392 158.6 769.795 158.824C769.197 159.048 768.541 159.16 767.827 159.16C766.781 159.16 765.875 158.941 765.107 158.504C764.349 158.067 763.763 157.443 763.347 156.632C762.941 155.821 762.739 154.851 762.739 153.72C762.739 152.589 762.941 151.619 763.347 150.808C763.763 149.997 764.349 149.373 765.107 148.936C765.875 148.499 766.771 148.28 767.795 148.28C768.52 148.28 769.176 148.381 769.763 148.584C770.349 148.776 770.845 149.075 771.251 149.48C771.667 149.885 771.971 150.397 772.163 151.016L770.163 151.864C769.981 151.224 769.704 150.771 769.331 150.504C768.957 150.227 768.477 150.088 767.891 150.088C767.315 150.088 766.808 150.227 766.371 150.504C765.944 150.781 765.613 151.192 765.379 151.736C765.144 152.269 765.027 152.931 765.027 153.72C765.027 154.499 765.133 155.16 765.347 155.704C765.571 156.248 765.896 156.659 766.323 156.936C766.749 157.213 767.272 157.352 767.891 157.352C768.467 157.352 768.963 157.197 769.379 156.888C769.805 156.579 770.104 156.109 770.275 155.48L772.307 156.088ZM774.189 159V148.44H782.109V150.216H776.397V152.84H780.892V154.536H776.397V157.224H782.333V159H774.189Z" fill="#57534E"/>
<rect x="664.75" y="100.75" width="168.5" height="78.5" rx="9.25" stroke="#4F46E5" stroke-width="1.5"/>
<path d="M180.556 326.83C180.738 327.351 181.308 327.626 181.83 327.444C182.351 327.262 182.626 326.692 182.444 326.17L180.556 326.83ZM186.919 184.606C186.702 184.098 186.114 183.863 185.606 184.081L177.334 187.626C176.826 187.844 176.591 188.432 176.809 188.939C177.026 189.447 177.614 189.682 178.122 189.464L185.475 186.313L188.626 193.666C188.844 194.174 189.432 194.409 189.939 194.191C190.447 193.974 190.682 193.386 190.464 192.878L186.919 184.606ZM182.444 326.17C160.553 263.483 172.978 220.247 186.929 185.371L185.072 184.629C171.022 219.753 158.447 263.517 180.556 326.83L182.444 326.17Z" fill="#4F46E5"/>
<path d="M348.019 334.123C347.535 334.389 347.358 334.997 347.623 335.481C347.889 335.965 348.497 336.142 348.981 335.877L348.019 334.123ZM453.835 183.449C453.53 182.988 452.91 182.861 452.449 183.165L444.938 188.124C444.477 188.428 444.35 189.048 444.654 189.509C444.959 189.97 445.579 190.097 446.04 189.793L452.716 185.385L457.124 192.062C457.428 192.523 458.048 192.65 458.509 192.346C458.97 192.041 459.097 191.421 458.793 190.96L453.835 183.449ZM348.981 335.877C410.303 302.2 440.937 247.908 453.98 184.201L452.02 183.799C439.063 247.092 408.697 300.8 348.019 334.123L348.981 335.877Z" fill="#4F46E5"/>
<path d="M593.599 335.084C593.093 335.306 592.862 335.895 593.084 336.401C593.306 336.907 593.895 337.138 594.401 336.916L593.599 335.084ZM713.814 181.919C713.493 181.469 712.868 181.365 712.419 181.686L705.095 186.917C704.646 187.238 704.542 187.863 704.863 188.312C705.184 188.762 705.808 188.866 706.258 188.545L712.768 183.895L717.417 190.405C717.738 190.854 718.363 190.958 718.812 190.637C719.262 190.316 719.366 189.692 719.045 189.242L713.814 181.919ZM594.401 336.916C663.234 306.77 702.935 248.971 713.986 182.664L712.014 182.336C701.065 248.029 661.766 305.23 593.599 335.084L594.401 336.916Z" fill="#4F46E5"/>
<circle cx="192" cy="349" r="27" fill="#EEF2FF"/>
<path d="M180.167 356.04C178.308 354.796 177.083 352.676 177.083 350.271C177.083 346.658 179.845 343.69 183.373 343.363C184.095 338.974 187.906 335.625 192.5 335.625C197.094 335.625 200.906 338.974 201.627 343.363C205.155 343.69 207.917 346.658 207.917 350.271C207.917 352.676 206.693 354.796 204.833 356.04M186.333 355.667L192.5 349.5M192.5 349.5L198.667 355.667M192.5 349.5V363.375" stroke="#4338CA" stroke-width="2.5" stroke-linecap="round" stroke-linejoin="round"/>
<circle cx="329" cy="349" r="27" fill="#EEF2FF"/>
<path d="M317.167 356.04C315.308 354.796 314.083 352.676 314.083 350.271C314.083 346.658 316.845 343.69 320.373 343.363C321.095 338.974 324.906 335.625 329.5 335.625C334.094 335.625 337.906 338.974 338.627 343.363C342.155 343.69 344.917 346.658 344.917 350.271C344.917 352.676 343.693 354.796 341.833 356.04M323.333 355.667L329.5 349.5M329.5 349.5L335.667 355.667M329.5 349.5V363.375" stroke="#4338CA" stroke-width="2.5" stroke-linecap="round" stroke-linejoin="round"/>
<circle cx="572" cy="349" r="27" fill="#EEF2FF"/>
<path d="M560.167 356.04C558.308 354.796 557.083 352.676 557.083 350.271C557.083 346.658 559.845 343.69 563.373 343.363C564.095 338.974 567.906 335.625 572.5 335.625C577.094 335.625 580.906 338.974 581.627 343.363C585.155 343.69 587.917 346.658 587.917 350.271C587.917 352.676 586.693 354.796 584.833 356.04M566.333 355.667L572.5 349.5M572.5 349.5L578.667 355.667M572.5 349.5V363.375" stroke="#4338CA" stroke-width="2.5" stroke-linecap="round" stroke-linejoin="round"/>
<circle cx="768" cy="349" r="27" fill="#EEF2FF"/>
<path d="M756.167 356.04C754.308 354.796 753.083 352.676 753.083 350.271C753.083 346.658 755.845 343.69 759.373 343.363C760.095 338.974 763.906 335.625 768.5 335.625C773.094 335.625 776.906 338.974 777.627 343.363C781.155 343.69 783.917 346.658 783.917 350.271C783.917 352.676 782.693 354.796 780.833 356.04M762.333 355.667L768.5 349.5M768.5 349.5L774.667 355.667M768.5 349.5V363.375" stroke="#4338CA" stroke-width="2.5" stroke-linecap="round" stroke-linejoin="round"/>
<path d="M166.456 380.44C168.109 380.44 169.389 380.899 170.296 381.816C171.203 382.723 171.656 384.024 171.656 385.72C171.656 387.405 171.203 388.707 170.296 389.624C169.389 390.541 168.109 391 166.456 391H162.376V380.44H166.456ZM166.344 389.24C167.347 389.24 168.099 388.941 168.6 388.344C169.112 387.736 169.368 386.861 169.368 385.72C169.368 384.579 169.112 383.709 168.6 383.112C168.099 382.504 167.347 382.2 166.344 382.2H164.584V389.24H166.344ZM173.876 391V380.44H181.796V382.216H176.084V384.84H180.58V386.536H176.084V389.224H182.02V391H173.876ZM188.433 380.44C189.244 380.44 189.937 380.579 190.513 380.856C191.089 381.123 191.532 381.512 191.841 382.024C192.161 382.525 192.321 383.133 192.321 383.848C192.321 384.563 192.161 385.176 191.841 385.688C191.532 386.189 191.089 386.579 190.513 386.856C189.937 387.123 189.244 387.256 188.433 387.256H186.209V391H184.001V380.44H188.433ZM188.097 385.512C188.758 385.512 189.254 385.373 189.585 385.096C189.916 384.808 190.081 384.392 190.081 383.848C190.081 383.293 189.916 382.877 189.585 382.6C189.254 382.323 188.758 382.184 188.097 382.184H186.209V385.512H188.097ZM196.553 389.224H202.121V391H194.345V380.44H196.553V389.224ZM208.155 380.28C209.2 380.28 210.101 380.499 210.859 380.936C211.616 381.373 212.197 381.997 212.603 382.808C213.019 383.619 213.227 384.589 213.227 385.72C213.227 386.851 213.019 387.821 212.603 388.632C212.197 389.443 211.616 390.067 210.859 390.504C210.101 390.941 209.2 391.16 208.155 391.16C207.109 391.16 206.203 390.941 205.435 390.504C204.677 390.067 204.091 389.443 203.675 388.632C203.269 387.821 203.067 386.851 203.067 385.72C203.067 384.589 203.269 383.619 203.675 382.808C204.091 381.997 204.677 381.373 205.435 380.936C206.203 380.499 207.109 380.28 208.155 380.28ZM208.155 382.088C207.557 382.088 207.051 382.227 206.635 382.504C206.219 382.781 205.899 383.192 205.675 383.736C205.461 384.269 205.355 384.931 205.355 385.72C205.355 386.499 205.461 387.16 205.675 387.704C205.899 388.248 206.219 388.659 206.635 388.936C207.051 389.213 207.557 389.352 208.155 389.352C208.741 389.352 209.243 389.213 209.659 388.936C210.075 388.659 210.389 388.248 210.603 387.704C210.827 387.16 210.939 386.499 210.939 385.72C210.939 384.931 210.827 384.269 210.603 383.736C210.389 383.192 210.075 382.781 209.659 382.504C209.243 382.227 208.741 382.088 208.155 382.088ZM223.34 380.44L219.596 387.048V391H217.388V387.048L213.644 380.44H215.996L217.692 383.608L218.492 385.256L219.308 383.608L221.004 380.44H223.34Z" fill="#4338CA"/>
<rect x="667.895" y="274.345" width="6.99405" height="4.98064" transform="rotate(11.5635 667.895 274.345)" fill="white"/>
<path d="M756.146 326.021C756.434 326.492 757.049 326.641 757.521 326.354C757.992 326.066 758.141 325.451 757.854 324.979L756.146 326.021ZM536.495 182.631C536.015 182.358 535.404 182.525 535.131 183.005L530.676 190.825C530.403 191.305 530.571 191.916 531.05 192.189C531.53 192.463 532.141 192.295 532.414 191.815L536.374 184.864L543.325 188.824C543.805 189.097 544.416 188.929 544.689 188.45C544.963 187.97 544.795 187.359 544.315 187.086L536.495 182.631ZM757.854 324.979C745.572 304.847 727.597 293.67 707.129 286.271C686.714 278.89 663.662 275.223 641.281 270.212C618.835 265.185 596.981 258.797 578.627 246C560.307 233.228 545.407 214.025 536.964 183.236L535.036 183.764C543.593 214.975 558.755 234.584 577.483 247.641C596.175 260.672 618.353 267.127 640.844 272.163C663.4 277.214 686.193 280.829 706.449 288.151C726.653 295.455 744.178 306.403 756.146 326.021L757.854 324.979Z" fill="#4F46E5"/>
</svg>
