<svg xmlns="http://www.w3.org/2000/svg" xmlns:xlink="http://www.w3.org/1999/xlink" width="290" height="384" fill="none" xmlns:v="https://vecta.io/nano"><style><![CDATA[.B{color-interpolation-filters:sRGB}.C{flood-opacity:0}.D{stroke-width:2}.E{stroke-linejoin:round}.F{stroke:#4338ca}.G{stroke-width:4}.H{stroke-linecap:round}.I{stroke:#fff}.J{stroke-miterlimit:0}.K{stroke-linejoin:bevel}]]></style><g clip-path="url(#Z)"><path fill="#1c1a59" d="M0 0h290v384H0z"/><mask id="A" maskUnits="userSpaceOnUse" x="0" y="0" width="290" height="384" mask-type="alpha"><rect width="290" height="384" rx="24" fill="url(#Q)"/></mask><g mask="url(#A)" class="F"><path d="M62.5-125v706m120-706v706m72-706v706m-168-706v706m120-706v706m72-706v706m-144-706v706m-120-706v706m96-706v706m120-706v706m-72-706v706m-120-706v706"/><path d="M-195 323.5h706m-706-120h706m-706-144h706m-706 72h706"/><path d="M-195 299.5h706m-706-120h706m-706-144h706m-706 72h706"/><path d="M-195 251.5h706m-706 120h706"/><path d="M-195 275.5h706m-706-120h706m-706-144h706m-706 72h706"/><path d="M-195 227.5h706m-706 120h706"/></g><g opacity=".5" filter="url(#B)"><circle cx="145" cy="244" r="68" fill="#4338ca"/></g><g filter="url(#C)"><g filter="url(#D)"><rect x="213" y="133" width="48" height="48" rx="8" fill="url(#R)"/><rect x="213" y="133" width="48" height="48" rx="8" stroke="#a855f7" class="D E"/></g><path d="M242.333 165l8-8-8-8m-10.666 0l-8 8 8 8" stroke="#a855f7" class="E G H"/></g><g filter="url(#E)"><g filter="url(#F)"><rect x="31" y="133" width="48" height="48" rx="8" fill="url(#S)"/><rect x="31" y="133" width="48" height="48" rx="8" stroke="#10b981" class="D E"/></g><path d="M60.333 165l8-8-8-8m-10.667 0l-8 8 8 8" stroke="#10b981" class="E G H"/></g><g filter="url(#G)"><g filter="url(#H)"><rect x="213" y="304" width="48" height="48" rx="8" fill="url(#T)"/><rect x="213" y="304" width="48" height="48" rx="8" stroke="#f43f5e" class="D E"/></g><path d="M242.333 336l8-8-8-8m-10.666 0l-8 8 8 8" stroke="#f43f5e" class="E G H"/></g><g filter="url(#I)"><g filter="url(#J)"><rect x="121" y="133" width="48" height="48" rx="8" fill="url(#U)"/><rect x="121" y="133" width="48" height="48" rx="8" stroke="#0ea5e9" class="D E"/></g><path d="M150.333 165l8-8-8-8m-10.666 0l-8 8 8 8" stroke="#0ea5e9" class="E G H"/></g><g filter="url(#K)"><g filter="url(#L)"><rect x="31" y="304" width="48" height="48" rx="8" fill="url(#V)"/><rect x="31" y="304" width="48" height="48" rx="8" stroke="#4f46e5" class="D E"/></g><path d="M60.333 336l8-8-8-8m-10.667 0l-8 8 8 8" stroke="#4f46e5" class="E G H"/></g><g filter="url(#M)"><g filter="url(#N)"><rect x="121" y="304" width="48" height="48" rx="8" fill="url(#W)"/><rect x="121" y="304" width="48" height="48" rx="8" stroke="#f59e0b" class="D E"/></g><path d="M150.333 336l8-8-8-8m-10.666 0l-8 8 8 8" stroke="#f59e0b" class="E G H"/></g><g filter="url(#O)"><rect x="110" y="208" width="70" height="70" rx="16" fill="#fff" fill-opacity=".25"/></g><g filter="url(#P)"><rect x="116" y="214" width="58" height="58" rx="12" fill="url(#X)"/><rect x="116.25" y="214.25" width="57.5" height="57.5" rx="11.75" stroke="url(#Y)" stroke-opacity=".5" stroke-width=".5"/></g><g clip-path="url(#a)" fill="#fff"><path d="M154.081 231.081h-9.084c-3.16.001-6.19 1.257-8.425 3.491s-3.49 5.265-3.491 8.425c0 .372.074.741.216 1.085a2.84 2.84 0 0 0 .615.921 2.83 2.83 0 0 0 2.007.831h2.84v-2.837c.002-1.654.659-3.24 1.829-4.409a6.25 6.25 0 0 1 4.409-1.829h9.084c3.422 0 6.229 2.756 6.243 6.178.036 8.48-6.852 15.391-15.324 15.391h-9.081c-.753 0-1.474.298-2.007.831a2.84 2.84 0 0 0-.831 2.006v2.838h11.916c11.632 0 21.084-9.508 20.996-21.159-.042-6.524-5.391-11.763-11.912-11.763zm-9.085 23.838c1.566 0 3.117-.308 4.563-.907a11.92 11.92 0 0 0 3.869-2.584c1.107-1.107 1.985-2.422 2.584-3.868a11.93 11.93 0 0 0 .907-4.564c0-.372-.074-.741-.216-1.085a2.84 2.84 0 0 0-.615-.921c-.264-.263-.577-.473-.921-.615a2.83 2.83 0 0 0-1.086-.216h-2.838v2.837a6.23 6.23 0 0 1-.474 2.392 6.25 6.25 0 0 1-3.381 3.381c-.759.314-1.571.475-2.392.475h-9.077c-3.422 0-6.229-2.756-6.243-6.178-.036-8.48 6.852-15.39 15.32-15.39h9.085c.753 0 1.474-.299 2.007-.832a2.84 2.84 0 0 0 .831-2.006V222h-11.923c-11.629 0-21.084 9.507-20.996 21.159.048 6.52 5.398 11.76 11.918 11.76h9.078z"/></g><g opacity=".4" class="D I J K"><path d="M237 185v34c0 13.255-10.745 24-24 24h-29"/></g><g opacity=".4" class="D I J K"><path d="M106 243H79c-13.255 0-24-10.745-24-24v-34"/></g><g opacity=".4" class="D I J K"><path d="M106 243H79c-13.255 0-24 10.745-24 24v33"/></g><g opacity=".4" class="D I J K"><path d="M237 300v-33c0-13.255-10.745-24-24-24h-29"/></g><g opacity=".7" class="D I J K"><path d="M145 185v19"/></g><g opacity=".7" class="D I J K"><path d="M145 282v18"/></g></g><defs><filter id="B" x="-23" y="76" width="336" height="336" filterUnits="userSpaceOnUse" class="B"><feFlood class="C"/><feBlend in="SourceGraphic"/><feGaussianBlur stdDeviation="50"/></filter><filter id="C" x="206" y="126" width="66" height="66" filterUnits="userSpaceOnUse" class="B"><feFlood result="A" class="C"/><feColorMatrix in="SourceAlpha" values="0 0 0 0 0 0 0 0 0 0 0 0 0 0 0 0 0 0 127 0" result="B"/><feOffset dx="2" dy="2"/><feGaussianBlur stdDeviation="4"/><feComposite in2="B" operator="out"/><feColorMatrix values="0 0 0 0 0 0 0 0 0 0 0 0 0 0 0 0 0 0 0.04 0"/><feBlend in2="A" result="C"/><feColorMatrix in="SourceAlpha" values="0 0 0 0 0 0 0 0 0 0 0 0 0 0 0 0 0 0 127 0" result="B"/><feOffset dx="2" dy="2"/><feGaussianBlur stdDeviation="1.5"/><feComposite in2="B" operator="out"/><feColorMatrix values="0 0 0 0 0 0 0 0 0 0 0 0 0 0 0 0 0 0 0.06 0"/><feBlend in2="C"/><feBlend in="SourceGraphic"/></filter><filter id="D" x="210" y="132" width="54" height="54" filterUnits="userSpaceOnUse" class="B"><feFlood result="A" class="C"/><feColorMatrix in="SourceAlpha" values="0 0 0 0 0 0 0 0 0 0 0 0 0 0 0 0 0 0 127 0" result="B"/><feOffset dy="2"/><feGaussianBlur stdDeviation="1"/><feComposite in2="B" operator="out"/><feColorMatrix values="0 0 0 0 0 0 0 0 0 0 0 0 0 0 0 0 0 0 0.05 0"/><feBlend in2="A"/><feBlend in="SourceGraphic"/></filter><filter id="E" x="24" y="126" width="66" height="66" filterUnits="userSpaceOnUse" class="B"><feFlood result="A" class="C"/><feColorMatrix in="SourceAlpha" values="0 0 0 0 0 0 0 0 0 0 0 0 0 0 0 0 0 0 127 0" result="B"/><feOffset dx="2" dy="2"/><feGaussianBlur stdDeviation="4"/><feComposite in2="B" operator="out"/><feColorMatrix values="0 0 0 0 0 0 0 0 0 0 0 0 0 0 0 0 0 0 0.04 0"/><feBlend in2="A" result="C"/><feColorMatrix in="SourceAlpha" values="0 0 0 0 0 0 0 0 0 0 0 0 0 0 0 0 0 0 127 0" result="B"/><feOffset dx="2" dy="2"/><feGaussianBlur stdDeviation="1.5"/><feComposite in2="B" operator="out"/><feColorMatrix values="0 0 0 0 0 0 0 0 0 0 0 0 0 0 0 0 0 0 0.06 0"/><feBlend in2="C"/><feBlend in="SourceGraphic"/></filter><filter id="F" x="28" y="132" width="54" height="54" filterUnits="userSpaceOnUse" class="B"><feFlood result="A" class="C"/><feColorMatrix in="SourceAlpha" values="0 0 0 0 0 0 0 0 0 0 0 0 0 0 0 0 0 0 127 0" result="B"/><feOffset dy="2"/><feGaussianBlur stdDeviation="1"/><feComposite in2="B" operator="out"/><feColorMatrix values="0 0 0 0 0 0 0 0 0 0 0 0 0 0 0 0 0 0 0.05 0"/><feBlend in2="A"/><feBlend in="SourceGraphic"/></filter><filter id="G" x="206" y="297" width="66" height="66" filterUnits="userSpaceOnUse" class="B"><feFlood result="A" class="C"/><feColorMatrix in="SourceAlpha" values="0 0 0 0 0 0 0 0 0 0 0 0 0 0 0 0 0 0 127 0" result="B"/><feOffset dx="2" dy="2"/><feGaussianBlur stdDeviation="4"/><feComposite in2="B" operator="out"/><feColorMatrix values="0 0 0 0 0 0 0 0 0 0 0 0 0 0 0 0 0 0 0.04 0"/><feBlend in2="A" result="C"/><feColorMatrix in="SourceAlpha" values="0 0 0 0 0 0 0 0 0 0 0 0 0 0 0 0 0 0 127 0" result="B"/><feOffset dx="2" dy="2"/><feGaussianBlur stdDeviation="1.5"/><feComposite in2="B" operator="out"/><feColorMatrix values="0 0 0 0 0 0 0 0 0 0 0 0 0 0 0 0 0 0 0.06 0"/><feBlend in2="C"/><feBlend in="SourceGraphic"/></filter><filter id="H" x="210" y="303" width="54" height="54" filterUnits="userSpaceOnUse" class="B"><feFlood result="A" class="C"/><feColorMatrix in="SourceAlpha" values="0 0 0 0 0 0 0 0 0 0 0 0 0 0 0 0 0 0 127 0" result="B"/><feOffset dy="2"/><feGaussianBlur stdDeviation="1"/><feComposite in2="B" operator="out"/><feColorMatrix values="0 0 0 0 0 0 0 0 0 0 0 0 0 0 0 0 0 0 0.05 0"/><feBlend in2="A"/><feBlend in="SourceGraphic"/></filter><filter id="I" x="114" y="126" width="66" height="66" filterUnits="userSpaceOnUse" class="B"><feFlood result="A" class="C"/><feColorMatrix in="SourceAlpha" values="0 0 0 0 0 0 0 0 0 0 0 0 0 0 0 0 0 0 127 0" result="B"/><feOffset dx="2" dy="2"/><feGaussianBlur stdDeviation="4"/><feComposite in2="B" operator="out"/><feColorMatrix values="0 0 0 0 0 0 0 0 0 0 0 0 0 0 0 0 0 0 0.04 0"/><feBlend in2="A" result="C"/><feColorMatrix in="SourceAlpha" values="0 0 0 0 0 0 0 0 0 0 0 0 0 0 0 0 0 0 127 0" result="B"/><feOffset dx="2" dy="2"/><feGaussianBlur stdDeviation="1.5"/><feComposite in2="B" operator="out"/><feColorMatrix values="0 0 0 0 0 0 0 0 0 0 0 0 0 0 0 0 0 0 0.06 0"/><feBlend in2="C"/><feBlend in="SourceGraphic"/></filter><filter id="J" x="118" y="132" width="54" height="54" filterUnits="userSpaceOnUse" class="B"><feFlood result="A" class="C"/><feColorMatrix in="SourceAlpha" values="0 0 0 0 0 0 0 0 0 0 0 0 0 0 0 0 0 0 127 0" result="B"/><feOffset dy="2"/><feGaussianBlur stdDeviation="1"/><feComposite in2="B" operator="out"/><feColorMatrix values="0 0 0 0 0 0 0 0 0 0 0 0 0 0 0 0 0 0 0.05 0"/><feBlend in2="A"/><feBlend in="SourceGraphic"/></filter><filter id="K" x="24" y="297" width="66" height="66" filterUnits="userSpaceOnUse" class="B"><feFlood result="A" class="C"/><feColorMatrix in="SourceAlpha" values="0 0 0 0 0 0 0 0 0 0 0 0 0 0 0 0 0 0 127 0" result="B"/><feOffset dx="2" dy="2"/><feGaussianBlur stdDeviation="4"/><feComposite in2="B" operator="out"/><feColorMatrix values="0 0 0 0 0 0 0 0 0 0 0 0 0 0 0 0 0 0 0.04 0"/><feBlend in2="A" result="C"/><feColorMatrix in="SourceAlpha" values="0 0 0 0 0 0 0 0 0 0 0 0 0 0 0 0 0 0 127 0" result="B"/><feOffset dx="2" dy="2"/><feGaussianBlur stdDeviation="1.5"/><feComposite in2="B" operator="out"/><feColorMatrix values="0 0 0 0 0 0 0 0 0 0 0 0 0 0 0 0 0 0 0.06 0"/><feBlend in2="C"/><feBlend in="SourceGraphic"/></filter><filter id="L" x="28" y="303" width="54" height="54" filterUnits="userSpaceOnUse" class="B"><feFlood result="A" class="C"/><feColorMatrix in="SourceAlpha" values="0 0 0 0 0 0 0 0 0 0 0 0 0 0 0 0 0 0 127 0" result="B"/><feOffset dy="2"/><feGaussianBlur stdDeviation="1"/><feComposite in2="B" operator="out"/><feColorMatrix values="0 0 0 0 0 0 0 0 0 0 0 0 0 0 0 0 0 0 0.05 0"/><feBlend in2="A"/><feBlend in="SourceGraphic"/></filter><filter id="M" x="114" y="297" width="66" height="66" filterUnits="userSpaceOnUse" class="B"><feFlood result="A" class="C"/><feColorMatrix in="SourceAlpha" values="0 0 0 0 0 0 0 0 0 0 0 0 0 0 0 0 0 0 127 0" result="B"/><feOffset dx="2" dy="2"/><feGaussianBlur stdDeviation="4"/><feComposite in2="B" operator="out"/><feColorMatrix values="0 0 0 0 0 0 0 0 0 0 0 0 0 0 0 0 0 0 0.04 0"/><feBlend in2="A" result="C"/><feColorMatrix in="SourceAlpha" values="0 0 0 0 0 0 0 0 0 0 0 0 0 0 0 0 0 0 127 0" result="B"/><feOffset dx="2" dy="2"/><feGaussianBlur stdDeviation="1.5"/><feComposite in2="B" operator="out"/><feColorMatrix values="0 0 0 0 0 0 0 0 0 0 0 0 0 0 0 0 0 0 0.06 0"/><feBlend in2="C"/><feBlend in="SourceGraphic"/></filter><filter id="N" x="118" y="303" width="54" height="54" filterUnits="userSpaceOnUse" class="B"><feFlood result="A" class="C"/><feColorMatrix in="SourceAlpha" values="0 0 0 0 0 0 0 0 0 0 0 0 0 0 0 0 0 0 127 0" result="B"/><feOffset dy="2"/><feGaussianBlur stdDeviation="1"/><feComposite in2="B" operator="out"/><feColorMatrix values="0 0 0 0 0 0 0 0 0 0 0 0 0 0 0 0 0 0 0.05 0"/><feBlend in2="A"/><feBlend in="SourceGraphic"/></filter><filter id="O" x="108" y="206" width="74" height="74" filterUnits="userSpaceOnUse" class="B"><feFlood class="C"/><feGaussianBlur stdDeviation="1"/><feComposite in2="SourceAlpha" operator="in"/><feBlend in="SourceGraphic"/></filter><filter id="P" x="115" y="213" width="64" height="64" filterUnits="userSpaceOnUse" class="B"><feFlood result="A" class="C"/><feColorMatrix in="SourceAlpha" values="0 0 0 0 0 0 0 0 0 0 0 0 0 0 0 0 0 0 127 0" result="B"/><feOffset dx="2" dy="2"/><feGaussianBlur stdDeviation="1.5"/><feComposite in2="B" operator="out"/><feColorMatrix values="0 0 0 0 0 0 0 0 0 0 0 0 0 0 0 0 0 0 0.12 0"/><feBlend in2="A"/><feBlend in="SourceGraphic"/></filter><radialGradient id="Q" cx="0" cy="0" r="1" gradientTransform="translate(145 224) rotate(90) scale(196.5 148.398)" xlink:href="#b"><stop stop-color="#fff"/><stop offset="1" stop-color="#fff" stop-opacity="0"/></radialGradient><linearGradient id="R" x1="237" y1="133" x2="237" y2="177.5" xlink:href="#b"><stop stop-color="#f3e8ff"/><stop offset="1" stop-color="#faf5ff"/></linearGradient><linearGradient id="S" x1="55" y1="133" x2="55" y2="177.5" xlink:href="#b"><stop stop-color="#d1fae5"/><stop offset="1" stop-color="#ecfdf5"/></linearGradient><linearGradient id="T" x1="237" y1="304" x2="237" y2="348.5" xlink:href="#b"><stop stop-color="#ffe4e6"/><stop offset="1" stop-color="#fff1f2"/></linearGradient><linearGradient id="U" x1="145" y1="133" x2="145" y2="177.5" xlink:href="#b"><stop stop-color="#e0f2fe"/><stop offset="1" stop-color="#f0f9ff"/></linearGradient><linearGradient id="V" x1="55" y1="304" x2="55" y2="348.5" xlink:href="#b"><stop stop-color="#dbeafe"/><stop offset="1" stop-color="#eff6ff"/></linearGradient><linearGradient id="W" x1="145" y1="304" x2="145" y2="348.5" xlink:href="#b"><stop stop-color="#fef3c7"/><stop offset="1" stop-color="#fffbeb"/></linearGradient><linearGradient id="X" x1="145" y1="214" x2="145" y2="272" xlink:href="#b"><stop stop-color="#4f46e5"/><stop offset="1" stop-color="#3730a3"/></linearGradient><linearGradient id="Y" x1="145" y1="214" x2="145" y2="272" xlink:href="#b"><stop stop-color="#fff"/><stop offset="1" stop-color="#4d44df"/></linearGradient><clipPath id="Z"><path fill="#fff" d="M0 0h290v384H0z"/></clipPath><clipPath id="a"><path fill="#fff" transform="translate(124 222)" d="M0 0h42v42H0z"/></clipPath><linearGradient id="b" gradientUnits="userSpaceOnUse"/></defs></svg>