<svg width="290" height="384" viewBox="0 0 290 384" fill="none" xmlns="http://www.w3.org/2000/svg">
<g clip-path="url(#clip0_228_2980)">
<rect width="290" height="384" fill="url(#paint0_linear_228_2980)"/>
<g filter="url(#filter0_d_228_2980)">
<rect x="142" y="324" width="128" height="40" rx="8" fill="#4338CA" shape-rendering="crispEdges"/>
<path d="M168.875 338.75V343.505L172.826 345.875C173.025 345.994 173.168 346.188 173.224 346.413C173.28 346.638 173.245 346.877 173.125 347.076C173.006 347.275 172.812 347.418 172.587 347.474C172.362 347.53 172.123 347.495 171.924 347.375L167.549 344.75C167.42 344.673 167.313 344.563 167.238 344.431C167.164 344.3 167.125 344.151 167.125 344V338.75C167.125 338.518 167.217 338.295 167.381 338.131C167.545 337.967 167.768 337.875 168 337.875C168.232 337.875 168.455 337.967 168.619 338.131C168.783 338.295 168.875 338.518 168.875 338.75ZM168 333.5C166.62 333.497 165.252 333.767 163.977 334.295C162.702 334.824 161.544 335.6 160.571 336.579C159.776 337.384 159.07 338.158 158.375 338.969V337C158.375 336.768 158.283 336.545 158.119 336.381C157.955 336.217 157.732 336.125 157.5 336.125C157.268 336.125 157.045 336.217 156.881 336.381C156.717 336.545 156.625 336.768 156.625 337V341.375C156.625 341.607 156.717 341.83 156.881 341.994C157.045 342.158 157.268 342.25 157.5 342.25H161.875C162.107 342.25 162.33 342.158 162.494 341.994C162.658 341.83 162.75 341.607 162.75 341.375C162.75 341.143 162.658 340.92 162.494 340.756C162.33 340.592 162.107 340.5 161.875 340.5H159.359C160.141 339.579 160.92 338.712 161.808 337.813C163.024 336.597 164.572 335.766 166.257 335.424C167.943 335.083 169.692 335.245 171.285 335.892C172.879 336.539 174.247 337.64 175.218 339.06C176.189 340.48 176.72 342.154 176.745 343.873C176.769 345.593 176.287 347.282 175.358 348.729C174.428 350.176 173.093 351.317 171.519 352.009C169.944 352.702 168.201 352.915 166.506 352.622C164.811 352.33 163.241 351.544 161.99 350.363C161.906 350.284 161.808 350.223 161.7 350.182C161.593 350.141 161.479 350.121 161.364 350.125C161.249 350.128 161.135 350.154 161.03 350.201C160.925 350.248 160.831 350.315 160.752 350.398C160.673 350.482 160.611 350.58 160.57 350.688C160.529 350.795 160.51 350.91 160.513 351.025C160.516 351.14 160.542 351.253 160.589 351.358C160.636 351.463 160.703 351.558 160.787 351.637C162.033 352.813 163.548 353.666 165.2 354.122C166.852 354.578 168.59 354.622 170.263 354.252C171.936 353.881 173.493 353.107 174.798 351.996C176.103 350.886 177.117 349.473 177.75 347.88C178.383 346.288 178.617 344.565 178.431 342.862C178.245 341.158 177.646 339.526 176.684 338.108C175.722 336.689 174.428 335.528 172.915 334.725C171.401 333.922 169.714 333.501 168 333.5Z" fill="white"/>
<path d="M190.032 338.94C191.227 338.94 192.165 339.228 192.848 339.804C193.531 340.38 193.872 341.153 193.872 342.124C193.872 343.159 193.531 343.953 192.848 344.508C192.165 345.052 191.232 345.324 190.048 345.324L189.824 345.452H187.552V349.5H185.376V338.94H190.032ZM189.776 343.772C190.395 343.772 190.853 343.649 191.152 343.404C191.461 343.148 191.616 342.759 191.616 342.236C191.616 341.713 191.461 341.329 191.152 341.084C190.853 340.828 190.395 340.7 189.776 340.7H187.552V343.772H189.776ZM191.072 344.236L194.496 349.5H192.016L189.184 344.876L191.072 344.236ZM199.519 341.34C200.329 341.34 201.039 341.505 201.647 341.836C202.265 342.167 202.745 342.641 203.087 343.26C203.439 343.879 203.615 344.625 203.615 345.5C203.615 346.364 203.439 347.111 203.087 347.74C202.745 348.359 202.265 348.833 201.647 349.164C201.039 349.495 200.329 349.66 199.519 349.66C198.719 349.66 198.009 349.495 197.391 349.164C196.772 348.833 196.287 348.359 195.935 347.74C195.593 347.111 195.423 346.364 195.423 345.5C195.423 344.625 195.593 343.879 195.935 343.26C196.287 342.641 196.772 342.167 197.391 341.836C198.009 341.505 198.719 341.34 199.519 341.34ZM199.519 342.972C199.113 342.972 198.767 343.068 198.479 343.26C198.201 343.441 197.988 343.719 197.839 344.092C197.689 344.465 197.615 344.935 197.615 345.5C197.615 346.065 197.689 346.535 197.839 346.908C197.988 347.281 198.201 347.564 198.479 347.756C198.767 347.937 199.113 348.028 199.519 348.028C199.913 348.028 200.249 347.937 200.527 347.756C200.815 347.564 201.033 347.281 201.183 346.908C201.332 346.535 201.407 346.065 201.407 345.5C201.407 344.935 201.332 344.465 201.183 344.092C201.033 343.719 200.815 343.441 200.527 343.26C200.249 343.068 199.913 342.972 199.519 342.972ZM207.609 337.996V347.036C207.609 347.409 207.673 347.671 207.801 347.82C207.929 347.969 208.142 348.044 208.441 348.044C208.622 348.044 208.772 348.033 208.889 348.012C209.006 347.98 209.156 347.937 209.337 347.884L209.145 349.324C208.964 349.431 208.734 349.511 208.457 349.564C208.19 349.628 207.924 349.66 207.657 349.66C206.878 349.66 206.308 349.473 205.945 349.1C205.593 348.716 205.417 348.108 205.417 347.276V337.996H207.609ZM212.718 337.996V347.036C212.718 347.409 212.782 347.671 212.91 347.82C213.038 347.969 213.252 348.044 213.55 348.044C213.732 348.044 213.881 348.033 213.998 348.012C214.116 347.98 214.265 347.937 214.446 347.884L214.254 349.324C214.073 349.431 213.844 349.511 213.566 349.564C213.3 349.628 213.033 349.66 212.766 349.66C211.988 349.66 211.417 349.473 211.054 349.1C210.702 348.716 210.526 348.108 210.526 347.276V337.996H212.718ZM220.439 349.5V338.94H225.063C226.343 338.94 227.287 339.191 227.895 339.692C228.503 340.193 228.807 340.903 228.807 341.82C228.807 342.385 228.636 342.887 228.295 343.324C227.953 343.761 227.452 344.039 226.791 344.156V344.172C227.527 344.279 228.092 344.556 228.487 345.004C228.881 345.452 229.079 345.985 229.079 346.604C229.079 347.511 228.748 348.22 228.087 348.732C227.436 349.244 226.481 349.5 225.223 349.5H220.439ZM222.583 347.836H225.031C225.628 347.836 226.071 347.713 226.359 347.468C226.647 347.223 226.791 346.881 226.791 346.444C226.791 345.996 226.647 345.655 226.359 345.42C226.071 345.185 225.628 345.068 225.031 345.068H222.583V347.836ZM222.583 343.372H224.775C225.937 343.372 226.519 342.919 226.519 342.012C226.519 341.105 225.937 340.652 224.775 340.652H222.583V343.372ZM235.525 344.396C235.525 343.937 235.391 343.58 235.125 343.324C234.869 343.068 234.527 342.94 234.101 342.94C233.706 342.94 233.359 343.041 233.061 343.244C232.762 343.447 232.543 343.783 232.405 344.252L230.533 343.676C230.714 342.972 231.109 342.407 231.717 341.98C232.335 341.553 233.162 341.34 234.197 341.34C234.901 341.34 235.514 341.452 236.037 341.676C236.559 341.889 236.965 342.215 237.253 342.652C237.551 343.089 237.701 343.639 237.701 344.3V347.548C237.701 347.953 237.893 348.156 238.277 348.156C238.458 348.156 238.629 348.129 238.789 348.076L238.661 349.436C238.383 349.575 238.037 349.644 237.621 349.644C237.247 349.644 236.911 349.58 236.613 349.452C236.314 349.324 236.079 349.132 235.909 348.876C235.738 348.609 235.653 348.279 235.653 347.884V347.82L236.037 347.756C235.973 348.161 235.797 348.508 235.509 348.796C235.221 349.073 234.869 349.287 234.453 349.436C234.047 349.585 233.626 349.66 233.189 349.66C232.645 349.66 232.175 349.58 231.781 349.42C231.386 349.249 231.082 349.004 230.868 348.684C230.655 348.364 230.549 347.969 230.549 347.5C230.549 346.903 230.741 346.417 231.125 346.044C231.509 345.66 232.058 345.399 232.773 345.26L235.781 344.652L235.765 346.012L233.845 346.396C233.482 346.471 233.205 346.572 233.013 346.7C232.831 346.817 232.741 347.015 232.741 347.292C232.741 347.559 232.837 347.761 233.029 347.9C233.231 348.039 233.471 348.108 233.749 348.108C233.973 348.108 234.191 348.081 234.405 348.028C234.618 347.975 234.81 347.889 234.981 347.772C235.151 347.655 235.285 347.495 235.381 347.292C235.477 347.089 235.525 346.844 235.525 346.556V344.396ZM243.753 341.34C244.467 341.34 245.07 341.447 245.561 341.66C246.062 341.863 246.462 342.145 246.761 342.508C247.07 342.86 247.289 343.255 247.417 343.692L245.369 344.428C245.262 343.948 245.081 343.585 244.825 343.34C244.569 343.095 244.222 342.972 243.785 342.972C243.379 342.972 243.033 343.068 242.745 343.26C242.457 343.441 242.238 343.724 242.089 344.108C241.939 344.481 241.865 344.951 241.865 345.516C241.865 346.081 241.939 346.551 242.089 346.924C242.249 347.297 242.473 347.575 242.761 347.756C243.059 347.937 243.406 348.028 243.801 348.028C244.121 348.028 244.393 347.975 244.617 347.868C244.841 347.751 245.022 347.585 245.161 347.372C245.31 347.159 245.411 346.903 245.465 346.604L247.449 347.244C247.331 347.724 247.113 348.145 246.793 348.508C246.473 348.871 246.062 349.153 245.561 349.356C245.059 349.559 244.478 349.66 243.817 349.66C242.995 349.66 242.27 349.495 241.641 349.164C241.011 348.833 240.526 348.359 240.185 347.74C239.843 347.121 239.673 346.375 239.673 345.5C239.673 344.625 239.843 343.879 240.185 343.26C240.526 342.641 241.006 342.167 241.625 341.836C242.243 341.505 242.953 341.34 243.753 341.34ZM257.296 341.5L253.6 345.356L253.168 345.564L250.768 348.14L250.736 345.804L254.8 341.5H257.296ZM251.344 337.996V349.5H249.152V337.996H251.344ZM253.904 344.044L257.488 349.5H255.008L252.4 345.324L253.904 344.044Z" fill="white"/>
<rect x="143" y="325" width="126" height="38" rx="7" stroke="#C7D2FE" stroke-width="2" shape-rendering="crispEdges"/>
</g>
<mask id="mask0_228_2980" style="mask-type:alpha" maskUnits="userSpaceOnUse" x="0" y="0" width="290" height="384">
<rect width="290" height="384" rx="24" fill="url(#paint1_linear_228_2980)"/>
</mask>
<g mask="url(#mask0_228_2980)">
<path d="M142 344C130 344 112.5 344 88.5 344C71 344 62 335 62 317.5C62 297.5 62 77 62 66.5" stroke="white" stroke-width="2"/>
<g filter="url(#filter1_d_228_2980)">
<rect x="37" y="269" width="210" height="30" rx="15" fill="white" shape-rendering="crispEdges"/>
<rect x="35.5" y="267.5" width="213" height="33" rx="16.5" stroke="white" stroke-opacity="0.4" stroke-width="3" shape-rendering="crispEdges"/>
</g>
<g clip-path="url(#clip1_228_2980)">
<path d="M76.8264 281.806C76.757 281.749 76.1286 281.272 74.78 281.272C74.4311 281.272 74.0699 281.306 73.721 281.365C73.466 279.585 71.9888 278.724 71.9296 278.679L71.5685 278.469L71.3359 278.805C71.0462 279.259 70.8238 279.771 70.6973 280.294C70.4524 281.306 70.6034 282.26 71.1155 283.074C70.4994 283.423 69.4996 283.505 69.2895 283.517H52.7772C52.3467 283.517 51.9978 283.866 51.9978 284.297C51.9753 285.74 52.2181 287.182 52.718 288.543C53.2872 290.032 54.136 291.138 55.2296 291.812C56.462 292.567 58.4737 292.998 60.7405 292.998C61.7627 292.998 62.787 292.904 63.799 292.718C65.2068 292.463 66.5554 291.973 67.798 291.265C68.8222 290.671 69.7404 289.915 70.5198 289.031C71.8337 287.553 72.6131 285.902 73.1824 284.436C73.264 284.436 73.3334 284.436 73.415 284.436C74.8452 284.436 75.7287 283.866 76.2163 283.376C76.5428 283.074 76.7856 282.701 76.9611 282.282L77.0651 281.98L76.8264 281.806ZM66.6064 283.039H68.8161C68.9202 283.039 69.014 282.958 69.014 282.841V280.863C69.014 280.759 68.9324 280.665 68.8161 280.665H66.6064C66.5024 280.665 66.4085 280.747 66.4085 280.863V282.841C66.4208 282.958 66.5024 283.039 66.6064 283.039ZM63.5256 277.374H65.7352C65.8393 277.374 65.9331 277.293 65.9331 277.176V275.198C65.9331 275.094 65.8393 275 65.7352 275H63.5256C63.4215 275 63.3276 275.082 63.3276 275.198V277.176C63.3276 277.28 63.4195 277.374 63.5256 277.374ZM63.5256 280.212H65.7352C65.8393 280.212 65.9331 280.118 65.9331 280.014V278.036C65.9331 277.932 65.8393 277.838 65.7352 277.838H63.5256C63.4215 277.838 63.3276 277.919 63.3276 278.036V280.014C63.3276 280.12 63.4195 280.212 63.5256 280.212ZM60.4671 280.212H62.6768C62.7808 280.212 62.8747 280.118 62.8747 280.014V278.036C62.8747 277.932 62.7931 277.838 62.6768 277.838H60.4671C60.3631 277.838 60.2692 277.919 60.2692 278.036V280.014C60.2692 280.12 60.3508 280.212 60.4671 280.212ZM57.3618 280.212H59.5714C59.6755 280.212 59.7693 280.118 59.7693 280.014V278.036C59.7693 277.932 59.6877 277.838 59.5714 277.838H57.3618C57.2577 277.838 57.1638 277.919 57.1638 278.036V280.014C57.1761 280.12 57.2577 280.212 57.3618 280.212ZM63.5256 283.039H65.7352C65.8393 283.039 65.9331 282.958 65.9331 282.841V280.863C65.9331 280.759 65.8515 280.665 65.7352 280.665H63.5256C63.4215 280.665 63.3276 280.747 63.3276 280.863V282.841C63.3276 282.958 63.4195 283.039 63.5256 283.039ZM60.4671 283.039H62.6768C62.7808 283.039 62.8747 282.958 62.8747 282.841V280.863C62.8747 280.759 62.7931 280.665 62.6768 280.665H60.4671C60.3631 280.665 60.2692 280.747 60.2692 280.863V282.841C60.2692 282.958 60.3508 283.039 60.4671 283.039ZM57.3618 283.039H59.5714C59.6755 283.039 59.7693 282.958 59.7693 282.841V280.863C59.7693 280.759 59.6877 280.665 59.5714 280.665H57.3618C57.2577 280.665 57.1638 280.747 57.1638 280.863V282.841C57.1761 282.958 57.2577 283.039 57.3618 283.039ZM54.3156 283.039H56.5252C56.6293 283.039 56.7231 282.958 56.7231 282.841V280.863C56.7231 280.759 56.6415 280.665 56.5252 280.665H54.3156C54.2115 280.665 54.1177 280.747 54.1177 280.863V282.841C54.1299 282.958 54.2115 283.039 54.3156 283.039Z" fill="#0091E2"/>
</g>
<path d="M95.965 289.156C95.367 289.156 94.8253 289.043 94.34 288.818C93.8547 288.593 93.469 288.263 93.183 287.83C92.897 287.388 92.741 286.855 92.715 286.231H94.093C94.119 286.708 94.2923 287.102 94.613 287.414C94.9423 287.726 95.393 287.882 95.965 287.882C96.5283 287.882 96.9703 287.743 97.291 287.466C97.6117 287.189 97.772 286.807 97.772 286.322C97.772 285.785 97.577 285.39 97.187 285.139C96.797 284.888 96.3203 284.762 95.757 284.762H94.951V283.54H95.64C96.1513 283.54 96.5717 283.436 96.901 283.228C97.2303 283.02 97.395 282.695 97.395 282.253C97.395 281.872 97.2693 281.573 97.018 281.356C96.7667 281.131 96.4113 281.018 95.952 281.018C95.484 281.018 95.1113 281.144 94.834 281.395C94.5567 281.646 94.4007 281.967 94.366 282.357H93.001C93.027 281.837 93.1657 281.382 93.417 280.992C93.6683 280.602 94.0107 280.299 94.444 280.082C94.8773 279.857 95.38 279.744 95.952 279.744C96.576 279.744 97.096 279.852 97.512 280.069C97.928 280.277 98.24 280.559 98.448 280.914C98.656 281.269 98.76 281.668 98.76 282.11C98.76 282.561 98.6257 282.951 98.357 283.28C98.097 283.601 97.7807 283.835 97.408 283.982V284.06C97.9107 284.199 98.3223 284.459 98.643 284.84C98.9723 285.213 99.137 285.715 99.137 286.348C99.137 286.859 99.0113 287.332 98.76 287.765C98.5173 288.19 98.1577 288.528 97.681 288.779C97.213 289.03 96.641 289.156 95.965 289.156ZM103.344 289.156C102.807 289.156 102.326 289.03 101.901 288.779C101.476 288.519 101.138 288.138 100.887 287.635C100.644 287.132 100.523 286.513 100.523 285.776C100.523 285.039 100.649 284.42 100.9 283.917C101.151 283.414 101.489 283.037 101.914 282.786C102.347 282.526 102.828 282.396 103.357 282.396C103.851 282.396 104.258 282.491 104.579 282.682C104.9 282.864 105.138 283.098 105.294 283.384V279.64H106.672V289H105.489L105.372 288.051H105.294C105.121 288.389 104.874 288.658 104.553 288.857C104.241 289.056 103.838 289.156 103.344 289.156ZM103.63 287.843C104.124 287.843 104.531 287.67 104.852 287.323C105.181 286.976 105.346 286.461 105.346 285.776C105.346 285.083 105.181 284.567 104.852 284.229C104.531 283.882 104.124 283.709 103.63 283.709C103.136 283.709 102.724 283.882 102.395 284.229C102.074 284.576 101.914 285.096 101.914 285.789C101.914 286.474 102.074 286.989 102.395 287.336C102.724 287.674 103.136 287.843 103.63 287.843ZM111.581 289.156C110.983 289.156 110.446 289.017 109.969 288.74C109.501 288.463 109.133 288.073 108.864 287.57C108.595 287.059 108.461 286.461 108.461 285.776C108.461 285.091 108.595 284.498 108.864 283.995C109.141 283.492 109.514 283.102 109.982 282.825C110.45 282.539 110.983 282.396 111.581 282.396C112.404 282.396 113.067 282.604 113.57 283.02C114.081 283.427 114.406 283.991 114.545 284.71H113.102C113.015 284.398 112.838 284.151 112.569 283.969C112.309 283.787 111.975 283.696 111.568 283.696C111.273 283.696 110.992 283.774 110.723 283.93C110.463 284.086 110.251 284.32 110.086 284.632C109.93 284.935 109.852 285.317 109.852 285.776C109.852 286.227 109.93 286.608 110.086 286.92C110.251 287.232 110.463 287.47 110.723 287.635C110.992 287.791 111.273 287.869 111.568 287.869C111.984 287.869 112.318 287.778 112.569 287.596C112.82 287.414 112.998 287.163 113.102 286.842H114.545C114.372 287.553 114.034 288.116 113.531 288.532C113.028 288.948 112.378 289.156 111.581 289.156ZM120.286 289V287.037H115.97V285.958L120.039 279.9H121.664V285.789H122.847V287.037H121.664V289H120.286ZM117.504 285.789H120.364V281.447L117.504 285.789ZM127.08 289.156C126.456 289.156 125.905 289.039 125.429 288.805C124.961 288.571 124.592 288.25 124.324 287.843C124.055 287.436 123.921 286.968 123.921 286.439C123.921 285.876 124.068 285.403 124.363 285.022C124.666 284.632 125.004 284.363 125.377 284.216V284.138C125.021 283.956 124.731 283.7 124.506 283.371C124.28 283.042 124.168 282.643 124.168 282.175C124.168 281.733 124.285 281.33 124.519 280.966C124.753 280.593 125.086 280.299 125.52 280.082C125.953 279.857 126.473 279.744 127.08 279.744C127.678 279.744 128.193 279.857 128.627 280.082C129.06 280.299 129.394 280.593 129.628 280.966C129.87 281.33 129.992 281.733 129.992 282.175C129.992 282.643 129.879 283.042 129.654 283.371C129.428 283.7 129.138 283.956 128.783 284.138V284.216C129.164 284.363 129.502 284.632 129.797 285.022C130.091 285.403 130.239 285.876 130.239 286.439C130.239 286.968 130.104 287.436 129.836 287.843C129.576 288.25 129.207 288.571 128.731 288.805C128.254 289.039 127.704 289.156 127.08 289.156ZM127.08 283.657C127.565 283.657 127.946 283.531 128.224 283.28C128.51 283.029 128.653 282.704 128.653 282.305C128.653 281.906 128.51 281.581 128.224 281.33C127.946 281.079 127.565 280.953 127.08 280.953C126.594 280.953 126.209 281.079 125.923 281.33C125.645 281.581 125.507 281.906 125.507 282.305C125.507 282.704 125.645 283.029 125.923 283.28C126.209 283.531 126.594 283.657 127.08 283.657ZM127.08 287.908C127.617 287.908 128.05 287.774 128.38 287.505C128.709 287.228 128.874 286.842 128.874 286.348C128.874 285.854 128.709 285.473 128.38 285.204C128.05 284.927 127.617 284.788 127.08 284.788C126.542 284.788 126.109 284.927 125.78 285.204C125.45 285.473 125.286 285.854 125.286 286.348C125.286 286.842 125.45 287.228 125.78 287.505C126.109 287.774 126.542 287.908 127.08 287.908ZM134.94 289.156C134.342 289.156 133.8 289.043 133.315 288.818C132.829 288.593 132.444 288.263 132.158 287.83C131.872 287.388 131.716 286.855 131.69 286.231H133.068C133.094 286.708 133.267 287.102 133.588 287.414C133.917 287.726 134.368 287.882 134.94 287.882C135.503 287.882 135.945 287.743 136.266 287.466C136.586 287.189 136.747 286.807 136.747 286.322C136.747 285.785 136.552 285.39 136.162 285.139C135.772 284.888 135.295 284.762 134.732 284.762H133.926V283.54H134.615C135.126 283.54 135.546 283.436 135.876 283.228C136.205 283.02 136.37 282.695 136.37 282.253C136.37 281.872 136.244 281.573 135.993 281.356C135.741 281.131 135.386 281.018 134.927 281.018C134.459 281.018 134.086 281.144 133.809 281.395C133.531 281.646 133.375 281.967 133.341 282.357H131.976C132.002 281.837 132.14 281.382 132.392 280.992C132.643 280.602 132.985 280.299 133.419 280.082C133.852 279.857 134.355 279.744 134.927 279.744C135.551 279.744 136.071 279.852 136.487 280.069C136.903 280.277 137.215 280.559 137.423 280.914C137.631 281.269 137.735 281.668 137.735 282.11C137.735 282.561 137.6 282.951 137.332 283.28C137.072 283.601 136.755 283.835 136.383 283.982V284.06C136.885 284.199 137.297 284.459 137.618 284.84C137.947 285.213 138.112 285.715 138.112 286.348C138.112 286.859 137.986 287.332 137.735 287.765C137.492 288.19 137.132 288.528 136.656 288.779C136.188 289.03 135.616 289.156 134.94 289.156ZM142.735 289.156C142.137 289.156 141.595 289.043 141.11 288.818C140.624 288.593 140.239 288.263 139.953 287.83C139.667 287.388 139.511 286.855 139.485 286.231H140.863C140.889 286.708 141.062 287.102 141.383 287.414C141.712 287.726 142.163 287.882 142.735 287.882C143.298 287.882 143.74 287.743 144.061 287.466C144.381 287.189 144.542 286.807 144.542 286.322C144.542 285.785 144.347 285.39 143.957 285.139C143.567 284.888 143.09 284.762 142.527 284.762H141.721V283.54H142.41C142.921 283.54 143.341 283.436 143.671 283.228C144 283.02 144.165 282.695 144.165 282.253C144.165 281.872 144.039 281.573 143.788 281.356C143.536 281.131 143.181 281.018 142.722 281.018C142.254 281.018 141.881 281.144 141.604 281.395C141.326 281.646 141.17 281.967 141.136 282.357H139.771C139.797 281.837 139.935 281.382 140.187 280.992C140.438 280.602 140.78 280.299 141.214 280.082C141.647 279.857 142.15 279.744 142.722 279.744C143.346 279.744 143.866 279.852 144.282 280.069C144.698 280.277 145.01 280.559 145.218 280.914C145.426 281.269 145.53 281.668 145.53 282.11C145.53 282.561 145.395 282.951 145.127 283.28C144.867 283.601 144.55 283.835 144.178 283.982V284.06C144.68 284.199 145.092 284.459 145.413 284.84C145.742 285.213 145.907 285.715 145.907 286.348C145.907 286.859 145.781 287.332 145.53 287.765C145.287 288.19 144.927 288.528 144.451 288.779C143.983 289.03 143.411 289.156 142.735 289.156ZM150.451 289.156C149.819 289.156 149.268 289.039 148.8 288.805C148.332 288.571 147.964 288.25 147.695 287.843C147.435 287.436 147.284 286.976 147.24 286.465H148.644C148.731 286.89 148.93 287.232 149.242 287.492C149.563 287.752 149.97 287.882 150.464 287.882C151.045 287.882 151.504 287.7 151.842 287.336C152.18 286.963 152.349 286.487 152.349 285.906C152.349 285.291 152.176 284.814 151.829 284.476C151.483 284.138 151.041 283.969 150.503 283.969C150.07 283.969 149.702 284.069 149.398 284.268C149.095 284.467 148.857 284.719 148.683 285.022H147.357L148.137 279.9H153.09V281.174H149.203L148.761 283.501H148.852C149.034 283.293 149.277 283.12 149.58 282.981C149.892 282.842 150.261 282.773 150.685 282.773C151.309 282.773 151.842 282.907 152.284 283.176C152.735 283.445 153.082 283.817 153.324 284.294C153.567 284.762 153.688 285.295 153.688 285.893C153.688 286.5 153.554 287.05 153.285 287.544C153.025 288.038 152.653 288.432 152.167 288.727C151.682 289.013 151.11 289.156 150.451 289.156ZM159.26 289V287.037H154.944V285.958L159.013 279.9H160.638V285.789H161.821V287.037H160.638V289H159.26ZM156.478 285.789H159.338V281.447L156.478 285.789ZM166.236 289.156C165.595 289.156 165.053 289.039 164.611 288.805C164.169 288.562 163.81 288.237 163.532 287.83C163.264 287.423 163.064 286.959 162.934 286.439C162.813 285.91 162.752 285.356 162.752 284.775C162.752 283.77 162.891 282.89 163.168 282.136C163.454 281.382 163.862 280.797 164.39 280.381C164.919 279.956 165.556 279.744 166.301 279.744C166.917 279.744 167.432 279.857 167.848 280.082C168.273 280.299 168.602 280.602 168.836 280.992C169.079 281.373 169.226 281.811 169.278 282.305H167.991C167.905 281.898 167.71 281.577 167.406 281.343C167.103 281.109 166.73 280.992 166.288 280.992C165.708 280.992 165.205 281.269 164.78 281.824C164.356 282.37 164.117 283.228 164.065 284.398H164.143C164.325 284.069 164.611 283.778 165.001 283.527C165.4 283.276 165.872 283.15 166.418 283.15C166.947 283.15 167.428 283.276 167.861 283.527C168.295 283.77 168.637 284.112 168.888 284.554C169.148 284.996 169.278 285.507 169.278 286.088C169.278 286.634 169.153 287.141 168.901 287.609C168.659 288.077 168.308 288.454 167.848 288.74C167.398 289.017 166.86 289.156 166.236 289.156ZM166.145 287.908C166.674 287.908 167.099 287.743 167.419 287.414C167.749 287.085 167.913 286.664 167.913 286.153C167.913 285.642 167.749 285.221 167.419 284.892C167.099 284.554 166.674 284.385 166.145 284.385C165.617 284.385 165.183 284.55 164.845 284.879C164.516 285.208 164.351 285.629 164.351 286.14C164.351 286.643 164.516 287.063 164.845 287.401C165.183 287.739 165.617 287.908 166.145 287.908ZM173.914 289.156C173.316 289.156 172.775 289.043 172.289 288.818C171.804 288.593 171.418 288.263 171.132 287.83C170.846 287.388 170.69 286.855 170.664 286.231H172.042C172.068 286.708 172.242 287.102 172.562 287.414C172.892 287.726 173.342 287.882 173.914 287.882C174.478 287.882 174.92 287.743 175.24 287.466C175.561 287.189 175.721 286.807 175.721 286.322C175.721 285.785 175.526 285.39 175.136 285.139C174.746 284.888 174.27 284.762 173.706 284.762H172.9V283.54H173.589C174.101 283.54 174.521 283.436 174.85 283.228C175.18 283.02 175.344 282.695 175.344 282.253C175.344 281.872 175.219 281.573 174.967 281.356C174.716 281.131 174.361 281.018 173.901 281.018C173.433 281.018 173.061 281.144 172.783 281.395C172.506 281.646 172.35 281.967 172.315 282.357H170.95C170.976 281.837 171.115 281.382 171.366 280.992C171.618 280.602 171.96 280.299 172.393 280.082C172.827 279.857 173.329 279.744 173.901 279.744C174.525 279.744 175.045 279.852 175.461 280.069C175.877 280.277 176.189 280.559 176.397 280.914C176.605 281.269 176.709 281.668 176.709 282.11C176.709 282.561 176.575 282.951 176.306 283.28C176.046 283.601 175.73 283.835 175.357 283.982V284.06C175.86 284.199 176.272 284.459 176.592 284.84C176.922 285.213 177.086 285.715 177.086 286.348C177.086 286.859 176.961 287.332 176.709 287.765C176.467 288.19 176.107 288.528 175.63 288.779C175.162 289.03 174.59 289.156 173.914 289.156ZM182.645 289V287.037H178.329V285.958L182.398 279.9H184.023V285.789H185.206V287.037H184.023V289H182.645ZM179.863 285.789H182.723V281.447L179.863 285.789ZM189.439 289.156C188.737 289.156 188.122 288.965 187.593 288.584C187.073 288.203 186.67 287.661 186.384 286.959C186.098 286.248 185.955 285.412 185.955 284.45C185.955 283.479 186.098 282.643 186.384 281.941C186.67 281.239 187.073 280.697 187.593 280.316C188.122 279.935 188.737 279.744 189.439 279.744C190.15 279.744 190.765 279.935 191.285 280.316C191.805 280.697 192.208 281.239 192.494 281.941C192.78 282.643 192.923 283.479 192.923 284.45C192.923 285.412 192.78 286.248 192.494 286.959C192.208 287.661 191.805 288.203 191.285 288.584C190.765 288.965 190.15 289.156 189.439 289.156ZM187.359 284.45C187.359 284.935 187.402 285.377 187.489 285.776C187.576 286.175 187.697 286.521 187.853 286.816L190.128 281.187C189.911 281.083 189.682 281.031 189.439 281.031C188.832 281.031 188.334 281.339 187.944 281.954C187.554 282.561 187.359 283.393 187.359 284.45ZM189.439 287.882C189.846 287.882 190.206 287.743 190.518 287.466C190.83 287.189 191.073 286.794 191.246 286.283C191.428 285.763 191.519 285.152 191.519 284.45C191.519 283.965 191.476 283.523 191.389 283.124C191.302 282.725 191.181 282.383 191.025 282.097L188.75 287.726C188.967 287.83 189.196 287.882 189.439 287.882ZM195.414 289L198.859 281.148H194.101V279.9H200.276V280.966L196.857 289H195.414ZM205.12 289.156C204.522 289.156 203.985 289.017 203.508 288.74C203.04 288.463 202.672 288.073 202.403 287.57C202.134 287.059 202 286.461 202 285.776C202 285.091 202.134 284.498 202.403 283.995C202.68 283.492 203.053 283.102 203.521 282.825C203.989 282.539 204.522 282.396 205.12 282.396C205.943 282.396 206.606 282.604 207.109 283.02C207.62 283.427 207.945 283.991 208.084 284.71H206.641C206.554 284.398 206.377 284.151 206.108 283.969C205.848 283.787 205.514 283.696 205.107 283.696C204.812 283.696 204.531 283.774 204.262 283.93C204.002 284.086 203.79 284.32 203.625 284.632C203.469 284.935 203.391 285.317 203.391 285.776C203.391 286.227 203.469 286.608 203.625 286.92C203.79 287.232 204.002 287.47 204.262 287.635C204.531 287.791 204.812 287.869 205.107 287.869C205.523 287.869 205.857 287.778 206.108 287.596C206.359 287.414 206.537 287.163 206.641 286.842H208.084C207.911 287.553 207.573 288.116 207.07 288.532C206.567 288.948 205.917 289.156 205.12 289.156ZM213.825 289V287.037H209.509V285.958L213.578 279.9H215.203V285.789H216.386V287.037H215.203V289H213.825ZM211.043 285.789H213.903V281.447L211.043 285.789Z" fill="#A8A29E"/>
<g filter="url(#filter2_d_228_2980)">
<rect x="37" y="215" width="210" height="30" rx="15" fill="white" shape-rendering="crispEdges"/>
<rect x="35.5" y="213.5" width="213" height="33" rx="16.5" stroke="white" stroke-opacity="0.4" stroke-width="3" shape-rendering="crispEdges"/>
</g>
<g clip-path="url(#clip2_228_2980)">
<path d="M76.8264 227.806C76.757 227.749 76.1286 227.272 74.78 227.272C74.4311 227.272 74.0699 227.306 73.721 227.365C73.466 225.585 71.9888 224.724 71.9296 224.679L71.5685 224.469L71.3359 224.805C71.0462 225.259 70.8238 225.771 70.6973 226.294C70.4524 227.306 70.6034 228.26 71.1155 229.074C70.4994 229.423 69.4996 229.505 69.2895 229.517H52.7772C52.3467 229.517 51.9978 229.866 51.9978 230.297C51.9753 231.74 52.2181 233.182 52.718 234.543C53.2872 236.032 54.136 237.138 55.2296 237.812C56.462 238.567 58.4737 238.998 60.7405 238.998C61.7627 238.998 62.787 238.904 63.799 238.718C65.2068 238.463 66.5554 237.973 67.798 237.265C68.8222 236.671 69.7404 235.915 70.5198 235.031C71.8337 233.553 72.6131 231.902 73.1824 230.436C73.264 230.436 73.3334 230.436 73.415 230.436C74.8452 230.436 75.7287 229.866 76.2163 229.376C76.5428 229.074 76.7856 228.701 76.9611 228.282L77.0651 227.98L76.8264 227.806ZM66.6064 229.039H68.8161C68.9202 229.039 69.014 228.958 69.014 228.841V226.863C69.014 226.759 68.9324 226.665 68.8161 226.665H66.6064C66.5024 226.665 66.4085 226.747 66.4085 226.863V228.841C66.4208 228.958 66.5024 229.039 66.6064 229.039ZM63.5256 223.374H65.7352C65.8393 223.374 65.9331 223.293 65.9331 223.176V221.198C65.9331 221.094 65.8393 221 65.7352 221H63.5256C63.4215 221 63.3276 221.082 63.3276 221.198V223.176C63.3276 223.28 63.4195 223.374 63.5256 223.374ZM63.5256 226.212H65.7352C65.8393 226.212 65.9331 226.118 65.9331 226.014V224.036C65.9331 223.932 65.8393 223.838 65.7352 223.838H63.5256C63.4215 223.838 63.3276 223.919 63.3276 224.036V226.014C63.3276 226.12 63.4195 226.212 63.5256 226.212ZM60.4671 226.212H62.6768C62.7808 226.212 62.8747 226.118 62.8747 226.014V224.036C62.8747 223.932 62.7931 223.838 62.6768 223.838H60.4671C60.3631 223.838 60.2692 223.919 60.2692 224.036V226.014C60.2692 226.12 60.3508 226.212 60.4671 226.212ZM57.3618 226.212H59.5714C59.6755 226.212 59.7693 226.118 59.7693 226.014V224.036C59.7693 223.932 59.6877 223.838 59.5714 223.838H57.3618C57.2577 223.838 57.1638 223.919 57.1638 224.036V226.014C57.1761 226.12 57.2577 226.212 57.3618 226.212ZM63.5256 229.039H65.7352C65.8393 229.039 65.9331 228.958 65.9331 228.841V226.863C65.9331 226.759 65.8515 226.665 65.7352 226.665H63.5256C63.4215 226.665 63.3276 226.747 63.3276 226.863V228.841C63.3276 228.958 63.4195 229.039 63.5256 229.039ZM60.4671 229.039H62.6768C62.7808 229.039 62.8747 228.958 62.8747 228.841V226.863C62.8747 226.759 62.7931 226.665 62.6768 226.665H60.4671C60.3631 226.665 60.2692 226.747 60.2692 226.863V228.841C60.2692 228.958 60.3508 229.039 60.4671 229.039ZM57.3618 229.039H59.5714C59.6755 229.039 59.7693 228.958 59.7693 228.841V226.863C59.7693 226.759 59.6877 226.665 59.5714 226.665H57.3618C57.2577 226.665 57.1638 226.747 57.1638 226.863V228.841C57.1761 228.958 57.2577 229.039 57.3618 229.039ZM54.3156 229.039H56.5252C56.6293 229.039 56.7231 228.958 56.7231 228.841V226.863C56.7231 226.759 56.6415 226.665 56.5252 226.665H54.3156C54.2115 226.665 54.1177 226.747 54.1177 226.863V228.841C54.1299 228.958 54.2115 229.039 54.3156 229.039Z" fill="#0091E2"/>
</g>
<path d="M96.082 235.156C95.4407 235.156 94.899 235.039 94.457 234.805C94.015 234.562 93.6553 234.237 93.378 233.83C93.1093 233.423 92.91 232.959 92.78 232.439C92.6587 231.91 92.598 231.356 92.598 230.775C92.598 229.77 92.7367 228.89 93.014 228.136C93.3 227.382 93.7073 226.797 94.236 226.381C94.7647 225.956 95.4017 225.744 96.147 225.744C96.7623 225.744 97.278 225.857 97.694 226.082C98.1187 226.299 98.448 226.602 98.682 226.992C98.9247 227.373 99.072 227.811 99.124 228.305H97.837C97.7503 227.898 97.5553 227.577 97.252 227.343C96.9487 227.109 96.576 226.992 96.134 226.992C95.5533 226.992 95.0507 227.269 94.626 227.824C94.2013 228.37 93.963 229.228 93.911 230.398H93.989C94.171 230.069 94.457 229.778 94.847 229.527C95.2457 229.276 95.718 229.15 96.264 229.15C96.7927 229.15 97.2737 229.276 97.707 229.527C98.1403 229.77 98.4827 230.112 98.734 230.554C98.994 230.996 99.124 231.507 99.124 232.088C99.124 232.634 98.9983 233.141 98.747 233.609C98.5043 234.077 98.1533 234.454 97.694 234.74C97.2433 235.017 96.706 235.156 96.082 235.156ZM95.991 233.908C96.5197 233.908 96.9443 233.743 97.265 233.414C97.5943 233.085 97.759 232.664 97.759 232.153C97.759 231.642 97.5943 231.221 97.265 230.892C96.9443 230.554 96.5197 230.385 95.991 230.385C95.4623 230.385 95.029 230.55 94.691 230.879C94.3617 231.208 94.197 231.629 94.197 232.14C94.197 232.643 94.3617 233.063 94.691 233.401C95.029 233.739 95.4623 233.908 95.991 233.908ZM100.653 235V233.765H102.902V227.525L100.757 227.915V226.797L103.435 225.9H104.28V233.765H106.698V235H100.653ZM111.672 235.156C111.031 235.156 110.489 235.039 110.047 234.805C109.605 234.562 109.245 234.237 108.968 233.83C108.699 233.423 108.5 232.959 108.37 232.439C108.249 231.91 108.188 231.356 108.188 230.775C108.188 229.77 108.327 228.89 108.604 228.136C108.89 227.382 109.297 226.797 109.826 226.381C110.355 225.956 110.992 225.744 111.737 225.744C112.352 225.744 112.868 225.857 113.284 226.082C113.709 226.299 114.038 226.602 114.272 226.992C114.515 227.373 114.662 227.811 114.714 228.305H113.427C113.34 227.898 113.145 227.577 112.842 227.343C112.539 227.109 112.166 226.992 111.724 226.992C111.143 226.992 110.641 227.269 110.216 227.824C109.791 228.37 109.553 229.228 109.501 230.398H109.579C109.761 230.069 110.047 229.778 110.437 229.527C110.836 229.276 111.308 229.15 111.854 229.15C112.383 229.15 112.864 229.276 113.297 229.527C113.73 229.77 114.073 230.112 114.324 230.554C114.584 230.996 114.714 231.507 114.714 232.088C114.714 232.634 114.588 233.141 114.337 233.609C114.094 234.077 113.743 234.454 113.284 234.74C112.833 235.017 112.296 235.156 111.672 235.156ZM111.581 233.908C112.11 233.908 112.534 233.743 112.855 233.414C113.184 233.085 113.349 232.664 113.349 232.153C113.349 231.642 113.184 231.221 112.855 230.892C112.534 230.554 112.11 230.385 111.581 230.385C111.052 230.385 110.619 230.55 110.281 230.879C109.952 231.208 109.787 231.629 109.787 232.14C109.787 232.643 109.952 233.063 110.281 233.401C110.619 233.739 111.052 233.908 111.581 233.908ZM119.376 235.156C118.778 235.156 118.24 235.017 117.764 234.74C117.296 234.463 116.927 234.073 116.659 233.57C116.39 233.059 116.256 232.461 116.256 231.776C116.256 231.091 116.39 230.498 116.659 229.995C116.936 229.492 117.309 229.102 117.777 228.825C118.245 228.539 118.778 228.396 119.376 228.396C120.199 228.396 120.862 228.604 121.365 229.02C121.876 229.427 122.201 229.991 122.34 230.71H120.897C120.81 230.398 120.632 230.151 120.364 229.969C120.104 229.787 119.77 229.696 119.363 229.696C119.068 229.696 118.786 229.774 118.518 229.93C118.258 230.086 118.045 230.32 117.881 230.632C117.725 230.935 117.647 231.317 117.647 231.776C117.647 232.227 117.725 232.608 117.881 232.92C118.045 233.232 118.258 233.47 118.518 233.635C118.786 233.791 119.068 233.869 119.363 233.869C119.779 233.869 120.112 233.778 120.364 233.596C120.615 233.414 120.793 233.163 120.897 232.842H122.34C122.166 233.553 121.828 234.116 121.326 234.532C120.823 234.948 120.173 235.156 119.376 235.156ZM124.09 235V233.908C124.982 233.197 125.762 232.543 126.43 231.945C127.106 231.347 127.634 230.771 128.016 230.216C128.397 229.661 128.588 229.098 128.588 228.526C128.588 228.049 128.453 227.677 128.185 227.408C127.916 227.131 127.552 226.992 127.093 226.992C126.564 226.992 126.157 227.161 125.871 227.499C125.585 227.828 125.442 228.223 125.442 228.682H124.103C124.111 228.041 124.246 227.503 124.506 227.07C124.766 226.637 125.117 226.307 125.559 226.082C126.009 225.857 126.521 225.744 127.093 225.744C128.02 225.744 128.735 225.995 129.238 226.498C129.74 226.992 129.992 227.655 129.992 228.487C129.992 229.016 129.875 229.527 129.641 230.021C129.415 230.506 129.116 230.97 128.744 231.412C128.371 231.854 127.955 232.274 127.496 232.673C127.045 233.072 126.59 233.453 126.131 233.817H130.239V235H124.09ZM134.862 235.156C134.229 235.156 133.679 235.039 133.211 234.805C132.743 234.571 132.374 234.25 132.106 233.843C131.846 233.436 131.694 232.976 131.651 232.465H133.055C133.141 232.89 133.341 233.232 133.653 233.492C133.973 233.752 134.381 233.882 134.875 233.882C135.455 233.882 135.915 233.7 136.253 233.336C136.591 232.963 136.76 232.487 136.76 231.906C136.76 231.291 136.586 230.814 136.24 230.476C135.893 230.138 135.451 229.969 134.914 229.969C134.48 229.969 134.112 230.069 133.809 230.268C133.505 230.467 133.267 230.719 133.094 231.022H131.768L132.548 225.9H137.501V227.174H133.614L133.172 229.501H133.263C133.445 229.293 133.687 229.12 133.991 228.981C134.303 228.842 134.671 228.773 135.096 228.773C135.72 228.773 136.253 228.907 136.695 229.176C137.145 229.445 137.492 229.817 137.735 230.294C137.977 230.762 138.099 231.295 138.099 231.893C138.099 232.5 137.964 233.05 137.696 233.544C137.436 234.038 137.063 234.432 136.578 234.727C136.092 235.013 135.52 235.156 134.862 235.156ZM143.021 235.156C142.544 235.156 142.141 235.061 141.812 234.87C141.491 234.671 141.244 234.398 141.071 234.051H140.993L140.876 235H139.693V225.64H141.071V229.384C141.227 229.124 141.474 228.894 141.812 228.695C142.15 228.496 142.553 228.396 143.021 228.396C143.558 228.396 144.039 228.526 144.464 228.786C144.888 229.037 145.222 229.414 145.465 229.917C145.716 230.42 145.842 231.039 145.842 231.776C145.842 232.513 145.716 233.132 145.465 233.635C145.222 234.138 144.888 234.519 144.464 234.779C144.039 235.03 143.558 235.156 143.021 235.156ZM142.735 233.843C143.229 233.843 143.636 233.674 143.957 233.336C144.286 232.989 144.451 232.474 144.451 231.789C144.451 231.096 144.286 230.576 143.957 230.229C143.636 229.882 143.229 229.709 142.735 229.709C142.241 229.709 141.829 229.882 141.5 230.229C141.179 230.567 141.019 231.083 141.019 231.776C141.019 232.461 141.179 232.976 141.5 233.323C141.829 233.67 142.241 233.843 142.735 233.843ZM150.113 235.156C149.576 235.156 149.095 235.03 148.67 234.779C148.246 234.519 147.908 234.138 147.656 233.635C147.414 233.132 147.292 232.513 147.292 231.776C147.292 231.039 147.418 230.42 147.669 229.917C147.921 229.414 148.259 229.037 148.683 228.786C149.117 228.526 149.598 228.396 150.126 228.396C150.62 228.396 151.028 228.491 151.348 228.682C151.669 228.864 151.907 229.098 152.063 229.384V225.64H153.441V235H152.258L152.141 234.051H152.063C151.89 234.389 151.643 234.658 151.322 234.857C151.01 235.056 150.607 235.156 150.113 235.156ZM150.399 233.843C150.893 233.843 151.301 233.67 151.621 233.323C151.951 232.976 152.115 232.461 152.115 231.776C152.115 231.083 151.951 230.567 151.621 230.229C151.301 229.882 150.893 229.709 150.399 229.709C149.905 229.709 149.494 229.882 149.164 230.229C148.844 230.576 148.683 231.096 148.683 231.789C148.683 232.474 148.844 232.989 149.164 233.336C149.494 233.674 149.905 233.843 150.399 233.843ZM159.26 235V233.037H154.944V231.958L159.013 225.9H160.638V231.789H161.821V233.037H160.638V235H159.26ZM156.478 231.789H159.338V227.447L156.478 231.789ZM166.119 235.156C165.521 235.156 164.98 235.043 164.494 234.818C164.009 234.593 163.623 234.263 163.337 233.83C163.051 233.388 162.895 232.855 162.869 232.231H164.247C164.273 232.708 164.447 233.102 164.767 233.414C165.097 233.726 165.547 233.882 166.119 233.882C166.683 233.882 167.125 233.743 167.445 233.466C167.766 233.189 167.926 232.807 167.926 232.322C167.926 231.785 167.731 231.39 167.341 231.139C166.951 230.888 166.475 230.762 165.911 230.762H165.105V229.54H165.794C166.306 229.54 166.726 229.436 167.055 229.228C167.385 229.02 167.549 228.695 167.549 228.253C167.549 227.872 167.424 227.573 167.172 227.356C166.921 227.131 166.566 227.018 166.106 227.018C165.638 227.018 165.266 227.144 164.988 227.395C164.711 227.646 164.555 227.967 164.52 228.357H163.155C163.181 227.837 163.32 227.382 163.571 226.992C163.823 226.602 164.165 226.299 164.598 226.082C165.032 225.857 165.534 225.744 166.106 225.744C166.73 225.744 167.25 225.852 167.666 226.069C168.082 226.277 168.394 226.559 168.602 226.914C168.81 227.269 168.914 227.668 168.914 228.11C168.914 228.561 168.78 228.951 168.511 229.28C168.251 229.601 167.935 229.835 167.562 229.982V230.06C168.065 230.199 168.477 230.459 168.797 230.84C169.127 231.213 169.291 231.715 169.291 232.348C169.291 232.859 169.166 233.332 168.914 233.765C168.672 234.19 168.312 234.528 167.835 234.779C167.367 235.03 166.795 235.156 166.119 235.156ZM173.849 235.156C173.225 235.156 172.675 235.039 172.198 234.805C171.73 234.571 171.362 234.25 171.093 233.843C170.825 233.436 170.69 232.968 170.69 232.439C170.69 231.876 170.838 231.403 171.132 231.022C171.436 230.632 171.774 230.363 172.146 230.216V230.138C171.791 229.956 171.501 229.7 171.275 229.371C171.05 229.042 170.937 228.643 170.937 228.175C170.937 227.733 171.054 227.33 171.288 226.966C171.522 226.593 171.856 226.299 172.289 226.082C172.723 225.857 173.243 225.744 173.849 225.744C174.447 225.744 174.963 225.857 175.396 226.082C175.83 226.299 176.163 226.593 176.397 226.966C176.64 227.33 176.761 227.733 176.761 228.175C176.761 228.643 176.649 229.042 176.423 229.371C176.198 229.7 175.908 229.956 175.552 230.138V230.216C175.934 230.363 176.272 230.632 176.566 231.022C176.861 231.403 177.008 231.876 177.008 232.439C177.008 232.968 176.874 233.436 176.605 233.843C176.345 234.25 175.977 234.571 175.5 234.805C175.024 235.039 174.473 235.156 173.849 235.156ZM173.849 229.657C174.335 229.657 174.716 229.531 174.993 229.28C175.279 229.029 175.422 228.704 175.422 228.305C175.422 227.906 175.279 227.581 174.993 227.33C174.716 227.079 174.335 226.953 173.849 226.953C173.364 226.953 172.978 227.079 172.692 227.33C172.415 227.581 172.276 227.906 172.276 228.305C172.276 228.704 172.415 229.029 172.692 229.28C172.978 229.531 173.364 229.657 173.849 229.657ZM173.849 233.908C174.387 233.908 174.82 233.774 175.149 233.505C175.479 233.228 175.643 232.842 175.643 232.348C175.643 231.854 175.479 231.473 175.149 231.204C174.82 230.927 174.387 230.788 173.849 230.788C173.312 230.788 172.879 230.927 172.549 231.204C172.22 231.473 172.055 231.854 172.055 232.348C172.055 232.842 172.22 233.228 172.549 233.505C172.879 233.774 173.312 233.908 173.849 233.908ZM178.654 235V233.908C179.547 233.197 180.327 232.543 180.994 231.945C181.67 231.347 182.199 230.771 182.58 230.216C182.961 229.661 183.152 229.098 183.152 228.526C183.152 228.049 183.018 227.677 182.749 227.408C182.48 227.131 182.116 226.992 181.657 226.992C181.128 226.992 180.721 227.161 180.435 227.499C180.149 227.828 180.006 228.223 180.006 228.682H178.667C178.676 228.041 178.81 227.503 179.07 227.07C179.33 226.637 179.681 226.307 180.123 226.082C180.574 225.857 181.085 225.744 181.657 225.744C182.584 225.744 183.299 225.995 183.802 226.498C184.305 226.992 184.556 227.655 184.556 228.487C184.556 229.016 184.439 229.527 184.205 230.021C183.98 230.506 183.681 230.97 183.308 231.412C182.935 231.854 182.519 232.274 182.06 232.673C181.609 233.072 181.154 233.453 180.695 233.817H184.803V235H178.654ZM188.854 235.156C188.343 235.156 187.914 235.069 187.567 234.896C187.22 234.714 186.96 234.476 186.787 234.181C186.614 233.878 186.527 233.548 186.527 233.193C186.527 232.56 186.757 232.066 187.216 231.711C187.684 231.356 188.343 231.178 189.192 231.178H190.856V231.035C190.856 230.064 190.405 229.579 189.504 229.579C189.131 229.579 188.815 229.661 188.555 229.826C188.304 229.982 188.135 230.238 188.048 230.593H186.67C186.739 229.917 187.03 229.384 187.541 228.994C188.061 228.595 188.715 228.396 189.504 228.396C190.457 228.396 191.151 228.63 191.584 229.098C192.017 229.566 192.234 230.212 192.234 231.035V235H191.064L190.947 234.051H190.856C190.665 234.354 190.427 234.614 190.141 234.831C189.855 235.048 189.426 235.156 188.854 235.156ZM189.114 233.999C189.677 233.999 190.098 233.83 190.375 233.492C190.661 233.145 190.817 232.708 190.843 232.179H189.335C188.841 232.179 188.49 232.261 188.282 232.426C188.083 232.582 187.983 232.803 187.983 233.089C187.983 233.375 188.083 233.6 188.282 233.765C188.49 233.921 188.767 233.999 189.114 233.999ZM194.231 237.86V236.651H195.284C195.587 236.651 195.804 236.586 195.934 236.456C196.073 236.335 196.142 236.127 196.142 235.832V229.722H194.504V228.552H196.142V227.655C196.142 226.936 196.32 226.42 196.675 226.108C197.03 225.796 197.537 225.64 198.196 225.64H199.769V226.849H198.365C198.062 226.849 197.845 226.91 197.715 227.031C197.585 227.152 197.52 227.365 197.52 227.668V228.552H199.769V229.722H197.52V235.845C197.52 236.564 197.342 237.08 196.987 237.392C196.632 237.704 196.12 237.86 195.453 237.86H194.231ZM205.016 235.156C204.383 235.156 203.833 235.039 203.365 234.805C202.897 234.571 202.529 234.25 202.26 233.843C202 233.436 201.848 232.976 201.805 232.465H203.209C203.296 232.89 203.495 233.232 203.807 233.492C204.128 233.752 204.535 233.882 205.029 233.882C205.61 233.882 206.069 233.7 206.407 233.336C206.745 232.963 206.914 232.487 206.914 231.906C206.914 231.291 206.741 230.814 206.394 230.476C206.047 230.138 205.605 229.969 205.068 229.969C204.635 229.969 204.266 230.069 203.963 230.268C203.66 230.467 203.421 230.719 203.248 231.022H201.922L202.702 225.9H207.655V227.174H203.768L203.326 229.501H203.417C203.599 229.293 203.842 229.12 204.145 228.981C204.457 228.842 204.825 228.773 205.25 228.773C205.874 228.773 206.407 228.907 206.849 229.176C207.3 229.445 207.646 229.817 207.889 230.294C208.132 230.762 208.253 231.295 208.253 231.893C208.253 232.5 208.119 233.05 207.85 233.544C207.59 234.038 207.217 234.432 206.732 234.727C206.247 235.013 205.675 235.156 205.016 235.156ZM212.915 235.156C212.317 235.156 211.779 235.017 211.303 234.74C210.835 234.463 210.466 234.073 210.198 233.57C209.929 233.059 209.795 232.461 209.795 231.776C209.795 231.091 209.929 230.498 210.198 229.995C210.475 229.492 210.848 229.102 211.316 228.825C211.784 228.539 212.317 228.396 212.915 228.396C213.738 228.396 214.401 228.604 214.904 229.02C215.415 229.427 215.74 229.991 215.879 230.71H214.436C214.349 230.398 214.171 230.151 213.903 229.969C213.643 229.787 213.309 229.696 212.902 229.696C212.607 229.696 212.325 229.774 212.057 229.93C211.797 230.086 211.584 230.32 211.42 230.632C211.264 230.935 211.186 231.317 211.186 231.776C211.186 232.227 211.264 232.608 211.42 232.92C211.584 233.232 211.797 233.47 212.057 233.635C212.325 233.791 212.607 233.869 212.902 233.869C213.318 233.869 213.651 233.778 213.903 233.596C214.154 233.414 214.332 233.163 214.436 232.842H215.879C215.705 233.553 215.367 234.116 214.865 234.532C214.362 234.948 213.712 235.156 212.915 235.156Z" fill="#A8A29E"/>
<g filter="url(#filter3_d_228_2980)">
<rect x="37" y="161" width="210" height="30" rx="15" fill="white" shape-rendering="crispEdges"/>
<rect x="35.5" y="159.5" width="213" height="33" rx="16.5" stroke="white" stroke-opacity="0.4" stroke-width="3" shape-rendering="crispEdges"/>
</g>
<g clip-path="url(#clip3_228_2980)">
<path d="M76.8264 173.806C76.757 173.749 76.1286 173.272 74.78 173.272C74.4311 173.272 74.0699 173.306 73.721 173.365C73.466 171.585 71.9888 170.724 71.9296 170.679L71.5685 170.469L71.3359 170.805C71.0462 171.259 70.8238 171.771 70.6973 172.294C70.4524 173.306 70.6034 174.26 71.1155 175.074C70.4994 175.423 69.4996 175.505 69.2895 175.517H52.7772C52.3467 175.517 51.9978 175.866 51.9978 176.297C51.9753 177.74 52.2181 179.182 52.718 180.543C53.2872 182.032 54.136 183.138 55.2296 183.812C56.462 184.567 58.4737 184.998 60.7405 184.998C61.7627 184.998 62.787 184.904 63.799 184.718C65.2068 184.463 66.5554 183.973 67.798 183.265C68.8222 182.671 69.7404 181.915 70.5198 181.031C71.8337 179.553 72.6131 177.902 73.1824 176.436C73.264 176.436 73.3334 176.436 73.415 176.436C74.8452 176.436 75.7287 175.866 76.2163 175.376C76.5428 175.074 76.7856 174.701 76.9611 174.282L77.0651 173.98L76.8264 173.806ZM66.6064 175.039H68.8161C68.9202 175.039 69.014 174.958 69.014 174.841V172.863C69.014 172.759 68.9324 172.665 68.8161 172.665H66.6064C66.5024 172.665 66.4085 172.747 66.4085 172.863V174.841C66.4208 174.958 66.5024 175.039 66.6064 175.039ZM63.5256 169.374H65.7352C65.8393 169.374 65.9331 169.293 65.9331 169.176V167.198C65.9331 167.094 65.8393 167 65.7352 167H63.5256C63.4215 167 63.3276 167.082 63.3276 167.198V169.176C63.3276 169.28 63.4195 169.374 63.5256 169.374ZM63.5256 172.212H65.7352C65.8393 172.212 65.9331 172.118 65.9331 172.014V170.036C65.9331 169.932 65.8393 169.838 65.7352 169.838H63.5256C63.4215 169.838 63.3276 169.919 63.3276 170.036V172.014C63.3276 172.12 63.4195 172.212 63.5256 172.212ZM60.4671 172.212H62.6768C62.7808 172.212 62.8747 172.118 62.8747 172.014V170.036C62.8747 169.932 62.7931 169.838 62.6768 169.838H60.4671C60.3631 169.838 60.2692 169.919 60.2692 170.036V172.014C60.2692 172.12 60.3508 172.212 60.4671 172.212ZM57.3618 172.212H59.5714C59.6755 172.212 59.7693 172.118 59.7693 172.014V170.036C59.7693 169.932 59.6877 169.838 59.5714 169.838H57.3618C57.2577 169.838 57.1638 169.919 57.1638 170.036V172.014C57.1761 172.12 57.2577 172.212 57.3618 172.212ZM63.5256 175.039H65.7352C65.8393 175.039 65.9331 174.958 65.9331 174.841V172.863C65.9331 172.759 65.8515 172.665 65.7352 172.665H63.5256C63.4215 172.665 63.3276 172.747 63.3276 172.863V174.841C63.3276 174.958 63.4195 175.039 63.5256 175.039ZM60.4671 175.039H62.6768C62.7808 175.039 62.8747 174.958 62.8747 174.841V172.863C62.8747 172.759 62.7931 172.665 62.6768 172.665H60.4671C60.3631 172.665 60.2692 172.747 60.2692 172.863V174.841C60.2692 174.958 60.3508 175.039 60.4671 175.039ZM57.3618 175.039H59.5714C59.6755 175.039 59.7693 174.958 59.7693 174.841V172.863C59.7693 172.759 59.6877 172.665 59.5714 172.665H57.3618C57.2577 172.665 57.1638 172.747 57.1638 172.863V174.841C57.1761 174.958 57.2577 175.039 57.3618 175.039ZM54.3156 175.039H56.5252C56.6293 175.039 56.7231 174.958 56.7231 174.841V172.863C56.7231 172.759 56.6415 172.665 56.5252 172.665H54.3156C54.2115 172.665 54.1177 172.747 54.1177 172.863V174.841C54.1299 174.958 54.2115 175.039 54.3156 175.039Z" fill="#0091E2"/>
</g>
<path d="M95.9 181.156C95.276 181.156 94.7257 181.039 94.249 180.805C93.781 180.571 93.4127 180.25 93.144 179.843C92.8753 179.436 92.741 178.968 92.741 178.439C92.741 177.876 92.8883 177.403 93.183 177.022C93.4863 176.632 93.8243 176.363 94.197 176.216V176.138C93.8417 175.956 93.5513 175.7 93.326 175.371C93.1007 175.042 92.988 174.643 92.988 174.175C92.988 173.733 93.105 173.33 93.339 172.966C93.573 172.593 93.9067 172.299 94.34 172.082C94.7733 171.857 95.2933 171.744 95.9 171.744C96.498 171.744 97.0137 171.857 97.447 172.082C97.8803 172.299 98.214 172.593 98.448 172.966C98.6907 173.33 98.812 173.733 98.812 174.175C98.812 174.643 98.6993 175.042 98.474 175.371C98.2487 175.7 97.9583 175.956 97.603 176.138V176.216C97.9843 176.363 98.3223 176.632 98.617 177.022C98.9117 177.403 99.059 177.876 99.059 178.439C99.059 178.968 98.9247 179.436 98.656 179.843C98.396 180.25 98.0277 180.571 97.551 180.805C97.0743 181.039 96.524 181.156 95.9 181.156ZM95.9 175.657C96.3853 175.657 96.7667 175.531 97.044 175.28C97.33 175.029 97.473 174.704 97.473 174.305C97.473 173.906 97.33 173.581 97.044 173.33C96.7667 173.079 96.3853 172.953 95.9 172.953C95.4147 172.953 95.029 173.079 94.743 173.33C94.4657 173.581 94.327 173.906 94.327 174.305C94.327 174.704 94.4657 175.029 94.743 175.28C95.029 175.531 95.4147 175.657 95.9 175.657ZM95.9 179.908C96.4373 179.908 96.8707 179.774 97.2 179.505C97.5293 179.228 97.694 178.842 97.694 178.348C97.694 177.854 97.5293 177.473 97.2 177.204C96.8707 176.927 96.4373 176.788 95.9 176.788C95.3627 176.788 94.9293 176.927 94.6 177.204C94.2707 177.473 94.106 177.854 94.106 178.348C94.106 178.842 94.2707 179.228 94.6 179.505C94.9293 179.774 95.3627 179.908 95.9 179.908ZM103.76 181.156C103.162 181.156 102.62 181.043 102.135 180.818C101.65 180.593 101.264 180.263 100.978 179.83C100.692 179.388 100.536 178.855 100.51 178.231H101.888C101.914 178.708 102.087 179.102 102.408 179.414C102.737 179.726 103.188 179.882 103.76 179.882C104.323 179.882 104.765 179.743 105.086 179.466C105.407 179.189 105.567 178.807 105.567 178.322C105.567 177.785 105.372 177.39 104.982 177.139C104.592 176.888 104.115 176.762 103.552 176.762H102.746V175.54H103.435C103.946 175.54 104.367 175.436 104.696 175.228C105.025 175.02 105.19 174.695 105.19 174.253C105.19 173.872 105.064 173.573 104.813 173.356C104.562 173.131 104.206 173.018 103.747 173.018C103.279 173.018 102.906 173.144 102.629 173.395C102.352 173.646 102.196 173.967 102.161 174.357H100.796C100.822 173.837 100.961 173.382 101.212 172.992C101.463 172.602 101.806 172.299 102.239 172.082C102.672 171.857 103.175 171.744 103.747 171.744C104.371 171.744 104.891 171.852 105.307 172.069C105.723 172.277 106.035 172.559 106.243 172.914C106.451 173.269 106.555 173.668 106.555 174.11C106.555 174.561 106.421 174.951 106.152 175.28C105.892 175.601 105.576 175.835 105.203 175.982V176.06C105.706 176.199 106.117 176.459 106.438 176.84C106.767 177.213 106.932 177.715 106.932 178.348C106.932 178.859 106.806 179.332 106.555 179.765C106.312 180.19 105.953 180.528 105.476 180.779C105.008 181.03 104.436 181.156 103.76 181.156ZM111.568 181.156C110.944 181.156 110.394 181.017 109.917 180.74C109.44 180.454 109.068 180.06 108.799 179.557C108.53 179.054 108.396 178.469 108.396 177.802C108.396 177.126 108.526 176.532 108.786 176.021C109.055 175.51 109.427 175.111 109.904 174.825C110.389 174.539 110.948 174.396 111.581 174.396C112.205 174.396 112.742 174.539 113.193 174.825C113.644 175.102 113.99 175.475 114.233 175.943C114.484 176.411 114.61 176.927 114.61 177.49C114.61 177.577 114.61 177.672 114.61 177.776C114.61 177.871 114.606 177.98 114.597 178.101H109.748C109.791 178.699 109.986 179.154 110.333 179.466C110.68 179.769 111.087 179.921 111.555 179.921C111.962 179.921 112.283 179.839 112.517 179.674C112.76 179.501 112.937 179.267 113.05 178.972H114.441C114.285 179.587 113.96 180.107 113.466 180.532C112.972 180.948 112.339 181.156 111.568 181.156ZM111.568 175.592C111.143 175.592 110.766 175.722 110.437 175.982C110.108 176.233 109.895 176.589 109.8 177.048H113.232C113.197 176.615 113.028 176.264 112.725 175.995C112.422 175.726 112.036 175.592 111.568 175.592ZM119.376 181.156C118.778 181.156 118.24 181.017 117.764 180.74C117.296 180.463 116.927 180.073 116.659 179.57C116.39 179.059 116.256 178.461 116.256 177.776C116.256 177.091 116.39 176.498 116.659 175.995C116.936 175.492 117.309 175.102 117.777 174.825C118.245 174.539 118.778 174.396 119.376 174.396C120.199 174.396 120.862 174.604 121.365 175.02C121.876 175.427 122.201 175.991 122.34 176.71H120.897C120.81 176.398 120.632 176.151 120.364 175.969C120.104 175.787 119.77 175.696 119.363 175.696C119.068 175.696 118.786 175.774 118.518 175.93C118.258 176.086 118.045 176.32 117.881 176.632C117.725 176.935 117.647 177.317 117.647 177.776C117.647 178.227 117.725 178.608 117.881 178.92C118.045 179.232 118.258 179.47 118.518 179.635C118.786 179.791 119.068 179.869 119.363 179.869C119.779 179.869 120.112 179.778 120.364 179.596C120.615 179.414 120.793 179.163 120.897 178.842H122.34C122.166 179.553 121.828 180.116 121.326 180.532C120.823 180.948 120.173 181.156 119.376 181.156ZM127.262 181.156C126.62 181.156 126.079 181.039 125.637 180.805C125.195 180.562 124.835 180.237 124.558 179.83C124.289 179.423 124.09 178.959 123.96 178.439C123.838 177.91 123.778 177.356 123.778 176.775C123.778 175.77 123.916 174.89 124.194 174.136C124.48 173.382 124.887 172.797 125.416 172.381C125.944 171.956 126.581 171.744 127.327 171.744C127.942 171.744 128.458 171.857 128.874 172.082C129.298 172.299 129.628 172.602 129.862 172.992C130.104 173.373 130.252 173.811 130.304 174.305H129.017C128.93 173.898 128.735 173.577 128.432 173.343C128.128 173.109 127.756 172.992 127.314 172.992C126.733 172.992 126.23 173.269 125.806 173.824C125.381 174.37 125.143 175.228 125.091 176.398H125.169C125.351 176.069 125.637 175.778 126.027 175.527C126.425 175.276 126.898 175.15 127.444 175.15C127.972 175.15 128.453 175.276 128.887 175.527C129.32 175.77 129.662 176.112 129.914 176.554C130.174 176.996 130.304 177.507 130.304 178.088C130.304 178.634 130.178 179.141 129.927 179.609C129.684 180.077 129.333 180.454 128.874 180.74C128.423 181.017 127.886 181.156 127.262 181.156ZM127.171 179.908C127.699 179.908 128.124 179.743 128.445 179.414C128.774 179.085 128.939 178.664 128.939 178.153C128.939 177.642 128.774 177.221 128.445 176.892C128.124 176.554 127.699 176.385 127.171 176.385C126.642 176.385 126.209 176.55 125.871 176.879C125.541 177.208 125.377 177.629 125.377 178.14C125.377 178.643 125.541 179.063 125.871 179.401C126.209 179.739 126.642 179.908 127.171 179.908ZM134.953 181.156C134.329 181.156 133.778 181.017 133.302 180.74C132.825 180.454 132.452 180.06 132.184 179.557C131.915 179.054 131.781 178.469 131.781 177.802C131.781 177.126 131.911 176.532 132.171 176.021C132.439 175.51 132.812 175.111 133.289 174.825C133.774 174.539 134.333 174.396 134.966 174.396C135.59 174.396 136.127 174.539 136.578 174.825C137.028 175.102 137.375 175.475 137.618 175.943C137.869 176.411 137.995 176.927 137.995 177.49C137.995 177.577 137.995 177.672 137.995 177.776C137.995 177.871 137.99 177.98 137.982 178.101H133.133C133.176 178.699 133.371 179.154 133.718 179.466C134.064 179.769 134.472 179.921 134.94 179.921C135.347 179.921 135.668 179.839 135.902 179.674C136.144 179.501 136.322 179.267 136.435 178.972H137.826C137.67 179.587 137.345 180.107 136.851 180.532C136.357 180.948 135.724 181.156 134.953 181.156ZM134.953 175.592C134.528 175.592 134.151 175.722 133.822 175.982C133.492 176.233 133.28 176.589 133.185 177.048H136.617C136.582 176.615 136.413 176.264 136.11 175.995C135.806 175.726 135.421 175.592 134.953 175.592ZM143.671 181V179.037H139.355V177.958L143.424 171.9H145.049V177.789H146.232V179.037H145.049V181H143.671ZM140.889 177.789H143.749V173.447L140.889 177.789ZM148.644 181L152.089 173.148H147.331V171.9H153.506V172.966L150.087 181H148.644ZM156.439 181L159.884 173.148H155.126V171.9H161.301V172.966L157.882 181H156.439ZM163.064 181V179.908C163.957 179.197 164.737 178.543 165.404 177.945C166.08 177.347 166.609 176.771 166.99 176.216C167.372 175.661 167.562 175.098 167.562 174.526C167.562 174.049 167.428 173.677 167.159 173.408C166.891 173.131 166.527 172.992 166.067 172.992C165.539 172.992 165.131 173.161 164.845 173.499C164.559 173.828 164.416 174.223 164.416 174.682H163.077C163.086 174.041 163.22 173.503 163.48 173.07C163.74 172.637 164.091 172.307 164.533 172.082C164.984 171.857 165.495 171.744 166.067 171.744C166.995 171.744 167.71 171.995 168.212 172.498C168.715 172.992 168.966 173.655 168.966 174.487C168.966 175.016 168.849 175.527 168.615 176.021C168.39 176.506 168.091 176.97 167.718 177.412C167.346 177.854 166.93 178.274 166.47 178.673C166.02 179.072 165.565 179.453 165.105 179.817H169.213V181H163.064ZM174.2 181.156C173.724 181.156 173.321 181.061 172.991 180.87C172.671 180.671 172.424 180.398 172.25 180.051H172.172L172.055 181H170.872V171.64H172.25V175.384C172.406 175.124 172.653 174.894 172.991 174.695C173.329 174.496 173.732 174.396 174.2 174.396C174.738 174.396 175.219 174.526 175.643 174.786C176.068 175.037 176.402 175.414 176.644 175.917C176.896 176.42 177.021 177.039 177.021 177.776C177.021 178.513 176.896 179.132 176.644 179.635C176.402 180.138 176.068 180.519 175.643 180.779C175.219 181.03 174.738 181.156 174.2 181.156ZM173.914 179.843C174.408 179.843 174.816 179.674 175.136 179.336C175.466 178.989 175.63 178.474 175.63 177.789C175.63 177.096 175.466 176.576 175.136 176.229C174.816 175.882 174.408 175.709 173.914 175.709C173.42 175.709 173.009 175.882 172.679 176.229C172.359 176.567 172.198 177.083 172.198 177.776C172.198 178.461 172.359 178.976 172.679 179.323C173.009 179.67 173.42 179.843 173.914 179.843ZM181.995 181.156C181.518 181.156 181.115 181.061 180.786 180.87C180.465 180.671 180.218 180.398 180.045 180.051H179.967L179.85 181H178.667V171.64H180.045V175.384C180.201 175.124 180.448 174.894 180.786 174.695C181.124 174.496 181.527 174.396 181.995 174.396C182.532 174.396 183.013 174.526 183.438 174.786C183.863 175.037 184.196 175.414 184.439 175.917C184.69 176.42 184.816 177.039 184.816 177.776C184.816 178.513 184.69 179.132 184.439 179.635C184.196 180.138 183.863 180.519 183.438 180.779C183.013 181.03 182.532 181.156 181.995 181.156ZM181.709 179.843C182.203 179.843 182.61 179.674 182.931 179.336C183.26 178.989 183.425 178.474 183.425 177.789C183.425 177.096 183.26 176.576 182.931 176.229C182.61 175.882 182.203 175.709 181.709 175.709C181.215 175.709 180.803 175.882 180.474 176.229C180.153 176.567 179.993 177.083 179.993 177.776C179.993 178.461 180.153 178.976 180.474 179.323C180.803 179.67 181.215 179.843 181.709 179.843ZM189.27 181.156C188.698 181.156 188.195 181.043 187.762 180.818C187.329 180.593 186.982 180.289 186.722 179.908C186.462 179.518 186.306 179.08 186.254 178.595H187.58C187.667 179.002 187.857 179.323 188.152 179.557C188.447 179.791 188.819 179.908 189.27 179.908C189.903 179.908 190.414 179.635 190.804 179.089C191.194 178.534 191.419 177.672 191.48 176.502H191.389C191.172 176.866 190.895 177.165 190.557 177.399C190.219 177.633 189.738 177.75 189.114 177.75C188.594 177.75 188.117 177.629 187.684 177.386C187.251 177.135 186.904 176.788 186.644 176.346C186.384 175.904 186.254 175.393 186.254 174.812C186.254 174.257 186.38 173.75 186.631 173.291C186.882 172.823 187.233 172.45 187.684 172.173C188.143 171.887 188.685 171.744 189.309 171.744C190.106 171.744 190.761 171.926 191.272 172.29C191.783 172.645 192.16 173.152 192.403 173.811C192.654 174.461 192.78 175.232 192.78 176.125C192.78 177.13 192.641 178.01 192.364 178.764C192.095 179.518 191.697 180.107 191.168 180.532C190.648 180.948 190.015 181.156 189.27 181.156ZM189.4 176.515C189.937 176.515 190.366 176.35 190.687 176.021C191.016 175.683 191.181 175.263 191.181 174.76C191.181 174.249 191.016 173.828 190.687 173.499C190.366 173.161 189.937 172.992 189.4 172.992C188.863 172.992 188.429 173.157 188.1 173.486C187.779 173.815 187.619 174.236 187.619 174.747C187.619 175.258 187.779 175.683 188.1 176.021C188.429 176.35 188.863 176.515 189.4 176.515ZM198.235 181V179.037H193.919V177.958L197.988 171.9H199.613V177.789H200.796V179.037H199.613V181H198.235ZM195.453 177.789H198.313V173.447L195.453 177.789ZM205.016 181.156C204.383 181.156 203.833 181.039 203.365 180.805C202.897 180.571 202.529 180.25 202.26 179.843C202 179.436 201.848 178.976 201.805 178.465H203.209C203.296 178.89 203.495 179.232 203.807 179.492C204.128 179.752 204.535 179.882 205.029 179.882C205.61 179.882 206.069 179.7 206.407 179.336C206.745 178.963 206.914 178.487 206.914 177.906C206.914 177.291 206.741 176.814 206.394 176.476C206.047 176.138 205.605 175.969 205.068 175.969C204.635 175.969 204.266 176.069 203.963 176.268C203.66 176.467 203.421 176.719 203.248 177.022H201.922L202.702 171.9H207.655V173.174H203.768L203.326 175.501H203.417C203.599 175.293 203.842 175.12 204.145 174.981C204.457 174.842 204.825 174.773 205.25 174.773C205.874 174.773 206.407 174.907 206.849 175.176C207.3 175.445 207.646 175.817 207.889 176.294C208.132 176.762 208.253 177.295 208.253 177.893C208.253 178.5 208.119 179.05 207.85 179.544C207.59 180.038 207.217 180.432 206.732 180.727C206.247 181.013 205.675 181.156 205.016 181.156ZM213.006 181.156C212.364 181.156 211.823 181.039 211.381 180.805C210.939 180.562 210.579 180.237 210.302 179.83C210.033 179.423 209.834 178.959 209.704 178.439C209.582 177.91 209.522 177.356 209.522 176.775C209.522 175.77 209.66 174.89 209.938 174.136C210.224 173.382 210.631 172.797 211.16 172.381C211.688 171.956 212.325 171.744 213.071 171.744C213.686 171.744 214.202 171.857 214.618 172.082C215.042 172.299 215.372 172.602 215.606 172.992C215.848 173.373 215.996 173.811 216.048 174.305H214.761C214.674 173.898 214.479 173.577 214.176 173.343C213.872 173.109 213.5 172.992 213.058 172.992C212.477 172.992 211.974 173.269 211.55 173.824C211.125 174.37 210.887 175.228 210.835 176.398H210.913C211.095 176.069 211.381 175.778 211.771 175.527C212.169 175.276 212.642 175.15 213.188 175.15C213.716 175.15 214.197 175.276 214.631 175.527C215.064 175.77 215.406 176.112 215.658 176.554C215.918 176.996 216.048 177.507 216.048 178.088C216.048 178.634 215.922 179.141 215.671 179.609C215.428 180.077 215.077 180.454 214.618 180.74C214.167 181.017 213.63 181.156 213.006 181.156ZM212.915 179.908C213.443 179.908 213.868 179.743 214.189 179.414C214.518 179.085 214.683 178.664 214.683 178.153C214.683 177.642 214.518 177.221 214.189 176.892C213.868 176.554 213.443 176.385 212.915 176.385C212.386 176.385 211.953 176.55 211.615 176.879C211.285 177.208 211.121 177.629 211.121 178.14C211.121 178.643 211.285 179.063 211.615 179.401C211.953 179.739 212.386 179.908 212.915 179.908Z" fill="#A8A29E"/>
<g filter="url(#filter4_d_228_2980)">
<rect x="37" y="107" width="210" height="30" rx="15" fill="white" shape-rendering="crispEdges"/>
<rect x="35.5" y="105.5" width="213" height="33" rx="16.5" stroke="white" stroke-opacity="0.4" stroke-width="3" shape-rendering="crispEdges"/>
</g>
<g clip-path="url(#clip4_228_2980)">
<path d="M76.8264 119.806C76.757 119.749 76.1286 119.272 74.78 119.272C74.4311 119.272 74.0699 119.306 73.721 119.365C73.466 117.585 71.9888 116.724 71.9296 116.679L71.5685 116.469L71.3359 116.805C71.0462 117.259 70.8238 117.771 70.6973 118.294C70.4524 119.306 70.6034 120.26 71.1155 121.074C70.4994 121.423 69.4996 121.505 69.2895 121.517H52.7772C52.3467 121.517 51.9978 121.866 51.9978 122.297C51.9753 123.74 52.2181 125.182 52.718 126.543C53.2872 128.032 54.136 129.138 55.2296 129.812C56.462 130.567 58.4737 130.998 60.7405 130.998C61.7627 130.998 62.787 130.904 63.799 130.718C65.2068 130.463 66.5554 129.973 67.798 129.265C68.8222 128.671 69.7404 127.915 70.5198 127.031C71.8337 125.553 72.6131 123.902 73.1824 122.436C73.264 122.436 73.3334 122.436 73.415 122.436C74.8452 122.436 75.7287 121.866 76.2163 121.376C76.5428 121.074 76.7856 120.701 76.9611 120.282L77.0651 119.98L76.8264 119.806ZM66.6064 121.039H68.8161C68.9202 121.039 69.014 120.958 69.014 120.841V118.863C69.014 118.759 68.9324 118.665 68.8161 118.665H66.6064C66.5024 118.665 66.4085 118.747 66.4085 118.863V120.841C66.4208 120.958 66.5024 121.039 66.6064 121.039ZM63.5256 115.374H65.7352C65.8393 115.374 65.9331 115.293 65.9331 115.176V113.198C65.9331 113.094 65.8393 113 65.7352 113H63.5256C63.4215 113 63.3276 113.082 63.3276 113.198V115.176C63.3276 115.28 63.4195 115.374 63.5256 115.374ZM63.5256 118.212H65.7352C65.8393 118.212 65.9331 118.118 65.9331 118.014V116.036C65.9331 115.932 65.8393 115.838 65.7352 115.838H63.5256C63.4215 115.838 63.3276 115.919 63.3276 116.036V118.014C63.3276 118.12 63.4195 118.212 63.5256 118.212ZM60.4671 118.212H62.6768C62.7808 118.212 62.8747 118.118 62.8747 118.014V116.036C62.8747 115.932 62.7931 115.838 62.6768 115.838H60.4671C60.3631 115.838 60.2692 115.919 60.2692 116.036V118.014C60.2692 118.12 60.3508 118.212 60.4671 118.212ZM57.3618 118.212H59.5714C59.6755 118.212 59.7693 118.118 59.7693 118.014V116.036C59.7693 115.932 59.6877 115.838 59.5714 115.838H57.3618C57.2577 115.838 57.1638 115.919 57.1638 116.036V118.014C57.1761 118.12 57.2577 118.212 57.3618 118.212ZM63.5256 121.039H65.7352C65.8393 121.039 65.9331 120.958 65.9331 120.841V118.863C65.9331 118.759 65.8515 118.665 65.7352 118.665H63.5256C63.4215 118.665 63.3276 118.747 63.3276 118.863V120.841C63.3276 120.958 63.4195 121.039 63.5256 121.039ZM60.4671 121.039H62.6768C62.7808 121.039 62.8747 120.958 62.8747 120.841V118.863C62.8747 118.759 62.7931 118.665 62.6768 118.665H60.4671C60.3631 118.665 60.2692 118.747 60.2692 118.863V120.841C60.2692 120.958 60.3508 121.039 60.4671 121.039ZM57.3618 121.039H59.5714C59.6755 121.039 59.7693 120.958 59.7693 120.841V118.863C59.7693 118.759 59.6877 118.665 59.5714 118.665H57.3618C57.2577 118.665 57.1638 118.747 57.1638 118.863V120.841C57.1761 120.958 57.2577 121.039 57.3618 121.039ZM54.3156 121.039H56.5252C56.6293 121.039 56.7231 120.958 56.7231 120.841V118.863C56.7231 118.759 56.6415 118.665 56.5252 118.665H54.3156C54.2115 118.665 54.1177 118.747 54.1177 118.863V120.841C54.1299 120.958 54.2115 121.039 54.3156 121.039Z" fill="#0091E2"/>
</g>
<path d="M96.082 127.156C95.4407 127.156 94.899 127.039 94.457 126.805C94.015 126.562 93.6553 126.237 93.378 125.83C93.1093 125.423 92.91 124.959 92.78 124.439C92.6587 123.91 92.598 123.356 92.598 122.775C92.598 121.77 92.7367 120.89 93.014 120.136C93.3 119.382 93.7073 118.797 94.236 118.381C94.7647 117.956 95.4017 117.744 96.147 117.744C96.7623 117.744 97.278 117.857 97.694 118.082C98.1187 118.299 98.448 118.602 98.682 118.992C98.9247 119.373 99.072 119.811 99.124 120.305H97.837C97.7503 119.898 97.5553 119.577 97.252 119.343C96.9487 119.109 96.576 118.992 96.134 118.992C95.5533 118.992 95.0507 119.269 94.626 119.824C94.2013 120.37 93.963 121.228 93.911 122.398H93.989C94.171 122.069 94.457 121.778 94.847 121.527C95.2457 121.276 95.718 121.15 96.264 121.15C96.7927 121.15 97.2737 121.276 97.707 121.527C98.1403 121.77 98.4827 122.112 98.734 122.554C98.994 122.996 99.124 123.507 99.124 124.088C99.124 124.634 98.9983 125.141 98.747 125.609C98.5043 126.077 98.1533 126.454 97.694 126.74C97.2433 127.017 96.706 127.156 96.082 127.156ZM95.991 125.908C96.5197 125.908 96.9443 125.743 97.265 125.414C97.5943 125.085 97.759 124.664 97.759 124.153C97.759 123.642 97.5943 123.221 97.265 122.892C96.9443 122.554 96.5197 122.385 95.991 122.385C95.4623 122.385 95.029 122.55 94.691 122.879C94.3617 123.208 94.197 123.629 94.197 124.14C94.197 124.643 94.3617 125.063 94.691 125.401C95.029 125.739 95.4623 125.908 95.991 125.908ZM100.705 127V125.908C101.598 125.197 102.378 124.543 103.045 123.945C103.721 123.347 104.25 122.771 104.631 122.216C105.012 121.661 105.203 121.098 105.203 120.526C105.203 120.049 105.069 119.677 104.8 119.408C104.531 119.131 104.167 118.992 103.708 118.992C103.179 118.992 102.772 119.161 102.486 119.499C102.2 119.828 102.057 120.223 102.057 120.682H100.718C100.727 120.041 100.861 119.503 101.121 119.07C101.381 118.637 101.732 118.307 102.174 118.082C102.625 117.857 103.136 117.744 103.708 117.744C104.635 117.744 105.35 117.995 105.853 118.498C106.356 118.992 106.607 119.655 106.607 120.487C106.607 121.016 106.49 121.527 106.256 122.021C106.031 122.506 105.732 122.97 105.359 123.412C104.986 123.854 104.57 124.274 104.111 124.673C103.66 125.072 103.205 125.453 102.746 125.817H106.854V127H100.705ZM111.49 127.156C110.866 127.156 110.316 127.039 109.839 126.805C109.371 126.571 109.003 126.25 108.734 125.843C108.465 125.436 108.331 124.968 108.331 124.439C108.331 123.876 108.478 123.403 108.773 123.022C109.076 122.632 109.414 122.363 109.787 122.216V122.138C109.432 121.956 109.141 121.7 108.916 121.371C108.691 121.042 108.578 120.643 108.578 120.175C108.578 119.733 108.695 119.33 108.929 118.966C109.163 118.593 109.497 118.299 109.93 118.082C110.363 117.857 110.883 117.744 111.49 117.744C112.088 117.744 112.604 117.857 113.037 118.082C113.47 118.299 113.804 118.593 114.038 118.966C114.281 119.33 114.402 119.733 114.402 120.175C114.402 120.643 114.289 121.042 114.064 121.371C113.839 121.7 113.548 121.956 113.193 122.138V122.216C113.574 122.363 113.912 122.632 114.207 123.022C114.502 123.403 114.649 123.876 114.649 124.439C114.649 124.968 114.515 125.436 114.246 125.843C113.986 126.25 113.618 126.571 113.141 126.805C112.664 127.039 112.114 127.156 111.49 127.156ZM111.49 121.657C111.975 121.657 112.357 121.531 112.634 121.28C112.92 121.029 113.063 120.704 113.063 120.305C113.063 119.906 112.92 119.581 112.634 119.33C112.357 119.079 111.975 118.953 111.49 118.953C111.005 118.953 110.619 119.079 110.333 119.33C110.056 119.581 109.917 119.906 109.917 120.305C109.917 120.704 110.056 121.029 110.333 121.28C110.619 121.531 111.005 121.657 111.49 121.657ZM111.49 125.908C112.027 125.908 112.461 125.774 112.79 125.505C113.119 125.228 113.284 124.842 113.284 124.348C113.284 123.854 113.119 123.473 112.79 123.204C112.461 122.927 112.027 122.788 111.49 122.788C110.953 122.788 110.519 122.927 110.19 123.204C109.861 123.473 109.696 123.854 109.696 124.348C109.696 124.842 109.861 125.228 110.19 125.505C110.519 125.774 110.953 125.908 111.49 125.908ZM119.636 127.156C119.159 127.156 118.756 127.061 118.427 126.87C118.106 126.671 117.859 126.398 117.686 126.051H117.608L117.491 127H116.308V117.64H117.686V121.384C117.842 121.124 118.089 120.894 118.427 120.695C118.765 120.496 119.168 120.396 119.636 120.396C120.173 120.396 120.654 120.526 121.079 120.786C121.503 121.037 121.837 121.414 122.08 121.917C122.331 122.42 122.457 123.039 122.457 123.776C122.457 124.513 122.331 125.132 122.08 125.635C121.837 126.138 121.503 126.519 121.079 126.779C120.654 127.03 120.173 127.156 119.636 127.156ZM119.35 125.843C119.844 125.843 120.251 125.674 120.572 125.336C120.901 124.989 121.066 124.474 121.066 123.789C121.066 123.096 120.901 122.576 120.572 122.229C120.251 121.882 119.844 121.709 119.35 121.709C118.856 121.709 118.444 121.882 118.115 122.229C117.794 122.567 117.634 123.083 117.634 123.776C117.634 124.461 117.794 124.976 118.115 125.323C118.444 125.67 118.856 125.843 119.35 125.843ZM128.081 127V125.037H123.765V123.958L127.834 117.9H129.459V123.789H130.642V125.037H129.459V127H128.081ZM125.299 123.789H128.159V119.447L125.299 123.789ZM135.876 127V125.037H131.56V123.958L135.629 117.9H137.254V123.789H138.437V125.037H137.254V127H135.876ZM133.094 123.789H135.954V119.447L133.094 123.789ZM142.852 127.156C142.21 127.156 141.669 127.039 141.227 126.805C140.785 126.562 140.425 126.237 140.148 125.83C139.879 125.423 139.68 124.959 139.55 124.439C139.428 123.91 139.368 123.356 139.368 122.775C139.368 121.77 139.506 120.89 139.784 120.136C140.07 119.382 140.477 118.797 141.006 118.381C141.534 117.956 142.171 117.744 142.917 117.744C143.532 117.744 144.048 117.857 144.464 118.082C144.888 118.299 145.218 118.602 145.452 118.992C145.694 119.373 145.842 119.811 145.894 120.305H144.607C144.52 119.898 144.325 119.577 144.022 119.343C143.718 119.109 143.346 118.992 142.904 118.992C142.323 118.992 141.82 119.269 141.396 119.824C140.971 120.37 140.733 121.228 140.681 122.398H140.759C140.941 122.069 141.227 121.778 141.617 121.527C142.015 121.276 142.488 121.15 143.034 121.15C143.562 121.15 144.043 121.276 144.477 121.527C144.91 121.77 145.252 122.112 145.504 122.554C145.764 122.996 145.894 123.507 145.894 124.088C145.894 124.634 145.768 125.141 145.517 125.609C145.274 126.077 144.923 126.454 144.464 126.74C144.013 127.017 143.476 127.156 142.852 127.156ZM142.761 125.908C143.289 125.908 143.714 125.743 144.035 125.414C144.364 125.085 144.529 124.664 144.529 124.153C144.529 123.642 144.364 123.221 144.035 122.892C143.714 122.554 143.289 122.385 142.761 122.385C142.232 122.385 141.799 122.55 141.461 122.879C141.131 123.208 140.967 123.629 140.967 124.14C140.967 124.643 141.131 125.063 141.461 125.401C141.799 125.739 142.232 125.908 142.761 125.908ZM151.465 127V125.037H147.149V123.958L151.218 117.9H152.843V123.789H154.026V125.037H152.843V127H151.465ZM148.683 123.789H151.543V119.447L148.683 123.789ZM158.246 127.156C157.614 127.156 157.063 127.039 156.595 126.805C156.127 126.571 155.759 126.25 155.49 125.843C155.23 125.436 155.079 124.976 155.035 124.465H156.439C156.526 124.89 156.725 125.232 157.037 125.492C157.358 125.752 157.765 125.882 158.259 125.882C158.84 125.882 159.299 125.7 159.637 125.336C159.975 124.963 160.144 124.487 160.144 123.906C160.144 123.291 159.971 122.814 159.624 122.476C159.278 122.138 158.836 121.969 158.298 121.969C157.865 121.969 157.497 122.069 157.193 122.268C156.89 122.467 156.652 122.719 156.478 123.022H155.152L155.932 117.9H160.885V119.174H156.998L156.556 121.501H156.647C156.829 121.293 157.072 121.12 157.375 120.981C157.687 120.842 158.056 120.773 158.48 120.773C159.104 120.773 159.637 120.907 160.079 121.176C160.53 121.445 160.877 121.817 161.119 122.294C161.362 122.762 161.483 123.295 161.483 123.893C161.483 124.5 161.349 125.05 161.08 125.544C160.82 126.038 160.448 126.432 159.962 126.727C159.477 127.013 158.905 127.156 158.246 127.156ZM165.469 127.156C164.958 127.156 164.529 127.069 164.182 126.896C163.836 126.714 163.576 126.476 163.402 126.181C163.229 125.878 163.142 125.548 163.142 125.193C163.142 124.56 163.372 124.066 163.831 123.711C164.299 123.356 164.958 123.178 165.807 123.178H167.471V123.035C167.471 122.064 167.021 121.579 166.119 121.579C165.747 121.579 165.43 121.661 165.17 121.826C164.919 121.982 164.75 122.238 164.663 122.593H163.285C163.355 121.917 163.645 121.384 164.156 120.994C164.676 120.595 165.331 120.396 166.119 120.396C167.073 120.396 167.766 120.63 168.199 121.098C168.633 121.566 168.849 122.212 168.849 123.035V127H167.679L167.562 126.051H167.471C167.281 126.354 167.042 126.614 166.756 126.831C166.47 127.048 166.041 127.156 165.469 127.156ZM165.729 125.999C166.293 125.999 166.713 125.83 166.99 125.492C167.276 125.145 167.432 124.708 167.458 124.179H165.95C165.456 124.179 165.105 124.261 164.897 124.426C164.698 124.582 164.598 124.803 164.598 125.089C164.598 125.375 164.698 125.6 164.897 125.765C165.105 125.921 165.383 125.999 165.729 125.999ZM170.807 127V125.765H173.056V119.525L170.911 119.915V118.797L173.589 117.9H174.434V125.765H176.852V127H170.807ZM181.059 127.156C180.548 127.156 180.119 127.069 179.772 126.896C179.425 126.714 179.165 126.476 178.992 126.181C178.819 125.878 178.732 125.548 178.732 125.193C178.732 124.56 178.962 124.066 179.421 123.711C179.889 123.356 180.548 123.178 181.397 123.178H183.061V123.035C183.061 122.064 182.61 121.579 181.709 121.579C181.336 121.579 181.02 121.661 180.76 121.826C180.509 121.982 180.34 122.238 180.253 122.593H178.875C178.944 121.917 179.235 121.384 179.746 120.994C180.266 120.595 180.92 120.396 181.709 120.396C182.662 120.396 183.356 120.63 183.789 121.098C184.222 121.566 184.439 122.212 184.439 123.035V127H183.269L183.152 126.051H183.061C182.87 126.354 182.632 126.614 182.346 126.831C182.06 127.048 181.631 127.156 181.059 127.156ZM181.319 125.999C181.882 125.999 182.303 125.83 182.58 125.492C182.866 125.145 183.022 124.708 183.048 124.179H181.54C181.046 124.179 180.695 124.261 180.487 124.426C180.288 124.582 180.188 124.803 180.188 125.089C180.188 125.375 180.288 125.6 180.487 125.765C180.695 125.921 180.972 125.999 181.319 125.999ZM190.44 127V125.037H186.124V123.958L190.193 117.9H191.818V123.789H193.001V125.037H191.818V127H190.44ZM187.658 123.789H190.518V119.447L187.658 123.789ZM197.221 127.156C196.588 127.156 196.038 127.039 195.57 126.805C195.102 126.571 194.734 126.25 194.465 125.843C194.205 125.436 194.053 124.976 194.01 124.465H195.414C195.501 124.89 195.7 125.232 196.012 125.492C196.333 125.752 196.74 125.882 197.234 125.882C197.815 125.882 198.274 125.7 198.612 125.336C198.95 124.963 199.119 124.487 199.119 123.906C199.119 123.291 198.946 122.814 198.599 122.476C198.252 122.138 197.81 121.969 197.273 121.969C196.84 121.969 196.471 122.069 196.168 122.268C195.865 122.467 195.626 122.719 195.453 123.022H194.127L194.907 117.9H199.86V119.174H195.973L195.531 121.501H195.622C195.804 121.293 196.047 121.12 196.35 120.981C196.662 120.842 197.03 120.773 197.455 120.773C198.079 120.773 198.612 120.907 199.054 121.176C199.505 121.445 199.851 121.817 200.094 122.294C200.337 122.762 200.458 123.295 200.458 123.893C200.458 124.5 200.324 125.05 200.055 125.544C199.795 126.038 199.422 126.432 198.937 126.727C198.452 127.013 197.88 127.156 197.221 127.156ZM205.107 127.156C204.483 127.156 203.933 127.017 203.456 126.74C202.979 126.454 202.607 126.06 202.338 125.557C202.069 125.054 201.935 124.469 201.935 123.802C201.935 123.126 202.065 122.532 202.325 122.021C202.594 121.51 202.966 121.111 203.443 120.825C203.928 120.539 204.487 120.396 205.12 120.396C205.744 120.396 206.281 120.539 206.732 120.825C207.183 121.102 207.529 121.475 207.772 121.943C208.023 122.411 208.149 122.927 208.149 123.49C208.149 123.577 208.149 123.672 208.149 123.776C208.149 123.871 208.145 123.98 208.136 124.101H203.287C203.33 124.699 203.525 125.154 203.872 125.466C204.219 125.769 204.626 125.921 205.094 125.921C205.501 125.921 205.822 125.839 206.056 125.674C206.299 125.501 206.476 125.267 206.589 124.972H207.98C207.824 125.587 207.499 126.107 207.005 126.532C206.511 126.948 205.878 127.156 205.107 127.156ZM205.107 121.592C204.682 121.592 204.305 121.722 203.976 121.982C203.647 122.233 203.434 122.589 203.339 123.048H206.771C206.736 122.615 206.567 122.264 206.264 121.995C205.961 121.726 205.575 121.592 205.107 121.592ZM212.889 127.156C212.291 127.156 211.749 127.043 211.264 126.818C210.778 126.593 210.393 126.263 210.107 125.83C209.821 125.388 209.665 124.855 209.639 124.231H211.017C211.043 124.708 211.216 125.102 211.537 125.414C211.866 125.726 212.317 125.882 212.889 125.882C213.452 125.882 213.894 125.743 214.215 125.466C214.535 125.189 214.696 124.807 214.696 124.322C214.696 123.785 214.501 123.39 214.111 123.139C213.721 122.888 213.244 122.762 212.681 122.762H211.875V121.54H212.564C213.075 121.54 213.495 121.436 213.825 121.228C214.154 121.02 214.319 120.695 214.319 120.253C214.319 119.872 214.193 119.573 213.942 119.356C213.69 119.131 213.335 119.018 212.876 119.018C212.408 119.018 212.035 119.144 211.758 119.395C211.48 119.646 211.324 119.967 211.29 120.357H209.925C209.951 119.837 210.089 119.382 210.341 118.992C210.592 118.602 210.934 118.299 211.368 118.082C211.801 117.857 212.304 117.744 212.876 117.744C213.5 117.744 214.02 117.852 214.436 118.069C214.852 118.277 215.164 118.559 215.372 118.914C215.58 119.269 215.684 119.668 215.684 120.11C215.684 120.561 215.549 120.951 215.281 121.28C215.021 121.601 214.704 121.835 214.332 121.982V122.06C214.834 122.199 215.246 122.459 215.567 122.84C215.896 123.213 216.061 123.715 216.061 124.348C216.061 124.859 215.935 125.332 215.684 125.765C215.441 126.19 215.081 126.528 214.605 126.779C214.137 127.03 213.565 127.156 212.889 127.156Z" fill="#A8A29E"/>
</g>
</g>
<defs>
<filter id="filter0_d_228_2980" x="138" y="324" width="136" height="48" filterUnits="userSpaceOnUse" color-interpolation-filters="sRGB">
<feFlood flood-opacity="0" result="BackgroundImageFix"/>
<feColorMatrix in="SourceAlpha" type="matrix" values="0 0 0 0 0 0 0 0 0 0 0 0 0 0 0 0 0 0 127 0" result="hardAlpha"/>
<feOffset dy="4"/>
<feGaussianBlur stdDeviation="2"/>
<feComposite in2="hardAlpha" operator="out"/>
<feColorMatrix type="matrix" values="0 0 0 0 0 0 0 0 0 0 0 0 0 0 0 0 0 0 0.07 0"/>
<feBlend mode="normal" in2="BackgroundImageFix" result="effect1_dropShadow_228_2980"/>
<feBlend mode="normal" in="SourceGraphic" in2="effect1_dropShadow_228_2980" result="shape"/>
</filter>
<filter id="filter1_d_228_2980" x="30" y="266" width="224" height="44" filterUnits="userSpaceOnUse" color-interpolation-filters="sRGB">
<feFlood flood-opacity="0" result="BackgroundImageFix"/>
<feColorMatrix in="SourceAlpha" type="matrix" values="0 0 0 0 0 0 0 0 0 0 0 0 0 0 0 0 0 0 127 0" result="hardAlpha"/>
<feOffset dy="4"/>
<feGaussianBlur stdDeviation="2"/>
<feComposite in2="hardAlpha" operator="out"/>
<feColorMatrix type="matrix" values="0 0 0 0 0 0 0 0 0 0 0 0 0 0 0 0 0 0 0.05 0"/>
<feBlend mode="normal" in2="BackgroundImageFix" result="effect1_dropShadow_228_2980"/>
<feBlend mode="normal" in="SourceGraphic" in2="effect1_dropShadow_228_2980" result="shape"/>
</filter>
<filter id="filter2_d_228_2980" x="30" y="212" width="224" height="44" filterUnits="userSpaceOnUse" color-interpolation-filters="sRGB">
<feFlood flood-opacity="0" result="BackgroundImageFix"/>
<feColorMatrix in="SourceAlpha" type="matrix" values="0 0 0 0 0 0 0 0 0 0 0 0 0 0 0 0 0 0 127 0" result="hardAlpha"/>
<feOffset dy="4"/>
<feGaussianBlur stdDeviation="2"/>
<feComposite in2="hardAlpha" operator="out"/>
<feColorMatrix type="matrix" values="0 0 0 0 0 0 0 0 0 0 0 0 0 0 0 0 0 0 0.05 0"/>
<feBlend mode="normal" in2="BackgroundImageFix" result="effect1_dropShadow_228_2980"/>
<feBlend mode="normal" in="SourceGraphic" in2="effect1_dropShadow_228_2980" result="shape"/>
</filter>
<filter id="filter3_d_228_2980" x="30" y="158" width="224" height="44" filterUnits="userSpaceOnUse" color-interpolation-filters="sRGB">
<feFlood flood-opacity="0" result="BackgroundImageFix"/>
<feColorMatrix in="SourceAlpha" type="matrix" values="0 0 0 0 0 0 0 0 0 0 0 0 0 0 0 0 0 0 127 0" result="hardAlpha"/>
<feOffset dy="4"/>
<feGaussianBlur stdDeviation="2"/>
<feComposite in2="hardAlpha" operator="out"/>
<feColorMatrix type="matrix" values="0 0 0 0 0 0 0 0 0 0 0 0 0 0 0 0 0 0 0.05 0"/>
<feBlend mode="normal" in2="BackgroundImageFix" result="effect1_dropShadow_228_2980"/>
<feBlend mode="normal" in="SourceGraphic" in2="effect1_dropShadow_228_2980" result="shape"/>
</filter>
<filter id="filter4_d_228_2980" x="30" y="104" width="224" height="44" filterUnits="userSpaceOnUse" color-interpolation-filters="sRGB">
<feFlood flood-opacity="0" result="BackgroundImageFix"/>
<feColorMatrix in="SourceAlpha" type="matrix" values="0 0 0 0 0 0 0 0 0 0 0 0 0 0 0 0 0 0 127 0" result="hardAlpha"/>
<feOffset dy="4"/>
<feGaussianBlur stdDeviation="2"/>
<feComposite in2="hardAlpha" operator="out"/>
<feColorMatrix type="matrix" values="0 0 0 0 0 0 0 0 0 0 0 0 0 0 0 0 0 0 0.05 0"/>
<feBlend mode="normal" in2="BackgroundImageFix" result="effect1_dropShadow_228_2980"/>
<feBlend mode="normal" in="SourceGraphic" in2="effect1_dropShadow_228_2980" result="shape"/>
</filter>
<linearGradient id="paint0_linear_228_2980" x1="156" y1="68" x2="156" y2="384" gradientUnits="userSpaceOnUse">
<stop stop-color="white"/>
<stop offset="0.442708" stop-color="#73CBF3"/>
<stop offset="1" stop-color="#0091E2"/>
</linearGradient>
<linearGradient id="paint1_linear_228_2980" x1="145" y1="39" x2="145" y2="384" gradientUnits="userSpaceOnUse">
<stop offset="0.177398" stop-color="white" stop-opacity="0"/>
<stop offset="0.446377" stop-color="white"/>
</linearGradient>
<clipPath id="clip0_228_2980">
<rect width="290" height="384" fill="white"/>
</clipPath>
<clipPath id="clip1_228_2980">
<rect width="25.0714" height="18" fill="white" transform="translate(52 275)"/>
</clipPath>
<clipPath id="clip2_228_2980">
<rect width="25.0714" height="18" fill="white" transform="translate(52 221)"/>
</clipPath>
<clipPath id="clip3_228_2980">
<rect width="25.0714" height="18" fill="white" transform="translate(52 167)"/>
</clipPath>
<clipPath id="clip4_228_2980">
<rect width="25.0714" height="18" fill="white" transform="translate(52 113)"/>
</clipPath>
</defs>
</svg>
