<svg width="48" height="48" viewBox="0 0 48 48" fill="none" xmlns="http://www.w3.org/2000/svg">
<circle cx="24" cy="24" r="24" fill="#EEF2FF"/>
<path d="M36.1073 15.9381C36.4607 14.7981 36.5741 13.5971 36.4403 12.4111C36.3064 11.225 35.9283 10.0795 35.3297 9.04688C35.2282 8.87107 35.0822 8.72508 34.9064 8.6236C34.7306 8.52211 34.5311 8.46871 34.3281 8.46875C32.9814 8.46593 31.6526 8.77814 30.448 9.38043C29.2434 9.98273 28.1964 10.8584 27.3906 11.9375H23.9219C23.1161 10.8584 22.0691 9.98273 20.8645 9.38043C19.6599 8.77814 18.3311 8.46593 16.9844 8.46875C16.7814 8.46871 16.5819 8.52211 16.4061 8.6236C16.2303 8.72508 16.0843 8.87107 15.9828 9.04688C15.3842 10.0795 15.0061 11.225 14.8722 12.4111C14.7384 13.5971 14.8518 14.7981 15.2052 15.9381C14.4908 17.185 14.1081 18.5943 14.0938 20.0313V21.1875C14.0962 23.1439 14.8064 25.0333 16.0932 26.5069C17.3801 27.9805 19.1566 28.9387 21.0948 29.2047C20.3037 30.217 19.8743 31.4652 19.875 32.75V33.9063H16.4062C15.4863 33.9063 14.604 33.5408 13.9535 32.8903C13.303 32.2398 12.9375 31.3575 12.9375 30.4375C12.9375 29.6783 12.788 28.9265 12.4974 28.2251C12.2069 27.5237 11.781 26.8864 11.2442 26.3495C10.7074 25.8127 10.0701 25.3869 9.36864 25.0963C8.66722 24.8058 7.91545 24.6563 7.15625 24.6563C6.84959 24.6563 6.5555 24.7781 6.33866 24.9949C6.12182 25.2118 6 25.5058 6 25.8125C6 26.1192 6.12182 26.4133 6.33866 26.6301C6.5555 26.8469 6.84959 26.9688 7.15625 26.9688C8.07622 26.9688 8.95851 27.3342 9.60903 27.9847C10.2595 28.6352 10.625 29.5175 10.625 30.4375C10.625 31.9708 11.2341 33.4413 12.3183 34.5255C13.4025 35.6097 14.873 36.2188 16.4062 36.2188H19.875V38.5313C19.875 38.8379 19.9968 39.132 20.2137 39.3488C20.4305 39.5657 20.7246 39.6875 21.0312 39.6875C21.3379 39.6875 21.632 39.5657 21.8488 39.3488C22.0657 39.132 22.1875 38.8379 22.1875 38.5313V32.75C22.1875 31.83 22.553 30.9477 23.2035 30.2972C23.854 29.6467 24.7363 29.2813 25.6562 29.2813C26.5762 29.2813 27.4585 29.6467 28.109 30.2972C28.7595 30.9477 29.125 31.83 29.125 32.75V38.5313C29.125 38.8379 29.2468 39.132 29.4637 39.3488C29.6805 39.5657 29.9746 39.6875 30.2812 39.6875C30.5879 39.6875 30.882 39.5657 31.0988 39.3488C31.3157 39.132 31.4375 38.8379 31.4375 38.5313V32.75C31.4382 31.4652 31.0088 30.217 30.2177 29.2047C32.1559 28.9387 33.9324 27.9805 35.2193 26.5069C36.5061 25.0333 37.2163 23.1439 37.2188 21.1875V20.0313C37.2044 18.5943 36.8217 17.185 36.1073 15.9381ZM34.9062 21.1875C34.9062 22.7208 34.2972 24.1913 33.213 25.2755C32.1288 26.3597 30.6583 26.9688 29.125 26.9688H22.1875C20.6542 26.9688 19.1837 26.3597 18.0995 25.2755C17.0153 24.1913 16.4062 22.7208 16.4062 21.1875V20.0313C16.4204 18.875 16.7666 17.7473 17.4035 16.7822C17.5222 16.6257 17.5992 16.4415 17.627 16.2471C17.6548 16.0526 17.6326 15.8543 17.5625 15.6707C17.2613 14.894 17.1164 14.0655 17.136 13.2327C17.1556 12.3999 17.3393 11.5791 17.6767 10.8174C18.6229 10.9192 19.5342 11.2326 20.3428 11.7345C21.1514 12.2364 21.8367 12.9139 22.3479 13.7167C22.4521 13.8796 22.5955 14.0137 22.7649 14.1069C22.9343 14.2001 23.1244 14.2493 23.3177 14.25H27.9933C28.1874 14.25 28.3784 14.2012 28.5486 14.108C28.7189 14.0148 28.8629 13.8802 28.9675 13.7167C29.4786 12.9138 30.1639 12.2363 30.9725 11.7344C31.7811 11.2325 32.6924 10.9191 33.6387 10.8174C33.9756 11.5793 34.1589 12.4001 34.178 13.233C34.1971 14.0658 34.0516 14.8942 33.75 15.6707C33.6801 15.8525 33.6567 16.0488 33.682 16.2419C33.7072 16.435 33.7803 16.6187 33.8945 16.7764C34.5378 17.7415 34.8891 18.8716 34.9062 20.0313V21.1875Z" fill="#4F46E5"/>
</svg>
