<svg width="290" height="384" viewBox="0 0 290 384" fill="none" xmlns="http://www.w3.org/2000/svg">
<g clip-path="url(#clip0_228_3254)">
<rect width="290" height="384" fill="#1C1A59"/>
<mask id="mask0_228_3254" style="mask-type:alpha" maskUnits="userSpaceOnUse" x="0" y="0" width="290" height="384">
<rect width="290" height="384" rx="24" fill="url(#paint0_radial_228_3254)"/>
</mask>
<g mask="url(#mask0_228_3254)">
<line x1="62.5" y1="-125" x2="62.5" y2="581" stroke="#4338CA"/>
<line x1="182.5" y1="-125" x2="182.5" y2="581" stroke="#4338CA"/>
<line x1="254.5" y1="-125" x2="254.5" y2="581" stroke="#4338CA"/>
<line x1="86.5" y1="-125" x2="86.5" y2="581" stroke="#4338CA"/>
<line x1="206.5" y1="-125" x2="206.5" y2="581" stroke="#4338CA"/>
<line x1="278.5" y1="-125" x2="278.5" y2="581" stroke="#4338CA"/>
<line x1="134.5" y1="-125" x2="134.5" y2="581" stroke="#4338CA"/>
<line x1="14.5" y1="-125" x2="14.5" y2="581" stroke="#4338CA"/>
<line x1="110.5" y1="-125" x2="110.5" y2="581" stroke="#4338CA"/>
<line x1="230.5" y1="-125" x2="230.5" y2="581" stroke="#4338CA"/>
<line x1="158.5" y1="-125" x2="158.5" y2="581" stroke="#4338CA"/>
<line x1="38.5" y1="-125" x2="38.5" y2="581" stroke="#4338CA"/>
<line x1="-195" y1="323.5" x2="511" y2="323.5" stroke="#4338CA"/>
<line x1="-195" y1="203.5" x2="511" y2="203.5" stroke="#4338CA"/>
<line x1="-195" y1="59.5" x2="511" y2="59.5" stroke="#4338CA"/>
<line x1="-195" y1="131.5" x2="511" y2="131.5" stroke="#4338CA"/>
<line x1="-195" y1="299.5" x2="511" y2="299.5" stroke="#4338CA"/>
<line x1="-195" y1="179.5" x2="511" y2="179.5" stroke="#4338CA"/>
<line x1="-195" y1="35.5" x2="511" y2="35.5" stroke="#4338CA"/>
<line x1="-195" y1="107.5" x2="511" y2="107.5" stroke="#4338CA"/>
<line x1="-195" y1="251.5" x2="511" y2="251.5" stroke="#4338CA"/>
<line x1="-195" y1="371.5" x2="511" y2="371.5" stroke="#4338CA"/>
<line x1="-195" y1="275.5" x2="511" y2="275.5" stroke="#4338CA"/>
<line x1="-195" y1="155.5" x2="511" y2="155.5" stroke="#4338CA"/>
<line x1="-195" y1="11.5" x2="511" y2="11.5" stroke="#4338CA"/>
<line x1="-195" y1="83.5" x2="511" y2="83.5" stroke="#4338CA"/>
<line x1="-195" y1="227.5" x2="511" y2="227.5" stroke="#4338CA"/>
<line x1="-195" y1="347.5" x2="511" y2="347.5" stroke="#4338CA"/>
</g>
<g opacity="0.5" filter="url(#filter0_f_228_3254)">
<circle cx="145" cy="244" r="68" fill="#4338CA"/>
</g>
<g filter="url(#filter1_dd_228_3254)">
<g filter="url(#filter2_d_228_3254)">
<rect x="213" y="133" width="48" height="48" rx="8" fill="url(#paint1_linear_228_3254)"/>
<rect x="213" y="133" width="48" height="48" rx="8" stroke="#A855F7" stroke-width="2" stroke-linecap="round" stroke-linejoin="round"/>
</g>
<path d="M242.333 165L250.333 157L242.333 149M231.667 149L223.667 157L231.667 165" stroke="#A855F7" stroke-width="4" stroke-linecap="round" stroke-linejoin="round"/>
</g>
<g filter="url(#filter3_dd_228_3254)">
<g filter="url(#filter4_d_228_3254)">
<rect x="31" y="133" width="48" height="48" rx="8" fill="url(#paint2_linear_228_3254)"/>
<rect x="31" y="133" width="48" height="48" rx="8" stroke="#10B981" stroke-width="2" stroke-linecap="round" stroke-linejoin="round"/>
</g>
<path d="M60.3334 165L68.3334 157L60.3334 149M49.6667 149L41.6667 157L49.6667 165" stroke="#10B981" stroke-width="4" stroke-linecap="round" stroke-linejoin="round"/>
</g>
<g filter="url(#filter5_dd_228_3254)">
<g filter="url(#filter6_d_228_3254)">
<rect x="213" y="304" width="48" height="48" rx="8" fill="url(#paint3_linear_228_3254)"/>
<rect x="213" y="304" width="48" height="48" rx="8" stroke="#F43F5E" stroke-width="2" stroke-linecap="round" stroke-linejoin="round"/>
</g>
<path d="M242.333 336L250.333 328L242.333 320M231.667 320L223.667 328L231.667 336" stroke="#F43F5E" stroke-width="4" stroke-linecap="round" stroke-linejoin="round"/>
</g>
<g filter="url(#filter7_dd_228_3254)">
<g filter="url(#filter8_d_228_3254)">
<rect x="121" y="133" width="48" height="48" rx="8" fill="url(#paint4_linear_228_3254)"/>
<rect x="121" y="133" width="48" height="48" rx="8" stroke="#0EA5E9" stroke-width="2" stroke-linecap="round" stroke-linejoin="round"/>
</g>
<path d="M150.333 165L158.333 157L150.333 149M139.667 149L131.667 157L139.667 165" stroke="#0EA5E9" stroke-width="4" stroke-linecap="round" stroke-linejoin="round"/>
</g>
<g filter="url(#filter9_dd_228_3254)">
<g filter="url(#filter10_d_228_3254)">
<rect x="31" y="304" width="48" height="48" rx="8" fill="url(#paint5_linear_228_3254)"/>
<rect x="31" y="304" width="48" height="48" rx="8" stroke="#4F46E5" stroke-width="2" stroke-linecap="round" stroke-linejoin="round"/>
</g>
<path d="M60.3334 336L68.3334 328L60.3334 320M49.6667 320L41.6667 328L49.6667 336" stroke="#4F46E5" stroke-width="4" stroke-linecap="round" stroke-linejoin="round"/>
</g>
<g filter="url(#filter11_dd_228_3254)">
<g filter="url(#filter12_d_228_3254)">
<rect x="121" y="304" width="48" height="48" rx="8" fill="url(#paint6_linear_228_3254)"/>
<rect x="121" y="304" width="48" height="48" rx="8" stroke="#F59E0B" stroke-width="2" stroke-linecap="round" stroke-linejoin="round"/>
</g>
<path d="M150.333 336L158.333 328L150.333 320M139.667 320L131.667 328L139.667 336" stroke="#F59E0B" stroke-width="4" stroke-linecap="round" stroke-linejoin="round"/>
</g>
<g filter="url(#filter13_b_228_3254)">
<rect x="110" y="208" width="70" height="70" rx="16" fill="white" fill-opacity="0.25"/>
</g>
<g filter="url(#filter14_d_228_3254)">
<rect x="116" y="214" width="58" height="58" rx="12" fill="url(#paint7_linear_228_3254)"/>
<rect x="116.25" y="214.25" width="57.5" height="57.5" rx="11.75" stroke="url(#paint8_linear_228_3254)" stroke-opacity="0.5" stroke-width="0.5"/>
</g>
<g clip-path="url(#clip1_228_3254)">
<path d="M154.081 231.081H144.997C141.837 231.082 138.807 232.338 136.572 234.572C134.338 236.807 133.082 239.837 133.081 242.997C133.081 243.369 133.155 243.738 133.297 244.082C133.44 244.427 133.649 244.74 133.912 245.003C134.176 245.267 134.489 245.476 134.833 245.618C135.177 245.761 135.546 245.834 135.919 245.834H138.759V242.997C138.761 241.343 139.418 239.757 140.588 238.588C141.757 237.418 143.343 236.761 144.997 236.759H154.081C157.503 236.759 160.31 239.515 160.324 242.937C160.36 251.417 153.472 258.328 145 258.328H135.919C135.166 258.328 134.445 258.626 133.912 259.159C133.38 259.691 133.081 260.413 133.081 261.165V264.003H144.997C156.629 264.003 166.081 254.495 165.993 242.844C165.951 236.32 160.602 231.081 154.081 231.081Z" fill="white"/>
<path d="M144.996 254.919C146.562 254.919 148.113 254.611 149.559 254.012C151.006 253.413 152.321 252.535 153.428 251.428C154.535 250.321 155.413 249.006 156.012 247.56C156.611 246.113 156.919 244.562 156.919 242.996C156.919 242.624 156.845 242.255 156.703 241.911C156.56 241.566 156.351 241.253 156.088 240.99C155.824 240.727 155.511 240.517 155.167 240.375C154.823 240.232 154.454 240.159 154.081 240.159H151.243V242.996C151.244 243.817 151.083 244.63 150.769 245.388C150.455 246.146 149.995 246.835 149.415 247.415C148.835 247.995 148.146 248.455 147.388 248.769C146.629 249.083 145.817 249.244 144.996 249.244H135.919C132.497 249.244 129.69 246.488 129.676 243.066C129.64 234.586 136.528 227.676 144.996 227.676H154.081C154.834 227.676 155.555 227.377 156.088 226.844C156.62 226.312 156.919 225.59 156.919 224.838V222H144.996C133.367 222 123.912 231.507 124 243.159C124.048 249.679 129.398 254.919 135.918 254.919H144.996Z" fill="white"/>
</g>
<g opacity="0.4">
<path d="M237 185V219C237 232.255 226.255 243 213 243H184" stroke="white" stroke-width="2" stroke-miterlimit="0" stroke-linejoin="bevel"/>
</g>
<g opacity="0.4">
<path d="M106 243H79C65.7452 243 55 232.255 55 219V185" stroke="white" stroke-width="2" stroke-miterlimit="0" stroke-linejoin="bevel"/>
</g>
<g opacity="0.4">
<path d="M106 243H79C65.7452 243 55 253.745 55 267V300" stroke="white" stroke-width="2" stroke-miterlimit="0" stroke-linejoin="bevel"/>
</g>
<g opacity="0.4">
<path d="M237 300V267C237 253.745 226.255 243 213 243H184" stroke="white" stroke-width="2" stroke-miterlimit="0" stroke-linejoin="bevel"/>
</g>
<g opacity="0.7">
<path d="M145 185V204" stroke="white" stroke-width="2" stroke-miterlimit="0" stroke-linejoin="bevel"/>
</g>
<g opacity="0.7">
<path d="M145 282V300" stroke="white" stroke-width="2" stroke-miterlimit="0" stroke-linejoin="bevel"/>
</g>
</g>
<defs>
<filter id="filter0_f_228_3254" x="-23" y="76" width="336" height="336" filterUnits="userSpaceOnUse" color-interpolation-filters="sRGB">
<feFlood flood-opacity="0" result="BackgroundImageFix"/>
<feBlend mode="normal" in="SourceGraphic" in2="BackgroundImageFix" result="shape"/>
<feGaussianBlur stdDeviation="50" result="effect1_foregroundBlur_228_3254"/>
</filter>
<filter id="filter1_dd_228_3254" x="206" y="126" width="66" height="66" filterUnits="userSpaceOnUse" color-interpolation-filters="sRGB">
<feFlood flood-opacity="0" result="BackgroundImageFix"/>
<feColorMatrix in="SourceAlpha" type="matrix" values="0 0 0 0 0 0 0 0 0 0 0 0 0 0 0 0 0 0 127 0" result="hardAlpha"/>
<feOffset dx="2" dy="2"/>
<feGaussianBlur stdDeviation="4"/>
<feComposite in2="hardAlpha" operator="out"/>
<feColorMatrix type="matrix" values="0 0 0 0 0 0 0 0 0 0 0 0 0 0 0 0 0 0 0.04 0"/>
<feBlend mode="normal" in2="BackgroundImageFix" result="effect1_dropShadow_228_3254"/>
<feColorMatrix in="SourceAlpha" type="matrix" values="0 0 0 0 0 0 0 0 0 0 0 0 0 0 0 0 0 0 127 0" result="hardAlpha"/>
<feOffset dx="2" dy="2"/>
<feGaussianBlur stdDeviation="1.5"/>
<feComposite in2="hardAlpha" operator="out"/>
<feColorMatrix type="matrix" values="0 0 0 0 0 0 0 0 0 0 0 0 0 0 0 0 0 0 0.06 0"/>
<feBlend mode="normal" in2="effect1_dropShadow_228_3254" result="effect2_dropShadow_228_3254"/>
<feBlend mode="normal" in="SourceGraphic" in2="effect2_dropShadow_228_3254" result="shape"/>
</filter>
<filter id="filter2_d_228_3254" x="210" y="132" width="54" height="54" filterUnits="userSpaceOnUse" color-interpolation-filters="sRGB">
<feFlood flood-opacity="0" result="BackgroundImageFix"/>
<feColorMatrix in="SourceAlpha" type="matrix" values="0 0 0 0 0 0 0 0 0 0 0 0 0 0 0 0 0 0 127 0" result="hardAlpha"/>
<feOffset dy="2"/>
<feGaussianBlur stdDeviation="1"/>
<feComposite in2="hardAlpha" operator="out"/>
<feColorMatrix type="matrix" values="0 0 0 0 0 0 0 0 0 0 0 0 0 0 0 0 0 0 0.05 0"/>
<feBlend mode="normal" in2="BackgroundImageFix" result="effect1_dropShadow_228_3254"/>
<feBlend mode="normal" in="SourceGraphic" in2="effect1_dropShadow_228_3254" result="shape"/>
</filter>
<filter id="filter3_dd_228_3254" x="24" y="126" width="66" height="66" filterUnits="userSpaceOnUse" color-interpolation-filters="sRGB">
<feFlood flood-opacity="0" result="BackgroundImageFix"/>
<feColorMatrix in="SourceAlpha" type="matrix" values="0 0 0 0 0 0 0 0 0 0 0 0 0 0 0 0 0 0 127 0" result="hardAlpha"/>
<feOffset dx="2" dy="2"/>
<feGaussianBlur stdDeviation="4"/>
<feComposite in2="hardAlpha" operator="out"/>
<feColorMatrix type="matrix" values="0 0 0 0 0 0 0 0 0 0 0 0 0 0 0 0 0 0 0.04 0"/>
<feBlend mode="normal" in2="BackgroundImageFix" result="effect1_dropShadow_228_3254"/>
<feColorMatrix in="SourceAlpha" type="matrix" values="0 0 0 0 0 0 0 0 0 0 0 0 0 0 0 0 0 0 127 0" result="hardAlpha"/>
<feOffset dx="2" dy="2"/>
<feGaussianBlur stdDeviation="1.5"/>
<feComposite in2="hardAlpha" operator="out"/>
<feColorMatrix type="matrix" values="0 0 0 0 0 0 0 0 0 0 0 0 0 0 0 0 0 0 0.06 0"/>
<feBlend mode="normal" in2="effect1_dropShadow_228_3254" result="effect2_dropShadow_228_3254"/>
<feBlend mode="normal" in="SourceGraphic" in2="effect2_dropShadow_228_3254" result="shape"/>
</filter>
<filter id="filter4_d_228_3254" x="28" y="132" width="54" height="54" filterUnits="userSpaceOnUse" color-interpolation-filters="sRGB">
<feFlood flood-opacity="0" result="BackgroundImageFix"/>
<feColorMatrix in="SourceAlpha" type="matrix" values="0 0 0 0 0 0 0 0 0 0 0 0 0 0 0 0 0 0 127 0" result="hardAlpha"/>
<feOffset dy="2"/>
<feGaussianBlur stdDeviation="1"/>
<feComposite in2="hardAlpha" operator="out"/>
<feColorMatrix type="matrix" values="0 0 0 0 0 0 0 0 0 0 0 0 0 0 0 0 0 0 0.05 0"/>
<feBlend mode="normal" in2="BackgroundImageFix" result="effect1_dropShadow_228_3254"/>
<feBlend mode="normal" in="SourceGraphic" in2="effect1_dropShadow_228_3254" result="shape"/>
</filter>
<filter id="filter5_dd_228_3254" x="206" y="297" width="66" height="66" filterUnits="userSpaceOnUse" color-interpolation-filters="sRGB">
<feFlood flood-opacity="0" result="BackgroundImageFix"/>
<feColorMatrix in="SourceAlpha" type="matrix" values="0 0 0 0 0 0 0 0 0 0 0 0 0 0 0 0 0 0 127 0" result="hardAlpha"/>
<feOffset dx="2" dy="2"/>
<feGaussianBlur stdDeviation="4"/>
<feComposite in2="hardAlpha" operator="out"/>
<feColorMatrix type="matrix" values="0 0 0 0 0 0 0 0 0 0 0 0 0 0 0 0 0 0 0.04 0"/>
<feBlend mode="normal" in2="BackgroundImageFix" result="effect1_dropShadow_228_3254"/>
<feColorMatrix in="SourceAlpha" type="matrix" values="0 0 0 0 0 0 0 0 0 0 0 0 0 0 0 0 0 0 127 0" result="hardAlpha"/>
<feOffset dx="2" dy="2"/>
<feGaussianBlur stdDeviation="1.5"/>
<feComposite in2="hardAlpha" operator="out"/>
<feColorMatrix type="matrix" values="0 0 0 0 0 0 0 0 0 0 0 0 0 0 0 0 0 0 0.06 0"/>
<feBlend mode="normal" in2="effect1_dropShadow_228_3254" result="effect2_dropShadow_228_3254"/>
<feBlend mode="normal" in="SourceGraphic" in2="effect2_dropShadow_228_3254" result="shape"/>
</filter>
<filter id="filter6_d_228_3254" x="210" y="303" width="54" height="54" filterUnits="userSpaceOnUse" color-interpolation-filters="sRGB">
<feFlood flood-opacity="0" result="BackgroundImageFix"/>
<feColorMatrix in="SourceAlpha" type="matrix" values="0 0 0 0 0 0 0 0 0 0 0 0 0 0 0 0 0 0 127 0" result="hardAlpha"/>
<feOffset dy="2"/>
<feGaussianBlur stdDeviation="1"/>
<feComposite in2="hardAlpha" operator="out"/>
<feColorMatrix type="matrix" values="0 0 0 0 0 0 0 0 0 0 0 0 0 0 0 0 0 0 0.05 0"/>
<feBlend mode="normal" in2="BackgroundImageFix" result="effect1_dropShadow_228_3254"/>
<feBlend mode="normal" in="SourceGraphic" in2="effect1_dropShadow_228_3254" result="shape"/>
</filter>
<filter id="filter7_dd_228_3254" x="114" y="126" width="66" height="66" filterUnits="userSpaceOnUse" color-interpolation-filters="sRGB">
<feFlood flood-opacity="0" result="BackgroundImageFix"/>
<feColorMatrix in="SourceAlpha" type="matrix" values="0 0 0 0 0 0 0 0 0 0 0 0 0 0 0 0 0 0 127 0" result="hardAlpha"/>
<feOffset dx="2" dy="2"/>
<feGaussianBlur stdDeviation="4"/>
<feComposite in2="hardAlpha" operator="out"/>
<feColorMatrix type="matrix" values="0 0 0 0 0 0 0 0 0 0 0 0 0 0 0 0 0 0 0.04 0"/>
<feBlend mode="normal" in2="BackgroundImageFix" result="effect1_dropShadow_228_3254"/>
<feColorMatrix in="SourceAlpha" type="matrix" values="0 0 0 0 0 0 0 0 0 0 0 0 0 0 0 0 0 0 127 0" result="hardAlpha"/>
<feOffset dx="2" dy="2"/>
<feGaussianBlur stdDeviation="1.5"/>
<feComposite in2="hardAlpha" operator="out"/>
<feColorMatrix type="matrix" values="0 0 0 0 0 0 0 0 0 0 0 0 0 0 0 0 0 0 0.06 0"/>
<feBlend mode="normal" in2="effect1_dropShadow_228_3254" result="effect2_dropShadow_228_3254"/>
<feBlend mode="normal" in="SourceGraphic" in2="effect2_dropShadow_228_3254" result="shape"/>
</filter>
<filter id="filter8_d_228_3254" x="118" y="132" width="54" height="54" filterUnits="userSpaceOnUse" color-interpolation-filters="sRGB">
<feFlood flood-opacity="0" result="BackgroundImageFix"/>
<feColorMatrix in="SourceAlpha" type="matrix" values="0 0 0 0 0 0 0 0 0 0 0 0 0 0 0 0 0 0 127 0" result="hardAlpha"/>
<feOffset dy="2"/>
<feGaussianBlur stdDeviation="1"/>
<feComposite in2="hardAlpha" operator="out"/>
<feColorMatrix type="matrix" values="0 0 0 0 0 0 0 0 0 0 0 0 0 0 0 0 0 0 0.05 0"/>
<feBlend mode="normal" in2="BackgroundImageFix" result="effect1_dropShadow_228_3254"/>
<feBlend mode="normal" in="SourceGraphic" in2="effect1_dropShadow_228_3254" result="shape"/>
</filter>
<filter id="filter9_dd_228_3254" x="24" y="297" width="66" height="66" filterUnits="userSpaceOnUse" color-interpolation-filters="sRGB">
<feFlood flood-opacity="0" result="BackgroundImageFix"/>
<feColorMatrix in="SourceAlpha" type="matrix" values="0 0 0 0 0 0 0 0 0 0 0 0 0 0 0 0 0 0 127 0" result="hardAlpha"/>
<feOffset dx="2" dy="2"/>
<feGaussianBlur stdDeviation="4"/>
<feComposite in2="hardAlpha" operator="out"/>
<feColorMatrix type="matrix" values="0 0 0 0 0 0 0 0 0 0 0 0 0 0 0 0 0 0 0.04 0"/>
<feBlend mode="normal" in2="BackgroundImageFix" result="effect1_dropShadow_228_3254"/>
<feColorMatrix in="SourceAlpha" type="matrix" values="0 0 0 0 0 0 0 0 0 0 0 0 0 0 0 0 0 0 127 0" result="hardAlpha"/>
<feOffset dx="2" dy="2"/>
<feGaussianBlur stdDeviation="1.5"/>
<feComposite in2="hardAlpha" operator="out"/>
<feColorMatrix type="matrix" values="0 0 0 0 0 0 0 0 0 0 0 0 0 0 0 0 0 0 0.06 0"/>
<feBlend mode="normal" in2="effect1_dropShadow_228_3254" result="effect2_dropShadow_228_3254"/>
<feBlend mode="normal" in="SourceGraphic" in2="effect2_dropShadow_228_3254" result="shape"/>
</filter>
<filter id="filter10_d_228_3254" x="28" y="303" width="54" height="54" filterUnits="userSpaceOnUse" color-interpolation-filters="sRGB">
<feFlood flood-opacity="0" result="BackgroundImageFix"/>
<feColorMatrix in="SourceAlpha" type="matrix" values="0 0 0 0 0 0 0 0 0 0 0 0 0 0 0 0 0 0 127 0" result="hardAlpha"/>
<feOffset dy="2"/>
<feGaussianBlur stdDeviation="1"/>
<feComposite in2="hardAlpha" operator="out"/>
<feColorMatrix type="matrix" values="0 0 0 0 0 0 0 0 0 0 0 0 0 0 0 0 0 0 0.05 0"/>
<feBlend mode="normal" in2="BackgroundImageFix" result="effect1_dropShadow_228_3254"/>
<feBlend mode="normal" in="SourceGraphic" in2="effect1_dropShadow_228_3254" result="shape"/>
</filter>
<filter id="filter11_dd_228_3254" x="114" y="297" width="66" height="66" filterUnits="userSpaceOnUse" color-interpolation-filters="sRGB">
<feFlood flood-opacity="0" result="BackgroundImageFix"/>
<feColorMatrix in="SourceAlpha" type="matrix" values="0 0 0 0 0 0 0 0 0 0 0 0 0 0 0 0 0 0 127 0" result="hardAlpha"/>
<feOffset dx="2" dy="2"/>
<feGaussianBlur stdDeviation="4"/>
<feComposite in2="hardAlpha" operator="out"/>
<feColorMatrix type="matrix" values="0 0 0 0 0 0 0 0 0 0 0 0 0 0 0 0 0 0 0.04 0"/>
<feBlend mode="normal" in2="BackgroundImageFix" result="effect1_dropShadow_228_3254"/>
<feColorMatrix in="SourceAlpha" type="matrix" values="0 0 0 0 0 0 0 0 0 0 0 0 0 0 0 0 0 0 127 0" result="hardAlpha"/>
<feOffset dx="2" dy="2"/>
<feGaussianBlur stdDeviation="1.5"/>
<feComposite in2="hardAlpha" operator="out"/>
<feColorMatrix type="matrix" values="0 0 0 0 0 0 0 0 0 0 0 0 0 0 0 0 0 0 0.06 0"/>
<feBlend mode="normal" in2="effect1_dropShadow_228_3254" result="effect2_dropShadow_228_3254"/>
<feBlend mode="normal" in="SourceGraphic" in2="effect2_dropShadow_228_3254" result="shape"/>
</filter>
<filter id="filter12_d_228_3254" x="118" y="303" width="54" height="54" filterUnits="userSpaceOnUse" color-interpolation-filters="sRGB">
<feFlood flood-opacity="0" result="BackgroundImageFix"/>
<feColorMatrix in="SourceAlpha" type="matrix" values="0 0 0 0 0 0 0 0 0 0 0 0 0 0 0 0 0 0 127 0" result="hardAlpha"/>
<feOffset dy="2"/>
<feGaussianBlur stdDeviation="1"/>
<feComposite in2="hardAlpha" operator="out"/>
<feColorMatrix type="matrix" values="0 0 0 0 0 0 0 0 0 0 0 0 0 0 0 0 0 0 0.05 0"/>
<feBlend mode="normal" in2="BackgroundImageFix" result="effect1_dropShadow_228_3254"/>
<feBlend mode="normal" in="SourceGraphic" in2="effect1_dropShadow_228_3254" result="shape"/>
</filter>
<filter id="filter13_b_228_3254" x="108" y="206" width="74" height="74" filterUnits="userSpaceOnUse" color-interpolation-filters="sRGB">
<feFlood flood-opacity="0" result="BackgroundImageFix"/>
<feGaussianBlur in="BackgroundImageFix" stdDeviation="1"/>
<feComposite in2="SourceAlpha" operator="in" result="effect1_backgroundBlur_228_3254"/>
<feBlend mode="normal" in="SourceGraphic" in2="effect1_backgroundBlur_228_3254" result="shape"/>
</filter>
<filter id="filter14_d_228_3254" x="115" y="213" width="64" height="64" filterUnits="userSpaceOnUse" color-interpolation-filters="sRGB">
<feFlood flood-opacity="0" result="BackgroundImageFix"/>
<feColorMatrix in="SourceAlpha" type="matrix" values="0 0 0 0 0 0 0 0 0 0 0 0 0 0 0 0 0 0 127 0" result="hardAlpha"/>
<feOffset dx="2" dy="2"/>
<feGaussianBlur stdDeviation="1.5"/>
<feComposite in2="hardAlpha" operator="out"/>
<feColorMatrix type="matrix" values="0 0 0 0 0 0 0 0 0 0 0 0 0 0 0 0 0 0 0.12 0"/>
<feBlend mode="normal" in2="BackgroundImageFix" result="effect1_dropShadow_228_3254"/>
<feBlend mode="normal" in="SourceGraphic" in2="effect1_dropShadow_228_3254" result="shape"/>
</filter>
<radialGradient id="paint0_radial_228_3254" cx="0" cy="0" r="1" gradientUnits="userSpaceOnUse" gradientTransform="translate(145 224) rotate(90) scale(196.5 148.398)">
<stop stop-color="white"/>
<stop offset="1" stop-color="white" stop-opacity="0"/>
</radialGradient>
<linearGradient id="paint1_linear_228_3254" x1="237" y1="133" x2="237" y2="177.5" gradientUnits="userSpaceOnUse">
<stop stop-color="#F3E8FF"/>
<stop offset="1" stop-color="#FAF5FF"/>
</linearGradient>
<linearGradient id="paint2_linear_228_3254" x1="55" y1="133" x2="55" y2="177.5" gradientUnits="userSpaceOnUse">
<stop stop-color="#D1FAE5"/>
<stop offset="1" stop-color="#ECFDF5"/>
</linearGradient>
<linearGradient id="paint3_linear_228_3254" x1="237" y1="304" x2="237" y2="348.5" gradientUnits="userSpaceOnUse">
<stop stop-color="#FFE4E6"/>
<stop offset="1" stop-color="#FFF1F2"/>
</linearGradient>
<linearGradient id="paint4_linear_228_3254" x1="145" y1="133" x2="145" y2="177.5" gradientUnits="userSpaceOnUse">
<stop stop-color="#E0F2FE"/>
<stop offset="1" stop-color="#F0F9FF"/>
</linearGradient>
<linearGradient id="paint5_linear_228_3254" x1="55" y1="304" x2="55" y2="348.5" gradientUnits="userSpaceOnUse">
<stop stop-color="#DBEAFE"/>
<stop offset="1" stop-color="#EFF6FF"/>
</linearGradient>
<linearGradient id="paint6_linear_228_3254" x1="145" y1="304" x2="145" y2="348.5" gradientUnits="userSpaceOnUse">
<stop stop-color="#FEF3C7"/>
<stop offset="1" stop-color="#FFFBEB"/>
</linearGradient>
<linearGradient id="paint7_linear_228_3254" x1="145" y1="214" x2="145" y2="272" gradientUnits="userSpaceOnUse">
<stop stop-color="#4F46E5"/>
<stop offset="1" stop-color="#3730A3"/>
</linearGradient>
<linearGradient id="paint8_linear_228_3254" x1="145" y1="214" x2="145" y2="272" gradientUnits="userSpaceOnUse">
<stop stop-color="white"/>
<stop offset="1" stop-color="#4D44DF"/>
</linearGradient>
<clipPath id="clip0_228_3254">
<rect width="290" height="384" fill="white"/>
</clipPath>
<clipPath id="clip1_228_3254">
<rect width="42" height="42" fill="white" transform="translate(124 222)"/>
</clipPath>
</defs>
</svg>
