<svg xmlns="http://www.w3.org/2000/svg" xmlns:xlink="http://www.w3.org/1999/xlink" width="290" height="384" fill="none" xmlns:v="https://vecta.io/nano"><style><![CDATA[.B{fill:#fff}.C{shape-rendering:crispEdges}.D{stroke:#fff}.E{color-interpolation-filters:sRGB}.F{flood-opacity:0}.G{stroke-opacity:.4}.H{stroke-width:3}.I{fill:#0091e2}.J{fill:#a8a29e}]]></style><g clip-path="url(#I)"><path fill="url(#G)" d="M0 0h290v384H0z"/><g filter="url(#B)"><rect x="142" y="324" width="128" height="40" rx="8" fill="#4338ca" class="C"/><path d="M168.875 338.75v4.755l3.951 2.37a.87.87 0 0 1 .398.538c.056.225.021.464-.099.663a.87.87 0 0 1-.538.398c-.225.056-.464.021-.663-.099l-4.375-2.625c-.129-.077-.236-.187-.311-.319a.88.88 0 0 1-.113-.431v-5.25c0-.232.092-.455.256-.619s.387-.256.619-.256.455.092.619.256.256.387.256.619zM168 333.5c-1.38-.003-2.748.267-4.023.795s-2.433 1.305-3.406 2.284l-2.196 2.39V337c0-.232-.092-.455-.256-.619s-.387-.256-.619-.256-.455.092-.619.256-.256.387-.256.619v4.375c0 .232.092.455.256.619s.387.256.619.256h4.375c.232 0 .455-.092.619-.256s.256-.387.256-.619-.092-.455-.256-.619-.387-.256-.619-.256h-2.516l2.449-2.687c1.216-1.216 2.764-2.047 4.449-2.389a8.75 8.75 0 0 1 8.961 3.636 8.75 8.75 0 0 1 1.527 4.813 8.76 8.76 0 0 1-1.387 4.856 8.75 8.75 0 0 1-3.839 3.28c-1.575.693-3.318.906-5.013.613a8.74 8.74 0 0 1-4.516-2.259c-.084-.079-.182-.14-.29-.181s-.221-.061-.336-.057-.229.029-.334.076a.88.88 0 0 0-.46.487.88.88 0 0 0-.057.337.87.87 0 0 0 .274.612 10.5 10.5 0 0 0 4.413 2.485c1.652.456 3.39.5 5.063.13s3.23-1.145 4.535-2.256a10.49 10.49 0 0 0 2.952-4.116 10.5 10.5 0 0 0 .681-5.018c-.186-1.704-.785-3.336-1.747-4.754A10.5 10.5 0 0 0 168 333.5z" class="B"/><path d="M190.032 338.94c1.195 0 2.133.288 2.816.864s1.024 1.349 1.024 2.32c0 1.035-.341 1.829-1.024 2.384-.683.544-1.616.816-2.8.816l-.224.128h-2.272v4.048h-2.176v-10.56h4.656zm-.256 4.832c.619 0 1.077-.123 1.376-.368.309-.256.464-.645.464-1.168s-.155-.907-.464-1.152c-.299-.256-.757-.384-1.376-.384h-2.224v3.072h2.224zm1.296.464l3.424 5.264h-2.48l-2.832-4.624 1.888-.64zm8.447-2.896c.81 0 1.52.165 2.128.496a3.5 3.5 0 0 1 1.44 1.424c.352.619.528 1.365.528 2.24 0 .864-.176 1.611-.528 2.24a3.5 3.5 0 0 1-1.44 1.424c-.608.331-1.318.496-2.128.496-.8 0-1.51-.165-2.128-.496s-1.104-.805-1.456-1.424c-.342-.629-.512-1.376-.512-2.24 0-.875.17-1.621.512-2.24.352-.619.837-1.093 1.456-1.424s1.328-.496 2.128-.496zm0 1.632c-.406 0-.752.096-1.04.288-.278.181-.491.459-.64.832s-.224.843-.224 1.408.074 1.035.224 1.408.362.656.64.848c.288.181.634.272 1.04.272.394 0 .73-.091 1.008-.272.288-.192.506-.475.656-.848s.224-.843.224-1.408-.075-1.035-.224-1.408-.368-.651-.656-.832c-.278-.192-.614-.288-1.008-.288zm8.09-4.976v9.04c0 .373.064.635.192.784s.341.224.64.224c.181 0 .331-.011.448-.032l.448-.128-.192 1.44c-.181.107-.411.187-.688.24-.267.064-.533.096-.8.096-.779 0-1.349-.187-1.712-.56-.352-.384-.528-.992-.528-1.824v-9.28h2.192zm5.109 0v9.04c0 .373.064.635.192.784s.342.224.64.224c.182 0 .331-.011.448-.032l.448-.128-.192 1.44c-.181.107-.41.187-.688.24a3.41 3.41 0 0 1-.8.096c-.778 0-1.349-.187-1.712-.56-.352-.384-.528-.992-.528-1.824v-9.28h2.192zm7.721 11.504v-10.56h4.624c1.28 0 2.224.251 2.832.752s.912 1.211.912 2.128a2.38 2.38 0 0 1-.512 1.504c-.342.437-.843.715-1.504.832v.016c.736.107 1.301.384 1.696.832a2.34 2.34 0 0 1 .592 1.6c0 .907-.331 1.616-.992 2.128-.651.512-1.606.768-2.864.768h-4.784zm2.144-1.664h2.448c.597 0 1.04-.123 1.328-.368s.432-.587.432-1.024c0-.448-.144-.789-.432-1.024s-.731-.352-1.328-.352h-2.448v2.768zm0-4.464h2.192c1.162 0 1.744-.453 1.744-1.36s-.582-1.36-1.744-1.36h-2.192v2.72zm12.942 1.024c0-.459-.134-.816-.4-1.072-.256-.256-.598-.384-1.024-.384-.395 0-.742.101-1.04.304s-.518.539-.656 1.008l-1.872-.576c.181-.704.576-1.269 1.184-1.696.618-.427 1.445-.64 2.48-.64.704 0 1.317.112 1.84.336.522.213.928.539 1.216.976.298.437.448.987.448 1.648v3.248c0 .405.192.608.576.608a1.62 1.62 0 0 0 .512-.08l-.128 1.36c-.278.139-.624.208-1.04.208a2.53 2.53 0 0 1-1.008-.192 1.56 1.56 0 0 1-.704-.576c-.171-.267-.256-.597-.256-.992v-.064l.384-.064a1.84 1.84 0 0 1-.528 1.04c-.288.277-.64.491-1.056.64a3.64 3.64 0 0 1-1.264.224c-.544 0-1.014-.08-1.408-.24-.395-.171-.699-.416-.913-.736s-.319-.715-.319-1.184c0-.597.192-1.083.576-1.456.384-.384.933-.645 1.648-.784l3.008-.608-.016 1.36-1.92.384c-.363.075-.64.176-.832.304-.182.117-.272.315-.272.592 0 .267.096.469.288.608.202.139.442.208.72.208.224 0 .442-.027.656-.08s.405-.139.576-.256.304-.277.4-.48a1.71 1.71 0 0 0 .144-.736v-2.16zm8.228-3.056c.714 0 1.317.107 1.808.32.501.203.901.485 1.2.848a3.1 3.1 0 0 1 .656 1.184l-2.048.736c-.107-.48-.288-.843-.544-1.088s-.603-.368-1.04-.368c-.406 0-.752.096-1.04.288-.288.181-.507.464-.656.848-.15.373-.224.843-.224 1.408s.074 1.035.224 1.408c.16.373.384.651.672.832.298.181.645.272 1.04.272.32 0 .592-.053.816-.16.224-.117.405-.283.544-.496.149-.213.25-.469.304-.768l1.984.64c-.118.48-.336.901-.656 1.264s-.731.645-1.232.848-1.083.304-1.744.304c-.822 0-1.547-.165-2.176-.496s-1.115-.805-1.456-1.424-.512-1.365-.512-2.24.17-1.621.512-2.24a3.49 3.49 0 0 1 1.44-1.424c.618-.331 1.328-.496 2.128-.496zm13.543.16l-3.696 3.856-.432.208-2.4 2.576-.032-2.336 4.064-4.304h2.496zm-5.952-3.504V349.5h-2.192v-11.504h2.192zm2.56 6.048l3.584 5.456h-2.48l-2.608-4.176 1.504-1.28z" class="B"/><rect x="143" y="325" width="126" height="38" rx="7" stroke="#c7d2fe" stroke-width="2" class="C"/></g><mask id="A" maskUnits="userSpaceOnUse" x="0" y="0" width="290" height="384" mask-type="alpha"><rect width="290" height="384" rx="24" fill="url(#H)"/></mask><g mask="url(#A)"><path d="M142 344H88.5C71 344 62 335 62 317.5v-251" stroke-width="2" class="D"/><g filter="url(#C)" class="C"><rect x="37" y="269" width="210" height="30" rx="15" class="B"/><rect x="35.5" y="267.5" width="213" height="33" rx="16.5" class="D G H"/></g><g clip-path="url(#J)" class="I"><use xlink:href="#N"/></g><path d="M95.965 289.156c-.598 0-1.14-.113-1.625-.338s-.871-.555-1.157-.988c-.286-.442-.442-.975-.468-1.599h1.378c.026.477.199.871.52 1.183.329.312.78.468 1.352.468.563 0 1.005-.139 1.326-.416s.481-.659.481-1.144c0-.537-.195-.932-.585-1.183s-.867-.377-1.43-.377h-.806v-1.222h.689c.511 0 .932-.104 1.261-.312s.494-.533.494-.975c0-.381-.126-.68-.377-.897-.251-.225-.607-.338-1.066-.338-.468 0-.841.126-1.118.377a1.42 1.42 0 0 0-.468.962h-1.365c.026-.52.165-.975.416-1.365s.594-.693 1.027-.91c.433-.225.936-.338 1.508-.338.624 0 1.144.108 1.56.325.416.208.728.49.936.845s.312.754.312 1.196c0 .451-.134.841-.403 1.17-.26.321-.576.555-.949.702v.078c.503.139.914.399 1.235.78.329.373.494.875.494 1.508 0 .511-.126.984-.377 1.417-.243.425-.602.763-1.079 1.014-.468.251-1.04.377-1.716.377zm7.379 0c-.537 0-1.018-.126-1.443-.377-.425-.26-.763-.641-1.014-1.144-.243-.503-.364-1.122-.364-1.859s.126-1.356.377-1.859.589-.88 1.014-1.131a2.75 2.75 0 0 1 1.443-.39c.494 0 .901.095 1.222.286.321.182.559.416.715.702v-3.744h1.378V289h-1.183l-.117-.949h-.078c-.173.338-.42.607-.741.806-.312.199-.715.299-1.209.299zm.286-1.313a1.59 1.59 0 0 0 1.222-.52c.329-.347.494-.862.494-1.547 0-.693-.165-1.209-.494-1.547a1.59 1.59 0 0 0-1.222-.52 1.63 1.63 0 0 0-1.235.52c-.321.347-.481.867-.481 1.56 0 .685.16 1.2.481 1.547.329.338.741.507 1.235.507zm7.951 1.313a3.15 3.15 0 0 1-1.612-.416c-.468-.277-.836-.667-1.105-1.17-.269-.511-.403-1.109-.403-1.794s.134-1.278.403-1.781a3.02 3.02 0 0 1 1.118-1.17c.468-.286 1.001-.429 1.599-.429.823 0 1.486.208 1.989.624.511.407.836.971.975 1.69h-1.443c-.087-.312-.264-.559-.533-.741-.26-.182-.594-.273-1.001-.273a1.66 1.66 0 0 0-.845.234 1.74 1.74 0 0 0-.637.702c-.156.303-.234.685-.234 1.144 0 .451.078.832.234 1.144a1.84 1.84 0 0 0 .637.715 1.66 1.66 0 0 0 .845.234c.416 0 .75-.091 1.001-.273s.429-.433.533-.754h1.443c-.173.711-.511 1.274-1.014 1.69s-1.153.624-1.95.624zm8.705-.156v-1.963h-4.316v-1.079l4.069-6.058h1.625v5.889h1.183v1.248h-1.183V289h-1.378zm-2.782-3.211h2.86v-4.342l-2.86 4.342zm9.576 3.367c-.624 0-1.175-.117-1.651-.351a2.78 2.78 0 0 1-1.105-.962c-.269-.407-.403-.875-.403-1.404 0-.563.147-1.036.442-1.417.303-.39.641-.659 1.014-.806v-.078c-.356-.182-.646-.438-.871-.767s-.338-.728-.338-1.196a2.19 2.19 0 0 1 .351-1.209c.234-.373.567-.667 1.001-.884.433-.225.953-.338 1.56-.338.598 0 1.113.113 1.547.338.433.217.767.511 1.001.884.242.364.364.767.364 1.209 0 .468-.113.867-.338 1.196a2.33 2.33 0 0 1-.871.767v.078c.381.147.719.416 1.014.806.294.381.442.854.442 1.417 0 .529-.135.997-.403 1.404-.26.407-.629.728-1.105.962s-1.027.351-1.651.351zm0-5.499c.485 0 .866-.126 1.144-.377.286-.251.429-.576.429-.975s-.143-.724-.429-.975c-.278-.251-.659-.377-1.144-.377s-.871.126-1.157.377c-.278.251-.416.576-.416.975s.138.724.416.975c.286.251.671.377 1.157.377zm0 4.251c.537 0 .97-.134 1.3-.403.329-.277.494-.663.494-1.157s-.165-.875-.494-1.144c-.33-.277-.763-.416-1.3-.416s-.971.139-1.3.416c-.33.269-.494.65-.494 1.144s.164.88.494 1.157c.329.269.762.403 1.3.403zm7.86 1.248c-.598 0-1.14-.113-1.625-.338s-.871-.555-1.157-.988c-.286-.442-.442-.975-.468-1.599h1.378c.026.477.199.871.52 1.183.329.312.78.468 1.352.468.563 0 1.005-.139 1.326-.416s.481-.659.481-1.144c0-.537-.195-.932-.585-1.183s-.867-.377-1.43-.377h-.806v-1.222h.689c.511 0 .931-.104 1.261-.312s.494-.533.494-.975c0-.381-.126-.68-.377-.897-.252-.225-.607-.338-1.066-.338-.468 0-.841.126-1.118.377s-.434.572-.468.962h-1.365c.026-.52.164-.975.416-1.365s.593-.693 1.027-.91c.433-.225.936-.338 1.508-.338.624 0 1.144.108 1.56.325.416.208.728.49.936.845s.312.754.312 1.196c0 .451-.135.841-.403 1.17-.26.321-.577.555-.949.702v.078c.502.139.914.399 1.235.78.329.373.494.875.494 1.508 0 .511-.126.984-.377 1.417-.243.425-.603.763-1.079 1.014-.468.251-1.04.377-1.716.377zm7.795 0c-.598 0-1.14-.113-1.625-.338s-.871-.555-1.157-.988c-.286-.442-.442-.975-.468-1.599h1.378c.026.477.199.871.52 1.183.329.312.78.468 1.352.468.563 0 1.005-.139 1.326-.416s.481-.659.481-1.144c0-.537-.195-.932-.585-1.183s-.867-.377-1.43-.377h-.806v-1.222h.689c.511 0 .931-.104 1.261-.312s.494-.533.494-.975c0-.381-.126-.68-.377-.897-.252-.225-.607-.338-1.066-.338-.468 0-.841.126-1.118.377s-.434.572-.468.962h-1.365c.026-.52.164-.975.416-1.365s.593-.693 1.027-.91c.433-.225.936-.338 1.508-.338.624 0 1.144.108 1.56.325.416.208.728.49.936.845s.312.754.312 1.196c0 .451-.135.841-.403 1.17-.26.321-.577.555-.949.702v.078c.502.139.914.399 1.235.78.329.373.494.875.494 1.508 0 .511-.126.984-.377 1.417-.243.425-.603.763-1.079 1.014-.468.251-1.04.377-1.716.377zm7.716 0c-.632 0-1.183-.117-1.651-.351s-.836-.555-1.105-.962c-.26-.407-.411-.867-.455-1.378h1.404c.087.425.286.767.598 1.027.321.26.728.39 1.222.39.581 0 1.04-.182 1.378-.546.338-.373.507-.849.507-1.43 0-.615-.173-1.092-.52-1.43s-.788-.507-1.326-.507c-.433 0-.801.1-1.105.299a2.21 2.21 0 0 0-.715.754h-1.326l.78-5.122h4.953v1.274h-3.887l-.442 2.327h.091c.182-.208.425-.381.728-.52.312-.139.681-.208 1.105-.208.624 0 1.157.134 1.599.403a2.69 2.69 0 0 1 1.04 1.118c.243.468.364 1.001.364 1.599 0 .607-.134 1.157-.403 1.651a2.99 2.99 0 0 1-1.118 1.183c-.485.286-1.057.429-1.716.429zm8.809-.156v-1.963h-4.316v-1.079l4.069-6.058h1.625v5.889h1.183v1.248h-1.183V289h-1.378zm-2.782-3.211h2.86v-4.342l-2.86 4.342zm9.758 3.367c-.641 0-1.183-.117-1.625-.351-.442-.243-.801-.568-1.079-.975-.268-.407-.468-.871-.598-1.391-.121-.529-.182-1.083-.182-1.664 0-1.005.139-1.885.416-2.639.286-.754.694-1.339 1.222-1.755.529-.425 1.166-.637 1.911-.637.616 0 1.131.113 1.547.338a2.39 2.39 0 0 1 .988.91c.243.381.39.819.442 1.313h-1.287a1.58 1.58 0 0 0-.585-.962c-.303-.234-.676-.351-1.118-.351-.58 0-1.083.277-1.508.832-.424.546-.663 1.404-.715 2.574h.078c.182-.329.468-.62.858-.871.399-.251.871-.377 1.417-.377.529 0 1.01.126 1.443.377.434.243.776.585 1.027 1.027.26.442.39.953.39 1.534 0 .546-.125 1.053-.377 1.521a2.86 2.86 0 0 1-1.053 1.131c-.45.277-.988.416-1.612.416zm-.091-1.248c.529 0 .954-.165 1.274-.494.33-.329.494-.75.494-1.261s-.164-.932-.494-1.261c-.32-.338-.745-.507-1.274-.507s-.962.165-1.3.494c-.329.329-.494.75-.494 1.261 0 .503.165.923.494 1.261.338.338.772.507 1.3.507zm7.769 1.248a3.82 3.82 0 0 1-1.625-.338c-.485-.225-.871-.555-1.157-.988-.286-.442-.442-.975-.468-1.599h1.378a1.72 1.72 0 0 0 .52 1.183c.33.312.78.468 1.352.468.564 0 1.006-.139 1.326-.416s.481-.659.481-1.144c0-.537-.195-.932-.585-1.183s-.866-.377-1.43-.377h-.806v-1.222h.689c.512 0 .932-.104 1.261-.312s.494-.533.494-.975c0-.381-.125-.68-.377-.897-.251-.225-.606-.338-1.066-.338-.468 0-.84.126-1.118.377a1.42 1.42 0 0 0-.468.962h-1.365c.026-.52.165-.975.416-1.365a2.56 2.56 0 0 1 1.027-.91c.434-.225.936-.338 1.508-.338.624 0 1.144.108 1.56.325.416.208.728.49.936.845s.312.754.312 1.196a1.79 1.79 0 0 1-.403 1.17 2.28 2.28 0 0 1-.949.702v.078c.503.139.915.399 1.235.78.33.373.494.875.494 1.508 0 .511-.125.984-.377 1.417-.242.425-.602.763-1.079 1.014-.468.251-1.04.377-1.716.377zm8.731-.156v-1.963h-4.316v-1.079l4.069-6.058h1.625v5.889h1.183v1.248h-1.183V289h-1.378zm-2.782-3.211h2.86v-4.342l-2.86 4.342zm9.576 3.367c-.702 0-1.317-.191-1.846-.572-.52-.381-.923-.923-1.209-1.625-.286-.711-.429-1.547-.429-2.509 0-.971.143-1.807.429-2.509s.689-1.244 1.209-1.625c.529-.381 1.144-.572 1.846-.572.711 0 1.326.191 1.846.572s.923.923 1.209 1.625.429 1.538.429 2.509c0 .962-.143 1.798-.429 2.509-.286.702-.689 1.244-1.209 1.625s-1.135.572-1.846.572zm-2.08-4.706c0 .485.043.927.13 1.326s.208.745.364 1.04l2.275-5.629a1.57 1.57 0 0 0-.689-.156c-.607 0-1.105.308-1.495.923-.39.607-.585 1.439-.585 2.496zm2.08 3.432c.407 0 .767-.139 1.079-.416s.555-.672.728-1.183c.182-.52.273-1.131.273-1.833 0-.485-.043-.927-.13-1.326s-.208-.741-.364-1.027l-2.275 5.629a1.57 1.57 0 0 0 .689.156zm5.975 1.118l3.445-7.852h-4.758V279.9h6.175v1.066L196.857 289h-1.443zm9.706.156a3.15 3.15 0 0 1-1.612-.416c-.468-.277-.836-.667-1.105-1.17-.269-.511-.403-1.109-.403-1.794s.134-1.278.403-1.781a3.02 3.02 0 0 1 1.118-1.17c.468-.286 1.001-.429 1.599-.429.823 0 1.486.208 1.989.624.511.407.836.971.975 1.69h-1.443c-.087-.312-.264-.559-.533-.741-.26-.182-.594-.273-1.001-.273a1.66 1.66 0 0 0-.845.234 1.74 1.74 0 0 0-.637.702c-.156.303-.234.685-.234 1.144 0 .451.078.832.234 1.144a1.84 1.84 0 0 0 .637.715 1.66 1.66 0 0 0 .845.234c.416 0 .75-.091 1.001-.273s.429-.433.533-.754h1.443c-.173.711-.511 1.274-1.014 1.69s-1.153.624-1.95.624zm8.705-.156v-1.963h-4.316v-1.079l4.069-6.058h1.625v5.889h1.183v1.248h-1.183V289h-1.378zm-2.782-3.211h2.86v-4.342l-2.86 4.342z" class="J"/><g filter="url(#D)" class="C"><rect x="37" y="215" width="210" height="30" rx="15" class="B"/><rect x="35.5" y="213.5" width="213" height="33" rx="16.5" class="D G H"/></g><g clip-path="url(#K)" class="I"><path d="M76.826 227.806c-.069-.057-.698-.534-2.046-.534a6.42 6.42 0 0 0-1.059.093c-.255-1.78-1.732-2.641-1.791-2.686l-.361-.21-.233.336a4.97 4.97 0 0 0-.639 1.489c-.245 1.012-.094 1.966.418 2.78-.616.349-1.616.431-1.826.443H52.777a.78.78 0 0 0-.779.78 11.79 11.79 0 0 0 .72 4.246c.569 1.489 1.418 2.595 2.512 3.269 1.232.755 3.244 1.186 5.511 1.186 1.022 0 2.047-.094 3.059-.28 1.408-.255 2.756-.745 3.999-1.453 1.024-.594 1.942-1.35 2.722-2.234 1.314-1.478 2.093-3.129 2.663-4.595h.233c1.43 0 2.314-.57 2.801-1.06.326-.302.569-.675.745-1.094l.104-.302-.239-.174zm-10.22 1.233h2.21c.104 0 .198-.081.198-.198v-1.978c0-.104-.082-.198-.198-.198h-2.21c-.104 0-.198.082-.198.198v1.978c.012.117.094.198.198.198zm-3.081-5.665h2.21c.104 0 .198-.081.198-.198v-1.978c0-.104-.094-.198-.198-.198h-2.21c-.104 0-.198.082-.198.198v1.978c0 .104.092.198.198.198zm0 2.838h2.21c.104 0 .198-.094.198-.198v-1.978c0-.104-.094-.198-.198-.198h-2.21c-.104 0-.198.081-.198.198v1.978c0 .106.092.198.198.198zm-3.058 0h2.21c.104 0 .198-.094.198-.198v-1.978c0-.104-.082-.198-.198-.198h-2.21c-.104 0-.198.081-.198.198v1.978c0 .106.082.198.198.198zm-3.105 0h2.21c.104 0 .198-.094.198-.198v-1.978c0-.104-.082-.198-.198-.198h-2.21c-.104 0-.198.081-.198.198v1.978c.012.106.094.198.198.198zm6.164 2.827h2.21c.104 0 .198-.081.198-.198v-1.978c0-.104-.082-.198-.198-.198h-2.21c-.104 0-.198.082-.198.198v1.978c0 .117.092.198.198.198zm-3.058 0h2.21c.104 0 .198-.081.198-.198v-1.978c0-.104-.082-.198-.198-.198h-2.21c-.104 0-.198.082-.198.198v1.978c0 .117.082.198.198.198zm-3.105 0h2.21c.104 0 .198-.081.198-.198v-1.978c0-.104-.082-.198-.198-.198h-2.21c-.104 0-.198.082-.198.198v1.978c.012.117.094.198.198.198zm-3.046 0h2.21c.104 0 .198-.081.198-.198v-1.978c0-.104-.082-.198-.198-.198h-2.21c-.104 0-.198.082-.198.198v1.978c.012.117.094.198.198.198z"/></g><path d="M96.082 235.156c-.641 0-1.183-.117-1.625-.351a3.08 3.08 0 0 1-1.079-.975 4.47 4.47 0 0 1-.598-1.391 7.42 7.42 0 0 1-.182-1.664c0-1.005.139-1.885.416-2.639.286-.754.693-1.339 1.222-1.755.529-.425 1.166-.637 1.911-.637.615 0 1.131.113 1.547.338.425.217.754.52.988.91a2.99 2.99 0 0 1 .442 1.313h-1.287c-.087-.407-.282-.728-.585-.962s-.676-.351-1.118-.351c-.581 0-1.083.277-1.508.832-.425.546-.663 1.404-.715 2.574h.078c.182-.329.468-.62.858-.871.399-.251.871-.377 1.417-.377.529 0 1.01.126 1.443.377a2.66 2.66 0 0 1 1.027 1.027c.26.442.39.953.39 1.534 0 .546-.126 1.053-.377 1.521a2.87 2.87 0 0 1-1.053 1.131c-.451.277-.988.416-1.612.416zm-.091-1.248c.529 0 .953-.165 1.274-.494.329-.329.494-.75.494-1.261s-.165-.932-.494-1.261c-.321-.338-.745-.507-1.274-.507s-.962.165-1.3.494c-.329.329-.494.75-.494 1.261 0 .503.165.923.494 1.261.338.338.771.507 1.3.507zm4.662 1.092v-1.235h2.249v-6.24l-2.145.39v-1.118l2.678-.897h.845v7.865h2.418V235h-6.045zm11.019.156c-.641 0-1.183-.117-1.625-.351-.442-.243-.802-.568-1.079-.975-.269-.407-.468-.871-.598-1.391-.121-.529-.182-1.083-.182-1.664 0-1.005.139-1.885.416-2.639.286-.754.693-1.339 1.222-1.755.529-.425 1.166-.637 1.911-.637.615 0 1.131.113 1.547.338a2.39 2.39 0 0 1 .988.91c.243.381.39.819.442 1.313h-1.287a1.59 1.59 0 0 0-.585-.962c-.303-.234-.676-.351-1.118-.351-.581 0-1.083.277-1.508.832-.425.546-.663 1.404-.715 2.574h.078c.182-.329.468-.62.858-.871.399-.251.871-.377 1.417-.377.529 0 1.01.126 1.443.377a2.66 2.66 0 0 1 1.027 1.027c.26.442.39.953.39 1.534a3.17 3.17 0 0 1-.377 1.521c-.243.468-.594.845-1.053 1.131-.451.277-.988.416-1.612.416zm-.091-1.248c.529 0 .953-.165 1.274-.494.329-.329.494-.75.494-1.261s-.165-.932-.494-1.261c-.321-.338-.745-.507-1.274-.507s-.962.165-1.3.494c-.329.329-.494.75-.494 1.261 0 .503.165.923.494 1.261.338.338.771.507 1.3.507zm7.795 1.248c-.598 0-1.136-.139-1.612-.416-.468-.277-.837-.667-1.105-1.17-.269-.511-.403-1.109-.403-1.794s.134-1.278.403-1.781a3.02 3.02 0 0 1 1.118-1.17c.468-.286 1.001-.429 1.599-.429.823 0 1.486.208 1.989.624.511.407.836.971.975 1.69h-1.443c-.087-.312-.265-.559-.533-.741-.26-.182-.594-.273-1.001-.273-.295 0-.577.078-.845.234-.26.156-.473.39-.637.702-.156.303-.234.685-.234 1.144 0 .451.078.832.234 1.144.164.312.377.55.637.715.268.156.55.234.845.234.416 0 .749-.091 1.001-.273s.429-.433.533-.754h1.443c-.174.711-.512 1.274-1.014 1.69s-1.153.624-1.95.624zm4.714-.156v-1.092l2.34-1.963c.676-.598 1.204-1.174 1.586-1.729s.572-1.118.572-1.69c0-.477-.135-.849-.403-1.118-.269-.277-.633-.416-1.092-.416-.529 0-.936.169-1.222.507-.286.329-.429.724-.429 1.183h-1.339c.008-.641.143-1.179.403-1.612s.611-.763 1.053-.988c.45-.225.962-.338 1.534-.338.927 0 1.642.251 2.145.754.502.494.754 1.157.754 1.989 0 .529-.117 1.04-.351 1.534a6.28 6.28 0 0 1-.897 1.391 11.5 11.5 0 0 1-1.248 1.261l-1.365 1.144h4.108V235h-6.149zm10.772.156c-.633 0-1.183-.117-1.651-.351a2.78 2.78 0 0 1-1.105-.962c-.26-.407-.412-.867-.455-1.378h1.404c.086.425.286.767.598 1.027.32.26.728.39 1.222.39.58 0 1.04-.182 1.378-.546.338-.373.507-.849.507-1.43 0-.615-.174-1.092-.52-1.43s-.789-.507-1.326-.507c-.434 0-.802.1-1.105.299a2.19 2.19 0 0 0-.715.754h-1.326l.78-5.122h4.953v1.274h-3.887l-.442 2.327h.091c.182-.208.424-.381.728-.52.312-.139.68-.208 1.105-.208.624 0 1.157.134 1.599.403.45.269.797.641 1.04 1.118.242.468.364 1.001.364 1.599 0 .607-.135 1.157-.403 1.651-.26.494-.633.888-1.118 1.183-.486.286-1.058.429-1.716.429zm8.159 0c-.477 0-.88-.095-1.209-.286-.321-.199-.568-.472-.741-.819h-.078l-.117.949h-1.183v-9.36h1.378v3.744c.156-.26.403-.49.741-.689s.741-.299 1.209-.299c.537 0 1.018.13 1.443.39.424.251.758.628 1.001 1.131.251.503.377 1.122.377 1.859s-.126 1.356-.377 1.859c-.243.503-.577.884-1.001 1.144-.425.251-.906.377-1.443.377zm-.286-1.313c.494 0 .901-.169 1.222-.507.329-.347.494-.862.494-1.547 0-.693-.165-1.213-.494-1.56a1.59 1.59 0 0 0-1.222-.52 1.63 1.63 0 0 0-1.235.52c-.321.338-.481.854-.481 1.547 0 .685.16 1.2.481 1.547a1.63 1.63 0 0 0 1.235.52zm7.378 1.313c-.537 0-1.018-.126-1.443-.377-.424-.26-.762-.641-1.014-1.144-.242-.503-.364-1.122-.364-1.859s.126-1.356.377-1.859.59-.88 1.014-1.131c.434-.26.915-.39 1.443-.39.494 0 .902.095 1.222.286.321.182.559.416.715.702v-3.744h1.378V235h-1.183l-.117-.949h-.078c-.173.338-.42.607-.741.806-.312.199-.715.299-1.209.299zm.286-1.313c.494 0 .902-.173 1.222-.52.33-.347.494-.862.494-1.547 0-.693-.164-1.209-.494-1.547-.32-.347-.728-.52-1.222-.52a1.63 1.63 0 0 0-1.235.52c-.32.347-.481.867-.481 1.56 0 .685.161 1.2.481 1.547.33.338.741.507 1.235.507zM159.26 235v-1.963h-4.316v-1.079l4.069-6.058h1.625v5.889h1.183v1.248h-1.183V235h-1.378zm-2.782-3.211h2.86v-4.342l-2.86 4.342zm9.641 3.367a3.82 3.82 0 0 1-1.625-.338c-.485-.225-.871-.555-1.157-.988-.286-.442-.442-.975-.468-1.599h1.378a1.72 1.72 0 0 0 .52 1.183c.33.312.78.468 1.352.468.564 0 1.006-.139 1.326-.416s.481-.659.481-1.144c0-.537-.195-.932-.585-1.183s-.866-.377-1.43-.377h-.806v-1.222h.689c.512 0 .932-.104 1.261-.312s.494-.533.494-.975c0-.381-.125-.68-.377-.897-.251-.225-.606-.338-1.066-.338-.468 0-.84.126-1.118.377a1.42 1.42 0 0 0-.468.962h-1.365c.026-.52.165-.975.416-1.365a2.56 2.56 0 0 1 1.027-.91c.434-.225.936-.338 1.508-.338.624 0 1.144.108 1.56.325.416.208.728.49.936.845s.312.754.312 1.196a1.79 1.79 0 0 1-.403 1.17 2.28 2.28 0 0 1-.949.702v.078c.503.139.915.399 1.235.78.33.373.494.875.494 1.508 0 .511-.125.984-.377 1.417-.242.425-.602.763-1.079 1.014-.468.251-1.04.377-1.716.377zm7.73 0c-.624 0-1.174-.117-1.651-.351-.468-.234-.836-.555-1.105-.962s-.403-.875-.403-1.404c0-.563.148-1.036.442-1.417.304-.39.642-.659 1.014-.806v-.078a2.33 2.33 0 0 1-.871-.767c-.225-.329-.338-.728-.338-1.196a2.19 2.19 0 0 1 .351-1.209c.234-.373.568-.667 1.001-.884.434-.225.954-.338 1.56-.338.598 0 1.114.113 1.547.338.434.217.767.511 1.001.884a2.13 2.13 0 0 1 .364 1.209c0 .468-.112.867-.338 1.196s-.515.585-.871.767v.078c.382.147.72.416 1.014.806.295.381.442.854.442 1.417 0 .529-.134.997-.403 1.404a2.67 2.67 0 0 1-1.105.962c-.476.234-1.027.351-1.651.351zm0-5.499c.486 0 .867-.126 1.144-.377.286-.251.429-.576.429-.975s-.143-.724-.429-.975c-.277-.251-.658-.377-1.144-.377s-.871.126-1.157.377c-.277.251-.416.576-.416.975s.139.724.416.975c.286.251.672.377 1.157.377zm0 4.251c.538 0 .971-.134 1.3-.403.33-.277.494-.663.494-1.157s-.164-.875-.494-1.144c-.329-.277-.762-.416-1.3-.416s-.97.139-1.3.416c-.329.269-.494.65-.494 1.144s.165.88.494 1.157c.33.269.763.403 1.3.403zm4.805 1.092v-1.092l2.34-1.963c.676-.598 1.205-1.174 1.586-1.729s.572-1.118.572-1.69c0-.477-.134-.849-.403-1.118-.269-.277-.633-.416-1.092-.416-.529 0-.936.169-1.222.507-.286.329-.429.724-.429 1.183h-1.339c.009-.641.143-1.179.403-1.612s.611-.763 1.053-.988c.451-.225.962-.338 1.534-.338.927 0 1.642.251 2.145.754.503.494.754 1.157.754 1.989 0 .529-.117 1.04-.351 1.534a6.21 6.21 0 0 1-.897 1.391 11.5 11.5 0 0 1-1.248 1.261l-1.365 1.144h4.108V235h-6.149zm10.2.156c-.511 0-.94-.087-1.287-.26-.347-.182-.607-.42-.78-.715a1.96 1.96 0 0 1-.26-.988c0-.633.23-1.127.689-1.482.468-.355 1.127-.533 1.976-.533h1.664v-.143c0-.971-.451-1.456-1.352-1.456-.373 0-.689.082-.949.247-.251.156-.42.412-.507.767h-1.378c.069-.676.36-1.209.871-1.599.52-.399 1.174-.598 1.963-.598.953 0 1.647.234 2.08.702s.65 1.114.65 1.937V235h-1.17l-.117-.949h-.091c-.191.303-.429.563-.715.78s-.715.325-1.287.325zm.26-1.157c.563 0 .984-.169 1.261-.507.286-.347.442-.784.468-1.313h-1.508c-.494 0-.845.082-1.053.247-.199.156-.299.377-.299.663a.83.83 0 0 0 .299.676c.208.156.485.234.832.234zm5.117 3.861v-1.209h1.053c.303 0 .52-.065.65-.195.139-.121.208-.329.208-.624v-6.11h-1.638v-1.17h1.638v-.897c0-.719.178-1.235.533-1.547s.862-.468 1.521-.468h1.573v1.209h-1.404c-.303 0-.52.061-.65.182s-.195.334-.195.637v.884h2.249v1.17h-2.249v6.123c0 .719-.178 1.235-.533 1.547s-.867.468-1.534.468h-1.222zm10.785-2.704c-.633 0-1.183-.117-1.651-.351s-.836-.555-1.105-.962c-.26-.407-.412-.867-.455-1.378h1.404c.087.425.286.767.598 1.027.321.26.728.39 1.222.39.581 0 1.04-.182 1.378-.546.338-.373.507-.849.507-1.43 0-.615-.173-1.092-.52-1.43s-.789-.507-1.326-.507c-.433 0-.802.1-1.105.299a2.2 2.2 0 0 0-.715.754h-1.326l.78-5.122h4.953v1.274h-3.887l-.442 2.327h.091c.182-.208.425-.381.728-.52.312-.139.68-.208 1.105-.208.624 0 1.157.134 1.599.403a2.7 2.7 0 0 1 1.04 1.118c.243.468.364 1.001.364 1.599 0 .607-.134 1.157-.403 1.651-.26.494-.633.888-1.118 1.183-.485.286-1.057.429-1.716.429zm7.899 0c-.598 0-1.136-.139-1.612-.416-.468-.277-.837-.667-1.105-1.17-.269-.511-.403-1.109-.403-1.794s.134-1.278.403-1.781a3.02 3.02 0 0 1 1.118-1.17c.468-.286 1.001-.429 1.599-.429.823 0 1.486.208 1.989.624.511.407.836.971.975 1.69h-1.443c-.087-.312-.265-.559-.533-.741-.26-.182-.594-.273-1.001-.273-.295 0-.577.078-.845.234-.26.156-.473.39-.637.702-.156.303-.234.685-.234 1.144 0 .451.078.832.234 1.144.164.312.377.55.637.715.268.156.55.234.845.234.416 0 .749-.091 1.001-.273s.429-.433.533-.754h1.443c-.174.711-.512 1.274-1.014 1.69s-1.153.624-1.95.624z" class="J"/><g filter="url(#E)" class="C"><rect x="37" y="161" width="210" height="30" rx="15" class="B"/><rect x="35.5" y="159.5" width="213" height="33" rx="16.5" class="D G H"/></g><g clip-path="url(#L)" class="I"><path d="M76.826 173.806c-.069-.057-.698-.534-2.046-.534a6.42 6.42 0 0 0-1.059.093c-.255-1.78-1.732-2.641-1.791-2.686l-.361-.21-.233.336a4.97 4.97 0 0 0-.639 1.489c-.245 1.012-.094 1.966.418 2.78-.616.349-1.616.431-1.826.443H52.777a.78.78 0 0 0-.779.78 11.79 11.79 0 0 0 .72 4.246c.569 1.489 1.418 2.595 2.512 3.269 1.232.755 3.244 1.186 5.511 1.186 1.022 0 2.047-.094 3.059-.28 1.408-.255 2.756-.745 3.999-1.453 1.024-.594 1.942-1.35 2.722-2.234 1.314-1.478 2.093-3.129 2.663-4.595h.233c1.43 0 2.314-.57 2.801-1.06.326-.302.569-.675.745-1.094l.104-.302-.239-.174zm-10.22 1.233h2.21c.104 0 .198-.081.198-.198v-1.978c0-.104-.082-.198-.198-.198h-2.21c-.104 0-.198.082-.198.198v1.978c.012.117.094.198.198.198zm-3.081-5.665h2.21c.104 0 .198-.081.198-.198v-1.978c0-.104-.094-.198-.198-.198h-2.21c-.104 0-.198.082-.198.198v1.978c0 .104.092.198.198.198zm0 2.838h2.21c.104 0 .198-.094.198-.198v-1.978c0-.104-.094-.198-.198-.198h-2.21c-.104 0-.198.081-.198.198v1.978c0 .106.092.198.198.198zm-3.058 0h2.21c.104 0 .198-.094.198-.198v-1.978c0-.104-.082-.198-.198-.198h-2.21c-.104 0-.198.081-.198.198v1.978c0 .106.082.198.198.198zm-3.105 0h2.21c.104 0 .198-.094.198-.198v-1.978c0-.104-.082-.198-.198-.198h-2.21c-.104 0-.198.081-.198.198v1.978c.012.106.094.198.198.198zm6.164 2.827h2.21c.104 0 .198-.081.198-.198v-1.978c0-.104-.082-.198-.198-.198h-2.21c-.104 0-.198.082-.198.198v1.978c0 .117.092.198.198.198zm-3.058 0h2.21c.104 0 .198-.081.198-.198v-1.978c0-.104-.082-.198-.198-.198h-2.21c-.104 0-.198.082-.198.198v1.978c0 .117.082.198.198.198zm-3.105 0h2.21c.104 0 .198-.081.198-.198v-1.978c0-.104-.082-.198-.198-.198h-2.21c-.104 0-.198.082-.198.198v1.978c.012.117.094.198.198.198zm-3.046 0h2.21c.104 0 .198-.081.198-.198v-1.978c0-.104-.082-.198-.198-.198h-2.21c-.104 0-.198.082-.198.198v1.978c.012.117.094.198.198.198z"/></g><path d="M95.9 181.156c-.624 0-1.174-.117-1.651-.351-.468-.234-.836-.555-1.105-.962a2.49 2.49 0 0 1-.403-1.404c0-.563.147-1.036.442-1.417.303-.39.641-.659 1.014-.806v-.078c-.355-.182-.646-.438-.871-.767s-.338-.728-.338-1.196a2.19 2.19 0 0 1 .351-1.209c.234-.373.568-.667 1.001-.884.433-.225.953-.338 1.56-.338.598 0 1.114.113 1.547.338.433.217.767.511 1.001.884a2.13 2.13 0 0 1 .364 1.209c0 .468-.113.867-.338 1.196s-.516.585-.871.767v.078c.381.147.719.416 1.014.806.295.381.442.854.442 1.417a2.49 2.49 0 0 1-.403 1.404c-.26.407-.628.728-1.105.962s-1.027.351-1.651.351zm0-5.499c.485 0 .867-.126 1.144-.377.286-.251.429-.576.429-.975s-.143-.724-.429-.975c-.277-.251-.659-.377-1.144-.377s-.871.126-1.157.377c-.277.251-.416.576-.416.975s.139.724.416.975c.286.251.672.377 1.157.377zm0 4.251c.537 0 .971-.134 1.3-.403.329-.277.494-.663.494-1.157s-.165-.875-.494-1.144c-.329-.277-.763-.416-1.3-.416s-.971.139-1.3.416c-.329.269-.494.65-.494 1.144s.165.88.494 1.157c.329.269.763.403 1.3.403zm7.86 1.248c-.598 0-1.14-.113-1.625-.338s-.871-.555-1.157-.988c-.286-.442-.442-.975-.468-1.599h1.378c.026.477.199.871.52 1.183.329.312.78.468 1.352.468.563 0 1.005-.139 1.326-.416s.481-.659.481-1.144c0-.537-.195-.932-.585-1.183s-.867-.377-1.43-.377h-.806v-1.222h.689c.511 0 .932-.104 1.261-.312s.494-.533.494-.975c0-.381-.126-.68-.377-.897-.251-.225-.607-.338-1.066-.338-.468 0-.841.126-1.118.377a1.42 1.42 0 0 0-.468.962h-1.365c.026-.52.165-.975.416-1.365s.594-.693 1.027-.91c.433-.225.936-.338 1.508-.338.624 0 1.144.108 1.56.325.416.208.728.49.936.845s.312.754.312 1.196a1.79 1.79 0 0 1-.403 1.17 2.28 2.28 0 0 1-.949.702v.078c.503.139.914.399 1.235.78.329.373.494.875.494 1.508 0 .511-.126.984-.377 1.417-.243.425-.602.763-1.079 1.014-.468.251-1.04.377-1.716.377zm7.808 0c-.624 0-1.174-.139-1.651-.416-.477-.286-.849-.68-1.118-1.183s-.403-1.088-.403-1.755c0-.676.13-1.27.39-1.781a2.98 2.98 0 0 1 1.118-1.196c.485-.286 1.044-.429 1.677-.429.624 0 1.161.143 1.612.429.451.277.797.65 1.04 1.118.251.468.377.984.377 1.547v.286l-.013.325h-4.849c.043.598.238 1.053.585 1.365a1.8 1.8 0 0 0 1.222.455c.407 0 .728-.082.962-.247.243-.173.42-.407.533-.702h1.391c-.156.615-.481 1.135-.975 1.56-.494.416-1.127.624-1.898.624zm0-5.564c-.425 0-.802.13-1.131.39-.329.251-.542.607-.637 1.066h3.432c-.035-.433-.204-.784-.507-1.053s-.689-.403-1.157-.403zm7.808 5.564c-.598 0-1.136-.139-1.612-.416-.468-.277-.837-.667-1.105-1.17-.269-.511-.403-1.109-.403-1.794s.134-1.278.403-1.781a3.02 3.02 0 0 1 1.118-1.17c.468-.286 1.001-.429 1.599-.429.823 0 1.486.208 1.989.624.511.407.836.971.975 1.69h-1.443c-.087-.312-.265-.559-.533-.741-.26-.182-.594-.273-1.001-.273-.295 0-.577.078-.845.234-.26.156-.473.39-.637.702-.156.303-.234.685-.234 1.144 0 .451.078.832.234 1.144.164.312.377.55.637.715.268.156.55.234.845.234.416 0 .749-.091 1.001-.273s.429-.433.533-.754h1.443c-.174.711-.512 1.274-1.014 1.69s-1.153.624-1.95.624zm7.886 0c-.642 0-1.183-.117-1.625-.351-.442-.243-.802-.568-1.079-.975-.269-.407-.468-.871-.598-1.391a7.38 7.38 0 0 1-.182-1.664c0-1.005.138-1.885.416-2.639.286-.754.693-1.339 1.222-1.755.528-.425 1.165-.637 1.911-.637.615 0 1.131.113 1.547.338.424.217.754.52.988.91.242.381.39.819.442 1.313h-1.287a1.59 1.59 0 0 0-.585-.962c-.304-.234-.676-.351-1.118-.351-.581 0-1.084.277-1.508.832-.425.546-.663 1.404-.715 2.574h.078c.182-.329.468-.62.858-.871.398-.251.871-.377 1.417-.377a2.83 2.83 0 0 1 1.443.377c.433.243.775.585 1.027 1.027.26.442.39.953.39 1.534a3.17 3.17 0 0 1-.377 1.521c-.243.468-.594.845-1.053 1.131-.451.277-.988.416-1.612.416zm-.091-1.248c.528 0 .953-.165 1.274-.494.329-.329.494-.75.494-1.261s-.165-.932-.494-1.261c-.321-.338-.746-.507-1.274-.507s-.962.165-1.3.494c-.33.329-.494.75-.494 1.261 0 .503.164.923.494 1.261.338.338.771.507 1.3.507zm7.782 1.248c-.624 0-1.175-.139-1.651-.416a2.99 2.99 0 0 1-1.118-1.183c-.269-.503-.403-1.088-.403-1.755 0-.676.13-1.27.39-1.781.268-.511.641-.91 1.118-1.196.485-.286 1.044-.429 1.677-.429.624 0 1.161.143 1.612.429a2.81 2.81 0 0 1 1.04 1.118c.251.468.377.984.377 1.547v.286l-.013.325h-4.849c.043.598.238 1.053.585 1.365.346.303.754.455 1.222.455.407 0 .728-.082.962-.247a1.5 1.5 0 0 0 .533-.702h1.391c-.156.615-.481 1.135-.975 1.56-.494.416-1.127.624-1.898.624zm0-5.564c-.425 0-.802.13-1.131.39-.33.251-.542.607-.637 1.066h3.432c-.035-.433-.204-.784-.507-1.053s-.689-.403-1.157-.403zm8.718 5.408v-1.963h-4.316v-1.079l4.069-6.058h1.625v5.889h1.183v1.248h-1.183V181h-1.378zm-2.782-3.211h2.86v-4.342l-2.86 4.342zm7.755 3.211l3.445-7.852h-4.758V171.9h6.175v1.066L150.087 181h-1.443zm7.795 0l3.445-7.852h-4.758V171.9h6.175v1.066L157.882 181h-1.443zm6.625 0v-1.092l2.34-1.963c.676-.598 1.205-1.174 1.586-1.729s.572-1.118.572-1.69c0-.477-.134-.849-.403-1.118-.268-.277-.632-.416-1.092-.416-.528 0-.936.169-1.222.507-.286.329-.429.724-.429 1.183h-1.339c.009-.641.143-1.179.403-1.612s.611-.763 1.053-.988c.451-.225.962-.338 1.534-.338.928 0 1.643.251 2.145.754.503.494.754 1.157.754 1.989 0 .529-.117 1.04-.351 1.534a6.21 6.21 0 0 1-.897 1.391c-.372.442-.788.862-1.248 1.261l-1.365 1.144h4.108V181h-6.149zm11.136.156c-.476 0-.879-.095-1.209-.286-.32-.199-.567-.472-.741-.819h-.078l-.117.949h-1.183v-9.36h1.378v3.744c.156-.26.403-.49.741-.689s.741-.299 1.209-.299c.538 0 1.019.13 1.443.39.425.251.759.628 1.001 1.131.252.503.377 1.122.377 1.859s-.125 1.356-.377 1.859a2.64 2.64 0 0 1-1.001 1.144c-.424.251-.905.377-1.443.377zm-.286-1.313a1.61 1.61 0 0 0 1.222-.507c.33-.347.494-.862.494-1.547 0-.693-.164-1.213-.494-1.56-.32-.347-.728-.52-1.222-.52a1.63 1.63 0 0 0-1.235.52c-.32.338-.481.854-.481 1.547 0 .685.161 1.2.481 1.547a1.63 1.63 0 0 0 1.235.52zm8.081 1.313c-.477 0-.88-.095-1.209-.286-.321-.199-.568-.472-.741-.819h-.078l-.117.949h-1.183v-9.36h1.378v3.744c.156-.26.403-.49.741-.689s.741-.299 1.209-.299c.537 0 1.018.13 1.443.39.425.251.758.628 1.001 1.131.251.503.377 1.122.377 1.859s-.126 1.356-.377 1.859c-.243.503-.576.884-1.001 1.144-.425.251-.906.377-1.443.377zm-.286-1.313c.494 0 .901-.169 1.222-.507.329-.347.494-.862.494-1.547 0-.693-.165-1.213-.494-1.56a1.59 1.59 0 0 0-1.222-.52 1.63 1.63 0 0 0-1.235.52c-.321.338-.481.854-.481 1.547 0 .685.16 1.2.481 1.547a1.63 1.63 0 0 0 1.235.52zm7.561 1.313c-.572 0-1.075-.113-1.508-.338s-.78-.529-1.04-.91c-.26-.39-.416-.828-.468-1.313h1.326c.087.407.277.728.572.962s.667.351 1.118.351c.633 0 1.144-.273 1.534-.819.39-.555.615-1.417.676-2.587h-.091a2.85 2.85 0 0 1-.832.897c-.338.234-.819.351-1.443.351-.52 0-.997-.121-1.43-.364a2.85 2.85 0 0 1-1.04-1.04c-.26-.442-.39-.953-.39-1.534 0-.555.126-1.062.377-1.521.251-.468.602-.841 1.053-1.118.459-.286 1.001-.429 1.625-.429.797 0 1.452.182 1.963.546.511.355.888.862 1.131 1.521.251.65.377 1.421.377 2.314 0 1.005-.139 1.885-.416 2.639-.269.754-.667 1.343-1.196 1.768-.52.416-1.153.624-1.898.624zm.13-4.641c.537 0 .966-.165 1.287-.494.329-.338.494-.758.494-1.261 0-.511-.165-.932-.494-1.261-.321-.338-.75-.507-1.287-.507s-.971.165-1.3.494c-.321.329-.481.75-.481 1.261s.16.936.481 1.274c.329.329.763.494 1.3.494zm8.835 4.485v-1.963h-4.316v-1.079l4.069-6.058h1.625v5.889h1.183v1.248h-1.183V181h-1.378zm-2.782-3.211h2.86v-4.342l-2.86 4.342zm9.563 3.367c-.633 0-1.183-.117-1.651-.351s-.836-.555-1.105-.962c-.26-.407-.412-.867-.455-1.378h1.404c.087.425.286.767.598 1.027.321.26.728.39 1.222.39.581 0 1.04-.182 1.378-.546.338-.373.507-.849.507-1.43 0-.615-.173-1.092-.52-1.43s-.789-.507-1.326-.507c-.433 0-.802.1-1.105.299a2.2 2.2 0 0 0-.715.754h-1.326l.78-5.122h4.953v1.274h-3.887l-.442 2.327h.091c.182-.208.425-.381.728-.52.312-.139.68-.208 1.105-.208.624 0 1.157.134 1.599.403a2.7 2.7 0 0 1 1.04 1.118c.243.468.364 1.001.364 1.599 0 .607-.134 1.157-.403 1.651-.26.494-.633.888-1.118 1.183-.485.286-1.057.429-1.716.429zm7.99 0c-.642 0-1.183-.117-1.625-.351-.442-.243-.802-.568-1.079-.975-.269-.407-.468-.871-.598-1.391a7.38 7.38 0 0 1-.182-1.664c0-1.005.138-1.885.416-2.639.286-.754.693-1.339 1.222-1.755.528-.425 1.165-.637 1.911-.637.615 0 1.131.113 1.547.338.424.217.754.52.988.91.242.381.39.819.442 1.313h-1.287a1.59 1.59 0 0 0-.585-.962c-.304-.234-.676-.351-1.118-.351-.581 0-1.084.277-1.508.832-.425.546-.663 1.404-.715 2.574h.078c.182-.329.468-.62.858-.871.398-.251.871-.377 1.417-.377a2.83 2.83 0 0 1 1.443.377c.433.243.775.585 1.027 1.027.26.442.39.953.39 1.534a3.17 3.17 0 0 1-.377 1.521c-.243.468-.594.845-1.053 1.131-.451.277-.988.416-1.612.416zm-.091-1.248c.528 0 .953-.165 1.274-.494.329-.329.494-.75.494-1.261s-.165-.932-.494-1.261c-.321-.338-.746-.507-1.274-.507s-.962.165-1.3.494c-.33.329-.494.75-.494 1.261 0 .503.164.923.494 1.261.338.338.771.507 1.3.507z" class="J"/><g filter="url(#F)" class="C"><rect x="37" y="107" width="210" height="30" rx="15" class="B"/><rect x="35.5" y="105.5" width="213" height="33" rx="16.5" class="D G H"/></g><g clip-path="url(#M)" class="I"><path d="M76.826 119.806c-.069-.057-.698-.534-2.046-.534a6.42 6.42 0 0 0-1.059.093c-.255-1.78-1.732-2.641-1.791-2.686l-.361-.21-.233.336a4.97 4.97 0 0 0-.639 1.489c-.245 1.012-.094 1.966.418 2.78-.616.349-1.616.431-1.826.443H52.777a.78.78 0 0 0-.779.78 11.79 11.79 0 0 0 .72 4.246c.569 1.489 1.418 2.595 2.512 3.269 1.232.755 3.244 1.186 5.511 1.186 1.022 0 2.047-.094 3.059-.28 1.408-.255 2.756-.745 3.999-1.453 1.024-.594 1.942-1.35 2.722-2.234 1.314-1.478 2.093-3.129 2.663-4.595h.233c1.43 0 2.314-.57 2.801-1.06.326-.302.569-.675.745-1.094l.104-.302-.239-.174zm-10.22 1.233h2.21c.104 0 .198-.081.198-.198v-1.978c0-.104-.082-.198-.198-.198h-2.21c-.104 0-.198.082-.198.198v1.978c.012.117.094.198.198.198zm-3.081-5.665h2.21c.104 0 .198-.081.198-.198v-1.978c0-.104-.094-.198-.198-.198h-2.21c-.104 0-.198.082-.198.198v1.978c0 .104.092.198.198.198zm0 2.838h2.21c.104 0 .198-.094.198-.198v-1.978c0-.104-.094-.198-.198-.198h-2.21c-.104 0-.198.081-.198.198v1.978c0 .106.092.198.198.198zm-3.058 0h2.21c.104 0 .198-.094.198-.198v-1.978c0-.104-.082-.198-.198-.198h-2.21c-.104 0-.198.081-.198.198v1.978c0 .106.082.198.198.198zm-3.105 0h2.21c.104 0 .198-.094.198-.198v-1.978c0-.104-.082-.198-.198-.198h-2.21c-.104 0-.198.081-.198.198v1.978c.012.106.094.198.198.198zm6.164 2.827h2.21c.104 0 .198-.081.198-.198v-1.978c0-.104-.082-.198-.198-.198h-2.21c-.104 0-.198.082-.198.198v1.978c0 .117.092.198.198.198zm-3.058 0h2.21c.104 0 .198-.081.198-.198v-1.978c0-.104-.082-.198-.198-.198h-2.21c-.104 0-.198.082-.198.198v1.978c0 .117.082.198.198.198zm-3.105 0h2.21c.104 0 .198-.081.198-.198v-1.978c0-.104-.082-.198-.198-.198h-2.21c-.104 0-.198.082-.198.198v1.978c.012.117.094.198.198.198zm-3.046 0h2.21c.104 0 .198-.081.198-.198v-1.978c0-.104-.082-.198-.198-.198h-2.21c-.104 0-.198.082-.198.198v1.978c.012.117.094.198.198.198z"/></g><path d="M96.082 127.156c-.641 0-1.183-.117-1.625-.351a3.08 3.08 0 0 1-1.079-.975 4.47 4.47 0 0 1-.598-1.391 7.42 7.42 0 0 1-.182-1.664c0-1.005.139-1.885.416-2.639.286-.754.693-1.339 1.222-1.755.529-.425 1.166-.637 1.911-.637.615 0 1.131.113 1.547.338.425.217.754.52.988.91a2.99 2.99 0 0 1 .442 1.313h-1.287c-.087-.407-.282-.728-.585-.962s-.676-.351-1.118-.351c-.581 0-1.083.277-1.508.832-.425.546-.663 1.404-.715 2.574h.078c.182-.329.468-.62.858-.871.399-.251.871-.377 1.417-.377.529 0 1.01.126 1.443.377a2.66 2.66 0 0 1 1.027 1.027c.26.442.39.953.39 1.534 0 .546-.126 1.053-.377 1.521a2.87 2.87 0 0 1-1.053 1.131c-.451.277-.988.416-1.612.416zm-.091-1.248c.529 0 .953-.165 1.274-.494.329-.329.494-.75.494-1.261s-.165-.932-.494-1.261c-.321-.338-.745-.507-1.274-.507s-.962.165-1.3.494c-.329.329-.494.75-.494 1.261 0 .503.165.923.494 1.261.338.338.771.507 1.3.507zm4.714 1.092v-1.092l2.34-1.963c.676-.598 1.205-1.174 1.586-1.729s.572-1.118.572-1.69c0-.477-.134-.849-.403-1.118-.269-.277-.633-.416-1.092-.416-.529 0-.936.169-1.222.507-.286.329-.429.724-.429 1.183h-1.339c.009-.641.143-1.179.403-1.612s.611-.763 1.053-.988c.451-.225.962-.338 1.534-.338.927 0 1.642.251 2.145.754.503.494.754 1.157.754 1.989 0 .529-.117 1.04-.351 1.534a6.21 6.21 0 0 1-.897 1.391 11.5 11.5 0 0 1-1.248 1.261l-1.365 1.144h4.108V127h-6.149zm10.785.156c-.624 0-1.174-.117-1.651-.351-.468-.234-.836-.555-1.105-.962s-.403-.875-.403-1.404c0-.563.147-1.036.442-1.417.303-.39.641-.659 1.014-.806v-.078c-.355-.182-.646-.438-.871-.767s-.338-.728-.338-1.196a2.19 2.19 0 0 1 .351-1.209c.234-.373.568-.667 1.001-.884.433-.225.953-.338 1.56-.338.598 0 1.114.113 1.547.338.433.217.767.511 1.001.884a2.13 2.13 0 0 1 .364 1.209c0 .468-.113.867-.338 1.196s-.516.585-.871.767v.078c.381.147.719.416 1.014.806.295.381.442.854.442 1.417 0 .529-.134.997-.403 1.404a2.67 2.67 0 0 1-1.105.962c-.477.234-1.027.351-1.651.351zm0-5.499c.485 0 .867-.126 1.144-.377.286-.251.429-.576.429-.975s-.143-.724-.429-.975c-.277-.251-.659-.377-1.144-.377s-.871.126-1.157.377c-.277.251-.416.576-.416.975s.139.724.416.975c.286.251.672.377 1.157.377zm0 4.251c.537 0 .971-.134 1.3-.403.329-.277.494-.663.494-1.157s-.165-.875-.494-1.144c-.329-.277-.763-.416-1.3-.416s-.971.139-1.3.416c-.329.269-.494.65-.494 1.144s.165.88.494 1.157c.329.269.763.403 1.3.403zm8.146 1.248c-.477 0-.88-.095-1.209-.286-.321-.199-.568-.472-.741-.819h-.078l-.117.949h-1.183v-9.36h1.378v3.744c.156-.26.403-.49.741-.689s.741-.299 1.209-.299c.537 0 1.018.13 1.443.39.424.251.758.628 1.001 1.131.251.503.377 1.122.377 1.859s-.126 1.356-.377 1.859c-.243.503-.577.884-1.001 1.144-.425.251-.906.377-1.443.377zm-.286-1.313c.494 0 .901-.169 1.222-.507.329-.347.494-.862.494-1.547 0-.693-.165-1.213-.494-1.56a1.59 1.59 0 0 0-1.222-.52 1.63 1.63 0 0 0-1.235.52c-.321.338-.481.854-.481 1.547 0 .685.16 1.2.481 1.547a1.63 1.63 0 0 0 1.235.52zm8.731 1.157v-1.963h-4.316v-1.079l4.069-6.058h1.625v5.889h1.183v1.248h-1.183V127h-1.378zm-2.782-3.211h2.86v-4.342l-2.86 4.342zM135.876 127v-1.963h-4.316v-1.079l4.069-6.058h1.625v5.889h1.183v1.248h-1.183V127h-1.378zm-2.782-3.211h2.86v-4.342l-2.86 4.342zm9.758 3.367c-.642 0-1.183-.117-1.625-.351-.442-.243-.802-.568-1.079-.975-.269-.407-.468-.871-.598-1.391a7.38 7.38 0 0 1-.182-1.664c0-1.005.138-1.885.416-2.639.286-.754.693-1.339 1.222-1.755.528-.425 1.165-.637 1.911-.637.615 0 1.131.113 1.547.338.424.217.754.52.988.91.242.381.39.819.442 1.313h-1.287a1.59 1.59 0 0 0-.585-.962c-.304-.234-.676-.351-1.118-.351-.581 0-1.084.277-1.508.832-.425.546-.663 1.404-.715 2.574h.078c.182-.329.468-.62.858-.871.398-.251.871-.377 1.417-.377a2.83 2.83 0 0 1 1.443.377c.433.243.775.585 1.027 1.027.26.442.39.953.39 1.534a3.17 3.17 0 0 1-.377 1.521c-.243.468-.594.845-1.053 1.131-.451.277-.988.416-1.612.416zm-.091-1.248c.528 0 .953-.165 1.274-.494.329-.329.494-.75.494-1.261s-.165-.932-.494-1.261c-.321-.338-.746-.507-1.274-.507s-.962.165-1.3.494c-.33.329-.494.75-.494 1.261 0 .503.164.923.494 1.261.338.338.771.507 1.3.507zm8.704 1.092v-1.963h-4.316v-1.079l4.069-6.058h1.625v5.889h1.183v1.248h-1.183V127h-1.378zm-2.782-3.211h2.86v-4.342l-2.86 4.342zm9.563 3.367c-.632 0-1.183-.117-1.651-.351s-.836-.555-1.105-.962c-.26-.407-.411-.867-.455-1.378h1.404c.087.425.286.767.598 1.027.321.26.728.39 1.222.39.581 0 1.04-.182 1.378-.546.338-.373.507-.849.507-1.43 0-.615-.173-1.092-.52-1.43s-.788-.507-1.326-.507c-.433 0-.801.1-1.105.299a2.21 2.21 0 0 0-.715.754h-1.326l.78-5.122h4.953v1.274h-3.887l-.442 2.327h.091c.182-.208.425-.381.728-.52.312-.139.681-.208 1.105-.208.624 0 1.157.134 1.599.403a2.69 2.69 0 0 1 1.04 1.118c.243.468.364 1.001.364 1.599 0 .607-.134 1.157-.403 1.651a2.99 2.99 0 0 1-1.118 1.183c-.485.286-1.057.429-1.716.429zm7.223 0c-.511 0-.94-.087-1.287-.26-.346-.182-.606-.42-.78-.715a1.96 1.96 0 0 1-.26-.988c0-.633.23-1.127.689-1.482.468-.355 1.127-.533 1.976-.533h1.664v-.143c0-.971-.45-1.456-1.352-1.456-.372 0-.689.082-.949.247-.251.156-.42.412-.507.767h-1.378c.07-.676.36-1.209.871-1.599.52-.399 1.175-.598 1.963-.598.954 0 1.647.234 2.08.702s.65 1.114.65 1.937V127h-1.17l-.117-.949h-.091a2.92 2.92 0 0 1-.715.78c-.286.217-.715.325-1.287.325zm.26-1.157c.564 0 .984-.169 1.261-.507.286-.347.442-.784.468-1.313h-1.508c-.494 0-.845.082-1.053.247-.199.156-.299.377-.299.663a.83.83 0 0 0 .299.676c.208.156.486.234.832.234zm5.078 1.001v-1.235h2.249v-6.24l-2.145.39v-1.118l2.678-.897h.845v7.865h2.418V127h-6.045zm10.252.156c-.511 0-.94-.087-1.287-.26-.347-.182-.607-.42-.78-.715a1.96 1.96 0 0 1-.26-.988c0-.633.23-1.127.689-1.482.468-.355 1.127-.533 1.976-.533h1.664v-.143c0-.971-.451-1.456-1.352-1.456-.373 0-.689.082-.949.247-.251.156-.42.412-.507.767h-1.378c.069-.676.36-1.209.871-1.599.52-.399 1.174-.598 1.963-.598.953 0 1.647.234 2.08.702s.65 1.114.65 1.937V127h-1.17l-.117-.949h-.091c-.191.303-.429.563-.715.78s-.715.325-1.287.325zm.26-1.157c.563 0 .984-.169 1.261-.507.286-.347.442-.784.468-1.313h-1.508c-.494 0-.845.082-1.053.247-.199.156-.299.377-.299.663a.83.83 0 0 0 .299.676c.208.156.485.234.832.234zM190.44 127v-1.963h-4.316v-1.079l4.069-6.058h1.625v5.889h1.183v1.248h-1.183V127h-1.378zm-2.782-3.211h2.86v-4.342l-2.86 4.342zm9.563 3.367c-.633 0-1.183-.117-1.651-.351s-.836-.555-1.105-.962c-.26-.407-.412-.867-.455-1.378h1.404c.087.425.286.767.598 1.027.321.26.728.39 1.222.39.581 0 1.04-.182 1.378-.546.338-.373.507-.849.507-1.43 0-.615-.173-1.092-.52-1.43s-.789-.507-1.326-.507c-.433 0-.802.1-1.105.299a2.2 2.2 0 0 0-.715.754h-1.326l.78-5.122h4.953v1.274h-3.887l-.442 2.327h.091c.182-.208.425-.381.728-.52.312-.139.68-.208 1.105-.208.624 0 1.157.134 1.599.403a2.7 2.7 0 0 1 1.04 1.118c.243.468.364 1.001.364 1.599 0 .607-.134 1.157-.403 1.651-.26.494-.633.888-1.118 1.183-.485.286-1.057.429-1.716.429zm7.886 0c-.624 0-1.174-.139-1.651-.416-.477-.286-.849-.68-1.118-1.183s-.403-1.088-.403-1.755c0-.676.13-1.27.39-1.781a2.98 2.98 0 0 1 1.118-1.196c.485-.286 1.044-.429 1.677-.429.624 0 1.161.143 1.612.429.451.277.797.65 1.04 1.118.251.468.377.984.377 1.547v.286l-.013.325h-4.849c.043.598.238 1.053.585 1.365a1.8 1.8 0 0 0 1.222.455c.407 0 .728-.082.962-.247.243-.173.42-.407.533-.702h1.391c-.156.615-.481 1.135-.975 1.56-.494.416-1.127.624-1.898.624zm0-5.564c-.425 0-.802.13-1.131.39-.329.251-.542.607-.637 1.066h3.432c-.035-.433-.204-.784-.507-1.053s-.689-.403-1.157-.403zm7.782 5.564c-.598 0-1.14-.113-1.625-.338s-.871-.555-1.157-.988c-.286-.442-.442-.975-.468-1.599h1.378c.026.477.199.871.52 1.183.329.312.78.468 1.352.468.563 0 1.005-.139 1.326-.416s.481-.659.481-1.144c0-.537-.195-.932-.585-1.183s-.867-.377-1.43-.377h-.806v-1.222h.689c.511 0 .931-.104 1.261-.312s.494-.533.494-.975c0-.381-.126-.68-.377-.897-.252-.225-.607-.338-1.066-.338-.468 0-.841.126-1.118.377s-.434.572-.468.962h-1.365c.026-.52.164-.975.416-1.365s.593-.693 1.027-.91c.433-.225.936-.338 1.508-.338.624 0 1.144.108 1.56.325.416.208.728.49.936.845s.312.754.312 1.196c0 .451-.135.841-.403 1.17-.26.321-.577.555-.949.702v.078c.502.139.914.399 1.235.78.329.373.494.875.494 1.508 0 .511-.126.984-.377 1.417-.243.425-.603.763-1.079 1.014-.468.251-1.04.377-1.716.377z" class="J"/></g></g><defs><filter id="B" x="138" y="324" width="136" height="48" filterUnits="userSpaceOnUse" class="E"><feFlood result="A" class="F"/><feColorMatrix in="SourceAlpha" values="0 0 0 0 0 0 0 0 0 0 0 0 0 0 0 0 0 0 127 0" result="B"/><feOffset dy="4"/><feGaussianBlur stdDeviation="2"/><feComposite in2="B" operator="out"/><feColorMatrix values="0 0 0 0 0 0 0 0 0 0 0 0 0 0 0 0 0 0 0.07 0"/><feBlend in2="A"/><feBlend in="SourceGraphic"/></filter><filter id="C" x="30" y="266" width="224" height="44" filterUnits="userSpaceOnUse" class="E"><feFlood result="A" class="F"/><feColorMatrix in="SourceAlpha" values="0 0 0 0 0 0 0 0 0 0 0 0 0 0 0 0 0 0 127 0" result="B"/><feOffset dy="4"/><feGaussianBlur stdDeviation="2"/><feComposite in2="B" operator="out"/><feColorMatrix values="0 0 0 0 0 0 0 0 0 0 0 0 0 0 0 0 0 0 0.05 0"/><feBlend in2="A"/><feBlend in="SourceGraphic"/></filter><filter id="D" x="30" y="212" width="224" height="44" filterUnits="userSpaceOnUse" class="E"><feFlood result="A" class="F"/><feColorMatrix in="SourceAlpha" values="0 0 0 0 0 0 0 0 0 0 0 0 0 0 0 0 0 0 127 0" result="B"/><feOffset dy="4"/><feGaussianBlur stdDeviation="2"/><feComposite in2="B" operator="out"/><feColorMatrix values="0 0 0 0 0 0 0 0 0 0 0 0 0 0 0 0 0 0 0.05 0"/><feBlend in2="A"/><feBlend in="SourceGraphic"/></filter><filter id="E" x="30" y="158" width="224" height="44" filterUnits="userSpaceOnUse" class="E"><feFlood result="A" class="F"/><feColorMatrix in="SourceAlpha" values="0 0 0 0 0 0 0 0 0 0 0 0 0 0 0 0 0 0 127 0" result="B"/><feOffset dy="4"/><feGaussianBlur stdDeviation="2"/><feComposite in2="B" operator="out"/><feColorMatrix values="0 0 0 0 0 0 0 0 0 0 0 0 0 0 0 0 0 0 0.05 0"/><feBlend in2="A"/><feBlend in="SourceGraphic"/></filter><filter id="F" x="30" y="104" width="224" height="44" filterUnits="userSpaceOnUse" class="E"><feFlood result="A" class="F"/><feColorMatrix in="SourceAlpha" values="0 0 0 0 0 0 0 0 0 0 0 0 0 0 0 0 0 0 127 0" result="B"/><feOffset dy="4"/><feGaussianBlur stdDeviation="2"/><feComposite in2="B" operator="out"/><feColorMatrix values="0 0 0 0 0 0 0 0 0 0 0 0 0 0 0 0 0 0 0.05 0"/><feBlend in2="A"/><feBlend in="SourceGraphic"/></filter><linearGradient id="G" x1="156" y1="68" x2="156" y2="384" gradientUnits="userSpaceOnUse"><stop stop-color="#fff"/><stop offset=".443" stop-color="#73cbf3"/><stop offset="1" stop-color="#0091e2"/></linearGradient><linearGradient id="H" x1="145" y1="39" x2="145" y2="384" gradientUnits="userSpaceOnUse"><stop offset=".177" stop-color="#fff" stop-opacity="0"/><stop offset=".446" stop-color="#fff"/></linearGradient><clipPath id="I"><path d="M0 0h290v384H0z" class="B"/></clipPath><clipPath id="J"><path transform="translate(52 275)" d="M0 0h25.071v18H0z" class="B"/></clipPath><clipPath id="K"><path transform="translate(52 221)" d="M0 0h25.071v18H0z" class="B"/></clipPath><clipPath id="L"><path transform="translate(52 167)" d="M0 0h25.071v18H0z" class="B"/></clipPath><clipPath id="M"><path transform="translate(52 113)" d="M0 0h25.071v18H0z" class="B"/></clipPath><path id="N" d="M76.826 281.806c-.069-.057-.698-.534-2.046-.534a6.42 6.42 0 0 0-1.059.093c-.255-1.78-1.732-2.641-1.791-2.686l-.361-.21-.233.336a4.97 4.97 0 0 0-.639 1.489c-.245 1.012-.094 1.966.418 2.78-.616.349-1.616.431-1.826.443H52.777a.78.78 0 0 0-.779.78 11.79 11.79 0 0 0 .72 4.246c.569 1.489 1.418 2.595 2.512 3.269 1.232.755 3.244 1.186 5.511 1.186 1.022 0 2.047-.094 3.059-.28 1.408-.255 2.756-.745 3.999-1.453 1.024-.594 1.942-1.35 2.722-2.234 1.314-1.478 2.093-3.129 2.663-4.595h.233c1.43 0 2.314-.57 2.801-1.06.326-.302.569-.675.745-1.094l.104-.302-.239-.174zm-10.22 1.233h2.21c.104 0 .198-.081.198-.198v-1.978c0-.104-.082-.198-.198-.198h-2.21c-.104 0-.198.082-.198.198v1.978c.012.117.094.198.198.198zm-3.081-5.665h2.21c.104 0 .198-.081.198-.198v-1.978c0-.104-.094-.198-.198-.198h-2.21c-.104 0-.198.082-.198.198v1.978c0 .104.092.198.198.198zm0 2.838h2.21c.104 0 .198-.094.198-.198v-1.978c0-.104-.094-.198-.198-.198h-2.21c-.104 0-.198.081-.198.198v1.978c0 .106.092.198.198.198zm-3.058 0h2.21c.104 0 .198-.094.198-.198v-1.978c0-.104-.082-.198-.198-.198h-2.21c-.104 0-.198.081-.198.198v1.978c0 .106.082.198.198.198zm-3.105 0h2.21c.104 0 .198-.094.198-.198v-1.978c0-.104-.082-.198-.198-.198h-2.21c-.104 0-.198.081-.198.198v1.978c.012.106.094.198.198.198zm6.164 2.827h2.21c.104 0 .198-.081.198-.198v-1.978c0-.104-.082-.198-.198-.198h-2.21c-.104 0-.198.082-.198.198v1.978c0 .117.092.198.198.198zm-3.058 0h2.21c.104 0 .198-.081.198-.198v-1.978c0-.104-.082-.198-.198-.198h-2.21c-.104 0-.198.082-.198.198v1.978c0 .117.082.198.198.198zm-3.105 0h2.21c.104 0 .198-.081.198-.198v-1.978c0-.104-.082-.198-.198-.198h-2.21c-.104 0-.198.082-.198.198v1.978c.012.117.094.198.198.198zm-3.046 0h2.21c.104 0 .198-.081.198-.198v-1.978c0-.104-.082-.198-.198-.198h-2.21c-.104 0-.198.082-.198.198v1.978c.012.117.094.198.198.198z"/></defs></svg>