<svg xmlns="http://www.w3.org/2000/svg" xmlns:xlink="http://www.w3.org/1999/xlink" width="1090" height="291" fill="none" xmlns:v="https://vecta.io/nano"><style><![CDATA[.B{stroke:#23206c}.C{stroke-width:2}.D{color-interpolation-filters:sRGB}.E{flood-opacity:0}.F{opacity:.4}.G{fill:#a8a29e}.H{fill:#f5f5f4}]]></style><g clip-path="url(#e)"><mask id="A" maskUnits="userSpaceOnUse" x="0" y="0" width="1090" height="291" mask-type="alpha"><path fill="#fff" stroke="#fff" d="M.5.5h1089v290H.5z"/></mask><g mask="url(#A)"><path fill="#1c1a59" d="M0 0h1090v291H0z"/><path transform="matrix(.866025 .5 -.866026 .5 -337.531 93.5)" d="M0-1h1112" class="B C"/><path transform="matrix(.866025 .5 -.866026 .5 67.7684 -140.5)" d="M0-1h1112" class="B C"/><path transform="matrix(.866025 .5 -.866026 .5 -315.015 80.5)" d="M0-1h1112" class="B C"/><path transform="matrix(.866025 .5 -.866026 .5 90.2852 -153.5)" d="M0-1h1112" class="B C"/><path transform="matrix(.866025 .5 -.866026 .5 -292.498 67.5)" d="M0-1h1112" class="B C"/><path transform="matrix(.866025 .5 -.866026 .5 112.802 -166.5)" d="M0-1h1112" class="B C"/><path transform="matrix(.866025 .5 -.866026 .5 -269.981 54.5)" d="M0-1h1112" class="B C"/><path transform="matrix(.866025 .5 -.866026 .5 135.318 -179.5)" d="M0-1h1112" class="B C"/><path transform="matrix(.866025 .5 -.866026 .5 -247.465 41.5)" d="M0-1h1112" class="B C"/><path transform="matrix(.866025 .5 -.866026 .5 157.835 -192.5)" d="M0-1h1112" class="B C"/><path transform="matrix(.866025 .5 -.866026 .5 -224.948 28.5)" d="M0-1h1112" class="B C"/><path transform="matrix(.866025 .5 -.866026 .5 180.352 -205.5)" d="M0-1h1112" class="B C"/><path transform="matrix(.866025 .5 -.866026 .5 -202.431 15.5)" d="M0-1h1112" class="B C"/><path transform="matrix(.866025 .5 -.866026 .5 202.868 -218.5)" d="M0-1h1112" class="B C"/><path transform="matrix(.866025 .5 -.866026 .5 -179.915 2.5)" d="M0-1h1112" class="B C"/><path transform="matrix(.866025 .5 -.866026 .5 225.385 -231.5)" d="M0-1h1112" class="B C"/><path transform="matrix(.866025 .5 -.866026 .5 -157.398 -10.5)" d="M0-1h1112" class="B C"/><path transform="matrix(.866025 .5 -.866026 .5 247.902 -244.5)" d="M0-1h1112" class="B C"/><path transform="matrix(.866025 .5 -.866026 .5 -134.882 -23.5)" d="M0-1h1112" class="B C"/><path transform="matrix(.866025 .5 -.866026 .5 270.418 -257.5)" d="M0-1h1112" class="B C"/><path transform="matrix(.866025 .5 -.866026 .5 -112.365 -36.5)" d="M0-1h1112" class="B C"/><path transform="matrix(.866025 .5 -.866026 .5 292.935 -270.5)" d="M0-1h1112" class="B C"/><path transform="matrix(.866025 .5 -.866026 .5 -89.8481 -49.5)" d="M0-1h1112" class="B C"/><path transform="matrix(.866025 .5 -.866026 .5 315.452 -283.5)" d="M0-1h1112" class="B C"/><path transform="matrix(.866025 .5 -.866026 .5 -67.3315 -62.5)" d="M0-1h1112" class="B C"/><path transform="matrix(.866025 .5 -.866026 .5 337.968 -296.5)" d="M0-1h1112" class="B C"/><path transform="matrix(.866025 .5 -.866026 .5 -44.8149 -75.5)" d="M0-1h1112" class="B C"/><path transform="matrix(.866025 .5 -.866026 .5 360.485 -309.5)" d="M0-1h1112" class="B C"/><path transform="matrix(.866025 .5 -.866026 .5 -22.2981 -88.5)" d="M0-1h1112" class="B C"/><path transform="matrix(.866025 .5 -.866026 .5 383.002 -322.5)" d="M0-1h1112" class="B C"/><path transform="matrix(.866025 .5 -.866026 .5 .218506 -101.5)" d="M0-1h1112" class="B C"/><path transform="matrix(.866025 .5 -.866026 .5 405.518 -335.5)" d="M0-1h1112" class="B C"/><path transform="matrix(.866025 .5 -.866026 .5 22.7351 -114.5)" d="M0-1h1112" class="B C"/><path transform="matrix(.866025 .5 -.866026 .5 428.035 -348.5)" d="M0-1h1112" class="B C"/><path transform="matrix(.866025 .5 -.866026 .5 45.2518 -127.5)" d="M0-1h1112" class="B C"/><path transform="matrix(.866025 .5 -.866026 .5 450.552 -361.5)" d="M0-1h1112" class="B C"/><path transform="matrix(.866025 -.5 .866025 .5 450.552 649.5)" d="M0-1h1112" class="B C"/><path transform="matrix(.866025 -.5 .866025 .5 45.2517 415.5)" d="M0-1h1112" class="B C"/><path transform="matrix(.866025 -.5 .866025 .5 428.035 636.5)" d="M0-1h1112" class="B C"/><path transform="matrix(.866025 -.5 .866025 .5 22.7351 402.5)" d="M0-1h1112" class="B C"/><path transform="matrix(.866025 -.5 .866025 .5 405.518 623.5)" d="M0-1h1112" class="B C"/><path transform="matrix(.866025 -.5 .866025 .5 .218506 389.5)" d="M0-1h1112" class="B C"/><path transform="matrix(.866025 -.5 .866025 .5 383.002 610.5)" d="M0-1h1112" class="B C"/><path transform="matrix(.866025 -.5 .866025 .5 -22.2983 376.5)" d="M0-1h1112" class="B C"/><path transform="matrix(.866025 -.5 .866025 .5 360.485 597.5)" d="M0-1h1112" class="B C"/><path transform="matrix(.866025 -.5 .866025 .5 -44.8149 363.5)" d="M0-1h1112" class="B C"/><path transform="matrix(.866025 -.5 .866025 .5 337.968 584.5)" d="M0-1h1112" class="B C"/><path transform="matrix(.866025 -.5 .866025 .5 -67.3315 350.5)" d="M0-1h1112" class="B C"/><path transform="matrix(.866025 -.5 .866025 .5 315.452 571.5)" d="M0-1h1112" class="B C"/><path transform="matrix(.866025 -.5 .866025 .5 -89.8481 337.5)" d="M0-1h1112" class="B C"/><path transform="matrix(.866025 -.5 .866025 .5 292.935 558.5)" d="M0-1h1112" class="B C"/><path transform="matrix(.866025 -.5 .866025 .5 -112.365 324.5)" d="M0-1h1112" class="B C"/><path transform="matrix(.866025 -.5 .866025 .5 270.418 545.5)" d="M0-1h1112" class="B C"/><path transform="matrix(.866025 -.5 .866025 .5 -134.882 311.5)" d="M0-1h1112" class="B C"/><path transform="matrix(.866025 -.5 .866025 .5 247.902 532.5)" d="M0-1h1112" class="B C"/><path transform="matrix(.866025 -.5 .866025 .5 -157.398 298.5)" d="M0-1h1112" class="B C"/><path transform="matrix(.866025 -.5 .866025 .5 225.385 519.5)" d="M0-1h1112" class="B C"/><path transform="matrix(.866025 -.5 .866025 .5 -179.915 285.5)" d="M0-1h1112" class="B C"/><path transform="matrix(.866025 -.5 .866025 .5 202.868 506.5)" d="M0-1h1112" class="B C"/><path transform="matrix(.866025 -.5 .866025 .5 -202.432 272.5)" d="M0-1h1112" class="B C"/><path transform="matrix(.866025 -.5 .866025 .5 180.352 493.5)" d="M0-1h1112" class="B C"/><path transform="matrix(.866025 -.5 .866025 .5 -224.948 259.5)" d="M0-1h1112" class="B C"/><path transform="matrix(.866025 -.5 .866025 .5 157.835 480.5)" d="M0-1h1112" class="B C"/><path transform="matrix(.866025 -.5 .866025 .5 -247.465 246.5)" d="M0-1h1112" class="B C"/><path transform="matrix(.866025 -.5 .866025 .5 135.318 467.5)" d="M0-1h1112" class="B C"/><path transform="matrix(.866025 -.5 .866025 .5 -269.981 233.5)" d="M0-1h1112" class="B C"/><path transform="matrix(.866025 -.5 .866025 .5 112.802 454.5)" d="M0-1h1112" class="B C"/><path transform="matrix(.866025 -.5 .866025 .5 -292.498 220.5)" d="M0-1h1112" class="B C"/><path transform="matrix(.866025 -.5 .866025 .5 90.285 441.5)" d="M0-1h1112" class="B C"/><path transform="matrix(.866025 -.5 .866025 .5 -315.015 207.5)" d="M0-1h1112" class="B C"/><path transform="matrix(.866025 -.5 .866025 .5 67.7684 428.5)" d="M0-1h1112" class="B C"/><path transform="matrix(.866025 -.5 .866025 .5 -337.531 194.5)" d="M0-1h1112" class="B C"/><g opacity=".3" filter="url(#B)"><ellipse cx="801" cy="214.5" rx="252" ry="136.5" fill="#a61786" fill-opacity=".3"/></g><rect x=".866" width="123" height="49" rx="24.5" transform="matrix(.866025 -.5 .866025 .5 197.116 203.403)" fill="url(#L)"/><g filter="url(#C)" class="H"><path d="M239.884 196.511a8.3 8.3 0 0 1 2.546-.97 7.98 7.98 0 0 1 2.633-.1c.866.114 1.674.387 2.424.82.739.427 1.213.894 1.421 1.4.196.5.138 1.007-.173 1.52-.301.507-.861.997-1.681 1.47l-2.546 1.47 4.261 2.46-1.853 1.07-11.432-6.6 4.4-2.54zm5.282 3.39c.82-.473 1.253-.916 1.3-1.33.046-.426-.255-.826-.901-1.2-.658-.38-1.351-.553-2.079-.52-.727.02-1.501.267-2.321.74l-2.251 1.3 4.001 2.31 2.251-1.3zm12.349-.369l-8.66-5 1.576-.91 1.732.8c-.335-.46-.421-.904-.26-1.33.162-.44.578-.854 1.247-1.24.174-.1.364-.19.572-.27.196-.087.381-.147.554-.18l1.369 1.09a3.77 3.77 0 0 0-.537.19c-.185.066-.41.176-.676.33-.358.206-.612.466-.762.78-.162.306-.167.636-.017.99.161.346.537.69 1.126 1.03l4.589 2.65-1.853 1.07zm10.936-6.114c-.866.5-1.807.837-2.823 1.01a9.22 9.22 0 0 1-3.083 0c-1.04-.187-2.027-.55-2.962-1.09s-1.559-1.107-1.871-1.7c-.312-.607-.323-1.2-.035-1.78s.843-1.107 1.663-1.58c.843-.487 1.732-.8 2.668-.94s1.859-.127 2.771.04 1.749.47 2.511.91l.572.35.433.31-6.963 4.02-1.42-.82 6.149-3.55-.641.69c-.785-.453-1.582-.687-2.391-.7-.819-.02-1.57.167-2.251.56-.497.287-.814.603-.953.95s-.075.71.191 1.09c.254.373.71.75 1.368 1.13.647.373 1.299.63 1.957.77s1.294.167 1.906.08 1.177-.28 1.697-.58c.577-.333.935-.667 1.074-1s.115-.673-.069-1.02l2.165-.45c.207.36.288.733.242 1.12-.046.373-.231.747-.554 1.12s-.774.727-1.351 1.06zm9.667-1.581l-12.298-7.1 1.646-.95 2.563 1.32-.537-.03c-.312-.34-.496-.693-.554-1.06s.029-.73.26-1.09c.242-.367.623-.7 1.143-1 .704-.407 1.524-.673 2.459-.8s1.906-.093 2.91.1c.993.187 1.963.553 2.91 1.1s1.588 1.117 1.923 1.71c.335.58.387 1.143.156 1.69-.22.54-.687 1.017-1.403 1.43-.739.427-1.559.68-2.46.76-.912.073-1.778 0-2.598-.22l-.087-.29 5.82 3.36-1.853 1.07zm-.728-5.32c.751-.433 1.068-.923.953-1.47-.104-.553-.624-1.1-1.559-1.64s-1.876-.843-2.823-.91c-.959-.073-1.807.103-2.546.53-.485.28-.785.6-.901.96-.115.347-.052.71.191 1.09.242.367.675.73 1.299 1.09.612.353 1.241.603 1.888.75s1.27.187 1.87.12a4.13 4.13 0 0 0 1.628-.52zm7.378-9.14c-.577-.333-1.183-.497-1.818-.49a3.43 3.43 0 0 0-1.784.47c-.52.3-.843.627-.97.98s-.006.737.364 1.15l-2.217.52c-.485-.533-.624-1.107-.416-1.72.219-.62.837-1.223 1.853-1.81a7.79 7.79 0 0 1 2.183-.86c.75-.18 1.501-.227 2.251-.14a5.51 5.51 0 0 1 2.2.73l3.862 2.23a1.2 1.2 0 0 0 1.282 0c.208-.12.381-.253.52-.4l1.178.8c-.139.227-.41.457-.815.69a4.36 4.36 0 0 1-1.195.47 4.04 4.04 0 0 1-1.299.05c-.438-.067-.86-.217-1.264-.45l-.121-.07.363-.23c.347.32.508.66.485 1.02-.034.353-.19.697-.467 1.03-.289.327-.653.617-1.091.87-.543.313-1.121.547-1.733.7a5.49 5.49 0 0 1-1.801.14c-.6-.067-1.16-.25-1.68-.55-.647-.373-.97-.8-.97-1.28.012-.487.329-.997.953-1.53l2.702-2.32 1.281.76-1.939 1.7c-.393.333-.624.62-.693.86s.063.457.398.65c.323.187.704.267 1.143.24a3.11 3.11 0 0 0 1.282-.42c.289-.167.531-.347.727-.54.208-.2.347-.407.416-.62.058-.22.023-.433-.104-.64-.127-.22-.364-.43-.71-.63l-2.356-1.36zm10.433.397l-8.66-5 1.576-.91 1.732.8c-.335-.46-.422-.903-.26-1.33.162-.44.577-.853 1.247-1.24a4.04 4.04 0 0 1 .572-.27c.196-.087.381-.147.554-.18l1.368 1.09a3.99 3.99 0 0 0-.537.19c-.184.067-.41.177-.675.33-.358.207-.612.467-.762.78-.162.307-.168.637-.018.99.162.347.537.69 1.126 1.03l4.59 2.65-1.853 1.07zm10.935-6.114c-.866.5-1.807.837-2.823 1.01a9.17 9.17 0 0 1-3.083 0c-1.039-.186-2.026-.55-2.962-1.09s-1.559-1.106-1.87-1.7c-.312-.606-.324-1.2-.035-1.78s.843-1.106 1.663-1.58c.843-.486 1.732-.8 2.667-.94s1.859-.126 2.771.04a7.78 7.78 0 0 1 2.512.91l.572.35.433.31-6.963 4.02-1.421-.82 6.149-3.55-.641.69c-.785-.453-1.582-.686-2.39-.7-.82-.02-1.57.167-2.252.56-.496.287-.814.604-.952.95s-.075.71.19 1.09c.254.374.71.75 1.369 1.13.646.374 1.299.63 1.957.77s1.293.167 1.905.08 1.178-.28 1.698-.58c.577-.333.935-.666 1.073-1s.116-.673-.069-1.02l2.165-.45c.208.36.289.734.243 1.12-.046.374-.231.747-.555 1.12s-.773.727-1.351 1.06z"/></g><rect x=".866" width="123" height="49" rx="24.5" transform="matrix(.866025 -.5 .866025 .5 197.116 203.403)" stroke="url(#M)"/><rect x=".866" width="173" height="49" rx="24.5" transform="matrix(.866025 -.5 .866025 .5 260.116 264.403)" fill="url(#N)"/><g filter="url(#D)" class="H"><path d="M316.317 259.456c.462.533.704 1.073.727 1.62.012.54-.173 1.06-.554 1.56s-.947.966-1.697 1.4a10.1 10.1 0 0 1-3.568 1.24c-1.282.193-2.581.163-3.898-.09s-2.586-.734-3.81-1.44-2.055-1.44-2.494-2.2-.491-1.51-.156-2.25 1.045-1.424 2.13-2.05a10.08 10.08 0 0 1 2.339-.99 9.28 9.28 0 0 1 2.494-.36c.843-.007 1.691.103 2.546.33l-.97 1.46c-.912-.26-1.744-.354-2.494-.28-.762.066-1.496.303-2.2.71s-1.155.86-1.351 1.36-.127 1.02.208 1.56c.346.533.976 1.063 1.888 1.59.901.52 1.813.886 2.736 1.1.913.206 1.796.256 2.651.15s1.645-.37 2.372-.79c.705-.407 1.132-.86 1.282-1.36.15-.514-.029-1.044-.537-1.59l2.356-.68zm.062-6.736c.843-.487 1.767-.814 2.771-.98s2.027-.157 3.066.03a8.76 8.76 0 0 1 2.962 1.07c.935.54 1.559 1.113 1.87 1.72a1.83 1.83 0 0 1 .035 1.76c-.289.58-.854 1.113-1.697 1.6s-1.767.813-2.772.98-2.026.163-3.065-.01c-1.051-.18-2.044-.54-2.979-1.08s-1.553-1.11-1.854-1.71c-.311-.607-.323-1.2-.034-1.78s.854-1.114 1.697-1.6zm1.455.84c-.52.3-.843.626-.97.98-.127.34-.063.696.191 1.07s.71.75 1.368 1.13a7.2 7.2 0 0 0 1.957.79c.647.146 1.27.186 1.871.12.6-.08 1.16-.27 1.68-.57s.843-.62.97-.96c.115-.347.046-.707-.208-1.08-.266-.38-.722-.757-1.368-1.13-.659-.38-1.311-.644-1.958-.79s-1.264-.184-1.853-.11a4.26 4.26 0 0 0-1.68.55zm17.504-1.386c-.716.413-1.547.686-2.494.82-.935.126-1.905.093-2.91-.1s-1.974-.56-2.91-1.1c-.97-.56-1.61-1.137-1.922-1.73s-.341-1.164-.087-1.71c.243-.554.722-1.037 1.438-1.45.739-.427 1.564-.67 2.477-.73s1.778.046 2.598.32l-.018.23-6.096-3.52 1.853-1.07 12.557 7.25-1.645.95-2.494-1.28.259-.13c.439.346.699.716.78 1.11.069.386-.017.77-.26 1.15-.242.366-.618.696-1.126.99zm-1.091-1.09c.497-.287.797-.607.901-.96s.023-.72-.243-1.1-.721-.757-1.368-1.13a6.29 6.29 0 0 0-1.836-.72c-.635-.14-1.247-.174-1.836-.1-.577.066-1.097.233-1.559.5-.774.446-1.108.946-1.004 1.5s.623 1.1 1.558 1.64 1.883.846 2.841.92c.947.066 1.795-.117 2.546-.55zm12.435-5.46c-.866.5-1.807.837-2.823 1.01a9.17 9.17 0 0 1-3.083 0c-1.039-.186-2.026-.55-2.962-1.09s-1.559-1.106-1.87-1.7c-.312-.606-.324-1.2-.035-1.78s.843-1.106 1.663-1.58c.843-.486 1.732-.8 2.667-.94s1.859-.126 2.771.04a7.78 7.78 0 0 1 2.512.91l.571.35.433.31-6.962 4.02-1.421-.82 6.149-3.55-.641.69c-.785-.453-1.582-.686-2.39-.7-.82-.02-1.57.167-2.252.56-.496.287-.814.604-.952.95s-.075.71.19 1.09c.254.374.71.75 1.369 1.13.646.374 1.299.63 1.957.77s1.293.167 1.905.08 1.178-.28 1.697-.58c.578-.333.936-.666 1.074-1s.116-.673-.069-1.02l2.165-.45c.208.36.289.734.243 1.12-.047.374-.231.747-.555 1.12s-.773.727-1.351 1.06zm22.921-9.473c-.647.373-1.357.65-2.13.83-.763.173-1.571.207-2.425.1-.843-.113-1.698-.42-2.564-.92-.138-.08-.277-.173-.415-.28a1.87 1.87 0 0 1-.347-.34l1.265-.85.363.31a2.37 2.37 0 0 0 .329.23c.601.347 1.149.55 1.646.61.508.053.976.017 1.403-.11a5.91 5.91 0 0 0 1.247-.54c.45-.26.791-.523 1.022-.79.242-.273.381-.527.415-.76l1.958.61c-.035.3-.237.63-.607.99a5.24 5.24 0 0 1-1.16.91zm-17.857-7.05c1.108-.64 2.303-1.057 3.585-1.25s2.581-.163 3.897.09 2.586.733 3.81 1.44 2.056 1.44 2.495 2.2.49 1.51.156 2.25-1.057 1.43-2.166 2.07c-1.097.633-2.286 1.047-3.568 1.24s-2.58.163-3.897-.09-2.586-.733-3.81-1.44-2.056-1.44-2.494-2.2-.491-1.51-.156-2.25 1.051-1.427 2.148-2.06zm1.61.93c-.716.413-1.166.867-1.351 1.36-.173.487-.081.993.277 1.52s.993 1.053 1.906 1.58c.9.52 1.813.887 2.736 1.1.913.207 1.79.26 2.633.16.855-.107 1.64-.367 2.356-.78.727-.42 1.177-.873 1.351-1.36.184-.493.098-1.003-.26-1.53-.37-.533-1.005-1.06-1.905-1.58-.913-.527-1.825-.893-2.737-1.1s-1.796-.257-2.65-.15c-.843.1-1.628.36-2.356.78zm21.151-.471c-.566.326-1.195.57-1.888.73-.682.153-1.397.18-2.148.08s-1.495-.364-2.234-.79l-5.716-3.3 1.853-1.07 5.248 3.03c.785.453 1.496.67 2.131.65.623-.027 1.235-.214 1.836-.56.288-.167.519-.354.693-.56.173-.22.265-.454.277-.7 0-.254-.11-.51-.329-.77-.208-.267-.537-.53-.988-.79l-4.694-2.71 1.854-1.07 8.66 5-1.628.94-1.49-.76c.243.486.237.95-.017 1.39s-.727.86-1.42 1.26zm6.896-10.602c-.577-.333-1.183-.496-1.819-.49-.635-.006-1.229.15-1.784.47-.519.3-.843.627-.97.98s-.005.737.364 1.15l-2.217.52c-.485-.533-.623-1.106-.416-1.72.22-.62.838-1.223 1.854-1.81.693-.4 1.42-.686 2.182-.86a6.44 6.44 0 0 1 2.252-.14 5.53 5.53 0 0 1 2.2.73l3.862 2.23a1.2 1.2 0 0 0 1.282 0 2.24 2.24 0 0 0 .519-.4l1.178.8c-.138.227-.41.457-.814.69a4.34 4.34 0 0 1-1.195.47 4.01 4.01 0 0 1-1.299.05 3.56 3.56 0 0 1-1.264-.45l-.122-.07.364-.23c.346.32.508.66.485 1.02-.035.354-.191.697-.468 1.03-.288.327-.652.617-1.091.87-.543.314-1.12.547-1.732.7-.6.147-1.201.194-1.801.14a4.25 4.25 0 0 1-1.68-.55c-.647-.373-.97-.8-.97-1.28.011-.486.329-.996.952-1.53l2.702-2.32 1.282.76-1.94 1.7c-.392.334-.623.62-.693.86s.064.457.399.65c.323.187.704.267 1.143.24a3.11 3.11 0 0 0 1.282-.42c.288-.166.531-.346.727-.54.208-.2.346-.406.416-.62.057-.22.023-.433-.104-.64-.127-.22-.364-.43-.71-.63l-2.356-1.36zm-.324-7.893l10.133 5.85c.427.247.797.373 1.108.38s.641-.09.988-.29a3.95 3.95 0 0 0 .485-.32 4.01 4.01 0 0 0 .381-.42l1.178.92a2.2 2.2 0 0 1-.468.51c-.196.18-.422.343-.676.49-.773.447-1.541.663-2.303.65-.762-.027-1.559-.28-2.391-.76l-10.288-5.94 1.853-1.07zm6.972-1.205c-.404.233-.814.356-1.229.37a2.32 2.32 0 0 1-1.178-.32c-.37-.214-.549-.437-.537-.67.023-.24.237-.477.641-.71.392-.227.791-.344 1.195-.35.415-.014.808.086 1.178.3s.548.443.537.69c-.012.233-.214.463-.607.69zm2.373.31l8.66 5-1.853 1.07-8.66-5 1.853-1.07zm2.883-4.604l8.608 4.97c.427.246.849.363 1.264.35a2.64 2.64 0 0 0 1.213-.36c.311-.18.537-.364.675-.55a1.37 1.37 0 0 0 .225-.61l1.767.54c-.035.286-.179.583-.433.89-.254.293-.618.576-1.091.85-.497.286-1.034.503-1.611.65a4.71 4.71 0 0 1-1.749.11c-.601-.08-1.201-.287-1.802-.62l-8.4-4.85 1.334-1.37zm5.525-.25l1.455.84-6.495 3.75-1.455-.84 6.495-3.75zm9.437-5.449l5.889 7.78c.415.534.669 1 .762 1.4.104.394.052.75-.156 1.07s-.566.627-1.074.92c-.416.24-.86.43-1.334.57-.45.14-.9.234-1.351.28l-.987-1.09a5.48 5.48 0 0 0 1.108-.16c.347-.093.664-.223.953-.39.312-.18.502-.39.572-.63.092-.24-.012-.56-.312-.96l-.554-.76-3.066-.71-9.267-2.23 2.079-1.2 7.361 2.03 2.131.65-1.213-1.36-3.464-4.1 1.923-1.11z"/></g><rect x=".866" width="173" height="49" rx="24.5" transform="matrix(.866025 -.5 .866025 .5 260.116 264.403)" stroke="url(#O)"/><g class="F G"><path d="M331.88 219.177c.677 0 1.225-.316 1.225-.707v-6.364c0-.39-.548-.707-1.225-.707s-1.225.317-1.225.707v5.657h-9.798c-.676 0-1.224.317-1.224.707s.548.707 1.224.707h11.023zm-34.964-19.893l34.098 19.686 1.732-1-34.098-19.686-1.732 1z"/></g><rect x=".866" width="135" height="49" rx="24.5" transform="matrix(.866025 -.5 .866025 .5 413.116 74.4032)" fill="url(#P)"/><g filter="url(#E)" class="H"><path d="M460.708 64.726l7.05 4.07c1.512.873 2.251 1.76 2.217 2.66s-.814 1.79-2.338 2.67c-1.502.867-3.037 1.313-4.608 1.34-1.559.02-3.094-.407-4.607-1.28l-7.049-4.07 1.853-1.07 6.824 3.94c1.074.62 2.102.947 3.083.98s1.946-.223 2.893-.77c.958-.553 1.408-1.113 1.351-1.68s-.624-1.16-1.698-1.78l-6.824-3.94 1.853-1.07zm14.274 4.959l-8.66-5 1.645-.95 2.373 1.23h-.485c-.335-.38-.514-.75-.537-1.11-.023-.373.098-.723.364-1.05.277-.333.652-.637 1.126-.91.612-.353 1.281-.6 2.009-.74a6.43 6.43 0 0 1 2.234-.07 6.15 6.15 0 0 1 2.234.79l5.612 3.24-1.853 1.07-5.04-2.91c-.855-.493-1.623-.73-2.304-.71-.681.007-1.287.163-1.819.47-.381.22-.658.487-.831.8-.185.307-.202.643-.052 1.01.162.36.572.73 1.23 1.11l4.607 2.66-1.853 1.07zm1.544-12.571c-.404.233-.814.357-1.23.37a2.32 2.32 0 0 1-1.178-.32c-.369-.213-.548-.437-.537-.67.023-.24.237-.477.641-.71.393-.227.791-.343 1.195-.35.416-.013.809.087 1.178.3s.549.443.537.69c-.012.233-.214.463-.606.69zm2.373.31l8.66 5-1.853 1.07-8.661-5 1.854-1.07zm2.882-4.604l8.608 4.97c.428.247.849.363 1.265.35a2.64 2.64 0 0 0 1.212-.36c.312-.18.537-.363.676-.55.127-.193.202-.397.225-.61l1.767.54c-.035.287-.179.583-.433.89-.254.293-.618.577-1.092.85-.496.287-1.033.503-1.61.65s-1.161.183-1.75.11c-.6-.08-1.201-.287-1.801-.62l-8.401-4.85 1.334-1.37zm5.525-.25l1.455.84-6.495 3.75-1.455-.84 6.495-3.75zm13.036-10.726l1.593.92-3.914 2.26 9.838 5.68-1.853 1.07-9.838-5.68-3.915 2.26-1.593-.92 9.682-5.59zm15.565 4.413c-.866.5-1.807.837-2.823 1.01s-2.044.173-3.083 0c-1.04-.187-2.027-.55-2.962-1.09s-1.559-1.107-1.871-1.7c-.312-.607-.323-1.2-.034-1.78s.843-1.107 1.662-1.58a7.52 7.52 0 0 1 2.668-.94c.935-.14 1.859-.127 2.771.04s1.749.47 2.511.91l.572.35.433.31-6.963 4.02-1.42-.82 6.149-3.55-.641.69c-.785-.453-1.582-.687-2.39-.7a4.21 4.21 0 0 0-2.252.56c-.497.287-.814.603-.953.95s-.075.71.191 1.09c.254.373.71.75 1.368 1.13.647.373 1.299.63 1.957.77s1.294.167 1.906.08 1.177-.28 1.697-.58c.577-.333.935-.667 1.074-1s.115-.673-.069-1.02l2.165-.45a1.77 1.77 0 0 1 .242 1.12c-.046.373-.231.747-.554 1.12s-.774.727-1.351 1.06zm9.494-5.481c-.866.5-1.825.86-2.875 1.08s-2.09.273-3.118.16l.173-1.38c.728.127 1.472.137 2.234.03a6.19 6.19 0 0 0 2.148-.76c.531-.307.86-.603.987-.89s.023-.527-.311-.72c-.22-.127-.485-.193-.797-.2-.312-.02-.716.06-1.213.24l-2.199.83c-1.109.427-2.061.637-2.858.63-.808-.013-1.53-.203-2.165-.57-.474-.273-.774-.607-.901-1s-.046-.813.243-1.26c.288-.46.808-.907 1.558-1.34.866-.5 1.761-.837 2.685-1.01.912-.18 1.813-.2 2.702-.06l-.208 1.36c-.681-.14-1.345-.15-1.992-.03-.658.113-1.218.303-1.68.57-.369.213-.641.423-.814.63s-.248.397-.225.57.144.323.364.45c.231.133.519.2.866.2s.791-.103 1.334-.31l2.39-.9c.993-.387 1.853-.563 2.581-.53.727.02 1.368.19 1.922.51s.901.687 1.039 1.1c.127.407.035.833-.277 1.28s-.843.887-1.593 1.32zm-2.974-11.423l8.608 4.97c.427.247.849.363 1.264.35a2.64 2.64 0 0 0 1.213-.36c.312-.18.537-.363.675-.55a1.38 1.38 0 0 0 .226-.61l1.766.54c-.034.287-.179.583-.433.89-.254.293-.618.577-1.091.85-.496.287-1.033.503-1.611.65a4.69 4.69 0 0 1-1.749.11c-.601-.08-1.201-.287-1.801-.62l-8.401-4.85 1.334-1.37zm5.525-.25l1.455.84-6.495 3.75-1.455-.84 6.495-3.75z"/></g><rect x=".866" width="135" height="49" rx="24.5" transform="matrix(.866025 -.5 .866025 .5 413.116 74.4032)" stroke="url(#Q)"/><g class="F G"><path d="M432.412 88.47c0-.391-.549-.707-1.225-.707h-11.023c-.676 0-1.225.317-1.225.707s.549.707 1.225.707h9.798v5.657c0 .391.548.707 1.225.707s1.225-.316 1.225-.707V88.47zm4.257 99.5l10.996-6.348-1.732-1-10.996 6.348 1.732 1zm10.996-31.348l-46.476-26.833-1.732 1 46.476 26.833 1.732-1zm-46.476-49.833l30.864-17.819-1.732-1-30.864 17.819 1.732 1zm0 23c-11-6.351-11-16.648 0-23l-1.732-1c-11.957 6.904-11.957 18.097 0 25l1.732-1zm46.476 51.833c11.957-6.903 11.957-18.096 0-25l-1.732 1c11.001 6.351 11.001 16.649 0 23l1.732 1z"/></g><rect x=".866" width="163" height="49" rx="24.5" transform="matrix(.866025 -.5 .866025 .5 482.116 128.403)" fill="url(#R)"/><g filter="url(#F)" class="H"><path d="M532.136 130.524l-11.432-6.6 4.504-2.6c1.374-.793 2.655-1.213 3.845-1.26s2.274.214 3.256.78c.6.347.964.757 1.091 1.23.116.467-.098.93-.641 1.39l.018.01c.854-.36 1.732-.513 2.632-.46.901.04 1.675.247 2.321.62.982.567 1.397 1.22 1.247 1.96s-.906 1.504-2.269 2.29l-4.572 2.64zm.277-1.94l2.84-1.64c.728-.42 1.121-.82 1.178-1.2.07-.386-.167-.736-.71-1.05s-1.149-.45-1.819-.41c-.658.034-1.351.26-2.078.68l-2.841 1.64 3.43 1.98zm-4.971-2.87l2.546-1.47c1.455-.84 1.622-1.583.502-2.23s-2.407-.55-3.862.29l-2.546 1.47 3.36 1.94zm19.158-3.341a6.81 6.81 0 0 1-1.888.73c-.681.154-1.397.18-2.147.08s-1.496-.363-2.235-.79l-5.716-3.3 1.854-1.07 5.248 3.03c.785.454 1.495.67 2.13.65.624-.026 1.236-.213 1.836-.56.289-.166.52-.353.693-.56.173-.22.266-.453.277-.7 0-.253-.109-.51-.329-.77-.208-.266-.537-.53-.987-.79l-4.694-2.71 1.853-1.07 8.661 5-1.629.94-1.489-.76c.242.487.237.95-.017 1.39s-.728.86-1.421 1.26zm-1.729-10.881c-.404.233-.814.356-1.23.37a2.32 2.32 0 0 1-1.177-.32c-.37-.214-.549-.437-.537-.67.023-.24.236-.477.64-.71a2.44 2.44 0 0 1 1.196-.35 2.16 2.16 0 0 1 1.177.3c.37.213.549.443.537.69-.011.233-.213.463-.606.69zm2.373.31l8.66 5-1.853 1.07-8.66-5 1.853-1.07zm.804-4.964l10.132 5.85c.428.246.797.373 1.109.38s.641-.09.987-.29c.208-.12.37-.227.485-.32a3.8 3.8 0 0 0 .381-.42l1.178.92a2.24 2.24 0 0 1-.468.51c-.196.18-.421.343-.675.49-.774.446-1.542.663-2.304.65-.762-.027-1.559-.28-2.39-.76l-10.288-5.94 1.853-1.07zm19.65 3.354c-.716.414-1.547.687-2.494.82-.935.127-1.905.094-2.91-.1s-1.974-.56-2.909-1.1c-.97-.56-1.611-1.136-1.923-1.73s-.341-1.163-.087-1.71c.243-.553.722-1.036 1.438-1.45a5.63 5.63 0 0 1 2.477-.73c.912-.06 1.778.047 2.598.32l-.017.23-6.097-3.52 1.853-1.07 12.557 7.25-1.645.95-2.494-1.28.26-.13c.438.347.698.717.779 1.11.069.387-.017.77-.26 1.15-.242.367-.618.697-1.126.99zm-1.091-1.09c.497-.286.797-.606.901-.96s.023-.72-.243-1.1-.721-.756-1.368-1.13c-.6-.346-1.212-.586-1.836-.72-.635-.14-1.247-.173-1.836-.1-.577.067-1.097.234-1.559.5-.773.447-1.108.947-1.004 1.5s.623 1.1 1.559 1.64 1.882.847 2.84.92c.947.067 1.796-.116 2.546-.55zm4.766-14.431l11.431 6.6-1.853 1.07-11.431-6.6 1.853-1.07zm14.494 4.832l-8.66-5 1.645-.95 1.542.79c-.254-.493-.266-.96-.035-1.4.243-.447.647-.833 1.213-1.16.623-.36 1.339-.607 2.147-.74.809-.147 1.629-.133 2.46.04-.196-.327-.26-.657-.191-.99s.243-.647.52-.94c.266-.3.589-.56.97-.78.554-.32 1.189-.553 1.905-.7s1.461-.17 2.235-.07 1.53.363 2.269.79l5.611 3.24-1.853 1.07-5.317-3.07c-.705-.407-1.38-.603-2.027-.59s-1.229.17-1.749.47c-.404.233-.681.507-.831.82-.139.307-.116.633.069.98.173.34.543.673 1.108 1l4.711 2.72-1.853 1.07-5.317-3.07c-.705-.407-1.38-.603-2.027-.59s-1.229.17-1.749.47c-.346.2-.601.453-.762.76s-.162.64 0 1 .566.727 1.212 1.1l4.608 2.66-1.854 1.07zm15.887-15.592a3.51 3.51 0 0 0-1.819-.49c-.635-.007-1.229.15-1.784.47-.519.3-.843.627-.97.98s-.005.737.364 1.15l-2.217.52c-.485-.533-.624-1.107-.416-1.72.22-.62.837-1.223 1.854-1.81.692-.4 1.42-.687 2.182-.86.751-.18 1.501-.227 2.252-.14.762.08 1.495.323 2.199.73l3.863 2.23a1.2 1.2 0 0 0 1.282 0 2.27 2.27 0 0 0 .519-.4l1.178.8c-.139.227-.41.457-.814.69a4.37 4.37 0 0 1-1.195.47c-.427.087-.86.103-1.299.05a3.59 3.59 0 0 1-1.265-.45l-.121-.07.364-.23c.346.32.508.66.485 1.02-.035.353-.191.697-.468 1.03-.289.327-.652.617-1.091.87-.543.313-1.12.547-1.732.7a5.49 5.49 0 0 1-1.801.14c-.601-.067-1.161-.25-1.681-.55-.646-.373-.969-.8-.969-1.28.011-.487.329-.997.952-1.53l2.702-2.32 1.282.76-1.94 1.7c-.393.333-.624.62-.693.86s.064.457.399.65c.323.187.704.267 1.143.24.438-.04.866-.18 1.281-.42.289-.167.532-.347.728-.54.208-.2.346-.407.416-.62.057-.22.023-.433-.104-.64-.127-.22-.364-.43-.71-.63l-2.356-1.36zm7.608-10.073l1.75.67-.104.06a.54.54 0 0 0-.122.05c-.554.32-.854.633-.9.94-.058.3.138.58.589.84l-1.317.28c-.462-.267-.773-.56-.935-.88-.173-.327-.185-.653-.035-.98.162-.333.474-.633.936-.9l.069-.04.069-.04zm6.391 6.85c.878-.507 1.756-.787 2.633-.84.866-.06 1.64.107 2.321.5.601.347.924.753.97 1.22.058.473-.127.967-.554 1.48-.416.507-1.045 1.003-1.888 1.49-1.42.82-2.691 1.3-3.811 1.44s-2.009.02-2.667-.36c-.462-.267-.704-.593-.727-.98-.012-.393.352-.83 1.091-1.31l.173.22a5.49 5.49 0 0 1-1.732.36c-.566.007-1.097-.133-1.594-.42s-.727-.64-.692-1.06.369-.847 1.004-1.28l1.438-.29-.208.12c-.485.333-.739.62-.762.86s.086.43.329.57a1.51 1.51 0 0 0 .953.19c.358-.047.733-.183 1.125-.41l2.598-1.5zm2.096 3.05c.635-.367 1.091-.703 1.369-1.01.3-.307.45-.573.45-.8.023-.227-.081-.407-.312-.54-.265-.153-.589-.213-.97-.18-.369.027-.831.2-1.385.52l-2.789 1.61c-.323.187-.514.39-.572.61-.046.227.075.423.364.59.381.22.912.26 1.594.12s1.431-.447 2.251-.92zm-11.241-6.41c.762-.44 1.542-.75 2.339-.93.808-.187 1.581-.24 2.32-.16.751.073 1.421.28 2.01.62s.947.727 1.074 1.16c.138.427.046.873-.278 1.34-.311.46-.848.91-1.61 1.35-1.201.693-2.391 1.073-3.568 1.14-1.178.053-2.206-.173-3.083-.68-.589-.34-.947-.727-1.074-1.16s-.035-.88.277-1.34c.323-.467.854-.913 1.593-1.34zm1.299.75c-.531.307-.825.65-.883 1.03-.058.367.162.693.658.98s1.068.417 1.715.39a3.91 3.91 0 0 0 1.784-.51c.543-.313.837-.657.883-1.03.058-.38-.161-.713-.658-1s-1.068-.41-1.715-.37a3.83 3.83 0 0 0-1.784.51zm17.651-1.29a8.44 8.44 0 0 1-2.824 1.01c-1.016.173-2.043.173-3.083 0-1.039-.187-2.026-.55-2.962-1.09s-1.558-1.107-1.87-1.7c-.312-.607-.323-1.2-.035-1.78s.843-1.107 1.663-1.58a7.52 7.52 0 0 1 2.667-.94 8.4 8.4 0 0 1 2.772.04c.912.167 1.749.47 2.511.91l.572.35.433.31-6.963 4.02-1.42-.82 6.148-3.55-.641.69c-.785-.453-1.581-.687-2.39-.7-.82-.02-1.57.167-2.251.56-.497.287-.814.603-.953.95s-.075.71.19 1.09c.255.373.711.75 1.369 1.13.646.373 1.299.63 1.957.77s1.293.167 1.905.08 1.178-.28 1.698-.58c.577-.333.935-.667 1.074-1s.115-.673-.07-1.02l2.165-.45a1.77 1.77 0 0 1 .243 1.12c-.046.373-.231.747-.554 1.12s-.774.727-1.351 1.06z"/></g><rect x=".866" width="163" height="49" rx="24.5" transform="matrix(.866025 -.5 .866025 .5 482.116 128.403)" stroke="url(#S)"/><g class="F G"><path d="M549.55 85.677c.676 0 1.225-.317 1.225-.707v-6.364c0-.391-.549-.707-1.225-.707s-1.225.317-1.225.707v5.657h-9.798c-.676 0-1.224.317-1.224.707s.548.707 1.224.707h11.023zm-31.902-18.126l31.036 17.918 1.732-1-31.036-17.918-1.732 1z"/></g><rect x=".866" width="201" height="49" rx="24.5" transform="matrix(.866025 -.5 .866025 .5 552.116 187.403)" fill="url(#T)"/><g filter="url(#G)" class="H"><path d="M592.427 181.93l11.432 6.6-1.853 1.07-11.432-6.6 1.853-1.07zm14.495 4.831l-8.661-5 1.646-.95 2.373 1.23h-.485c-.335-.38-.514-.75-.537-1.11-.023-.373.098-.723.364-1.05.277-.333.652-.636 1.125-.91.612-.353 1.282-.6 2.01-.74.727-.153 1.472-.176 2.234-.07s1.507.37 2.234.79l5.612 3.24-1.853 1.07-5.04-2.91c-.855-.493-1.623-.73-2.304-.71-.681.007-1.288.164-1.819.47-.381.22-.658.487-.831.8-.185.307-.202.644-.052 1.01.162.36.572.73 1.23 1.11l4.607 2.66-1.853 1.07zm1.944-14.063l8.609 4.97c.427.247.848.364 1.264.35.427-.02.832-.14 1.213-.36.311-.18.537-.363.675-.55.127-.193.202-.396.225-.61l1.767.54c-.035.287-.179.584-.433.89-.254.294-.618.577-1.091.85a6.29 6.29 0 0 1-1.611.65 4.67 4.67 0 0 1-1.749.11 5.08 5.08 0 0 1-1.802-.62l-8.4-4.85 1.333-1.37zm5.526-.25l1.455.84-6.496 3.75-1.454-.84 6.495-3.75zm14.477 1.842c-.866.5-1.807.837-2.824 1.01a9.17 9.17 0 0 1-3.083 0c-1.039-.186-2.026-.55-2.961-1.09s-1.559-1.106-1.871-1.7c-.312-.606-.323-1.2-.035-1.78s.843-1.106 1.663-1.58c.843-.486 1.732-.8 2.667-.94a8.42 8.42 0 0 1 2.772.04c.912.167 1.749.47 2.511.91l.572.35.433.31-6.963 4.02-1.42-.82 6.148-3.55-.64.69c-.786-.453-1.582-.686-2.391-.7-.819-.02-1.57.167-2.251.56-.497.287-.814.604-.953.95s-.075.71.191 1.09c.254.374.71.75 1.368 1.13.647.374 1.299.63 1.957.77s1.293.167 1.905.08 1.178-.28 1.698-.58c.577-.333.935-.666 1.074-1s.115-.673-.07-1.02l2.165-.45c.208.36.289.734.243 1.12-.046.374-.231.747-.554 1.12s-.774.727-1.351 1.06zm3.171-14.131l1.75.67-.104.06a.52.52 0 0 0-.121.05c-.555.32-.855.633-.901.94-.058.3.139.58.589.84l-1.316.28c-.462-.267-.774-.56-.936-.88a1.05 1.05 0 0 1-.034-.98c.161-.333.473-.633.935-.9l.069-.04.069-.04zm6.392 6.85c.877-.507 1.755-.787 2.632-.84.866-.06 1.64.107 2.321.5.601.347.924.753.97 1.22.058.473-.127.967-.554 1.48-.416.507-1.045 1.003-1.888 1.49-1.42.82-2.69 1.3-3.81 1.44s-2.01.02-2.668-.36c-.462-.267-.704-.593-.727-.98-.012-.393.352-.83 1.091-1.31l.173.22a5.49 5.49 0 0 1-1.732.36 3.05 3.05 0 0 1-1.593-.42c-.497-.287-.728-.64-.693-1.06s.369-.847 1.004-1.28l1.438-.29-.208.12c-.485.333-.739.62-.762.86s.087.43.329.57c.289.167.606.23.953.19.358-.047.733-.183 1.126-.41l2.598-1.5zm2.096 3.05c.635-.367 1.091-.703 1.368-1.01.3-.307.45-.573.45-.8.023-.227-.081-.407-.312-.54-.265-.153-.588-.213-.97-.18-.369.027-.831.2-1.385.52l-2.789 1.61c-.323.187-.514.39-.571.61-.047.227.075.423.363.59.381.22.913.26 1.594.12s1.432-.447 2.252-.92zm-11.241-6.41c.762-.44 1.541-.75 2.338-.93a6.94 6.94 0 0 1 2.321-.16c.75.073 1.42.28 2.009.62s.947.727 1.074 1.16c.138.427.046.873-.277 1.34-.312.46-.849.91-1.611 1.35-1.201.693-2.39 1.073-3.568 1.14-1.178.053-2.206-.173-3.083-.68-.589-.34-.947-.727-1.074-1.16s-.035-.88.277-1.34c.323-.467.855-.913 1.594-1.34zm1.299.75c-.532.307-.826.65-.884 1.03-.058.367.162.693.658.98s1.068.417 1.715.39a3.9 3.9 0 0 0 1.784-.51c.543-.313.837-.657.883-1.03.058-.38-.161-.713-.658-1s-1.068-.41-1.714-.37c-.647.027-1.242.197-1.784.51zm13.666.81l-8.66-5 1.576-.91 1.732.8c-.335-.46-.421-.904-.26-1.33.162-.44.578-.854 1.247-1.24.174-.1.364-.19.572-.27.196-.087.381-.147.554-.18l1.368 1.09a3.8 3.8 0 0 0-.536.19c-.185.066-.41.176-.676.33-.358.206-.612.466-.762.78-.162.306-.167.636-.017.99.161.346.537.69 1.125 1.03l4.59 2.65-1.853 1.07zm6.432-10.134a3.52 3.52 0 0 0-1.819-.49 3.44 3.44 0 0 0-1.784.47c-.52.3-.843.627-.97.98s-.006.737.364 1.15l-2.217.52c-.485-.533-.624-1.106-.416-1.72.219-.62.837-1.223 1.853-1.81.693-.4 1.421-.686 2.183-.86.75-.18 1.501-.226 2.251-.14.762.08 1.496.324 2.2.73l3.862 2.23a1.2 1.2 0 0 0 1.282 0c.208-.12.381-.253.52-.4l1.178.8c-.139.227-.41.457-.814.69-.37.214-.768.37-1.196.47a4.01 4.01 0 0 1-1.299.05c-.438-.066-.86-.216-1.264-.45l-.121-.07.363-.23c.347.32.509.66.485 1.02-.034.354-.19.697-.467 1.03-.289.327-.653.617-1.091.87-.543.314-1.12.547-1.732.7a5.47 5.47 0 0 1-1.802.14 4.26 4.26 0 0 1-1.68-.55c-.646-.373-.97-.8-.97-1.28.012-.486.329-.996.953-1.53l2.702-2.32 1.282.76-1.94 1.7c-.393.334-.624.62-.693.86s.063.457.398.65c.324.187.705.267 1.143.24a3.11 3.11 0 0 0 1.282-.42 3.55 3.55 0 0 0 .728-.54c.207-.2.346-.406.415-.62.058-.22.023-.433-.104-.64-.127-.22-.363-.43-.71-.63l-2.355-1.36zm1.416-7.337l8.608 4.97c.428.246.849.363 1.265.35a2.64 2.64 0 0 0 1.212-.36c.312-.18.537-.364.676-.55a1.37 1.37 0 0 0 .225-.61l1.767.54c-.035.286-.179.583-.433.89-.254.293-.618.576-1.092.85a6.34 6.34 0 0 1-1.61.65c-.578.146-1.161.183-1.75.11-.6-.08-1.201-.287-1.801-.62l-8.401-4.85 1.334-1.37zm5.525-.25l1.455.84-6.495 3.75-1.455-.84 6.495-3.75zm1.314-2.439c-.404.234-.814.357-1.23.37-.416 0-.808-.106-1.178-.32s-.548-.436-.537-.67c.023-.24.237-.476.641-.71.393-.226.791-.343 1.195-.35a2.18 2.18 0 0 1 1.178.3c.369.214.548.444.537.69-.012.234-.214.464-.606.69zm2.373.31l8.66 5-1.853 1.07-8.661-5 1.854-1.07zm6.485-3.944a8.16 8.16 0 0 1 2.771-.98c1.005-.167 2.026-.157 3.066.03 1.039.173 2.026.53 2.961 1.07s1.559 1.113 1.871 1.72c.312.593.323 1.18.035 1.76s-.855 1.113-1.698 1.6a8.16 8.16 0 0 1-2.771.98c-1.005.167-2.026.163-3.066-.01-1.05-.18-2.044-.54-2.979-1.08s-1.553-1.11-1.853-1.71c-.312-.607-.323-1.2-.035-1.78s.855-1.113 1.698-1.6zm1.455.84c-.52.3-.843.627-.97.98-.127.34-.064.697.19 1.07s.71.75 1.368 1.13c.647.373 1.299.637 1.958.79.646.147 1.27.187 1.87.12.601-.08 1.161-.27 1.68-.57s.843-.62.97-.96c.116-.347.047-.707-.208-1.08-.265-.38-.721-.757-1.368-1.13-.658-.38-1.31-.643-1.957-.79a5.35 5.35 0 0 0-1.853-.11c-.601.067-1.161.25-1.68.55zm14.005.434l-8.66-5 1.645-.95 2.373 1.23h-.485c-.335-.38-.514-.75-.537-1.11-.023-.373.098-.723.364-1.05.277-.333.652-.637 1.126-.91a6.42 6.42 0 0 1 2.009-.74 6.43 6.43 0 0 1 2.234-.07c.762.107 1.507.37 2.235.79l5.612 3.24-1.854 1.07-5.04-2.91c-.854-.493-1.622-.73-2.304-.71-.681.007-1.287.163-1.818.47-.381.22-.658.487-.832.8-.184.307-.202.643-.052 1.01.162.36.572.73 1.23 1.11l4.607 2.66-1.853 1.07zm13.266-20.859l1.594.92-3.915 2.26 9.838 5.68-1.853 1.07-9.838-5.68-3.914 2.26-1.594-.92 9.682-5.59zm15.565 4.413c-.866.5-1.807.837-2.823 1.01a9.17 9.17 0 0 1-3.083 0 9.09 9.09 0 0 1-2.962-1.09c-.935-.54-1.559-1.106-1.87-1.7-.312-.606-.324-1.2-.035-1.78s.843-1.106 1.663-1.58c.843-.486 1.732-.8 2.667-.94s1.859-.126 2.771.04a7.78 7.78 0 0 1 2.512.91l.571.35.433.31-6.962 4.02-1.421-.82 6.149-3.55-.641.69c-.785-.453-1.582-.686-2.39-.7-.82-.02-1.57.167-2.252.56-.496.287-.814.604-.952.95s-.075.71.19 1.09c.254.374.71.75 1.369 1.13.646.374 1.299.63 1.957.77s1.293.167 1.905.08 1.178-.28 1.697-.58c.578-.333.936-.666 1.074-1s.116-.673-.069-1.02l2.165-.45c.208.36.289.734.243 1.12-.047.374-.231.747-.555 1.12s-.773.727-1.351 1.06zm9.494-5.481c-.866.5-1.824.86-2.875 1.08s-2.09.273-3.118.16l.173-1.38c.728.127 1.473.137 2.235.03a6.17 6.17 0 0 0 2.147-.76c.532-.307.861-.603.988-.89s.023-.527-.312-.72a1.64 1.64 0 0 0-.797-.2c-.312-.02-.716.06-1.212.24l-2.2.83c-1.108.427-2.061.637-2.858.63-.808-.013-1.53-.203-2.165-.57-.473-.273-.773-.607-.901-1s-.046-.813.243-1.26c.289-.46.808-.907 1.559-1.34a8.46 8.46 0 0 1 2.685-1.01 7.68 7.68 0 0 1 2.702-.06l-.208 1.36c-.682-.14-1.346-.15-1.992-.03-.658.113-1.218.303-1.68.57-.37.213-.641.423-.814.63s-.249.397-.226.57.145.323.364.45c.231.133.52.2.866.2s.791-.103 1.334-.31l2.39-.9c.993-.387 1.853-.563 2.581-.53.727.02 1.368.19 1.922.51s.901.687 1.04 1.1c.127.407.034.833-.277 1.28s-.843.887-1.594 1.32zm-2.974-11.423l8.608 4.97c.428.247.849.363 1.265.35a2.64 2.64 0 0 0 1.212-.36c.312-.18.537-.363.676-.55.127-.193.202-.397.225-.61l1.767.54c-.035.287-.179.583-.433.89-.254.293-.618.577-1.092.85-.496.287-1.033.503-1.61.65s-1.161.183-1.75.11c-.6-.08-1.201-.287-1.801-.62l-8.401-4.85 1.334-1.37zm5.525-.25l1.455.84-6.495 3.75-1.455-.84 6.495-3.75z"/></g><rect x=".866" width="201" height="49" rx="24.5" transform="matrix(.866025 -.5 .866025 .5 552.116 187.403)" stroke="url(#U)"/><g class="F G"><path d="M636.005 135.177c.676 0 1.225-.316 1.225-.707v-6.364c0-.39-.549-.707-1.225-.707s-1.225.317-1.225.707v5.657h-9.798c-.676 0-1.225.316-1.225.707s.549.707 1.225.707h11.023zm-36.732-20.914l35.866 20.707 1.732-1-35.866-20.707-1.732 1z"/></g><rect x=".866" width="155" height="49" rx="24.5" transform="matrix(.866025 -.5 .866025 .5 883.116 141.403)" fill="url(#V)"/><g filter="url(#H)" class="H"><path d="M926.149 134.358c.82-.473 1.669-.797 2.546-.97a7.98 7.98 0 0 1 2.633-.1 6.49 6.49 0 0 1 2.425.82c.739.427 1.212.893 1.42 1.4.196.5.139 1.007-.173 1.52-.3.507-.86.997-1.68 1.47l-2.546 1.47 4.261 2.46-1.854 1.07-11.431-6.6 4.399-2.54zm5.283 3.39c.82-.473 1.253-.917 1.299-1.33.046-.427-.254-.827-.901-1.2-.658-.38-1.351-.553-2.078-.52-.728.02-1.501.267-2.321.74l-2.252 1.3 4.001 2.31 2.252-1.3zm12.349-.37l-8.661-5 1.577-.91 1.732.8c-.335-.46-.422-.903-.26-1.33.161-.44.577-.853 1.247-1.24a4.08 4.08 0 0 1 .571-.27 2.7 2.7 0 0 1 .555-.18l1.368 1.09a3.99 3.99 0 0 0-.537.19c-.185.067-.41.177-.675.33-.358.207-.612.467-.763.78-.161.307-.167.637-.017.99.162.347.537.69 1.126 1.03l4.59 2.65-1.853 1.07zm1.877-11.283a8.14 8.14 0 0 1 2.771-.98c1.004-.167 2.026-.157 3.066.03 1.039.173 2.026.53 2.961 1.07s1.559 1.113 1.871 1.72c.312.593.323 1.18.035 1.76s-.855 1.113-1.698 1.6-1.766.813-2.771.98a9.31 9.31 0 0 1-3.066-.01c-1.051-.18-2.044-.54-2.979-1.08s-1.553-1.11-1.853-1.71c-.312-.607-.323-1.2-.035-1.78s.855-1.114 1.698-1.6zm1.455.84c-.52.3-.843.626-.97.98-.127.34-.064.696.19 1.07s.71.75 1.368 1.13c.647.373 1.299.636 1.958.79.646.146 1.27.186 1.87.12.601-.08 1.161-.27 1.68-.57s.843-.62.97-.96c.116-.347.046-.707-.208-1.08-.265-.38-.721-.757-1.368-1.13-.658-.38-1.31-.644-1.957-.79s-1.264-.184-1.853-.11a4.25 4.25 0 0 0-1.68.55zm17.504-1.386c-.716.413-1.547.686-2.494.82-.936.126-1.906.093-2.91-.1s-1.975-.56-2.91-1.1c-.97-.56-1.611-1.137-1.923-1.73s-.34-1.164-.086-1.71c.242-.554.721-1.037 1.437-1.45.739-.427 1.565-.67 2.477-.73s1.778.046 2.598.32l-.017.23-6.097-3.52 1.853-1.07 12.558 7.25-1.646.95-2.494-1.28.26-.13c.439.346.699.716.779 1.11.07.386-.017.77-.259 1.15-.243.366-.618.696-1.126.99zm-1.091-1.09c.496-.287.796-.607.9-.96s.023-.72-.242-1.1-.722-.757-1.369-1.13a6.27 6.27 0 0 0-1.836-.72c-.635-.14-1.247-.174-1.835-.1a3.98 3.98 0 0 0-1.559.5c-.774.446-1.109.946-1.005 1.5s.624 1.1 1.559 1.64 1.882.846 2.84.92c.947.066 1.796-.117 2.547-.55zm11.707-5.04c-.565.327-1.195.57-1.887.73-.682.154-1.398.18-2.148.08s-1.496-.363-2.235-.79l-5.715-3.3 1.853-1.07 5.248 3.03c.785.454 1.495.67 2.131.65.623-.026 1.235-.213 1.835-.56.289-.166.52-.353.693-.56.174-.22.266-.453.277-.7 0-.253-.109-.51-.329-.77-.208-.266-.537-.53-.987-.79l-4.694-2.71 1.854-1.07 8.66 5-1.628.94-1.49-.76c.243.487.237.95-.017 1.39s-.728.86-1.421 1.26zm2.359-11.761c.693-.4 1.386-.68 2.078-.84.693-.174 1.392-.25 2.096-.23s1.38.116 2.027.29l-1.057 1.41c-.681-.22-1.328-.314-1.94-.28-.612.02-1.183.183-1.715.49-.519.3-.842.626-.969.98-.139.346-.081.706.173 1.08.265.366.727.74 1.385 1.12.647.373 1.294.633 1.94.78s1.27.18 1.871.1a4.48 4.48 0 0 0 1.663-.56c.392-.227.669-.46.831-.7.15-.247.196-.494.139-.74-.058-.26-.231-.514-.52-.76l2.252-.64c.358.393.56.803.606 1.23.046.413-.075.83-.364 1.25-.3.413-.779.81-1.437 1.19-.855.493-1.79.826-2.806 1a9.22 9.22 0 0 1-3.083 0c-1.04-.187-2.027-.55-2.962-1.09s-1.559-1.107-1.871-1.7c-.312-.607-.323-1.2-.035-1.78.301-.587.867-1.12 1.698-1.6zm6.14-6.286l8.609 4.97c.427.247.848.364 1.264.35.427-.02.831-.14 1.213-.36.311-.18.536-.363.675-.55.127-.193.202-.396.225-.61l1.767.54c-.035.287-.179.584-.433.89-.254.294-.618.577-1.091.85a6.29 6.29 0 0 1-1.611.65 4.67 4.67 0 0 1-1.749.11 5.08 5.08 0 0 1-1.802-.62l-8.4-4.85 1.333-1.37zm5.526-.25l1.455.84-6.496 3.75-1.455-.84 6.496-3.75zm1.313-2.438c-.404.233-.814.357-1.23.37a2.32 2.32 0 0 1-1.178-.32c-.369-.213-.548-.437-.536-.67.023-.24.236-.477.64-.71.393-.227.791-.343 1.196-.35.415-.013.808.087 1.177.3s.549.443.537.69c-.011.233-.213.463-.606.69zm2.373.31l8.656 5-1.849 1.07-8.66-5 1.853-1.07zm6.485-3.944c.841-.487 1.771-.813 2.771-.98s2.03-.157 3.07.03c1.04.173 2.02.53 2.96 1.07.93.54 1.56 1.113 1.87 1.72.31.593.32 1.18.03 1.76s-.85 1.113-1.69 1.6c-.85.487-1.77.813-2.78.98-1 .167-2.02.163-3.06-.01a8.9 8.9 0 0 1-2.98-1.08c-.936-.54-1.554-1.11-1.854-1.71-.312-.607-.323-1.2-.034-1.78s.854-1.113 1.697-1.6zm1.451.84c-.52.3-.84.627-.966.98-.127.34-.064.697.186 1.07.26.373.71.75 1.37 1.13.65.373 1.3.637 1.96.79.65.147 1.27.187 1.87.12.6-.08 1.16-.27 1.68-.57s.84-.62.97-.96c.12-.347.05-.707-.21-1.08-.26-.38-.72-.757-1.37-1.13-.65-.38-1.31-.643-1.95-.79-.65-.147-1.27-.183-1.86-.11a4.27 4.27 0 0 0-1.68.55zm14.01.434l-8.66-5 1.64-.95 2.38 1.23h-.49c-.33-.38-.51-.75-.53-1.11-.03-.373.09-.723.36-1.05.28-.333.65-.637 1.13-.91.61-.353 1.28-.6 2-.74.73-.153 1.48-.177 2.24-.07a6.1 6.1 0 0 1 2.23.79l5.61 3.24-1.85 1.07-5.04-2.91c-.85-.493-1.62-.73-2.3-.71-.68.007-1.29.163-1.82.47-.38.22-.66.487-.83.8-.19.307-.2.643-.05 1.01.16.36.57.73 1.23 1.11l4.6 2.66-1.85 1.07z"/></g><rect x=".866" width="155" height="49" rx="24.5" transform="matrix(.866025 -.5 .866025 .5 883.116 141.403)" stroke="url(#W)"/><rect x=".866" width="97" height="49" rx="24.5" transform="matrix(.866025 -.5 .866025 .5 120.117 145.404)" fill="url(#X)"/><g filter="url(#I)" class="H"><path d="M162.469 138.551a10.06 10.06 0 0 1 3.256-1.2c1.132-.213 2.333-.253 3.603-.12l-.052 1.41c-1.108-.133-2.084-.123-2.927.03a7.06 7.06 0 0 0-2.39.86c-.555.32-.936.627-1.144.92s-.271.564-.19.81c.081.234.277.44.589.62.358.207.791.317 1.299.33.52.007 1.195-.143 2.026-.45l2.841-1.04c1.351-.5 2.506-.74 3.464-.72s1.819.25 2.581.69c.704.407 1.126.87 1.264 1.39s.006 1.057-.398 1.61c-.393.547-1.045 1.084-1.957 1.61-.809.467-1.64.827-2.495 1.08s-1.703.417-2.546.49a12.16 12.16 0 0 1-2.425-.02v-1.48c.647.094 1.317.127 2.01.1a9.3 9.3 0 0 0 2.009-.32 8.14 8.14 0 0 0 1.905-.8c.531-.306.924-.606 1.178-.9.265-.3.375-.576.329-.83-.046-.266-.242-.5-.589-.7-.335-.193-.745-.296-1.23-.31-.473-.02-1.085.107-1.836.38l-3.083 1.12c-.843.314-1.628.52-2.355.62s-1.397.1-2.009 0c-.624-.106-1.184-.303-1.681-.59-.646-.373-1.056-.81-1.229-1.31-.174-.513-.081-1.053.277-1.62.346-.573.981-1.126 1.905-1.66zm9.883-5.246l8.608 4.97c.428.247.849.364 1.265.35a2.64 2.64 0 0 0 1.212-.36c.312-.18.537-.363.676-.55.127-.193.202-.396.225-.61l1.767.54c-.035.287-.179.584-.433.89-.254.294-.618.577-1.092.85a6.27 6.27 0 0 1-1.61.65c-.578.147-1.161.184-1.75.11-.6-.08-1.201-.286-1.801-.62l-8.4-4.85 1.333-1.37zm5.525-.25l1.455.84-6.495 3.75-1.455-.84 6.495-3.75zm9.99-2.187c-.577-.333-1.183-.497-1.818-.49a3.43 3.43 0 0 0-1.784.47c-.52.3-.843.627-.97.98s-.006.737.363 1.15l-2.217.52c-.485-.533-.623-1.107-.415-1.72.219-.62.837-1.223 1.853-1.81.693-.4 1.42-.687 2.182-.86.751-.18 1.501-.227 2.252-.14.762.08 1.495.323 2.2.73l3.862 2.23a1.2 1.2 0 0 0 1.282 0 2.24 2.24 0 0 0 .519-.4l1.178.8c-.138.227-.41.457-.814.69-.369.213-.768.37-1.195.47a4.04 4.04 0 0 1-1.299.05 3.6 3.6 0 0 1-1.264-.45l-.122-.07.364-.23c.347.32.508.66.485 1.02-.035.353-.19.697-.468 1.03-.288.327-.652.617-1.091.87-.542.313-1.12.547-1.732.7a5.49 5.49 0 0 1-1.801.14c-.601-.067-1.161-.25-1.68-.55-.647-.373-.97-.8-.97-1.28.011-.487.329-.997.952-1.53l2.702-2.32 1.282.76-1.94 1.7c-.392.333-.623.62-.693.86s.064.457.399.65c.323.187.704.267 1.143.24a3.11 3.11 0 0 0 1.282-.42c.288-.167.531-.347.727-.54.208-.2.347-.407.416-.62.058-.22.023-.433-.104-.64-.127-.22-.364-.43-.71-.63l-2.356-1.36zm10.433.397l-8.661-5 1.576-.91 1.733.8c-.335-.46-.422-.904-.26-1.33.161-.44.577-.854 1.247-1.24a4.03 4.03 0 0 1 .571-.27c.197-.087.381-.147.555-.18l1.368 1.09c-.173.046-.352.11-.537.19-.185.066-.41.176-.676.33-.357.206-.612.466-.762.78-.161.306-.167.636-.017.99.162.346.537.69 1.126 1.03l4.59 2.65-1.853 1.07zm-1.929-11.827l8.608 4.97c.427.247.849.364 1.265.35a2.64 2.64 0 0 0 1.212-.36c.312-.18.537-.363.675-.55.128-.193.203-.396.226-.61l1.766.54c-.034.287-.179.584-.433.89-.254.294-.617.577-1.091.85a6.26 6.26 0 0 1-1.611.65c-.577.147-1.16.184-1.749.11-.6-.08-1.201-.286-1.801-.62l-8.401-4.85 1.334-1.37zm5.525-.25l1.455.84-6.495 3.75-1.455-.84 6.495-3.75z"/></g><rect x=".866" width="97" height="49" rx="24.5" transform="matrix(.866025 -.5 .866025 .5 120.117 145.404)" stroke="url(#Y)"/><g class="F G"><path d="M247.229 170.677c.677 0 1.225-.316 1.225-.707v-6.364c0-.39-.548-.707-1.225-.707s-1.224.317-1.224.707v5.657h-9.798c-.677 0-1.225.317-1.225.707s.548.707 1.225.707h11.022zm-39.365-22.434l38.499 22.227 1.733-1-38.5-22.227-1.732 1z"/></g><rect x=".866" width="120" height="49" rx="24.5" transform="matrix(.866025 -.5 .866025 .5 909.116 228.903)" fill="url(#Z)"/><g filter="url(#J)" class="H"><path d="M951.364 222.112c1.028-.594 2.113-.994 3.256-1.2 1.132-.214 2.333-.254 3.603-.12l-.052 1.41c-1.109-.134-2.084-.124-2.927.03a7.05 7.05 0 0 0-2.391.86c-.554.32-.935.626-1.143.92s-.271.563-.19.81c.081.233.277.44.589.62.358.206.791.316 1.299.33.519.006 1.195-.144 2.026-.45l2.841-1.04c1.351-.5 2.505-.74 3.464-.72s1.818.25 2.581.69c.704.406 1.125.87 1.264 1.39s.006 1.056-.398 1.61c-.393.546-1.045 1.083-1.958 1.61-.808.466-1.639.826-2.494 1.08a12.93 12.93 0 0 1-2.546.49 12.31 12.31 0 0 1-2.425-.02v-1.48a11.16 11.16 0 0 0 2.009.1 9.37 9.37 0 0 0 2.01-.32 8.26 8.26 0 0 0 1.905-.8c.531-.307.924-.607 1.178-.9.265-.3.375-.577.329-.83-.046-.267-.243-.5-.589-.7-.335-.194-.745-.297-1.23-.31-.473-.02-1.085.106-1.836.38l-3.083 1.12c-.843.313-1.628.52-2.356.62s-1.397.1-2.009 0c-.623-.107-1.183-.304-1.68-.59-.646-.374-1.056-.81-1.23-1.31-.173-.514-.08-1.054.278-1.62.346-.574.981-1.127 1.905-1.66zm9.883-5.247l8.608 4.97c.427.247.849.364 1.265.35a2.64 2.64 0 0 0 1.212-.36c.312-.18.537-.363.676-.55.127-.193.202-.396.225-.61l1.766.54c-.034.287-.179.584-.433.89-.254.294-.617.577-1.091.85a6.26 6.26 0 0 1-1.611.65c-.577.147-1.16.184-1.749.11-.6-.08-1.201-.286-1.801-.62l-8.401-4.85 1.334-1.37zm5.525-.25l1.455.84-6.495 3.75-1.455-.84 6.495-3.75zm9.99-2.187c-.577-.333-1.184-.497-1.819-.49-.635-.007-1.229.15-1.784.47-.519.3-.843.627-.97.98s-.005.737.364 1.15l-2.217.52c-.485-.533-.624-1.107-.416-1.72.22-.62.837-1.223 1.854-1.81.692-.4 1.42-.687 2.182-.86.751-.18 1.501-.227 2.252-.14.762.08 1.495.323 2.199.73l3.863 2.23a1.2 1.2 0 0 0 1.282 0 2.26 2.26 0 0 0 .519-.4l1.178.8c-.139.227-.41.457-.814.69-.37.213-.768.37-1.195.47a4.04 4.04 0 0 1-1.299.05c-.439-.067-.86-.217-1.265-.45l-.121-.07.364-.23c.346.32.508.66.485 1.02-.035.353-.191.697-.468 1.03-.288.327-.652.617-1.091.87a6.71 6.71 0 0 1-1.732.7c-.601.147-1.201.193-1.801.14-.601-.067-1.161-.25-1.68-.55-.647-.373-.97-.8-.97-1.28.011-.487.329-.997.952-1.53l2.702-2.32 1.282.76-1.94 1.7c-.393.333-.624.62-.693.86s.064.457.399.65c.323.187.704.267 1.143.24.439-.04.866-.18 1.281-.42.289-.167.532-.347.728-.54.208-.2.346-.407.416-.62.057-.22.023-.433-.104-.64-.127-.22-.364-.43-.71-.63l-2.356-1.36zm7.608-10.073l1.75.67-.104.06c-.046.014-.087.03-.122.05-.554.32-.854.634-.9.94-.058.3.138.58.589.84l-1.317.28c-.462-.266-.773-.56-.935-.88-.173-.326-.185-.653-.035-.98.162-.333.474-.633.936-.9l.069-.04.069-.04zm6.392 6.85c.877-.506 1.755-.786 2.632-.84.866-.06 1.64.107 2.321.5.601.347.924.754.97 1.22.058.474-.127.967-.554 1.48-.416.507-1.045 1.004-1.888 1.49-1.42.82-2.691 1.3-3.811 1.44s-2.009.02-2.667-.36c-.462-.266-.704-.593-.727-.98-.012-.393.352-.83 1.091-1.31l.173.22a5.49 5.49 0 0 1-1.732.36c-.566.007-1.097-.133-1.594-.42s-.727-.64-.692-1.06.369-.846 1.004-1.28l1.438-.29-.208.12c-.485.334-.739.62-.762.86s.086.43.329.57c.289.167.606.23.953.19.358-.046.733-.183 1.125-.41l2.599-1.5zm2.095 3.05c.635-.366 1.091-.703 1.369-1.01.3-.306.45-.573.45-.8.023-.226-.081-.406-.312-.54-.265-.153-.589-.213-.97-.18-.369.027-.831.2-1.385.52l-2.789 1.61c-.323.187-.514.39-.572.61-.046.227.075.424.364.59.381.22.912.26 1.594.12s1.431-.446 2.251-.92zm-11.241-6.41c.762-.44 1.542-.75 2.339-.93.808-.186 1.581-.24 2.321-.16.75.074 1.42.28 2.009.62s.947.727 1.074 1.16c.138.427.046.874-.278 1.34-.311.46-.848.91-1.61 1.35-1.201.694-2.391 1.074-3.568 1.14-1.178.054-2.206-.173-3.083-.68-.589-.34-.947-.726-1.074-1.16s-.035-.88.277-1.34c.323-.466.854-.913 1.593-1.34zm1.299.75c-.531.307-.825.65-.883 1.03-.058.367.162.694.658.98s1.068.417 1.715.39a3.9 3.9 0 0 0 1.784-.51c.543-.313.837-.656.883-1.03.058-.38-.161-.713-.658-1s-1.068-.41-1.715-.37a3.84 3.84 0 0 0-1.784.51zm4.487-5.57c-.404.233-.814.357-1.23.37-.415 0-.808-.107-1.178-.32s-.548-.437-.536-.67c.023-.24.236-.477.64-.71a2.45 2.45 0 0 1 1.195-.35 2.18 2.18 0 0 1 1.178.3c.37.213.549.443.537.69-.011.233-.213.463-.606.69zm2.373.31l8.66 5-1.853 1.07-8.66-5 1.853-1.07zm11.555 3.326l-8.655-5 1.645-.95 2.373 1.23h-.485c-.335-.38-.514-.75-.537-1.11-.023-.374.098-.724.364-1.05.277-.334.652-.637 1.126-.91.612-.354 1.281-.6 2.009-.74.727-.154 1.47-.177 2.23-.07.77.106 1.51.37 2.24.79l5.61 3.24-1.85 1.07-5.04-2.91c-.86-.494-1.63-.73-2.31-.71-.678.006-1.284.163-1.815.47-.382.22-.659.486-.832.8-.185.306-.202.643-.052 1.01.162.36.572.73 1.23 1.11l4.609 2.66-1.86 1.07zm7.87-16.642l1.75.67-.1.06c-.05.014-.09.03-.12.05-.56.32-.86.634-.91.94-.05.3.14.58.59.84l-1.31.28c-.46-.266-.78-.56-.94-.88a1.06 1.06 0 0 1-.03-.98c.16-.333.47-.633.93-.9a.37.37 0 0 0 .07-.04c.02-.013.05-.026.07-.04zm6.39 6.85c.88-.506 1.76-.786 2.63-.84.87-.06 1.64.107 2.33.5.6.347.92.754.97 1.22.05.474-.13.967-.56 1.48-.41.507-1.04 1.004-1.89 1.49-1.42.82-2.69 1.3-3.81 1.44s-2.01.02-2.66-.36c-.47-.266-.71-.593-.73-.98-.01-.393.35-.83 1.09-1.31l.17.22a5.46 5.46 0 0 1-1.73.36c-.57.007-1.1-.133-1.59-.42-.5-.286-.73-.64-.7-1.06.04-.42.37-.846 1.01-1.28l1.44-.29-.21.12c-.49.334-.74.62-.76.86-.03.24.08.43.33.57.28.167.6.23.95.19.36-.046.73-.183 1.12-.41l2.6-1.5zm2.1 3.05c.63-.366 1.09-.703 1.37-1.01.3-.306.45-.573.45-.8.02-.226-.08-.406-.32-.54-.26-.153-.58-.213-.97-.18-.36.027-.83.2-1.38.52l-2.79 1.61c-.32.187-.51.39-.57.61-.05.227.07.424.36.59.38.22.91.26 1.6.12.68-.14 1.43-.446 2.25-.92zm-11.24-6.41c.76-.44 1.54-.75 2.34-.93.8-.186 1.58-.24 2.32-.16.75.074 1.42.28 2.01.62.58.34.94.727 1.07 1.16.14.427.05.874-.28 1.34-.31.46-.85.91-1.61 1.35-1.2.694-2.39 1.074-3.57 1.14-1.17.054-2.2-.173-3.08-.68-.59-.34-.95-.726-1.07-1.16-.13-.433-.04-.88.27-1.34.33-.466.86-.913 1.6-1.34zm1.3.75c-.54.307-.83.65-.89 1.03-.06.367.16.694.66.98s1.07.417 1.72.39a3.91 3.91 0 0 0 1.78-.51c.54-.313.84-.656.88-1.03.06-.38-.16-.713-.66-1-.49-.286-1.06-.41-1.71-.37a3.8 3.8 0 0 0-1.78.51z"/></g><rect x=".866" width="120" height="49" rx="24.5" transform="matrix(.866025 -.5 .866025 .5 909.116 228.903)" stroke="url(#a)"/><path d="M707.183 266.765L734.193 191.269L864.955 175.675L837.945 251.171L707.183 266.765Z" fill="url(#b)" stroke="url(#c)"/><g filter="url(#K)"><path d="M769.229 221.443l-2.477 1.43-3.741-1.06-4.382 2.53 1.836 2.16-2.442 1.41-7.257-9.01 2.857-1.65 15.606 4.19zm-11.83 1.57l3.308-1.91-6.651-1.92 3.343 3.83zm16.386-4a6.52 6.52 0 0 1-1.871.72 5.96 5.96 0 0 1-2.096.07c-.727-.114-1.455-.38-2.182-.8l-5.75-3.32 2.372-1.37 5.179 2.99c.67.386 1.276.576 1.819.57.531-.014 1.057-.17 1.576-.47.243-.14.439-.3.589-.48a.89.89 0 0 0 .191-.59c0-.214-.093-.434-.278-.66-.196-.234-.496-.467-.9-.7l-4.659-2.69 2.372-1.37 8.661 5-2.113 1.22-1.594-.82c.289.5.318.976.087 1.43-.231.44-.699.863-1.403 1.27zm-.725-12.842l8.487 4.9c.416.24.826.357 1.23.35.404-.02.791-.137 1.16-.35.289-.167.503-.337.641-.51.127-.18.202-.363.225-.55l1.958.69c-.058.287-.231.587-.52.9s-.664.603-1.126.87c-.577.333-1.178.58-1.801.74-.612.153-1.236.193-1.871.12-.623-.08-1.253-.303-1.888-.67l-8.21-4.74 1.715-1.75zm5.421-.07l1.767 1.02-6.738 3.89-1.766-1.02 6.737-3.89zm5.382-3.307c.877-.507 1.824-.847 2.84-1.02 1.028-.18 2.061-.183 3.101-.01 1.05.167 2.049.523 2.996 1.07.935.54 1.553 1.117 1.853 1.73.301.6.295 1.197-.017 1.79-.3.587-.889 1.133-1.767 1.64-.866.5-1.813.84-2.84 1.02a9.4 9.4 0 0 1-3.118.02c-1.051-.18-2.044-.54-2.979-1.08-.947-.547-1.57-1.12-1.871-1.72a1.91 1.91 0 0 1 .035-1.8c.312-.593.901-1.14 1.767-1.64zm1.766 1.02c-.438.253-.71.53-.814.83-.104.287-.034.593.208.92s.67.667 1.282 1.02 1.201.6 1.767.74 1.102.183 1.61.13a3.82 3.82 0 0 0 1.421-.48c.427-.247.693-.513.796-.8.104-.3.035-.613-.207-.94s-.67-.667-1.282-1.02-1.201-.6-1.767-.74-1.103-.177-1.611-.11a3.5 3.5 0 0 0-1.403.45zm-27.595 33.892c1.79-1.033 3.672-1.546 5.646-1.54 1.963 0 3.863.53 5.699 1.59 1.824 1.054 2.742 2.15 2.754 3.29s-.878 2.227-2.668 3.26l-4.416 2.55-11.432-6.6 4.417-2.55zm9.405 5.57c1.085-.626 1.576-1.283 1.472-1.97-.104-.7-.773-1.406-2.009-2.12s-2.454-1.096-3.655-1.15c-1.201-.066-2.344.214-3.429.84l-1.905 1.1 7.621 4.4 1.905-1.1zm14.008-5.687a9.01 9.01 0 0 1-2.927 1.07c-1.028.18-2.061.183-3.101.01s-2.032-.534-2.979-1.08-1.57-1.12-1.87-1.72-.301-1.194 0-1.78c.311-.594.895-1.137 1.749-1.63a7.83 7.83 0 0 1 2.771-.98c.959-.154 1.906-.147 2.841.02.924.16 1.772.463 2.546.91l.641.39.502.35-6.911 3.99-1.645-.95 5.871-3.39-.727.9c-.727-.42-1.455-.647-2.182-.68-.716-.04-1.375.113-1.975.46-.439.253-.716.533-.831.84-.104.3-.029.616.225.95.242.326.675.67 1.299 1.03.612.353 1.207.596 1.784.73.577.12 1.126.143 1.645.07a4.22 4.22 0 0 0 1.49-.52c.508-.294.82-.587.935-.88s.087-.59-.086-.89l2.615-.67c.266.366.369.753.312 1.16-.046.4-.243.8-.589 1.2-.347.386-.814.75-1.403 1.09zm9.476-1.471l-12.298-7.1 2.131-1.23 2.91 1.5-.607-.01c-.404-.354-.663-.724-.779-1.11-.104-.394-.046-.78.173-1.16.208-.387.583-.737 1.126-1.05.704-.407 1.513-.667 2.425-.78s1.859-.067 2.841.14c.981.193 1.945.563 2.892 1.11s1.599 1.11 1.957 1.69c.347.573.416 1.126.208 1.66-.196.526-.652.996-1.368 1.41-.762.44-1.611.683-2.546.73-.924.04-1.802-.074-2.633-.34l-.139-.34 6.08 3.51-2.373 1.37zm-.901-5.58c.635-.367.907-.784.814-1.25-.092-.48-.577-.974-1.455-1.48s-1.72-.787-2.528-.84c-.809-.067-1.53.083-2.165.45-.405.233-.653.503-.745.81-.093.293-.023.606.208.94.219.326.612.653 1.177.98.555.32 1.115.55 1.681.69s1.108.186 1.628.14a3.56 3.56 0 0 0 1.385-.44zm-1.992-11.33l9.786 5.65c.404.234.756.357 1.056.37s.612-.073.936-.26a3.27 3.27 0 0 0 .45-.3l.346-.36 1.351 1.02c-.08.18-.242.374-.485.58-.219.207-.473.394-.762.56-.843.487-1.663.727-2.459.72-.797-.02-1.646-.29-2.546-.81l-10.046-5.8 2.373-1.37zm10.762-2.033c.877-.507 1.824-.847 2.84-1.02a9.14 9.14 0 0 1 3.1-.01c1.051.167 2.05.523 2.997 1.07.935.54 1.553 1.117 1.853 1.73.3.6.295 1.197-.017 1.79-.3.587-.889 1.133-1.767 1.64-.866.5-1.813.84-2.84 1.02a9.4 9.4 0 0 1-3.118.02c-1.051-.18-2.044-.54-2.979-1.08-.947-.547-1.571-1.12-1.871-1.72-.289-.607-.277-1.207.035-1.8s.9-1.14 1.767-1.64zm1.766 1.02c-.439.253-.71.53-.814.83-.104.287-.035.593.208.92s.67.667 1.282 1.02 1.201.6 1.766.74 1.103.183 1.611.13a3.81 3.81 0 0 0 1.42-.48c.428-.247.693-.513.797-.8.104-.3.035-.613-.208-.94s-.669-.667-1.281-1.02-1.201-.6-1.767-.74-1.103-.177-1.611-.11c-.508.053-.976.203-1.403.45zm12.578-9.102l5.698 7.33c.508.614.82 1.154.936 1.62.127.46.069.88-.174 1.26-.231.374-.652.737-1.264 1.09-.45.26-.924.467-1.42.62-.474.154-.936.26-1.386.32l-1.212-1.28c.392-.026.744-.09 1.056-.19.324-.093.641-.23.953-.41.323-.186.531-.386.623-.6.104-.22.029-.496-.225-.83l-.45-.6-3.204-.75-9.18-2.24 2.632-1.52 6.842 2.05 2.182.74-1.299-1.37-3.516-3.85 2.408-1.39zm2.232-4.689c.82-.473 1.669-.823 2.547-1.05s1.732-.306 2.563-.24a5.21 5.21 0 0 1 2.252.68c.692.4 1.114.817 1.264 1.25.15.42.092.84-.173 1.26-.277.414-.681.814-1.213 1.2l1.507 1.01-2.165 1.25-2.598-1.52c.681-.5 1.161-.916 1.438-1.25.277-.346.381-.64.312-.88-.058-.246-.254-.466-.589-.66-.324-.186-.664-.303-1.022-.35a2.92 2.92 0 0 0-1.091.05 4.34 4.34 0 0 0-1.196.49c-.6.347-.906.724-.918 1.13-.023.4.237.804.78 1.21l-3.118.8c-.462-.426-.739-.88-.831-1.36-.104-.486.023-.98.381-1.48.358-.513.981-1.026 1.87-1.54zm8.851 5.39a3 3 0 0 1 1.438-.41c.508-.013.964.097 1.368.33.416.24.612.507.589.8-.035.287-.277.56-.727.82s-.924.4-1.421.42a2.57 2.57 0 0 1-1.385-.34c-.404-.233-.595-.496-.572-.79s.26-.57.71-.83z" fill="#fff"/></g><g class="F G"><path d="M902.411 155.47c0-.391-.548-.707-1.224-.707h-11.023c-.677 0-1.225.316-1.225.707s.548.707 1.225.707h9.798v5.657c0 .39.548.707 1.225.707s1.224-.317 1.224-.707v-6.364zm-31.72 18.607l31.362-18.107-1.732-1-31.362 18.107 1.732 1z"/></g><g class="F G"><path d="M928.411 242.97c0-.39-.548-.707-1.224-.707h-11.023c-.676 0-1.225.317-1.225.707s.549.707 1.225.707h9.798v5.657c0 .391.548.707 1.225.707s1.224-.316 1.224-.707v-6.364zm-87.349 11l12.751 7.362 1.732-1-12.751-7.362-1.732 1zm56.052 7.362l30.939-17.862-1.732-1-30.939 17.862 1.732 1zm-43.301 0c11.958 6.904 31.344 6.904 43.301 0l-1.732-1c-11 6.352-28.836 6.352-39.837 0l-1.732 1z"/></g><g class="F G"><use xlink:href="#f"/></g><g class="F G"><use xlink:href="#f"/></g><rect width="1090" height="291" rx="24" fill="url(#d)"/></g></g><defs><filter id="B" x="349" y="-122" width="904" height="673" filterUnits="userSpaceOnUse" class="D"><feFlood class="E"/><feBlend in="SourceGraphic"/><feGaussianBlur stdDeviation="100"/></filter><filter id="C" x="233.484" y="162.73" width="81.979" height="49.021" filterUnits="userSpaceOnUse" class="D"><feFlood result="A" class="E"/><feColorMatrix in="SourceAlpha" values="0 0 0 0 0 0 0 0 0 0 0 0 0 0 0 0 0 0 127 0" result="B"/><feOffset dy="2"/><feGaussianBlur stdDeviation="1"/><feComposite in2="B" operator="out"/><feColorMatrix values="0 0 0 0 0 0 0 0 0 0 0 0 0 0 0 0 0 0 0.07 0"/><feBlend in2="A"/><feBlend in="SourceGraphic"/></filter><filter id="D" x="294.675" y="197.617" width="127.977" height="75.579" filterUnits="userSpaceOnUse" class="D"><feFlood result="A" class="E"/><feColorMatrix in="SourceAlpha" values="0 0 0 0 0 0 0 0 0 0 0 0 0 0 0 0 0 0 127 0" result="B"/><feOffset dy="2"/><feGaussianBlur stdDeviation="1"/><feComposite in2="B" operator="out"/><feColorMatrix values="0 0 0 0 0 0 0 0 0 0 0 0 0 0 0 0 0 0 0.07 0"/><feBlend in2="A"/><feBlend in="SourceGraphic"/></filter><filter id="E" x="448.385" y="26.853" width="90.539" height="53.963" filterUnits="userSpaceOnUse" class="D"><feFlood result="A" class="E"/><feColorMatrix in="SourceAlpha" values="0 0 0 0 0 0 0 0 0 0 0 0 0 0 0 0 0 0 127 0" result="B"/><feOffset dy="2"/><feGaussianBlur stdDeviation="1"/><feComposite in2="B" operator="out"/><feColorMatrix values="0 0 0 0 0 0 0 0 0 0 0 0 0 0 0 0 0 0 0.07 0"/><feBlend in2="A"/><feBlend in="SourceGraphic"/></filter><filter id="F" x="517.578" y="67.208" width="117.392" height="69.467" filterUnits="userSpaceOnUse" class="D"><feFlood result="A" class="E"/><feColorMatrix in="SourceAlpha" values="0 0 0 0 0 0 0 0 0 0 0 0 0 0 0 0 0 0 127 0" result="B"/><feOffset dy="2"/><feGaussianBlur stdDeviation="1"/><feComposite in2="B" operator="out"/><feColorMatrix values="0 0 0 0 0 0 0 0 0 0 0 0 0 0 0 0 0 0 0.07 0"/><feBlend in2="A"/><feBlend in="SourceGraphic"/></filter><filter id="G" x="587.587" y="106.839" width="151.069" height="88.91" filterUnits="userSpaceOnUse" class="D"><feFlood result="A" class="E"/><feColorMatrix in="SourceAlpha" values="0 0 0 0 0 0 0 0 0 0 0 0 0 0 0 0 0 0 127 0" result="B"/><feOffset dy="2"/><feGaussianBlur stdDeviation="1"/><feComposite in2="B" operator="out"/><feColorMatrix values="0 0 0 0 0 0 0 0 0 0 0 0 0 0 0 0 0 0 0.07 0"/><feBlend in2="A"/><feBlend in="SourceGraphic"/></filter><filter id="H" x="918.624" y="84.504" width="106.354" height="63.094" filterUnits="userSpaceOnUse" class="D"><feFlood result="A" class="E"/><feColorMatrix in="SourceAlpha" values="0 0 0 0 0 0 0 0 0 0 0 0 0 0 0 0 0 0 127 0" result="B"/><feOffset dy="2"/><feGaussianBlur stdDeviation="1"/><feComposite in2="B" operator="out"/><feColorMatrix values="0 0 0 0 0 0 0 0 0 0 0 0 0 0 0 0 0 0 0.07 0"/><feBlend in2="A"/><feBlend in="SourceGraphic"/></filter><filter id="I" x="155.481" y="117.408" width="57.387" height="34.823" filterUnits="userSpaceOnUse" class="D"><feFlood result="A" class="E"/><feColorMatrix in="SourceAlpha" values="0 0 0 0 0 0 0 0 0 0 0 0 0 0 0 0 0 0 127 0" result="B"/><feOffset dy="2"/><feGaussianBlur stdDeviation="1"/><feComposite in2="B" operator="out"/><feColorMatrix values="0 0 0 0 0 0 0 0 0 0 0 0 0 0 0 0 0 0 0.07 0"/><feBlend in2="A"/><feBlend in="SourceGraphic"/></filter><filter id="J" x="943.562" y="188.729" width="82.137" height="49.112" filterUnits="userSpaceOnUse" class="D"><feFlood result="A" class="E"/><feColorMatrix in="SourceAlpha" values="0 0 0 0 0 0 0 0 0 0 0 0 0 0 0 0 0 0 127 0" result="B"/><feOffset dy="2"/><feGaussianBlur stdDeviation="1"/><feComposite in2="B" operator="out"/><feColorMatrix values="0 0 0 0 0 0 0 0 0 0 0 0 0 0 0 0 0 0 0.07 0"/><feBlend in2="A"/><feBlend in="SourceGraphic"/></filter><filter id="K" x="729.699" y="190.574" width="109.207" height="66.432" filterUnits="userSpaceOnUse" class="D"><feFlood result="A" class="E"/><feColorMatrix in="SourceAlpha" values="0 0 0 0 0 0 0 0 0 0 0 0 0 0 0 0 0 0 127 0" result="B"/><feOffset dy="4"/><feGaussianBlur stdDeviation="2"/><feComposite in2="B" operator="out"/><feColorMatrix values="0 0 0 0 0 0 0 0 0 0 0 0 0 0 0 0 0 0 0.1 0"/><feBlend in2="A"/><feBlend in="SourceGraphic"/></filter><linearGradient id="L" x1="62" y1="0" x2="62" y2="50" xlink:href="#g"><stop stop-color="#2d2a83"/><stop offset=".401" stop-color="#4441a7"/><stop offset=".813" stop-color="#4945b4"/><stop offset="1" stop-color="#403cab"/></linearGradient><linearGradient id="M" x1="62" y1="0" x2="62" y2="50" xlink:href="#g"><stop stop-color="#7875c9"/><stop offset="1" stop-color="#3e3b8f"/></linearGradient><linearGradient id="N" x1="87" y1="0" x2="87" y2="50" xlink:href="#g"><stop stop-color="#2d2a83"/><stop offset=".401" stop-color="#4441a7"/><stop offset=".813" stop-color="#4945b4"/><stop offset="1" stop-color="#403cab"/></linearGradient><linearGradient id="O" x1="87" y1="0" x2="87" y2="50" xlink:href="#g"><stop stop-color="#7875c9"/><stop offset="1" stop-color="#3e3b8f"/></linearGradient><linearGradient id="P" x1="68" y1="0" x2="68" y2="50" xlink:href="#g"><stop stop-color="#2d2a83"/><stop offset=".401" stop-color="#4441a7"/><stop offset=".813" stop-color="#4945b4"/><stop offset="1" stop-color="#403cab"/></linearGradient><linearGradient id="Q" x1="68" y1="0" x2="68" y2="50" xlink:href="#g"><stop stop-color="#7875c9"/><stop offset="1" stop-color="#3e3b8f"/></linearGradient><linearGradient id="R" x1="82" y1="0" x2="82" y2="50" xlink:href="#g"><stop stop-color="#2d2a83"/><stop offset=".401" stop-color="#4441a7"/><stop offset=".813" stop-color="#4945b4"/><stop offset="1" stop-color="#403cab"/></linearGradient><linearGradient id="S" x1="82" y1="0" x2="82" y2="50" xlink:href="#g"><stop stop-color="#7875c9"/><stop offset="1" stop-color="#3e3b8f"/></linearGradient><linearGradient id="T" x1="101" y1="0" x2="101" y2="50" xlink:href="#g"><stop stop-color="#2d2a83"/><stop offset=".401" stop-color="#4441a7"/><stop offset=".813" stop-color="#4945b4"/><stop offset="1" stop-color="#403cab"/></linearGradient><linearGradient id="U" x1="101" y1="0" x2="101" y2="50" xlink:href="#g"><stop stop-color="#7875c9"/><stop offset="1" stop-color="#3e3b8f"/></linearGradient><linearGradient id="V" x1="78" y1="0" x2="78" y2="50" xlink:href="#g"><stop stop-color="#2d2a83"/><stop offset=".401" stop-color="#4441a7"/><stop offset=".813" stop-color="#4945b4"/><stop offset="1" stop-color="#403cab"/></linearGradient><linearGradient id="W" x1="78" y1="0" x2="78" y2="50" xlink:href="#g"><stop stop-color="#7875c9"/><stop offset="1" stop-color="#3e3b8f"/></linearGradient><linearGradient id="X" x1="49" y1="0" x2="49" y2="50" xlink:href="#g"><stop stop-color="#2d2a83"/><stop offset=".401" stop-color="#4441a7"/><stop offset=".813" stop-color="#4945b4"/><stop offset="1" stop-color="#403cab"/></linearGradient><linearGradient id="Y" x1="49" y1="0" x2="49" y2="50" xlink:href="#g"><stop stop-color="#7875c9"/><stop offset="1" stop-color="#3e3b8f"/></linearGradient><linearGradient id="Z" x1="60.5" y1="0" x2="60.5" y2="50" xlink:href="#g"><stop stop-color="#2d2a83"/><stop offset=".401" stop-color="#4441a7"/><stop offset=".813" stop-color="#4945b4"/><stop offset="1" stop-color="#403cab"/></linearGradient><linearGradient id="a" x1="60.5" y1="0" x2="60.5" y2="50" xlink:href="#g"><stop stop-color="#7875c9"/><stop offset="1" stop-color="#3e3b8f"/></linearGradient><linearGradient id="b" x1="733.674" y1="190.97" x2="786.069" y2="281.72" xlink:href="#g"><stop offset=".135" stop-color="#592f9f"/><stop offset=".464" stop-color="#7a53b9"/><stop offset=".708" stop-color="#835bc6"/><stop offset="1" stop-color="#9871d8"/></linearGradient><linearGradient id="c" x1="733.674" y1="190.97" x2="786.069" y2="281.72" xlink:href="#g"><stop offset=".207" stop-color="#9f75c9"/><stop offset="1" stop-color="#6a3b8f"/></linearGradient><linearGradient id="d" x1="314" y1="40" x2="391" y2="188" xlink:href="#g"><stop stop-color="#1c1a59" stop-opacity=".7"/><stop offset="1" stop-color="#1c1a59" stop-opacity="0"/></linearGradient><clipPath id="e"><path fill="#fff" d="M0 0h1090v291H0z"/></clipPath><path id="f" d="M730.306 189.622c.676 0 1.225-.316 1.225-.707v-6.364c0-.39-.549-.707-1.225-.707s-1.225.317-1.225.707v5.657h-9.798c-.676 0-1.224.317-1.224.707s.548.707 1.224.707h11.023zm-44.938-25.652l44.072 25.445 1.732-1L687.1 162.97l-1.732 1z"/><linearGradient id="g" gradientUnits="userSpaceOnUse"/></defs></svg>