<svg id="Layer_1" data-name="Layer 1" xmlns="http://www.w3.org/2000/svg" viewBox="0 0 2517.42 478.08"><defs><style>.cls-1{fill:#fff;}.cls-2{fill:#6366f1;}</style></defs><path class="cls-1" d="M633.14,351.86l30.61-41.52c29.78,22.23,59.14,32.29,86.82,32.29,35.65,0,55.78-16.77,55.78-39.84,0-18-12.16-30.62-44-38.17l-51.58-12.16c-46.56-11.32-72.14-38.17-72.14-77.17,0-51.17,42.36-88.07,107.78-88.07,40.69,0,79.69,14.26,107.37,41.1l-34.39,36.91c-22.65-21-47.81-30.2-73.82-30.2-34.8,0-53.68,15.94-53.68,36.91,0,16.77,11.33,28.1,44.88,36.07l51.59,12.16C836.13,231.91,860,257.92,860,299c0,54.94-41.52,91.84-111.14,91.84C705.69,390.86,664.17,377,633.14,351.86Z"/><path class="cls-1" d="M1110,291.05H940.12c4.19,36.49,28.93,56.62,65.84,56.62,24.75,0,45.72-9.23,63.33-30.62l35.23,26.84c-22.65,30.62-57.45,47-99.4,47-69.62,0-115.33-45.29-115.33-110.72,0-66.26,47.81-114.08,114.92-114.08,62.48,0,106.52,41.11,106.52,106.11A137.93,137.93,0,0,1,1110,291.05ZM942.63,253.3h117.86c-5.46-30.2-26-44.88-56.21-44.88C972.83,208.42,950.6,224.36,942.63,253.3Z"/><path class="cls-1" d="M1357,171.1V385.83h-50.32V369.47c-16.36,13.85-38.59,21.39-61.66,21.39-58.71,0-106.94-47-106.94-112.39S1186.3,166.06,1245,166.06c23.07,0,45.3,7.55,61.66,21.39V171.1Zm-50.32,148.47V237.36c-13.84-16.77-34-24.74-54.11-24.74-35.65,0-63.33,25.58-63.33,65.85s27.68,66.26,63.33,66.26A69.8,69.8,0,0,0,1306.67,319.57Z"/><path class="cls-1" d="M1741.57,255V385.83h-50.33V265.88c0-36.07-16.36-53.26-40.26-53.26-17.2,0-35.65,8.39-51.17,26.84.42,5,.84,10.06.84,15.52V385.83h-50.33V265.88c0-36.07-16.36-53.26-40.26-53.26-16.78,0-34.81,8.39-50.33,25.58V385.83H1409.4V171.1h50.33v18.45a98.79,98.79,0,0,1,63.33-23.49c28.1,0,50.75,12.17,64.17,34.39,21.81-22.64,49.49-34.39,76.75-34.39C1709.69,166.06,1741.57,198.36,1741.57,255Z"/><path class="cls-1" d="M1791.46,76.31h50.33V385.83h-50.33Z"/><path class="cls-1" d="M2101,291.05H1931.11c4.2,36.49,28.94,56.62,65.85,56.62,24.75,0,45.71-9.23,63.33-30.62l35.23,26.84c-22.65,30.62-57.46,47-99.4,47-69.62,0-115.33-45.29-115.33-110.72,0-66.26,47.81-114.08,114.91-114.08,62.49,0,106.53,41.11,106.53,106.11A137.93,137.93,0,0,1,2101,291.05ZM1933.63,253.3h117.85c-5.45-30.2-26-44.88-56.2-44.88C1963.83,208.42,1941.6,224.36,1933.63,253.3Z"/><path class="cls-1" d="M2128.22,359.41l26-37.75c22.23,17.2,47.82,26,70.88,26,23.49,0,36.91-9.65,36.91-23.07,0-10.07-7.55-17.61-29.78-22.65l-37.32-8.8c-43.2-10.07-60.82-28.95-60.82-58.72,0-40.69,32.71-68.37,86-68.37,35.23,0,67.52,11.75,88.91,31.46l-27.26,35.65c-20.13-15.94-41.94-23.91-63.75-23.91-22.65,0-34.39,8.81-34.39,21.81,0,9.65,6.71,15.52,29.78,21l37.33,8.81c43.61,10.07,61.23,29.78,61.23,60.39,0,41.94-32.3,69.62-88.49,69.62C2186.52,390.86,2150.87,378.7,2128.22,359.41Z"/><path class="cls-1" d="M2333.72,359.41l26-37.75c22.23,17.2,47.81,26,70.88,26,23.49,0,36.91-9.65,36.91-23.07,0-10.07-7.55-17.61-29.78-22.65l-37.33-8.8c-43.2-10.07-60.81-28.95-60.81-58.72,0-40.69,32.71-68.37,86-68.37,35.23,0,67.52,11.75,88.91,31.46l-27.26,35.65c-20.13-15.94-41.94-23.91-63.75-23.91-22.65,0-34.39,8.81-34.39,21.81,0,9.65,6.71,15.52,29.78,21l37.32,8.81c43.62,10.07,61.24,29.78,61.24,60.39,0,41.94-32.3,69.62-88.5,69.62C2392,390.86,2356.36,378.7,2333.72,359.41Z"/><path class="cls-2" d="M342.41,103.37H239A135.67,135.67,0,0,0,103.37,239a32.3,32.3,0,0,0,32.3,32.3H168V239A71.07,71.07,0,0,1,239,168H342.41c38.95,0,70.9,31.37,71.06,70.32.41,96.53-78,175.19-174.43,175.19H135.67a32.3,32.3,0,0,0-32.3,32.3v32.3H239c132.41,0,240-108.22,239-240.85C477.52,163,416.63,103.37,342.41,103.37Z"/><path class="cls-2" d="M239,374.71A135.67,135.67,0,0,0,374.71,239h0a32.3,32.3,0,0,0-32.3-32.3h-32.3V239A71.07,71.07,0,0,1,239,310.11H135.67c-38.95,0-70.9-31.37-71.06-70.32C64.2,143.26,142.61,64.61,239,64.61H342.41a32.31,32.31,0,0,0,32.3-32.31V0H239C106.63,0-1,108.22,0,240.85c.55,74.22,61.45,133.86,135.66,133.86Z"/></svg>