<svg id="Layer_1" data-name="Layer 1" xmlns="http://www.w3.org/2000/svg" viewBox="0 0 478.08 478.08"><defs><style>.cls-1{fill:#6366f1;}</style></defs><path class="cls-1" d="M342.41,103.37H239A135.67,135.67,0,0,0,103.37,239a32.3,32.3,0,0,0,32.3,32.3H168V239A71.07,71.07,0,0,1,239,168H342.41c38.95,0,70.9,31.37,71.06,70.32.41,96.53-78,175.19-174.43,175.19H135.67a32.3,32.3,0,0,0-32.3,32.3v32.3H239c132.41,0,240-108.22,239-240.85C477.52,163,416.63,103.37,342.41,103.37Z"/><path class="cls-1" d="M239,374.71A135.67,135.67,0,0,0,374.71,239h0a32.3,32.3,0,0,0-32.3-32.3h-32.3V239A71.07,71.07,0,0,1,239,310.11H135.67c-38.95,0-70.9-31.37-71.06-70.32C64.2,143.26,142.61,64.61,239,64.61H342.41a32.31,32.31,0,0,0,32.3-32.31V0H239C106.63,0-1,108.22,0,240.85c.55,74.22,61.45,133.86,135.66,133.86Z"/></svg>